<?xml version="1.0" encoding="utf-8"?>
<!-- Generator: Adobe Illustrator 17.0.0, SVG Export Plug-In . SVG Version: 6.00 Build 0)  -->
<!DOCTYPE svg PUBLIC "-//W3C//DTD SVG 1.1//EN" "http://www.w3.org/Graphics/SVG/1.1/DTD/svg11.dtd">
<svg version="1.1" id="Layer_1" xmlns="http://www.w3.org/2000/svg" xmlns:xlink="http://www.w3.org/1999/xlink" x="0px" y="0px"
	 viewBox="0 0 145 145.167" enable-background="new 0 0 145 145.167" xml:space="preserve">
<!-- <circle fill="#4BAC83" stroke="#4BAC83" stroke-width="3" stroke-miterlimit="10" cx="72.016" cy="72.426" r="68.667"/> -->
<circle fill="white" stroke="white" stroke-width="3" stroke-miterlimit="10" cx="72.016" cy="72.426" r="68.667"/>
<g>
	<circle fill="none" cx="72.016" cy="72.426" r="53.862"/>
	<circle class="imagination_circle_green_fill" fill="currentColor" cx="72.016" cy="72.426" r="0"/>
	<g class="green_circle_text">
	<path fill="currentColor" d="M25.644,31.242l6.17,5.328l-1.209,1.401l-6.17-5.328L25.644,31.242z"/>
	<path fill="currentColor" d="M35.905,28.272c-0.681-0.705-1.5-1.563-2.291-2.445l-0.027,0.024c0.505,0.944,1.028,2.034,1.432,2.955
		l1.385,3.029l-1.072,0.961l-2.755-1.769c-0.836-0.534-1.818-1.212-2.672-1.875l-0.018,0.016c0.699,0.852,1.511,1.812,2.144,2.609
		l1.958,2.401l-1.27,1.138l-5.053-6.415l1.828-1.639l2.41,1.493c0.819,0.533,1.686,1.119,2.458,1.709l0.027-0.024
		c-0.459-0.855-0.97-1.842-1.377-2.695l-1.16-2.598l1.792-1.606l5.774,5.77l-1.342,1.203L35.905,28.272z"/>
	<path fill="currentColor" d="M41.102,25.764l0.626,2.079l-1.615,1.02l-2.244-8.22l2.045-1.291l6.486,5.542l-1.677,1.059l-1.647-1.433
		L41.102,25.764z M42.115,23.495l-1.353-1.191c-0.381-0.332-0.826-0.765-1.187-1.11l-0.021,0.013
		c0.156,0.474,0.383,1.06,0.522,1.529l0.514,1.72L42.115,23.495z"/>
	<path fill="currentColor" d="M53.214,21.411c-0.441,0.408-1.316,1.088-2.3,1.525c-1.358,0.604-2.494,0.699-3.474,0.341
		c-0.97-0.336-1.778-1.141-2.253-2.24c-1.09-2.479,0.082-4.694,2.523-5.78c0.961-0.427,1.785-0.569,2.228-0.554l0.246,1.505
		c-0.487,0.005-1.06,0.087-1.877,0.451c-1.402,0.624-2.109,1.891-1.393,3.504c0.684,1.536,2.048,2.014,3.429,1.4
		c0.387-0.172,0.676-0.354,0.779-0.479l-0.693-1.558l-1.148,0.511l-0.585-1.314l2.772-1.233L53.214,21.411z"/>
	<path fill="currentColor" d="M54.206,12.999l2.458,7.775L54.9,21.332l-2.458-7.775L54.206,12.999z"/>
	<path fill="currentColor" d="M58.302,20.216l-1.563-8.001l2.112-0.413l2.235,2.608c0.64,0.75,1.31,1.654,1.842,2.487l0.035-0.007
		c-0.325-1.033-0.571-2.107-0.806-3.306L61.7,11.245l1.662-0.325l1.563,8.001l-1.898,0.371l-2.313-2.752
		c-0.643-0.762-1.366-1.693-1.941-2.554l-0.033,0.019c0.254,1.047,0.498,2.17,0.753,3.476l0.471,2.41L58.302,20.216z"/>
	<path fill="currentColor" d="M68.383,16.572l-0.492,2.115l-1.91,0.079l2.15-8.249l2.417-0.101l2.865,8.04l-1.981,0.083l-0.716-2.064
		L68.383,16.572z M70.393,15.109l-0.58-1.707c-0.165-0.477-0.335-1.075-0.477-1.554l-0.023,0.001
		c-0.101,0.488-0.196,1.11-0.31,1.587l-0.411,1.748L70.393,15.109z"/>
	<path fill="currentColor" d="M75.675,12.067l-2.182-0.166l0.117-1.543l6.244,0.474l-0.117,1.543l-2.218-0.168l-0.5,6.582l-1.845-0.14
		L75.675,12.067z"/>
	<path fill="currentColor" d="M83.58,11.483l-1.389,8.032L80.368,19.2l1.389-8.032L83.58,11.483z"/>
	<path fill="currentColor" d="M92.218,17.876c-0.756,2.563-2.768,3.659-5.052,2.985c-2.32-0.684-3.16-2.834-2.504-5.061
		c0.69-2.342,2.702-3.653,5.01-2.973C92.073,13.535,92.854,15.719,92.218,17.876z M86.539,16.316
		c-0.451,1.531-0.05,2.821,1.133,3.169c1.194,0.353,2.214-0.583,2.661-2.102c0.414-1.403,0.097-2.808-1.121-3.167
		C88.018,13.865,86.987,14.797,86.539,16.316z"/>
	<path fill="currentColor" d="M92.213,22.364l3.518-7.353l1.942,0.929l0.238,3.425c0.065,0.983,0.063,2.108-0.006,3.094l0.033,0.016
		c0.355-1.023,0.797-2.032,1.324-3.133l1.028-2.149l1.527,0.73l-3.518,7.354l-1.745-0.835l-0.215-3.588
		c-0.061-0.995-0.086-2.173-0.034-3.208l-0.038-0.004c-0.421,0.992-0.895,2.039-1.469,3.239l-1.06,2.215L92.213,22.364z"/>
	<path fill="currentColor" d="M106.935,30.992c-0.373-0.067-1.092-0.378-1.887-0.973c-2.257-1.689-2.369-3.963-0.978-5.824
		c1.667-2.229,4.184-2.28,6.16-0.802c0.766,0.573,1.231,1.163,1.392,1.494l-1.178,0.948c-0.206-0.351-0.535-0.778-1.059-1.17
		c-1.173-0.877-2.612-0.851-3.699,0.603c-0.979,1.308-0.82,2.711,0.498,3.697c0.445,0.333,1.012,0.606,1.39,0.707L106.935,30.992z"
		/>
	<path fill="currentColor" d="M110.68,31.963l-1.889,1.068l-1.35-1.35l7.52-3.999l1.709,1.709l-3.974,7.545l-1.401-1.401l1.034-1.923
		L110.68,31.963z M113.116,32.449l0.863-1.581c0.238-0.444,0.563-0.974,0.82-1.401l-0.018-0.017
		c-0.428,0.256-0.948,0.606-1.376,0.846l-1.563,0.88L113.116,32.449z"/>
	<path fill="currentColor" d="M113.418,37.808l6.562-4.834l1.276,1.733l-1.4,3.134c-0.404,0.899-0.936,1.891-1.46,2.728l0.021,0.029
		c0.794-0.735,1.659-1.417,2.642-2.142l1.918-1.413l1.004,1.363l-6.561,4.833l-1.148-1.558l1.499-3.267
		c0.414-0.906,0.945-1.958,1.478-2.846l-0.031-0.022c-0.838,0.677-1.748,1.378-2.819,2.167l-1.976,1.456L113.418,37.808z"/>
	<path fill="currentColor" d="M126.897,43.616c0.293,0.397,0.773,1.254,1.163,2.087c0.478,1.019,0.671,1.689,0.604,2.375
		c-0.033,0.643-0.363,1.251-1.031,1.564c-0.657,0.308-1.45,0.211-2.146-0.478l-0.022,0.01c0.165,0.952-0.178,1.874-1.131,2.319
		c-0.669,0.313-1.338,0.252-1.926-0.034c-0.679-0.337-1.34-1.123-2.027-2.59c-0.385-0.822-0.616-1.461-0.736-1.859L126.897,43.616z
		 M121.569,48.126c0.055,0.175,0.147,0.372,0.28,0.657c0.354,0.756,0.951,1.291,1.729,0.927c0.745-0.349,0.728-1.155,0.338-1.988
		l-0.267-0.57L121.569,48.126z M124.844,46.593l0.257,0.548c0.41,0.876,0.992,1.179,1.54,0.922c0.559-0.262,0.654-0.827,0.301-1.583
		c-0.17-0.361-0.289-0.559-0.377-0.691L124.844,46.593z"/>
	<path fill="currentColor" d="M127.372,57.353l-0.908-2.857l-1.843,0.586l1.015,3.191l-1.44,0.458l-1.574-4.954l7.765-2.468l1.523,4.792
		l-1.44,0.458l-0.963-3.03l-1.613,0.513l0.908,2.857L127.372,57.353z"/>
	<path fill="currentColor" d="M133.094,61.742c0.188,0.66,0.352,1.529,0.461,2.454c0.182,1.537,0.023,2.566-0.473,3.417
		c-0.525,0.915-1.46,1.561-2.889,1.729c-1.55,0.183-2.685-0.255-3.437-0.958c-0.81-0.769-1.299-2.026-1.486-3.611
		c-0.112-0.949-0.131-1.628-0.125-2.092L133.094,61.742z M126.706,64.36c-0.018,0.16,0.013,0.413,0.04,0.641
		c0.184,1.659,1.224,2.631,3.157,2.403c1.683-0.187,2.455-1.277,2.269-2.85c-0.048-0.408-0.115-0.668-0.17-0.82L126.706,64.36z"/>
	<path fill="currentColor" d="M134.037,72.867l-8.146,0.134l-0.03-1.849l8.146-0.134L134.037,72.867z"/>
	<path fill="currentColor" d="M125.6,81.561c-0.134-0.585-0.287-1.683-0.176-2.753c0.154-1.479,0.639-2.51,1.438-3.181
		c0.774-0.673,1.875-0.971,3.064-0.835c2.692,0.292,4.027,2.412,3.751,5.07c-0.109,1.046-0.397,1.83-0.631,2.207l-1.427-0.538
		c0.238-0.425,0.452-0.961,0.545-1.852c0.159-1.527-0.587-2.771-2.343-2.954c-1.671-0.174-2.766,0.77-2.922,2.273
		c-0.044,0.421-0.031,0.762,0.026,0.914l1.695,0.176l0.13-1.25l1.431,0.149l-0.313,3.018L125.6,81.561z"/>
	<path fill="currentColor" d="M132.4,86.619l-7.96-1.738l0.395-1.807l7.96,1.738L132.4,86.619z"/>
	<path fill="currentColor" d="M129.852,90.13l0.674-2.083l1.473,0.477l-1.928,5.959l-1.473-0.477l0.685-2.117L123,89.857l0.57-1.76
		L129.852,90.13z"/>
	<path fill="currentColor" d="M123.349,94.765l-1.654-1.406l0.804-1.733l6.348,5.685l-1.017,2.194l-8.456-1.132l0.833-1.799l2.162,0.309
		L123.349,94.765z M123.731,97.22l1.782,0.266c0.5,0.071,1.109,0.194,1.6,0.288l0.01-0.022c-0.388-0.313-0.896-0.682-1.269-1.001
		l-1.365-1.166L123.731,97.22z"/>
	<path fill="currentColor" d="M125.59,103.769l-0.994,1.562l-5.574-3.549l-1.742,2.736l-1.307-0.832l2.737-4.297L125.59,103.769z"/>
	<path fill="currentColor" d="M118.516,113.471l-6.191-5.308l1.205-1.405l6.191,5.307L118.516,113.471z"/>
	<path fill="currentColor" d="M108.254,116.476c0.684,0.704,1.505,1.561,2.299,2.441l0.026-0.024c-0.508-0.943-1.034-2.033-1.44-2.953
		l-1.394-3.029l1.069-0.965l2.762,1.763c0.838,0.532,1.822,1.208,2.68,1.87l0.018-0.016c-0.701-0.851-1.518-1.81-2.152-2.605
		l-1.967-2.398l1.268-1.143l5.074,6.407l-1.824,1.645l-2.416-1.487c-0.821-0.531-1.69-1.116-2.466-1.705l-0.026,0.024
		c0.461,0.854,0.976,1.841,1.386,2.694l1.168,2.597l-1.789,1.612l-5.793-5.758l1.339-1.208L108.254,116.476z"/>
	<path fill="currentColor" d="M103.07,118.996l-0.632-2.077l1.612-1.024l2.269,8.216l-2.042,1.297l-6.504-5.524l1.674-1.063l1.652,1.429
		L103.07,118.996z M102.063,121.268l1.356,1.188c0.382,0.331,0.829,0.764,1.19,1.106l0.021-0.013
		c-0.158-0.473-0.387-1.059-0.527-1.528l-0.519-1.719L102.063,121.268z"/>
	<path fill="currentColor" d="M90.946,123.382c0.44-0.408,1.315-1.09,2.298-1.528c1.359-0.606,2.495-0.703,3.476-0.346
		c0.971,0.336,1.78,1.14,2.257,2.238c1.094,2.48-0.076,4.697-2.518,5.787c-0.962,0.429-1.785,0.57-2.229,0.557l-0.248-1.506
		c0.487-0.005,1.06-0.088,1.877-0.453c1.403-0.626,2.109-1.895,1.39-3.508c-0.686-1.535-2.051-2.013-3.432-1.396
		c-0.387,0.173-0.676,0.355-0.779,0.48l0.695,1.558l1.148-0.513l0.587,1.314l-2.772,1.237L90.946,123.382z"/>
	<path fill="currentColor" d="M89.987,131.803l-2.479-7.765l1.763-0.563l2.479,7.765L89.987,131.803z"/>
	<path fill="currentColor" d="M85.893,124.594l1.594,7.991l-2.11,0.421l-2.244-2.598c-0.642-0.747-1.315-1.648-1.851-2.479l-0.035,0.007
		c0.329,1.032,0.58,2.104,0.818,3.301l0.466,2.336l-1.659,0.331l-1.595-7.991l1.897-0.378l2.322,2.742
		c0.645,0.759,1.372,1.686,1.95,2.545l0.033-0.02c-0.259-1.046-0.507-2.167-0.767-3.472l-0.48-2.406L85.893,124.594z"/>
	<path fill="currentColor" d="M75.804,128.269l0.487-2.116l1.91-0.085l-2.13,8.256l-2.417,0.106l-2.886-8.033l1.981-0.088l0.722,2.063
		L75.804,128.269z M73.798,129.738l0.584,1.706c0.167,0.477,0.338,1.074,0.48,1.553l0.024-0.001c0.1-0.489,0.192-1.11,0.305-1.588
		l0.407-1.749L73.798,129.738z"/>
	<path fill="currentColor" d="M68.533,132.798l2.183,0.157l-0.111,1.543l-6.244-0.45l0.111-1.543l2.218,0.16l0.475-6.582l1.845,0.133
		L68.533,132.798z"/>
	<path fill="currentColor" d="M60.618,133.396l1.368-8.032l1.823,0.311l-1.368,8.032L60.618,133.396z"/>
	<path fill="currentColor" d="M51.957,127.032c0.749-2.566,2.759-3.668,5.047-3.001c2.322,0.678,3.169,2.827,2.519,5.057
		c-0.684,2.346-2.693,3.662-5.004,2.988C52.115,131.375,51.327,129.192,51.957,127.032z M57.643,128.577
		c0.447-1.532,0.043-2.822-1.142-3.168c-1.196-0.349-2.213,0.59-2.657,2.11c-0.41,1.405-0.089,2.81,1.131,3.165
		C56.171,131.033,57.2,130.098,57.643,128.577z"/>
	<path fill="currentColor" d="M51.969,122.549l-3.497,7.364l-1.944-0.924l-0.248-3.425c-0.069-0.983-0.07-2.108-0.004-3.095l-0.032-0.016
		c-0.353,1.024-0.792,2.034-1.316,3.138l-1.021,2.152l-1.53-0.727l3.497-7.363l1.748,0.83l0.225,3.588
		c0.063,0.994,0.093,2.173,0.043,3.207l0.038,0.005c0.418-0.993,0.89-2.042,1.46-3.243l1.053-2.218L51.969,122.549z"/>
	<path fill="currentColor" d="M37.226,113.967c0.372,0.065,1.092,0.375,1.888,0.967c2.262,1.682,2.379,3.956,0.993,5.819
		c-1.659,2.232-4.175,2.29-6.155,0.818c-0.767-0.57-1.233-1.159-1.395-1.489l1.174-0.951c0.207,0.351,0.538,0.777,1.062,1.167
		c1.174,0.873,2.613,0.843,3.696-0.612c0.975-1.311,0.812-2.713-0.509-3.694c-0.446-0.332-1.013-0.603-1.391-0.703L37.226,113.967z"
		/>
	<path fill="currentColor" d="M33.469,113.004l1.888-1.074l1.355,1.349l-7.516,4.023l-1.715-1.706l3.957-7.563l1.407,1.398l-1.03,1.928
		L33.469,113.004z M31.031,112.524l-0.86,1.584c-0.238,0.446-0.562,0.977-0.817,1.406l0.017,0.017
		c0.427-0.257,0.948-0.61,1.375-0.85l1.563-0.886L31.031,112.524z"/>
	<path fill="currentColor" d="M30.704,107.153l-6.551,4.854l-1.282-1.73l1.393-3.14c0.402-0.9,0.931-1.894,1.453-2.733l-0.021-0.029
		c-0.793,0.738-1.656,1.422-2.638,2.15l-1.915,1.418l-1.008-1.36l6.551-4.854l1.152,1.556l-1.49,3.272
		c-0.412,0.907-0.94,1.961-1.471,2.851l0.032,0.022c0.836-0.68,1.745-1.384,2.814-2.176l1.973-1.462L30.704,107.153z"/>
	<path fill="currentColor" d="M17.214,101.383c-0.294-0.396-0.777-1.251-1.169-2.083c-0.479-1.018-0.675-1.688-0.61-2.373
		c0.031-0.643,0.359-1.252,1.026-1.567c0.656-0.31,1.45-0.215,2.148,0.472l0.022-0.01c-0.167-0.951,0.173-1.874,1.125-2.322
		c0.667-0.314,1.337-0.256,1.925,0.028c0.679,0.335,1.343,1.119,2.034,2.584c0.387,0.821,0.621,1.459,0.742,1.857L17.214,101.383z
		 M19.258,98.401L19,97.853c-0.413-0.875-0.995-1.175-1.542-0.917c-0.558,0.263-0.652,0.829-0.296,1.584
		c0.17,0.361,0.29,0.559,0.379,0.69L19.258,98.401z M22.529,96.859c-0.056-0.175-0.148-0.372-0.282-0.656
		c-0.356-0.755-0.955-1.288-1.732-0.922c-0.744,0.351-0.725,1.157-0.333,1.989l0.268,0.569L22.529,96.859z"/>
	<path fill="currentColor" d="M16.698,87.644l0.916,2.857l1.843-0.591l-1.023-3.191l1.44-0.461l1.588,4.954L13.697,93.7l-1.536-4.792
		l1.44-0.461l0.971,3.03l1.613-0.517l-0.916-2.857L16.698,87.644z"/>
	<path fill="currentColor" d="M10.968,83.299c-0.189-0.66-0.355-1.529-0.467-2.454c-0.186-1.537-0.029-2.567,0.465-3.418
		c0.523-0.916,1.456-1.565,2.885-1.737c1.549-0.187,2.686,0.249,3.441,0.949c0.812,0.767,1.304,2.023,1.496,3.608
		c0.114,0.949,0.135,1.628,0.13,2.092L10.968,83.299z M17.351,80.664c0.017-0.16-0.014-0.413-0.041-0.641
		c-0.188-1.659-1.231-2.629-3.165-2.396c-1.683,0.191-2.453,1.283-2.263,2.856c0.049,0.409,0.117,0.668,0.172,0.82L17.351,80.664z"
		/>
	<path fill="currentColor" d="M9.996,72.137l8.145-0.134l0.03,1.849l-8.145,0.133L9.996,72.137z"/>
	<path fill="currentColor" d="M18.41,63.433c0.135,0.585,0.292,1.684,0.183,2.755c-0.15,1.481-0.632,2.515-1.43,3.188
		c-0.774,0.675-1.875,0.978-3.065,0.845c-2.696-0.286-4.038-2.404-3.768-5.065c0.106-1.047,0.393-1.833,0.625-2.211l1.43,0.534
		c-0.238,0.426-0.45,0.964-0.541,1.854c-0.155,1.529,0.595,2.773,2.352,2.951c1.674,0.169,2.767-0.778,2.919-2.283
		c0.043-0.421,0.029-0.763-0.029-0.915l-1.697-0.172l-0.127,1.252l-1.433-0.145L14.136,63L18.41,63.433z"/>
	<path fill="currentColor" d="M11.585,58.416l7.971,1.717l-0.39,1.81l-7.97-1.718L11.585,58.416z"/>
	<path fill="currentColor" d="M14.122,54.906l-0.666,2.085l-1.475-0.471l1.905-5.968l1.475,0.471l-0.677,2.12l6.29,2.008l-0.563,1.763
		L14.122,54.906z"/>
	<path fill="currentColor" d="M20.617,50.243l1.658,1.401l-0.798,1.735l-6.364-5.667l1.01-2.197l8.46,1.108l-0.828,1.802l-2.164-0.302
		L20.617,50.243z M20.228,47.789l-1.783-0.261c-0.5-0.07-1.11-0.191-1.6-0.283l-0.01,0.021c0.389,0.312,0.898,0.68,1.271,0.998
		l1.369,1.162L20.228,47.789z"/>
	<path fill="currentColor" d="M18.35,41.245l0.99-1.564l5.582,3.533l1.734-2.74l1.309,0.828l-2.724,4.304L18.35,41.245z"/>
	</g>
</g>
<g class="imagination_circle_green_arrow" transform="translate(0.000000,512.000000) scale(0.100000,-0.100000)">
	<path fill="currentColor" d="M889.471,4493.64c-1.185-0.539-3.124-2.693-4.094-4.525c-3.986-7.326-3.663-7.757,34.477-45.897
		l35.015-35.016l-250.71-0.539c-276.567-0.646-253.834,0-257.39-7.326c-2.155-4.633-1.185-9.158,3.017-12.605l3.232-2.694h250.925
		c138.014,0,250.925-0.323,250.925-0.754c0-0.431-15.945-16.808-35.554-36.416c-32.106-32.214-35.554-35.985-35.554-39.109
		c0-7.327,4.741-12.067,12.067-12.067c3.017,0,8.404,4.956,49.776,46.112c25.534,25.319,46.974,46.975,47.729,48.16
		c1.832,2.909,1.724,6.464-0.108,10.02c-1.939,3.555-89.639,91.04-92.979,92.764C897.336,4495.148,892.596,4495.148,889.471,4493.64
		z"/>
</g>
</svg>
