<svg width="466" height="230" viewBox="0 0 466 230" fill="none" xmlns="http://www.w3.org/2000/svg">
<path d="M0 206L319.384 206C336.802 206 350.923 191.879 350.923 174.461L350.923 171.511C350.923 162.945 357.867 156 366.434 156L463 156" stroke="#4FC6AA" stroke-width="4"/>
<path d="M0 159L142.152 159C162.141 159 178.345 142.796 178.345 122.808L178.345 66.511C178.345 57.9445 185.289 51 193.856 51L274.84 51C283.406 51 290.351 57.9445 290.351 66.511L290.351 95.2554C290.351 103.822 297.295 110.766 305.862 110.766L465 110.766" stroke="#FDE69E" stroke-width="4"/>
<path d="M0.246094 135.746L107.203 135.746C121.481 135.746 133.055 124.172 133.055 109.894L133.055 17.5107C133.055 8.94419 140 1.99969 148.566 1.99969L342.246 1.99968C350.813 1.99968 357.757 8.94419 357.757 17.5107L357.757 70.8182C357.757 79.3847 364.702 86.3292 373.268 86.3292L465.209 86.3292" stroke="#FEA1F5" stroke-width="4"/>
<path d="M0 228L361.748 228C370.314 228 377.259 221.055 377.259 212.489L377.259 191.511C377.259 182.945 384.203 176 392.77 176L466 176" stroke="#328BF3" stroke-width="4"/>
<path d="M0 184L207.21 184C218.256 184 227.21 175.046 227.21 164L227.21 149.511C227.21 140.945 234.155 134 242.721 134L462 134" stroke="#F0F3F8" stroke-width="4"/>
</svg>
