<svg viewBox="0 0 3392 3392" fill="none" xmlns="http://www.w3.org/2000/svg">
<path d="M3330 340.433C3330 231.548 3242.73 144.651 3135.05 144.651L930.504 144C822.838 144 735.488 231.648 735.488 339.749L735.587 2856.25L243 2855.95C243 2966.21 315.73 3060.38 415.914 3091.82C439.03 3099.08 463.61 3103 489.095 3103L2694.64 3102.95C2830.56 3102.95 2940.7 2992.33 2940.7 2855.87L2939.88 340.366L3329.92 340.416" fill="white"/>
<path d="M245.904 2860.01C247.625 2963.64 317.093 3057.08 416.023 3088.12C439.259 3095.41 463.486 3099.11 488.031 3099.11L2693.68 3099.06C2827.18 3099.06 2935.82 2990.02 2935.82 2855.99L2935 341.18C2935 340.146 2935.4 339.146 2936.15 338.395C2936.88 337.661 2937.88 337.244 2938.93 337.244L3325.01 337.311C3322.91 233.36 3238.05 149.439 3134.04 149.439L929.395 148.788C824.033 148.788 738.306 234.811 738.306 340.547L738.405 2856.35C738.405 2857.4 737.989 2858.4 737.252 2859.14C736.515 2859.87 735.512 2860.29 734.466 2860.29L245.904 2860.01ZM488.038 3106.98C462.694 3106.98 437.673 3103.16 413.675 3095.63C310.242 3063.19 238 2964.67 238 2856.07C238 2855.04 238.414 2854.04 239.153 2853.28C239.893 2852.55 240.893 2852.13 241.935 2852.13H241.937L730.609 2852.43L730.511 340.63C730.511 230.558 819.761 141 929.473 141L3134.12 141.65C3243.79 141.65 3333 231.225 3333 341.314C3333 342.364 3332.58 343.365 3331.85 344.099C3331.12 344.849 3330.11 345.25 3329.06 345.25L2942.95 345.2L2943.77 2856C2943.77 2994.38 2831.62 3106.95 2693.76 3106.95L488.11 3107" fill="black"/>
<path d="M488.92 3107C486.756 3107 485 3105.23 485 3103.06C485 3100.88 486.756 3099.13 488.92 3099.13C621.941 3099.13 730.158 2990.03 730.158 2855.94C730.158 2853.77 731.915 2852 734.08 2852C736.245 2852 738 2853.77 738 2855.94C738 2994.37 626.263 3107 488.918 3107" fill="black"/>
<path d="M2939.92 345C2937.74 345 2936 343.228 2936 341.039C2936 230.74 3024.86 141 3134.08 141C3136.26 141 3138 142.755 3138 144.945C3138 147.117 3136.26 148.889 3134.08 148.889C3029.18 148.889 2943.84 235.086 2943.84 341.039C2943.84 343.228 2942.08 345 2939.92 345" fill="black"/>
<path d="M862.066 3108H862.063L488.783 3107.64C467.518 3107.64 446.375 3104.96 425.944 3099.68C423.84 3099.13 422.58 3097 423.129 3094.92C423.676 3092.84 425.822 3091.58 427.935 3092.13C447.715 3097.25 468.19 3099.84 488.786 3099.84L862.066 3100.2C864.241 3100.2 866.002 3101.95 866 3104.1C865.998 3106.25 864.236 3108 862.061 3108" fill="black"/>
<path d="M951.935 3107C949.762 3107 948 3105.43 948 3103.51C948 3101.58 949.762 3100.01 951.935 3100.01L1653.06 3100C1655.23 3100 1657 3101.57 1657 3103.49C1657 3105.42 1655.23 3106.99 1653.06 3106.99L951.935 3107" fill="black"/>
<path d="M2355.89 3107C2353.75 3107 2352 3105.43 2352 3103.5C2352 3101.57 2353.75 3100 2355.89 3100H2489.11C2491.27 3100 2493 3101.57 2493 3103.5C2493 3105.43 2491.27 3107 2489.11 3107H2355.89Z" fill="black"/>
<path d="M2694.02 3107H2668.92C2666.74 3107 2665 3105.23 2665 3103.06C2665 3100.89 2666.74 3099.12 2668.92 3099.12H2694.02C2826.43 3099.12 2934.16 2990.04 2934.16 2855.94C2934.16 2853.77 2935.92 2852 2938.08 2852C2940.26 2852 2942 2853.77 2942 2855.94C2942 2994.37 2830.75 3107 2694.02 3107" fill="black"/>
<path d="M1086.62 781.879C1068.01 781.879 1052.87 796.97 1052.87 815.5C1052.87 834.046 1068.01 849.121 1086.62 849.121H2626.37C2644.99 849.121 2660.13 834.046 2660.13 815.5C2660.13 796.97 2644.99 781.879 2626.37 781.879H1086.62ZM2626.37 857H1086.62C1063.67 857 1045 838.387 1045 815.5C1045 792.613 1063.67 774 1086.62 774H2626.37C2649.32 774 2668 792.613 2668 815.5C2668 838.387 2649.32 857 2626.37 857Z" fill="black"/>
<path d="M1086.62 1452.88C1068.01 1452.88 1052.87 1467.97 1052.87 1486.5C1052.87 1505.05 1068.01 1520.14 1086.62 1520.14H2459.38C2477.99 1520.14 2493.13 1505.05 2493.13 1486.5C2493.13 1467.97 2477.99 1452.88 2459.38 1452.88H1086.62ZM2459.38 1528H1086.62C1063.67 1528 1045 1509.39 1045 1486.5C1045 1463.61 1063.67 1445 1086.62 1445H2459.38C2482.32 1445 2501 1463.61 2501 1486.5C2501 1509.39 2482.32 1528 2459.38 1528Z" fill="black"/>
<path d="M1372.65 2668.88C1354.02 2668.88 1338.86 2683.95 1338.86 2702.5C1338.86 2721.05 1354.02 2736.12 1372.65 2736.12H1647.34C1665.96 2736.12 1681.12 2721.05 1681.12 2702.5C1681.12 2683.95 1665.96 2668.88 1647.34 2668.88H1372.65ZM1647.34 2744H1372.65C1349.68 2744 1331 2725.39 1331 2702.5C1331 2679.61 1349.68 2661 1372.65 2661H1647.34C1670.32 2661 1689 2679.61 1689 2702.5C1689 2725.39 1670.32 2744 1647.34 2744Z" fill="black"/>
<path d="M1086.61 1789.88C1077.15 1789.88 1068.38 1793.68 1061.93 1800.58C1055.52 1807.42 1052.33 1816.37 1052.94 1825.74C1054.08 1843.34 1069.44 1857.12 1087.91 1857.12H1964.37C1982.98 1857.12 1998.12 1842.03 1998.12 1823.51C1998.12 1804.97 1982.98 1789.88 1964.37 1789.88H1086.61ZM1964.38 1865H1087.91C1065.32 1865 1046.51 1847.99 1045.09 1826.26C1044.34 1814.68 1048.28 1803.65 1056.19 1795.19C1064.04 1786.81 1075.13 1782 1086.62 1782H1964.38C1987.33 1782 2006 1800.63 2006 1823.51C2006 1846.39 1987.33 1865 1964.38 1865" fill="black"/>
<path d="M2250.59 1789.88C2232 1789.88 2216.87 1804.97 2216.87 1823.51C2216.87 1842.03 2232 1857.12 2250.59 1857.12H2626.4C2635.71 1857.12 2644.71 1853.22 2651.08 1846.42C2657.48 1839.58 2660.66 1830.64 2660.06 1821.26C2658.91 1803.66 2643.56 1789.88 2625.12 1789.88H2250.59ZM2626.4 1865H2250.59C2227.66 1865 2209 1846.39 2209 1823.51C2209 1800.63 2227.66 1782 2250.59 1782H2625.12C2647.7 1782 2666.49 1799.02 2667.91 1820.74C2668.66 1832.32 2664.73 1843.35 2656.81 1851.81C2648.98 1860.19 2637.88 1865 2626.4 1865Z" fill="black"/>
<path d="M1779.59 1618.88C1760.99 1618.88 1745.86 1633.95 1745.86 1652.49C1745.86 1671.03 1760.99 1686.12 1779.59 1686.12H2626.4C2635.72 1686.12 2644.72 1682.22 2651.08 1675.42C2657.48 1668.56 2660.66 1659.64 2660.06 1650.24C2658.91 1632.65 2643.57 1618.88 2625.12 1618.88H1779.59ZM2626.4 1694H1779.59C1756.66 1694 1738 1675.37 1738 1652.49C1738 1629.61 1756.66 1611 1779.59 1611H2625.12C2647.7 1611 2666.49 1628.01 2667.91 1649.74C2668.66 1661.32 2664.73 1672.35 2656.81 1680.8C2648.98 1689.19 2637.88 1694 2626.4 1694Z" fill="black"/>
<path d="M2065.58 1954.88C2046.97 1954.88 2031.86 1969.95 2031.86 1988.49C2031.86 2007.03 2046.97 2022.12 2065.58 2022.12H2682.42C2691.74 2022.12 2700.73 2018.22 2707.08 2011.42C2713.49 2004.56 2716.68 1995.64 2716.06 1986.24C2714.93 1968.65 2699.58 1954.88 2681.12 1954.88H2065.58ZM2682.42 2030H2065.58C2042.64 2030 2024 2011.37 2024 1988.49C2024 1965.61 2042.64 1947 2065.58 1947H2681.12C2703.71 1947 2722.51 1964.01 2723.91 1985.74C2724.67 1997.32 2720.72 2008.35 2712.83 2016.8C2704.98 2025.18 2693.9 2030 2682.42 2030Z" fill="black"/>
<path d="M1086.66 1618.88C1077.19 1618.88 1068.41 1622.67 1061.95 1629.56C1055.53 1636.42 1052.34 1645.35 1052.95 1654.74C1054.1 1672.34 1069.47 1686.12 1087.96 1686.12H1523.32C1541.97 1686.12 1557.13 1671.03 1557.13 1652.49C1557.13 1633.95 1541.97 1618.88 1523.32 1618.88H1086.66ZM1523.33 1694H1087.96C1065.34 1694 1046.51 1676.98 1045.09 1655.26C1044.34 1643.66 1048.28 1632.63 1056.2 1624.19C1064.06 1615.81 1075.16 1611 1086.67 1611H1523.33C1546.32 1611 1565 1629.61 1565 1652.49C1565 1675.37 1546.32 1694 1523.33 1694" fill="black"/>
<path d="M1086.64 1283.88C1077.17 1283.88 1068.4 1287.67 1061.94 1294.56C1055.53 1301.42 1052.33 1310.36 1052.94 1319.75C1054.09 1337.35 1069.46 1351.14 1087.93 1351.14H2040.35C2058.97 1351.14 2074.12 1336.05 2074.12 1317.5C2074.12 1298.95 2058.97 1283.88 2040.35 1283.88H1086.64ZM2040.35 1359H1087.94C1065.33 1359 1046.51 1341.99 1045.09 1320.27C1044.34 1308.67 1048.28 1297.63 1056.2 1289.19C1064.05 1280.81 1075.14 1276 1086.64 1276H2040.36C2063.31 1276 2082 1294.61 2082 1317.5C2082 1340.39 2063.31 1359 2040.36 1359" fill="black"/>
<path d="M2405.54 1283.88C2386.97 1283.88 2371.86 1298.95 2371.86 1317.5C2371.86 1336.05 2386.97 1351.14 2405.54 1351.14H2626.45C2635.76 1351.14 2644.74 1347.23 2651.1 1340.44C2657.49 1333.58 2660.67 1324.64 2660.07 1315.25C2658.92 1297.65 2643.59 1283.88 2625.17 1283.88H2405.54ZM2626.45 1359H2405.54C2382.64 1359 2364 1340.39 2364 1317.5C2364 1294.61 2382.64 1276 2405.54 1276H2625.17C2647.72 1276 2666.5 1293.01 2667.91 1314.75C2668.66 1326.33 2664.73 1337.37 2656.83 1345.81C2649 1354.19 2637.92 1359 2626.45 1359Z" fill="black"/>
<path d="M1086.65 947.863C1077.18 947.863 1068.4 951.669 1061.94 958.563C1055.53 965.407 1052.33 974.355 1052.95 983.754C1054.09 1001.35 1069.46 1015.14 1087.94 1015.14H1409.34C1427.96 1015.14 1443.11 1000.05 1443.11 981.5C1443.11 962.954 1427.96 947.863 1409.34 947.863H1086.65ZM1409.34 1023H1087.95C1065.33 1023 1046.51 1005.99 1045.09 984.271C1044.34 972.669 1048.28 961.635 1056.2 953.188C1064.05 944.791 1075.15 940 1086.65 940H1409.35C1432.33 940 1451 958.613 1451 981.5C1451 1004.39 1432.33 1023 1409.35 1023" fill="black"/>
<path d="M1670.64 947.863C1652.02 947.863 1636.87 962.954 1636.87 981.5C1636.87 1000.05 1652.02 1015.14 1670.64 1015.14H2626.35C2635.68 1015.14 2644.69 1011.23 2651.06 1004.44C2657.47 997.576 2660.65 988.645 2660.05 979.246C2658.9 961.651 2643.54 947.863 2625.07 947.863H1670.64ZM2626.35 1023H1670.64C1647.68 1023 1629 1004.39 1629 981.5C1629 958.613 1647.68 940 1670.64 940H2625.07C2647.67 940 2666.49 957.011 2667.91 978.746C2668.66 990.331 2664.72 1001.37 2656.8 1009.81C2648.94 1018.19 2637.85 1023 2626.35 1023" fill="black"/>
<path d="M1085.75 1114C1064.07 1114 1046.66 1132.16 1048.08 1154.01C1049.38 1173.94 1066.94 1189 1087.05 1189H1488.23C1509.1 1189 1526 1172.2 1526 1151.49C1526 1130.8 1509.1 1114 1488.23 1114H1085.74" fill="white"/>
<path d="M1793.66 1117.88C1775.02 1117.88 1759.87 1132.97 1759.87 1151.49C1759.87 1170.03 1775.02 1185.12 1793.66 1185.12H2626.35C2635.68 1185.12 2644.69 1181.22 2651.06 1174.42C2657.47 1167.58 2660.65 1158.64 2660.05 1149.26C2658.9 1131.66 2643.54 1117.88 2625.07 1117.88H1793.66ZM2626.35 1193H1793.66C1770.69 1193 1752 1174.39 1752 1151.49C1752 1128.61 1770.69 1110 1793.66 1110H2625.07C2647.67 1110 2666.49 1127.02 2667.91 1148.74C2668.66 1160.32 2664.72 1171.35 2656.8 1179.81C2648.96 1188.19 2637.85 1193 2626.35 1193Z" fill="black"/>
<path d="M1256.92 2588C1256.26 2588 1255.6 2587.83 1254.99 2587.49C1253.1 2586.42 1252.44 2584.03 1253.51 2582.16L1330.84 2446.64C1335.32 2438.79 1343.39 2433.94 1352.41 2433.69C1361.43 2433.41 1369.77 2437.81 1374.69 2445.38L1398.77 2482.48C1402.07 2487.57 1407.66 2490.61 1413.72 2490.61C1419.78 2490.61 1425.37 2487.57 1428.67 2482.48L1452.63 2445.58C1457.57 2437.97 1465.99 2433.59 1474.97 2433.87C1484.04 2434.16 1492.09 2439.05 1496.55 2446.95L1563.7 2566.16C1566.97 2571.95 1572.96 2575.38 1579.53 2575.24C1586.19 2575.12 1591.98 2571.52 1595.06 2565.61L1685.15 2391.86C1689.59 2383.3 1698.31 2378 1707.95 2378H1708.15C1717.85 2378.07 1726.59 2383.51 1730.91 2392.21L1754.58 2439.6C1755.56 2441.54 1754.76 2443.9 1752.82 2444.86C1750.88 2445.83 1748.52 2445.03 1747.56 2443.1L1723.89 2395.7C1720.83 2389.57 1714.92 2385.88 1708.08 2385.83C1701.39 2385.83 1695.27 2389.37 1692.12 2395.46L1602.03 2569.19C1597.61 2577.71 1589.25 2582.9 1579.66 2583.07C1570.13 2583.27 1561.56 2578.34 1556.85 2569.99L1489.71 2450.79C1486.62 2445.29 1481.01 2441.91 1474.73 2441.71C1468.51 2441.49 1462.65 2444.55 1459.22 2449.83L1435.26 2486.74C1430.51 2494.06 1422.46 2498.45 1413.72 2498.45C1404.98 2498.45 1396.94 2494.06 1392.18 2486.74L1368.1 2449.64C1364.69 2444.38 1359.03 2441.33 1352.64 2441.53C1346.38 2441.69 1340.77 2445.06 1337.66 2450.51L1260.34 2586.02C1259.62 2587.29 1258.29 2588 1256.92 2588" fill="black"/>
<path d="M580.84 1837.74C618.34 1812.94 680.917 1826.31 705.003 1888.61C724.679 1939.5 680.66 1978.78 669.511 2016.32C633.445 2137.72 750.129 2396.85 670.858 2529.16C607.614 2634.73 431.708 2712.57 280.006 2646.75C135.752 2584.15 37.6819 2433.5 96.2078 2310.18C148.813 2199.33 248.198 2251.76 308.558 2142.47C368.058 2034.75 313.437 1984.03 356.96 1930.1C416.475 1856.34 474.566 1908.03 580.855 1837.74" fill="black"/>
<path d="M1233.1 1732.02L1209.01 1808.6C1201.08 1832.34 1205.06 1858.41 1219.71 1878.75L1246.73 1917.2C1251.2 1923.59 1252.43 1931.29 1252.58 1939.06C1252.92 1956.44 1250.28 1982.97 1250.28 1982.97L1314.63 1984C1314.63 1984 1307.58 1950.33 1304.33 1938.77C1300.16 1923.97 1300.06 1907.8 1306.55 1893.85C1327.23 1849.51 1321.17 1804.98 1321.17 1804.98L1277.09 1816.65C1277.09 1816.65 1263.44 1793.63 1266.02 1753.42C1266.65 1743.59 1265.61 1736.08 1263.61 1730.37C1258.46 1715.68 1236.99 1716.93 1233.1 1732.02" fill="white"/>
<path d="M1233.55 1732.9H1233.59H1233.55ZM1254.74 1979.19L1308.96 1980.07C1306.92 1970.4 1302.29 1948.72 1299.86 1940.04C1295.15 1923.06 1296.01 1906.2 1302.29 1892.59C1318.26 1857.89 1317.59 1822.78 1316.76 1810.62L1277.86 1821.05C1276.16 1821.52 1274.36 1820.77 1273.46 1819.24C1272.89 1818.26 1259.46 1794.8 1262.04 1753.99C1262.58 1745.46 1261.85 1738.25 1259.88 1732.55C1257.82 1726.6 1252.64 1724.69 1248.5 1724.86C1244.37 1725.03 1238.97 1727.49 1237.34 1733.87C1237.33 1733.93 1237.31 1734 1237.29 1734.07L1213.58 1810.4C1206.17 1832.87 1209.91 1857.69 1223.57 1876.88L1250.18 1915.27C1255.71 1923.25 1256.52 1932.75 1256.64 1939.2C1256.89 1952.59 1255.46 1970.97 1254.74 1979.19V1979.19ZM1313.79 1988H1313.74L1250.39 1986.97C1249.3 1986.95 1248.26 1986.47 1247.53 1985.66C1246.81 1984.83 1246.45 1983.75 1246.56 1982.67C1246.58 1982.4 1249.13 1956.25 1248.81 1939.35C1248.64 1930.72 1247.03 1924.49 1243.74 1919.74L1217.16 1881.4C1202.09 1860.22 1197.95 1832.77 1206.12 1808.01L1229.78 1731.82C1232.02 1723.2 1239.23 1717.4 1248.18 1717.02C1256.99 1716.67 1264.43 1721.74 1267.28 1729.98C1269.6 1736.67 1270.46 1744.92 1269.86 1754.49C1267.91 1785.21 1275.71 1805.68 1278.91 1812.65L1319.22 1801.84C1320.3 1801.55 1321.46 1801.74 1322.4 1802.36C1323.33 1802.99 1323.97 1803.99 1324.11 1805.1C1324.36 1806.96 1329.99 1851.13 1309.39 1895.86C1303.9 1907.79 1303.2 1922.75 1307.42 1937.95C1310.62 1949.47 1317.34 1981.92 1317.62 1983.28C1317.87 1984.46 1317.57 1985.66 1316.81 1986.59C1316.06 1987.48 1314.97 1988 1313.79 1988" fill="black"/>
<path d="M1328.47 1953L1232.87 1961.29C1232.87 1961.29 1228.05 2095.03 1130.33 2195.68C1062.17 2265.87 959.993 2250.95 885.547 2233.41C769.414 2190.36 599.879 2199.47 510.364 2238.33C331.233 2316.09 226.715 2930.23 283.505 3062.39C335.365 3183.1 780.028 3207.44 903.804 3103.68C956.535 3059.48 939.906 2796.77 930.964 2691.79C928.247 2659.87 926.924 2627.88 926.957 2595.85L927.011 2543.65C973.871 2533.43 1262.01 2464.07 1325.99 2292.75C1394.28 2109.89 1328.48 1953 1328.48 1953" fill="white"/>
<path d="M705.841 2209.24C630.979 2209.24 558.759 2221.73 511.831 2242.12C435.337 2275.37 360.762 2420.9 312.351 2631.37C270.604 2812.83 259.786 2997.86 287.193 3061.73C302.195 3096.71 354.331 3126.41 434.003 3145.38C586.834 3181.76 816.171 3172.73 900.902 3101.6C953.312 3057.58 933.859 2777.47 926.65 2692.69C923.952 2660.94 922.6 2628.51 922.631 2596.34L922.686 2544.1C922.688 2542.24 923.975 2540.64 925.781 2540.26C980.894 2528.21 1259 2459.59 1321.64 2291.59C1383.73 2125.08 1333.26 1978.47 1325.23 1957.11L1235.99 1964.85C1234.35 1986.74 1221.43 2106.95 1132.63 2198.56C1064.48 2268.87 964.122 2256.25 884.293 2237.41C884.134 2237.38 883.979 2237.33 883.828 2237.28C831.186 2217.74 767.615 2209.24 705.843 2209.24H705.841ZM625.534 3174C557.98 3174 489.695 3166.72 432.174 3153.04C374.058 3139.21 300.472 3112.68 279.954 3064.84C251.513 2998.56 261.909 2815.5 304.675 2629.6C328.191 2527.38 395.148 2284.27 508.691 2234.89C595.313 2197.23 764.27 2184.6 886.322 2229.8C964.082 2248.14 1061.64 2260.47 1126.96 2193.07C1222.45 2094.57 1228.27 1962.4 1228.32 1961.08C1228.39 1959.09 1229.93 1957.48 1231.91 1957.31L1327.45 1949.02C1329.15 1948.87 1330.75 1949.83 1331.42 1951.42C1332.09 1953 1396.97 2111.99 1328.98 2294.35C1266.03 2463.2 992.926 2533.32 930.524 2547.27L930.476 2596.34C930.442 2628.3 931.785 2660.48 934.466 2692.02C943.812 2801.92 959.739 3062.45 905.932 3107.62C851.596 3153.24 739.607 3174 625.506 3174" fill="black"/>
<path d="M540.791 2052.22C544.692 2052.38 547.793 2049.07 547.371 2045.15C545.377 2026.51 539.445 1991.53 557.185 1975.82C579.923 1955.71 617.79 1925.11 632.464 1943.83C645.327 1960.23 658.326 1993.54 689.394 2005.92C692.371 2007.11 692.665 2011.44 691.337 2014.36L684.831 2030.96C683.341 2034.25 684.649 2041.87 686.042 2045.23C690.353 2055.58 700.317 2077.17 698.385 2081.7C694.62 2090.52 660.688 2106.3 660.688 2106.3L683.136 2211.79C683.988 2215.81 686.648 2222.44 690.56 2221.45L732 2224.55C732 2224.55 729.423 2281.72 641.3 2297.52C526.136 2318.14 511 2240.46 511 2240.46C511 2240.46 623.584 2238.65 574.554 2115.19C573.477 2112.47 571.028 2110.54 568.173 2110.09C557.222 2108.42 526.94 2102.44 521.19 2082.82C515.084 2062.01 527.437 2051.63 540.791 2052.22" fill="white"/>
<path d="M515.007 2243.47C520.145 2259.12 544.371 2309.74 639.619 2292.78C711.257 2280 724.283 2240.23 726.623 2227.64L689.817 2224.91C688.14 2225.14 686.472 2224.78 684.95 2223.83C680.525 2221.09 678.754 2214.2 678.318 2212.16L655.857 2107.19C655.473 2105.4 656.382 2103.58 658.05 2102.82C673.72 2095.57 691.845 2084.93 693.805 2080.35C694.314 2077.01 686.944 2059.93 683.8 2052.63C682.92 2050.59 682.114 2048.72 681.443 2047.11C679.977 2043.62 678.063 2034.66 680.28 2029.8L686.711 2013.47C687.42 2011.91 687.188 2010.41 686.919 2010.11C662.486 2000.43 648.976 1978.93 638.124 1961.65C634.702 1956.22 631.469 1951.08 628.371 1947.14C626.364 1944.59 623.755 1943.21 620.392 1942.91C602.215 1941.25 569.507 1970.05 558.756 1979.5C544.09 1992.4 547.437 2020.99 549.65 2039.91C549.866 2041.76 550.071 2043.5 550.245 2045.12C550.568 2048.13 549.577 2051.09 547.527 2053.26C545.482 2055.44 542.563 2056.61 539.575 2056.47C533.874 2056.26 528.808 2058.32 525.75 2062.21C522.111 2066.85 521.477 2073.65 523.91 2081.92C528.848 2098.65 556.205 2104.53 567.736 2106.28C571.977 2106.93 575.601 2109.79 577.186 2113.76C593.557 2154.77 594.058 2187.2 578.677 2210.18C560.927 2236.7 527.669 2242.29 515.007 2243.47V2243.47ZM604.06 2304C519.592 2304 506.212 2241.32 506.072 2240.61C505.85 2239.46 506.146 2238.28 506.878 2237.38C507.611 2236.49 508.708 2235.95 509.873 2235.94C510.299 2235.92 552.737 2234.84 572.149 2205.79C585.983 2185.08 585.215 2155.1 569.869 2116.67C569.31 2115.27 568.039 2114.26 566.55 2114.04C550.373 2111.58 522.343 2104.43 516.354 2084.13C512.333 2070.49 515.872 2062.06 519.547 2057.37C524.189 2051.47 531.617 2048.29 539.913 2048.64C540.876 2048.69 541.505 2048.19 541.784 2047.89C542.062 2047.59 542.52 2046.94 542.413 2045.95C542.241 2044.35 542.039 2042.64 541.827 2040.81C539.423 2020.27 535.79 1989.24 553.541 1973.63C573.292 1956.23 601.818 1933.33 621.105 1935.1C626.668 1935.59 631.195 1938.02 634.567 1942.3C637.923 1946.55 641.263 1951.87 644.8 1957.5C655.044 1973.81 667.796 1994.1 689.886 2002.86C691.897 2003.66 693.474 2005.25 694.327 2007.37C695.432 2010.11 695.29 2013.62 693.96 2016.53L687.529 2032.86C686.677 2034.74 687.387 2040.92 688.712 2044.1C689.373 2045.68 690.169 2047.53 691.036 2049.52C699.546 2069.28 703.012 2078.86 701.047 2083.43C697.365 2092.03 673.646 2104.07 664.211 2108.59L686.021 2210.53C686.714 2213.77 688.155 2216.41 688.969 2217.08C689.273 2217.03 689.588 2217.01 689.889 2217.05L731.354 2220.12C733.479 2220.27 735.093 2222.08 734.996 2224.21C734.884 2226.66 731.235 2284.43 641.006 2300.49C627.386 2302.92 615.113 2304 604.06 2304" fill="black"/>
<path d="M990.649 2913.82C990.649 2913.82 1058.18 2889.72 1105 2902.98C1105 2902.98 1112 2932.39 1132.22 2945.48C1152.45 2958.58 1201.92 2964.65 1211.37 2992.92C1220.81 3021.18 1121.83 3048.39 1086.49 3034.04C1051.15 3019.71 1019.26 2984 985.725 2985.69C952.194 2987.4 990.649 2913.82 990.649 2913.82Z" fill="white"/>
<path d="M988.908 2981.15C1009.92 2981.15 1029.48 2994.03 1050.14 3007.63C1062.57 3015.81 1075.41 3024.27 1088.45 3029.56C1114.04 3039.92 1181.13 3026.2 1202.4 3006.25C1207.23 3001.71 1209.02 2997.44 1207.72 2993.55C1201.96 2976.36 1178.45 2967.83 1157.7 2960.3C1147.23 2956.51 1137.34 2952.92 1130.42 2948.45C1112.34 2936.78 1104.37 2913.53 1102.22 2906.12C1061.1 2895.66 1003.98 2913.63 994.207 2916.89C984.462 2935.89 972.097 2968.16 978.54 2978.21C979.444 2979.62 981.261 2981.46 986.336 2981.22C987.195 2981.17 988.054 2981.15 988.908 2981.15V2981.15ZM1112.9 3041C1102.14 3041 1092.58 3039.7 1085.5 3036.83C1071.73 3031.26 1058.56 3022.58 1045.82 3014.18C1025.42 3000.75 1006.15 2988.05 986.735 2989.05C978.257 2989.46 974.007 2985.69 971.924 2982.45C960.717 2964.97 985.14 2917.26 987.962 2911.87C988.422 2910.99 989.194 2910.32 990.123 2909.99C992.922 2908.99 1059.16 2885.77 1106.49 2899.14C1107.86 2899.52 1108.91 2900.62 1109.25 2902C1109.31 2902.28 1116.12 2929.88 1134.69 2941.86C1140.86 2945.85 1150.35 2949.29 1160.39 2952.94C1182.8 2961.07 1208.21 2970.29 1215.17 2991.06C1216.79 2995.91 1216.83 3003.48 1207.77 3011.97C1189.83 3028.8 1145.81 3041 1112.9 3041" fill="black"/>
<path d="M529.331 2541L607.878 2723.02C624.121 2760.66 655.756 2789.42 694.671 2801.95L996 2898.96L988.941 3004C988.941 3004 593.088 2966.71 524.62 2916.06C460.541 2868.65 380 2649.86 380 2649.86L529.326 2541" fill="white"/>
<path d="M989.019 3008C988.895 3008 988.772 3007.98 988.649 3007.98C972.436 3006.45 590.816 2970.01 522.249 2919.29C457.95 2871.73 379.551 2660.27 376.244 2651.29C375.492 2649.26 376.537 2646.99 378.578 2646.24C380.616 2645.49 382.877 2646.54 383.629 2648.58C384.43 2650.76 464.513 2866.8 526.931 2912.97C590.089 2959.7 943.489 2995.64 985.36 2999.75L991.944 2901.83L693.461 2805.77C653.453 2792.89 620.935 2763.31 604.24 2724.64L585.265 2680.68C584.405 2678.7 585.325 2676.38 587.321 2675.52C589.309 2674.67 591.63 2675.58 592.494 2677.57L611.467 2721.52C627.261 2758.13 658.025 2786.09 695.874 2798.29L997.275 2895.28C998.992 2895.85 1000.11 2897.49 999.991 2899.29L992.931 3004.33C992.859 3005.38 992.364 3006.37 991.553 3007.07C990.84 3007.67 989.934 3008 989.006 3008" fill="black"/>
<path d="M1757.68 2511.25C1746.07 2462.44 1609.39 2446.33 1594.24 2469.28C1559.02 2522.53 1498.58 2656.06 1466.28 2729.54C1451.82 2762.41 1427.02 2789.56 1395.69 2806.87L1213.31 2907.61C1203.61 2905.11 1114.34 2882.23 1105.44 2884.1C1096.02 2886.08 1084.88 2903.76 1061.51 2917.02C1038.13 2930.29 1020.49 2938.23 1026.02 2948.51C1030.93 2957.66 1074.78 2954.1 1105.64 2940.45C1111.86 2937.71 1119.19 2939.37 1123.76 2944.41C1134.77 2956.57 1183.17 2978.2 1226.63 2978L1519 2929.79C1549.45 2924.77 1576.25 2906.79 1592.48 2880.43C1648.29 2789.66 1773.21 2576.61 1757.67 2511.25" fill="white"/>
<path d="M1112.01 2934.32C1117.48 2934.32 1122.86 2936.62 1126.74 2940.9C1136.84 2952.03 1183.27 2973.13 1226.08 2973.13H1226.37L1518.45 2925.06C1547.8 2920.24 1573.58 2902.93 1589.21 2877.59C1643.81 2788.98 1769.16 2575.96 1753.92 2512.03C1748.2 2488 1708.33 2472.74 1672.91 2466.46C1633.07 2459.42 1602.8 2463.52 1597.6 2471.38C1562.64 2524.14 1502.62 2656.44 1469.95 2730.61C1455.24 2764 1429.58 2792.07 1397.66 2809.68L1215.3 2910.25C1214.42 2910.73 1213.38 2910.86 1212.42 2910.61C1164.23 2898.22 1112.35 2886.17 1106.31 2887.17C1102.92 2887.89 1098.11 2892.32 1092.52 2897.45C1085.26 2904.12 1076.22 2912.43 1063.53 2919.61C1060.65 2921.24 1057.86 2922.79 1055.18 2924.27C1037.43 2934.14 1026.7 2940.45 1029.56 2945.76C1032.3 2950.86 1070.99 2950.61 1104.13 2935.99C1106.67 2934.87 1109.36 2934.32 1112.02 2934.32H1112.01ZM1226.7 2977.07H1226.74H1226.7ZM1226.08 2981C1180.42 2981 1132.1 2958.51 1120.91 2946.18C1117.42 2942.33 1111.95 2941.13 1107.3 2943.18C1076.88 2956.61 1029.45 2962.17 1022.62 2949.5C1015.94 2937.07 1030.79 2928.82 1051.34 2917.41C1054 2915.93 1056.77 2914.39 1059.63 2912.78C1071.55 2906.03 1080.22 2898.07 1087.18 2891.66C1094.15 2885.27 1099.17 2880.64 1104.69 2879.48C1113.59 2877.59 1182.1 2894.7 1212.85 2902.6L1393.86 2802.8C1424.28 2786.02 1448.74 2759.26 1462.75 2727.45C1495.52 2653.05 1555.76 2520.29 1591.03 2467.03C1600.42 2452.85 1640.77 2452.79 1674.28 2458.73C1692.66 2461.98 1753.28 2475.33 1761.58 2510.21C1776.92 2574.6 1664.37 2770.61 1595.91 2881.71C1579.1 2909 1551.34 2927.62 1519.72 2932.82L1227.34 2980.95C1226.93 2981.01 1226.5 2981 1226.08 2981" fill="black"/>
<path d="M2441 2631.07C2441 2631.07 2379.94 2326.31 2205.76 2253.87C2031.58 2181.41 1760 2221.59 1698.58 2265.29C1637.14 2309 1546 2513.91 1546 2513.91L1679.93 2692.12C1679.93 2692.12 1664.91 2946.18 1684.93 3110.51C1689.08 3144.57 1716.9 3169.88 1749.27 3168.98C1792.79 3167.76 1853.4 3165.42 1896.1 3161.24C1976.16 3153.38 2144.07 3157.27 2276.62 3159.22C2306.49 3159.67 2328.81 3134.22 2326.21 3102.66L2287.64 2635.03L2441 2631.07" fill="white"/>
<path d="M1685.02 3115C1683.07 3115 1681.37 3113.53 1681.12 3111.55C1662.06 2955.26 1674.84 2715.09 1676.03 2694.18L1542.78 2517.23C1541.93 2516.1 1541.76 2514.58 1542.34 2513.28C1546.08 2504.87 1634.74 2307.01 1696.42 2263.22C1755.87 2220.99 2027.6 2176.45 2208.03 2251.36C2299.34 2289.27 2359.19 2390.67 2393.32 2469.04C2430.13 2553.64 2445.77 2630.4 2445.92 2631.17C2446.15 2632.3 2445.87 2633.48 2445.14 2634.4C2444.42 2635.3 2443.33 2635.85 2442.16 2635.87L2292.76 2639.73L2331.05 3102.9C2331.23 3105.07 2329.61 3106.97 2327.44 3107.13C2325.32 3107.33 2323.37 3105.7 2323.19 3103.55L2284.57 2636.23C2284.48 2635.15 2284.85 2634.08 2285.57 2633.28C2286.29 2632.47 2287.32 2632 2288.41 2631.97L2437.21 2628.13C2428.63 2589.88 2363.88 2324.57 2205.01 2258.63C2101.97 2215.84 1976.28 2216.74 1910.54 2221.09C1818.85 2227.16 1732.67 2247.11 1700.98 2269.62C1644.35 2309.82 1560.35 2492.6 1550.49 2514.37L1683.19 2690.59C1683.74 2691.34 1684.02 2692.26 1683.97 2693.19C1683.82 2695.73 1669.17 2948.61 1688.94 3110.6C1689.21 3112.75 1687.68 3114.72 1685.51 3114.97C1685.36 3115 1685.19 3115 1685.02 3115" fill="black"/>
<path d="M1701.51 2886L2033 2869.24L1910.5 2503L1579 2519.78L1701.51 2886Z" fill="black"/>
<path d="M2414.88 2632.81L2243.43 2566C2243.43 2566 2281.37 2850.22 1935.53 2735.6C1935.53 2735.6 1946.19 2698.29 1942.27 2655.54C1938.35 2612.79 1914.93 2655.54 1913.11 2690.55C1911.27 2725.54 1830.92 2715.44 1782.37 2704.15C1733.82 2692.85 1671.44 2705.02 1785.21 2760.74C1898.98 2816.48 1921.85 2787.89 1921.85 2787.89C1921.85 2787.89 2073.18 2979.44 2246.94 2928.33C2460.66 2865.44 2414.88 2632.81 2414.88 2632.81Z" fill="white"/>
<path d="M1921.5 2783.5H1921.6C1922.77 2783.54 1923.89 2784.04 1924.6 2784.95C1926.1 2786.84 2076.11 2973.46 2245.07 2923.77C2332.03 2898.2 2386.25 2841.72 2406.2 2755.91C2419.55 2698.48 2412.23 2646.42 2410.42 2635.47L2247.24 2571.93C2249.19 2596.29 2251.25 2681.69 2191.44 2731.26C2138.25 2775.32 2051.62 2777.92 1933.95 2738.94C1931.93 2738.29 1930.82 2736.15 1931.4 2734.14C1931.5 2733.77 1941.8 2697.05 1938 2655.67C1936.85 2643.04 1934.17 2641.34 1934.15 2641.32C1930.17 2641.75 1918.07 2664.43 1916.71 2690.44C1916.32 2697.7 1913.09 2703.67 1907.08 2708.2C1880.06 2728.52 1804 2712.91 1781.33 2707.63C1752.66 2700.97 1727.54 2703.87 1725.07 2710.81C1724.27 2713.05 1723.5 2725.79 1786.79 2756.76C1894.6 2809.55 1918.31 2785.1 1918.52 2784.85C1919.27 2784.02 1920.37 2783.5 1921.5 2783.5V2783.5ZM2186.53 2940C2131.55 2940 2073.79 2919.71 2016.53 2879.84C1965.95 2844.6 1930.53 2804.28 1921 2792.93C1910.88 2799.57 1877.31 2809.85 1783.33 2763.83C1734.35 2739.85 1712.86 2721.64 1717.66 2708.16C1723.27 2692.42 1760.79 2694.79 1783.11 2699.98C1826.04 2709.96 1883.02 2716.46 1902.35 2701.92C1906.48 2698.82 1908.61 2694.92 1908.86 2690.02C1910.01 2667.96 1921.39 2633.74 1934.15 2633.49C1943.7 2633.34 1945.34 2649.58 1945.83 2654.95C1949.11 2690.62 1942.5 2722.13 1939.91 2732.62C2053.05 2769.49 2135.98 2766.99 2186.43 2725.21C2251.9 2670.94 2238.92 2567.5 2238.79 2566.45C2238.61 2565.08 2239.16 2563.7 2240.26 2562.85C2241.36 2561.98 2242.8 2561.76 2244.1 2562.26L2415.33 2628.94C2416.58 2629.42 2417.5 2630.52 2417.77 2631.84C2418.23 2634.26 2429.18 2691.47 2413.92 2757.43C2399.76 2818.56 2359.37 2898.36 2247.29 2931.32C2227.56 2937.12 2207.24 2940 2186.53 2940" fill="black"/>
<path d="M1940.11 2123.3C1955.25 2135.87 1984.37 2150.7 2005.96 2138.38C2022.04 2129.2 2030.16 2107.13 2028.36 2082.42C2036.01 2082.65 2046 2081.62 2052.84 2074.91C2063.34 2064.59 2060.37 2046.73 2059.36 2034.96C2054.64 1980.6 2085.72 1970.65 2076.16 1934.08C2068.64 1905.33 2045.05 1889.18 2040.63 1886.16C2018.35 1870.9 2004.08 1876.9 1967.53 1869.25C1906.03 1856.36 1902.78 1830.18 1862.78 1832.1C1860.46 1832.2 1806.06 1835.57 1789.49 1874.25C1776 1905.72 1795.43 1942.13 1814.55 1960.83C1839.33 1985.02 1855.55 1971.63 1880.22 1991.72C1923.49 2027.01 1895.11 2085.95 1940.11 2123.3" fill="black"/>
<path d="M1814.81 2031.18L1817.09 2028.97C1828.54 2017.95 1840.4 2005.21 1842.8 1989.4C1852.99 1922.21 1912.07 1895 1917.9 1955.92C1919.36 1971.29 1975.02 1967.66 1969.22 1984.16C1954.1 2027.22 1953.15 2015.89 1978.24 2030.19C1981 2030.16 1983.76 2030.63 1986.4 2031.71C1999.17 2036.95 2004.44 2053.83 1998.17 2069.41C1994.36 2078.88 1987.18 2085.62 1979.27 2088.35L1982.6 2154.96C1983.84 2179.93 1999.92 2201.66 2023.27 2209.96L2046 2218.02C2046 2218.02 1945.59 2291.78 1836.47 2221.96L1850.21 2214.87C1874.42 2202.4 1889.45 2177.04 1888.93 2149.59L1888.4 2136.57C1881.35 2137.55 1874.46 2137.42 1868.03 2135.88C1838.13 2128.72 1826.63 2094.9 1829.5 2052L1817.19 2046.1C1811.44 2043.34 1810.21 2035.61 1814.81 2031.18Z" fill="white"/>
<path d="M1843.71 2221.72C1932.31 2273.54 2014.71 2232.48 2038.11 2218.5L2022.8 2213.16C1997.62 2204.34 1980.48 2181.49 1979.12 2154.93L1975.77 2088.64C1975.69 2086.9 1976.78 2085.3 1978.45 2084.73C1985.65 2082.29 1991.88 2076.08 1995.14 2068.14C2000.62 2054.66 1996.28 2040.12 1985.43 2035.74C1983.37 2034.89 1981.14 2034.44 1978.72 2034.51C1977.95 2034.46 1977.35 2034.32 1976.74 2033.99C1972.37 2031.53 1968.78 2029.85 1965.91 2028.5C1951.56 2021.76 1952.87 2018.26 1960.18 1998.86C1961.75 1994.7 1963.65 1989.66 1965.86 1983.47C1966.23 1982.42 1966 1981.98 1965.86 1981.75C1963.93 1978.27 1952.31 1975.66 1943.83 1973.75C1928.92 1970.37 1914.86 1967.19 1913.87 1957.05C1912.04 1938.17 1904.56 1927.17 1893.36 1926.85C1875.1 1926.37 1851.89 1951.85 1845.94 1990.59C1843.31 2007.71 1830.56 2021.04 1818.83 2032.21L1816.53 2034.39C1815.26 2035.59 1814.7 2037.27 1814.97 2038.98C1815.26 2040.7 1816.31 2042.11 1817.89 2042.86L1830.31 2048.74C1831.79 2049.42 1832.68 2050.93 1832.58 2052.55C1829.54 2096.9 1842.6 2125.84 1868.41 2131.93C1874.18 2133.3 1880.6 2133.5 1887.49 2132.53C1888.6 2132.38 1889.72 2132.7 1890.58 2133.4C1891.43 2134.11 1891.95 2135.14 1892 2136.26L1892.54 2149.22C1893.09 2177.93 1876.91 2204.82 1851.32 2217.84L1843.71 2221.72ZM1935.53 2255C1904.43 2255 1869.36 2247.33 1833.52 2224.71C1832.33 2223.96 1831.62 2222.63 1831.69 2221.22C1831.76 2219.82 1832.58 2218.55 1833.83 2217.9L1847.7 2210.85C1870.62 2199.2 1885.11 2175.1 1884.62 2149.46L1884.27 2140.78C1877.98 2141.27 1872.06 2140.87 1866.58 2139.57C1837.19 2132.63 1821.93 2101.76 1824.51 2054.68L1814.48 2049.95C1810.59 2048.1 1807.86 2044.48 1807.17 2040.25C1806.47 2036.01 1807.93 2031.7 1811.05 2028.72L1813.36 2026.54C1824.16 2016.27 1835.86 2004.09 1838.13 1989.39C1844.92 1945.16 1872.15 1918.38 1893.58 1919.01C1900.99 1919.21 1918.54 1923.25 1921.75 1956.29C1922.18 1960.8 1936.27 1963.98 1945.59 1966.08C1958.23 1968.94 1969.15 1971.4 1972.79 1977.96C1974.14 1980.42 1974.33 1983.23 1973.31 1986.1C1971.09 1992.32 1969.16 1997.43 1967.59 2001.62C1964.49 2009.86 1962.44 2015.3 1962.74 2017.38C1962.89 2018.35 1965.21 2019.48 1969.3 2021.39C1972.08 2022.71 1975.52 2024.32 1979.75 2026.65C1982.8 2026.75 1985.7 2027.35 1988.41 2028.47C2003.29 2034.47 2009.59 2053.6 2002.47 2071.09C1998.73 2080.24 1992.04 2087.36 1983.82 2091.06L1987.04 2154.53C1988.21 2177.9 2003.29 2198 2025.44 2205.74L2048.36 2213.76C2049.75 2214.24 2050.74 2215.46 2050.96 2216.91C2051.17 2218.34 2050.55 2219.79 2049.38 2220.63C2048.68 2221.15 2000.84 2255 1935.53 2255" fill="black"/>
<path d="M1888.91 2140C1887.08 2140 1885.46 2138.75 1885.08 2136.93C1884.65 2134.88 1886.01 2132.85 1888.11 2132.43C1926.31 2124.71 1942.44 2094.4 1942.6 2094.09C1943.58 2092.21 1945.92 2091.46 1947.85 2092.42C1949.78 2093.37 1950.56 2095.68 1949.58 2097.56C1948.85 2098.94 1931.55 2131.47 1889.7 2139.92C1889.44 2139.97 1889.17 2140 1888.91 2140" fill="black"/>
<path d="M123.905 1701C121.797 1701 120.052 1699.33 119.97 1697.21C112.596 1508.18 147.284 1319.98 223.067 1137.82C297.394 959.161 407.477 795.101 550.249 650.176C551.777 648.625 554.274 648.608 555.824 650.126C557.374 651.661 557.394 654.147 555.869 655.699C269.391 946.482 113.391 1325.98 127.855 1696.9C127.941 1699.08 126.247 1700.9 124.072 1700.98C124.021 1700.98 123.965 1701 123.917 1701" fill="black"/>
<path d="M235.823 1946C234.064 1946 232.462 1944.83 232.003 1943.05C184.145 1757.26 182.703 1566.64 227.718 1376.43C271.201 1192.71 355.387 1019.47 477.937 861.527C479.267 859.808 481.747 859.492 483.47 860.826C485.192 862.161 485.508 864.63 484.174 866.348C235.41 1186.95 146.286 1578.68 239.639 1941.1C240.181 1943.2 238.91 1945.35 236.801 1945.88C236.471 1945.97 236.14 1946 235.816 1946" fill="black"/>
<path d="M531.463 790.881L542.162 829.079L568.008 799.449C560.38 797.438 546.353 793.906 531.463 790.881V790.881ZM540.32 841C540.033 841 539.746 840.967 539.459 840.902C538.028 840.591 536.891 839.528 536.502 838.155L522.14 786.874C521.779 785.582 522.126 784.209 523.057 783.228C523.986 782.263 525.365 781.821 526.71 782.067C551.438 786.76 575.889 793.562 576.134 793.628C577.427 793.988 578.442 794.969 578.83 796.211C579.22 797.47 578.929 798.844 578.059 799.842L543.332 839.643C542.571 840.509 541.465 841 540.32 841" fill="black"/>
<path d="M3134.49 2036C3132.56 2036 3131 2034.26 3131 2032.12V2001.88C3131 1999.74 3132.56 1998 3134.49 1998C3136.44 1998 3138 1999.74 3138 2001.88V2032.12C3138 2034.26 3136.44 2036 3134.49 2036Z" fill="black"/>
<path d="M3134.49 2108C3132.56 2108 3131 2106.26 3131 2104.12V2073.88C3131 2071.74 3132.56 2070 3134.49 2070C3136.44 2070 3138 2071.74 3138 2073.88V2104.12C3138 2106.26 3136.44 2108 3134.49 2108Z" fill="black"/>
<path d="M3113.21 2057H3083.79C3081.7 2057 3080 2055.43 3080 2053.5C3080 2051.56 3081.7 2050 3083.79 2050H3113.21C3115.3 2050 3117 2051.56 3117 2053.5C3117 2055.43 3115.3 2057 3113.21 2057Z" fill="black"/>
<path d="M3185 2057H3154C3151.79 2057 3150 2055.43 3150 2053.5C3150 2051.56 3151.79 2050 3154 2050H3185C3187.21 2050 3189 2051.56 3189 2053.5C3189 2055.43 3187.21 2057 3185 2057Z" fill="black"/>
<path d="M1554.52 887.834C1554.68 887.768 1554.83 887.701 1555 887.65C1558.81 886.446 1479.42 911.687 1479.42 911.687C1444.27 922.86 1369.03 971.502 1377.69 999.001C1386.33 1026.48 1475.71 1022.79 1510.86 1011.61C1510.86 1011.61 1583.84 989.316 1585.76 988.714C1603.05 983.21 1609.97 956.197 1601.2 928.364C1592.53 900.815 1571.71 882.833 1554.52 887.834" fill="white"/>
<path d="M2519 2606.42L2869.21 2668L3216.64 2606.77C3217.12 2606.68 3217.12 2605.98 3216.64 2605.88L2865.24 2544L2519 2606.42Z" fill="white"/>
<path d="M2541.41 2605.86L2869.21 2663.1L3196.49 2605.83L2865.24 2547.89L2541.41 2605.86ZM2869.21 2671C2868.99 2671 2868.76 2670.97 2868.53 2670.93L2518.25 2609.76C2516.37 2609.43 2515 2607.8 2515 2605.91C2514.98 2604.02 2516.35 2602.4 2518.23 2602.05L2864.54 2540.06C2864.99 2539.98 2865.47 2539.98 2865.92 2540.06L3217.38 2601.53C3219.48 2601.9 3221 2603.71 3221 2605.83C3221 2607.95 3219.47 2609.76 3217.38 2610.13L2869.89 2670.93C2869.68 2670.97 2869.44 2671 2869.21 2671" fill="black"/>
<path d="M2869 3189V2667.22L2518 2606V3126.36L2869 3189Z" fill="white"/>
<path d="M2658.92 2684.17L2728.08 2696.38V2646.52L2658.92 2634.59V2684.17ZM2732.04 2705C2731.81 2705 2731.57 2704.97 2731.34 2704.93L2654.25 2691.32C2652.38 2690.99 2651 2689.36 2651 2687.46V2629.92C2651 2628.77 2651.52 2627.66 2652.41 2626.92C2653.3 2626.18 2654.47 2625.86 2655.65 2626.06L2732.71 2639.35C2734.61 2639.68 2736 2641.31 2736 2643.23V2701.07C2736 2702.24 2735.48 2703.34 2734.57 2704.08C2733.85 2704.67 2732.96 2705 2732.04 2705" fill="black"/>
<path d="M2520.88 3124.11L2865.12 3185.36V2671.47L2520.88 2611.62V3124.11ZM2869.06 3194C2868.83 3194 2868.61 3193.98 2868.38 3193.93L2516.25 3131.28C2514.37 3130.95 2513 3129.31 2513 3127.41V2606.95C2513 2605.78 2513.52 2604.68 2514.4 2603.93C2515.29 2603.18 2516.46 2602.86 2517.62 2603.06L2869.75 2664.28C2871.63 2664.61 2873 2666.25 2873 2668.16V3190.06C2873 3191.23 2872.48 3192.33 2871.6 3193.08C2870.88 3193.68 2869.98 3194 2869.06 3194" fill="black"/>
<path d="M2582.86 2947.77L2802.14 2987.34V2745.32L2582.86 2706.65V2947.77ZM2806.07 2996C2805.84 2996 2805.6 2995.98 2805.37 2995.93L2578.25 2954.94C2576.37 2954.61 2575 2952.97 2575 2951.06V2701.95C2575 2700.78 2575.52 2699.68 2576.42 2698.93C2577.3 2698.18 2578.48 2697.86 2579.61 2698.06L2806.74 2738.11C2808.62 2738.45 2810 2740.09 2810 2742.01V2992.05C2810 2993.22 2809.48 2994.33 2808.58 2995.08C2807.87 2995.68 2806.97 2996 2806.07 2996" fill="black"/>
<path d="M2666.79 2941C2666.69 2941 2666.61 2941 2666.51 2940.98C2658.67 2940.8 2651.32 2937.49 2645.79 2931.64C2640.12 2925.66 2637 2917.71 2637 2909.27L2637.02 2904C2637.02 2899.75 2640.39 2896.29 2644.51 2896.29C2646.54 2896.29 2648.46 2897.11 2649.87 2898.6C2651.26 2900.06 2652.01 2901.99 2652.01 2904.02L2652 2909.54C2652 2913.84 2653.59 2917.88 2656.46 2920.91C2659.29 2923.9 2663.03 2925.54 2667.03 2925.54H2667.11C2671.03 2925.49 2674.72 2923.86 2677.51 2920.91C2680.39 2917.88 2681.97 2913.84 2681.97 2909.54L2682.02 2754.72C2682.02 2752.49 2682.94 2750.38 2684.57 2748.92C2686.13 2747.5 2688.19 2746.82 2690.26 2747.04C2694.05 2747.42 2697 2750.88 2697 2754.92V2909.3C2697 2917.73 2693.88 2925.68 2688.21 2931.66C2682.64 2937.53 2675.26 2940.83 2667.39 2940.98C2667.34 2941 2667.29 2941 2667.24 2941H2667.06H2666.79Z" fill="black"/>
<path d="M2619.7 2832.72C2615.05 2831.93 2612.07 2827.31 2613.27 2822.74C2623.84 2782.56 2659.43 2770.11 2697.38 2776.64C2733.91 2782.93 2761.53 2811.2 2770.73 2846.85C2772.2 2852.53 2767.42 2857.87 2761.63 2856.88L2619.7 2832.72Z" fill="black"/>
<path d="M2869 3189V2667.28L3218 2606V3126.67L2869 3189" fill="white"/>
<path d="M2872.88 2670.66V3185.35L3214.14 3124.3V2610.65L2872.88 2670.66ZM2868.94 3194C2868.02 3194 2867.14 3193.68 2866.42 3193.08C2865.52 3192.33 2865 3191.23 2865 3190.06V2667.35C2865 2665.43 2866.39 2663.79 2868.27 2663.47L3217.39 2602.06C3218.53 2601.86 3219.71 2602.18 3220.6 2602.93C3221.5 2603.68 3222 2604.78 3222 2605.95V3127.61C3222 3129.51 3220.63 3131.15 3218.76 3131.48L2869.64 3193.93C2869.41 3193.98 2869.17 3194 2868.94 3194" fill="black"/>
<path d="M3134 2888V2926.47L2962 2956V2918.36L3134 2888Z" fill="black"/>
<path d="M2970 2803.73L3005.6 2752L3041 2791.11L3022.82 2794.32V2886.08L2988.39 2892V2800.42L2970 2803.73Z" fill="black"/>
<path d="M3055 2789.36L3090.6 2738L3126 2776.81L3107.82 2780.02V2871.12L3073.39 2877V2786.07L3055 2789.36Z" fill="black"/>
<path d="M2937.9 2745.32V2987.34L3158.1 2947.77V2706.65L2937.9 2745.32ZM2933.95 2996C2933.03 2996 2932.12 2995.68 2931.42 2995.08C2930.52 2994.33 2930 2993.22 2930 2992.05V2742.01C2930 2740.09 2931.37 2738.45 2933.26 2738.11L3161.37 2698.06C3162.52 2697.86 3163.71 2698.18 3164.59 2698.93C3165.48 2699.68 3166 2700.78 3166 2701.95V2951.06C3166 2952.97 3164.63 2954.61 3162.75 2954.94L2934.65 2995.93C2934.42 2995.98 2934.18 2996 2933.95 2996" fill="black"/>
<path d="M2695 2282.75L2906.03 2320L3114.69 2283.09C3115.1 2283.02 3115.1 2282.38 3114.69 2282.32L2903.63 2245L2695 2282.75" fill="white"/>
<path d="M2716.45 2282.7L2905.53 2316.02L3094.18 2282.7L2903.12 2248.97L2716.45 2282.7ZM2905.53 2324C2905.29 2324 2905.08 2323.98 2904.84 2323.93L2693.25 2286.64C2691.39 2286.3 2690 2284.68 2690 2282.75C2690 2280.84 2691.37 2279.2 2693.24 2278.86L2902.42 2241.06C2902.87 2240.98 2903.34 2240.98 2903.81 2241.06L3115.43 2278.42C3117.5 2278.79 3119 2280.59 3119 2282.7C3119 2284.81 3117.5 2286.6 3115.43 2286.97L2906.19 2323.93C2905.98 2323.98 2905.74 2324 2905.53 2324" fill="black"/>
<path d="M2906 2635V2319.95L2693 2283V2597.18L2906 2635Z" fill="white"/>
<path d="M2772.93 2334.15L2819.07 2342.33V2309.62L2772.93 2301.64V2334.15ZM2823.03 2351C2822.81 2351 2822.58 2350.98 2822.34 2350.93L2768.26 2341.35C2766.38 2341.01 2765 2339.37 2765 2337.46V2296.94C2765 2295.79 2765.52 2294.68 2766.41 2293.93C2767.3 2293.18 2768.48 2292.86 2769.64 2293.06L2823.72 2302.43C2825.62 2302.75 2827 2304.39 2827 2306.31V2347.05C2827 2348.22 2826.48 2349.33 2825.59 2350.08C2824.86 2350.68 2823.96 2351 2823.03 2351Z" fill="black"/>
<path d="M2696.87 2593.05L2901.13 2629.38V2323.1L2696.87 2287.59V2593.05ZM2905.07 2638C2904.83 2638 2904.6 2637.98 2904.38 2637.93L2692.23 2600.21C2690.37 2599.87 2689 2598.24 2689 2596.34V2282.93C2689 2281.76 2689.52 2280.67 2690.4 2279.92C2691.28 2279.18 2692.45 2278.87 2693.6 2279.05L2905.75 2315.93C2907.63 2316.26 2909 2317.89 2909 2319.79V2634.07C2909 2635.24 2908.48 2636.34 2907.6 2637.08C2906.88 2637.68 2905.98 2638 2905.07 2638" fill="black"/>
<path d="M2906 2635V2320L3116 2283V2597.37L2906 2635" fill="white"/>
<path d="M2908.86 2323.14V2629.38L3111.14 2593.24V2287.6L2908.86 2323.14ZM2904.93 2638C2904.01 2638 2903.12 2637.68 2902.42 2637.08C2901.52 2636.34 2901 2635.24 2901 2634.07V2319.83C2901 2317.93 2902.38 2316.3 2904.25 2315.96L3114.4 2279.06C3115.54 2278.86 3116.72 2279.18 3117.6 2279.91C3118.48 2280.66 3119 2281.76 3119 2282.92V2596.53C3119 2598.43 3117.63 2600.06 3115.77 2600.39L2905.63 2637.93C2905.4 2637.98 2905.16 2638 2904.93 2638" fill="black"/>
<path d="M2738.79 1495.29C2756.67 1565.61 2715.96 1638.15 2647.87 1657.32C2579.77 1676.49 2510.09 1635.03 2492.21 1564.71C2474.33 1494.41 2515.04 1421.85 2583.13 1402.68C2651.21 1383.51 2720.91 1424.97 2738.79 1495.29Z" fill="white"/>
<path d="M2613.64 1667C2591.45 1667 2569.57 1661.14 2549.79 1649.68C2518.62 1631.58 2496.45 1601.85 2487.35 1565.95C2483.37 1550.26 2482.12 1534.14 2483.61 1518.08C2483.81 1515.91 2485.76 1514.3 2487.9 1514.5C2490.07 1514.7 2491.66 1516.65 2491.46 1518.82C2490.04 1533.99 2491.24 1549.18 2494.98 1564C2503.55 1597.81 2524.42 1625.81 2553.73 1642.81C2582.05 1659.25 2614.96 1663.37 2646.46 1654.49C2712.7 1635.78 2752.44 1564.67 2735.03 1495.99C2726.46 1462.18 2705.6 1434.18 2676.28 1417.18C2647.98 1400.76 2615.06 1396.6 2583.57 1405.5C2553.65 1413.96 2527.89 1433.53 2511.04 1460.62C2509.87 1462.48 2507.44 1463.04 2505.59 1461.88C2503.75 1460.72 2503.18 1458.29 2504.35 1456.42C2522.24 1427.65 2549.62 1406.86 2581.43 1397.87C2614.99 1388.41 2650.07 1392.82 2680.22 1410.31C2711.39 1428.41 2733.58 1458.14 2742.67 1494.04C2761.12 1566.86 2718.91 1642.24 2648.58 1662.12C2637.02 1665.37 2625.3 1667 2613.64 1667" fill="black"/>
<path d="M2627.56 1608L2623.05 1590.34C2610.78 1593.17 2598.16 1593.12 2590.26 1590.95L2590.12 1567.68C2598.82 1569.82 2610.48 1570.74 2622.25 1567.44C2632.56 1564.54 2638.58 1558.48 2636.67 1551.05C2634.87 1543.96 2627.95 1541.13 2613.36 1540.23C2592.3 1538.96 2576.7 1533.37 2572.09 1515.32C2567.91 1498.96 2575.85 1482.98 2594.22 1473.65L2589.71 1455.97L2607.44 1451L2611.62 1467.36C2623.89 1464.53 2632.7 1464.85 2639.43 1466.15L2639.55 1488.64C2634.32 1487.91 2624.91 1485.98 2611.87 1489.63C2600.12 1492.92 2597.65 1499.19 2598.98 1504.41C2600.54 1510.54 2607.87 1512.67 2624.77 1514.3C2648.31 1516.09 2659.61 1523.88 2663.88 1540.63C2668.11 1557.18 2660.32 1574.51 2640.45 1584.06L2645.3 1603.03L2627.56 1608" fill="black"/>
<path d="M3110.88 1247.09C3134.89 1334.22 3086.13 1425.64 3001.96 1451.27C2917.81 1476.91 2830.12 1427.04 2806.12 1339.91C2782.11 1252.77 2830.89 1161.36 2915.04 1135.73C2999.19 1110.09 3086.88 1159.96 3110.88 1247.09Z" fill="white"/>
<path d="M2956.52 1461C2930.23 1461 2904.23 1454.4 2880.49 1441.42C2841.56 1420.09 2813.42 1384.33 2801.29 1340.69C2795.97 1321.59 2794.01 1301.93 2795.47 1282.27C2795.62 1280.1 2797.47 1278.47 2799.68 1278.64C2801.86 1278.79 2803.5 1280.67 2803.33 1282.83C2801.96 1301.61 2803.83 1320.36 2808.9 1338.6C2820.46 1380.18 2847.25 1414.25 2884.3 1434.53C2920.09 1454.13 2961.34 1458.42 3000.49 1446.61C3082.79 1421.77 3130.62 1332.87 3107.13 1248.4C3095.57 1206.82 3068.8 1172.76 3031.73 1152.46C2995.94 1132.86 2954.68 1128.59 2915.54 1140.4C2878.36 1151.61 2846.68 1176.46 2826.32 1210.4C2825.19 1212.26 2822.77 1212.86 2820.9 1211.77C2819.02 1210.65 2818.42 1208.24 2819.52 1206.38C2840.9 1170.76 2874.2 1144.66 2913.24 1132.88C2954.43 1120.45 2997.86 1124.96 3035.54 1145.59C3074.47 1166.9 3102.61 1202.67 3114.74 1246.32C3139.37 1334.84 3089.14 1428.06 3002.78 1454.13C2987.54 1458.72 2971.98 1461 2956.52 1461" fill="black"/>
<path d="M2975.32 1389L2969.3 1367.11C2954.26 1370.96 2938.69 1371.23 2928.86 1368.74L2928.12 1339.74C2938.9 1342.2 2953.31 1343.04 2967.74 1338.62C2980.39 1334.77 2987.65 1327.06 2985.11 1317.84C2982.71 1309.09 2974.09 1305.72 2956.09 1304.97C2930.08 1303.93 2910.72 1297.36 2904.57 1275C2899 1254.72 2908.39 1234.63 2930.81 1222.53L2924.79 1200.64L2946.53 1194L2952.1 1214.28C2967.16 1210.43 2978.03 1210.6 2986.37 1212.05L2987.08 1240.06C2980.62 1239.29 2968.95 1237.1 2952.98 1241.99C2938.55 1246.39 2935.66 1254.27 2937.44 1260.71C2939.53 1268.33 2948.63 1270.79 2969.5 1272.41C2998.57 1274.01 3012.69 1283.43 3018.39 1304.17C3024.03 1324.68 3014.85 1346.45 2990.61 1358.86L2997.05 1382.36L2975.32 1389" fill="black"/>
<path d="M3000.7 1894.83C2958.83 1954.15 2877.34 1969.85 2818.69 1929.89C2760.03 1889.95 2746.42 1809.48 2788.28 1750.17C2830.16 1690.86 2911.65 1675.15 2970.32 1715.1C3028.97 1755.05 3042.58 1835.51 3000.7 1894.83Z" fill="white"/>
<path d="M2891.74 1957C2865.92 1957 2840.02 1949.65 2817.45 1934.26C2788.64 1914.62 2769.34 1884.86 2763.13 1850.44C2756.73 1814.97 2764.86 1778.89 2786.06 1748.87C2795.34 1735.72 2806.67 1724.39 2819.76 1715.2C2821.55 1713.94 2823.98 1714.38 2825.25 1716.17C2826.48 1717.94 2826.06 1720.41 2824.28 1721.65C2811.93 1730.33 2801.22 1741.01 2792.47 1753.43C2772.51 1781.7 2764.85 1815.67 2770.86 1849.04C2776.69 1881.36 2794.82 1909.31 2821.88 1927.74C2878.7 1966.46 2957.94 1951.17 2998.51 1893.64C3018.48 1865.36 3026.16 1831.41 3020.12 1798.03C3014.29 1765.71 2996.18 1737.75 2969.12 1719.32C2943.46 1701.84 2912.09 1694.69 2880.78 1699.2C2878.58 1699.52 2876.63 1698.02 2876.33 1695.86C2876.01 1693.71 2877.51 1691.72 2879.66 1691.4C2912.9 1686.61 2946.26 1694.21 2973.54 1712.81C3002.36 1732.44 3021.64 1762.2 3027.87 1796.62C3034.27 1832.1 3026.12 1868.17 3004.95 1898.2C2977.99 1936.38 2934.97 1957 2891.74 1957" fill="black"/>
<path d="M2844.05 1881.71L2854.52 1866.9C2844.5 1859.4 2836.45 1849.77 2833 1842.35L2850.54 1827.24C2854.49 1835.24 2861.29 1844.72 2871.33 1851.55C2880.14 1857.54 2888.58 1858.2 2893 1851.96C2897.19 1846.03 2894.89 1838.93 2886.21 1827.26C2873.65 1810.41 2867.89 1794.96 2878.59 1779.83C2888.3 1766.11 2905.49 1761.86 2924.34 1769.82L2934.81 1755L2949.94 1765.29L2940.23 1779.02C2950.26 1786.52 2955.66 1793.43 2959 1799.39L2942.06 1813.96C2939.26 1809.51 2934.69 1801.1 2923.56 1793.55C2913.52 1786.72 2907.2 1788.88 2904.1 1793.25C2900.46 1798.39 2903.55 1805.33 2913.16 1819.26C2926.91 1838.3 2928.25 1851.91 2918.33 1865.95C2908.53 1879.83 2890.41 1885.06 2870.43 1876.1L2859.18 1892L2844.05 1881.71" fill="black"/>
</svg>
