<svg viewBox="0 0 3334 3334" fill="none" xmlns="http://www.w3.org/2000/svg">
<path d="M2890.6 1071.38H2123.01C2096.35 1071.38 2074.54 1049.55 2074.54 1022.89C2074.54 996.234 2096.35 974.41 2123.01 974.41H2890.6C2917.26 974.41 2939.08 996.234 2939.08 1022.89C2939.08 1049.55 2917.26 1071.38 2890.6 1071.38Z" fill="white"/>
<path d="M2123.1 978.498C2098.59 978.498 2078.67 998.424 2078.67 1022.93C2078.67 1047.44 2098.59 1067.36 2123.1 1067.36H2890.69C2915.2 1067.36 2935.12 1047.44 2935.12 1022.93C2935.12 998.424 2915.2 978.498 2890.69 978.498H2123.1ZM2890.69 1075.45H2123.1C2094.14 1075.45 2070.58 1051.89 2070.58 1022.93C2070.58 993.972 2094.14 970.414 2123.1 970.414H2890.69C2919.65 970.414 2943.21 993.972 2943.21 1022.93C2943.21 1051.89 2919.65 1075.45 2890.69 1075.45Z" fill="black"/>
<path d="M2826 1233.05H2018.01C1991.35 1233.05 1969.53 1211.25 1969.53 1184.59C1969.53 1157.93 1991.35 1136.1 2018.01 1136.1H2826C2852.66 1136.1 2874.49 1157.93 2874.49 1184.59C2874.49 1211.25 2852.66 1233.05 2826 1233.05Z" fill="white"/>
<path d="M2017.99 1139.99C1993.49 1139.99 1973.56 1159.93 1973.56 1184.44C1973.56 1208.95 1993.49 1228.87 2017.99 1228.87H2825.98C2850.49 1228.87 2870.42 1208.95 2870.42 1184.44C2870.42 1159.93 2850.49 1139.99 2825.98 1139.99H2017.99ZM2825.98 1236.96H2017.99C1989.04 1236.96 1965.48 1213.4 1965.48 1184.44C1965.48 1155.48 1989.04 1131.92 2017.99 1131.92H2825.98C2854.94 1131.92 2878.5 1155.48 2878.5 1184.44C2878.5 1213.4 2854.94 1236.96 2825.98 1236.96Z" fill="black"/>
<path d="M493.635 2979.54H1886.25C1946.26 2979.54 1988.78 2931.04 1981.21 2871.22L1638.3 162.168C1630.72 102.352 1575.94 53.8682 1515.93 53.8682L193.205 38.4122C41.3747 38.4122 20.7767 102.352 28.3477 162.168L371.259 2871.22C378.83 2931.04 433.618 2979.54 493.63 2979.54" fill="black"/>
<path d="M577.428 2979.54H1970.06C2030.06 2979.54 2072.57 2930.89 2065 2870.88L1722.09 153.245C1714.52 93.2284 1659.74 44.58 1599.72 44.58H207.109C147.098 44.58 104.588 93.2284 112.159 153.245L455.07 2870.88C462.643 2930.89 517.43 2979.54 577.441 2979.54" fill="white"/>
<path d="M207.11 48.7771C179.422 48.7771 154.731 59.4701 137.586 78.9221C120.24 98.6114 112.632 124.87 116.169 152.88L459.08 2870.51C466.397 2928.48 519.492 2975.64 577.443 2975.64H1970.07C1997.75 2975.64 2022.44 2964.94 2039.6 2945.49C2056.93 2925.82 2064.54 2899.54 2061 2871.53L1718.11 153.902C1710.79 95.9291 1657.69 48.7771 1599.73 48.7771H207.11ZM1970.06 2983.74H577.429C515.553 2983.74 458.855 2933.41 451.049 2871.55L108.138 153.92C104.308 123.556 112.608 95.035 131.513 73.594C150.213 52.3901 177.057 40.7117 207.097 40.7117H1599.71C1661.59 40.7117 1718.28 91.0387 1726.09 152.898L2069 2870.53C2072.83 2900.89 2064.53 2929.42 2045.63 2950.86C2026.92 2972.06 2000.08 2983.74 1970.05 2983.74" fill="black"/>
<path d="M718.593 2983.57H577.423C515.547 2983.57 458.85 2933.25 451.043 2871.39L398.57 2455.54C398.291 2453.31 399.86 2451.31 402.074 2451.01C404.3 2450.72 406.311 2452.31 406.588 2454.52L459.059 2870.37C466.377 2928.34 519.472 2975.49 577.423 2975.49H718.593C720.826 2975.49 722.633 2977.32 722.633 2979.54C722.633 2981.77 720.826 2983.57 718.593 2983.57" fill="black"/>
<path d="M229.864 258.808C224.375 258.808 219.507 260.906 216.146 264.72C212.739 268.57 211.25 273.771 211.952 279.336L539.371 2874.16C540.869 2886.04 551.747 2895.69 563.613 2895.69H1963.72C1969.2 2895.69 1974.09 2893.61 1977.45 2889.8C1980.84 2885.93 1982.34 2880.73 1981.62 2875.16L1654.21 280.34C1652.71 268.443 1641.83 258.79 1629.97 258.79L229.864 258.808ZM1963.73 2903.81H563.615C547.818 2903.81 533.348 2890.99 531.355 2875.2L203.936 280.376C202.938 272.475 205.124 265.012 210.086 259.392C215.002 253.808 222.025 250.742 229.864 250.742H1629.97C1645.78 250.742 1660.23 263.57 1662.24 279.355L1989.66 2874.18V2874.2C1990.64 2882.1 1988.47 2889.54 1983.51 2895.18C1978.58 2900.75 1971.55 2903.81 1963.73 2903.81" fill="black"/>
<path d="M920.851 182.897C943.332 182.897 959.258 164.668 956.421 142.187C953.583 119.706 933.06 101.476 910.579 101.476C888.096 101.476 872.171 119.706 875.009 142.187C877.844 164.668 898.369 182.897 920.851 182.897Z" fill="black"/>
<path d="M1862.71 2016.61H1861.92C1781.14 2016.37 1698 1967.72 1614.83 1872.03C1556.55 1804.95 1519.43 1738.61 1517.9 1735.81C1505.53 1713.55 1513.54 1685.49 1535.8 1673.13C1558.04 1660.76 1586.11 1668.77 1598.48 1691.03C1634.63 1755.87 1752.44 1924.09 1862.2 1924.42H1862.69C1897.5 1924.42 1924.42 1913.67 1944.97 1891.58C1994.13 1838.68 1997.72 1732.97 1994.97 1696.69C1993.03 1671.31 2012.05 1649.17 2037.43 1647.24C2062.77 1645.31 2084.95 1664.3 2086.88 1689.7C2087.43 1696.65 2098.9 1861.38 2012.48 1954.35C1974.09 1995.66 1923.69 2016.61 1862.71 2016.61" fill="black"/>
<path d="M2186.42 1684.5H1913.42C1887.96 1684.5 1867.3 1663.86 1867.3 1638.41C1867.3 1612.95 1887.96 1592.31 1913.42 1592.31H2186.42C2211.88 1592.31 2232.51 1612.95 2232.51 1638.41C2232.51 1663.86 2211.88 1684.5 2186.42 1684.5Z" fill="black"/>
<path d="M1832.96 1050.21H1811.21V777.627H1832.96C1898.18 777.627 1951.06 830.509 1951.06 895.726V932.094C1951.06 997.329 1898.18 1050.21 1832.96 1050.21Z" fill="white"/>
<path d="M1815.26 1046.2H1832.98C1895.88 1046.2 1947.05 995.03 1947.05 932.13V895.762C1947.05 832.863 1895.88 781.696 1832.98 781.696H1815.26V1046.2ZM1832.98 1054.28H1811.23C1808.99 1054.28 1807.18 1052.47 1807.18 1050.25V777.663C1807.18 775.419 1808.99 773.612 1811.23 773.612H1832.98C1900.33 773.612 1955.13 828.41 1955.13 895.762V932.13C1955.13 999.483 1900.33 1054.28 1832.98 1054.28" fill="black"/>
<path d="M558.779 1050.21H580.529V777.627H558.779C493.549 777.627 440.671 830.509 440.671 895.726V932.094C440.671 997.329 493.549 1050.21 558.779 1050.21Z" fill="white"/>
<path d="M558.761 781.605C495.867 781.605 444.697 832.771 444.697 895.671V932.039C444.697 994.939 495.867 1046.11 558.761 1046.11H576.471V781.605H558.761ZM580.512 1054.19H558.761C491.413 1054.19 436.616 999.391 436.616 932.039V895.671C436.616 828.319 491.413 773.521 558.761 773.521H580.512C582.744 773.521 584.552 775.328 584.552 777.572V1050.16C584.552 1052.38 582.744 1054.19 580.512 1054.19" fill="black"/>
<path d="M536.462 902.587C536.462 609.675 831.692 306.69 1195.9 306.69C1560.1 306.69 1855.32 609.675 1855.32 902.587C1855.32 1195.48 1560.09 1367.39 1195.9 1367.39C831.71 1367.39 536.462 1195.48 536.462 902.587" fill="white"/>
<path d="M1195.9 310.814C820.798 310.814 540.513 623.27 540.513 902.661C540.513 1040.87 606.678 1158.06 731.859 1241.54C849.708 1320.13 1014.52 1363.42 1195.9 1363.42C1377.29 1363.42 1542.09 1320.13 1659.94 1241.54C1785.12 1158.06 1851.28 1040.87 1851.28 902.661C1851.28 623.27 1571 310.814 1195.9 310.814ZM1195.9 1371.5C1012.93 1371.5 846.528 1327.72 727.37 1248.25C599.84 1163.2 532.43 1043.7 532.43 902.661C532.43 757.974 603.289 608.27 726.841 491.941C856.423 369.918 1023 302.73 1195.9 302.73C1368.78 302.73 1535.36 369.918 1664.96 491.941C1788.49 608.27 1859.37 757.974 1859.37 902.661C1859.37 1043.7 1791.96 1163.2 1664.43 1248.25C1545.25 1327.72 1378.87 1371.5 1195.9 1371.5Z" fill="black"/>
<path d="M1361.08 1455.49H1030.74C885.948 1455.49 768.573 1572.86 768.573 1717.66C768.573 1813.31 777.903 1908.75 796.434 2002.6L843.929 2243.14C877.123 2411.25 1024.56 2532.42 1195.91 2532.42C1367.26 2532.42 1514.7 2411.25 1547.89 2243.14L1595.39 2002.6C1613.91 1908.75 1623.25 1813.31 1623.25 1717.66C1623.25 1572.86 1505.86 1455.49 1361.07 1455.49" fill="white"/>
<path d="M1030.72 1459.51C888.387 1459.51 772.587 1575.31 772.587 1717.64C772.587 1812.82 781.934 1908.42 800.373 2001.79L847.87 2242.33C880.592 2408.08 1026.95 2528.37 1195.89 2528.37C1364.82 2528.37 1511.17 2408.08 1543.91 2242.33L1591.41 2001.79C1609.84 1908.4 1619.18 1812.8 1619.18 1717.64C1619.18 1575.31 1503.38 1459.51 1361.05 1459.51H1030.72ZM1195.89 2536.43C1023.11 2536.43 873.421 2413.41 839.954 2243.9L792.457 2003.36C773.923 1909.48 764.522 1813.35 764.522 1717.64C764.522 1570.85 883.94 1451.44 1030.72 1451.44H1361.06C1507.86 1451.44 1627.27 1570.85 1627.27 1717.64C1627.27 1813.33 1617.88 1909.46 1599.34 2003.36L1551.84 2243.9C1518.37 2413.41 1368.67 2536.43 1195.9 2536.43" fill="black"/>
<path d="M1375.67 1459.51H1016.03C1013.8 1459.51 1011.99 1457.7 1011.99 1455.47C1011.99 1453.25 1013.8 1451.44 1016.03 1451.44H1375.67C1377.9 1451.44 1379.71 1453.25 1379.71 1455.47C1379.71 1457.7 1377.9 1459.51 1375.67 1459.51Z" fill="black"/>
<path d="M1639.17 814.816H1004.17C938.202 814.816 884.726 872.442 884.726 943.535V1027.51C884.726 1081.73 913.663 1139.17 963.568 1148.55C1139.54 1181.61 1503.81 1181.61 1679.77 1148.55C1729.68 1139.17 1758.62 1081.73 1758.62 1027.51V943.535C1758.62 872.442 1705.16 814.816 1639.17 814.816Z" fill="black"/>
<path d="M1172.52 983.79C1172.52 1007.62 1154.61 1026.93 1132.5 1026.93C1110.4 1026.93 1092.49 1007.62 1092.49 983.79C1092.49 959.976 1110.4 940.67 1132.5 940.67C1154.61 940.67 1172.52 959.976 1172.52 983.79Z" fill="white"/>
<path d="M1598.3 983.79C1598.3 1007.62 1580.38 1026.93 1558.28 1026.93C1536.18 1026.93 1518.26 1007.62 1518.26 983.79C1518.26 959.976 1536.18 940.67 1558.28 940.67C1580.38 940.67 1598.3 959.976 1598.3 983.79Z" fill="white"/>
<path d="M774.102 2226.08C683.787 2226.08 561.59 2213.21 483.27 2153.16C438.126 2118.54 411.754 2072.85 404.889 2017.34C374.067 1768.13 674.809 1625.49 687.619 1619.54C710.708 1608.81 738.118 1618.85 748.837 1641.93C759.548 1665.01 749.546 1692.38 726.496 1703.13C723.969 1704.32 473.802 1823.55 496.374 2006.03C500.144 2036.52 514.204 2060.71 539.351 2080C625.469 2146.02 813.249 2136.75 878.357 2127.61C903.561 2124.05 926.874 2141.63 930.416 2166.84C933.958 2192.04 916.393 2215.36 891.182 2218.9C886.559 2219.54 838.405 2226.08 774.101 2226.08" fill="black"/>
<path d="M1092.4 2275.11H1003.87C955.505 2275.11 915.404 2238.81 910.592 2190.68L907.51 2159.87C904.88 2133.58 913.544 2107.25 931.283 2087.65C949.021 2068.05 974.357 2056.81 1000.79 2056.81H1141.99C1167.45 2056.81 1188.09 2077.45 1188.09 2102.9C1188.09 2128.36 1167.45 2149 1141.99 2149H1000.79C1000.53 2149 1000.1 2149 999.637 2149.51C999.175 2150.02 999.219 2150.44 999.247 2150.69L1002.33 2181.51C1002.41 2182.3 1003.07 2182.9 1003.87 2182.9H1092.4C1117.85 2182.9 1138.49 2203.54 1138.49 2229.01C1138.49 2254.47 1117.85 2275.11 1092.4 2275.11" fill="black"/>
<path d="M3190.96 2188.5C3190.3 2188.5 3189.62 2188.34 3189 2187.99C3187.05 2186.92 3186.34 2184.47 3187.42 2182.52L3202.54 2155.06C3203.62 2153.1 3206.07 2152.39 3208.02 2153.47C3209.97 2154.54 3210.68 2157.01 3209.61 2158.96L3194.5 2186.4C3193.77 2187.76 3192.38 2188.5 3190.96 2188.5Z" fill="black"/>
<path d="M3155.74 2252.46C3155.06 2252.46 3154.41 2252.3 3153.79 2251.95C3151.83 2250.87 3151.12 2248.43 3152.2 2246.48L3167.31 2219.01C3168.38 2217.06 3170.83 2216.35 3172.8 2217.43C3174.75 2218.5 3175.46 2220.95 3174.39 2222.92L3159.28 2250.36C3158.53 2251.7 3157.16 2252.46 3155.74 2252.46" fill="black"/>
<path d="M3162.49 2196.7C3161.83 2196.7 3161.18 2196.55 3160.56 2196.2L3133.09 2181.09C3131.14 2180.02 3130.43 2177.55 3131.51 2175.6C3132.58 2173.65 3135.03 2172.94 3137 2174.01L3164.44 2189.12C3166.4 2190.2 3167.11 2192.66 3166.03 2194.62C3165.3 2195.95 3163.91 2196.7 3162.49 2196.7" fill="black"/>
<path d="M3226.54 2231.92C3225.88 2231.92 3225.23 2231.75 3224.61 2231.42L3197.14 2216.29C3195.19 2215.22 3194.48 2212.77 3195.55 2210.82C3196.63 2208.85 3199.08 2208.14 3201.05 2209.21L3228.49 2224.34C3230.44 2225.42 3231.16 2227.86 3230.08 2229.82C3229.35 2231.17 3227.96 2231.92 3226.54 2231.92Z" fill="black"/>
<path d="M1765.26 8.08422C1761.16 8.08422 1757.05 8.96026 1753.18 10.6938C1737.96 17.5367 1731.05 35.7296 1737.76 51.2949C1741.03 58.886 1747.02 64.6705 1754.59 67.6266C1762 70.5098 1770.08 70.3088 1777.36 67.0425C1792.56 60.1996 1799.5 41.9884 1792.78 26.4413C1789.51 18.8503 1783.53 13.0475 1775.96 10.1096C1772.49 8.75932 1768.88 8.08422 1765.26 8.08422V8.08422ZM1765.28 77.7356C1760.68 77.7356 1756.08 76.878 1751.67 75.1627C1742.05 71.422 1734.48 64.0866 1730.34 54.4883C1721.89 34.9085 1730.67 11.9528 1749.88 3.32164C1759.13 -0.838837 1769.42 -1.09423 1778.88 2.57356C1788.49 6.31434 1796.07 13.6497 1800.21 23.248C1808.66 42.8278 1799.9 65.7835 1780.66 74.4147C1775.74 76.6226 1770.52 77.7356 1765.28 77.7356" fill="black"/>
<path d="M1720.19 3188.11C1711.72 3188.11 1703.29 3188.02 1694.84 3187.86C1692.62 3187.82 1690.85 3185.98 1690.89 3183.73C1690.94 3181.51 1692.98 3179.72 1695.01 3179.77C1871.94 3183.37 2051.24 3149.1 2227.62 3077.93C2229.69 3077.11 2232.06 3078.1 2232.9 3080.18C2233.72 3082.24 2232.73 3084.59 2230.65 3085.43C2061.66 3153.61 1890.06 3188.11 1720.19 3188.11Z" fill="black"/>
<path d="M1632.05 3184.52H1632C1519.41 3182.93 1448.99 3165.74 1448.3 3165.56C1446.13 3165.03 1444.81 3162.84 1445.34 3160.67C1445.89 3158.5 1448.06 3157.18 1450.25 3157.71C1450.93 3157.89 1520.54 3174.87 1632.11 3176.43C1634.35 3176.47 1636.12 3178.3 1636.11 3180.54C1636.07 3182.75 1634.26 3184.52 1632.05 3184.52" fill="black"/>
<path d="M1731.14 3262.6C1686.71 3262.6 1660.39 3260.25 1659.46 3260.16C1657.26 3259.94 1655.63 3257.97 1655.83 3255.76C1656.05 3253.53 1657.97 3251.91 1660.25 3252.11C1663.55 3252.42 1994.36 3281.91 2313.97 3126.07C2316 3125.09 2318.41 3125.93 2319.37 3127.93C2320.36 3129.94 2319.52 3132.35 2317.53 3133.33C2085.11 3246.65 1846.79 3262.6 1731.14 3262.6" fill="black"/>
<path d="M3214.86 1960.59C3214.53 1960.59 3214.22 1960.55 3213.89 1960.48C3211.72 1959.95 3210.41 1957.76 3210.94 1955.59C3257.16 1766.87 3260.12 1584.12 3219.73 1412.43C3219.22 1410.26 3220.57 1408.09 3222.74 1407.57C3224.9 1407.06 3227.09 1408.41 3227.6 1410.59C3268.27 1583.52 3265.32 1767.53 3218.78 1957.52C3218.33 1959.37 3216.69 1960.59 3214.86 1960.59Z" fill="black"/>
<path d="M3266.87 2025.19C3266.45 2025.19 3266.03 2025.11 3265.61 2024.97C3263.49 2024.27 3262.34 2021.99 3263.03 2019.88C3377.89 1671.56 3276.1 1356.12 3275.06 1352.98C3274.35 1350.84 3275.5 1348.56 3277.61 1347.87C3279.75 1347.16 3282.03 1348.31 3282.72 1350.42C3283.76 1353.6 3386.41 1671.45 3270.72 2022.41C3270.15 2024.11 3268.56 2025.19 3266.87 2025.19" fill="black"/>
<path d="M74.4668 1927.38C66.374 1927.38 58.4965 1931.58 54.1644 1939.06C47.7102 1950.24 51.5532 1964.59 62.7299 1971.05C73.8993 1977.49 88.2476 1973.65 94.7054 1962.49C101.16 1951.3 97.3185 1936.96 86.1417 1930.52C82.463 1928.38 78.4394 1927.38 74.4668 1927.38V1927.38ZM74.3884 1982.25C69.0455 1982.25 63.6368 1980.9 58.6899 1978.03C43.6538 1969.35 38.486 1950.06 47.1665 1935.02C55.8524 1919.99 75.1493 1914.82 90.18 1923.51C105.216 1932.2 110.384 1951.48 101.705 1966.52C95.8769 1976.61 85.2732 1982.25 74.3884 1982.25" fill="black"/>
<path d="M232.346 2509.63C231.127 2509.63 229.923 2509.08 229.131 2508.04C153.573 2408.95 97.8259 2263.03 58.7009 2061.96C58.2739 2059.77 59.7027 2057.65 61.8925 2057.23C64.0621 2056.81 66.2044 2058.23 66.6314 2060.42C105.515 2260.25 160.768 2405.05 235.554 2503.13C236.906 2504.9 236.567 2507.44 234.791 2508.81C234.058 2509.35 233.198 2509.63 232.346 2509.63" fill="black"/>
<path d="M2018.72 257.713C2018.38 257.713 2018.01 257.658 2017.67 257.567C2015.51 256.983 2014.24 254.757 2014.82 252.604C2018.67 238.535 2027.01 219.831 2039.65 197.057C2040.73 195.105 2043.19 194.393 2045.15 195.488C2047.1 196.565 2047.79 199.028 2046.72 200.963C2034.4 223.188 2026.28 241.272 2022.63 254.72C2022.14 256.527 2020.51 257.713 2018.72 257.713" fill="white"/>
<path d="M2087.15 343.477C2051.7 343.477 2020.82 318.313 2013.72 283.625C2013.27 281.453 2014.69 279.318 2016.88 278.862C2019.05 278.424 2021.19 279.829 2021.64 282.019C2027.98 312.948 2055.53 335.412 2087.15 335.412C2097.85 335.412 2108.05 332.966 2117.5 328.149C2119.49 327.127 2121.91 327.93 2122.94 329.919C2123.94 331.89 2123.16 334.335 2121.17 335.339C2110.56 340.74 2099.12 343.477 2087.15 343.477" fill="white"/>
<path d="M2527.47 1616.26C2526.61 1616.26 2525.75 1615.98 2525.01 1615.42L2516.32 1608.77C2507.29 1601.88 2497.27 1588.88 2496.83 1588.32C2495.48 1586.57 2495.81 1584.03 2497.58 1582.66C2499.35 1581.31 2501.89 1581.64 2503.26 1583.41C2503.35 1583.54 2513.05 1596.11 2521.23 1602.35L2529.92 1608.99C2531.69 1610.36 2532.03 1612.9 2530.68 1614.67C2529.88 1615.71 2528.67 1616.26 2527.47 1616.26Z" fill="black"/>
<path d="M2542.43 1599.65C2541.79 1599.65 2541.16 1599.5 2540.57 1599.19L2530.85 1594.14C2520.77 1588.9 2508.66 1577.84 2508.15 1577.37C2506.5 1575.85 2506.39 1573.32 2507.89 1571.66C2509.4 1570.02 2511.96 1569.91 2513.6 1571.42C2513.73 1571.53 2525.46 1582.24 2534.59 1586.99L2544.29 1592.02C2546.27 1593.06 2547.05 1595.51 2546.01 1597.48C2545.3 1598.86 2543.89 1599.65 2542.43 1599.65Z" fill="black"/>
<path d="M2876.18 1420.82C2902.83 1424.25 3047.71 1453.58 3060.03 1616.8C3060.3 1620.56 3058.35 1624.14 3055.08 1626.02L2971.31 1674.25C2968.17 1676.07 2966.27 1679.43 2966.38 1683.06C2967.31 1712.91 2972.11 1848.57 2984.78 1905.55C2994.65 1949.99 3001.51 1986.21 3004.79 2004.33C3005.96 2010.72 3000.72 2016.43 2994.26 2015.84C2973.75 2013.96 2933.08 2009.44 2906.27 2001.19C2872.59 1990.83 2857.72 1971.06 2776.31 2004.84C2759.22 2011.94 2739.84 2010.97 2723.47 2002.3C2678.91 1978.71 2586.08 1936.87 2522.09 1958C2514.84 1960.39 2507.76 1954.02 2509.42 1946.56C2518.77 1904.66 2538.31 1823.88 2540.39 1781.18C2543 1727.84 2512.32 1550.16 2526.59 1531.6C2540.19 1513.94 2600.04 1473.32 2640.48 1462.19C2655.28 1458.12 2670.86 1457.74 2683.34 1454.65C2714.67 1446.93 2801.53 1411.15 2876.18 1420.82" fill="black"/>
<path d="M3019.43 1818.44C2994.52 1855.65 2965.67 1867.51 2902.84 1851.3C2840.02 1835.1 2706.79 1739.72 2640.93 1648.88C2640.93 1648.88 2636.39 1640.54 2623.53 1642.06C2610.66 1643.57 2557.67 1664.01 2518.31 1629.19C2478.93 1594.38 2488.35 1569.41 2490.3 1564.67C2493.64 1556.68 2552.36 1566.89 2568.27 1559.81C2584.17 1552.73 2583.96 1541.75 2572.05 1525.49C2557.82 1506.09 2589.55 1501.66 2613.69 1536.09C2628.34 1557.02 2653.03 1584.54 2675.37 1595.84C2698.45 1607.51 2933.13 1691.98 2945.23 1688.22C2957.35 1684.45 3033.55 1638.41 3033.55 1638.41C3033.55 1638.41 3046.56 1777.91 3019.43 1818.44Z" fill="white"/>
<path d="M2644.26 1646.73C2708.6 1735.41 2840.71 1831.21 2903.81 1847.49C2968.92 1864.28 2994.27 1848.77 3016.02 1816.29L3019.37 1818.53L3016.02 1816.29C3038.79 1782.27 3032.13 1673.06 3030.01 1645.32C3011.36 1656.53 2957.08 1688.84 2946.38 1692.17C2945.98 1692.29 2945.42 1692.35 2944.7 1692.35C2918.23 1692.37 2687.01 1606.38 2673.49 1599.54C2650.17 1587.73 2624.89 1559.29 2610.31 1538.5C2597.27 1519.89 2582.43 1514.07 2575.81 1514.72C2574.17 1514.87 2572.98 1515.4 2572.65 1516.15C2572.2 1517.15 2572.62 1519.6 2575.24 1523.19C2583.16 1533.98 2585.95 1542.33 2584.06 1549.51C2582.47 1555.44 2577.83 1560.05 2569.86 1563.61C2561.16 1567.48 2542.78 1566.75 2525.06 1566.06C2513.27 1565.6 2497.25 1564.96 2493.79 1566.8C2490.54 1575.12 2487.4 1596.6 2520.92 1626.25C2552.62 1654.3 2593.98 1644.65 2613.86 1640.01C2617.72 1639.12 2620.77 1638.41 2623 1638.13C2637.1 1636.49 2643.16 1644.98 2644.26 1646.73V1646.73ZM2949.76 1862.49C2935.91 1862.49 2920.12 1860.03 2901.79 1855.3C2837.39 1838.69 2702.83 1741.31 2637.61 1651.35C2637.5 1651.2 2637.41 1651.05 2637.34 1650.91C2637.21 1650.73 2633.71 1645.01 2623.95 1646.16C2622.18 1646.38 2619.17 1647.08 2615.7 1647.88C2594.49 1652.82 2550.37 1663.12 2515.57 1632.31C2477.45 1598.59 2482.56 1572.75 2486.52 1563.23C2489.17 1556.84 2500.99 1557.02 2525.37 1557.99C2541.41 1558.61 2559.59 1559.32 2566.56 1556.22C2572.18 1553.72 2575.33 1550.86 2576.25 1547.42C2577.43 1542.94 2574.91 1536.39 2568.73 1527.97C2563.49 1520.8 2563.95 1515.78 2565.28 1512.83C2566.87 1509.31 2570.32 1507.12 2575.04 1506.68C2585.72 1505.64 2602.8 1513.67 2616.94 1533.87C2630.97 1553.88 2655.15 1581.2 2677.14 1592.33C2704.47 1606.16 2930.4 1685.82 2944.27 1684.39C2953.54 1681.49 3010.34 1647.77 3031.42 1635.03C3032.6 1634.32 3034.1 1634.27 3035.32 1634.89C3036.56 1635.52 3037.4 1636.73 3037.53 1638.12C3038.06 1643.88 3050.36 1779.54 3022.73 1820.78C3003.63 1849.31 2981.86 1862.49 2949.76 1862.49" fill="black"/>
<path d="M2530.94 1638.15L2531.83 1646.51L2537.05 1694.74C2542.43 1737.18 2538.24 1771.76 2538.24 1771.76C2538.33 1785.08 2530.21 1800.78 2520.21 1809.61C2508.69 1819.75 2502.67 1821.85 2493.27 1825.26C2457.96 1838.11 2442.55 1834.15 2429.74 1797.66C2416.91 1761.16 2421.43 1738.53 2451.6 1625.38C2451.6 1625.38 2459.9 1602.53 2436.52 1587.17C2415.74 1573.52 2422.6 1540.76 2441.76 1515.97C2472.33 1476.39 2536.41 1632.9 2530.94 1638.15" fill="white"/>
<path d="M2453.06 1513.58C2449.99 1513.58 2447.36 1515.16 2444.84 1518.41C2432.27 1534.69 2425.9 1553.41 2428.22 1567.26C2429.43 1574.49 2432.93 1580.03 2438.62 1583.77C2464.39 1600.69 2455.39 1626.47 2455.3 1626.73C2425.03 1740.27 2421.07 1761.11 2433.42 1796.31C2439.26 1812.87 2445.37 1821.94 2453.28 1825.68C2461.58 1829.61 2472.73 1828.38 2491.8 1821.45L2492.23 1821.29C2501.25 1818.02 2506.69 1816.05 2517.43 1806.56C2527.16 1797.97 2534.17 1783.33 2534.09 1771.76C2534.09 1771.6 2534.09 1771.42 2534.13 1771.25C2534.17 1770.9 2538.18 1736.64 2532.93 1695.21L2526.81 1638.57C2526.72 1637.86 2526.85 1637.15 2527.12 1636.51C2527.23 1623.57 2485.92 1525.58 2457.34 1514.47C2455.81 1513.89 2454.39 1513.58 2453.06 1513.58ZM2463.93 1835.98C2458.59 1835.98 2454.01 1834.97 2449.83 1832.98C2439.81 1828.26 2432.4 1817.76 2425.81 1798.97C2412.67 1761.6 2416.67 1740.25 2447.6 1624.32C2447.98 1623.17 2454.5 1603.86 2434.19 1590.53C2426.65 1585.58 2421.83 1577.99 2420.25 1568.59C2417.56 1552.59 2424.54 1531.48 2438.46 1513.47C2444.59 1505.53 2451.56 1504.93 2456.34 1505.8C2488.16 1511.71 2526.18 1603.37 2533.02 1626.25C2535.1 1633.21 2535.54 1636.71 2534.95 1638.83L2540.96 1694.28C2546.16 1735.25 2542.58 1768.5 2542.18 1771.96C2542.16 1785.85 2534.2 1802.53 2522.78 1812.62C2510.88 1823.11 2504.22 1825.54 2495.01 1828.88L2494.55 1829.04C2481.76 1833.69 2471.98 1835.98 2463.93 1835.98" fill="black"/>
<path d="M2509.95 1564.07C2509.95 1564.07 2561.83 1569.63 2577.92 1556.95C2589.84 1547.53 2567.6 1519.41 2565.94 1517.21C2551.85 1498.65 2518.98 1455.38 2514.08 1449.25C2509.64 1443.69 2501.17 1430.48 2490.13 1431.44C2479.08 1432.41 2417.89 1442.48 2413.44 1444.45C2404.11 1448.56 2408.06 1461.53 2414.86 1468.67C2421.69 1475.82 2509.95 1564.07 2509.95 1564.07" fill="black"/>
<path d="M2942.24 1995.81C2942.24 1995.81 2992.35 2412.48 2998.52 2492.86C3004.7 2573.24 3013.99 2854.58 2998.52 2993.7C2988.52 3083.83 2981.56 3144.12 2977.92 3175.39C2976.24 3189.9 2963.94 3200.83 2949.34 3200.83H2847.23C2842.01 3200.83 2837.75 3196.65 2837.68 3191.43C2837.23 3153.92 2833.87 3010.95 2809.93 2888.6C2782.12 2746.37 2751.19 2523.77 2735.73 2434.12C2730.59 2404.19 2726.24 2370.93 2722.57 2338.37L2711.01 2372.29C2699.44 2406.2 2655.35 2635.08 2643 2724.73C2631.74 2806.28 2612.81 3133.41 2609.49 3191.87C2609.2 3196.93 2605.02 3200.83 2599.97 3200.83H2469.21C2464.3 3200.83 2460.21 3197.15 2459.72 3192.27C2453.64 3131.64 2417.82 2765.26 2423.48 2601.07C2429.66 2421.75 2510.04 2208.43 2525.5 2149.69C2540.97 2090.95 2561.7 1942 2561.7 1942C2561.7 1942 2875.2 1946.7 2942.24 1995.81" fill="white"/>
<path d="M2722.54 2334.28C2722.68 2334.28 2722.83 2334.28 2722.98 2334.3C2724.86 2334.5 2726.33 2335.98 2726.55 2337.86C2730.79 2375.43 2735.07 2406.67 2739.67 2433.39C2745.06 2464.59 2752.28 2511.73 2760.66 2566.27C2776.28 2668.22 2795.73 2795.09 2813.87 2887.76C2837.7 3009.56 2841.18 3150.91 2841.7 3191.32C2841.73 3194.32 2844.2 3196.74 2847.19 3196.74H2949.3C2961.86 3196.74 2972.42 3187.35 2973.86 3174.88C2977.13 3147 2984.12 3086.31 2994.47 2993.21C3009.46 2858.29 3001.25 2581.5 2994.47 2493.11C2988.55 2416.4 2941.98 2027.78 2938.41 1998.02C2874.23 1953.91 2599.75 1946.78 2565.17 1946.05C2561.9 1969.06 2543.38 2097.43 2529.37 2150.66C2526.25 2162.52 2520.55 2180.49 2513.35 2203.23C2485.06 2292.37 2432.42 2458.3 2427.49 2601.16C2421.89 2763.71 2456.67 3121.69 2463.69 3191.8C2463.99 3194.63 2466.32 3196.74 2469.17 3196.74H2599.93C2602.85 3196.74 2605.26 3194.48 2605.42 3191.58C2609.06 3127.77 2627.76 2805.31 2638.95 2724.13C2651.55 2632.74 2695.53 2404.98 2707.14 2370.93L2718.71 2337C2719.27 2335.36 2720.82 2334.28 2722.54 2334.28V2334.28ZM2949.3 3204.83H2847.19C2839.78 3204.83 2833.7 3198.82 2833.61 3191.43C2833.12 3151.18 2829.63 3010.45 2805.93 2889.31C2787.77 2796.48 2768.3 2669.51 2752.66 2567.49C2744.31 2512.98 2737.08 2465.91 2731.72 2434.76C2727.83 2412.22 2724.18 2386.51 2720.59 2356.55L2714.78 2373.54C2703.27 2407.33 2659.53 2634.11 2646.96 2725.22C2635.81 2806.1 2617.12 3128.28 2613.49 3192.05C2613.07 3199.21 2607.12 3204.83 2599.93 3204.83H2469.17C2462.16 3204.83 2456.36 3199.57 2455.67 3192.62C2448.62 3122.4 2413.79 2763.95 2419.41 2600.87C2424.37 2456.91 2477.23 2290.31 2505.65 2200.78C2512.82 2178.16 2518.49 2160.27 2521.56 2148.61C2536.78 2090.77 2557.45 1942.87 2557.67 1941.37C2557.94 1939.35 2559.71 1937.91 2561.72 1937.89C2574.59 1938.09 2877.28 1943.2 2944.59 1992.51C2945.49 1993.16 2946.07 1994.17 2946.22 1995.28C2946.71 1999.44 2996.4 2412.95 3002.51 2492.49C3009.34 2581.12 3017.55 2858.67 3002.51 2994.09C2992.15 3087.22 2985.14 3147.93 2981.89 3175.81C2979.98 3192.35 2965.96 3204.83 2949.3 3204.83" fill="black"/>
<path d="M2722.54 2341.24C2720.51 2341.24 2718.76 2339.7 2718.54 2337.64C2716.44 2319.05 2714.4 2299.19 2712.47 2278.65C2708.98 2241.35 2683.98 2208.81 2648.8 2195.78L2626.23 2187.43C2624.15 2186.66 2623.07 2184.32 2623.85 2182.24C2624.62 2180.15 2626.94 2179.09 2629.04 2179.85L2651.61 2188.21C2689.69 2202.32 2716.74 2237.52 2720.51 2277.88C2722.45 2298.39 2724.47 2318.19 2726.57 2336.75C2726.81 2338.96 2725.22 2340.96 2723.01 2341.2C2722.85 2341.22 2722.7 2341.24 2722.54 2341.24Z" fill="black"/>
<path d="M2497.91 3200.74H2581.23C2587.14 3200.74 2592.47 3204.28 2594.71 3209.75C2602.1 3227.73 2617.16 3269.72 2615.13 3309.55C2614.57 3320.45 2605.53 3328.97 2594.62 3328.97H2350.12C2338.88 3328.97 2330.34 3318.69 2332.58 3307.67C2335.29 3294.48 2344.59 3277.13 2371.4 3261.52C2414.81 3236.27 2469.35 3211.01 2486.56 3203.2C2490.12 3201.58 2493.99 3200.74 2497.91 3200.74" fill="white"/>
<path d="M2497.91 3204.79C2494.55 3204.79 2491.28 3205.5 2488.24 3206.89C2472.31 3214.12 2416.94 3239.7 2373.42 3265.03C2352.64 3277.11 2339.88 3292.14 2336.54 3308.49C2335.72 3312.49 2336.74 3316.61 2339.35 3319.81C2342 3323.05 2345.94 3324.92 2350.12 3324.92H2594.62C2603.42 3324.92 2610.64 3318.07 2611.1 3309.35C2613.09 3269.86 2597.69 3227.62 2590.97 3211.29C2589.35 3207.35 2585.52 3204.79 2581.23 3204.79H2497.91ZM2594.62 3333H2350.12C2343.5 3333 2337.29 3330.06 2333.1 3324.92C2328.95 3319.84 2327.33 3313.26 2328.62 3306.87C2331.29 3293.86 2340.52 3274.83 2369.37 3258.04C2413.2 3232.53 2468.88 3206.8 2484.88 3199.54C2489 3197.66 2493.38 3196.71 2497.91 3196.71H2581.23C2588.82 3196.71 2595.57 3201.23 2598.45 3208.22C2605.37 3225.05 2621.24 3268.64 2619.16 3309.75C2618.51 3322.8 2607.72 3333 2594.62 3333" fill="black"/>
<path d="M2486.6 3259.48C2485.57 3259.48 2484.55 3259.1 2483.77 3258.31L2448.7 3223.82C2447.11 3222.25 2447.09 3219.7 2448.66 3218.11C2450.21 3216.52 2452.76 3216.49 2454.37 3218.06L2489.42 3252.56C2491.01 3254.13 2491.03 3256.69 2489.48 3258.28C2488.68 3259.08 2487.64 3259.48 2486.6 3259.48" fill="black"/>
<path d="M2463.97 3273.62C2462.95 3273.62 2461.92 3273.24 2461.14 3272.45L2426.09 3237.97C2424.48 3236.4 2424.46 3233.84 2426.03 3232.25C2427.58 3230.65 2430.16 3230.63 2431.74 3232.2L2466.8 3266.71C2468.38 3268.26 2468.42 3270.81 2466.85 3272.42C2466.07 3273.22 2465.01 3273.62 2463.97 3273.62" fill="black"/>
<path d="M2865.6 3200.74H2948.92C2954.83 3200.74 2960.16 3204.28 2962.4 3209.75C2969.79 3227.73 2984.85 3269.72 2982.82 3309.55C2982.28 3320.45 2973.23 3328.97 2962.33 3328.97H2717.81C2706.57 3328.97 2698.03 3318.69 2700.28 3307.67C2702.98 3294.48 2712.28 3277.13 2739.09 3261.52C2782.5 3236.27 2837.04 3211.01 2854.25 3203.2C2857.81 3201.58 2861.68 3200.74 2865.6 3200.74" fill="white"/>
<path d="M2865.6 3204.79C2862.24 3204.79 2858.98 3205.5 2855.93 3206.89C2840 3214.12 2784.64 3239.7 2741.11 3265.03C2720.33 3277.11 2707.57 3292.14 2704.24 3308.49C2703.43 3312.49 2704.45 3316.61 2707.05 3319.81C2709.71 3323.05 2713.63 3324.92 2717.81 3324.92H2962.33C2971.11 3324.92 2978.33 3318.07 2978.79 3309.35C2980.8 3269.86 2965.38 3227.62 2958.66 3211.29C2957.04 3207.35 2953.23 3204.79 2948.92 3204.79H2865.6ZM2962.33 3333H2717.81C2711.19 3333 2704.98 3330.06 2700.79 3324.92C2696.64 3319.84 2695.02 3313.26 2696.33 3306.87C2698.98 3293.86 2708.21 3274.83 2737.06 3258.04C2780.89 3232.53 2836.57 3206.8 2852.57 3199.54C2856.7 3197.66 2861.07 3196.71 2865.6 3196.71H2948.92C2956.51 3196.71 2963.26 3201.23 2966.15 3208.22C2973.06 3225.05 2988.94 3268.64 2986.86 3309.75C2986.2 3322.8 2975.41 3333 2962.33 3333" fill="black"/>
<path d="M2863.59 3256.47C2862.57 3256.47 2861.55 3256.07 2860.76 3255.3L2825.69 3220.81C2824.11 3219.24 2824.09 3216.69 2825.64 3215.08C2827.21 3213.5 2829.76 3213.48 2831.35 3215.05L2866.42 3249.53C2868.01 3251.1 2868.03 3253.66 2866.48 3255.26C2865.67 3256.05 2864.63 3256.47 2863.59 3256.47Z" fill="black"/>
<path d="M2840.97 3270.59C2839.94 3270.59 2838.92 3270.21 2838.14 3269.44L2803.07 3234.94C2801.48 3233.39 2801.46 3230.81 2803.03 3229.23C2804.58 3227.64 2807.15 3227.62 2808.74 3229.19L2843.79 3263.68C2845.38 3265.25 2845.42 3267.8 2843.85 3269.39C2843.06 3270.19 2842.01 3270.59 2840.97 3270.59" fill="black"/>
<path d="M2769.62 1214.81C2767.79 1215.43 2765.86 1216.21 2763.8 1217.21C2763.8 1217.21 2759.18 1220.02 2754.96 1227.76C2750.73 1235.52 2743.69 1259.44 2734.55 1258.03C2725.4 1256.63 2714.13 1219.33 2714.13 1219.33C2714.13 1219.33 2710.62 1201.03 2682.47 1208.05C2654.31 1215.1 2632.49 1227.07 2624.04 1231.99C2615.59 1236.92 2607.85 1238.33 2599.4 1237.61C2590.95 1236.92 2563.51 1220.74 2568.44 1194.7C2573.36 1168.64 2597.3 1150.94 2618.42 1151.05C2640.39 1151.16 2671.9 1136.98 2677.54 1134.15C2683.16 1131.34 2716.3 1117.76 2734.34 1127.84C2750.46 1136.81 2764 1151.07 2771.35 1175.7C2776.04 1191.43 2772.43 1205.85 2771.93 1210.59C2771.73 1212.43 2771.39 1214.2 2769.62 1214.81" fill="black"/>
<path d="M2620.53 1234.7C2619.99 1234.97 2619.69 1235.54 2619.73 1236.14C2620.02 1240.44 2620.97 1258.22 2618.29 1274.26C2616.79 1283.11 2611.12 1304.62 2613.51 1309.05C2615.9 1313.49 2624.77 1313.82 2628.85 1313.49C2632.94 1313.14 2639.77 1314.86 2641.48 1318.25C2643.18 1321.66 2648.31 1353.4 2650.35 1360.9C2652.39 1368.4 2659.22 1377.26 2671.83 1375.91C2673.45 1375.73 2678.18 1374.67 2681.83 1373.82C2684.49 1373.2 2687.14 1374.97 2687.56 1377.67C2693.62 1416.19 2654.67 1459.6 2645.31 1469.51C2644.35 1470.53 2644.69 1472.21 2645.99 1472.77C2732.34 1510.46 2821.15 1445.4 2845.42 1425.18C2846.49 1424.29 2800.07 1411.72 2777.88 1358.34C2768.12 1334.86 2771.39 1298.33 2771.02 1283.82C2770.95 1280.88 2772.59 1278.2 2775.26 1276.96C2781.09 1274.27 2789.58 1265.35 2792.03 1256.56C2795.55 1243.87 2794.14 1203.49 2760.68 1219.68C2760.68 1219.68 2756.06 1222.49 2751.83 1230.24C2747.61 1237.98 2740.57 1261.9 2731.42 1260.5C2722.26 1259.09 2711.01 1221.79 2711.01 1221.79C2711.01 1221.79 2707.48 1203.49 2679.35 1210.54C2653.93 1216.89 2625.77 1231.83 2620.53 1234.7" fill="white"/>
<path d="M2620.53 1234.7H2620.57H2620.53ZM2623.76 1235.84V1235.88V1235.84ZM2650.2 1470.18C2729 1502.63 2808.67 1449.25 2837.94 1426.06C2808.05 1412.1 2786.61 1389.84 2774.14 1359.89C2766.02 1340.33 2766.55 1312.94 2766.9 1294.82C2766.99 1290.52 2767.06 1286.77 2766.99 1283.91C2766.88 1279.37 2769.45 1275.19 2773.58 1273.29C2778.18 1271.17 2785.95 1263.36 2788.14 1255.48C2790.27 1247.78 2790.07 1229.17 2782.1 1222.51C2777.76 1218.87 2771.22 1219.11 2762.68 1223.2C2761.97 1223.69 2758.58 1226.32 2755.38 1232.18C2754.47 1233.84 2753.3 1236.61 2752.06 1239.55C2747.08 1251.36 2740.95 1266.06 2730.8 1264.49C2720.28 1262.87 2710.75 1234.91 2707.14 1222.96C2707.1 1222.82 2707.06 1222.69 2707.05 1222.54C2707.01 1222.41 2706.06 1218.27 2701.61 1215.5C2696.81 1212.52 2689.45 1212.16 2680.31 1214.44C2657.14 1220.24 2631.54 1233.38 2623.85 1237.49C2624.24 1244.06 2624.75 1260.15 2622.27 1274.93C2621.88 1277.21 2621.23 1280.31 2620.5 1283.76C2619.07 1290.46 2616.14 1304.4 2617.12 1307.27C2617.94 1308.78 2623.42 1309.89 2628.53 1309.46C2633.58 1309.04 2642.36 1310.97 2645.09 1316.45C2646.19 1318.65 2647.56 1325.57 2650.42 1340.82C2651.88 1348.63 2653.4 1356.72 2654.24 1359.84C2654.86 1362.1 2658.56 1373.27 2671.41 1371.9C2671.92 1371.85 2673.87 1371.54 2680.9 1369.89C2683.27 1369.33 2685.77 1369.8 2687.79 1371.15C2689.8 1372.5 2691.17 1374.66 2691.55 1377.03C2697.41 1414.36 2663.65 1455.49 2650.2 1470.18V1470.18ZM2702.32 1488.45C2683.43 1488.45 2663.89 1485 2644.36 1476.48C2642.56 1475.69 2641.24 1474.05 2640.84 1472.12C2640.46 1470.18 2641.03 1468.16 2642.38 1466.73C2653.45 1455 2689.18 1413.96 2683.56 1378.29C2683.52 1378.07 2683.4 1377.92 2683.29 1377.85C2683.18 1377.78 2682.98 1377.7 2682.74 1377.76C2674.46 1379.69 2672.81 1379.87 2672.27 1379.93C2658.23 1381.44 2649.18 1371.99 2646.45 1361.96C2645.51 1358.52 2644.04 1350.66 2642.47 1342.32C2640.86 1333.71 2638.65 1321.92 2637.83 1320.02C2637.3 1318.95 2632.76 1317.21 2629.2 1317.5C2626.68 1317.72 2613.95 1318.38 2609.95 1310.97C2607.81 1306.99 2608.98 1299.2 2612.6 1282.1C2613.29 1278.78 2613.93 1275.79 2614.29 1273.58C2616.88 1258.23 2616.03 1241.25 2615.7 1236.41C2615.53 1234.26 2616.68 1232.18 2618.6 1231.14C2624.04 1228.18 2652.5 1213.07 2678.36 1206.61C2689.95 1203.71 2699.29 1204.44 2706.1 1208.78C2712.74 1213.02 2714.58 1219.33 2714.91 1220.75C2720.42 1238.89 2728.41 1255.59 2732.05 1256.5C2735.99 1257.14 2742.23 1242.07 2744.62 1236.41C2745.99 1233.14 2747.19 1230.33 2748.29 1228.31C2752.9 1219.86 2758.01 1216.58 2758.58 1216.23C2773.58 1208.95 2782.43 1212.27 2787.26 1216.3C2798.67 1225.83 2798.52 1248.27 2795.93 1257.63C2793.21 1267.41 2783.92 1277.41 2776.95 1280.62C2775.77 1281.17 2775.04 1282.38 2775.07 1283.71C2775.15 1286.66 2775.07 1290.52 2774.98 1294.99C2774.64 1312.43 2774.12 1338.78 2781.61 1356.79C2793.7 1385.86 2814.87 1407.19 2844.52 1420.18C2847.46 1421.46 2849.09 1422.17 2849.43 1424.58C2849.63 1425.97 2849.07 1427.39 2848.01 1428.29C2828.25 1444.74 2769.4 1488.45 2702.32 1488.45" fill="black"/>
<path d="M2684.22 1377.21C2682.47 1377.21 2680.86 1376.08 2680.35 1374.31C2679.71 1372.17 2680.93 1369.93 2683.09 1369.29C2694.13 1366.04 2711.86 1358.43 2724.42 1350.19C2726.28 1348.96 2728.78 1349.47 2730.02 1351.33C2731.24 1353.21 2730.71 1355.71 2728.85 1356.94C2715.64 1365.62 2696.97 1373.62 2685.37 1377.05C2684.98 1377.16 2684.6 1377.21 2684.22 1377.21Z" fill="black"/>
</svg>
