<svg width="3334" height="3334" viewBox="0 0 3334 3334" fill="none" xmlns="http://www.w3.org/2000/svg">
<path d="M2183.49 1785L1566 1788.88C1562.01 1788.88 1560.69 1792.6 1560.69 1796.16V2322.21C1560.69 2372.56 1209.85 2503.43 1206.43 2496.76L1206 2552.44C1205.98 2562.81 1215.08 2572 1226.68 2572H1234.4H1234.56H1752.27C1776.3 2572 1800.02 2566.62 1821.78 2557.5L2106.42 2437.48C2157.66 2415.88 2190 2369.47 2190 2318.87V1792.28C2190 1788.72 2187.48 1785 2183.48 1785" fill="black"/>
<path d="M1498.35 1757.89V2283.47C1498.35 2335.29 1464.98 2382.5 1412.59 2404.86L1220.45 2486.84C1207.9 2492.19 1212.17 2509 1226.09 2509H1753.99C1777.73 2509 1801.17 2504.31 1822.63 2495.28L2035.52 2405.69C2088.32 2383.47 2122 2336.06 2122 2284V1757.89C2122 1755.74 2120.04 1754 2117.63 1754H1502.72C1500.3 1754 1498.35 1755.74 1498.35 1757.89" fill="white"/>
<path d="M1502.26 1758.98V2284.5C1502.26 2337.59 1467.65 2386.67 1414.08 2409.52L1221.93 2491.52C1218.14 2493.14 1216.3 2496.18 1217.01 2499.69C1217.62 2502.67 1220.35 2506.14 1226.03 2506.14H1754.01C1777.09 2506.14 1800.3 2501.51 1821.15 2492.73L2034.06 2403.11C2085.14 2381.61 2118.15 2335.27 2118.15 2285.03V1758.88C2118.12 1758.95 2117.98 1758.86 2117.71 1758.86H1502.7C1502.47 1758.86 1502.33 1758.93 1502.26 1758.98H1502.26ZM1754.01 2514H1226.02C1216.27 2514 1210.6 2507.6 1209.3 2501.26C1207.85 2494.16 1211.68 2487.34 1218.84 2484.29L1410.99 2402.3C1461.65 2380.68 1494.38 2334.44 1494.38 2284.5V1758.82C1494.38 1754.51 1498.1 1751 1502.69 1751H2117.7C2122.28 1751 2126 1754.51 2126 1758.82V2285.03C2126 2338.44 2091.1 2387.64 2037.09 2410.37L1824.19 2499.97C1802.38 2509.15 1778.11 2514 1754 2514" fill="black"/>
<path d="M342.035 2059.02L3005.52 2065C3028.82 2065 3052.07 2047.48 3055.03 2024.31L3271.44 357.576C3276.61 317.189 3245.33 277.014 3205.16 278.018L572.529 291.927L342 2059.01" fill="black"/>
<path d="M3101.13 287C3146.95 287 3188.31 333.463 3182.44 379.045L2972.37 2020.2C2969.39 2043.39 2944.6 2063 2921.3 2063L305.467 2058.75C277.527 2058.75 258.864 2035.55 262.438 2007.74L479.998 336.161C482.978 312.991 498.293 287 521.587 287H3101.12" fill="white"/>
<path d="M521.724 291.856C501.054 291.856 486.871 315.389 484.018 337.531L266.371 2007.38C264.714 2020.24 268.087 2032.2 275.867 2041.04C283.166 2049.32 293.698 2053.9 305.519 2053.9L2922.4 2058.14C2944.43 2058.14 2966.91 2039.4 2969.58 2018.83L3179.73 379.383C3182.36 358.95 3175.04 337.196 3159.61 319.687C3144.05 302.002 3123.15 291.856 3102.28 291.856H521.724ZM2922.28 2066L305.4 2061.75C291.292 2061.75 278.663 2056.24 269.85 2046.22C260.689 2035.81 256.539 2021.29 258.46 2006.37L476.09 336.527C479.369 311.073 496.433 284 521.596 284H3102.15C3125.28 284 3148.35 295.115 3165.39 314.491C3182.3 333.708 3190.32 357.717 3187.41 380.387L2977.24 2019.83C2974.07 2044.42 2948.38 2066 2922.25 2066" fill="black"/>
<path d="M586.046 358.883C567.206 358.883 554.266 380.416 551.658 400.68L351.364 1938.75C349.851 1950.5 352.927 1961.41 360.025 1969.49C366.683 1977.06 376.291 1981.24 387.077 1981.24L2860.37 1985.13C2880.51 1985.13 2901.05 1968.01 2903.47 1949.19L3096.89 439.144C3099.28 420.414 3092.58 400.468 3078.44 384.402C3064.19 368.177 3045.04 358.883 3025.92 358.883H586.046ZM2860.22 1993L386.934 1989.1C373.861 1989.1 362.156 1983.97 353.981 1974.69C345.493 1965.03 341.647 1951.57 343.426 1937.73L543.72 399.675C546.757 376.078 562.574 351 585.911 351H3025.69C3047.07 351 3068.37 361.281 3084.12 379.199C3099.75 396.959 3107.15 419.18 3104.46 440.149L2911.06 1950.2C2908.11 1973 2884.32 1993 2860.12 1993" fill="black"/>
<path d="M1765.43 558.153H2762.85L2768.57 515.829H1771.14L1765.43 558.153ZM2766.29 566H1760.93C1759.8 566 1758.72 565.509 1757.97 564.648C1757.23 563.806 1756.89 562.665 1757.03 561.559L1763.8 511.388C1764.07 509.439 1765.73 508 1767.7 508H2773.07C2774.19 508 2775.29 508.474 2776.03 509.334C2776.77 510.177 2777.12 511.318 2776.96 512.424L2770.19 562.595C2769.93 564.543 2768.27 566 2766.29 566Z" fill="black"/>
<path d="M2983.22 646H1958L1964.78 596H2990L2983.22 646Z" fill="black"/>
<path d="M2322.44 726.171H2844.82L2850.56 683.83H2328.16L2322.44 726.171ZM2848.26 734H2317.94C2316.81 734 2315.73 733.509 2314.97 732.666C2314.23 731.806 2313.89 730.682 2314.03 729.559L2320.82 679.388C2321.08 677.457 2322.76 676 2324.72 676H2855.06C2856.19 676 2857.27 676.492 2858.03 677.334C2858.77 678.195 2859.11 679.318 2858.97 680.441L2852.18 730.612C2851.92 732.543 2850.24 734 2848.26 734" fill="black"/>
<path d="M1675.43 1224.04H2672.85L2678.57 1180.96H1681.16L1675.43 1224.04ZM2676.29 1232H1670.95C1669.8 1232 1668.72 1231.5 1667.98 1230.63C1667.23 1229.77 1666.89 1228.63 1667.03 1227.48L1673.82 1176.45C1674.07 1174.46 1675.74 1173 1677.72 1173H2683.06C2684.21 1173 2685.29 1173.5 2686.03 1174.36C2686.77 1175.21 2687.12 1176.37 2686.96 1177.52L2680.19 1228.54C2679.93 1230.52 2678.27 1232 2676.29 1232" fill="black"/>
<path d="M2133.07 1315H1869.93C1868.8 1315 1867.72 1314.53 1866.98 1313.67C1866.23 1312.82 1865.89 1311.68 1866.03 1310.57L1872.81 1260.39C1873.06 1258.44 1874.74 1257 1876.71 1257H2114.73C2116.9 1257 2118.66 1258.74 2118.66 1260.92C2118.66 1263.08 2116.9 1264.83 2114.73 1264.83H1880.14L1874.44 1307.17H2133.07C2135.24 1307.17 2137 1308.92 2137 1311.08C2137 1313.26 2135.24 1315 2133.07 1315" fill="black"/>
<path d="M2893.31 1315H2261.05C2258.88 1315 2257.12 1313.26 2257.12 1311.08C2257.12 1308.92 2258.88 1307.17 2261.05 1307.17H2889.85L2895.58 1264.83H2226.93C2224.76 1264.83 2223 1263.08 2223 1260.92C2223 1258.74 2224.76 1257 2226.93 1257H2900.07C2901.2 1257 2902.28 1257.47 2903.03 1258.33C2903.77 1259.18 2904.11 1260.32 2903.97 1261.43L2897.2 1311.61C2896.94 1313.56 2895.26 1315 2893.31 1315" fill="black"/>
<path d="M2882.31 1398H2336C2333.84 1398 2332.07 1396.21 2332.07 1394.02C2332.07 1391.82 2333.84 1390.04 2336 1390.04H2878.88L2884.58 1346.96H2305.93C2303.76 1346.96 2302 1345.2 2302 1342.98C2302 1340.79 2303.76 1339 2305.93 1339H2889.07C2890.22 1339 2891.29 1339.5 2892.03 1340.38C2892.77 1341.23 2893.12 1342.38 2892.96 1343.52L2886.2 1394.55C2885.94 1396.54 2884.28 1398 2882.31 1398" fill="black"/>
<path d="M2217.06 1478H1842.95C1841.81 1478 1840.74 1477.5 1839.97 1476.64C1839.23 1475.77 1838.88 1474.63 1839.04 1473.48L1845.83 1422.45C1846.09 1420.48 1847.76 1419 1849.74 1419H2157.64C2159.84 1419 2161.59 1420.79 2161.59 1422.98C2161.59 1425.18 2159.84 1426.96 2157.64 1426.96H1853.18L1847.45 1470.04H2217.06C2219.23 1470.04 2221 1471.82 2221 1474.02C2221 1476.21 2219.23 1478 2217.06 1478" fill="black"/>
<path d="M2732.21 812H1727L1733.77 762H2739L2732.21 812Z" fill="black"/>
<path d="M2802.68 896H1925L1931.77 845H2804L2802.68 896Z" fill="black"/>
<path d="M2278.41 1057.17H2675.87L2681.58 1014.83H2284.14L2278.41 1057.17ZM2679.31 1065H2273.92C2272.8 1065 2271.72 1064.51 2270.96 1063.67C2270.23 1062.82 2269.89 1061.68 2270.03 1060.56L2276.79 1010.41C2277.06 1008.46 2278.73 1007 2280.69 1007H2686.07C2687.21 1007 2688.29 1007.49 2689.03 1008.35C2689.79 1009.19 2690.12 1010.32 2689.96 1011.44L2683.2 1061.61C2682.93 1063.54 2681.28 1065 2679.31 1065" fill="black"/>
<path d="M2789.24 1145H2384L2390.76 1095H2796L2789.24 1145Z" fill="black"/>
<path d="M2770 979H2286L2292.75 927H2772L2770 979Z" fill="black"/>
<path d="M2632.23 1561H1627L1633.77 1511H2639L2632.23 1561Z" fill="white"/>
<path d="M2356.06 1647H1824.94C1823.81 1647 1822.71 1646.53 1821.97 1645.67C1821.23 1644.82 1820.88 1643.7 1821.04 1642.57L1827.81 1592.39C1828.08 1590.44 1829.74 1589 1831.72 1589H2337.97C2340.14 1589 2341.91 1590.76 2341.91 1592.92C2341.91 1595.08 2340.14 1596.83 2337.97 1596.83H1835.16L1829.44 1639.17H2356.06C2358.23 1639.17 2360 1640.92 2360 1643.08C2360 1645.26 2358.23 1647 2356.06 1647" fill="black"/>
<path d="M2634.07 1730H2184.93C2183.79 1730 2182.71 1729.53 2181.97 1728.67C2181.21 1727.82 2180.88 1726.68 2181.04 1725.58L2187.8 1675.41C2188.07 1673.46 2189.72 1672 2191.69 1672H2618.03C2620.19 1672 2621.95 1673.76 2621.95 1675.91C2621.95 1678.09 2620.19 1679.85 2618.03 1679.85H2195.13L2189.42 1722.17H2634.07C2636.24 1722.17 2638 1723.93 2638 1726.09C2638 1728.24 2636.24 1730 2634.07 1730" fill="black"/>
<path d="M2599.22 1810H1593L1599.78 1759H2606L2599.22 1810Z" fill="white"/>
<path d="M2630.05 1897H1790.93C1789.8 1897 1788.72 1896.49 1787.97 1895.62C1787.23 1894.73 1786.89 1893.57 1787.03 1892.41L1793.8 1840.5C1794.07 1838.51 1795.74 1837 1797.72 1837H2634.07C2636.24 1837 2638 1838.82 2638 1841.05C2638 1843.28 2636.24 1845.1 2634.07 1845.1H1801.15L1795.42 1888.9H2630.05C2632.24 1888.9 2633.98 1890.72 2633.98 1892.95C2633.98 1895.18 2632.24 1897 2630.05 1897" fill="black"/>
<path d="M1598.52 1144H1501L1507.48 1096H1605L1598.52 1144Z" fill="black"/>
<path d="M1681.22 563H1579L1585.78 513H1688L1681.22 563Z" fill="black"/>
<path d="M1691.28 488H1590L1596.74 437H1698L1691.28 488" fill="black"/>
<path d="M1668.23 646H1567L1573.77 596H1675L1668.23 646Z" fill="black"/>
<path d="M1654.22 730H1558L1564.78 680H1661L1654.22 730Z" fill="black"/>
<path d="M1643.27 812H1546L1552.73 762H1650L1643.27 812Z" fill="black"/>
<path d="M1632.14 896H1533L1539.88 845H1639L1632.14 896Z" fill="black"/>
<path d="M1613.21 1058H1516L1522.81 1008H1620L1613.21 1058Z" fill="black"/>
<path d="M1621.26 975H1529L1535.76 924H1628L1621.26 975Z" fill="black"/>
<path d="M1565.52 1397H1468L1474.48 1348H1572L1565.52 1397Z" fill="black"/>
<path d="M1579.15 1311H1481L1487.85 1261H1586L1579.15 1311Z" fill="black"/>
<path d="M1586.26 1227H1494L1500.74 1177H1593L1586.26 1227Z" fill="black"/>
<path d="M1499.46 1887H1401L1407.54 1839H1506L1499.46 1887Z" fill="black"/>
<path d="M1555.14 1473H1458L1464.86 1423H1562L1555.14 1473Z" fill="black"/>
<path d="M1543.19 1556H1445L1451.8 1506H1550L1543.19 1556Z" fill="black"/>
<path d="M1531.27 1639H1434L1440.73 1588H1538L1531.27 1639Z" fill="black"/>
<path d="M1512.21 1802H1415L1421.79 1752H1519L1512.21 1802Z" fill="black"/>
<path d="M1522.12 1719H1428L1434.88 1669H1529L1522.12 1719Z" fill="black"/>
<path d="M1162.5 476H679L685.504 428H1169L1162.5 476Z" fill="black"/>
<path d="M742.419 555.171H1243.87L1249.58 512.83H748.125L742.419 555.171ZM1247.31 563H737.928C736.794 563 735.716 562.509 734.97 561.666C734.225 560.806 733.885 559.682 734.035 558.559L740.8 508.388C741.063 506.457 742.725 505 744.694 505H1254.07C1255.2 505 1256.27 505.492 1257.03 506.334C1257.77 507.195 1258.12 508.318 1257.96 509.441L1251.2 559.612C1250.94 561.543 1249.28 563 1247.31 563" fill="black"/>
<path d="M791.416 639.171H1376.87L1382.58 596.83H797.121L791.416 639.171ZM1380.31 647H786.926C785.792 647 784.716 646.509 783.97 645.648C783.225 644.806 782.885 643.682 783.035 642.559L789.798 592.388C790.062 590.44 791.724 589 793.691 589H1387.07C1388.2 589 1389.29 589.492 1390.03 590.334C1390.77 591.177 1391.12 592.318 1390.96 593.441L1384.2 643.594C1383.94 645.543 1382.26 647 1380.31 647" fill="black"/>
<path d="M965.437 722.168H1452.87L1458.59 679.832H971.144L965.437 722.168ZM1456.3 730H960.928C959.795 730 958.717 729.526 957.97 728.666C957.225 727.823 956.885 726.681 957.035 725.575L963.804 675.389C964.067 673.44 965.731 672 967.699 672H1463.08C1464.2 672 1465.28 672.474 1466.02 673.334C1466.77 674.177 1467.11 675.319 1466.97 676.425L1460.19 726.611C1459.94 728.56 1458.27 730 1456.29 730" fill="black"/>
<path d="M981.482 1140H589L595.518 1093H988L981.482 1140Z" fill="black"/>
<path d="M705.395 1220.17H982.911L988.605 1177.83H711.089L705.395 1220.17ZM986.336 1228H700.917C699.786 1228 698.712 1227.51 697.969 1226.67C697.224 1225.81 696.885 1224.68 697.035 1223.56L703.781 1173.41C704.043 1171.46 705.703 1170 707.664 1170H993.083C994.214 1170 995.288 1170.49 996.033 1171.33C996.776 1172.19 997.115 1173.32 996.965 1174.44L990.219 1224.61C989.957 1226.54 988.299 1228 986.338 1228" fill="black"/>
<path d="M819.428 1303.17H1085.85L1091.57 1260.83H825.145L819.428 1303.17ZM1089.29 1311H814.932C813.798 1311 812.719 1310.51 811.971 1309.65C811.225 1308.81 810.885 1307.68 811.035 1306.56L817.808 1256.39C818.072 1254.46 819.737 1253 821.707 1253H1096.07C1097.2 1253 1098.28 1253.49 1099.03 1254.33C1099.77 1255.18 1100.12 1256.32 1099.97 1257.44L1093.19 1307.59C1092.93 1309.54 1091.26 1311 1089.29 1311" fill="black"/>
<path d="M928.411 1388.03H1266.88L1272.58 1344.97H934.111L928.411 1388.03ZM1270.31 1396H923.924C922.793 1396 921.715 1395.52 920.969 1394.64C920.225 1393.79 919.885 1392.64 920.035 1391.5L926.796 1340.45C927.058 1338.46 928.72 1337 930.685 1337H1277.07C1278.22 1337 1279.29 1337.48 1280.03 1338.36C1280.79 1339.22 1281.12 1340.38 1280.96 1341.5L1274.21 1392.55C1273.94 1394.54 1272.29 1396 1270.32 1396" fill="black"/>
<path d="M990.21 809H639L645.79 759H997L990.21 809Z" fill="black"/>
<path d="M887.444 889.171H1421.83L1427.55 846.83H893.166L887.444 889.171ZM1425.27 897H882.94C881.802 897 880.721 896.509 879.973 895.666C879.225 894.806 878.885 893.682 879.035 892.559L885.821 842.388C886.084 840.457 887.753 839 889.726 839H1432.06C1433.21 839 1434.28 839.492 1435.03 840.334C1435.77 841.195 1436.12 842.318 1435.96 843.441L1429.18 893.612C1428.92 895.543 1427.26 897 1425.28 897" fill="black"/>
<path d="M973.21 975H622L628.79 924H980L973.21 975Z" fill="black"/>
<path d="M870.427 1054.17H1403.84L1409.57 1011.83H876.157L870.427 1054.17ZM1407.28 1062H865.932C864.798 1062 863.717 1061.51 862.972 1060.67C862.224 1059.81 861.884 1058.68 862.035 1057.56L868.809 1007.39C869.072 1005.46 870.736 1004 872.705 1004H1414.07C1415.2 1004 1416.28 1004.49 1417.03 1005.33C1417.77 1006.19 1418.11 1007.32 1417.97 1008.44L1411.2 1058.61C1410.93 1060.54 1409.26 1062 1407.28 1062" fill="black"/>
<path d="M979.51 1473H545L551.491 1424H986L979.51 1473Z" fill="black"/>
<path d="M555.417 1553.17H1257.87L1263.58 1510.83H561.121L555.417 1553.17ZM1261.31 1561H550.927C549.793 1561 548.716 1560.51 547.971 1559.67C547.225 1558.82 546.885 1557.68 547.035 1556.56L553.799 1506.39C554.061 1504.46 555.723 1503 557.691 1503H1268.07C1269.21 1503 1270.29 1503.49 1271.03 1504.33C1271.79 1505.19 1272.12 1506.32 1271.96 1507.44L1265.2 1557.61C1264.94 1559.54 1263.28 1561 1261.31 1561" fill="black"/>
<path d="M856.406 1636.04H1255.89L1261.58 1592.96H862.105L856.406 1636.04ZM1259.32 1644H851.921C850.791 1644 849.714 1643.5 848.968 1642.64C848.225 1641.77 847.885 1640.63 848.035 1639.48L854.792 1588.45C855.054 1586.48 856.714 1585 858.68 1585H1266.07C1267.22 1585 1268.29 1585.5 1269.03 1586.36C1269.79 1587.23 1270.12 1588.37 1269.96 1589.52L1263.21 1640.55C1262.94 1642.52 1261.29 1644 1259.32 1644" fill="black"/>
<path d="M1088.24 1807H815.088L793 1757H1095L1088.23 1807" fill="black"/>
<path d="M953.442 1712.17H1337.82L1343.56 1669.83H959.163L953.442 1712.17ZM1341.28 1720H948.939C947.802 1720 946.721 1719.51 945.972 1718.67C945.225 1717.81 944.885 1716.68 945.035 1715.56L951.819 1665.39C952.082 1663.46 953.749 1662 955.721 1662H1348.07C1349.2 1662 1350.27 1662.49 1351.03 1663.33C1351.77 1664.19 1352.11 1665.32 1351.97 1666.44L1345.19 1716.59C1344.92 1718.54 1343.25 1720 1341.29 1720" fill="black"/>
<path d="M1168.3 1893H855.483C853.31 1893 851.549 1891.21 851.549 1889.02C851.549 1886.82 853.31 1885.04 855.483 1885.04H1164.84L1170.57 1841.96H840.933C838.761 1841.96 837 1840.2 837 1837.98C837 1835.79 838.761 1834 840.933 1834H1175.06C1176.2 1834 1177.28 1834.5 1178.03 1835.38C1178.77 1836.23 1179.12 1837.38 1178.97 1838.52L1172.19 1889.55C1171.92 1891.52 1170.26 1893 1168.29 1893" fill="black"/>
<path d="M3137 2997.98L3127.2 3091.58L3064 3099V2988L3137 2997.98" fill="white"/>
<path d="M3066.87 2991.48V3094.61L3122.64 3088L3131.75 3000.41L3066.87 2991.48ZM3062.94 3103C3061.98 3103 3061.05 3102.65 3060.32 3101.99C3059.48 3101.25 3059 3100.17 3059 3099.05V2986.95C3059 2985.81 3059.49 2984.73 3060.36 2983.97C3061.21 2983.23 3062.35 2982.89 3063.47 2983.03L3136.61 2993.11C3138.71 2993.39 3140.21 2995.3 3139.98 2997.43L3130.16 3091.97C3129.97 3093.79 3128.54 3095.26 3126.7 3095.47L3063.4 3102.96C3063.25 3102.98 3063.1 3103 3062.94 3103" fill="black"/>
<path d="M3052.35 3262.88C3078.87 3266.62 3122.38 3269.91 3173.43 3262.83C3190.13 3260.52 3201.2 3244.26 3197.17 3227.87C3185.94 3182.13 3166.58 3095.33 3133.33 3055.09L3125.08 3076.91L3113.67 3056.36C3112.11 3053.56 3109.3 3051.65 3106.11 3051.24L3081.14 3048.08C3075.93 3047.41 3071.06 3050.87 3069.98 3056.03L3066.01 3074.95L3050.78 3050.15L3044.02 3142.82C3042.57 3162.68 3039.57 3182.38 3035.06 3201.76L3028.25 3231C3026.21 3246.45 3036.94 3260.71 3052.35 3262.88" fill="white"/>
<path d="M3054.8 3063.54L3048.93 3143.65C3047.47 3163.55 3044.43 3183.51 3039.87 3202.96L3033.05 3232.08C3031.39 3244.96 3040.69 3257.23 3053.88 3259.08C3080.94 3262.88 3123.74 3265.95 3173.91 3259.02C3180.77 3258.07 3186.93 3254.28 3190.81 3248.6C3194.74 3242.86 3196.03 3235.74 3194.38 3229.02L3191.97 3219.14C3181.17 3174.95 3163.49 3102.43 3135.55 3063.97L3129.8 3079.09C3129.24 3080.53 3127.91 3081.52 3126.37 3081.62C3124.77 3081.71 3123.37 3080.95 3122.62 3079.62L3111.21 3059.15C3110.25 3057.44 3108.54 3056.28 3106.61 3056.05L3081.61 3052.89C3078.45 3052.48 3075.49 3054.61 3074.83 3057.72L3070.87 3076.57C3070.53 3078.14 3069.25 3079.35 3067.66 3079.63C3066.08 3079.92 3064.46 3079.18 3063.61 3077.81L3054.8 3063.54ZM3113.5 3271C3089.14 3271 3068.38 3269.05 3052.76 3266.85C3035.29 3264.41 3022.97 3248.17 3025.28 3230.69L3032.17 3201.2C3036.62 3182.12 3039.61 3162.57 3041.04 3143.08L3047.81 3050.78C3047.93 3049.07 3049.14 3047.65 3050.83 3047.24C3052.49 3046.84 3054.23 3047.56 3055.12 3049.02L3065.15 3065.27L3067.09 3056.12C3068.58 3049.04 3075.41 3044.18 3082.62 3045.11L3107.62 3048.26C3112.04 3048.83 3115.96 3051.48 3118.13 3055.35L3125.39 3068.38L3130.65 3054.59C3131.14 3053.29 3132.3 3052.34 3133.7 3052.11C3135.1 3051.88 3136.51 3052.41 3137.39 3053.49C3168.96 3091.52 3188.19 3170.25 3199.66 3217.29L3202.07 3227.16C3204.25 3236.02 3202.55 3245.45 3197.37 3252.99C3192.22 3260.52 3184.07 3265.55 3175.01 3266.8C3152.87 3269.86 3132.14 3271 3113.5 3271" fill="black"/>
<path d="M3110.61 3244C3078.98 3244 3059.72 3236.64 3058.56 3236.18C3056.54 3235.39 3055.5 3232.97 3056.23 3230.78C3056.96 3228.59 3059.16 3227.46 3061.18 3228.25C3061.59 3228.4 3102.68 3244.02 3163.27 3228.9C3165.35 3228.37 3167.43 3229.78 3167.9 3232.07C3168.38 3234.33 3167.08 3236.58 3165 3237.11C3144.37 3242.26 3126.02 3244 3110.61 3244Z" fill="black"/>
<path d="M3142.01 3171H3141.89L3081.86 3168.99C3079.66 3168.92 3077.93 3167.07 3078 3164.86C3078.07 3162.66 3079.98 3160.88 3082.11 3161.01L3142.14 3163C3144.34 3163.07 3146.07 3164.94 3146 3167.14C3145.93 3169.3 3144.16 3171 3142.01 3171Z" fill="black"/>
<path d="M2840 2948L2830.52 3084H2754.54L2751 2948H2840Z" fill="white"/>
<path d="M2758.31 3080.2H2826.91L2835.86 2951.8H2754.97L2758.31 3080.2ZM2830.58 3088H2754.48C2752.35 3088 2750.6 3086.32 2750.55 3084.21L2747 2948C2746.98 2946.95 2747.39 2945.94 2748.13 2945.19C2748.85 2944.44 2749.88 2944 2750.93 2944H2840.07C2841.17 2944 2842.21 2944.45 2842.95 2945.24C2843.69 2946.05 2844.08 2947.09 2843.99 2948.18L2834.51 3084.36C2834.37 3086.41 2832.66 3088 2830.58 3088" fill="black"/>
<path d="M2850 3162.05C2850.17 3175.04 2841.38 3186.44 2828.84 3189.39C2785.23 3199.63 2686.96 3222.42 2658.93 3226.63C2622.56 3232.09 2577.84 3220.85 2558.62 3199.4C2539.39 3177.93 2601.67 3126.67 2631.21 3108.02C2675.11 3080.32 2717.28 3025.55 2734.97 3023.08C2752.64 3020.63 2785.65 3072.38 2785.65 3072.38L2839.62 3049.52C2839.62 3049.52 2849.03 3096.16 2850 3162.05" fill="white"/>
<path d="M2735.93 3025.88C2735.67 3025.88 2735.39 3025.9 2735.14 3025.93C2727.49 3027 2711.69 3042.15 2694.96 3058.18C2676.16 3076.21 2654.85 3096.64 2632.54 3110.74C2608.12 3126.18 2561.22 3164.47 2558.04 3187.29C2557.51 3191.12 2558.31 3194.17 2560.5 3196.63C2578.5 3216.76 2621.19 3228.23 2657.68 3222.75C2685.8 3218.52 2786.1 3195.18 2827.92 3185.36C2838.62 3182.83 2846.28 3172.92 2846.12 3161.78C2845.33 3108.63 2839.01 3067.66 2836.66 3054.14L2787 3075.21C2785.24 3075.98 2783.19 3075.34 2782.15 3073.71C2769.28 3053.51 2746.79 3025.88 2735.93 3025.88V3025.88ZM2639.18 3232C2605.58 3232 2571 3220.2 2554.64 3201.91C2550.86 3197.68 2549.37 3192.4 2550.24 3186.19C2554.02 3159.05 2604.49 3119.14 2628.34 3104.06C2649.98 3090.38 2670.99 3070.23 2689.52 3052.48C2709.47 3033.34 2723.89 3019.52 2734.04 3018.12C2751.84 3015.6 2778.37 3053.54 2786.99 3066.65L2838.11 3044.95C2839.2 3044.49 2840.44 3044.54 2841.48 3045.11C2842.52 3045.66 2843.26 3046.65 2843.49 3047.82C2843.6 3048.28 2853.03 3095.82 2854 3161.65C2854.21 3176.48 2844.01 3189.68 2829.72 3193.05C2787.82 3202.9 2687.26 3226.29 2658.84 3230.56C2652.43 3231.54 2645.81 3232 2639.18 3232" fill="black"/>
<path d="M2640.99 3198C2617.28 3198 2596.08 3194.09 2580.77 3184C2578.96 3182.8 2578.45 3180.36 2579.65 3178.54C2580.82 3176.72 2583.27 3176.21 2585.06 3177.41C2641.3 3214.47 2791.19 3159.63 2820.67 3148.27C2822.71 3147.47 2824.98 3148.5 2825.73 3150.53C2826.52 3152.56 2825.5 3154.84 2823.48 3155.62C2792.37 3167.62 2707 3198 2640.99 3198" fill="black"/>
<path d="M2724.99 3124C2723.99 3124 2722.99 3123.62 2722.2 3122.83L2690.2 3090.97C2688.62 3089.4 2688.6 3086.82 2690.14 3085.22C2691.68 3083.61 2694.21 3083.6 2695.78 3085.16L2727.79 3117.03C2729.38 3118.59 2729.4 3121.18 2727.86 3122.78C2727.07 3123.58 2726.03 3124 2724.99 3124" fill="black"/>
<path d="M3157.79 2052.01C3157.79 2052.01 3181.36 2480.91 3193.7 2628.96C3206.02 2777.02 3164.84 3015 3164.84 3015L3047.43 3008.8C3047.43 3008.8 3039.38 2719.43 3030.65 2639.08C3030.65 2639.08 2981.06 2530.15 2966.35 2432.98C2951.67 2335.83 2901.59 2182.38 2901.59 2182.38C2901.59 2182.38 2860.92 2948.32 2857.01 3008.5C2857.01 3008.5 2764.92 3012.62 2731.92 2991.73C2731.92 2991.73 2673.44 2712.46 2681.83 2560.5C2690.22 2408.54 2681 2031 2681 2031L3157.79 2052.01" fill="white"/>
<path d="M3051.03 3005.15L3161.55 3010.98C3166.52 2981.22 3201.22 2765.81 3189.84 2629.7C3178.21 2490.52 3156.36 2098.27 3154.04 2056.68L2683.99 2036.02C2684.96 2077.89 2692.56 2419.55 2684.7 2561.18C2676.74 2704.68 2729.67 2965.96 2734.49 2989.37C2763.57 3006.21 2835.81 3005.26 2852.63 3004.78C2857.63 2923.85 2896.68 2190.49 2897.09 2182.96C2897.19 2181.08 2898.62 2179.53 2900.51 2179.28C2902.37 2179.04 2904.19 2180.15 2904.77 2181.96C2905.27 2183.49 2955.22 2336.71 2969.83 2432.98C2984.3 2528.37 3033.46 2636.77 3033.96 2637.85C3034.13 2638.23 3034.26 2638.64 3034.29 2639.06C3042.42 2713.71 3050.05 2971.49 3051.03 3005.15V3005.15ZM3164.87 3019H3164.66L3046.98 3012.81C3044.93 3012.7 3043.3 3011.03 3043.23 3008.99C3043.16 3006.1 3035.12 2720.59 3026.52 2640.52C3022.58 2631.74 2976.14 2526.98 2962.04 2434.16C2950.7 2359.46 2917.88 2250.04 2903.8 2204.96C2897.14 2329.86 2863.78 2955.07 2860.26 3008.83C2860.14 3010.83 2858.51 3012.42 2856.52 3012.51C2852.68 3012.68 2762.62 3016.43 2728.87 2995.16C2727.97 2994.58 2727.33 2993.68 2727.12 2992.64C2726.54 2989.84 2668.49 2711.35 2676.83 2560.75C2685.16 2410.81 2676.09 2035.8 2676 2032.01C2675.97 2030.94 2676.41 2029.88 2677.19 2029.13C2677.96 2028.37 2679.02 2027.98 2680.12 2028L3157.96 2048.99C3159.98 2049.08 3161.6 2050.7 3161.71 2052.71C3161.96 2057 3185.48 2482.87 3197.7 2629.05C3209.97 2775.77 3169.15 3013.37 3168.74 3015.74C3168.42 3017.65 3166.76 3019 3164.87 3019" fill="black"/>
<path d="M3087.14 2644H3051.86C3049.72 2644 3048 2642.22 3048 2640C3048 2637.79 3049.72 2636 3051.86 2636H3087.14C3089.27 2636 3091 2637.79 3091 2640C3091 2642.22 3089.27 2644 3087.14 2644Z" fill="black"/>
<path d="M2797.08 2867C2794.93 2867 2793.19 2865.28 2793.15 2863.13C2791.91 2794.1 2713.37 2664.31 2712.57 2663.01C2711.45 2661.15 2712.03 2658.73 2713.88 2657.58C2715.72 2656.45 2718.13 2657.03 2719.28 2658.89C2722.55 2664.28 2799.7 2791.82 2801 2862.99C2801.03 2865.16 2799.31 2866.95 2797.15 2867H2797.08" fill="black"/>
<path d="M2609.52 1373.1C2603.01 1372.59 2548.82 1465.57 2523.33 1509.97C2516.09 1522.58 2499.93 1526.69 2487.57 1519.07L2288.32 1396.13C2272.06 1386.11 2258.09 1372.66 2247.58 1356.66C2230.93 1331.32 2221.03 1305.55 2198.76 1287.55C2180.65 1272.91 2162.3 1256.64 2156.81 1252.38C2153.37 1249.72 2137.39 1261.08 2149.41 1281.27C2153.12 1287.48 2166.95 1300.05 2170.73 1305.76C2176.76 1314.87 2176.76 1326.99 2170.05 1335.6C2162.9 1344.78 2156.94 1359.5 2164.97 1379.97C2176.83 1410.26 2203.74 1417.75 2218.98 1419.51C2226.64 1420.39 2233.67 1424.1 2238.76 1429.92L2422.63 1640.49C2451.16 1673.18 2498.85 1680.55 2535.81 1657.98C2595.59 1621.49 2672.56 1547.94 2728 1454.98L2609.52 1373.1Z" fill="white"/>
<path d="M2153.99 1256.96C2152.91 1257.35 2150.78 1258.85 2149.32 1261.68C2147.48 1265.22 2146.43 1271.28 2151.7 1280.12C2153.46 1283.06 2158.38 1288.25 2162.74 1292.83C2166.95 1297.27 2170.93 1301.46 2172.87 1304.4C2180 1315.14 2179.66 1328.95 2172.03 1338.76C2163.03 1350.29 2161.5 1363.9 2167.5 1379.19C2178.64 1407.55 2204.06 1414.54 2218.24 1416.18C2226.86 1417.17 2234.76 1421.32 2240.49 1427.89L2424.1 1638.02C2451.35 1669.22 2496.79 1676.25 2532.1 1654.7C2585.12 1622.35 2662.22 1553.46 2720.79 1456.61L2607.69 1378.48C2600.7 1385.63 2575.95 1423.75 2525.1 1512.29C2521.07 1519.32 2514.52 1524.28 2506.7 1526.27C2498.87 1528.25 2490.79 1527 2483.92 1522.77L2284.95 1400.09C2268.2 1389.77 2253.71 1375.73 2243.04 1359.5C2238.12 1352 2233.77 1344.46 2229.57 1337.19C2219.65 1319.95 2210.27 1303.68 2195.12 1291.44C2184.56 1282.92 2173.74 1273.67 2165.82 1266.93C2160.62 1262.47 2156.39 1258.88 2153.99 1256.96V1256.96ZM2487.99 1675C2462 1675 2436.38 1664.03 2418.17 1643.18L2234.56 1433.05C2230.12 1427.98 2224 1424.76 2217.34 1423.98C2201.42 1422.13 2172.82 1414.25 2160.18 1382.06C2151.36 1359.57 2158.38 1343.47 2165.82 1333.93C2171.37 1326.8 2171.59 1316.67 2166.31 1308.73C2164.75 1306.37 2160.83 1302.23 2157.04 1298.24C2152.17 1293.13 2147.15 1287.83 2144.95 1284.15C2136.24 1269.57 2140.45 1257.93 2146.71 1252.42C2150.69 1248.88 2155.28 1248 2158.1 1250.2C2160.48 1252.03 2165.08 1255.98 2170.93 1260.96C2178.8 1267.69 2189.59 1276.88 2200.06 1285.33C2216.35 1298.5 2226.08 1315.39 2236.4 1333.26C2240.54 1340.45 2244.82 1347.88 2249.62 1355.2C2259.65 1370.47 2273.3 1383.68 2289.08 1393.41L2488.04 1516.08C2493.09 1519.2 2499.03 1520.11 2504.76 1518.65C2510.5 1517.21 2515.3 1513.54 2518.28 1508.38C2598.27 1369.1 2604.12 1369.57 2608.07 1369.84C2608.76 1369.91 2609.43 1370.13 2610 1370.52L2728.3 1452.25C2730.01 1453.43 2730.5 1455.71 2729.44 1457.49C2669.91 1557.21 2590.58 1628.21 2536.19 1661.41C2521.19 1670.54 2504.51 1675 2487.99 1675" fill="black"/>
<path d="M3290.79 1545.94C3290.79 1545.94 3304.02 1301.46 3119.3 1232.78C2976.26 1179.59 2793.58 1202.54 2736.33 1222.4C2595.38 1271.32 2526 1457.65 2526 1457.65L2691.19 1480.95C2691.19 1480.95 2641.41 2016.28 2663 2135.7C2663 2135.7 2795.94 2151.31 2852.32 2128.95C2908.7 2106.59 3094.09 2075.25 3182.71 2116.24L3166.61 1543.63L3290.79 1545.94" fill="black"/>
<path d="M2666.51 2132.12C2686.28 2134.21 2800.97 2145.23 2851.29 2125.29C2906.56 2103.4 3086.97 2072.15 3179.52 2110.19L3163.57 1543.69C3163.54 1542.61 3163.96 1541.57 3164.7 1540.8C3165.46 1540.04 3166.59 1539.67 3167.58 1539.63L3288.06 1541.87C3288.66 1510.8 3286.37 1298.59 3118.75 1236.35C2980.34 1184.95 2799.54 1204.62 2737.86 1226C2612.3 1269.52 2543.24 1425.58 2531.43 1454.38L2691.93 1476.97C2693.99 1477.26 2695.47 1479.14 2695.28 1481.22C2694.79 1486.53 2646.49 2009.07 2666.51 2132.12ZM2757.08 2145C2709.59 2145 2665.82 2139.98 2662.68 2139.61C2660.95 2139.41 2659.58 2138.11 2659.26 2136.4C2638.49 2021.73 2682.35 1535.86 2687.11 1484.24L2525.38 1461.46C2524.2 1461.29 2523.16 1460.6 2522.54 1459.58C2521.94 1458.55 2521.84 1457.3 2522.24 1456.19C2522.95 1454.31 2594.01 1267.55 2735.29 1218.58C2797.86 1196.89 2981.22 1176.9 3121.48 1228.98C3198.36 1257.52 3252.87 1321.48 3279.15 1413.94C3298.93 1483.5 3295.84 1545.47 3295.81 1546.08C3295.68 1548.16 3293.97 1549.8 3291.87 1549.8H3291.8L3171.54 1547.56L3187.56 2116.15C3187.6 2117.5 3186.94 2118.79 3185.8 2119.55C3184.67 2120.29 3183.22 2120.39 3181.99 2119.83C3093.38 2078.89 2909.72 2110.61 2854.19 2132.61C2829.97 2142.22 2792.48 2145 2757.08 2145" fill="white"/>
<path d="M3061.08 2001C3060.85 2001 3060.62 2000.98 3060.4 2000.95C2844.91 1962.67 2781.9 1811.89 2781.29 1810.38C2780.48 1808.38 2781.44 1806.09 2783.47 1805.29C2785.46 1804.48 2787.76 1805.44 2788.57 1807.45C2789.17 1808.92 2850.77 1955.74 3061.77 1993.23C3063.9 1993.6 3065.32 1995.64 3064.94 1997.77C3064.6 1999.66 3062.95 2001 3061.08 2001Z" fill="white"/>
<path d="M2666.66 1743H2937L2852.32 1439H2582L2666.66 1743Z" fill="white"/>
<path d="M2669.11 1739.12H2932.86L2849.89 1441.88H2586.14L2669.11 1739.12ZM2938.06 1747H2666.12C2664.35 1747 2662.79 1745.83 2662.31 1744.12L2577.15 1439C2576.81 1437.82 2577.06 1436.53 2577.8 1435.55C2578.55 1434.57 2579.71 1434 2580.95 1434H2852.88C2854.65 1434 2856.21 1435.18 2856.69 1436.88L2941.85 1742.02C2942.19 1743.2 2941.94 1744.47 2941.2 1745.45C2940.45 1746.43 2939.29 1747 2938.06 1747Z" fill="black"/>
<path d="M3260 1545.41L3140.64 1540C3140.64 1540 3139.74 1641.24 3128.96 1643.04C3090.59 1649.49 3010.23 1649.81 2957.92 1643.45C2939.7 1641.24 2925.29 1627.2 2921.86 1609.05C2919.28 1595.33 2911.91 1579.23 2893.2 1567.65C2875.15 1556.44 2892.96 1591.69 2876.07 1614.39C2866.99 1626.58 2838.24 1621.17 2799.04 1612.02C2759.85 1602.88 2749.88 1645.07 2793.82 1670.56C2841.44 1698.19 2871.7 1695.1 2886.9 1698.34C2917.14 1704.79 3184.61 1747 3225.9 1724.41C3257.79 1706.94 3260 1545.41 3260 1545.41" fill="white"/>
<path d="M2789.6 1615.28C2780.5 1615.28 2773.71 1618.95 2771.03 1625.69C2766.83 1636.25 2773.06 1653.84 2796.64 1667.48C2833.28 1688.68 2859.1 1691.32 2876.17 1693.04C2880.88 1693.53 2884.96 1693.94 2888.39 1694.68C2919.17 1701.22 3184.57 1742.6 3224.14 1721.01C3247.93 1708.03 3255.13 1596.72 3256.08 1550.06L3144.77 1545.03C3144.64 1553.21 3144.22 1572.53 3143.04 1591.77C3139.95 1641.54 3134.85 1646.52 3129.9 1647.35C3090.65 1653.91 3010.35 1654.12 2958.03 1647.79C2938.24 1645.38 2922.42 1630.35 2918.63 1610.37C2915.5 1593.81 2906.47 1580.83 2891.82 1571.77C2890.55 1571 2889.7 1570.61 2889.17 1570.41C2888.77 1572.24 2888.8 1576.31 2888.82 1579.4C2888.91 1589.64 2889.05 1605.09 2879.91 1617.3C2869.31 1631.5 2839.7 1625.9 2798.99 1616.44C2795.65 1615.66 2792.51 1615.28 2789.6 1615.28V1615.28ZM3174.22 1735C3078.98 1735 2901.87 1705.57 2886.75 1702.35C2883.72 1701.71 2879.86 1701.31 2875.36 1700.85C2857.62 1699.04 2830.81 1696.31 2792.69 1674.27C2765.09 1658.29 2758.31 1636.39 2763.71 1622.81C2767.7 1612.78 2779.53 1603.86 2800.77 1608.79C2836.04 1617 2865.91 1622.95 2873.61 1612.62C2881.15 1602.52 2881.04 1589.2 2880.95 1579.48C2880.9 1571.45 2880.85 1565.65 2885.17 1563.22C2888.8 1561.18 2893.07 1563.32 2895.96 1565.1C2912.35 1575.24 2922.86 1590.38 2926.35 1608.93C2929.51 1625.52 2942.61 1638.01 2958.96 1640C3010.42 1646.22 3089.15 1646.08 3128.01 1639.71C3133.05 1633.57 3136.58 1584.07 3136.95 1540.89C3136.97 1539.82 3137.41 1538.8 3138.19 1538.08C3138.96 1537.34 3140 1536.95 3141.08 1537L3260.24 1542.41C3262.38 1542.49 3264.03 1544.25 3264 1546.36C3263.77 1563.06 3260.81 1709.95 3227.91 1727.89C3218.62 1732.96 3199.23 1735 3174.22 1735" fill="black"/>
<path d="M2849.8 1227.05C2849.8 1227.05 2880.62 1208.04 2880.32 1196.94L2889.11 1139.9C2889.2 1134.68 2885.99 1130 2881.13 1128.29L2844.71 1115.74C2840.06 1114.09 2837.07 1109.5 2837.38 1104.51L2840.22 1059.18L2825.94 1046.52C2824.81 1045.51 2824.69 1043.8 2825.64 1042.64L2848.2 1015.1C2855.56 1004.68 2862.97 979.757 2869.01 981.469C2869.01 981.469 2997.54 966.588 3003.81 1031.55C3004.73 1040.96 3001.89 1050.35 2996.45 1058.05L2985.07 1074.13C2973.64 1090.28 2967.62 1110.09 2969.65 1129.88C2970.07 1133.99 2975.41 1160.47 2978.98 1177.98C2981.02 1187.92 2986.52 1196.76 2994.51 1202.92C3004.55 1210.67 3016.78 1220.54 3014.79 1221.19C3014.79 1221.19 3000.55 1231.66 2978.08 1240.95C2938.18 1257.45 2892.79 1253.34 2855.91 1230.78L2849.8 1227.05" fill="white"/>
<path d="M2856.34 1226.14L2857.1 1226.62C2893.29 1248.56 2937.87 1252.26 2976.37 1236.47C2992.2 1229.98 3003.97 1222.84 3009.28 1219.37C3006.95 1217.19 3002.09 1213.03 2991.98 1205.31C2983.2 1198.59 2977.15 1188.93 2974.91 1178.12C2968.98 1149.33 2965.81 1133.07 2965.46 1129.78C2963.41 1109.76 2969.16 1089.08 2981.68 1071.53L2993.13 1055.5C2998.23 1048.34 3000.61 1039.91 2999.81 1031.75C2998.73 1020.59 2993.75 1011.58 2984.6 1004.24C2949.91 976.369 2869.47 985.256 2868.66 985.344C2868.39 985.361 2868.15 985.361 2867.88 985.344C2865.7 986.98 2861.66 995.585 2859.22 1000.81C2856.42 1006.81 2853.52 1013.01 2850.49 1017.23L2828.36 1044.07L2841.89 1055.96C2842.79 1056.77 2843.29 1057.95 2843.21 1059.15L2840.35 1104.34C2840.15 1107.56 2842.1 1110.53 2845.09 1111.59L2881.69 1124.08C2888.21 1126.37 2892.49 1132.53 2892.37 1139.44C2892.37 1139.62 2892.35 1139.79 2892.31 1139.97L2883.53 1196.53C2883.34 1206.68 2865.99 1219.69 2856.34 1226.14V1226.14ZM2926.88 1254C2901.24 1254 2875.56 1247.01 2852.99 1233.32L2846.84 1229.59C2845.68 1228.89 2844.95 1227.62 2844.95 1226.25C2844.95 1224.89 2845.66 1223.61 2846.83 1222.91C2860.8 1214.35 2875.78 1201.77 2875.64 1196.33C2875.62 1196.11 2875.64 1195.86 2875.67 1195.63L2884.47 1139.06C2884.44 1135.64 2882.29 1132.61 2879.09 1131.49L2842.49 1118.99C2836.15 1116.78 2832.04 1110.55 2832.47 1103.84L2835.21 1060.57L2822.29 1049.2C2819.56 1046.81 2819.22 1042.73 2821.54 1039.93L2844.22 1012.46C2846.65 1009.05 2849.41 1003.17 2852.07 997.504C2857.52 985.854 2861.9 976.563 2868.38 977.478C2876.73 976.581 2953.61 969.26 2989.56 998.137C3000.31 1006.76 3006.4 1017.81 3007.67 1030.99C3008.65 1041.02 3005.78 1051.35 2999.56 1060.04L2988.12 1076.07C2976.7 1092.07 2971.44 1110.86 2973.32 1128.97C2973.5 1130.68 2974.95 1139.14 2982.65 1176.54C2984.49 1185.51 2989.52 1193.52 2996.8 1199.08C3019.62 1216.55 3019.34 1218.17 3018.88 1220.86C3018.68 1221.89 3017.99 1222.91 3017.11 1223.56C3016.51 1224 3002.15 1234.4 2979.38 1243.74C2962.61 1250.6 2944.76 1254 2926.88 1254" fill="black"/>
<path d="M2864.05 881.512C2893.36 879.987 2856.3 910.388 2964.87 878.976C3008.12 866.471 2985.91 917.536 2997.14 914.308C3038.59 902.442 3037.16 902.814 3057.3 908.348C3070.66 912.002 3079.17 937.135 3076.51 955.847C3073.01 980.537 3045.48 1019.74 3020.84 1061.17C3008.08 1082.63 2985.47 1084.56 2958.16 1052.64C2955.25 1049.23 2970.11 1029.21 2962.35 1020.59C2942.18 998.149 2933.22 1032.04 2916.94 1021.58C2901.31 1011.52 2894.86 1005.03 2878.33 989.849C2858.34 971.456 2824.77 1000.06 2813.19 958.703C2807.17 937.117 2823.93 883.588 2864.05 881.512" fill="black"/>
<path d="M1904.48 3129.75C1904.48 3129.75 1913.46 3129.79 1922.07 3123.68C1948.69 3104.8 2004.03 3062.63 2041.83 3067.91C2105.15 3076.73 2112.64 3128.43 2112.64 3128.43C2112.64 3128.43 2166.04 3126.45 2164.98 3161.99C2164.17 3189.26 2148.63 3223.92 2105.46 3242.99C2046.61 3269 1987.61 3288.79 1922.49 3246.13C1909.86 3237.84 1894.85 3233.97 1879.82 3235.49C1843.23 3239.18 1297.99 3250.93 1297.99 3250.93C1173.27 3250.93 1058.84 3181.69 1000.92 3071.23L886 2851.96L1017.67 2484L1224.13 2963.74C1324.16 3100.3 1894.04 3132.12 1904.47 3129.75" fill="white"/>
<path d="M1886.2 3231.44C1899.68 3231.44 1913.12 3235.46 1924.68 3243.04C1988.44 3284.83 2045.85 3265.26 2103.92 3239.59C2155.51 3216.81 2160.73 3174.47 2161.1 3162.04C2161.32 3155 2159.18 3149.33 2154.58 3144.74C2141.42 3131.66 2113.13 3132.53 2112.83 3132.53H2112.69C2110.75 3132.53 2109.08 3131.1 2108.81 3129.16C2108.51 3127.18 2100.82 3080.23 2041.33 3071.94C2007.81 3067.29 1957.56 3103.28 1930.59 3122.63L1924.38 3127.06C1914.83 3133.82 1904.79 3133.76 1904.49 3133.85C1890.84 3134.61 1748.43 3126.81 1597.3 3102.88C1454.75 3080.32 1273.74 3038.29 1220.93 2966.18C1220.76 2965.93 1220.61 2965.66 1220.49 2965.4L1017.96 2494.69L890.224 2851.73L1004.36 3069.54C1061.79 3179.12 1174.29 3247.2 1297.97 3247.2C1303.33 3247.08 1843.44 3235.41 1879.46 3231.77C1881.7 3231.55 1883.94 3231.44 1886.2 3231.44H1886.2ZM2002.04 3275C1975.65 3275 1948.46 3268.03 1920.37 3249.62C1908.39 3241.76 1894.14 3238.22 1880.25 3239.61C1843.93 3243.27 1320.31 3254.58 1298.05 3255.07C1171.35 3255.07 1056.17 3185.37 997.386 3073.19L882.45 2853.87C881.939 2852.9 881.859 2851.75 882.232 2850.71L1013.91 2482.62C1014.46 2481.1 1015.88 2480.06 1017.49 2480.01C1019.1 2479.92 1020.59 2480.91 1021.23 2482.39L1227.54 2961.87C1324.52 3092.96 1881.8 3128.79 1903.83 3126.03C1904.11 3125.98 1904.22 3125.96 1904.52 3125.98C1904.75 3125.96 1912.51 3125.82 1919.83 3120.63L1926.01 3116.22C1955.84 3094.83 2005.77 3059.03 2042.43 3064.15C2098.32 3071.94 2112.77 3112.57 2115.86 3124.66C2124.42 3124.8 2147.33 3126.46 2160.11 3139.15C2166.28 3145.27 2169.26 3153.06 2168.98 3162.29C2168.58 3175.88 2162.91 3222.14 2107.11 3246.8C2073.57 3261.62 2038.59 3275 2002.05 3275" fill="black"/>
<path d="M1761 3031.96L1813.72 2940L1857 2967.98C1859.38 2969.53 1861.37 2971.6 1862.8 2974.06L1865.39 2978.49C1868.64 2984.08 1874.67 2987.53 1881.09 2987.46C1884.56 2987.4 1888 2988.41 1890.96 2990.32L2212.78 3198.05C2215.42 3199.75 2217.84 3201.81 2219.97 3204.15L2285 3276L2194.47 3255.61C2189.55 3254.5 2184.77 3252.76 2180.27 3250.41L1841.6 3073.95C1838.71 3072.44 1836.26 3070.17 1834.56 3067.41L1834.12 3066.71C1830.84 3061.39 1825 3058.12 1818.81 3058.15H1815.67C1812.82 3058.17 1809.98 3057.48 1807.4 3056.13L1761 3031.96" fill="white"/>
<path d="M1818.83 3053.55C1826.33 3053.55 1833.46 3057.56 1837.42 3064.01L1837.85 3064.7C1839.21 3066.89 1841.11 3068.67 1843.37 3069.85L2182.12 3246.91C2186.32 3249.1 2190.79 3250.74 2195.39 3251.78L2273.84 3269.49L2217.09 3206.62C2215.2 3204.52 2213.05 3202.68 2210.67 3201.15L1888.78 2992.73C1886.47 2991.23 1883.86 2990.36 1881.1 2990.49H1880.84C1873.09 2990.49 1865.86 2986.31 1861.95 2979.53L1859.35 2975.09C1858.24 2973.17 1856.67 2971.51 1854.8 2970.31L1815.02 2944.49L1766.39 3029.62L1809.16 3051.98C1811.18 3053.02 1813.33 3053.53 1815.6 3053.55H1818.74H1818.83V3053.55ZM2285.06 3280C2284.78 3280 2284.49 3279.96 2284.19 3279.91L2193.64 3259.45C2188.39 3258.27 2183.29 3256.39 2178.49 3253.88L1839.72 3076.81C1836.21 3074.98 1833.24 3072.21 1831.16 3068.83L1830.72 3068.14C1828.18 3063.99 1823.61 3061.42 1818.83 3061.42H1818.78H1815.64H1815.55C1812.09 3061.42 1808.63 3060.57 1805.53 3058.95L1759.12 3034.7C1758.16 3034.21 1757.46 3033.34 1757.16 3032.32C1756.86 3031.3 1756.98 3030.18 1757.53 3029.25L1810.26 2936.98C1810.79 2936.04 1811.69 2935.37 1812.75 2935.11C1813.79 2934.86 1814.9 2935.04 1815.81 2935.64L1859.09 2963.71C1861.98 2965.58 1864.43 2968.14 1866.16 2971.14L1868.75 2975.58C1871.28 2979.94 1875.88 2982.62 1880.84 2982.62H1881.28C1885.44 2982.62 1889.52 2983.82 1893.06 2986.13L2214.95 3194.54C2217.9 3196.46 2220.58 3198.73 2222.93 3201.34L2287.99 3273.44C2289.13 3274.71 2289.33 3276.58 2288.46 3278.06C2287.74 3279.28 2286.43 3280 2285.06 3280" fill="black"/>
<path d="M2196.04 3243C2195.42 3243 2194.79 3242.86 2194.19 3242.55C2192.21 3241.53 2191.43 3239.13 2192.45 3237.16L2212.35 3199.16C2213.38 3197.21 2215.81 3196.44 2217.81 3197.44C2219.79 3198.46 2220.57 3200.86 2219.55 3202.83L2199.65 3240.83C2198.93 3242.19 2197.51 3243 2196.04 3243Z" fill="black"/>
<path d="M1739.05 2894.32L1816 2940.4L1761.7 3032L1684.75 2985.92C1670.64 2977.49 1665.81 2959.51 1673.95 2945.79L1698.79 2903.9C1706.91 2890.17 1724.94 2885.89 1739.05 2894.32Z" fill="black"/>
<path d="M1723.52 2892.83C1721.43 2892.83 1719.33 2893.08 1717.25 2893.6C1710.84 2895.22 1705.48 2899.2 1702.15 2904.82L1677.3 2946.76C1670.25 2958.64 1674.48 2974.26 1686.74 2981.6L1760.33 3025.68L1810.67 2940.74L1736.99 2896.61C1732.82 2894.11 1728.18 2892.83 1723.52 2892.83V2892.83ZM1761.71 3035C1761 3035 1760.29 3034.81 1759.67 3034.44L1682.65 2988.31C1666.72 2978.76 1661.27 2958.34 1670.48 2942.79L1695.33 2900.85C1699.74 2893.41 1706.84 2888.14 1715.32 2886.02C1724.07 2883.83 1733.21 2885.2 1741.08 2889.9L1818.09 2936.03C1819.95 2937.14 1820.55 2939.52 1819.45 2941.37L1765.11 3033.07C1764.58 3033.96 1763.71 3034.63 1762.69 3034.88C1762.37 3034.96 1762.03 3035 1761.71 3035" fill="black"/>
<path d="M1836.93 3048C1836.24 3048 1835.55 3047.83 1834.91 3047.45C1833.04 3046.35 1832.44 3043.99 1833.57 3042.18L1859.68 2999.85C1860.81 2998.05 1863.23 2997.46 1865.09 2998.54C1866.96 2999.65 1867.56 3002.01 1866.43 3003.83L1840.32 3046.14C1839.57 3047.33 1838.27 3048 1836.93 3048" fill="black"/>
<path d="M1991.09 3084C1990.39 3084 1989.68 3083.81 1989.03 3083.4L1893.83 3023.25C1892 3022.11 1891.46 3019.68 1892.59 3017.85C1893.75 3016 1896.16 3015.45 1897.98 3016.6L1993.17 3076.75C1994.99 3077.91 1995.55 3080.32 1994.4 3082.15C1993.66 3083.35 1992.39 3084 1991.09 3084Z" fill="black"/>
<path d="M2191 3209C2190.29 3209 2189.55 3208.81 2188.91 3208.4L2150.89 3185.22C2149.01 3184.07 2148.44 3181.67 2149.6 3179.83C2150.76 3178.01 2153.23 3177.45 2155.09 3178.59L2193.11 3201.77C2194.99 3202.91 2195.56 3205.32 2194.4 3207.16C2193.63 3208.33 2192.34 3209 2191 3209Z" fill="black"/>
<path d="M1753.02 2999C1752.3 2999 1751.59 2998.8 1750.95 2998.41L1691.9 2962.33C1690.02 2961.18 1689.44 2958.75 1690.59 2956.89C1691.73 2955.02 1694.19 2954.44 1696.06 2955.59L1755.1 2991.68C1756.97 2992.81 1757.56 2995.24 1756.42 2997.1C1755.65 2998.33 1754.35 2999 1753.02 2999Z" fill="white"/>
<path d="M1904.17 3130.33C1904.17 3130.33 1982.67 3120.56 2032.65 3127.48C2071.58 3132.88 2186.8 3105.25 2162.72 3179.67C2157.54 3195.7 2154.81 3206.39 2140.54 3221.5C2132.75 3229.77 2111.39 3246.83 2099.28 3252.16C2040.43 3278.11 1987.11 3288.99 1921.97 3246.26C1909.42 3238.04 1894.48 3234.3 1879.55 3235.79C1870.86 3236.67 1901.4 3130.94 1904.17 3130.33Z" fill="white"/>
<path d="M2009.61 3278C1980.78 3278 1951.5 3269.58 1919.64 3248.72C1907.8 3240.99 1893.66 3237.49 1879.72 3238.88C1870.12 3239.84 1839.37 3240.9 1838.06 3240.95C1835.89 3241.06 1834.07 3239.33 1834 3237.17C1833.92 3235.01 1835.61 3233.18 1837.8 3233.11C1838.11 3233.11 1869.59 3232 1878.93 3231.07C1894.63 3229.5 1910.62 3233.44 1923.96 3242.16C1986.37 3283.01 2036.72 3274.59 2097.73 3247.74C2109.03 3242.76 2130.03 3226.2 2137.77 3218C2150.48 3204.57 2153.49 3195.15 2158.06 3180.89L2159.11 3177.7C2163.57 3163.9 2163.18 3153.79 2157.91 3146.77C2146.19 3131.21 2111.37 3132.2 2080.65 3133.04C2061.33 3133.59 2043.09 3134.1 2031.44 3130.49C1972.06 3112.12 1905.84 3133.11 1905.19 3133.32C1901.9 3134.08 1893.35 3133.81 1873.28 3132.46C1871.11 3132.32 1869.49 3130.44 1869.63 3128.28C1869.77 3126.11 1871.61 3124.48 1873.83 3124.64C1891.26 3125.81 1901.09 3126.2 1903.09 3125.76C1905.54 3124.95 1971.97 3103.87 2033.77 3123C2044.16 3126.22 2061.79 3125.73 2080.42 3125.22C2113.07 3124.28 2150.05 3123.26 2164.2 3142.08C2171.03 3151.15 2171.83 3163.95 2166.59 3180.11L2165.56 3183.28C2160.85 3198.01 2157.43 3208.65 2143.51 3223.39C2135.35 3232 2113.42 3249.41 2100.93 3254.91C2069.39 3268.79 2039.75 3278 2009.61 3278" fill="black"/>
<path d="M696.794 2227.1C696.794 2227.1 938.338 2259.12 1018.57 2356.96C1120.17 2480.86 1163.97 2664.96 1178.2 2744.53C1182.38 2767.9 1181.88 2791.86 1176.72 2815.03L1170.81 2841.61C1149.95 2935.41 1064.46 3000.43 968.575 2995.44H973.377C957.877 2994.65 935.27 2989.52 928.707 2975.44L903.33 2929.1L900.942 2945.79C881.865 3069.1 981.431 3238 981.431 3238L695.738 3199.42C548.954 3184.67 409.288 3126.79 297.215 3030.75C236.37 2978.61 189.329 2929.84 169.033 2870.59C134.571 2770 137.718 2741.33 128.054 2619.27C121.473 2536.17 145.837 2453.16 197.916 2388.1C274.45 2292.49 421.779 2192.18 696.8 2227.1" fill="white"/>
<path d="M589.624 2224.88C381.233 2224.88 263.822 2312.03 200.087 2391.49C148.874 2455.36 124.315 2536.48 130.939 2619.95C132.485 2639.45 133.704 2656.56 134.802 2671.95C140.561 2752.79 142.945 2786.27 171.797 2870.33C192.978 2932.05 245.485 2982.97 299.07 3028.81C409.905 3123.61 547.233 3181.62 696.212 3196.57L974.724 3234.1C955.998 3200.61 880.414 3056.8 897.555 2946.22L899.939 2929.56C900.177 2927.89 901.465 2926.57 903.131 2926.25C904.784 2925.97 906.471 2926.76 907.284 2928.24L932.713 2974.58C938.34 2986.61 958.574 2991.73 974.225 2992.56C974.599 2992.58 974.956 2992.65 975.293 2992.76C1067.3 2994.85 1147.87 2932.14 1168.01 2841.76L1173.94 2815.18C1179.01 2792.4 1179.5 2769.2 1175.38 2746.22C1165.05 2688.57 1123.05 2490.37 1016.27 2360.38C937.777 2264.84 698.795 2232.23 696.378 2231.91C658.401 2227.1 622.855 2224.88 589.629 2224.88H589.624ZM982.089 3243C981.915 3243 981.74 3242.98 981.564 3242.96L695.287 3204.38C544.837 3189.29 406.011 3130.64 293.946 3034.78C239.512 2988.21 186.137 2936.38 164.347 2872.87C135.162 2787.84 132.757 2754.08 126.946 2672.51C125.848 2657.13 124.629 2640.04 123.085 2620.57C116.304 2535.11 141.468 2452.01 193.942 2386.58C269.087 2292.88 417.419 2188.62 697.378 2224.1C697.385 2224.12 697.392 2224.12 697.399 2224.12C707.346 2225.42 941.892 2257.47 1022.34 2355.41C1130.33 2486.86 1172.7 2686.71 1183.11 2744.84C1187.41 2768.85 1186.91 2793.09 1181.6 2816.89L1175.68 2843.47C1154.28 2939.52 1067.42 3005.52 968.986 3000.39C968.326 3000.35 967.712 3000.16 967.179 2999.84C950.115 2997.85 931.848 2991.35 925.678 2978.13L906.042 2942.36L905.32 2947.38C886.63 3067.96 984.472 3235.38 985.463 3237.06C986.229 3238.36 986.185 3239.99 985.352 3241.24C984.618 3242.35 983.379 3243 982.074 3243" fill="black"/>
<path d="M921.047 2976C919.571 2976 918.155 2975.19 917.478 2973.78L849.384 2832.59C848.447 2830.63 849.283 2828.3 851.254 2827.37C853.222 2826.46 855.583 2827.27 856.522 2829.23L924.615 2970.43C925.553 2972.38 924.718 2974.7 922.744 2975.63C922.196 2975.88 921.62 2976 921.047 2976" fill="black"/>
<path d="M734.68 1742.71L752.425 1730.88C766.665 1721.38 772.662 1703.38 766.723 1687.34C748.899 1639.18 683.902 1555.26 447.472 1619C206.39 1683.99 249.025 2070.7 454.388 2153.34C659.759 2235.98 729.508 1811.14 729.508 1811.14L734.675 1742.71" fill="black"/>
<path d="M705.495 1751.15C708.247 1736.37 727.89 1733.12 735.32 1746.18C753.358 1777.88 761.958 1799.95 764.84 1813.41C768.714 1831.51 751.924 1849.63 760.964 1869.04C770.008 1888.43 784.215 1910.43 785.507 1945.34C786.768 1979.46 821.331 2135.86 699.987 2130.92C695.223 2130.72 691.237 2134.48 691.297 2139.24C691.592 2163.06 692.865 2228.53 698.144 2263.97C701.023 2283.29 689 2301.66 670.229 2306.97C621.652 2320.71 531.209 2340.05 463.525 2318.01C445.929 2312.28 436.695 2292.96 442.966 2275.55C450.966 2253.3 462.145 2190.78 454.827 2153.59C454.827 2153.59 495.355 2149.58 540.484 2128.85C609.853 2096.99 643.986 2019.4 624.818 1945.43C620.694 1929.52 611.777 1906.9 621.067 1882.94C645.034 1821.14 680.876 1883.26 680.876 1883.26L705.491 1751.15" fill="white"/>
<path d="M458.431 2157.31C464.487 2195.94 453.592 2255.03 445.639 2277.03C442.933 2284.52 443.376 2292.59 446.885 2299.73C450.341 2306.77 456.338 2311.97 463.771 2314.38C530.805 2336.1 621.014 2316.76 668.817 2303.3C685.748 2298.55 696.57 2281.97 693.991 2264.74C688.721 2229.52 687.403 2165.54 687.079 2139.66C687.039 2136.31 688.346 2133.17 690.762 2130.83C693.177 2128.49 696.487 2127.22 699.898 2127.36C727.019 2128.45 747.989 2121.26 762.29 2105.99C795.061 2070.99 787.402 2001.7 783.287 1964.46C782.429 1956.69 781.75 1950.54 781.584 1946.12C780.536 1917.91 770.83 1898.57 762.265 1881.48C760.533 1878.03 758.859 1874.7 757.332 1871.44C751.636 1859.26 755.047 1847.53 758.055 1837.17C760.314 1829.4 762.444 1822.06 760.936 1815.06C759.013 1806.11 752.665 1785.62 731.754 1749.03C728.627 1743.57 723.161 1742.36 719.08 1743.03C715.028 1743.71 710.288 1746.64 709.137 1752.79L684.446 1884.7C684.144 1886.32 682.864 1887.57 681.24 1887.86C679.637 1888.14 677.988 1887.36 677.159 1885.95C672.813 1878.47 658.797 1859.32 645.724 1860.29C637.643 1860.92 630.42 1869.25 624.252 1885.09C616.667 1904.56 621.983 1923.21 626.255 1938.21C626.937 1940.6 627.589 1942.89 628.153 1945.08C648.11 2021.73 611.619 2100.69 541.389 2132.8C503.95 2149.93 470.056 2155.72 458.425 2157.31H458.431ZM534.164 2332C508.976 2332 483.928 2329.18 461.334 2321.85C451.854 2318.77 444.207 2312.15 439.805 2303.18C435.349 2294.11 434.787 2283.89 438.223 2274.37C445.989 2252.88 457.17 2191.15 449.961 2154.68C449.748 2153.59 450.002 2152.46 450.665 2151.58C451.328 2150.69 452.335 2150.12 453.441 2150.02C453.843 2149.96 494.021 2145.82 538.107 2125.65C604.859 2095.12 639.524 2020 620.528 1947.05C619.979 1944.92 619.341 1942.7 618.675 1940.36C614.325 1925.08 608.367 1904.17 616.909 1882.24C624.272 1863.35 633.766 1853.33 645.132 1852.45C659.037 1851.39 671.581 1864.72 678.467 1873.85L701.395 1751.34C702.955 1742.99 709.386 1736.68 717.778 1735.29C726.178 1733.87 734.375 1737.74 738.609 1745.16C758.971 1780.78 766.185 1801.94 768.652 1813.41C770.573 1822.36 768.06 1830.99 765.632 1839.36C762.755 1849.26 760.036 1858.61 764.483 1868.11C765.98 1871.31 767.62 1874.59 769.32 1877.97C777.802 1894.89 788.356 1915.92 789.468 1945.83C789.622 1949.97 790.32 1956.28 791.129 1963.61C795.383 2002.09 803.299 2073.72 768.058 2111.35C752.119 2128.38 729.06 2136.43 699.583 2135.22C698.289 2135.16 697.144 2135.6 696.259 2136.47C695.412 2137.28 694.953 2138.39 694.967 2139.57C695.288 2165.27 696.596 2228.83 701.794 2263.58C704.954 2284.7 691.703 2305.03 670.966 2310.88C638.23 2320.09 585.912 2332 534.164 2332" fill="black"/>
<path d="M350.922 1697.28C350.922 1697.28 232.385 1640.62 146.183 1721.56C59.9821 1802.49 -23.5398 1980.54 105.773 2174.77C187.039 2296.85 218.298 2393.35 230.307 2448.19C234.33 2466.58 258.365 2471.16 268.778 2455.51C320.822 2377.29 415.767 2204.74 369.786 2042.59C307.824 1824.07 350.929 1697.28 350.929 1697.28" fill="black"/>
<path d="M785.671 1931C784.329 1931 783.022 1930.31 782.284 1929.07C781.162 1927.21 781.767 1924.78 783.636 1923.65C822.742 1900.15 797.41 1833.76 790.38 1817.37L679.742 1873.93C677.804 1874.9 675.42 1874.14 674.433 1872.19C673.442 1870.26 674.21 1867.87 676.153 1866.87L790.493 1808.44C791.436 1807.94 792.54 1807.87 793.544 1808.21C794.552 1808.54 795.379 1809.27 795.842 1810.23C797.6 1813.88 838.348 1899.99 787.699 1930.43C787.062 1930.81 786.363 1931 785.671 1931" fill="black"/>
<path d="M789.128 1976C788.066 1976 787.003 1975.61 786.197 1974.83C784.591 1973.27 784.604 1970.77 786.221 1969.23L802.528 1953.76C807.494 1949.05 808.14 1941.68 804.067 1936.24L792.85 1921.25C791.522 1919.48 791.949 1917 793.801 1915.74C795.652 1914.47 798.233 1914.88 799.56 1916.65L810.778 1931.64C817.221 1940.25 816.198 1951.9 808.339 1959.36L792.033 1974.85C791.23 1975.61 790.177 1976 789.128 1976Z" fill="black"/>
<path d="M664.265 1990C661.703 1990 658.976 1989.71 656.13 1988.98C642.523 1985.55 630.837 1973.72 621.395 1953.81C620.442 1951.8 621.273 1949.39 623.251 1948.41C625.231 1947.43 627.61 1948.28 628.567 1950.29C636.902 1967.86 646.783 1978.24 657.94 1981.11C669.926 1984.19 679.584 1977.24 679.678 1977.17C681.459 1975.86 683.941 1976.26 685.233 1978.06C686.524 1979.86 686.149 1982.38 684.384 1983.7C683.968 1984.01 675.8 1990 664.265 1990Z" fill="black"/>
<path d="M320 1685.72C320 1685.72 430.455 1719 385.24 1825C385.24 1825 436.268 1788.15 434.976 1730.64C433.684 1673.1 391.052 1654.36 362.632 1655.02C334.21 1655.67 320 1685.72 320 1685.72" fill="white"/>
<path d="M326.694 1684.31C339.722 1689.16 376.499 1705.5 393.031 1740.68C402.914 1761.68 403.688 1785.58 395.373 1811.88C409.884 1797.59 432.944 1768.87 432.094 1731.27C431.546 1707.05 423.046 1687.56 407.508 1674.89C395.542 1665.13 379.109 1659.58 363.706 1659.86C343.983 1660.3 331.471 1676.68 326.694 1684.31V1684.31ZM386.245 1829C385.374 1829 384.501 1828.7 383.783 1828.14C382.401 1827.03 381.924 1825.15 382.619 1823.53C395.488 1793.55 396.598 1766.79 385.915 1744.03C367.597 1705.01 320.277 1690.39 319.802 1690.23C318.703 1689.91 317.803 1689.12 317.34 1688.07C316.874 1687.03 316.888 1685.84 317.377 1684.82C318.001 1683.5 332.993 1652.7 363.525 1652.02C381.108 1651.63 398.934 1657.75 412.508 1668.82C424.621 1678.7 439.215 1697.52 439.974 1731.1C441.3 1789.72 390.705 1826.7 388.549 1828.24C387.862 1828.74 387.053 1829 386.245 1829" fill="black"/>
<path d="M110.571 2591.54C201.663 2646.55 386.925 2724.97 685.083 2706.78C707.008 2705.46 727.278 2718.43 735.016 2738.98L753.615 2813.37C786.319 2944.14 847.819 3065.97 933.629 3169.99L978.173 3223.98C985.029 3232.28 978.574 3244.76 967.825 3243.96L771.246 3229.53C433.817 3184.93 171.647 3015.84 87.5681 2707.8L65.1405 2625.63C57.8616 2598.96 86.8907 2577.24 110.566 2591.54" fill="black"/>
<path d="M1962.94 496H2609.39C2645.99 496 2674 525.736 2674 562.299V749.144C2674 785.689 2645.99 815.214 2609.39 815.214H2586.02V940L2500.96 815.214H1962.94C1926.34 815.214 1895 785.689 1895 749.144V562.299C1895 525.736 1926.34 496 1962.94 496Z" fill="white"/>
<path d="M1963.88 498.85C1929.18 498.85 1899.86 527.435 1899.86 561.247V748.154C1899.86 781.861 1929.18 810.322 1963.88 810.322H2501.99C2503.3 810.322 2504.51 810.973 2505.25 812.047L2583.14 926.331V814.247C2583.14 812.082 2584.9 810.322 2587.07 810.322H2610.45C2644.48 810.322 2671.12 783.022 2671.12 748.154V561.247C2671.12 526.255 2644.48 498.85 2610.45 498.85H1963.88ZM2587.07 943C2585.8 943 2584.57 942.366 2583.83 941.275L2499.92 818.172H1963.88C1924.92 818.172 1892 786.102 1892 748.154V561.247C1892 523.175 1924.92 491 1963.88 491H2610.45C2648.89 491 2679 521.855 2679 561.247V748.154C2679 787.423 2648.89 818.172 2610.45 818.172H2591.02V939.075C2591.02 940.8 2589.89 942.314 2588.23 942.824C2587.85 942.93 2587.46 943 2587.07 943Z" fill="black"/>
<path d="M2206.1 701C2205.56 701 2205.02 700.895 2204.5 700.651L2116.29 660.665C2114.91 660.037 2114 658.659 2114 657.123C2114 655.606 2114.89 654.227 2116.29 653.582L2204.48 613.352C2206.45 612.462 2208.76 613.317 2209.65 615.288C2210.54 617.242 2209.68 619.545 2207.73 620.435L2127.3 657.123L2207.71 693.568C2209.67 694.458 2210.54 696.761 2209.65 698.715C2209 700.163 2207.59 701 2206.1 701" fill="black"/>
<path d="M2333.94 701C2332.44 701 2331.01 700.163 2330.36 698.715C2329.46 696.761 2330.34 694.458 2332.31 693.568L2413.56 657.123L2332.3 620.435C2330.32 619.545 2329.46 617.242 2330.36 615.288C2331.26 613.317 2333.58 612.462 2335.58 613.352L2424.69 653.582C2426.1 654.227 2427 655.606 2427 657.123C2427 658.659 2426.1 660.037 2424.69 660.665L2335.56 700.651C2335.03 700.895 2334.48 701 2333.94 701" fill="black"/>
<path d="M2232.92 749C2232.46 749 2231.99 748.912 2231.51 748.736C2229.49 747.962 2228.49 745.691 2229.26 743.667L2298.41 562.53C2299.18 560.506 2301.45 559.485 2303.47 560.259C2305.5 561.033 2306.51 563.304 2305.74 565.328L2236.59 746.466C2235.99 748.032 2234.5 749 2232.92 749Z" fill="black"/>
<path d="M2104.94 2937C2103.42 2937 2101.99 2936.12 2101.34 2934.66C2100.46 2932.66 2101.36 2930.36 2103.33 2929.47C2306.4 2839.63 2490.59 2694.07 2635.97 2508.51C2637.29 2506.8 2639.78 2506.49 2641.49 2507.84C2643.2 2509.17 2643.5 2511.65 2642.16 2513.36C2495.98 2699.93 2310.78 2846.31 2106.53 2936.67C2106.02 2936.89 2105.47 2937 2104.94 2937Z" fill="black"/>
<path d="M2085.92 3041C2084.36 3041 2082.88 3040.04 2082.26 3038.49C2081.49 3036.45 2082.49 3034.17 2084.51 3033.37C2279.3 2957.38 2453.81 2836.89 2603.2 2675.26C2604.68 2673.66 2607.18 2673.58 2608.74 2675.04C2610.33 2676.53 2610.43 2679.03 2608.95 2680.64C2458.74 2843.15 2283.25 2964.32 2087.35 3040.73C2086.87 3040.91 2086.4 3041 2085.92 3041" fill="black"/>
<path d="M1226.92 187C1225.14 187 1223.52 185.794 1223.1 183.995C1222.61 181.898 1223.93 179.801 1226.05 179.311C1429.09 132.882 1630.25 129.772 1823.88 170.05C1826.01 170.504 1827.37 172.566 1826.91 174.663C1826.47 176.778 1824.39 178.123 1822.26 177.686C1629.74 137.635 1429.74 140.728 1227.81 186.913C1227.51 186.983 1227.21 187 1226.91 187" fill="black"/>
<path d="M1899.06 105C1898.75 105 1898.41 104.947 1898.08 104.877C1731.99 61.9211 1558.16 51.0678 1381.4 72.5985C1379.25 72.8448 1377.29 71.3319 1377.03 69.1859C1376.77 67.0399 1378.3 65.0697 1380.45 64.8058C1558.2 43.1519 1733.01 54.0755 1900.05 97.2777C1902.15 97.823 1903.42 99.9517 1902.87 102.063C1902.41 103.822 1900.81 105 1899.06 105" fill="black"/>
<path d="M1984 2945.5C1984 2930.85 1995.64 2919 2010 2919C2024.36 2919 2036 2930.85 2036 2945.5C2036 2960.13 2024.36 2972 2010 2972C1995.64 2972 1984 2960.13 1984 2945.5Z" fill="black"/>
<path d="M181.049 1409C180.041 1409 179.033 1408.66 178.247 1408C176.633 1406.61 176.579 1404.34 178.126 1402.91L193.027 1389.11C194.574 1387.67 197.14 1387.63 198.752 1389C200.368 1390.37 200.421 1392.64 198.875 1394.07L183.974 1407.89C183.179 1408.63 182.115 1409 181.049 1409" fill="black"/>
<path d="M130.874 1462C129.91 1462 128.944 1461.66 128.194 1460.95C126.648 1459.52 126.598 1457.14 128.076 1455.63L142.329 1441.16C143.811 1439.66 146.266 1439.61 147.807 1441.04C149.351 1442.48 149.403 1444.88 147.925 1446.38L133.672 1460.83C132.911 1461.61 131.893 1462 130.874 1462" fill="black"/>
<path d="M144.163 1410C143.192 1410 142.22 1409.64 141.472 1408.94L127.144 1395.34C125.635 1393.9 125.616 1391.56 127.102 1390.1C128.588 1388.65 131.017 1388.63 132.527 1390.07L146.855 1403.67C148.365 1405.09 148.384 1407.43 146.898 1408.89C146.146 1409.62 145.154 1410 144.163 1410Z" fill="black"/>
<path d="M195.989 1460C194.973 1460 193.956 1459.65 193.175 1458.94L178.197 1445.35C176.618 1443.91 176.6 1441.57 178.152 1440.11C179.707 1438.65 182.246 1438.63 183.825 1440.07L198.803 1453.66C200.382 1455.11 200.4 1457.44 198.848 1458.9C198.063 1459.64 197.025 1460 195.989 1460" fill="black"/>
<path d="M1964.54 104.121H1964.6H1964.54ZM1978.49 105C1974.29 105 1970.08 105.932 1966.14 107.762C1950.58 114.972 1943.51 134.2 1950.37 150.611C1953.71 158.629 1959.82 164.763 1967.58 167.866C1975.16 170.915 1983.42 170.682 1990.86 167.238C2006.42 160.028 2013.49 140.8 2006.63 124.389C2003.28 116.371 1997.16 110.255 1989.42 107.134C1985.87 105.717 1982.17 105 1978.49 105ZM1978.51 178C1973.87 178 1969.23 177.103 1964.77 175.327C1955.06 171.435 1947.42 163.777 1943.25 153.786C1934.72 133.375 1943.56 109.466 1962.96 100.462C1972.31 96.139 1982.69 95.8519 1992.23 99.6723C2001.92 103.582 2009.56 111.224 2013.75 121.214C2022.28 141.625 2013.44 165.552 1994.04 174.538C1989.07 176.852 1983.79 178 1978.51 178" fill="black"/>
</svg>
