<svg width="3334" height="3334" viewBox="0 0 3334 3334" fill="none" xmlns="http://www.w3.org/2000/svg">
<path d="M2628 1331.14L2573.63 1148.25L2079.43 1104L2047 1350.88C2047 1350.88 2553.48 1457.69 2628 1331.14Z" fill="white"/>
<path d="M2052.52 1347.29C2098.13 1356.53 2552.71 1445.26 2624.59 1330.14L2571.51 1151.18L2083.95 1107.4L2052.52 1347.29ZM2413.72 1397C2251.45 1397 2060.02 1357.16 2047.2 1354.44C2045.14 1354.01 2043.76 1352.05 2044.03 1349.98L2076.46 1102.51C2076.75 1100.38 2078.72 1098.83 2080.81 1099.01L2574.97 1143.39C2576.62 1143.53 2577.99 1144.66 2578.48 1146.25L2632.84 1329.56C2633.15 1330.64 2633 1331.79 2632.45 1332.75C2603.71 1381.68 2514.3 1397 2413.72 1397" fill="black"/>
<path d="M1901.25 653.484C2013.31 404.379 2305.94 293.321 2554.89 405.437C2803.83 517.571 2914.82 810.397 2802.75 1059.52C2690.71 1308.62 2398.06 1419.66 2149.11 1307.55C1900.17 1195.41 1789.2 902.589 1901.25 653.484V653.484ZM1678.41 652.803L1748.9 705.848C1740.39 739.849 1734.74 774.101 1732.09 808.298L1648.61 836.22C1607.32 850.028 1581.1 890.61 1585.47 933.972C1589.85 977.315 1623.66 1011.84 1666.87 1017.11L1754.47 1027.78C1764.01 1061.06 1776.3 1093.5 1791.21 1124.74L1732.72 1190.86C1703.86 1223.48 1701.44 1271.75 1726.89 1307.1C1752.34 1342.45 1798.86 1355.43 1838.92 1338.38L1919.88 1303.89C1944.54 1327.74 1971.46 1349.62 2000.39 1369.42L1982.77 1455.89C1974.06 1498.59 1996.09 1541.61 2035.8 1559.49C2075.49 1577.37 2122.29 1565.35 2148.45 1530.53L2201.46 1460C2235.44 1468.51 2269.67 1474.16 2303.85 1476.82L2331.73 1560.33C2345.53 1601.67 2386.1 1627.9 2429.42 1623.53C2472.73 1619.13 2507.25 1585.31 2512.52 1542.07L2523.18 1454.42C2556.45 1444.88 2588.86 1432.58 2620.08 1417.66L2686.14 1476.17C2718.74 1505.06 2766.98 1507.48 2802.31 1482.02C2837.65 1456.55 2850.62 1410 2833.58 1369.9L2799.12 1288.88C2822.93 1264.22 2844.81 1237.29 2864.6 1208.34L2951.02 1225.97C2993.69 1234.69 3036.68 1212.65 3054.55 1172.91C3072.41 1133.19 3060.39 1086.37 3025.59 1060.18L2955.1 1007.14C2963.63 973.137 2969.28 938.885 2971.93 904.688L3055.39 876.766C3096.68 862.958 3122.9 822.376 3118.53 779.014C3114.15 735.67 3080.35 701.15 3037.13 695.877L2949.55 685.207C2939.99 651.924 2927.7 619.483 2912.79 588.244L2971.28 522.126C3000.16 489.524 3002.58 441.249 2977.13 405.886C2951.68 370.54 2905.16 357.557 2865.08 374.611L2784.12 409.095C2759.46 385.263 2732.54 363.367 2703.63 343.569L2721.25 257.079C2729.94 214.399 2707.91 171.378 2668.22 153.499C2628.52 135.62 2581.73 147.653 2555.57 182.46L2502.56 253.008C2468.58 244.472 2434.35 238.823 2400.17 236.169L2372.27 152.656C2358.47 111.321 2317.9 85.085 2274.58 89.4786C2231.26 93.8542 2196.77 127.675 2191.5 170.929L2180.83 258.567C2147.57 268.126 2115.15 280.427 2083.93 295.33L2017.86 236.815C1985.26 207.925 1937.02 205.504 1901.69 230.969C1866.37 256.433 1853.38 302.987 1870.44 343.085L1904.9 424.105C1881.07 448.763 1859.19 475.716 1839.42 504.642L1752.98 487.013C1710.33 478.316 1667.34 500.338 1649.47 540.077C1631.6 579.798 1643.61 626.621 1678.41 652.803" fill="white"/>
<path d="M2352.21 366.323C2293.51 366.323 2234.71 376.996 2178.17 398.414C2055.74 444.815 1958.71 536.094 1904.96 655.417C1794 901.765 1904.28 1192.38 2150.79 1303.25C2397.3 1414.14 2688.11 1303.93 2799.05 1057.59C2910 811.238 2799.73 520.621 2553.22 409.75C2488.94 380.828 2420.65 366.323 2352.21 366.323ZM2351.26 1354.47C2282.99 1354.49 2213.67 1340.39 2147.48 1310.61C1896.92 1197.92 1784.83 902.499 1897.6 652.104L1901.27 653.77L1897.6 652.104C1952.24 530.811 2050.85 438.028 2175.31 390.875C2299.78 343.704 2435.15 347.805 2556.54 402.39C2807.1 515.105 2919.19 810.504 2806.42 1060.9C2723.43 1245.14 2541.43 1354.45 2351.26 1354.47V1354.47ZM2201.47 1455.13C2201.79 1455.13 2202.13 1455.19 2202.45 1455.26C2236.23 1463.73 2270.46 1469.35 2304.15 1471.97C2305.76 1472.09 2307.16 1473.17 2307.68 1474.71L2335.57 1558.11C2348.86 1597.86 2387.23 1622.68 2429.02 1618.48C2470.74 1614.25 2503.42 1582.27 2508.49 1540.65L2519.17 1453.13C2519.35 1451.52 2520.5 1450.19 2522.06 1449.74C2555.02 1440.29 2587.41 1428 2618.33 1413.26C2619.78 1412.57 2621.53 1412.8 2622.74 1413.87L2688.81 1472.33C2720.2 1500.12 2765.92 1502.39 2799.93 1477.89C2833.96 1453.4 2846.25 1409.36 2829.84 1370.8L2795.38 1289.87C2794.73 1288.39 2795.06 1286.67 2796.18 1285.51C2819.68 1261.22 2841.56 1234.34 2861.23 1205.6C2862.15 1204.26 2863.8 1203.61 2865.37 1203.93L2951.79 1221.54C2992.88 1229.9 3033.61 1209.05 3050.81 1170.84C3068.03 1132.62 3056.65 1088.33 3023.12 1063.14L2952.64 1010.16C2951.35 1009.2 2950.76 1007.53 2951.16 1005.96C2959.63 972.216 2965.24 938.011 2967.86 904.308C2967.98 902.696 2969.08 901.317 2970.6 900.798L3054.07 872.932C3093.84 859.644 3118.68 821.249 3114.46 779.54C3110.25 737.832 3078.23 705.185 3036.6 700.117L2949.03 689.443C2947.41 689.246 2946.09 688.118 2945.64 686.56C2936.18 653.644 2923.88 621.266 2909.12 590.356C2908.42 588.888 2908.67 587.151 2909.74 585.951L2968.24 519.922C2996.03 488.547 2998.32 442.881 2973.81 408.873C2949.29 374.865 2905.21 362.58 2866.63 378.984L2785.67 413.422C2784.18 414.048 2782.44 413.744 2781.28 412.616C2756.94 389.102 2730.04 367.236 2701.33 347.608C2699.99 346.695 2699.33 345.065 2699.67 343.472L2717.28 257.117C2725.65 216.035 2704.79 175.348 2666.55 158.138C2628.29 140.946 2583.97 152.317 2558.78 185.824L2505.77 256.258C2504.79 257.547 2503.14 258.138 2501.56 257.744C2467.82 249.273 2433.59 243.668 2399.85 241.036C2398.23 240.91 2396.83 239.836 2396.33 238.296L2368.45 154.896C2355.15 115.14 2316.7 90.3367 2275 94.5452C2233.26 98.7537 2200.57 130.756 2195.5 172.357L2184.84 259.875C2184.64 261.487 2183.51 262.83 2181.95 263.278C2149 272.715 2116.62 285.001 2085.69 299.757C2084.24 300.438 2082.48 300.205 2081.26 299.13L2015.21 240.677C1983.79 212.902 1938.1 210.591 1904.08 235.108C1870.04 259.607 1857.74 303.643 1874.18 342.2L1908.64 423.128C1909.26 424.614 1908.94 426.333 1907.83 427.497C1884.32 451.799 1862.42 478.698 1842.76 507.405C1841.85 508.748 1840.24 509.392 1838.62 509.07L1752.21 491.466C1711.14 483.103 1670.41 503.948 1653.18 542.165C1635.96 580.399 1647.36 624.687 1680.87 649.866L1751.35 702.839C1752.66 703.806 1753.25 705.471 1752.86 707.047C1744.38 740.804 1738.75 775.009 1736.14 808.695C1736.01 810.307 1734.94 811.686 1733.4 812.205L1649.94 840.071C1610.16 853.359 1585.32 891.754 1589.53 933.463C1593.76 975.171 1625.77 1007.84 1667.41 1012.89L1754.99 1023.56C1756.6 1023.76 1757.93 1024.88 1758.38 1026.44C1767.84 1059.39 1780.11 1091.75 1794.88 1122.65C1795.58 1124.12 1795.35 1125.85 1794.27 1127.07L1735.78 1193.08C1707.98 1224.46 1705.67 1270.12 1730.21 1304.13C1754.72 1338.14 1798.79 1350.42 1837.37 1334.02L1918.33 1299.58C1919.82 1298.94 1921.56 1299.26 1922.72 1300.39C1947.04 1323.88 1973.94 1345.75 2002.68 1365.39C2004.01 1366.33 2004.67 1367.96 2004.35 1369.53L1986.73 1455.89C1978.36 1496.97 1999.22 1537.66 2037.46 1554.87C2075.71 1572.06 2120.02 1560.69 2145.24 1527.2L2198.24 1456.75C2199.01 1455.72 2200.21 1455.13 2201.47 1455.13V1455.13ZM2419.81 1627C2378.27 1627 2341.34 1600.82 2327.91 1560.67L2300.87 1479.79C2268.44 1477.12 2235.57 1471.73 2203.08 1463.73L2151.69 1532.03C2124.2 1568.57 2075.87 1580.98 2034.15 1562.23C1992.45 1543.46 1969.69 1499.06 1978.83 1454.29L1995.91 1370.53C1968.38 1351.55 1942.54 1330.54 1919.05 1308.05L1840.54 1341.43C1798.45 1359.34 1750.38 1345.95 1723.65 1308.86C1696.91 1271.77 1699.42 1221.97 1729.74 1187.73L1786.46 1123.72C1772.39 1093.96 1760.6 1062.87 1751.37 1031.24L1666.43 1020.91C1621.02 1015.38 1586.11 979.756 1581.5 934.269C1576.92 888.799 1603.99 846.911 1647.38 832.424L1728.31 805.4C1730.96 773.004 1736.37 740.142 1744.38 707.674L1676.03 656.313C1639.48 628.841 1627.06 580.542 1645.82 538.87C1664.6 497.179 1708.99 474.435 1753.82 483.568L1837.62 500.635C1856.63 473.128 1877.65 447.322 1900.16 423.826L1866.76 345.37C1848.84 303.303 1862.24 255.273 1899.35 228.553C1936.47 201.834 1986.3 204.341 2020.57 234.642L2084.63 291.322C2114.41 277.264 2145.52 265.481 2177.15 256.258L2187.49 171.372C2193.03 126.01 2228.67 91.1067 2274.17 86.5043C2319.69 81.9197 2361.6 108.979 2376.1 152.335L2403.14 233.209C2435.6 235.878 2468.46 241.286 2500.91 249.273L2552.33 180.971C2579.82 144.438 2628.15 132.027 2669.85 150.795C2711.57 169.545 2734.31 213.94 2725.19 258.711L2708.11 342.469C2735.61 361.434 2761.44 382.44 2784.97 404.951L2863.47 371.57C2905.55 353.661 2953.63 367.057 2980.37 404.163C3007.09 441.251 3004.6 491.054 2974.27 525.277L2917.56 589.3C2931.62 619.081 2943.42 650.152 2952.64 681.761L3037.57 692.111C3082.98 697.627 3117.9 733.247 3122.49 778.734C3127.1 824.204 3100 866.091 3056.64 880.579L2975.71 907.603C2973.04 940.035 2967.63 972.879 2959.63 1005.33L3027.98 1056.69C3064.54 1084.16 3076.96 1132.46 3058.18 1174.13C3039.41 1215.82 2995.01 1238.57 2950.17 1229.43L2866.38 1212.37C2847.36 1239.89 2826.34 1265.72 2803.84 1289.18L2837.26 1367.63C2855.18 1409.7 2841.76 1457.73 2804.64 1484.45C2767.53 1511.17 2717.69 1508.66 2683.45 1478.36L2619.38 1421.68C2589.6 1435.74 2558.49 1447.52 2526.86 1456.75L2516.51 1541.63C2510.99 1586.99 2475.34 1621.9 2429.83 1626.5C2426.47 1626.84 2423.12 1627 2419.81 1627" fill="black"/>
<path d="M1713 987.289C1713 987.289 1657.56 989.319 1589.03 989.052C1574.6 988.999 1535.92 943.106 1511.1 950.889C1493.26 956.48 1526.99 986.577 1522.36 986.559C1478.43 986.381 1440.52 986.221 1426.78 986.149C1416.02 986.078 1412.41 997.012 1416.86 1006.72C1423.24 1020.61 1437.14 1041.66 1460.13 1049C1501.22 1062.14 1580.53 1056.21 1605.06 1051.49C1658.67 1041.18 1701.18 1040.39 1701.18 1040.39L1713 987.289Z" fill="white"/>
<path d="M1426.67 990.518C1423.86 990.518 1421.77 991.542 1420.46 993.553C1418.55 996.515 1418.58 1001.22 1420.55 1005.55C1424.9 1015.17 1437.61 1038.37 1461.23 1046C1501.51 1059.02 1580.43 1052.91 1603.64 1048.39C1648.49 1039.66 1686.05 1037.65 1696.94 1037.22L1706.92 991.847C1691.57 992.332 1644.09 993.66 1588.41 993.445C1581.47 993.427 1572.18 986.37 1560.44 977.446C1544.7 965.506 1525.1 950.62 1512 954.786C1510.01 955.415 1509.78 956.187 1509.69 956.438C1508.35 960.801 1517.22 972.275 1521.02 977.177C1525.73 983.246 1527.48 985.508 1526.03 988.489C1525.28 989.997 1523.74 990.931 1522 990.931H1521.99C1478.21 990.752 1440.43 990.59 1426.74 990.518H1426.67V990.518ZM1530.68 1062C1504.77 1062 1477.93 1059.9 1458.76 1053.7C1432.06 1045.07 1418.01 1019.5 1413.21 1008.9C1410.1 1002.01 1410.28 994.451 1413.7 989.154C1416.52 984.79 1421.3 982.384 1426.78 982.42C1439.75 982.51 1474.36 982.653 1515.18 982.815C1515.01 982.6 1514.83 982.366 1514.67 982.151C1508.22 973.819 1499.4 962.435 1502 954.032C1502.73 951.716 1504.61 948.645 1509.57 947.065C1526.64 941.66 1548.08 957.928 1565.29 971C1574.15 977.734 1584.19 985.347 1588.45 985.365C1655.86 985.616 1711.27 983.605 1711.82 983.587C1713.08 983.533 1714.26 984.072 1715.06 985.042C1715.87 985.993 1716.17 987.286 1715.9 988.507L1704.13 1042.03C1703.74 1043.86 1702.14 1045.18 1700.28 1045.21C1699.85 1045.21 1657.6 1046.13 1605.18 1056.33C1591.76 1058.95 1561.89 1062 1530.68 1062" fill="black"/>
<path d="M2086.11 512.063C2157.32 499.3 2310.2 489.517 2417.13 498.456C2449.91 501.185 2480.97 514.038 2506.09 535.274C2579.76 597.51 2747.13 745.515 2758.94 928.112C2759.6 938.541 2754.95 948.594 2746.79 955.092L2745.37 947.158C2705.09 979.236 2653.71 985.322 2614.85 951.574L2580.19 926.084C2580.19 926.084 2639.7 1139.45 2635.64 1173.73C2631.59 1208.02 2527.26 1266.36 2396.79 1218.5C2292.26 1180.16 2150.93 1176.28 2067.61 1197.86C2066.25 1198.22 2062.66 1235.86 2061.33 1236.24C2055.34 1237.87 2048.77 1236.71 2042.6 1234.34C2027.55 1228.54 2017.61 1214.03 2017.25 1197.91L2011.85 955.254L1835 921.111C1835 921.111 1920.38 541.772 2086.11 512.063" fill="black"/>
<path d="M2851 578.157C2849.01 588.121 2802.66 840.159 2781.64 890.91C2760.13 942.809 2740.36 1007.43 2646.69 971.698C2506.79 918.329 2754.3 583.479 2768.86 561.024C2769.35 560.254 2851.05 577.924 2851 578.157Z" fill="black"/>
<path d="M1598.48 1054.82L1598 995.552C1597.89 983.476 1607.79 973.723 1619.88 974.045C1668.03 975.259 1781.64 971.347 1825.52 910.882C1862.39 860.062 1873.58 799.042 1873.58 799.042C1873.58 799.042 2059.53 771.14 2091.61 921.599C2137.1 1134.99 1711.42 1088.6 1616.98 1075.77C1606.45 1074.34 1598.59 1065.43 1598.48 1054.82" fill="black"/>
<path d="M2786.15 569.242L2780.52 493.006C2780.52 493.006 2776.97 434.67 2788.36 423.786C2796.75 415.785 2808.64 434.652 2813.36 461.198C2814.14 465.601 2820.36 465.619 2821.11 461.215C2824.02 443.924 2824.61 431.34 2823.66 413.583C2822.64 394.466 2819.02 360.76 2836.94 360.009C2854.87 359.275 2896.36 406.03 2886.51 462.612C2876.65 519.194 2835.55 580 2835.55 580L2786.15 569.242Z" fill="white"/>
<path d="M2789.15 565.83L2833.24 575.391C2840.71 563.871 2873.86 510.582 2882.46 461.373C2888.54 426.596 2874.28 395.468 2858.91 377.962C2849.69 367.43 2840.96 362.919 2836.68 363.099C2834.45 363.189 2832.76 363.98 2831.34 365.543C2824.77 372.822 2826.05 393.814 2826.89 407.707L2827.18 412.631C2828.19 431.251 2827.49 443.994 2824.56 461.355C2823.89 465.255 2820.67 468.005 2816.73 468.023H2816.69C2812.72 468.023 2809.46 465.291 2808.76 461.355C2804.82 439.177 2796.67 426.776 2792.43 425.392C2791.87 425.212 2791.31 425.122 2790.36 426.021C2783 433.03 2782.37 470.431 2783.7 492.358L2789.15 565.83ZM2835.11 584C2834.83 584 2834.54 583.964 2834.25 583.892L2784.47 573.091C2782.71 572.713 2781.42 571.221 2781.29 569.442L2775.62 492.897C2774.99 482.742 2772.55 431.808 2784.78 420.162C2787.69 417.376 2791.31 416.496 2794.94 417.7C2805.41 421.115 2813.44 441.388 2816.75 459.935C2819.39 443.311 2820.06 431.017 2819.09 413.081L2818.82 408.192C2817.77 391.136 2816.48 369.911 2825.31 360.134C2828.21 356.917 2831.93 355.209 2836.36 355.011C2844.22 354.688 2855.05 361.266 2865.01 372.625C2881.62 391.55 2897.02 425.176 2890.45 462.775C2880.48 519.784 2840.17 579.687 2838.46 582.221C2837.71 583.335 2836.45 584 2835.11 584" fill="black"/>
<path d="M2148.05 355.664C2136.47 350.433 2130.47 359.158 2113.21 356.793C2094.85 354.285 2074.66 340.724 2067.1 320.911C2057.96 296.977 2071.14 274.154 2079.44 259.769C2087.72 245.455 2098.23 229.529 2116.47 222.65C2140.27 213.675 2150.22 227.451 2177.47 218.996C2199.62 212.135 2198 201.476 2217.72 195.886C2234.15 191.229 2281.52 193.88 2292.11 218.996C2298.85 234.94 2284.34 244.631 2291.57 268.242C2295.92 282.431 2302.75 284.168 2307.72 295.114C2320.08 322.272 2304.6 369.978 2275.1 385.957C2235.11 407.634 2168.04 364.711 2148.05 355.664" fill="black"/>
<path d="M2184.97 400.056L2175.67 476.344C2173.91 490.877 2163.43 502.844 2149.27 506.54L2110 516.767L2115.53 520.983C2183.78 572.925 2278.32 573.014 2346.66 521.199L2367 505.769L2318.23 494.878C2304.22 491.756 2293.45 480.525 2290.9 466.405L2270.64 354L2184.97 400.056" fill="white"/>
<path d="M2119.11 519.667C2185.56 569.523 2277.93 569.343 2344.19 519.057L2357.58 508.899L2317.33 499.908C2301.69 496.408 2289.76 483.971 2286.9 468.196L2267.63 361.235L2188.76 403.678L2179.72 477.923C2177.72 494.201 2166.19 507.409 2150.31 511.537L2119.11 519.667ZM2231.25 565C2189.57 565 2147.89 551.756 2113.13 525.284L2107.6 521.067C2106.37 520.134 2105.77 518.572 2106.08 517.065C2106.38 515.539 2107.53 514.337 2109.02 513.942L2148.28 503.713C2160.93 500.428 2170.12 489.912 2171.69 476.936L2180.99 400.61C2181.15 399.317 2181.92 398.169 2183.09 397.541L2268.71 351.49C2269.84 350.862 2271.2 350.844 2272.39 351.4C2273.54 351.975 2274.38 353.051 2274.6 354.325L2294.87 466.76C2297.13 479.323 2306.64 489.23 2319.09 492.011L2367.84 502.905C2369.37 503.246 2370.57 504.449 2370.91 505.992C2371.23 507.535 2370.66 509.132 2369.4 510.066L2349.08 525.5C2314.37 551.827 2272.8 565 2231.25 565" fill="black"/>
<path d="M2260.71 369.968C2260.71 369.968 2290.75 358.687 2279.47 333.969C2268.17 309.233 2249.8 327.499 2249.8 327.499C2249.8 327.499 2232.73 266.586 2196.85 290.609C2160.98 314.633 2127 323.365 2127 323.365C2127 323.365 2139.64 384.652 2162.32 425.427C2176.01 450.038 2193.34 467.165 2213.79 458.896C2269.73 436.281 2260.71 369.968 2260.71 369.968" fill="white"/>
<path d="M2131.78 325.669C2134.87 339.515 2146.88 389.497 2165.86 423.976C2181.07 451.596 2196.68 462.381 2212.28 456.007C2264.58 434.617 2257.03 373.058 2256.67 370.447C2256.44 368.575 2257.5 366.775 2259.25 366.108C2259.37 366.054 2272.53 360.923 2276.68 350.732C2278.63 345.961 2278.32 340.883 2275.76 335.212C2272.92 328.91 2269.48 325.345 2265.57 324.643C2259.18 323.473 2252.7 329.793 2252.63 329.865C2251.63 330.873 2250.14 331.269 2248.76 330.909C2247.39 330.549 2246.29 329.468 2245.9 328.082C2245.81 327.758 2236.7 295.727 2219.17 289.227C2212.92 286.923 2206.37 288.183 2199.11 293.098C2169.59 313.084 2141.67 322.662 2131.78 325.669ZM2203.26 466C2187.66 466 2172.77 453.252 2158.81 427.92C2136.11 386.634 2123.6 326.191 2123.08 323.635C2122.65 321.51 2123.94 319.44 2126.02 318.9C2126.36 318.809 2159.8 309.933 2194.62 286.364C2204.05 279.991 2213.26 278.388 2221.96 281.629C2238.44 287.733 2248.08 309.789 2251.84 320.304C2255.58 317.945 2261.06 315.569 2267.01 316.649C2273.67 317.873 2279.09 322.987 2283.1 331.863C2286.59 339.587 2286.93 346.987 2284.12 353.847C2279.95 364.02 2269.91 369.997 2264.94 372.428C2265.89 386.22 2266.42 442.611 2215.3 463.515C2211.24 465.172 2207.23 466 2203.26 466" fill="black"/>
<path d="M2012.17 959C2012.02 959 2011.87 959 2011.72 958.982C2009.43 958.749 2007.78 956.755 2008.02 954.528C2022.73 819.561 2043.51 705.464 2043.72 704.333C2044.13 702.142 2046.29 700.669 2048.55 701.064C2050.82 701.441 2052.34 703.542 2051.93 705.752C2051.73 706.883 2030.99 820.693 2016.31 955.39C2016.09 957.456 2014.28 959 2012.17 959" fill="white"/>
<path d="M662.104 2613.74C695.056 2493.24 819.322 2422.28 939.653 2455.29C1059.99 2488.27 1130.83 2612.72 1097.89 2733.24C1064.94 2853.76 940.67 2924.7 820.337 2891.71C699.996 2858.71 629.158 2734.26 662.104 2613.74V2613.74ZM561.446 2629.25L597.029 2648.21C595.586 2664.19 595.462 2680.07 596.687 2695.7L560.98 2714.24C543.314 2723.42 534.35 2743.62 539.396 2762.89C544.44 2782.18 562.147 2795.38 582.035 2794.69L622.338 2793.3C629.006 2807.66 636.85 2821.44 645.795 2834.51L624.069 2868.53C613.347 2885.31 615.67 2907.31 629.665 2921.47C643.658 2935.63 665.584 2938.22 682.465 2927.66L716.581 2906.32C729.398 2915.36 743.105 2923.34 757.561 2930.22L755.732 2970.56C754.828 2990.45 767.816 3008.33 787.009 3013.6C806.201 3018.87 826.475 3010.1 835.824 2992.52L854.765 2956.88C870.709 2958.33 886.562 2958.46 902.184 2957.22L920.691 2992.98C929.847 3010.68 950.023 3019.66 969.272 3014.6C988.52 3009.55 1001.7 2991.82 1001.02 2971.9L999.629 2931.53C1013.97 2924.86 1027.73 2916.99 1040.78 2908.04L1074.75 2929.81C1091.51 2940.55 1113.47 2938.22 1127.61 2924.2C1141.76 2910.18 1144.33 2888.22 1133.79 2871.31L1112.49 2837.14C1121.5 2824.31 1129.47 2810.59 1136.36 2796.11L1176.62 2797.94C1196.5 2798.85 1214.35 2785.84 1219.61 2766.62C1224.85 2747.4 1216.12 2727.09 1198.55 2717.73L1162.97 2698.77C1164.41 2682.8 1164.53 2666.93 1163.31 2651.28L1199.02 2632.74C1216.69 2623.56 1225.64 2603.36 1220.61 2584.09C1215.56 2564.82 1197.85 2551.61 1177.96 2552.29L1137.66 2553.69C1130.99 2539.33 1123.15 2525.54 1114.2 2512.49L1135.93 2478.47C1146.65 2461.67 1144.33 2439.69 1130.33 2425.53C1116.34 2411.35 1094.41 2408.78 1077.53 2419.33L1043.42 2440.66C1030.6 2431.64 1016.89 2423.66 1002.44 2416.76L1004.27 2376.44C1005.17 2356.53 992.181 2338.65 972.988 2333.38C953.797 2328.13 933.524 2336.88 924.173 2354.48L905.236 2390.1C889.29 2388.67 873.435 2388.54 857.815 2389.76L839.306 2354.02C830.15 2336.32 809.974 2327.34 790.726 2332.4C771.479 2337.45 758.293 2355.18 758.979 2375.1L760.37 2415.45C746.026 2422.14 732.266 2429.99 719.223 2438.96L685.25 2417.19C668.486 2406.45 646.533 2408.78 632.386 2422.79C618.239 2436.8 615.674 2458.76 626.21 2475.67L647.506 2509.84C638.495 2522.67 630.526 2536.41 623.643 2550.87L583.376 2549.04C563.499 2548.15 545.647 2561.14 540.391 2580.36C535.137 2599.6 543.88 2619.89 561.446 2629.25" fill="white"/>
<path d="M662.324 2614.76H662.364H662.324ZM880.151 2452.23C842.065 2452.23 804.452 2462.12 770.469 2481.5C718.913 2510.89 681.892 2558.59 666.219 2615.83C650.547 2673.07 658.102 2732.98 687.493 2784.53C716.884 2836.08 764.592 2873.11 821.829 2888.78C841.388 2894.14 861.073 2896.7 880.44 2896.7C978.065 2896.7 1067.78 2831.78 1094.79 2733.18C1127.14 2615.03 1057.33 2492.57 939.179 2460.22C919.671 2454.88 899.848 2452.23 880.155 2452.23H880.151ZM880.438 2904.76C860.36 2904.76 839.972 2902.13 819.696 2896.57C760.38 2880.33 710.937 2841.96 680.481 2788.53C650.022 2735.1 642.193 2673.01 658.435 2613.7C674.674 2554.37 713.043 2504.94 766.472 2474.49C819.899 2444.02 881.988 2436.19 941.307 2452.42C1063.75 2485.96 1136.1 2612.86 1102.57 2735.31C1074.59 2837.48 981.601 2904.76 880.443 2904.76H880.438ZM902.719 2954.14C904.216 2954.14 905.601 2954.97 906.298 2956.31L924.83 2992.07C933.191 3008.2 951.292 3016.25 968.868 3011.64C986.437 3007.04 998.27 2991.14 997.643 2972.98L996.252 2932.64C996.196 2931.02 997.116 2929.52 998.586 2928.84C1012.71 2922.28 1026.37 2914.48 1039.2 2905.68C1040.54 2904.76 1042.29 2904.73 1043.66 2905.61L1077.68 2927.37C1092.98 2937.15 1112.69 2935.06 1125.6 2922.29C1138.51 2909.51 1140.81 2889.83 1131.2 2874.44L1109.87 2840.28C1109.01 2838.9 1109.06 2837.14 1109.99 2835.81C1118.82 2823.25 1126.74 2809.64 1133.54 2795.36C1134.24 2793.89 1135.72 2792.99 1137.37 2793.06L1177.69 2794.89C1195.77 2795.72 1211.86 2784.07 1216.66 2766.54C1221.45 2749.03 1213.61 2730.83 1197.57 2722.3L1161.94 2703.34C1160.51 2702.57 1159.67 2701.03 1159.82 2699.41C1161.24 2683.66 1161.36 2667.9 1160.16 2652.6C1160.03 2650.98 1160.88 2649.46 1162.32 2648.71L1198.08 2630.17C1214.2 2621.82 1222.25 2603.7 1217.65 2586.14C1213.04 2568.57 1197.03 2556.69 1178.99 2557.37L1138.64 2558.75C1136.98 2558.78 1135.52 2557.89 1134.84 2556.42C1128.28 2542.31 1120.49 2528.65 1111.68 2515.8C1110.76 2514.46 1110.74 2512.7 1111.61 2511.34L1133.36 2477.32C1143.15 2462.03 1141.06 2442.32 1128.29 2429.41C1115.51 2416.49 1095.83 2414.19 1080.43 2423.82L1046.27 2445.13C1044.89 2445.99 1043.14 2445.95 1041.81 2445.02C1029.24 2436.19 1015.63 2428.26 1001.37 2421.45C999.899 2420.75 998.996 2419.25 999.069 2417.63L1000.9 2377.31C1001.72 2359.17 990.065 2343.14 972.544 2338.36C955.04 2333.55 936.831 2341.41 928.298 2357.43L909.335 2393.06C908.569 2394.5 907.021 2395.34 905.409 2395.19C889.674 2393.76 873.928 2393.65 858.605 2394.85C856.992 2394.96 855.454 2394.12 854.707 2392.68L836.175 2356.93C827.814 2340.81 809.72 2332.77 792.137 2337.37C774.568 2341.96 762.735 2357.86 763.36 2376.02L764.751 2416.38C764.807 2417.99 763.889 2419.48 762.418 2420.16C748.304 2426.72 734.639 2434.52 721.801 2443.32C720.465 2444.23 718.707 2444.27 717.345 2443.39L683.326 2421.65C668.022 2411.86 648.322 2413.94 635.408 2426.72C622.494 2439.48 620.193 2459.16 629.809 2474.58L651.135 2508.74C651.993 2510.1 651.947 2511.86 651.013 2513.2C642.184 2525.75 634.258 2539.35 627.459 2553.64C626.758 2555.11 625.244 2556.01 623.633 2555.93L583.315 2554.11C565.119 2553.3 549.145 2564.95 544.349 2582.46C539.553 2599.97 547.401 2618.17 563.434 2626.71L599.061 2645.68C600.495 2646.43 601.332 2647.99 601.185 2649.6C599.764 2665.34 599.649 2681.1 600.848 2696.4C600.975 2698.02 600.122 2699.56 598.681 2700.29L562.929 2718.82C546.804 2727.19 538.76 2745.3 543.363 2762.86C547.969 2780.43 563.853 2792.29 582.014 2791.65L622.369 2790.25C624.036 2790.2 625.486 2791.11 626.169 2792.58C632.736 2806.7 640.529 2820.38 649.326 2833.21C650.242 2834.54 650.269 2836.3 649.396 2837.66L627.64 2871.68C617.856 2886.98 619.94 2906.68 632.713 2919.61C645.491 2932.51 665.167 2934.8 680.578 2925.2L714.733 2903.87C716.113 2903.01 717.865 2903.06 719.195 2903.99C731.756 2912.83 745.365 2920.75 759.641 2927.55C761.107 2928.24 762.013 2929.75 761.939 2931.36L760.105 2971.69C759.281 2989.83 770.94 3005.85 788.459 3010.66C805.97 3015.44 824.17 3007.61 832.705 2991.57L851.672 2955.94C852.436 2954.5 853.99 2953.66 855.597 2953.82C871.352 2955.24 887.097 2955.36 902.4 2954.16C902.507 2954.14 902.611 2954.14 902.719 2954.14V2954.14ZM958.92 3021C941.836 3021 925.867 3011.61 917.664 2995.78L900.357 2962.41C886.317 2963.36 871.939 2963.25 857.544 2962.08L839.832 2995.37C829.513 3014.74 807.51 3024.24 786.328 3018.44C765.144 3012.65 751.045 2993.27 752.042 2971.33L753.753 2933.68C740.775 2927.35 728.348 2920.11 716.752 2912.13L684.851 2932.04C666.217 2943.68 642.42 2940.88 626.974 2925.27C611.529 2909.66 609.007 2885.84 620.842 2867.32L641.162 2835.56C633.227 2823.75 626.117 2811.27 619.99 2798.42L582.293 2799.71C560.299 2800.47 541.124 2786.16 535.556 2764.92C529.987 2743.67 539.716 2721.76 559.215 2711.66L592.605 2694.36C591.642 2680.31 591.748 2665.93 592.917 2651.54L559.643 2633.83C540.253 2623.51 530.761 2601.51 536.565 2580.33C542.365 2559.14 561.694 2545.04 583.681 2546.04L621.335 2547.76C627.662 2534.77 634.894 2522.35 642.879 2510.75L622.962 2478.84C611.331 2460.22 614.115 2436.42 629.73 2420.97C645.347 2405.54 669.177 2403.01 687.674 2414.84L719.453 2435.16C731.268 2427.22 743.739 2420.11 756.592 2414L755.291 2376.3C754.536 2354.35 768.845 2335.13 790.09 2329.56C811.328 2323.98 833.232 2333.72 843.341 2353.22L860.648 2386.61C874.699 2385.64 889.075 2385.75 903.461 2386.91L921.171 2353.65C931.49 2334.25 953.495 2324.77 974.677 2330.56C995.859 2336.37 1009.96 2355.74 1008.97 2377.68L1007.25 2415.34C1020.23 2421.67 1032.65 2428.89 1044.25 2436.88L1076.15 2416.95C1094.79 2405.34 1118.59 2408.12 1134.03 2423.73C1149.48 2439.34 1152 2463.18 1140.16 2481.68L1119.84 2513.45C1127.79 2525.28 1134.9 2537.74 1141.02 2550.59L1178.71 2549.28C1200.68 2548.53 1219.89 2562.85 1225.44 2584.09C1231.02 2605.33 1221.28 2627.23 1201.79 2637.34L1168.4 2654.66C1169.36 2668.69 1169.26 2683.07 1168.09 2697.46L1201.36 2715.17C1220.75 2725.49 1230.25 2747.48 1224.44 2768.67C1218.63 2789.86 1199.31 2803.94 1177.32 2802.96L1139.67 2801.26C1133.34 2814.23 1126.11 2826.65 1118.12 2838.25L1138.04 2870.15C1149.67 2888.78 1146.89 2912.58 1131.27 2928.03C1115.66 2943.48 1091.83 2946.01 1073.33 2934.16L1041.55 2913.83C1029.74 2921.79 1017.27 2928.89 1004.41 2935.02L1005.71 2972.71C1006.47 2994.67 992.162 3013.88 970.915 3019.46C966.914 3020.5 962.887 3021 958.92 3021" fill="black"/>
<path d="M1074 2675C1074 2566.19 986.252 2478 878 2478C769.753 2478 682 2566.19 682 2675C682 2783.79 769.75 2872 878 2872C986.252 2872 1074 2783.79 1074 2675Z" fill="white"/>
<path d="M1016 2817.89C980.759 2851.41 933.279 2872 881 2872C828.721 2872 781.241 2851.41 746 2817.89C786.772 2805.16 832.571 2798 881 2798C929.429 2798 975.232 2805.16 1016 2817.89Z" fill="black"/>
<path d="M817.428 2559.8C826.373 2554.07 836.799 2551 847.445 2551H910.123C924.114 2551 937.59 2556.27 947.846 2565.75L951.282 2568.93C967.571 2583.98 973.251 2607.27 965.712 2628.08L945.107 2685L812.968 2684.19L794.318 2621.97C787.266 2598.43 796.684 2573.1 817.428 2559.8" fill="black"/>
<path d="M849.869 2584.39C850.152 2584.25 850.721 2584 850.721 2584L945 2645.28V2682.24C945 2703.38 935.121 2722.19 919.757 2734.39V2790.69C919.757 2812.94 901.726 2831 879.48 2831C857.233 2831 839.198 2812.94 839.198 2790.69V2735.82C822.733 2723.71 812 2704.26 812 2682.24V2643.04C812 2616.94 827.543 2594.46 849.869 2584.39" fill="white"/>
<path d="M878.501 2753C839.627 2753 808 2721.35 808 2682.47V2643.31C808 2605.65 838.628 2575 876.275 2575H944.97C947.196 2575 949 2576.81 949 2579.05V2682.47C949 2710.06 932.782 2735.26 907.681 2746.68C905.65 2747.61 903.263 2746.72 902.345 2744.69C901.42 2742.65 902.317 2740.27 904.341 2739.34C926.576 2729.23 940.94 2706.91 940.94 2682.47V2583.07H876.275C843.071 2583.07 816.06 2610.08 816.06 2643.31V2682.47C816.06 2716.91 844.072 2744.93 878.501 2744.93C880.727 2744.93 882.531 2746.73 882.531 2748.95C882.531 2751.19 880.727 2753 878.501 2753" fill="black"/>
<path d="M880.464 2875C827.165 2875 776.974 2854.42 738.989 2816.94C697.522 2776.02 675.797 2719.16 679.383 2660.96C679.519 2658.74 681.383 2657.02 683.655 2657.18C685.878 2657.32 687.568 2659.24 687.43 2661.46C683.988 2717.33 704.843 2771.92 744.65 2811.19C781.113 2847.17 829.303 2866.94 880.466 2866.94H881.821C933.49 2866.58 981.928 2846.13 1018.22 2809.33C1054.5 2772.53 1074.29 2723.82 1073.94 2672.11C1073.59 2620.43 1053.14 2571.99 1016.35 2535.69C944.018 2464.31 827.942 2461.24 752.087 2528.72C750.42 2530.19 747.875 2530.05 746.396 2528.38C744.915 2526.72 745.066 2524.17 746.729 2522.69C825.738 2452.4 946.652 2455.58 1022.01 2529.94C1060.33 2567.76 1081.63 2618.23 1082 2672.06C1082.36 2725.91 1061.75 2776.66 1023.94 2814.99C986.146 2853.33 935.686 2874.64 881.864 2875H880.454" fill="black"/>
<path d="M880 2835C855.737 2835 836 2815.23 836 2790.95V2737.85C836 2735.64 837.792 2733.85 840.003 2733.85C842.213 2733.85 844.006 2735.64 844.006 2737.85V2790.95C844.006 2810.82 860.153 2826.97 880 2826.97C899.847 2826.97 915.994 2810.82 915.994 2790.95V2735.02C915.994 2732.8 917.785 2731 919.997 2731C922.206 2731 924 2732.8 924 2735.02V2790.95C924 2815.23 904.261 2835 880 2835Z" fill="black"/>
<path d="M1544.87 2516.06C1544.89 2610.87 1572.7 2703.65 1626.35 2784.43C1774.91 3008.1 2077.77 3069.21 2301.42 2920.65C2442.42 2826.99 2518.81 2672.05 2518.83 2514.26C2518.83 2421.74 2492.56 2328.25 2437.65 2245.58C2365.68 2137.22 2255.83 2063.38 2128.32 2037.65C2000.82 2011.93 1870.93 2037.38 1762.57 2109.35C1654.22 2181.32 1580.37 2291.17 1554.65 2418.68C1548.09 2451.11 1544.87 2483.71 1544.87 2516.06V2516.06ZM2032.75 3009.89C1872.35 3009.89 1714.84 2932.24 1619.63 2788.9C1565.08 2706.77 1536.8 2612.47 1536.8 2516.07C1536.8 2483.19 1540.08 2450.05 1546.73 2417.08C1572.9 2287.46 1647.96 2175.8 1758.1 2102.63C1868.26 2029.48 2000.3 2003.58 2129.92 2029.75C2259.54 2055.89 2371.2 2130.96 2444.37 2241.12C2500.19 2325.15 2526.89 2420.2 2526.89 2514.25C2526.89 2674.65 2449.23 2832.17 2305.9 2927.37C2221.85 2983.19 2126.78 3009.89 2032.75 3009.89V3009.89ZM1859.84 3103.9C1860.21 3103.9 1860.59 3103.96 1860.97 3104.06C1893.65 3113.54 1927.38 3120.34 1961.21 3124.3C1962.83 3124.48 1964.17 3125.62 1964.62 3127.16L1989.22 3211.28C2000.93 3251.26 2038.06 3277.36 2079.69 3274.76C2121.25 3272.14 2154.9 3241.6 2161.49 3200.48L2175.35 3114.17C2175.62 3112.58 2176.8 3111.27 2178.38 3110.89C2210.99 3102.88 2243.62 3091.84 2275.36 3078.08C2276.85 3077.43 2278.59 3077.74 2279.75 3078.87L2343.1 3139.38C2373.21 3168.17 2418.48 3172.16 2453.17 3149.12C2487.86 3126.07 2501.73 3082.81 2486.88 3043.89L2455.66 2962.03C2455.07 2960.52 2455.46 2958.8 2456.65 2957.67C2481.65 2933.75 2504.48 2907.96 2524.49 2881.01C2525.46 2879.7 2527.13 2879.11 2528.69 2879.48L2613.61 2900.18C2654.08 2910.04 2695.28 2890.88 2713.81 2853.57C2732.32 2816.28 2722.69 2771.87 2690.38 2745.58L2622.39 2690.3C2621.12 2689.28 2620.6 2687.59 2621.05 2686.03C2630.53 2653.34 2637.34 2619.6 2641.28 2585.78C2641.48 2584.17 2642.61 2582.83 2644.17 2582.38L2728.29 2557.77C2768.25 2546.07 2794.36 2508.89 2791.74 2467.31C2789.13 2425.75 2758.59 2392.1 2717.46 2385.5L2631.17 2371.65C2629.56 2371.38 2628.27 2370.2 2627.89 2368.62C2619.87 2335.99 2608.83 2303.36 2595.06 2271.64C2594.42 2270.15 2594.74 2268.41 2595.85 2267.25L2656.39 2203.9C2685.15 2173.79 2689.16 2128.52 2666.12 2093.83C2643.06 2059.14 2599.8 2045.27 2560.87 2060.12L2479.03 2091.34C2477.52 2091.91 2475.8 2091.54 2474.67 2090.35C2450.75 2065.37 2424.96 2042.54 2397.99 2022.51C2396.7 2021.54 2396.09 2019.89 2396.49 2018.31L2417.18 1933.39C2427.04 1892.92 2407.88 1851.72 2370.57 1833.19C2333.26 1814.68 2288.86 1824.31 2262.58 1856.62L2207.28 1924.61C2206.26 1925.88 2204.58 1926.4 2203.02 1925.95C2170.31 1916.47 2136.59 1909.66 2102.77 1905.72C2101.17 1905.52 2099.83 1904.39 2099.36 1902.85L2074.76 1818.71C2063.08 1778.75 2025.93 1752.64 1984.31 1755.26C1942.74 1757.86 1909.1 1788.41 1902.49 1829.54L1888.64 1915.83C1888.39 1917.44 1887.2 1918.73 1885.63 1919.11C1852.97 1927.13 1820.34 1938.17 1788.62 1951.94C1787.15 1952.56 1785.41 1952.26 1784.23 1951.15L1720.9 1890.61C1690.78 1861.85 1645.53 1857.85 1610.83 1880.88C1576.14 1903.93 1562.27 1947.2 1577.11 1986.11L1608.34 2067.97C1608.92 2069.49 1608.52 2071.2 1607.36 2072.33C1582.38 2096.23 1559.54 2122.02 1539.51 2149.01C1538.54 2150.3 1536.87 2150.91 1535.3 2150.51L1450.37 2129.81C1409.91 2119.96 1368.71 2139.13 1350.2 2176.43C1331.67 2213.74 1341.29 2258.14 1373.6 2284.42L1441.61 2339.72C1442.86 2340.74 1443.38 2342.42 1442.94 2343.98C1433.46 2376.69 1426.65 2410.41 1422.7 2444.23C1422.52 2445.83 1421.38 2447.17 1419.84 2447.64L1335.72 2472.24C1295.74 2483.92 1269.64 2521.13 1272.24 2562.68C1274.86 2604.26 1305.4 2637.9 1346.52 2644.51L1432.83 2658.36C1434.42 2658.61 1435.73 2659.81 1436.11 2661.37C1444.12 2694.01 1455.16 2726.64 1468.92 2758.38C1469.57 2759.86 1469.26 2761.58 1468.13 2762.77L1407.61 2826.1C1378.83 2856.22 1374.84 2901.47 1397.88 2936.17C1420.93 2970.88 1464.21 2984.73 1503.11 2969.89L1584.97 2938.66C1586.48 2938.08 1588.2 2938.48 1589.33 2939.64C1613.25 2964.64 1639.04 2987.47 1665.99 3007.49C1667.3 3008.46 1667.89 3010.12 1667.52 3011.7L1646.82 3096.63C1636.96 3137.09 1656.12 3178.27 1693.43 3196.8C1730.72 3215.33 1775.13 3205.71 1801.42 3173.38L1856.72 3105.39C1857.49 3104.44 1858.66 3103.9 1859.84 3103.9V3103.9ZM2073.97 3283C2031.16 3283 1993.65 3255.17 1981.48 3213.56L1957.63 3132C1925.12 3128.06 1892.74 3121.52 1861.29 3112.56L1807.67 3178.49C1779 3213.74 1730.54 3224.26 1689.83 3204.04C1649.13 3183.83 1628.22 3138.87 1638.97 3094.71L1659.04 3012.38C1633.2 2992.99 1608.43 2971.08 1585.35 2947.15L1506 2977.44C1463.53 2993.64 1416.31 2978.49 1391.16 2940.65C1366.02 2902.78 1370.38 2853.39 1401.77 2820.53L1460.46 2759.13C1447.36 2728.59 1436.77 2697.25 1428.92 2665.91L1345.25 2652.47C1300.38 2645.26 1267.05 2608.56 1264.2 2563.2C1261.35 2517.83 1289.82 2477.24 1333.44 2464.48L1415 2440.63C1418.94 2408.16 1425.46 2375.77 1434.44 2344.31L1368.51 2290.69C1333.26 2262 1322.74 2213.54 1342.96 2172.84C1363.17 2132.13 1408.15 2111.21 1452.29 2121.98L1534.62 2142.04C1554.02 2116.18 1575.96 2091.41 1599.83 2068.35L1569.56 1989C1553.36 1946.52 1568.5 1899.3 1606.35 1874.16C1644.22 1849.02 1693.61 1853.39 1726.47 1884.79L1787.89 1943.46C1818.39 1930.38 1849.71 1919.79 1881.09 1911.92L1894.53 1828.25C1901.74 1783.38 1938.44 1750.04 1983.81 1747.19C2029.1 1744.36 2069.76 1772.82 2082.52 1816.46L2106.37 1898.01C2138.84 1901.96 2171.23 1908.48 2202.69 1917.46L2256.33 1851.53C2285 1816.26 2333.46 1805.76 2374.16 1825.97C2414.87 1846.19 2435.79 1891.15 2425.02 1935.31L2404.96 2017.63C2430.8 2037.02 2455.59 2058.96 2478.65 2082.85L2558 2052.58C2600.48 2036.38 2647.7 2051.5 2672.84 2089.37L2669.47 2091.59L2672.84 2089.37C2697.98 2127.23 2693.61 2176.62 2662.21 2209.47L2603.54 2270.89C2616.62 2301.4 2627.23 2332.75 2635.08 2364.11L2718.75 2377.53C2763.62 2384.73 2796.96 2421.45 2799.81 2466.81C2802.64 2512.17 2774.16 2552.76 2730.56 2565.52L2648.99 2589.37C2645.04 2621.86 2638.52 2654.24 2629.54 2685.71L2695.47 2739.33C2730.74 2768 2741.24 2816.46 2721.03 2857.17C2700.81 2897.87 2655.85 2918.8 2611.71 2908.03L2529.37 2887.96C2509.98 2913.8 2488.06 2938.57 2464.15 2961.65L2494.42 3041C2510.62 3083.47 2495.5 3130.69 2457.63 3155.84C2419.77 3180.98 2370.39 3176.62 2337.53 3145.23L2276.11 3086.56C2245.58 3099.64 2214.25 3110.23 2182.89 3118.08L2169.47 3201.75C2162.27 3246.62 2125.55 3279.95 2080.19 3282.8C2078.11 3282.93 2076.03 3283 2073.97 3283" fill="black"/>
<path d="M2030.09 1924.68C2030.09 1924.68 1898.33 1864.67 1854.11 1855.19C1809.9 1845.72 1734.34 1771.87 1840.79 1676.2C1875.31 1645.2 1867.06 1593.58 1941.98 1559.55C2016.92 1525.52 2094.47 1543.64 2119.02 1589.87C2143.57 1636.1 2111.14 1693.89 2078.27 1711.02C2045.41 1728.17 2030.09 1924.68 2030.09 1924.68" fill="black"/>
<path d="M1971.31 2023.96L1935.51 2133.67C1935.51 2133.67 2181.31 2118.85 2171.92 2082.41C2169.25 2072.09 2162.96 2064.6 2155.32 2059.15C2117.55 2032.27 2132.93 1920.78 2132.93 1920.78L2198.29 1865.39C2210.28 1855.23 2212.65 1837.65 2203.74 1824.72L2171.86 1778.3C2166.49 1770.47 2164.93 1760.64 2167.6 1751.53L2173.24 1732.32L2112.37 1691.7L2059.3 1629.47C1974.54 1651.24 1948.79 1684.86 1968.72 1748.81C1981.47 1789.79 1960.33 1797.85 1960.33 1797.85C1960.33 1797.85 1917.61 1774.34 1914.6 1819.97C1911.59 1865.59 1988.61 1871.16 1988.61 1871.16C2003.55 1886.84 2008.68 1909.45 2001.96 1930.04L1971.31 2023.96" fill="white"/>
<path d="M1971.31 2023.96H1971.35H1971.31ZM1938.13 1795.81C1934.89 1795.81 1931.68 1796.4 1928.86 1797.94C1922.83 1801.26 1919.39 1808.77 1918.63 1820.24C1915.91 1861.32 1988.16 1867.09 1988.89 1867.15C1989.9 1867.22 1990.83 1867.67 1991.53 1868.38C2007.51 1885.16 2012.98 1909.28 2005.79 1931.3L1941.19 2129.27C2003.59 2125.18 2149.93 2110.88 2166.97 2087.48C2168.33 2085.6 2168.24 2084.33 2167.99 2083.43C2165.84 2075.06 2160.79 2068 2152.98 2062.45C2113.66 2034.47 2128.28 1924.88 2128.93 1920.24C2129.06 1919.26 2129.56 1918.34 2130.31 1917.71L2195.7 1862.31C2206.14 1853.46 2208.17 1838.28 2200.43 1826.99L2168.55 1780.6C2162.46 1771.73 2160.7 1760.71 2163.73 1750.39L2168.55 1734.03L2110.13 1695.05C2109.83 1694.84 2109.54 1694.61 2109.31 1694.32L2057.86 1634.02C2012.08 1646.06 1985.27 1661.47 1973.57 1682.47C1964.25 1699.18 1963.93 1719.87 1972.57 1747.61C1986.31 1791.71 1962.79 1801.24 1961.78 1801.62C1960.67 1802.05 1959.43 1801.96 1958.4 1801.39C1958.27 1801.31 1948.06 1795.81 1938.13 1795.81V1795.81ZM1935.51 2137.71C1934.28 2137.71 1933.09 2137.13 1932.32 2136.13C1931.5 2135.07 1931.27 2133.69 1931.68 2132.42L1967.48 2022.7L1998.12 1928.81C2004.23 1910.06 1999.84 1889.62 1986.71 1875.05C1975.01 1873.94 1907.56 1865.5 1910.57 1819.7C1911.54 1805.29 1916.39 1795.58 1925.01 1790.85C1937.82 1783.84 1954.54 1790.58 1960.28 1793.3C1964.18 1790.69 1974.38 1780.56 1964.86 1750.01C1955.65 1720.43 1956.19 1697.06 1966.51 1678.53C1979.58 1655.11 2008.75 1638.29 2058.29 1625.56C2059.78 1625.19 2061.36 1625.69 2062.36 1626.85L2115.08 1688.66L2175.48 1728.96C2176.95 1729.94 2177.62 1731.77 2177.11 1733.45L2171.47 1752.66C2169.12 1760.66 2170.48 1769.17 2175.2 1776.03L2207.07 1822.42C2217.18 1837.13 2214.53 1856.93 2200.91 1868.47L2136.72 1922.86C2135.11 1936.14 2124.59 2032.34 2157.67 2055.87C2167.06 2062.55 2173.17 2071.15 2175.82 2081.4C2176.77 2085.1 2175.97 2088.82 2173.49 2092.23C2150.45 2123.87 1957.66 2136.38 1935.76 2137.69C1935.67 2137.71 1935.6 2137.71 1935.51 2137.71" fill="black"/>
<path d="M1948.74 1742.27L2031.68 1800.88C2066.88 1825.74 2114.86 1821.53 2145.16 1790.92L2171.08 1764.76L2263.57 1851.68C2274.72 1864.73 2272.39 1884.47 2258.52 1894.56L2186.36 1956.87C2164.98 1972.4 2136.71 1974.61 2113.18 1962.57L1993.19 1901.16C1993.19 1901.16 2016.83 1858.28 1960.38 1797.91C1903.94 1737.54 1948.74 1742.27 1948.74 1742.27" fill="black"/>
<path d="M2991.44 1657.69L2835.6 1735.77C2835.6 1735.77 2853.45 2012.85 2689.56 2076.26C2610.74 2106.76 2541.82 2101.83 2491.54 2088.5C2415.4 2068.32 2335.57 2066.67 2259 2085.15L1951.39 2159.42C1781.39 2200.46 1652.07 2338.74 1622.74 2511.15C1591.38 2695.5 1557.4 2938.81 1553.09 3146.7C1552.3 3185.05 1589.48 3212.72 1625.89 3200.69L2420.6 2938.2L2450.83 2442.6C2550.2 2450.91 2695.26 2439.3 2878.1 2359.65C3264.65 2191.23 2991.44 1657.69 2991.44 1657.69" fill="white"/>
<path d="M2367.86 2076.46C2331.38 2076.46 2295.11 2080.69 2259.99 2089.16L1952.36 2163.44C1783.65 2204.15 1655.85 2340.94 1626.75 2511.91C1597.44 2684.27 1561.56 2934.33 1557.15 3146.88C1556.81 3163.89 1564.43 3179.42 1578.08 3189.49C1591.65 3199.53 1608.63 3202.23 1624.65 3196.95L2416.76 2935.31L2446.83 2442.43C2446.9 2441.34 2447.4 2440.34 2448.23 2439.62C2449.05 2438.92 2450.13 2438.56 2451.2 2438.65C2541.39 2446.22 2688.38 2438.01 2876.53 2356.03C2966.89 2316.66 3028.12 2253.59 3058.51 2168.58C3131.07 1965.61 3006.22 1697.27 2989.67 1663.21L2839.81 1738.27C2840.4 1751.84 2842.21 1814.79 2828.02 1883.13C2806.77 1985.56 2759.41 2053.67 2691.07 2080.11C2624.35 2105.92 2556.89 2110.09 2490.53 2092.5C2450.22 2081.82 2408.88 2076.46 2367.86 2076.46V2076.46ZM1608.33 3207.68C1595.89 3207.68 1583.73 3203.7 1573.28 3196C1557.49 3184.33 1548.68 3166.38 1549.09 3146.72C1553.5 2933.68 1589.44 2683.18 1618.8 2510.56C1648.43 2336.41 1778.61 2197.07 1950.47 2155.59L2258.09 2081.31C2334.03 2062.98 2415.11 2064.15 2492.6 2084.7C2557.28 2101.85 2623.08 2097.76 2688.14 2072.59C2847.35 2010.98 2831.78 1738.85 2831.6 1736.11C2831.51 1734.49 2832.39 1732.97 2833.83 1732.23L2989.67 1654.18C2991.66 1653.18 2994.06 1653.96 2995.08 1655.94C2996.58 1658.87 3144.49 1952.05 3066.11 2171.3C3034.93 2258.5 2972.23 2323.13 2879.75 2363.43C2692.88 2444.84 2546.05 2454.06 2454.64 2447.02L2424.66 2938.52C2424.56 2940.17 2423.46 2941.59 2421.9 2942.11L1627.2 3204.6C1620.96 3206.66 1614.62 3207.68 1608.33 3207.68" fill="black"/>
<path d="M2820.32 1415.43C2821.87 1404.86 2835.69 1370.25 2843.5 1359.07L2919.32 1221.15C2919.32 1221.15 2949.74 1265.5 2942.04 1300.1C2976.01 1290.12 3004.49 1287.06 3004.49 1287.06C3004.49 1287.06 3039.93 1226.49 3049.87 1214.77C3059.82 1203.07 3072.09 1185.67 3088.92 1180.35C3105.78 1175.03 3126.66 1182.37 3126.66 1182.37L3070.77 1335.98L2911.85 1441.82L3009.18 1703.67L2835.56 1735.84L2820.32 1415.43" fill="white"/>
<path d="M2824.44 1415.61L2839.45 1730.98L3003.81 1700.54L2908.12 1443.2C2907.47 1441.45 2908.12 1439.48 2909.68 1438.44L3067.49 1333.31L3121.46 1184.99C3114.92 1183.29 3101.43 1180.64 3090.19 1184.17C3076.86 1188.38 3066.06 1201.55 3057.37 1212.14C3055.86 1213.95 3054.43 1215.7 3053.03 1217.35C3043.42 1228.68 3008.39 1288.46 3008.03 1289.06C3007.39 1290.18 3006.26 1290.89 3004.99 1291.04C3004.7 1291.07 2976.44 1294.19 2943.26 1303.94C2941.88 1304.33 2940.41 1303.99 2939.37 1303.01C2938.33 1302.04 2937.86 1300.59 2938.19 1299.19C2943.85 1273.69 2927.22 1241.85 2919.62 1229.07L2847.1 1360.97C2847.03 1361.1 2846.96 1361.22 2846.87 1361.33C2839.42 1372.03 2826.17 1405.14 2824.44 1415.61V1415.61ZM2835.64 1739.83C2834.74 1739.83 2833.84 1739.53 2833.13 1738.96C2832.21 1738.24 2831.66 1737.15 2831.6 1735.98L2816.36 1415.59C2816.36 1415.32 2816.36 1415.07 2816.41 1414.8C2818 1403.91 2831.93 1368.82 2840.13 1356.91L2915.86 1219.18C2916.54 1217.94 2917.79 1217.16 2919.21 1217.08C2920.55 1217.03 2921.93 1217.68 2922.72 1218.84C2923.92 1220.6 2950.57 1259.91 2947.09 1294.46C2973.25 1287.24 2995.44 1284.1 3002.09 1283.26C3008.07 1273.08 3037.65 1223 3046.86 1212.14C3048.24 1210.53 3049.66 1208.79 3051.13 1207.01C3060.48 1195.6 3072.15 1181.41 3087.77 1176.48C3105.71 1170.82 3127.16 1178.22 3128.06 1178.52C3129.08 1178.88 3129.92 1179.63 3130.37 1180.6C3130.83 1181.59 3130.89 1182.7 3130.51 1183.72L3074.62 1337.32C3074.33 1338.13 3073.78 1338.83 3073.06 1339.29L2916.81 1443.38L3013.03 1702.24C3013.45 1703.35 3013.36 1704.59 3012.76 1705.63C3012.17 1706.67 3011.15 1707.38 3009.99 1707.6L2836.37 1739.76C2836.14 1739.8 2835.89 1739.83 2835.64 1739.83" fill="black"/>
<path d="M1332.68 3013.67C1332.68 3013.67 1364.94 2378.55 1778.54 2250.45L1889.46 2586.23C1889.46 2586.23 1494.89 3055.14 1457.02 3201.3C1419.18 3347.45 1332.68 3013.67 1332.68 3013.67" fill="white"/>
<path d="M1332.68 3017.71H1332.49C1330.25 3017.6 1328.54 3015.7 1328.65 3013.48C1328.74 3011.88 1337.43 2852.12 1396.69 2678.79C1431.54 2576.88 1476.81 2490.23 1531.23 2421.26C1599.41 2334.81 1682.21 2276.06 1777.36 2246.6C1779.49 2245.94 1781.75 2247.14 1782.41 2249.25C1783.06 2251.38 1781.88 2253.64 1779.74 2254.3C1567.76 2319.96 1458.62 2522.71 1404.39 2681.22C1345.46 2853.5 1336.79 3012.29 1336.71 3013.89C1336.61 3016.04 1334.82 3017.71 1332.68 3017.71Z" fill="black"/>
<path d="M1457.04 3205.34C1456.61 3205.34 1456.16 3205.26 1455.73 3205.12C1453.64 3204.39 1452.51 3202.09 1453.22 3200C1508.13 3040.32 1822.96 2660.55 1826.14 2656.73C1827.55 2655.01 1830.1 2654.78 1831.83 2656.21C1833.54 2657.62 1833.77 2660.17 1832.35 2661.89C1829.18 2665.69 1515.28 3044.32 1460.86 3202.61C1460.28 3204.28 1458.73 3205.34 1457.04 3205.34Z" fill="black"/>
<path d="M2245.65 2104.84L2238.18 2057.27C2235.69 2041.37 2218.97 2023.78 2205.17 2032.06C2090.03 2101.17 1902.72 2040.32 1871.06 2054.37C1781.71 2093.97 1632.45 2320.17 1666.19 2302.51C1808.41 2228.04 2048.19 2280.57 2156.74 2241.26C2240.06 2211.07 2245.65 2104.84 2245.65 2104.84Z" fill="black"/>
<path d="M2108.75 2606.91C2106.82 2606.91 2105.1 2605.5 2104.78 2603.53L2038.98 2197.5C2038.62 2195.3 2040.12 2193.22 2042.31 2192.86C2044.55 2192.5 2046.59 2194.01 2046.95 2196.21L2112.75 2602.24C2113.11 2604.44 2111.6 2606.5 2109.42 2606.86C2109.18 2606.9 2108.97 2606.91 2108.75 2606.91" fill="black"/>
<path d="M2207.13 2518C2205.35 2518 2203.72 2516.82 2203.24 2515.02L2115.38 2190.6C2114.81 2188.45 2116.06 2186.23 2118.23 2185.66C2120.38 2185.06 2122.59 2186.34 2123.18 2188.49L2211.02 2512.91C2211.61 2515.06 2210.34 2517.28 2208.19 2517.86C2207.83 2517.95 2207.47 2518 2207.13 2518" fill="black"/>
<path d="M2106.78 2595.16C2099.87 2596.59 2095.05 2601.48 2096 2606.09L2104.49 2647.05C2105.44 2651.66 2111.82 2654.22 2118.73 2652.79C2125.63 2651.37 2130.47 2646.48 2129.5 2641.87L2121.01 2600.91C2120.06 2596.31 2113.68 2593.73 2106.78 2595.16Z" fill="black"/>
<path d="M2205.34 2504.13C2198.55 2506.03 2194.07 2511.24 2195.34 2515.76L2206.64 2556.06C2207.92 2560.57 2214.44 2562.69 2221.25 2560.79C2228.04 2558.89 2232.52 2553.68 2231.25 2549.14L2219.94 2508.86C2218.67 2504.34 2212.13 2502.21 2205.34 2504.13" fill="black"/>
<path d="M2032.8 3010C1973.44 3010.02 1914.49 2999.37 1858.93 2978.7C1767.92 2944.85 1686.07 2884.06 1626.59 2799C1624.3 2795.72 1622.02 2792.39 1619.8 2789.04C1619.77 2788.98 1619.71 2788.91 1619.68 2788.88C1565.22 2706.79 1537 2612.56 1537 2516.26C1537 2483.38 1540.28 2450.25 1546.92 2417.28C1573.08 2287.68 1648.13 2176.03 1758.23 2102.87C1758.3 2102.84 1758.36 2102.8 1758.43 2102.75L1758.59 2102.64C1758.59 2102.64 1758.61 2102.64 1758.61 2102.62C1758.66 2102.59 1758.73 2102.55 1758.79 2102.51V2102.5C1822.96 2059.99 1893.94 2033.6 1969.75 2024.03C1971.98 2023.75 1974 2025.32 1974.27 2027.55C1974.56 2029.75 1972.98 2031.77 1970.78 2032.04C1970.18 2032.11 1969.59 2032.2 1969 2032.28H1968.97C1894.83 2041.92 1825.43 2067.91 1762.69 2109.59C1660.94 2177.2 1589.62 2278.23 1560.04 2395.92C1560.02 2396.01 1560 2396.12 1559.97 2396.21C1526.56 2529.01 1550.81 2670.56 1626.52 2784.58C1775.04 3008.21 2077.8 3069.31 2301.38 2920.77C2301.43 2920.73 2301.49 2920.72 2301.52 2920.68C2301.54 2920.68 2301.56 2920.66 2301.56 2920.66C2301.59 2920.63 2301.63 2920.61 2301.67 2920.59L2301.7 2920.55C2301.72 2920.55 2301.75 2920.52 2301.79 2920.5C2449.43 2822.2 2532.18 2648.65 2517.11 2472.86C2517.09 2472.84 2517.09 2472.82 2517.09 2472.8C2516.39 2464.54 2515.46 2456.28 2514.32 2448.02L2513.98 2445.57V2445.53V2445.52C2513.87 2444.89 2513.78 2444.24 2513.69 2443.62C2513.65 2443.4 2513.65 2443.2 2513.65 2443.03C2513.64 2441.05 2515.09 2439.32 2517.09 2439.03C2519.3 2438.69 2521.34 2440.23 2521.68 2442.43C2521.89 2443.97 2522.13 2445.52 2522.34 2447.06L2522.36 2447.18V2447.2C2522.57 2448.76 2522.77 2450.32 2522.97 2451.88C2525.67 2472.88 2527.02 2493.97 2527 2515C2527 2571.37 2517.36 2627.45 2498.43 2680.87C2494.34 2692.35 2489.83 2703.75 2484.9 2714.96C2483 2719.26 2481.05 2723.55 2479.04 2727.78C2479.02 2727.83 2478.99 2727.88 2478.97 2727.92C2478.95 2727.95 2478.93 2728.01 2478.92 2728.04L2478.9 2728.06C2467.95 2751.09 2455.3 2773.13 2441.06 2794.04C2441.03 2794.11 2440.97 2794.18 2440.92 2794.25C2405.38 2846.39 2360.57 2890.79 2307.74 2926.23C2307.7 2926.27 2307.67 2926.29 2307.63 2926.31C2307.61 2926.32 2307.6 2926.34 2307.56 2926.36C2306.99 2926.74 2306.41 2927.11 2305.86 2927.49C2221.84 2983.3 2126.8 3010 2032.8 3010" fill="black"/>
<path d="M715.202 1859L676 2061.1C676 2061.1 1038.61 2165.46 1201 1990.6L1153.43 1859H715.188" fill="black"/>
<path d="M356.827 1326.25C436.17 1036.3 735.385 865.631 1025.16 945.008C1314.91 1024.4 1485.5 1323.8 1406.17 1613.75C1326.82 1903.7 1027.59 2074.39 737.838 1994.99C448.064 1915.6 277.481 1616.2 356.827 1326.25ZM114.454 1363.56L200.134 1409.19C196.662 1447.61 196.365 1485.81 199.314 1523.44L113.337 1568.04C70.7963 1590.1 49.2127 1638.71 61.3592 1685.1C73.5092 1731.47 116.148 1763.24 164.032 1761.59L261.078 1758.24C277.133 1792.79 296.022 1825.95 317.562 1857.38L265.245 1939.23C239.428 1979.62 245.024 2032.51 278.72 2066.59C312.414 2100.67 365.213 2106.85 405.857 2081.46L488.005 2030.17C518.871 2051.86 551.872 2071.07 586.68 2087.66L582.273 2184.67C580.099 2232.57 611.378 2275.57 657.589 2288.24C703.802 2300.91 752.617 2279.84 775.13 2237.51L820.736 2151.78C859.129 2155.25 897.303 2155.56 934.917 2152.6L979.481 2238.62C1001.53 2281.2 1050.11 2302.79 1096.46 2290.64C1142.8 2278.49 1174.55 2235.83 1172.9 2187.9L1169.56 2090.8C1204.09 2074.75 1237.24 2055.84 1268.63 2034.29L1350.43 2086.64C1390.79 2112.46 1443.65 2106.87 1477.73 2073.15C1511.79 2039.43 1517.97 1986.61 1492.59 1945.93L1441.31 1863.74C1463.01 1832.85 1482.21 1799.83 1498.77 1764.99L1595.74 1769.4C1643.61 1771.59 1686.58 1740.29 1699.24 1694.04C1711.89 1647.81 1690.84 1598.97 1648.55 1576.42L1562.86 1530.81C1566.34 1492.39 1566.64 1454.19 1563.69 1416.54L1649.66 1371.96C1692.21 1349.89 1713.78 1301.29 1701.64 1254.9C1689.48 1208.53 1646.85 1176.76 1598.96 1178.41L1501.92 1181.76C1485.86 1147.21 1466.97 1114.07 1445.45 1082.64L1497.75 1000.77C1523.57 960.382 1517.97 907.487 1484.29 873.407C1450.58 839.327 1397.78 833.145 1357.14 858.535L1274.99 909.835C1244.13 888.136 1211.13 868.928 1176.32 852.336L1180.73 755.327C1182.9 707.432 1151.62 664.428 1105.41 651.76C1059.19 639.092 1010.38 660.164 987.867 702.487L942.268 788.225C903.87 784.749 865.693 784.444 828.079 787.4L783.516 701.358C761.467 658.802 712.886 637.211 666.539 649.359C620.192 661.508 588.444 704.189 590.097 752.102L593.444 849.2C558.91 865.272 525.774 884.158 494.367 905.714L412.562 853.357C372.197 827.537 319.335 833.127 285.27 866.849C251.206 900.571 245.029 953.394 270.402 994.068L321.683 1076.26C299.985 1107.15 280.794 1140.17 264.221 1175.01L167.262 1170.6C119.398 1168.41 76.4137 1199.71 63.7587 1245.96C51.1055 1292.19 72.159 1341.03 114.454 1363.56" fill="white"/>
<path d="M880.144 928.73C787.536 928.73 696.076 952.77 613.447 999.918C488.091 1071.41 398.062 1187.49 359.954 1326.76C321.847 1466.02 340.218 1611.78 411.683 1737.21C483.146 1862.65 599.156 1952.73 738.327 1990.86C877.498 2028.99 1023.19 2010.6 1148.53 1939.09C1273.89 1867.59 1363.9 1751.52 1402.01 1612.26C1440.11 1472.99 1421.75 1327.23 1350.28 1201.79C1278.82 1076.36 1162.81 986.275 1023.64 948.145C976.206 935.148 928.007 928.73 880.123 928.73H880.144ZM881.859 2018.36C833.254 2018.36 784.349 2011.83 736.198 1998.64C594.945 1959.94 477.205 1868.51 404.682 1741.21C332.158 1613.91 313.505 1465.96 352.182 1324.63L356.074 1325.68L352.182 1324.63C390.859 1183.27 482.227 1065.48 609.455 992.891C736.682 920.323 884.537 901.661 1025.79 940.365C1167.04 979.069 1284.78 1070.5 1357.3 1197.79C1429.84 1325.09 1448.48 1473.04 1409.81 1614.4C1371.13 1755.73 1279.76 1873.53 1152.54 1946.11C1068.68 1993.94 975.847 2018.36 881.868 2018.36H881.859ZM934.44 2148.4C935.94 2148.4 937.323 2149.23 938.021 2150.57L982.607 2236.65C1003.95 2277.85 1050.18 2298.39 1095.04 2286.63C1139.89 2274.87 1170.11 2234.27 1168.51 2187.89L1165.17 2090.75C1165.11 2089.13 1166.03 2087.63 1167.5 2086.95C1201.75 2071.01 1234.9 2052.1 1266.04 2030.73C1267.37 2029.81 1269.12 2029.78 1270.48 2030.66L1352.34 2083.04C1391.4 2108.03 1441.71 2102.71 1474.67 2070.08C1507.66 2037.45 1513.53 1987.17 1488.97 1947.8L1437.66 1865.57C1436.8 1864.19 1436.85 1862.43 1437.78 1861.11C1459.21 1830.61 1478.43 1797.57 1494.94 1762.9C1495.63 1761.45 1497.12 1760.54 1498.77 1760.61L1595.77 1765.02C1642.03 1767.11 1683 1737.34 1695.24 1692.59C1707.49 1647.83 1687.46 1601.35 1646.52 1579.55L1560.79 1533.9C1559.36 1533.13 1558.54 1531.59 1558.68 1529.98C1562.14 1491.74 1562.41 1453.5 1559.49 1416.34C1559.36 1414.73 1560.22 1413.19 1561.65 1412.43L1647.67 1367.83C1688.86 1346.48 1709.39 1300.21 1697.64 1255.32C1685.88 1210.45 1645.2 1180.23 1598.96 1181.8L1501.87 1185.16C1500.17 1185.21 1498.75 1184.3 1498.07 1182.83C1482.14 1148.57 1463.24 1115.4 1441.89 1084.23C1440.97 1082.88 1440.94 1081.14 1441.81 1079.76L1494.17 997.874C1519.14 958.794 1513.82 908.437 1481.21 875.452C1448.59 842.466 1398.33 836.586 1359.01 861.164L1276.83 912.489C1275.45 913.349 1273.69 913.313 1272.37 912.381C1241.85 890.923 1208.84 871.669 1174.23 855.195C1172.77 854.495 1171.86 852.989 1171.93 851.358L1176.34 754.302C1178.44 707.943 1148.68 667.016 1103.95 654.754C1059.22 642.51 1012.77 662.552 990.979 703.515L945.355 789.277C944.591 790.712 943.036 791.554 941.431 791.411C903.247 787.951 865.039 787.682 827.865 790.586C826.258 790.73 824.716 789.869 823.969 788.417L779.383 702.35C758.041 661.154 711.811 640.61 666.953 652.37C622.097 664.13 591.882 704.734 593.483 751.111L596.832 848.257C596.886 849.888 595.968 851.376 594.499 852.057C560.26 867.994 527.107 886.889 495.956 908.276C494.62 909.19 492.86 909.208 491.502 908.348L409.655 855.965C370.587 830.975 320.281 836.3 287.311 868.926C254.342 901.553 248.465 951.838 273.021 991.205L324.327 1073.44C325.187 1074.82 325.138 1076.57 324.205 1077.9C302.772 1108.41 283.543 1141.45 267.055 1176.1C266.358 1177.55 264.828 1178.47 263.23 1178.4L166.226 1173.99C119.904 1171.89 78.9928 1201.65 66.7454 1246.41C54.4981 1291.18 74.5353 1337.66 115.471 1359.46L201.192 1405.1C202.624 1405.87 203.46 1407.41 203.315 1409.03C199.859 1447.26 199.585 1485.48 202.498 1522.66C202.624 1524.28 201.771 1525.82 200.33 1526.55L114.31 1571.17C73.1414 1592.53 52.599 1638.79 64.3572 1683.67C76.1172 1728.55 116.812 1758.8 163.037 1757.2L260.132 1753.85C261.809 1753.8 263.248 1754.71 263.928 1756.18C279.852 1790.46 298.755 1823.62 320.109 1854.78C321.025 1856.12 321.052 1857.88 320.181 1859.24L267.838 1941.13C242.852 1980.21 248.179 2030.57 280.789 2063.55C313.394 2096.54 363.645 2102.42 402.985 2077.84L485.171 2026.5C486.548 2025.66 488.302 2025.69 489.628 2026.62C520.105 2048.06 553.126 2067.32 587.766 2083.81C589.23 2084.51 590.135 2086.02 590.063 2087.65L585.654 2184.7C583.551 2231.06 613.316 2271.99 658.044 2284.25C702.774 2296.49 749.225 2276.45 771.014 2235.49L816.643 2149.73C817.404 2148.29 818.931 2147.45 820.566 2147.59C858.786 2151.05 896.99 2151.32 934.125 2148.42C934.23 2148.4 934.336 2148.4 934.44 2148.4V2148.4ZM1069.69 2298C1030.66 2298 994.181 2276.54 975.444 2240.37L932.086 2156.66C896.202 2159.34 859.367 2159.07 822.51 2155.88L778.138 2239.29C754.564 2283.6 704.292 2305.3 655.915 2292.03C607.524 2278.78 575.317 2234.49 577.592 2184.34L581.881 2089.94C548.539 2073.9 516.706 2055.36 487.181 2034.76L407.256 2084.69C364.7 2111.27 310.334 2104.93 275.052 2069.22C239.769 2033.54 234.009 1979.06 261.04 1936.77L311.945 1857.14C291.458 1826.99 273.239 1795.01 257.746 1762.01L163.316 1765.27C113.151 1766.99 69.2734 1734.29 56.553 1685.73C43.8327 1637.16 66.0557 1587.11 110.6 1564L194.25 1520.62C191.586 1484.7 191.851 1447.86 195.042 1410.98L111.68 1366.58C67.3904 1343 45.7121 1292.7 58.9627 1244.28C72.2152 1195.86 116.448 1163.63 166.593 1165.92L260.927 1170.2C276.953 1136.86 295.487 1105 316.069 1075.44L266.177 995.472C239.608 952.896 245.964 898.488 281.637 863.19C317.304 827.892 371.732 822.119 414.001 849.171L493.602 900.101C523.738 879.593 555.699 861.361 588.675 845.873L585.418 751.38C583.687 701.221 616.373 657.282 664.905 644.554C713.427 631.826 763.459 654.073 786.546 698.639L829.904 782.34C865.822 779.669 902.655 779.938 939.487 783.129L983.856 699.715C1007.43 655.4 1057.68 633.708 1106.08 646.974C1154.47 660.222 1186.68 704.519 1184.4 754.661L1180.11 849.063C1213.42 865.09 1245.26 883.627 1274.8 904.224L1354.73 854.298C1397.29 827.731 1451.65 834.077 1486.94 869.769C1522.22 905.461 1527.99 959.941 1500.96 1002.23L1450.06 1081.88C1470.55 1112.03 1488.77 1144.01 1504.25 1177L1598.67 1173.74C1648.89 1172.03 1692.71 1204.71 1705.45 1253.28C1718.17 1301.84 1695.93 1351.89 1651.4 1375L1567.75 1418.38C1570.42 1454.29 1570.15 1491.15 1566.96 1528.02L1650.3 1572.43C1694.59 1596 1716.27 1646.31 1703.03 1694.73C1689.79 1743.15 1645.48 1775.36 1595.41 1773.08L1501.06 1768.8C1485.03 1802.16 1466.48 1834.02 1445.92 1863.56L1495.81 1943.53C1522.38 1986.11 1516.02 2040.52 1480.35 2075.81C1444.68 2111.11 1390.25 2116.89 1347.99 2089.83L1268.39 2038.9C1238.27 2059.39 1206.31 2077.63 1173.32 2093.13L1176.58 2187.62C1178.3 2237.78 1145.62 2281.72 1097.09 2294.45C1087.94 2296.83 1078.75 2298 1069.69 2298" fill="black"/>
<path d="M184.856 964C184.856 964 176.247 857.651 172.294 828.965C167.798 796.338 216.25 830.486 225 930.818L184.856 964Z" fill="white"/>
<path d="M177.923 821.111C177.839 821.111 177.782 821.111 177.75 821.129C177.471 821.345 176.504 823.255 177.203 828.551C180.374 852.602 186.707 931.438 188.704 956.749L219.881 929.834C214.196 866.42 193.135 830.317 181.054 822.426C179.368 821.309 178.331 821.111 177.923 821.111V821.111ZM185.358 969C184.842 969 184.321 968.91 183.828 968.694C182.451 968.117 181.512 966.784 181.393 965.271C181.312 964.208 173.067 858.061 169.32 829.632C168.349 822.282 169.592 817.22 173.012 814.625C174.524 813.472 177.807 811.869 182.809 814.175C198.093 821.183 222.215 862.132 227.986 931.221C228.094 932.536 227.573 933.816 226.591 934.663L187.927 968.045C187.198 968.676 186.283 969 185.358 969" fill="black"/>
<path d="M128.547 1457.95C128.547 1457.95 191.969 1109.57 192.779 1097.98C193.366 1089.62 192.21 1081.24 189.42 1073.31C181.256 1050.12 164.374 1000.53 164.216 986.683C164.053 972.463 176.265 961.611 181.699 957.492C184.919 955.038 188.001 952.441 191.055 949.791L219.524 925.149C226.608 919.31 230.067 909.711 239.818 911.144C258.417 913.902 263.88 945.851 263.88 945.851C263.88 945.851 281.893 931.596 291.715 938.401C301.537 945.188 318.065 994.831 294.738 1045.78C271.409 1096.75 264.571 1073.38 262.76 1126.26C262.036 1147.38 265.538 1347.72 265.538 1347.72C265.538 1364.34 283.195 1374.98 297.854 1367.21L423.984 1300.37L466 1514.2L240.993 1565.6C175.791 1580.5 116.601 1523.83 128.545 1457.95" fill="white"/>
<path d="M131.528 1457.68C126.147 1487.28 135.938 1517.37 157.72 1538.16C179.498 1558.95 210.041 1567.36 239.42 1560.69L461.241 1510.15L420.911 1305.5L299.231 1369.79C291.064 1374.1 281.456 1373.83 273.542 1369.09C265.622 1364.32 260.895 1355.96 260.895 1346.74C260.752 1338.63 257.389 1146.13 258.111 1125.14C259.211 1093.11 261.966 1088.07 270.514 1076.99C275.199 1070.9 281.614 1062.59 290.542 1043.14C314.071 991.871 295.943 945.615 288.888 940.744C283.295 936.876 270.901 943.985 265.773 948.032C264.659 948.928 263.154 949.143 261.826 948.641C260.494 948.122 259.532 946.958 259.29 945.561C257.889 937.467 251.433 916.066 238.55 914.168C234.155 913.523 231.766 916.013 227.595 920.866C225.719 923.051 223.78 925.289 221.355 927.295L192.882 951.865C189.915 954.425 186.702 957.148 183.298 959.726C178.46 963.397 167.221 973.247 167.365 985.657C167.471 994.969 176.833 1026.86 192.41 1070.99C195.418 1079.51 196.625 1088.36 195.998 1097.3C195.18 1108.95 134.135 1443.41 131.528 1457.68V1457.68ZM219.423 1571C194.616 1571 170.515 1561.53 152.136 1543.99C128.388 1521.32 117.714 1488.52 123.58 1456.25C145.565 1335.81 187.308 1105.71 187.94 1096.74C188.489 1088.91 187.429 1081.14 184.79 1073.68C175.333 1046.88 159.445 999.84 159.286 985.764C159.101 969.665 172.603 957.703 178.418 953.297C181.642 950.862 184.734 948.247 187.595 945.776L216.147 921.117C218.11 919.505 219.817 917.535 221.466 915.601C225.803 910.569 230.733 904.856 239.729 906.199C255.747 908.563 263.098 928.029 265.864 938.165C272.729 933.885 284.852 928.154 293.483 934.118C306.105 942.821 321.208 995.686 297.887 1046.49C288.577 1066.78 281.838 1075.52 276.916 1081.91C269.881 1091.03 267.249 1094.45 266.187 1125.41C265.471 1146.2 268.937 1344.66 268.973 1346.67C268.973 1353.11 272.238 1358.88 277.707 1362.17C283.176 1365.45 289.808 1365.65 295.451 1362.66L421.936 1295.82C423.064 1295.22 424.407 1295.2 425.563 1295.75C426.716 1296.29 427.541 1297.35 427.789 1298.6L469.923 1512.42C470.345 1514.57 468.987 1516.65 466.86 1517.13L241.218 1568.55C233.976 1570.19 226.668 1571 219.421 1571" fill="black"/>
<path d="M221.497 1040C217.722 1040 214.418 1039.16 211.736 1037.79C204.422 1034.04 200.821 1026.04 202.344 1016.9C205.69 996.801 219.067 985.925 219.633 985.476C221.381 984.076 223.928 984.364 225.325 986.104C226.722 987.845 226.436 990.394 224.69 991.776C224.586 991.865 213.15 1001.29 210.33 1018.23C209.379 1023.94 211.238 1028.46 215.428 1030.6C221.233 1033.57 232.769 1032.26 246.17 1018.8C268.138 996.729 258.986 944.287 258.891 943.749C258.495 941.559 259.958 939.459 262.159 939.065C264.374 938.67 266.463 940.124 266.86 942.331C267.277 944.646 276.823 999.475 251.915 1024.49C240.568 1035.89 229.871 1040 221.497 1040" fill="black"/>
<path d="M1583.75 2060.61C1553.78 2043.61 1541.84 2029.92 1530.76 2001.75C1530.76 2001.75 1468.95 1805.96 1420.65 1683.11C1401.33 1633.95 1358.03 1541.85 1314.02 1451L1157.71 1538.2C1156.05 1539.11 1154.49 1540.15 1153 1541.28C1229.69 1669.46 1370.55 1904.45 1385.55 1926.15C1385.55 1926.15 1462.26 2039.45 1458.51 2098.27C1456.17 2135.43 1470.65 2204.01 1525.56 2242.44C1537.03 2250.47 1552 2238.14 1546.27 2225.37C1546.18 2225.15 1546.09 2224.96 1546 2224.76C1537.43 2206.68 1522.23 2183.86 1522.23 2183.86C1522.23 2183.86 1552.22 2184.14 1583.61 2208.87C1614.98 2233.59 1681.62 2277.9 1695.42 2263.01C1719.07 2237.46 1704.99 2129.46 1583.75 2060.61" fill="white"/>
<path d="M1522.55 2180.78H1522.59C1523.86 2180.8 1554.27 2181.38 1586.3 2206.69C1629.12 2240.54 1683.23 2271.3 1692.46 2261.33C1700.1 2253.04 1702.84 2234.91 1699.6 2213.95C1696.35 2192.86 1678.24 2119.77 1581.96 2064.94C1551.64 2047.66 1538.87 2033.42 1527.31 2003.96C1526.61 2001.74 1465.02 1806.38 1417.43 1684.92C1401.11 1643.32 1365.99 1566.54 1312.97 1456.66L1160.69 1541.87C1160.27 1542.1 1159.84 1542.36 1159.42 1542.62C1239.96 1677.65 1374.8 1903.23 1389.46 1924.49C1392.62 1929.21 1466.75 2039.8 1462.98 2099.38C1460.99 2130.84 1472.05 2200.75 1528.18 2240.16C1532.67 2243.32 1537.29 2241.96 1540.1 2239.62C1542.91 2237.29 1545.11 2233.02 1542.87 2228.04L1542.64 2227.53C1534.32 2209.88 1519.34 2187.3 1519.18 2187.06C1518.36 2185.83 1518.29 2184.21 1519 2182.9C1519.7 2181.59 1521.06 2180.78 1522.54 2180.78H1522.55ZM1686.9 2271C1655.07 2271 1584.73 2215.73 1581.31 2213.04C1561.02 2197 1541.19 2191.6 1530.53 2189.77C1535.76 2198.04 1544.22 2211.96 1549.91 2224.04L1550.23 2224.74C1553.59 2232.25 1551.64 2240.54 1545.24 2245.85C1538.81 2251.16 1530.32 2251.54 1523.55 2246.78C1464.5 2205.33 1452.86 2131.9 1454.95 2098.88C1458.55 2042.05 1383.56 1930.18 1382.81 1929.05C1367.92 1907.47 1230.91 1678.23 1150.57 1543.5C1149.51 1541.75 1149.96 1539.45 1151.61 1538.21C1153.34 1536.9 1155.02 1535.79 1156.77 1534.82L1312.78 1447.51C1313.74 1446.97 1314.89 1446.85 1315.94 1447.19C1317.02 1447.53 1317.88 1448.28 1318.36 1449.29C1372.5 1561.41 1408.36 1639.69 1424.93 1681.97C1472.63 1803.69 1534.29 1999.31 1534.9 2001.27C1545.71 2028.75 1557.18 2041.52 1585.95 2057.9C1685.36 2114.54 1704.17 2190.72 1707.57 2212.72C1711.22 2236.4 1707.78 2256.61 1698.37 2266.82C1695.67 2269.73 1691.73 2271 1686.9 2271" fill="black"/>
<path d="M361.384 1288.23L394.687 1250.87C451.1 1188.25 522.138 1140.59 601.466 1112.13L655.676 1092.68C659.894 1091.17 968.274 1059.51 1073.03 1094.13C1138.46 1115.75 1223.96 1166.31 1340.3 1401.81C1348.89 1419.2 1341.99 1441.19 1325.05 1450.63L1154.46 1545.79C1139.61 1554.07 1140 1572.72 1142.21 1589.57L1192.91 1863.79C1195.81 1879.5 1189.08 1895.53 1175.65 1904.16C1133.34 1931.42 1009.87 1973.77 739.546 1930.33C676.238 1920.16 625.431 1872.51 611.014 1810.04L561.474 1595.34C558.393 1577.16 533.516 1568.27 514.245 1564.08C503.425 1561.74 492.332 1561.52 481.286 1562.27C458.025 1563.87 435.956 1549.52 428.515 1526.52L353.058 1334.07C346.932 1318.45 350.16 1300.7 361.392 1288.23" fill="white"/>
<path d="M361.458 1288.44H361.497H361.458ZM492.101 1558.4C500.477 1558.4 507.921 1559.16 514.993 1560.7C536.047 1565.29 561.861 1575.01 565.284 1595.26L614.726 1810.01C628.841 1871.34 677.945 1917.4 739.822 1927.37C1031.75 1974.39 1144.87 1919.67 1172.61 1901.78C1184.63 1894.03 1190.7 1879.77 1188.06 1865.48L1137.42 1590.9C1134.98 1572.3 1134.79 1552.23 1151.66 1542.8L1322.05 1447.52C1337.21 1439.05 1343.3 1419.5 1335.64 1403.95C1222.3 1173.98 1138.28 1120.2 1071.03 1097.92C970.222 1064.53 667.88 1094.07 656.44 1096.54L602.631 1115.91C524.295 1144.08 453.441 1191.74 397.733 1253.72L364.482 1291.13H364.467C354.202 1302.55 351.302 1318.55 356.902 1332.86L432.271 1525.57C439.108 1546.73 459.084 1560.31 480.956 1558.8C484.868 1558.53 488.575 1558.4 492.115 1558.4H492.101ZM948.856 1954C891.877 1954 822.496 1948.87 738.534 1935.35C673.401 1924.86 621.716 1876.36 606.858 1811.82L557.373 1596.84C554.513 1579.98 528.515 1571.91 513.267 1568.59C503.975 1566.56 493.871 1566.03 481.479 1566.87C455.951 1568.61 432.557 1552.75 424.657 1528.29L349.37 1335.8C342.651 1318.62 346.131 1299.43 358.452 1285.73L391.703 1248.34C448.319 1185.35 520.303 1136.93 599.895 1108.31L654.043 1088.83C656.032 1088.11 966.913 1054.92 1073.56 1090.25C1142.39 1113.06 1228.21 1167.72 1342.87 1400.37C1352.42 1419.72 1344.84 1444.04 1325.99 1454.58L1155.59 1549.87C1142.93 1556.93 1143.33 1573.94 1145.39 1589.65L1195.99 1864.01C1199.22 1881.53 1191.76 1899.03 1176.97 1908.57C1156.71 1921.65 1091.92 1954 948.856 1954" fill="black"/>
<path d="M930.936 1536C930.077 1536 929.212 1535.73 928.474 1535.17C856.557 1480.27 835.101 1419.92 834.223 1417.37C833.491 1415.26 834.618 1412.96 836.737 1412.23C838.843 1411.49 841.162 1412.62 841.897 1414.72C842.105 1415.34 863.559 1475.42 933.409 1528.74C935.188 1530.1 935.527 1532.64 934.163 1534.42C933.364 1535.46 932.158 1536 930.936 1536" fill="black"/>
<path d="M675.97 1527C674.748 1527 673.539 1526.45 672.747 1525.39C618.582 1453.56 614.169 1389.95 614.007 1387.27C613.873 1385.05 615.563 1383.15 617.786 1383.01C620.047 1382.88 621.92 1384.56 622.056 1386.78C622.095 1387.41 626.581 1450.77 679.188 1520.54C680.528 1522.33 680.173 1524.85 678.395 1526.19C677.668 1526.73 676.816 1527 675.97 1527Z" fill="black"/>
<path d="M931.333 1237.08C759.808 1314.58 656.426 1161.69 656.426 1161.69C653.567 1158.52 650.395 1155.76 647 1153.39L648.466 1152.89C650.433 1152.19 652.385 1151.46 654.321 1150.7C730.917 1121.03 779.619 1044.99 777.742 962.652L776.662 915.344L904.901 914C904.901 914 908.286 1087.07 967.471 1088.38L1000.19 1092.21C1024.66 1148.3 988.866 1211.08 931.326 1237.08" fill="white"/>
<path d="M655.199 1154.5C656.697 1155.85 658.126 1157.29 659.473 1158.78C659.599 1158.92 659.715 1159.07 659.821 1159.23C660.077 1159.61 685.931 1197.34 732.09 1225.14C793.691 1262.26 860.366 1265.05 930.247 1233.43L931.906 1237.12L930.247 1233.43C982.151 1209.96 1021.24 1152.24 998.097 1095.54L967.65 1091.97C910.073 1090.73 902.43 944.141 901.513 917.125L781.071 918.401L782.058 961.757C783.998 1046.85 733.267 1124.21 655.823 1154.25C655.615 1154.34 655.404 1154.43 655.194 1154.5H655.199ZM836.948 1263C724.608 1263 657.313 1169.71 653.318 1164.03C650.766 1161.23 647.88 1158.69 644.734 1156.5C643.489 1155.64 642.834 1154.14 643.036 1152.63C643.239 1151.12 644.267 1149.87 645.696 1149.36L647.165 1148.84C649.096 1148.16 651.013 1147.46 652.917 1146.7C727.198 1117.91 775.854 1043.65 773.993 961.937L772.913 914.483C772.886 913.404 773.295 912.362 774.045 911.571C774.796 910.798 775.824 910.366 776.902 910.348L905.391 909C907.58 908.982 909.421 910.744 909.466 912.973C910.39 960.175 922.752 1082.91 968.207 1083.92L1001.36 1087.78C1002.79 1087.96 1004.02 1088.86 1004.59 1090.19C1031.6 1152.13 989.691 1215.42 933.565 1240.82C898.517 1256.67 866.2 1263 836.941 1263" fill="black"/>
<path d="M777.766 922L771.214 834.593C768.019 791.944 801.026 755.336 843.507 754.416L955.178 752C955.178 752 963.837 806.803 993 832.645L979.966 857.278L967.084 902.56C964.276 912.442 956.223 919.962 946.196 921.856L878.863 921.91L777.766 922" fill="white"/>
<path d="M776.798 926C774.706 926 772.936 924.387 772.775 922.272L766.229 835.413C764.598 813.784 771.725 793.05 786.294 776.994C800.851 760.955 820.787 751.869 842.435 751.404L954.069 749.003C956.042 748.931 957.824 750.4 958.143 752.407C958.226 752.927 966.928 805.738 994.631 830.145C996.035 831.381 996.406 833.424 995.526 835.073L982.699 859.176L969.938 903.761C966.674 915.176 957.471 923.617 945.924 925.785C945.678 925.839 945.429 925.856 945.18 925.856L877.871 925.91H877.868C875.64 925.91 873.833 924.118 873.831 921.878C873.827 919.656 875.634 917.846 877.862 917.846L944.782 917.792C953.144 916.072 959.79 909.89 962.176 901.557L975.052 856.541C975.131 856.273 975.238 856.004 975.369 855.753L986.938 834.034C962.761 810.72 953.192 769.431 950.797 757.138L842.607 759.468C823.2 759.898 805.325 768.052 792.272 782.424C779.207 796.814 772.815 815.414 774.277 834.804L780.825 921.663C780.994 923.886 779.329 925.821 777.104 926H776.798" fill="black"/>
<path d="M857.326 1131C853.618 1131 849.539 1130.57 845.11 1129.52C842.902 1128.98 841.568 1126.87 842.128 1124.79C842.686 1122.71 844.925 1121.44 847.136 1121.97C866.145 1126.53 876.943 1117.16 877.048 1117.07C878.704 1115.59 881.312 1115.65 882.876 1117.23C884.439 1118.78 884.362 1121.25 882.707 1122.71C882.244 1123.13 873.174 1131 857.326 1131Z" fill="black"/>
<path d="M976.759 745.881L920.725 775.676C887.831 793.183 865.245 825.4 860.093 862.388C852.888 914.103 846.711 1003.69 797.569 1079.28C759.521 1137.79 695.308 1173.95 625.794 1178.35C579.977 1181.25 525.792 1198.65 496.836 1228C496.836 1228 404.674 1107.1 497.259 1000.99C589.844 894.892 711.601 901.798 735.598 789.165C758.564 681.376 889.669 601.498 982.169 719.387C988.961 728.033 986.456 740.715 976.755 745.881" fill="black"/>
<path d="M1713 987.289C1713 987.289 1657.56 989.319 1589.03 989.052C1574.6 988.999 1535.92 943.106 1511.1 950.889C1493.26 956.48 1526.99 986.577 1522.36 986.559C1478.43 986.381 1440.52 986.221 1426.78 986.149C1416.02 986.078 1412.41 997.012 1416.86 1006.72C1423.24 1020.61 1437.14 1041.66 1460.13 1049C1501.22 1062.14 1580.53 1056.21 1605.06 1051.49C1658.67 1041.18 1701.18 1040.39 1701.18 1040.39L1713 987.289Z" fill="white"/>
<path d="M1426.67 990.518C1423.86 990.518 1421.77 991.542 1420.46 993.553C1418.55 996.515 1418.58 1001.22 1420.55 1005.55C1424.9 1015.17 1437.61 1038.37 1461.23 1046C1501.51 1059.02 1580.43 1052.91 1603.64 1048.39C1648.49 1039.66 1686.05 1037.65 1696.94 1037.22L1706.92 991.847C1691.57 992.332 1644.09 993.66 1588.41 993.445C1581.47 993.427 1572.18 986.37 1560.44 977.446C1544.7 965.506 1525.1 950.62 1512 954.786C1510.01 955.415 1509.78 956.187 1509.69 956.438C1508.35 960.801 1517.22 972.275 1521.02 977.177C1525.73 983.246 1527.48 985.508 1526.03 988.489C1525.28 989.997 1523.74 990.931 1522 990.931H1521.99C1478.21 990.752 1440.43 990.59 1426.74 990.518H1426.67V990.518ZM1530.68 1062C1504.77 1062 1477.93 1059.9 1458.76 1053.7C1432.06 1045.07 1418.01 1019.5 1413.21 1008.9C1410.1 1002.01 1410.28 994.451 1413.7 989.154C1416.52 984.79 1421.3 982.384 1426.78 982.42C1439.75 982.51 1474.36 982.653 1515.18 982.815C1515.01 982.6 1514.83 982.366 1514.67 982.151C1508.22 973.819 1499.4 962.435 1502 954.032C1502.73 951.716 1504.61 948.645 1509.57 947.065C1526.64 941.66 1548.08 957.928 1565.29 971C1574.15 977.734 1584.19 985.347 1588.45 985.365C1655.86 985.616 1711.27 983.605 1711.82 983.587C1713.08 983.533 1714.26 984.072 1715.06 985.042C1715.87 985.993 1716.17 987.286 1715.9 988.507L1704.13 1042.03C1703.74 1043.86 1702.14 1045.18 1700.28 1045.21C1699.85 1045.21 1657.6 1046.13 1605.18 1056.33C1591.76 1058.95 1561.89 1062 1530.68 1062" fill="black"/>
<path d="M1619.83 974.067C1667.58 975.281 1779.82 971.388 1824.18 912C1847.83 941.613 1869.71 972.709 1893.77 1001.95C1900.65 1010.31 1909.24 1011.63 1916.71 1008.81C1927.08 1031.17 1935.59 1054.32 1943 1077.87C1823.87 1100.4 1669.33 1082.93 1616.94 1075.78C1606.43 1074.36 1598.59 1065.44 1598.48 1054.83L1598 995.571C1597.89 983.497 1607.77 973.745 1619.83 974.067" fill="black"/>
<path d="M1086.29 289.745C1119.29 169.222 1243.74 98.2854 1364.26 131.289C1484.77 164.274 1555.72 288.723 1522.72 409.246C1489.71 529.768 1365.27 600.705 1244.76 567.702C1124.24 534.716 1053.28 410.267 1086.29 289.745H1086.29ZM985.481 305.252L1021.11 324.218C1019.67 340.191 1019.55 356.074 1020.77 371.707L985.015 390.243C967.323 399.422 958.345 419.625 963.397 438.897C968.451 458.168 986.184 471.38 1006.1 470.699L1046.46 469.301C1053.14 483.66 1061 497.446 1069.95 510.515L1048.19 544.54C1037.46 561.32 1039.79 583.298 1053.8 597.478C1067.81 611.64 1089.77 614.204 1106.68 603.663L1140.84 582.33C1153.68 591.347 1167.41 599.343 1181.88 606.226L1180.05 646.562C1179.15 666.461 1192.15 684.334 1211.38 689.604C1230.59 694.857 1250.91 686.109 1260.26 668.522L1279.23 632.884C1295.2 634.336 1311.07 634.443 1326.72 633.224L1345.26 668.989C1354.42 686.682 1374.62 695.646 1393.91 690.608C1413.18 685.553 1426.39 667.805 1425.69 647.907L1424.31 607.535C1438.67 600.866 1452.46 592.996 1465.51 584.051L1499.53 605.796C1516.33 616.534 1538.31 614.204 1552.47 600.203C1566.65 586.184 1569.22 564.224 1558.66 547.319L1537.34 513.15C1546.36 500.314 1554.34 486.582 1561.24 472.115L1601.56 473.944C1621.47 474.858 1639.35 461.843 1644.6 442.626C1649.87 423.408 1641.12 403.097 1623.52 393.739L1587.9 374.772C1589.33 358.799 1589.45 342.916 1588.24 327.284L1623.98 308.747C1641.68 299.569 1650.66 279.365 1645.6 260.094C1640.55 240.822 1622.82 227.61 1602.9 228.291L1562.55 229.69C1555.86 215.33 1548.01 201.544 1539.04 188.494L1560.81 154.451C1571.55 137.671 1569.22 115.693 1555.2 101.512C1541.2 87.3501 1519.24 84.7866 1502.33 95.3276L1468.16 116.661C1455.33 107.643 1441.59 99.6657 1427.13 92.7639L1428.96 52.4284C1429.85 32.5295 1416.86 14.6564 1397.62 9.38593C1378.4 4.13335 1358.11 12.8816 1348.73 30.4679L1329.77 66.1067C1313.81 64.6726 1297.93 64.547 1282.28 65.766L1263.74 30.0019C1254.58 12.308 1234.38 3.34456 1215.09 8.39995C1195.82 13.4374 1182.62 31.1853 1183.3 51.102L1184.7 91.4554C1170.33 98.1422 1156.55 105.994 1143.49 114.94L1109.47 93.1942C1092.68 82.456 1070.69 84.7867 1056.52 98.7876C1042.36 112.806 1039.79 134.767 1050.34 151.672L1071.67 185.841C1062.64 198.676 1054.66 212.408 1047.77 226.875L1007.44 225.047C987.536 224.132 969.659 237.147 964.396 256.365C959.134 275.583 967.89 295.894 985.481 305.252" fill="white"/>
<path d="M1089.21 291.835C1056.86 409.988 1126.67 532.425 1244.82 564.777C1302.07 580.46 1361.97 572.896 1413.53 543.501C1465.08 514.124 1502.11 466.412 1517.77 409.181C1533.44 351.933 1525.89 292.014 1496.5 240.466C1467.1 188.917 1419.41 151.887 1362.16 136.221C1244.01 103.869 1121.56 173.664 1089.21 291.835H1089.21ZM1303.86 580.837C1283.45 580.837 1262.91 578.112 1242.69 572.574C1120.25 539.039 1047.9 412.139 1081.43 289.702C1114.96 167.247 1241.85 94.9073 1364.3 128.425C1423.61 144.681 1473.06 183.038 1503.51 236.468C1533.98 289.899 1541.8 351.987 1525.56 411.314C1509.32 470.624 1470.96 520.057 1417.53 550.528C1382.31 570.602 1343.33 580.837 1303.86 580.837ZM1325.71 630.145C1327.22 630.145 1328.6 630.969 1329.3 632.313L1347.83 668.071C1356.18 684.202 1374.28 692.25 1391.87 687.644C1409.43 683.038 1421.26 667.139 1420.63 648.982L1419.25 608.636C1419.2 607.023 1420.12 605.518 1421.58 604.836C1435.69 598.276 1449.37 590.479 1462.2 581.679C1463.53 580.765 1465.28 580.729 1466.66 581.607L1500.66 603.367C1515.97 613.153 1535.69 611.056 1548.59 598.294C1561.5 585.515 1563.81 565.834 1554.18 550.42L1532.87 516.275C1532.01 514.895 1532.05 513.139 1532.98 511.813C1541.82 499.248 1549.74 485.644 1556.53 471.359C1557.23 469.889 1558.75 468.993 1560.37 469.064L1600.68 470.893C1618.8 471.717 1634.86 460.067 1639.64 442.537C1644.45 425.026 1636.59 406.833 1620.57 398.302L1584.94 379.338C1583.51 378.567 1582.66 377.026 1582.81 375.413C1584.24 359.658 1584.35 343.903 1583.15 328.596C1583.02 326.983 1583.88 325.442 1585.32 324.707L1621.07 306.174C1637.19 297.821 1645.23 279.701 1640.63 262.135C1636.02 244.57 1620.19 232.74 1601.98 233.35L1561.64 234.748C1559.97 234.802 1558.52 233.888 1557.84 232.418C1551.26 218.294 1543.48 204.636 1534.68 191.803C1533.75 190.458 1533.73 188.702 1534.61 187.34L1556.35 153.32C1566.14 138.014 1564.06 118.316 1551.28 105.411C1538.52 92.4876 1518.84 90.1932 1503.42 99.8003L1469.26 121.129C1467.88 121.99 1466.14 121.954 1464.8 121.004C1452.23 112.168 1438.63 104.245 1424.36 97.4524C1422.89 96.7533 1422 95.2476 1422.07 93.6345L1423.9 53.3062C1424.72 35.1674 1413.05 19.1439 1395.54 14.3403C1378.03 9.55469 1359.82 17.4053 1351.29 33.4291L1332.33 69.0612C1331.57 70.495 1330 71.3197 1328.4 71.1763C1312.66 69.7603 1296.93 69.6526 1281.6 70.8535C1279.99 70.979 1278.45 70.1187 1277.7 68.6848L1259.18 32.9271C1250.81 16.7957 1232.71 8.74812 1215.14 13.3545C1197.56 17.9609 1185.73 33.8591 1186.36 52.0158L1187.75 92.362C1187.81 93.993 1186.89 95.4809 1185.42 96.162C1171.3 102.722 1157.64 110.519 1144.8 119.319C1143.46 120.233 1141.71 120.269 1140.34 119.391L1106.32 97.6316C1091.02 87.8453 1071.32 89.9425 1058.4 102.704C1045.49 115.484 1043.19 135.164 1052.81 150.578L1074.13 184.741C1074.99 186.103 1074.94 187.86 1074.01 189.186C1065.18 201.75 1057.26 215.354 1050.46 229.64C1049.76 231.109 1048.23 232.006 1046.63 231.934L1006.31 230.106C988.127 229.281 972.146 240.932 967.35 258.461C962.554 275.973 970.4 294.165 986.433 302.714L1022.06 321.66C1023.5 322.431 1024.33 323.972 1024.19 325.585C1022.76 341.34 1022.65 357.095 1023.85 372.402C1023.98 374.015 1023.12 375.556 1021.68 376.291L985.929 394.824C969.804 403.195 961.758 421.298 966.364 438.863C970.967 456.428 986.858 468.258 1005.01 467.648L1045.37 466.25C1047.04 466.196 1048.49 467.111 1049.17 468.58C1055.73 482.704 1063.52 496.362 1072.33 509.195C1073.24 510.54 1073.27 512.296 1072.4 513.658L1050.64 547.678C1040.86 562.985 1042.94 582.683 1055.71 595.588C1068.48 608.511 1088.17 610.805 1103.57 601.198L1137.73 579.869C1139.11 579.008 1140.87 579.062 1142.19 579.994C1154.75 588.812 1168.36 596.753 1182.64 603.546C1184.1 604.245 1185.01 605.751 1184.94 607.364L1183.1 647.692C1182.28 665.831 1193.94 681.855 1211.45 686.658C1228.96 691.444 1247.17 683.611 1255.7 667.569L1274.67 631.937C1275.44 630.503 1277 629.678 1278.59 629.822C1294.35 631.238 1310.1 631.346 1325.39 630.145H1325.71V630.145ZM1381.92 697C1364.82 697 1348.87 687.608 1340.66 671.781L1323.35 638.39C1309.31 639.357 1294.94 639.25 1280.54 638.085L1262.84 671.369C1252.51 690.745 1230.5 700.226 1209.33 694.437C1188.14 688.647 1174.04 669.272 1175.04 647.316L1176.75 609.658C1163.77 603.331 1151.34 596.107 1139.75 588.131L1107.85 608.045C1089.22 619.677 1065.42 616.881 1049.98 601.27C1034.53 585.658 1032.01 561.819 1043.84 543.322L1064.16 511.544C1056.22 499.732 1049.11 487.275 1042.99 474.406L1005.29 475.714C983.307 476.467 964.125 462.164 958.556 440.906C952.986 419.667 962.713 397.764 982.214 387.655L1015.61 370.358C1014.64 356.306 1014.75 341.931 1015.92 327.539L982.642 309.83C963.252 299.506 953.762 277.514 959.566 256.328C965.366 235.142 984.705 221.054 1006.68 222.04L1044.34 223.761C1050.66 210.766 1057.89 198.345 1065.88 186.748L1045.96 154.844C1034.33 136.221 1037.12 112.419 1052.73 96.9686C1068.35 81.5363 1092.18 79.0088 1110.67 90.8384L1142.45 111.164C1154.27 103.224 1166.74 96.1081 1179.59 89.9962L1178.29 52.2846C1177.53 30.346 1191.84 11.1141 1213.08 5.55771C1234.34 -0.0165633 1256.24 9.716 1266.33 29.217L1283.65 62.6086C1297.7 61.6407 1312.07 61.7485 1326.46 62.9135L1344.17 29.6469C1354.48 10.2534 1376.47 0.754085 1397.67 6.56136C1418.86 12.3686 1432.95 31.7442 1431.96 53.6828L1430.24 91.3404C1443.22 97.6496 1455.64 104.891 1467.25 112.867L1499.14 92.9536C1517.78 81.3211 1541.58 84.117 1557.01 99.7285C1572.46 115.34 1574.99 139.179 1563.16 157.676L1542.84 189.455C1550.78 201.267 1557.89 213.741 1564 226.593L1601.7 225.284C1623.73 224.549 1642.87 238.835 1648.44 260.092C1654.02 281.332 1644.28 303.234 1624.78 313.343L1591.39 330.64C1592.36 344.692 1592.25 359.067 1591.09 373.459L1624.35 391.168C1643.75 401.492 1653.23 423.484 1647.44 444.67C1641.63 465.856 1622.2 479.962 1600.32 478.958L1562.66 477.255C1556.33 490.232 1549.09 502.653 1541.12 514.25L1561.03 546.154C1572.66 564.777 1569.88 588.58 1554.27 604.03C1538.66 619.48 1514.82 621.989 1496.33 610.16L1464.55 589.834C1452.74 597.774 1440.26 604.89 1427.41 611.02L1428.7 648.713C1429.47 670.652 1415.15 689.884 1393.91 695.441C1389.91 696.498 1385.88 697 1381.92 697" fill="black"/>
<path d="M1464.57 492.959C1423.66 531.969 1368.41 556.088 1307.42 556.41C1246.44 556.715 1190.94 533.187 1149.63 494.626C1197.11 479.646 1250.49 471.08 1306.97 470.775C1363.47 470.489 1416.94 478.481 1464.57 492.959Z" fill="black"/>
<path d="M1173.01 337.423C1192.97 265.496 1234.13 171.224 1311.32 182.818C1385.36 193.928 1420.22 275.19 1436.22 338.14C1445.96 376.45 1416.74 413.632 1377.21 413.847L1232.26 414.6C1191.84 414.815 1162.19 376.379 1173.01 337.423Z" fill="black"/>
<path d="M1236.82 253.92C1236.85 253.741 1236.92 253.401 1236.92 253.401L1368.52 252.397C1368.52 252.397 1368.57 252.612 1368.61 252.72C1370.35 259.278 1371.28 266.195 1371.32 273.345L1371.53 311.87C1371.66 337.656 1359.58 360.395 1341.19 373.691L1341.71 474.252C1341.82 494.267 1325.69 510.574 1305.68 510.681C1285.66 510.771 1269.36 494.644 1269.27 474.628L1268.75 375.536C1249.04 362.724 1235.78 339.34 1235.63 312.569L1235.4 269.116C1235.38 263.901 1235.87 258.812 1236.82 253.92" fill="white"/>
<path d="M1305.63 514.819C1294.95 514.819 1284.91 510.68 1277.31 503.172C1269.66 495.61 1265.43 485.522 1265.36 474.753L1264.86 376.808C1264.84 374.568 1266.63 372.758 1268.87 372.74H1268.89C1271.11 372.74 1272.92 374.532 1272.92 376.754L1273.44 474.717C1273.48 483.318 1276.88 491.381 1282.99 497.438C1289.05 503.441 1297.1 506.738 1305.63 506.738H1305.8C1314.41 506.702 1322.47 503.315 1328.51 497.187C1334.56 491.077 1337.88 482.977 1337.83 474.376L1337.32 376.808C1337.31 374.568 1339.1 372.758 1341.34 372.74H1341.36C1343.58 372.74 1345.37 374.532 1345.39 376.754L1345.89 474.34C1345.96 485.092 1341.82 495.234 1334.26 502.868C1326.68 510.519 1316.59 514.766 1305.84 514.819H1305.63" fill="black"/>
<path d="M1303.47 342.797C1295.05 342.797 1287.22 339.428 1281.42 333.3C1279.88 331.687 1279.95 329.125 1281.56 327.601C1283.17 326.06 1285.74 326.132 1287.28 327.763C1291.54 332.26 1297.29 334.733 1303.47 334.733H1303.58C1309.8 334.698 1315.55 332.189 1319.76 327.638C1321.29 326.007 1323.85 325.917 1325.46 327.44C1327.11 328.964 1327.2 331.508 1325.68 333.138C1320 339.231 1311.97 342.761 1303.62 342.797H1303.47" fill="black"/>
<path d="M1303.65 390.104C1264.13 390.104 1231.84 355.43 1231.62 312.658L1231.39 269.186C1231.28 249.135 1238.39 230.213 1251.42 215.931C1264.52 201.542 1282.03 193.586 1300.7 193.479C1320.62 193.371 1339.33 201.668 1353.45 216.845C1367.48 231.915 1375.26 252.002 1375.38 273.379L1375.58 311.887C1375.74 342.278 1359.36 370.16 1333.88 382.918C1331.88 383.922 1329.46 383.115 1328.47 381.126C1327.47 379.119 1328.27 376.7 1330.26 375.697C1353.04 364.3 1367.66 339.268 1367.5 311.941L1367.3 273.415C1367.21 254.063 1360.19 235.929 1347.54 222.328C1334.98 208.835 1318.29 201.506 1300.75 201.542C1284.34 201.632 1268.95 208.674 1257.39 221.361C1245.72 234.155 1239.36 251.124 1239.47 269.151L1239.68 312.604C1239.9 350.951 1268.55 382.022 1303.65 382.022H1303.98C1306.2 382.022 1308.01 383.814 1308.03 386.036C1308.03 388.258 1306.23 390.086 1304.01 390.086C1303.89 390.086 1303.76 390.104 1303.65 390.104" fill="black"/>
<path d="M1303.85 557C1282.29 557 1260.39 553.575 1238.86 546.403C1192.27 530.876 1152.72 499.175 1127.48 457.147C1126.33 455.246 1126.95 452.754 1128.86 451.606C1130.77 450.459 1133.26 451.087 1134.4 452.987C1158.66 493.366 1196.66 523.811 1241.4 538.747C1344.93 573.245 1457.23 517.123 1491.73 413.63C1526.26 310.137 1470.12 197.859 1366.61 163.343C1316.47 146.614 1262.82 150.433 1215.53 174.065C1168.25 197.679 1133 238.309 1116.28 288.442C1104.79 322.903 1102.96 359.732 1111.02 394.965C1111.52 397.135 1110.16 399.304 1107.98 399.788C1105.82 400.29 1103.64 398.928 1103.14 396.758C1094.76 360.091 1096.65 321.756 1108.61 285.896C1126.02 233.719 1162.7 191.422 1211.92 166.839C1261.13 142.239 1316.97 138.277 1369.16 155.687C1476.9 191.601 1535.33 308.47 1499.41 416.194C1470.66 502.367 1390.09 556.982 1303.85 557" fill="black"/>
<path d="M534.051 161C533.042 161 532.033 160.635 531.249 159.869C529.633 158.3 529.579 155.691 531.125 154.049L546.027 138.269C547.577 136.627 550.139 136.572 551.752 138.141C553.367 139.71 553.421 142.319 551.875 143.961L536.975 159.741C536.18 160.58 535.115 161 534.051 161" fill="black"/>
<path d="M482.049 214C481.042 214 480.033 213.649 479.247 212.946C477.633 211.508 477.579 209.134 479.125 207.629L494.025 193.163C495.573 191.658 498.141 191.608 499.753 193.046C501.367 194.484 501.421 196.876 499.875 198.364L484.975 212.829C484.178 213.615 483.115 214 482.049 214Z" fill="black"/>
<path d="M496.816 161C495.755 161 494.694 160.604 493.88 159.831L478.247 144.935C476.603 143.37 476.581 140.798 478.203 139.215C479.825 137.613 482.473 137.595 484.121 139.16L499.752 154.056C501.398 155.621 501.418 158.193 499.798 159.777C498.979 160.586 497.895 161 496.816 161Z" fill="black"/>
<path d="M549.165 213C548.192 213 547.22 212.638 546.474 211.898L532.144 197.64C530.635 196.125 530.616 193.68 532.102 192.147C533.592 190.632 536.021 190.615 537.528 192.113L551.856 206.371C553.365 207.869 553.384 210.331 551.898 211.846C551.147 212.621 550.154 213 549.165 213" fill="black"/>
<path d="M2870.04 188C2869.03 188 2868.02 187.617 2867.25 186.851C2865.63 185.3 2865.58 182.691 2867.12 181.049L2882.03 165.269C2883.58 163.627 2886.13 163.572 2887.75 165.141C2889.37 166.71 2889.42 169.319 2887.88 170.961L2872.97 186.741C2872.18 187.58 2871.12 188 2870.04 188" fill="black"/>
<path d="M2817.86 242C2816.9 242 2815.94 241.633 2815.2 240.898C2813.65 239.395 2813.6 236.895 2815.08 235.339L2829.32 220.216C2830.82 218.643 2833.26 218.59 2834.81 220.094C2836.35 221.597 2836.41 224.08 2834.91 225.653L2820.67 240.776C2819.91 241.58 2818.88 242 2817.86 242Z" fill="black"/>
<path d="M2832.16 188C2831.19 188 2830.22 187.638 2829.47 186.898L2815.14 172.645C2813.64 171.147 2813.61 168.686 2815.11 167.154C2816.59 165.639 2819.01 165.604 2820.52 167.119L2834.85 181.373C2836.37 182.87 2836.38 185.315 2834.9 186.847C2834.15 187.621 2833.16 188 2832.16 188" fill="black"/>
<path d="M2885.81 241C2884.75 241 2883.69 240.622 2882.87 239.831L2867.25 224.952C2865.61 223.368 2865.57 220.814 2867.21 219.212C2868.82 217.611 2871.46 217.593 2873.12 219.176L2888.75 234.055C2890.4 235.639 2890.42 238.193 2888.8 239.795C2887.98 240.604 2886.91 241 2885.81 241Z" fill="black"/>
<path d="M2935.22 2561C2933.17 2561 2931.47 2559.22 2931.44 2556.98L2931 2535.19C2930.95 2532.91 2932.61 2531.04 2934.7 2531C2936.81 2530.91 2938.53 2532.75 2938.56 2535.01L2939 2556.81C2939.05 2559.07 2937.39 2560.95 2935.3 2561H2935.22Z" fill="black"/>
<path d="M2936.22 2636C2934.17 2636 2932.47 2634.29 2932.44 2632.13L2932 2611.05C2931.95 2608.87 2933.61 2607.05 2935.7 2607C2937.8 2606.93 2939.53 2608.69 2939.56 2610.89L2940 2631.95C2940.05 2634.15 2938.39 2635.95 2936.3 2636H2936.22Z" fill="black"/>
<path d="M2888.02 2588C2885.81 2588 2884.02 2586.26 2884 2584.1C2884 2581.95 2885.76 2580.17 2887.98 2580.16L2908.96 2580H2909C2911.19 2580 2912.98 2581.74 2913 2583.88C2913.02 2586.05 2911.24 2587.81 2909.03 2587.83L2888.04 2588H2888.02" fill="black"/>
<path d="M2962 2588C2959.81 2588 2958.02 2586.04 2958 2583.64C2957.98 2581.19 2959.76 2579.22 2961.98 2579.2L2982.96 2579C2985.01 2578.98 2986.98 2580.94 2987 2583.38C2987.02 2585.81 2985.24 2587.8 2983.02 2587.82L2962.04 2588H2962" fill="black"/>
<path d="M207.382 472.724H207.421H207.382ZM224.488 473.027C219.226 473.027 213.977 474.151 209.023 476.381C189.561 485.141 180.707 508.494 189.285 528.422C193.473 538.145 201.122 545.585 210.825 549.367C220.317 553.078 230.671 552.81 239.978 548.618C259.437 539.858 268.291 516.505 259.713 496.577C255.527 486.854 247.878 479.414 238.175 475.632C233.736 473.902 229.109 473.027 224.488 473.027V473.027ZM224.515 560C218.914 560 213.305 558.965 207.921 556.86C196.203 552.293 186.97 543.319 181.924 531.598C171.623 507.656 182.305 479.611 205.739 469.049C217.017 463.982 229.566 463.661 241.079 468.139C252.799 472.706 262.03 481.68 267.076 493.401C277.377 517.343 266.695 545.389 243.261 555.95C237.258 558.644 230.892 560 224.515 560" fill="black"/>
<path d="M3103.41 2339.28C3084.45 2347.82 3075.81 2370.59 3084.18 2390.03C3088.26 2399.51 3095.71 2406.77 3105.17 2410.45C3114.42 2414.06 3124.53 2413.81 3133.58 2409.72C3152.56 2401.18 3161.18 2378.41 3152.83 2358.97C3148.75 2349.49 3141.28 2342.23 3131.82 2338.55C3122.57 2334.94 3112.47 2335.21 3103.41 2339.28V2339.28ZM3118.52 2421C3113.04 2421 3107.54 2419.99 3102.27 2417.92C3090.82 2413.46 3081.77 2404.67 3076.84 2393.2C3066.76 2369.77 3077.21 2342.3 3100.15 2331.97C3111.18 2327.01 3123.45 2326.68 3134.72 2331.08C3146.19 2335.54 3155.22 2344.33 3160.15 2355.8C3170.24 2379.23 3159.8 2406.7 3136.86 2417.03C3130.97 2419.68 3124.75 2421 3118.52 2421" fill="black"/>
<path d="M390.987 2997.02C385.11 2997.02 379.243 2998.26 373.709 3000.76C351.977 3010.51 342.089 3036.54 351.664 3058.73C356.342 3069.59 364.887 3077.87 375.722 3082.09C386.329 3086.22 397.895 3085.92 408.292 3081.25C430.024 3071.48 439.912 3045.47 430.334 3023.26C425.658 3012.42 417.116 3004.12 406.278 2999.9C401.319 2997.98 396.15 2997.02 390.987 2997.02V2997.02ZM391.018 3093C384.875 3093 378.722 3091.86 372.82 3089.56C359.965 3084.56 349.84 3074.75 344.306 3061.92C333.004 3035.7 344.723 3004.99 370.425 2993.44C382.791 2987.89 396.555 2987.53 409.182 2992.44C422.035 2997.43 432.159 3007.25 437.693 3020.09C448.996 3046.29 437.279 3077.01 411.575 3088.57C404.991 3091.52 398.009 3093 391.018 3093" fill="black"/>
<path d="M316.427 235.394H316.466H316.427ZM327.494 237.013C324.288 237.013 321.091 237.69 318.074 239.042C306.194 244.363 300.791 258.565 306.033 270.684C308.588 276.592 313.255 281.112 319.171 283.408C324.951 285.65 331.26 285.472 336.928 282.945C348.808 277.624 354.21 263.423 348.969 251.304C346.414 245.396 341.745 240.875 335.827 238.58C333.124 237.53 330.307 237.013 327.494 237.013V237.013ZM327.51 293C323.713 293 319.911 292.288 316.261 290.864C308.324 287.786 302.07 281.753 298.654 273.851C291.684 257.728 298.92 238.847 314.782 231.728C322.425 228.311 330.933 228.098 338.739 231.123C346.676 234.184 352.931 240.235 356.346 248.136C363.316 264.259 356.082 283.141 340.219 290.26C336.148 292.075 331.833 293 327.51 293" fill="black"/>
<path d="M2325.06 450C2324.05 450 2323.04 449.633 2322.25 448.898C2320.63 447.395 2320.58 444.912 2322.12 443.339L2337.03 428.216C2338.58 426.643 2341.15 426.59 2342.75 428.094C2344.37 429.597 2344.42 432.08 2342.88 433.653L2327.97 448.776C2327.18 449.58 2326.12 450 2325.06 450" fill="black"/>
<path d="M2273.23 504C2272.16 504 2271.11 503.633 2270.31 502.916C2268.62 501.413 2268.56 498.912 2270.17 497.339L2285.73 482.216C2287.34 480.643 2290.01 480.59 2291.7 482.094C2293.38 483.597 2293.44 486.097 2291.83 487.671L2276.27 502.794C2275.45 503.598 2274.34 504 2273.23 504" fill="black"/>
<path d="M2288 451C2286.98 451 2285.95 450.604 2285.18 449.831L2270.2 434.935C2268.62 433.37 2268.6 430.816 2270.15 429.215C2271.7 427.613 2274.25 427.595 2275.81 429.16L2290.81 444.056C2292.38 445.639 2292.4 448.194 2290.85 449.795C2290.06 450.604 2289.03 451 2288 451" fill="black"/>
<path d="M2340.83 503C2339.77 503 2338.71 502.621 2337.89 501.882L2322.25 487.634C2320.6 486.136 2320.58 483.676 2322.2 482.162C2323.82 480.63 2326.47 480.613 2328.11 482.11L2343.75 496.358C2345.4 497.855 2345.42 500.315 2343.8 501.83C2342.98 502.604 2341.9 503 2340.83 503Z" fill="black"/>
<path d="M255 2842.13C239.629 2842.13 227.124 2854.63 227.124 2870C227.124 2885.37 239.629 2897.88 255 2897.88C270.373 2897.88 282.876 2885.37 282.876 2870C282.876 2854.63 270.373 2842.13 255 2842.13ZM255 2906C235.15 2906 219 2889.86 219 2870C219 2850.16 235.15 2834 255 2834C274.85 2834 291 2850.16 291 2870C291 2889.86 274.85 2906 255 2906Z" fill="black"/>
</svg>
