<svg width="3334" height="3334" viewBox="0 0 3334 3334" fill="none" xmlns="http://www.w3.org/2000/svg">
<path d="M389.556 2520.29C358.4 2464.12 378.781 2393.37 435.08 2362.29C491.379 2331.2 562.277 2351.53 593.433 2407.71C624.589 2463.88 604.208 2534.63 547.909 2565.71C491.61 2596.82 420.713 2576.47 389.556 2520.29V2520.29ZM585.068 2679.35L624.667 2657.48L610.834 2610.12C619.095 2603.42 626.701 2596.13 633.571 2588.32L680.437 2603.81L703.774 2565.12L668.057 2530.99C671.791 2521.2 674.7 2511.09 676.758 2500.79L725.179 2490.81L726 2445.66L678.044 2433.95C676.383 2423.69 673.818 2413.49 670.384 2403.42L707.307 2370.64L685.392 2331.13L637.936 2344.92C631.22 2336.68 623.919 2329.08 616.087 2322.23L631.61 2275.48L592.833 2252.18L558.641 2287.82C548.81 2284.1 538.686 2281.19 528.374 2279.14L518.371 2230.81L473.121 2230L461.385 2277.86C451.099 2279.51 440.874 2282.07 430.796 2285.51L397.93 2248.65L358.331 2270.52L372.164 2317.88C363.905 2324.58 356.299 2331.87 349.429 2339.68L302.561 2324.19L279.226 2362.88L314.942 2397.01C311.209 2406.8 308.298 2416.91 306.24 2427.21L257.822 2437.19L257 2482.34L304.956 2494.05C306.615 2504.31 309.184 2514.53 312.616 2524.58L275.693 2557.36L297.608 2596.89L345.064 2583.08C351.78 2591.33 359.08 2598.92 366.913 2605.77L351.389 2652.54L390.169 2675.82L424.357 2640.18C434.189 2643.9 444.314 2646.81 454.626 2648.87L464.629 2697.19L509.879 2698L521.615 2650.16C531.901 2648.49 542.126 2645.93 552.204 2642.51L585.068 2679.35" fill="black"/>
<path d="M882.938 2938.91C832.182 2847.19 865.385 2731.71 957.096 2680.94C1048.81 2630.2 1164.3 2663.39 1215.05 2755.11C1265.81 2846.81 1232.6 2962.31 1140.89 3013.06C1049.18 3063.82 933.686 3030.61 882.942 2938.91H882.938ZM1201.42 3198.55L1265.93 3162.85L1243.39 3085.54C1256.86 3074.6 1269.25 3062.72 1280.43 3049.95L1356.78 3075.25L1394.79 3012.08L1336.61 2956.37C1342.69 2940.35 1347.44 2923.87 1350.78 2907.07L1429.66 2890.78L1431 2817.07L1352.88 2797.94C1350.17 2781.19 1346 2764.54 1340.4 2748.12L1400.55 2694.58L1364.85 2630.07L1287.54 2652.61C1276.6 2639.16 1264.72 2626.77 1251.95 2615.57L1277.25 2539.22L1214.08 2501.21L1158.37 2559.39C1142.36 2553.31 1125.87 2548.57 1109.07 2545.22L1092.77 2466.34L1019.06 2465L999.944 2543.12C983.187 2545.83 966.532 2550.02 950.114 2555.6L896.578 2495.46L832.072 2531.15L854.604 2608.46C841.147 2619.4 828.758 2631.3 817.569 2644.05L741.223 2618.77L703.208 2681.94L761.387 2737.63C755.307 2753.65 750.565 2770.13 747.211 2786.93L668.338 2803.24L667 2876.95L745.12 2896.06C747.823 2912.81 752.006 2929.46 757.597 2945.88L697.45 2999.42L733.149 3063.93L810.454 3041.39C821.396 3054.86 833.286 3067.25 846.05 3078.43L820.76 3154.78L883.929 3192.79L939.626 3134.61C955.64 3140.69 972.133 3145.43 988.932 3148.78L1005.23 3227.66L1078.94 3229L1098.06 3150.88C1114.81 3148.17 1131.47 3144 1147.89 3138.4L1201.42 3198.55" fill="black"/>
<path d="M100.286 536H2424.66C2455.82 536 2483.02 561.269 2485.41 592.427L2600.83 2100.57C2603.22 2131.75 2579.9 2157 2548.72 2157H224.344C193.181 2157 165.987 2131.75 163.603 2100.57L48.1679 592.427C45.7818 561.269 69.1086 536 100.273 536" fill="white"/>
<path d="M99.4121 539.348C85.5469 539.348 72.9296 544.715 63.8938 554.49C54.8147 564.284 50.4024 577.366 51.468 591.298L166.889 2100.07C169.103 2129.07 194.482 2152.65 223.463 2152.65H2547.52C2561.39 2152.65 2574.02 2147.29 2583.05 2137.51C2592.13 2127.72 2596.54 2114.63 2595.47 2100.7L2480.07 591.93C2477.84 562.929 2452.45 539.348 2423.48 539.348H99.4121ZM2547.55 2161H223.49C190.251 2161 161.144 2133.95 158.603 2100.7L43.1817 591.93C41.9355 575.65 47.1316 560.345 57.8055 548.816C68.4397 537.324 83.2242 531 99.4392 531H2423.5C2456.73 531 2485.85 558.05 2488.39 591.298L2603.82 2100.07C2605.06 2116.35 2599.86 2131.66 2589.19 2143.18C2578.55 2154.68 2563.76 2161 2547.54 2161" fill="black"/>
<path d="M1912.89 1719C1910.78 1719 1908.98 1717.32 1908.81 1715.14L1901.01 1611.49C1900.84 1609.2 1902.54 1607.2 1904.79 1607.02C1906.98 1606.82 1909.02 1608.57 1909.18 1610.86L1916.99 1714.5C1917.15 1716.8 1915.46 1718.8 1913.21 1718.98C1913.1 1718.98 1913 1719 1912.89 1719" fill="black"/>
<path d="M1850.77 2072H382.986C337.67 2072 299.464 2036.52 296.003 1991.21L267.012 1611.5C266.837 1609.2 268.557 1607.19 270.854 1607.01C273.127 1606.85 275.156 1608.57 275.329 1610.87L304.319 1990.58C307.447 2031.53 342.002 2063.63 382.986 2063.63H1850.77C1872.99 2063.63 1893.54 2054.63 1908.64 2038.29C1923.75 2021.95 1931.14 2000.71 1929.44 1978.5L1920.06 1855.71C1919.88 1853.41 1921.6 1851.4 1923.89 1851.22C1926.13 1851.05 1928.19 1852.77 1928.37 1855.07L1937.75 1977.86C1939.59 2002.06 1931.23 2026.15 1914.77 2043.96C1898.31 2061.78 1874.98 2072 1850.77 2072" fill="black"/>
<path d="M228.948 1054C226.798 1054 224.978 1052.33 224.812 1050.14L208.251 832.169C206.411 807.956 214.756 783.852 231.141 766.037C247.523 748.203 270.751 738 294.857 738H347.848C350.144 738 352 739.867 352 742.168C352 744.488 350.144 746.355 347.848 746.355H294.857C272.734 746.355 252.268 755.362 237.232 771.71C222.197 788.075 214.844 809.316 216.532 831.535L233.091 1049.51C233.267 1051.81 231.555 1053.82 229.268 1053.98C229.162 1054 229.053 1054 228.948 1054" fill="black"/>
<path d="M956.831 747H487.169C484.864 747 483 745.213 483 742.991C483 740.787 484.864 739 487.169 739H956.831C959.136 739 961 740.787 961 742.991C961 745.213 959.136 747 956.831 747Z" fill="black"/>
<path d="M2009.81 1294.64H2409.32L2399.19 1162.36H1999.68L2009.81 1294.64ZM2413.83 1303H2005.94C2003.75 1303 2001.94 1301.32 2001.78 1299.13L1991.01 1158.51C1990.92 1157.35 1991.32 1156.19 1992.12 1155.34C1992.91 1154.49 1994.02 1154 1995.17 1154H2403.06C2405.25 1154 2407.06 1155.68 2407.22 1157.87L2417.99 1298.49C2418.08 1299.65 2417.68 1300.81 2416.88 1301.66C2416.09 1302.51 2414.98 1303 2413.83 1303Z" fill="black"/>
<path d="M2029.76 1550.71H2428.34L2418.24 1419.31H2019.66L2029.76 1550.71ZM2432.84 1559H2025.9C2023.72 1559 2021.91 1557.33 2021.75 1555.17L2011.01 1415.48C2010.92 1414.33 2011.32 1413.18 2012.11 1412.33C2012.91 1411.49 2014.01 1411 2015.16 1411H2422.1C2424.28 1411 2426.09 1412.67 2426.25 1414.83L2436.99 1554.54C2437.08 1555.69 2436.68 1556.82 2435.89 1557.67C2435.09 1558.51 2433.99 1559 2432.84 1559Z" fill="black"/>
<path d="M2049.76 1806.69H2448.34L2438.25 1675.29H2039.66L2049.76 1806.69ZM2452.84 1815H2045.9C2043.74 1815 2041.91 1813.33 2041.75 1811.17L2031.01 1671.46C2030.92 1670.31 2031.32 1669.18 2032.11 1668.33C2032.91 1667.49 2034.01 1667 2035.16 1667H2442.1C2444.28 1667 2446.09 1668.67 2446.27 1670.83L2456.99 1810.54C2457.08 1811.69 2456.68 1812.82 2455.89 1813.67C2455.11 1814.51 2453.99 1815 2452.84 1815Z" fill="black"/>
<path d="M2069.76 2063.64H2468.34L2458.24 1931.35H2059.67L2069.76 2063.64ZM2472.84 2072H2065.9C2063.74 2072 2061.91 2070.32 2061.75 2068.13L2051.01 1927.49C2050.92 1926.33 2051.34 1925.19 2052.11 1924.32C2052.91 1923.47 2054.01 1923 2055.18 1923H2462.1C2464.28 1923 2466.09 1924.67 2466.27 1926.86L2476.99 2067.49C2477.08 2068.65 2476.68 2069.81 2475.89 2070.66C2475.11 2071.51 2473.99 2072 2472.84 2072Z" fill="black"/>
<path d="M1990.58 1045.64H2390.3L2367.42 746.356H1967.68L1990.58 1045.64ZM2394.82 1054H1986.7C1984.51 1054 1982.7 1052.33 1982.54 1050.14L1959.01 742.495C1958.92 741.335 1959.32 740.193 1960.12 739.341C1960.91 738.471 1962.02 738 1963.18 738H2371.3C2373.49 738 2375.3 739.686 2375.46 741.861L2398.99 1049.5C2399.08 1050.66 2398.68 1051.81 2397.88 1052.66C2397.09 1053.53 2395.98 1054 2394.82 1054" fill="black"/>
<path d="M1790 963.195C1790 963.195 1978.52 1035.99 2205.3 851.677C2309.35 767.085 2372.68 642.23 2381.55 508.358C2383.26 482.209 2394.94 457.704 2414.17 439.904L2554.86 350.18C2557.62 348.427 2561.18 348.644 2563.69 350.722C2566.44 352.963 2566.07 357.462 2565.93 359.287C2564.59 375.552 2520.64 415.381 2504.91 450.855C2499.97 461.987 2494.68 479.751 2497.1 505.593C2516.85 499.684 2536.6 493.792 2556.38 487.901C2560.6 486.636 2565.19 487.865 2568.22 491.064C2571.78 494.859 2571.02 500.714 2570.72 503.081C2568.17 522.779 2521.82 555.397 2495.76 582.703C2484.98 594.016 2469.94 612.503 2457.04 640.839C2462.64 708.642 2465.37 861.273 2376.56 1015.35C2210.43 1303.55 1873.79 1337.07 1838.5 1340L1790 963.195" fill="white"/>
<path d="M1795.18 969.257L1842.33 1335.33C1894.99 1330.32 2214.48 1288.96 2373.61 1013.23C2453.69 874.469 2461.31 734.356 2453.61 641.267C2453.54 640.562 2453.69 639.84 2453.97 639.189C2464.31 616.499 2477.61 596.574 2493.52 579.936C2502.19 570.849 2513.16 561.111 2523.75 551.718C2543.51 534.213 2565.9 514.359 2567.42 502.671C2567.65 500.792 2568.23 496.42 2566.01 494.072C2564.04 491.994 2561.11 491.218 2558.38 492.031L2499.05 509.716C2497.85 510.077 2496.55 509.879 2495.51 509.174C2494.48 508.47 2493.81 507.35 2493.7 506.103C2491.73 485.039 2494.48 465.945 2501.87 449.307C2510.11 430.754 2525.52 411.478 2539.11 394.479C2550.92 379.738 2562.05 365.828 2562.59 359.125C2562.86 355.693 2562.34 354.519 2561.87 354.121C2560.73 353.182 2559.16 353.092 2557.93 353.887L2417.43 443.381C2399.05 460.507 2388.03 483.703 2386.37 508.759C2377.38 644.247 2312.54 770.414 2208.44 854.923C2090.34 950.794 1982.68 976.23 1913.15 980.692C1852.76 984.54 1810.65 974.026 1795.18 969.257V969.257ZM1838.7 1344C1836.62 1344 1834.85 1342.46 1834.57 1340.37L1786.03 963.711C1785.85 962.248 1786.45 960.802 1787.6 959.899C1788.76 958.996 1790.3 958.761 1791.67 959.285C1793.53 960.008 1980.89 1028.89 2203.18 848.437C2305.47 765.41 2369.21 641.393 2378.03 508.217C2379.84 480.903 2391.91 455.611 2412.03 437.004C2412.21 436.823 2412.41 436.679 2412.62 436.534L2553.43 346.841C2557.73 344.113 2563.24 344.438 2567.16 347.672C2571.59 351.321 2571.08 357.464 2570.9 359.794C2570.15 369.043 2559.34 382.574 2545.64 399.682C2532.36 416.302 2517.28 435.107 2509.49 452.685C2503.28 466.667 2500.64 482.637 2501.61 500.25L2555.99 484.046C2561.78 482.311 2567.92 483.956 2572.06 488.345C2577.01 493.566 2576.04 500.955 2575.68 503.755C2573.76 518.532 2552.16 537.681 2529.3 557.95C2518.82 567.236 2507.99 576.846 2499.54 585.698C2484.52 601.415 2471.9 620.239 2462.02 641.664C2469.66 735.946 2461.67 877.305 2380.84 1017.4C2214.87 1304.98 1877.03 1340.86 1839.06 1344H1838.7" fill="black"/>
<path d="M590.685 2068H1497.09C1500.94 1743.5 1630.27 1347.06 1630.27 1347.06L1883.08 1365.84L1913 918.845C1913 918.845 1655.3 899.793 1446.72 881.826C1305.9 869.697 1044.87 920.689 890.186 955.087C810.9 972.729 740.604 1018.21 691.918 1083.17L547 1276.55L704.307 1365.84C569.493 1593.26 570.687 1882.42 590.705 2068" fill="black"/>
<path d="M1216.23 1429.76L1254.95 2071.38C1255.55 2081.16 1250.22 2090.27 1241.55 2094.3L491.299 2444.87C483.819 2448.36 475.779 2447.36 469.559 2443.35C463.573 2439.48 445.911 2428.35 445.911 2428.35L420.045 1783.11C419.454 1773.33 424.787 1764.2 433.452 1760.17L1186.75 1398C1186.75 1398 1200.05 1407.24 1206.39 1411.77C1211.87 1415.71 1215.75 1422.07 1216.22 1429.76" fill="black"/>
<path d="M1192.26 1415.29L1230.95 2057.24C1231.55 2067.02 1226.23 2076.14 1217.56 2080.17L470.217 2428.88C455.554 2435.71 438.736 2425.28 437.738 2408.71L399.045 1766.76C398.454 1756.98 403.779 1747.86 412.437 1743.83L1159.78 1395.12C1174.44 1388.29 1191.26 1398.72 1192.26 1415.29" fill="white"/>
<path d="M1169.97 1397.36C1167.35 1397.36 1164.72 1397.94 1162.22 1399.09L413.392 1747.67C406.318 1750.96 401.892 1758.56 402.376 1766.56L441.148 2408.28C441.544 2414.84 445.079 2420.72 450.602 2424.01C455.927 2427.19 462.173 2427.52 467.767 2424.91L1216.6 2076.33C1223.67 2073.04 1228.08 2065.45 1227.61 2057.44L1188.83 1415.72C1188.44 1409.16 1184.9 1403.29 1179.38 1400C1176.44 1398.24 1173.21 1397.36 1169.97 1397.36H1169.97ZM460.013 2435C455.3 2435 450.612 2433.72 446.339 2431.19C438.437 2426.47 433.385 2418.1 432.823 2408.79L394.051 1767.07C393.362 1755.68 399.723 1744.84 409.879 1740.1L1158.71 1391.54C1166.84 1387.74 1175.94 1388.23 1183.67 1392.82C1191.57 1397.54 1196.62 1405.91 1197.18 1415.22L1235.95 2056.94C1236.64 2068.34 1230.29 2079.17 1220.12 2083.91L471.311 2432.47C467.675 2434.17 463.841 2435 460.026 2435" fill="black"/>
<path d="M1142.17 1365.27L1180.96 2006.6C1181.55 2016.37 1176.21 2025.48 1167.53 2029.52L418.39 2377.88C403.692 2384.71 386.833 2374.28 385.831 2357.73L347.045 1716.4C346.453 1706.64 351.791 1697.52 360.469 1693.49L1109.61 1345.12C1124.31 1338.29 1141.17 1348.72 1142.17 1365.27Z" fill="white"/>
<path d="M1118.13 1347.36C1115.51 1347.36 1112.89 1347.93 1110.4 1349.09L363.345 1697.33C356.292 1700.62 351.875 1708.2 352.36 1716.22L391.04 2357.29C391.433 2363.85 394.961 2369.72 400.475 2373C405.778 2376.18 412.022 2376.49 417.59 2373.91L1164.64 2025.67C1171.7 2022.38 1176.11 2014.8 1175.63 2006.8L1136.95 1365.7C1136.55 1359.15 1133.03 1353.28 1127.51 1349.99C1124.58 1348.24 1121.36 1347.36 1118.13 1347.36H1118.13ZM409.855 2384C405.154 2384 400.477 2382.72 396.213 2380.17C388.331 2375.48 383.292 2367.1 382.73 2357.8L344.051 1716.71C343.363 1705.33 349.706 1694.49 359.836 1689.78L1106.89 1341.54C1114.99 1337.75 1124.06 1338.22 1131.78 1342.82C1139.66 1347.52 1144.71 1355.9 1145.27 1365.2L1183.95 2006.29C1184.64 2017.69 1178.29 2028.5 1168.16 2033.23L421.109 2381.45C417.482 2383.15 413.662 2384 409.855 2384" fill="black"/>
<path d="M1098.87 1419.66L1132.96 1985.53C1133.48 1994.14 1128.79 2002.19 1121.16 2005.75L462.746 2313.12C449.827 2319.16 435.009 2309.95 434.13 2295.35L400.039 1729.47C399.519 1720.86 404.212 1712.81 411.838 1709.26L1070.25 1401.88C1083.17 1395.84 1097.99 1405.05 1098.87 1419.66" fill="white"/>
<path d="M1078.4 1405.36C1076.17 1405.36 1073.93 1405.85 1071.8 1406.84L412.788 1713.76C406.748 1716.56 402.965 1723.06 403.375 1729.93L437.502 2294.94C437.84 2300.56 440.86 2305.58 445.581 2308.4C450.115 2311.11 455.447 2311.38 460.22 2309.16L1119.23 2002.25C1125.27 1999.44 1129.05 1992.93 1128.64 1986.07L1094.51 1421.06C1094.17 1415.46 1091.15 1410.42 1086.43 1407.62C1083.92 1406.12 1081.17 1405.36 1078.4 1405.36H1078.4ZM453.591 2319C449.355 2319 445.145 2317.84 441.305 2315.57C434.212 2311.32 429.676 2303.81 429.17 2295.44L395.045 1730.43C394.431 1720.17 400.143 1710.44 409.261 1706.19L1068.27 1399.29C1075.57 1395.88 1083.75 1396.29 1090.7 1400.45C1097.79 1404.67 1102.33 1412.19 1102.84 1420.55L1136.95 1985.58C1137.57 1995.82 1131.86 2005.56 1122.74 2009.81L463.735 2316.72C460.471 2318.24 457.026 2319 453.597 2319" fill="black"/>
<path d="M956.183 2086C954.608 2086 953.099 2085.1 952.391 2083.58C951.418 2081.51 952.323 2079.04 954.417 2078.07L1118.19 2002.11C1124.24 1999.3 1128.03 1992.83 1127.62 1985.98L1123.82 1923.4C1123.68 1921.11 1125.44 1919.13 1127.74 1919.01C1130.05 1918.88 1132.02 1920.61 1132.16 1922.9L1135.95 1985.49C1136.57 1995.71 1130.85 2005.42 1121.71 2009.64L957.941 2085.6C957.369 2085.87 956.77 2086 956.183 2086Z" fill="black"/>
<path d="M432.193 1704C430.618 1704 429.109 1703.12 428.397 1701.6C427.416 1699.52 428.316 1697.03 430.41 1696.06L539.032 1645.4C541.142 1644.41 543.621 1645.33 544.603 1647.4C545.584 1649.48 544.684 1651.95 542.59 1652.95L433.968 1703.6C433.393 1703.87 432.787 1704 432.193 1704" fill="black"/>
<path d="M595.858 1300L823.112 1433.56C823.112 1433.56 633.454 1743.12 921.72 2070.9L1108 2048.04C1108 2048.04 1067.96 2077.9 1026.71 2085.38C985.463 2092.84 976.64 2136.77 976.64 2136.77L1061.3 2183.21C1061.3 2183.21 957.177 2280.03 891.974 2242.25C826.774 2204.5 284.158 1798.27 595.853 1300" fill="white"/>
<path d="M597.362 1305.82C509.512 1448.1 483.727 1595.81 520.721 1744.9C586.946 2011.83 835.927 2205.72 894.014 2239.41C948.45 2270.96 1033.81 2202.12 1053.96 2184.74L974.534 2141.13C972.938 2140.24 972.096 2138.43 972.454 2136.65C972.548 2136.18 982.336 2089.81 1025.84 2081.92C1050.87 2077.38 1075.7 2064.19 1090.78 2054.96L922.156 2075.68C920.779 2075.87 919.43 2075.32 918.518 2074.29C768.708 1903.75 749.725 1738.16 760.182 1629.29C770.14 1525.61 808.032 1452.19 817.425 1435.31L597.362 1305.82ZM926.49 2256C913.674 2256 901.247 2253.25 889.84 2246.62C831.152 2212.58 579.562 2016.66 512.628 1746.91C474.773 1594.34 501.625 1443.28 592.436 1297.96C593.634 1296.05 596.127 1295.43 598.081 1296.57L825.209 1430.22C826.173 1430.8 826.869 1431.72 827.138 1432.8C827.41 1433.89 827.237 1435.04 826.65 1436C826.182 1436.76 779.52 1514.25 768.446 1630.48C758.266 1737.26 776.95 1899.56 923.332 2067.14L1107.32 2044.54C1109.19 2044.25 1110.99 2045.35 1111.7 2047.12C1112.4 2048.87 1111.84 2050.88 1110.32 2052.02C1108.66 2053.26 1069.04 2082.57 1027.33 2090.14C995.322 2095.94 984.159 2125.84 981.388 2135.36L1063.17 2180.26C1064.34 2180.91 1065.13 2182.09 1065.3 2183.42C1065.46 2184.74 1064.98 2186.06 1064 2186.98C1060.4 2190.34 989.002 2256 926.488 2256" fill="black"/>
<path d="M1227.85 747.228C1205.26 761.326 1169.79 783.468 1130.28 771.647C1088.21 759.067 1053.29 711.476 1061.1 679.629C1067.94 651.722 1103.55 652.354 1108.99 623.29C1114.12 595.925 1084.42 585.55 1082.38 551.932C1079.68 507.125 1128.03 453.678 1172.85 452.395C1200.36 451.618 1203.14 471.138 1234.94 473.054C1278.27 475.657 1286.87 440.267 1336.05 435.495C1371.48 432.061 1400.39 447.171 1424.75 459.914C1460.86 478.802 1484.6 491.201 1486.84 510.613C1491.42 550.359 1398.66 556.722 1312.99 657.09C1281.84 693.583 1270.13 720.839 1227.85 747.228" fill="black"/>
<path d="M1374.24 780.168C1407.78 689.199 1334.61 573.535 1329.23 564C1329.23 564 1287.85 598.448 1232.66 594.739C1177.45 591.048 1182.05 665.734 1182.05 665.734C1152.03 659.112 1146.8 679.285 1154.23 720.463C1161.65 761.659 1202.57 749.61 1202.57 749.61C1208.28 756.431 1214.27 762.347 1220.42 767.539L1150.34 871.191C1131.2 899.487 1104.47 921.813 1073.21 935.6L1044.8 948.138C1037.4 951.394 1038.9 962.34 1046.92 963.408C1102.44 970.862 1232.8 980.161 1330.62 923.243C1336.5 919.841 1334.96 910.922 1328.32 909.51L1305.55 904.662C1289.38 901.206 1280.95 883.295 1288.6 868.64L1324.14 800.703C1336.52 800.196 1347.16 798.532 1354.89 796.921C1363.84 795.076 1371.08 788.726 1374.23 780.168" fill="white"/>
<path d="M1373.96 781.192H1374.01H1373.96ZM1202.53 746.496C1203.76 746.496 1204.93 747.021 1205.73 747.979C1210.97 754.253 1216.79 760.111 1223.05 765.39C1224.67 766.764 1225.02 769.151 1223.82 770.905L1153.82 874.486C1134.25 903.451 1107 926.232 1075.02 940.334L1046.66 952.864C1044.17 953.967 1044.29 956.263 1044.39 956.95C1044.48 957.619 1045 959.825 1047.65 960.187C1099.6 967.148 1230.97 977.236 1328.32 920.573C1330.01 919.597 1329.94 917.951 1329.83 917.301C1329.76 916.758 1329.31 914.968 1327.23 914.534L1304.53 909.688C1295.52 907.772 1288.13 901.896 1284.21 893.579C1280.3 885.262 1280.5 875.824 1284.75 867.67L1320.25 799.779C1320.94 798.459 1322.28 797.591 1323.78 797.537C1333.79 797.121 1344.17 795.856 1353.8 793.849C1361.29 792.312 1367.36 787.032 1370.06 779.746C1397.66 704.804 1350.57 610.298 1327.81 571.354C1316.1 579.869 1279.36 603.175 1232.29 600.065C1220.07 599.251 1210.11 602.56 1202.68 609.955C1184.13 628.379 1186.18 666.202 1186.2 666.582C1186.28 667.884 1185.74 669.149 1184.75 669.999C1183.75 670.849 1182.41 671.174 1181.14 670.903C1171.53 668.788 1164.96 669.601 1161.02 673.38C1154.6 679.563 1153.72 695.076 1158.36 720.787C1160.3 731.562 1164.87 739.247 1171.95 743.64C1184.5 751.433 1201.2 746.714 1201.38 746.659C1201.76 746.551 1202.14 746.496 1202.53 746.496H1202.53ZM1130.24 974C1095.38 974 1065.66 971.017 1046.54 968.449C1041.08 967.726 1036.9 963.568 1036.13 958.125C1035.35 952.647 1038.22 947.458 1043.28 945.234L1071.65 932.705C1102.19 919.217 1128.22 897.484 1146.91 869.822L1214.84 769.296C1209.92 764.956 1205.29 760.256 1201.01 755.32C1195.01 756.567 1180.12 758.502 1167.6 750.763C1158.4 745.086 1152.53 735.504 1150.14 722.287C1144.83 692.798 1146.4 675.857 1155.23 667.36C1160.45 662.333 1167.83 660.489 1177.76 661.827C1177.82 649.948 1179.83 620.911 1196.78 604.042C1205.98 594.876 1218.11 590.735 1232.84 591.73C1285.63 595.292 1325.94 562.295 1326.34 561.952C1327.3 561.174 1328.56 560.849 1329.77 561.066C1330.99 561.283 1332.05 562.042 1332.65 563.127C1332.92 563.597 1333.37 564.375 1333.99 565.405C1362.48 613.661 1406.08 706.069 1377.88 782.639C1374.19 792.655 1365.82 799.906 1355.5 802.039C1346.06 803.992 1336.32 805.239 1326.52 805.764L1292.14 871.539C1289.12 877.361 1288.97 884.087 1291.76 890.017C1294.56 895.966 1299.84 900.16 1306.26 901.516L1328.96 906.362C1333.73 907.374 1337.31 911.153 1338.07 915.981C1338.85 920.736 1336.66 925.382 1332.52 927.787C1269 964.761 1191.64 974 1130.24 974" fill="black"/>
<path d="M1314.89 806C1284.95 806 1257.3 789.513 1256.02 788.736C1254.04 787.543 1253.41 784.976 1254.6 783.005C1255.8 781.035 1258.37 780.42 1260.35 781.595C1260.67 781.794 1292.9 801.011 1323.29 797.142C1325.58 796.871 1327.68 798.462 1327.97 800.757C1328.26 803.035 1326.64 805.132 1324.34 805.422C1321.19 805.819 1318.02 806 1314.89 806Z" fill="black"/>
<path d="M1173.06 1028C1139.44 1028 1109.84 1024.39 1085.15 1019.52C1007.51 1004.17 961.791 974.064 959.884 972.794C957.958 971.506 957.421 968.875 958.683 966.924C959.946 964.955 962.532 964.422 964.455 965.691C966.285 966.906 1149.79 1085.82 1398.04 965.415C1400.12 964.403 1402.62 965.305 1403.59 967.421C1404.59 969.537 1403.7 972.077 1401.62 973.071C1315.19 1015.01 1236.89 1028 1173.05 1028" fill="white"/>
<path d="M2594.9 20.0519H2594.7C2578.23 19.2388 2561.29 19.1304 2545.04 19.6725C2545 19.6906 2544.95 19.6905 2544.9 19.6905C2542.66 19.6905 2540.81 17.9016 2540.74 15.643C2540.65 13.3482 2542.46 11.415 2544.77 11.3427C2561.22 10.7826 2578.41 10.909 2595.1 11.7221C2597.39 11.8305 2599.18 13.7819 2599.05 16.0767C2598.95 18.3172 2597.1 20.0519 2594.9 20.0519V20.0519ZM2445.7 31.2907C2443.77 31.2907 2442.01 29.9358 2441.62 27.9663C2441.17 25.7076 2442.63 23.5031 2444.87 23.0333C2461.23 19.7266 2477.95 17.0523 2494.58 15.1009C2496.9 14.8298 2498.94 16.4743 2499.21 18.769C2499.48 21.0457 2497.83 23.1236 2495.56 23.3947C2479.14 25.31 2462.66 27.9482 2446.53 31.2187C2446.26 31.2729 2445.97 31.2907 2445.7 31.2907V31.2907ZM2693.92 33.1879C2693.61 33.1879 2693.32 33.1519 2693.02 33.0796C2676.96 29.5561 2660.51 26.6831 2644.13 24.5148C2641.85 24.2076 2640.25 22.1119 2640.55 19.8352C2640.84 17.5404 2642.92 15.9503 2645.23 16.2394C2661.83 18.4438 2678.51 21.3708 2694.8 24.9485C2697.06 25.4364 2698.47 27.6589 2697.98 29.8995C2697.55 31.851 2695.83 33.1879 2693.92 33.1879ZM2349.82 59.3341C2348.16 59.3341 2346.57 58.322 2345.94 56.6777C2345.11 54.5275 2346.18 52.1065 2348.32 51.2753C2363.93 45.2583 2379.96 39.8195 2396.02 35.1215C2398.22 34.471 2400.53 35.7538 2401.18 37.9582C2401.82 40.1807 2400.55 42.4938 2398.35 43.1443C2382.53 47.7519 2366.71 53.1183 2351.34 59.063C2350.84 59.2437 2350.33 59.3341 2349.82 59.3341V59.3341ZM2789.38 62.6948C2788.85 62.6948 2788.33 62.6046 2787.82 62.4058C2772.49 56.2081 2756.74 50.6065 2741.02 45.7459C2738.81 45.0593 2737.58 42.7287 2738.27 40.5243C2738.94 38.3198 2741.29 37.0729 2743.47 37.7775C2759.44 42.7104 2775.4 48.3841 2790.95 54.6721C2793.08 55.5214 2794.11 57.9607 2793.24 60.0928C2792.59 61.719 2791.04 62.6948 2789.38 62.6948ZM2260.03 103.007C2258.61 103.007 2257.22 102.284 2256.44 100.965C2255.27 98.9776 2255.92 96.4296 2257.9 95.2551C2272.26 86.7085 2287.16 78.6859 2302.18 71.368C2304.26 70.3561 2306.77 71.2234 2307.76 73.2832C2308.78 75.3612 2307.91 77.8548 2305.83 78.8666C2291.02 86.0762 2276.32 94.0086 2262.15 102.429C2261.48 102.826 2260.76 103.007 2260.03 103.007V103.007ZM2878.59 107.795C2877.83 107.795 2877.09 107.596 2876.4 107.181C2862.35 98.5256 2847.76 90.3766 2833.04 82.9322C2831 81.8842 2830.17 79.3906 2831.2 77.3308C2832.25 75.2709 2834.76 74.4579 2836.82 75.4879C2851.73 83.0227 2866.52 91.2982 2880.77 100.08C2882.72 101.29 2883.34 103.856 2882.13 105.826C2881.35 107.09 2879.98 107.795 2878.59 107.795V107.795ZM2178.72 161.045C2177.52 161.045 2176.35 160.539 2175.54 159.563C2174.04 157.81 2174.26 155.172 2176.01 153.691C2188.81 142.849 2202.17 132.441 2215.74 122.756C2217.61 121.419 2220.21 121.853 2221.55 123.732C2222.89 125.611 2222.45 128.213 2220.58 129.55C2207.19 139.109 2194.01 149.372 2181.41 160.051C2180.61 160.72 2179.65 161.045 2178.72 161.045V161.045ZM2959.02 167.116C2958.05 167.116 2957.07 166.772 2956.28 166.086C2943.87 155.226 2930.83 144.746 2917.58 134.971C2915.72 133.598 2915.32 130.996 2916.69 129.135C2918.05 127.273 2920.67 126.894 2922.53 128.249C2935.96 138.169 2949.18 148.794 2961.77 159.798C2963.5 161.316 2963.68 163.954 2962.16 165.688C2961.35 166.628 2960.18 167.116 2959.02 167.116V167.116ZM2108.09 231.767C2107.15 231.767 2106.19 231.442 2105.41 230.773C2103.64 229.291 2103.43 226.653 2104.91 224.901C2115.69 212.126 2127.16 199.658 2138.99 187.805C2140.61 186.179 2143.25 186.179 2144.89 187.805C2146.52 189.431 2146.52 192.087 2144.89 193.713C2133.23 205.386 2121.92 217.691 2111.28 230.285C2110.45 231.261 2109.28 231.767 2108.09 231.767V231.767ZM3028.53 238.904C3027.32 238.904 3026.13 238.38 3025.32 237.387C3014.86 224.63 3003.75 212.162 2992.27 200.291C2990.68 198.646 2990.72 196.008 2992.36 194.4C2994 192.792 2996.66 192.828 2998.26 194.491C3009.89 206.525 3021.16 219.173 3031.76 232.092C3033.21 233.881 3032.96 236.501 3031.17 237.965C3030.39 238.597 3029.47 238.904 3028.53 238.904V238.904ZM2050.15 313.222C2049.43 313.222 2048.69 313.023 2048.02 312.626C2046.05 311.451 2045.39 308.904 2046.56 306.916C2055.08 292.533 2064.33 278.331 2074.03 264.689C2075.36 262.81 2077.97 262.376 2079.84 263.713C2081.72 265.05 2082.15 267.652 2080.82 269.531C2071.27 282.974 2062.15 296.996 2053.75 311.162C2052.97 312.481 2051.58 313.222 2050.15 313.222V313.222ZM3085.18 321.209C3083.74 321.209 3082.33 320.45 3081.57 319.113C3073.39 304.82 3064.5 290.672 3055.15 277.084C3053.83 275.187 3054.32 272.585 3056.22 271.284C3058.11 269.983 3060.71 270.453 3062.01 272.35C3071.49 286.137 3080.52 300.483 3088.81 314.975C3089.95 316.962 3089.25 319.51 3087.26 320.667C3086.61 321.028 3085.89 321.209 3085.18 321.209V321.209ZM2006.56 403.206C2006.07 403.206 2005.57 403.116 2005.06 402.917C2002.93 402.104 2001.85 399.683 2002.68 397.532C2008.67 381.939 2015.41 366.381 2022.72 351.294C2023.72 349.234 2026.23 348.366 2028.29 349.378C2030.36 350.372 2031.23 352.866 2030.22 354.944C2023.01 369.815 2016.37 385.137 2010.46 400.532C2009.81 402.194 2008.24 403.206 2006.56 403.206ZM3127.35 411.771C3125.63 411.771 3124.04 410.723 3123.43 409.043C3117.76 393.594 3111.37 378.18 3104.4 363.201C3103.42 361.123 3104.32 358.63 3106.4 357.654C3108.51 356.678 3110.99 357.6 3111.95 359.678C3119.02 374.874 3125.51 390.504 3131.25 406.17C3132.04 408.32 3130.94 410.723 3128.78 411.518C3128.31 411.699 3127.82 411.771 3127.35 411.771V411.771ZM1978.68 499.171C1978.41 499.171 1978.12 499.153 1977.85 499.08C1975.59 498.629 1974.13 496.442 1974.58 494.184C1977.9 477.741 1981.93 461.298 1986.6 445.271C1987.24 443.049 1989.55 441.765 1991.77 442.434C1993.97 443.066 1995.24 445.379 1994.61 447.602C1990 463.394 1986.03 479.62 1982.76 495.828C1982.36 497.798 1980.61 499.171 1978.68 499.171ZM3153.75 508.151C3151.78 508.151 3150.03 506.76 3149.67 504.754C3146.65 488.51 3142.92 472.23 3138.56 456.347C3137.95 454.125 3139.25 451.83 3141.47 451.215C3143.67 450.601 3145.99 451.902 3146.6 454.143C3151.02 470.26 3154.8 486.775 3157.87 503.218C3158.28 505.495 3156.79 507.663 3154.53 508.097C3154.28 508.133 3154 508.151 3153.75 508.151V508.151ZM1967.17 598.442H1967.03C1964.74 598.37 1962.93 596.436 1963 594.142C1963.54 577.41 1964.79 560.515 1966.7 543.928C1966.98 541.633 1969.05 540.007 1971.33 540.26C1973.62 540.531 1975.26 542.591 1974.99 544.885C1973.1 561.238 1971.87 577.898 1971.33 594.413C1971.25 596.653 1969.41 598.442 1967.17 598.442V598.442ZM3163.74 607.585C3161.48 607.585 3159.62 605.76 3159.57 603.502C3159.3 586.986 3158.32 570.309 3156.68 553.902C3156.44 551.607 3158.12 549.566 3160.4 549.349C3162.71 549.132 3164.73 550.794 3164.97 553.071C3166.63 569.694 3167.62 586.607 3167.91 603.339C3167.95 605.652 3166.12 607.549 3163.81 607.585H3163.74V607.585ZM3161.79 668.134C3161.68 668.134 3161.55 668.116 3161.44 668.116C3159.15 667.918 3157.44 665.912 3157.63 663.617C3158.99 647.229 3159.67 630.533 3159.67 614C3159.67 611.687 3161.54 609.826 3163.83 609.826C3166.14 609.826 3168 611.687 3168 614C3168 630.768 3167.31 647.698 3165.94 664.304C3165.76 666.472 3163.94 668.134 3161.79 668.134V668.134ZM1972.16 698.274C1970.1 698.274 1968.31 696.738 1968.02 694.66C1965.82 678.127 1964.28 661.25 1963.44 644.5C1963.33 642.206 1965.1 640.236 1967.39 640.127C1969.68 639.929 1971.65 641.772 1971.76 644.085C1972.59 660.6 1974.11 677.241 1976.29 693.54C1976.6 695.835 1974.99 697.931 1972.72 698.238C1972.52 698.256 1972.34 698.274 1972.16 698.274V698.274ZM3145.28 766.701C3144.94 766.701 3144.6 766.665 3144.25 766.575C3142.01 765.997 3140.68 763.738 3141.24 761.497C3145.32 745.542 3148.77 729.19 3151.48 712.91C3151.86 710.633 3154 709.079 3156.28 709.477C3158.56 709.856 3160.09 712.006 3159.71 714.283C3156.95 730.798 3153.44 747.367 3149.31 763.557C3148.84 765.437 3147.14 766.701 3145.28 766.701ZM1993.65 795.865C1991.86 795.865 1990.22 794.726 1989.66 792.92C1984.71 776.965 1980.37 760.594 1976.78 744.241C1976.28 741.983 1977.7 739.76 1979.96 739.272C1982.18 738.767 1984.42 740.194 1984.93 742.453C1988.47 758.57 1992.74 774.724 1997.62 790.462C1998.31 792.666 1997.08 794.997 1994.88 795.684C1994.46 795.81 1994.05 795.865 1993.65 795.865ZM3112.52 861.148C3111.95 861.148 3111.37 861.04 3110.83 860.787C3108.71 859.847 3107.77 857.39 3108.71 855.294C3115.41 840.206 3121.55 824.649 3126.95 809.055C3127.71 806.887 3130.08 805.73 3132.26 806.489C3134.43 807.248 3135.58 809.615 3134.83 811.802C3129.35 827.594 3123.12 843.368 3116.33 858.673C3115.63 860.226 3114.11 861.148 3112.52 861.148ZM2031.16 888.468C2029.62 888.468 2028.16 887.637 2027.44 886.192C2019.89 871.285 2012.88 855.872 2006.6 840.369C2005.73 838.237 2006.76 835.797 2008.89 834.93C2011.02 834.063 2013.46 835.093 2014.31 837.225C2020.52 852.511 2027.42 867.725 2034.86 882.415C2035.91 884.475 2035.08 886.987 2033.03 888.017C2032.42 888.324 2031.79 888.468 2031.16 888.468V888.468ZM3064.41 948.801C3063.62 948.801 3062.82 948.566 3062.12 948.096C3060.19 946.832 3059.66 944.23 3060.95 942.314C3070.05 928.582 3078.7 914.271 3086.64 899.798C3087.76 897.792 3090.29 897.051 3092.32 898.153C3094.32 899.274 3095.06 901.803 3093.96 903.827C3085.9 918.499 3077.13 932.991 3067.88 946.94C3067.09 948.132 3065.77 948.801 3064.41 948.801V948.801ZM2083.58 973.52C2082.3 973.52 2081.03 972.941 2080.22 971.839C2070.29 958.378 2060.81 944.338 2052.03 930.118C2050.82 928.148 2051.44 925.583 2053.39 924.372C2055.36 923.161 2057.92 923.776 2059.13 925.727C2067.78 939.767 2077.13 953.607 2086.92 966.888C2088.29 968.731 2087.9 971.351 2086.06 972.706C2085.3 973.267 2084.43 973.52 2083.58 973.52V973.52ZM3002.45 1027.22C3001.42 1027.22 3000.41 1026.86 2999.6 1026.1C2997.92 1024.53 2997.83 1021.89 2999.4 1020.21C3010.69 1008.12 3021.6 995.455 3031.8 982.536C3033.23 980.729 3035.84 980.422 3037.65 981.849C3039.46 983.277 3039.76 985.897 3038.34 987.704C3027.99 1000.8 3016.94 1013.65 3005.49 1025.9C3004.68 1026.77 3003.56 1027.22 3002.45 1027.22V1027.22ZM2149.39 1048.72C2148.34 1048.72 2147.29 1048.34 2146.48 1047.55C2134.47 1035.93 2122.79 1023.66 2111.79 1011.07C2110.27 1009.33 2110.43 1006.69 2112.17 1005.18C2113.9 1003.66 2116.54 1003.84 2118.06 1005.57C2128.91 1017.99 2140.43 1030.09 2152.28 1041.57C2153.94 1043.16 2153.97 1045.8 2152.39 1047.46C2151.55 1048.31 2150.47 1048.72 2149.39 1048.72V1048.72ZM2928.38 1094.29C2927.13 1094.29 2925.88 1093.71 2925.05 1092.65C2923.66 1090.82 2924.02 1088.2 2925.85 1086.79C2938.94 1076.8 2951.78 1066.11 2964.01 1055.03C2965.7 1053.49 2968.34 1053.62 2969.89 1055.32C2971.43 1057.03 2971.3 1059.67 2969.61 1061.21C2957.2 1072.45 2944.18 1083.29 2930.9 1093.43C2930.15 1094 2929.26 1094.29 2928.38 1094.29ZM2226.73 1112C2225.92 1112 2225.09 1111.77 2224.39 1111.28C2210.61 1101.81 2197.06 1091.64 2184.12 1081.03C2182.33 1079.57 2182.06 1076.95 2183.52 1075.16C2184.98 1073.39 2187.6 1073.12 2189.39 1074.58C2202.16 1085.02 2215.52 1095.07 2229.1 1104.39C2231 1105.69 2231.48 1108.3 2230.18 1110.19C2229.37 1111.37 2228.07 1112 2226.73 1112ZM2844.24 1148.14C2842.74 1148.14 2841.3 1147.34 2840.56 1145.92C2839.47 1143.87 2840.27 1141.36 2842.29 1140.28C2856.86 1132.58 2871.29 1124.18 2885.18 1115.29C2887.11 1114.04 2889.69 1114.62 2890.94 1116.55C2892.17 1118.49 2891.61 1121.07 2889.68 1122.32C2875.61 1131.33 2860.96 1139.85 2846.19 1147.67C2845.56 1147.99 2844.91 1148.14 2844.24 1148.14ZM2313.53 1161.56C2312.95 1161.56 2312.35 1161.46 2311.77 1161.18C2296.6 1154.12 2281.54 1146.35 2267.02 1138.06C2265.04 1136.92 2264.33 1134.37 2265.49 1132.36C2266.63 1130.36 2269.15 1129.65 2271.16 1130.81C2285.48 1138.98 2300.32 1146.66 2315.3 1153.61C2317.37 1154.59 2318.29 1157.07 2317.32 1159.16C2316.61 1160.68 2315.1 1161.56 2313.53 1161.56ZM2752.36 1187.19C2750.6 1187.19 2748.98 1186.07 2748.4 1184.31C2747.68 1182.13 2748.87 1179.78 2751.06 1179.05C2766.7 1173.91 2782.32 1168.03 2797.49 1161.58C2799.58 1160.7 2802.04 1161.67 2802.96 1163.79C2803.84 1165.92 2802.87 1168.36 2800.74 1169.26C2785.37 1175.78 2769.53 1181.75 2753.66 1186.97C2753.22 1187.11 2752.79 1187.19 2752.36 1187.19V1187.19ZM2407.38 1195.91C2407.02 1195.91 2406.64 1195.86 2406.28 1195.77C2390.17 1191.36 2374.02 1186.23 2358.31 1180.46C2356.16 1179.67 2355.04 1177.28 2355.84 1175.12C2356.63 1172.97 2359.02 1171.86 2361.18 1172.64C2376.68 1178.31 2392.59 1183.37 2408.46 1187.71C2410.7 1188.32 2412 1190.62 2411.4 1192.84C2410.9 1194.7 2409.2 1195.91 2407.38 1195.91V1195.91ZM2655.16 1210.3C2653.14 1210.3 2651.35 1208.81 2651.05 1206.75C2650.7 1204.48 2652.27 1202.35 2654.55 1202C2670.87 1199.55 2687.25 1196.37 2703.27 1192.55C2705.53 1192.01 2707.77 1193.4 2708.29 1195.64C2708.83 1197.88 2707.44 1200.14 2705.2 1200.67C2688.97 1204.53 2672.34 1207.75 2655.8 1210.26C2655.58 1210.28 2655.36 1210.3 2655.16 1210.3V1210.3ZM2505.6 1214.05C2505.46 1214.05 2505.33 1214.04 2505.18 1214.02C2488.57 1212.37 2471.79 1210.01 2455.36 1206.97C2453.08 1206.56 2451.59 1204.39 2452 1202.13C2452.43 1199.85 2454.62 1198.33 2456.86 1198.77C2473.08 1201.75 2489.62 1204.1 2506.02 1205.73C2508.31 1205.96 2509.97 1208 2509.75 1210.28C2509.54 1212.43 2507.71 1214.05 2505.6 1214.05V1214.05ZM2565.34 1217C2562.03 1217 2558.73 1216.96 2555.44 1216.91C2553.13 1216.87 2551.31 1214.98 2551.34 1212.68C2551.38 1210.4 2553.24 1208.56 2555.5 1208.56H2555.57C2572 1208.83 2588.76 1208.42 2605.21 1207.33C2607.52 1207.24 2609.49 1208.92 2609.64 1211.22C2609.8 1213.51 2608.05 1215.5 2605.75 1215.66C2592.37 1216.55 2578.77 1217 2565.34 1217" fill="black"/>
<path d="M2565 1030.22C2335.14 1030.22 2148.8 843.871 2148.8 614.009C2148.8 384.128 2335.14 197.779 2565 197.779C2794.88 197.779 2981.22 384.128 2981.22 614.009C2981.22 843.871 2794.88 1030.22 2565 1030.22V1030.22ZM2565 102C2282.24 102 2053 331.229 2053 614.009C2053 896.771 2282.24 1126 2565 1126C2847.77 1126 3077 896.771 3077 614.009C3077 331.229 2847.77 102 2565 102Z" fill="white"/>
<path d="M2565.49 202.998C2338.59 202.998 2153.98 387.586 2153.98 614.509C2153.98 841.415 2338.59 1026.02 2565.49 1026.02C2792.4 1026.02 2977 841.415 2977 614.509C2977 387.586 2792.4 202.998 2565.49 202.998ZM2565.49 1034.35C2334 1034.35 2145.65 846.002 2145.65 614.509C2145.65 382.998 2334 194.654 2565.49 194.654C2797 194.654 2985.35 382.998 2985.35 614.509C2985.35 846.002 2797 1034.35 2565.49 1034.35V1034.35ZM2565.49 107.327C2285.85 107.327 2058.33 334.846 2058.33 614.509C2058.33 894.154 2285.85 1121.67 2565.49 1121.67C2845.14 1121.67 3072.66 894.154 3072.66 614.509C3072.66 334.846 2845.14 107.327 2565.49 107.327ZM2565.49 1130C2281.24 1130 2050 898.76 2050 614.509C2050 330.241 2281.24 99 2565.49 99C2849.74 99 3081 330.241 3081 614.509C3081 898.76 2849.74 1130 2565.49 1130" fill="black"/>
<path d="M2260 331.485L2192.59 264C2169.55 288.458 2148.9 315.203 2131 343.858L2213.3 392C2227.01 370.387 2242.66 350.144 2260 331.485Z" fill="white"/>
<path d="M2137.94 342.007L2212.93 386.19C2225.41 366.786 2239.57 348.288 2255.11 331.129L2193.71 269.19C2173.03 291.671 2154.29 316.124 2137.94 342.007V342.007ZM2214.26 396C2213.56 396 2212.84 395.801 2212.18 395.421L2130.06 347.039C2129.09 346.478 2128.39 345.537 2128.12 344.433C2127.85 343.347 2128.03 342.188 2128.64 341.229C2146.56 312.305 2167.41 285.1 2190.58 260.321C2191.36 259.488 2192.42 259.018 2193.55 259C2194.66 259.054 2195.74 259.434 2196.53 260.231L2263.78 328.052C2265.36 329.645 2265.41 332.197 2263.89 333.844C2246.71 352.469 2231.2 372.723 2217.76 394.045C2216.99 395.294 2215.64 396 2214.26 396" fill="black"/>
<path d="M2580 102V197.69C2679.26 201.211 2769.65 239.584 2839.31 301L2905 231.476C2818.17 153.899 2704.68 105.575 2580 102" fill="white"/>
<path d="M2584.35 194.702C2678.19 198.939 2768.58 234.818 2839.73 296.084L2899.82 232.709C2812.31 156.137 2700.59 111.783 2584.35 107.456V194.702ZM2840 306C2839.03 306 2838.05 305.675 2837.25 304.972C2766.08 242.463 2674.72 206.205 2580.03 202.87C2577.77 202.798 2576 200.94 2576 198.705V103.165C2576 102.029 2576.45 100.965 2577.27 100.172C2578.08 99.3966 2579.25 99 2580.28 99C2701.49 102.48 2818.07 148.762 2908.61 229.337C2909.44 230.076 2909.94 231.14 2910 232.258C2910.03 233.394 2909.62 234.476 2908.86 235.305L2843.04 304.702C2842.23 305.567 2841.1 306 2840 306" fill="black"/>
<path d="M2862 322.515C2935.79 397.52 2981.36 500.403 2981.36 613.939C2981.36 649.87 2976.79 684.736 2968.21 717.977L3059.74 746C3070.99 703.857 3077 659.602 3077 613.939C3077 473.03 3019.99 345.465 2927.77 253L2862 322.515Z" fill="black"/>
<path d="M2870 897.335L2937.24 965C2987.55 911.313 3026.44 846.682 3050 775.008L2959.13 747C2940.2 803.541 2909.51 854.609 2870 897.335" fill="black"/>
<path d="M2268 905.457C2194.2 830.423 2148.65 727.499 2148.65 613.936C2148.65 542.785 2166.53 475.825 2198.01 417.283L2115.37 369C2075.61 441.74 2053 525.192 2053 613.936C2053 754.883 2110.03 882.499 2202.23 975L2268 905.457Z" fill="black"/>
<path d="M2849.09 919C2778.01 984.993 2683.85 1026.52 2580 1030.19V1126C2710.34 1122.28 2828.5 1070.02 2917 986.746L2849.09 919Z" fill="white"/>
<path d="M2584.34 1033.19V1120.53C2705.55 1116.02 2820.81 1068.28 2909.84 985.702L2848.07 923.953C2775.61 990.106 2682.25 1028.77 2584.34 1033.19ZM2580.17 1129C2579.09 1129 2578.04 1128.58 2577.26 1127.83C2576.45 1127.05 2576 1125.97 2576 1124.85V1029.18C2576 1026.95 2577.77 1025.1 2580.03 1025.01C2678.75 1021.53 2772.97 982.489 2845.34 915.126C2846.98 913.592 2849.55 913.628 2851.13 915.217L2918.77 982.868C2919.57 983.662 2920 984.745 2920 985.864C2919.98 987.001 2919.51 988.066 2918.68 988.842C2826.71 1075.59 2706.55 1125.37 2580.28 1129H2580.17" fill="black"/>
<path d="M2281.91 309C2352.97 243.007 2447.14 201.477 2551 197.807V102C2420.64 105.725 2302.5 157.976 2214 241.254L2281.91 309Z" fill="black"/>
<path d="M2551 1126V1030.3C2451.43 1026.78 2360.76 988.403 2290.89 927L2225 996.512C2312.1 1074.1 2425.93 1122.42 2551 1126" fill="white"/>
<path d="M2230.16 995.294C2317.68 1071.87 2429.39 1116.22 2545.65 1120.54V1033.3C2451.79 1029.06 2361.4 993.203 2290.27 931.921L2230.16 995.294ZM2549.82 1129H2549.7C2428.51 1125.52 2311.91 1079.24 2221.4 998.666C2220.57 997.927 2220.06 996.863 2220 995.745C2219.95 994.609 2220.37 993.527 2221.14 992.698L2286.96 923.303C2288.5 921.68 2291.05 921.554 2292.75 923.032C2363.92 985.54 2455.26 1021.8 2549.97 1025.13C2552.21 1025.22 2554 1027.06 2554 1029.3V1124.85C2554 1125.97 2553.53 1127.05 2552.73 1127.83C2551.94 1128.59 2550.91 1129 2549.82 1129Z" fill="black"/>
<path d="M2565.39 946C2522.98 946 2481.68 938.111 2442.62 922.53C2440.48 921.665 2439.45 919.252 2440.3 917.126C2441.14 914.983 2443.58 913.938 2445.71 914.803C2483.77 929.987 2524.04 937.679 2565.39 937.679C2706.28 937.679 2829.84 847.744 2872.87 713.877C2873.57 711.698 2875.93 710.509 2878.09 711.193C2880.29 711.896 2881.5 714.237 2880.8 716.417C2836.66 853.742 2709.9 946 2565.39 946" fill="black"/>
<path d="M2883.76 542C2881.86 542 2880.12 540.702 2879.66 538.764C2872.92 510.697 2862.45 483.618 2848.52 458.258C2847.4 456.21 2848.15 453.65 2850.2 452.517C2852.25 451.401 2854.82 452.151 2855.93 454.199C2870.21 480.217 2880.96 508.009 2887.88 536.789C2888.43 539.056 2887.02 541.342 2884.75 541.89C2884.42 541.964 2884.09 542 2883.76 542Z" fill="black"/>
<path d="M2355.22 870C2354.26 870 2353.32 869.674 2352.52 869.023C2277.19 805.642 2234 712.833 2234 614.414C2234 431.113 2382.91 282 2565.93 282C2600.47 282 2634.5 287.285 2667.11 297.728C2669.29 298.433 2670.5 300.768 2669.8 302.976C2669.11 305.166 2666.76 306.415 2664.56 305.673C2632.8 295.52 2599.62 290.362 2565.93 290.362C2387.5 290.362 2242.33 435.728 2242.33 614.414C2242.33 710.354 2284.46 800.828 2357.89 862.634C2359.66 864.118 2359.9 866.742 2358.42 868.516C2357.58 869.493 2356.39 870 2355.22 870" fill="black"/>
<path d="M3118 2251H1184V2326.52H1485.55L1250.27 3310H1301.62L1515.86 2421.06L1730.1 3310H1781.46L1546.17 2326.52H3117.95V2251" fill="white"/>
<path d="M1734.17 3305.68H1776.92L1543.04 2328.56C1542.73 2327.31 1543.02 2326.01 1543.81 2325C1544.61 2324.01 1545.82 2323.41 1547.08 2323.41H3113.6V2256.32H1189.43V2323.41H1486.6C1487.88 2323.41 1489.09 2324.01 1489.89 2325C1490.66 2326.01 1490.95 2327.31 1490.66 2328.56L1256.76 3305.68H1299.51L1512.84 2421.02C1513.29 2419.15 1514.97 2417.83 1516.89 2417.83C1518.82 2417.83 1520.5 2419.15 1520.95 2421.02L1734.17 3305.68ZM1782.21 3314H1730.89C1728.97 3314 1727.29 3312.68 1726.84 3310.82L1516.8 2439.78L1306.77 3310.82C1306.32 3312.68 1304.64 3314 1302.71 3314H1251.4C1250.11 3314 1248.9 3313.42 1248.13 3312.41C1247.33 3311.42 1247.04 3310.12 1247.33 3308.87L1481.23 2331.75H1185.17C1182.86 2331.75 1181 2329.89 1181 2327.58V2252.15C1181 2249.86 1182.86 2248 1185.17 2248H3117.83C3120.14 2248 3122 2249.86 3122 2252.15V2327.58C3122 2329.89 3120.14 2331.75 3117.83 2331.75H1552.43L1786.31 3308.87C1786.62 3310.12 1786.33 3311.42 1785.54 3312.41C1784.74 3313.42 1783.55 3314 1782.27 3314" fill="black"/>
<path d="M2636.42 3310L2850.99 2421.97L3065.56 3310H3117L2881.24 2327.09L2820.76 2327L2585 3310H2636.42" fill="white"/>
<path d="M3067.81 3305.67H3110.55L2877.38 2330.42L2823.63 2330.35L2590.44 3305.67H2633.18L2846.45 2420.21C2846.9 2418.33 2848.58 2417.02 2850.49 2417.02C2852.43 2417.02 2854.11 2418.33 2854.56 2420.21L3067.81 3305.67ZM3115.84 3314H3064.52C3062.61 3314 3060.93 3312.68 3060.48 3310.82L2850.49 2438.98L2640.53 3310.82C2640.06 3312.68 2638.4 3314 2636.47 3314H2585.17C2583.89 3314 2582.68 3313.42 2581.9 3312.41C2581.11 3311.42 2580.82 3310.12 2581.11 3308.87L2816.3 2325.2C2816.75 2323.32 2818.41 2322 2820.34 2322L2880.67 2322.07C2882.6 2322.09 2884.28 2323.41 2884.73 2325.29L3119.88 3308.87C3120.19 3310.12 3119.9 3311.42 3119.1 3312.41C3118.31 3313.42 3117.1 3314 3115.84 3314" fill="black"/>
<path d="M2619 2316C2616.78 2316 2615 2314.14 2615 2311.84V2265.18C2615 2262.86 2616.78 2261 2619 2261C2621.22 2261 2623 2262.86 2623 2265.18V2311.84C2623 2314.14 2621.22 2316 2619 2316Z" fill="white"/>
<path d="M2489 3117.58L2469.18 3216.97C2468.5 3220.32 2465.4 3222.6 2462.49 3221.86L2404.54 3207.02C2402.04 3206.38 2400.57 3203.71 2401.11 3200.82L2417.81 3112L2489 3117.58" fill="white"/>
<path d="M2420.51 3116.51L2404.39 3200.7C2404.25 3201.47 2404.52 3202.02 2404.77 3202.09L2463.16 3216.75C2463.41 3216.8 2463.68 3216.64 2463.79 3216.57C2464.28 3216.27 2464.64 3215.73 2464.76 3215.09L2483.81 3121.37L2420.51 3116.51ZM2463.26 3225C2462.54 3225 2461.82 3224.91 2461.1 3224.73L2402.73 3210.07C2398.03 3208.89 2395.23 3204.22 2396.19 3199.18L2413.01 3111.35C2413.41 3109.28 2415.43 3107.85 2417.42 3108.01L2489.16 3113.51C2490.35 3113.62 2491.44 3114.21 2492.16 3115.14C2492.88 3116.08 2493.15 3117.28 2492.92 3118.44L2472.95 3216.73C2472.37 3219.55 2470.65 3222.05 2468.23 3223.55C2466.7 3224.52 2464.98 3225 2463.26 3225" fill="black"/>
<path d="M2677.27 3032L2727 3113.12L2670.16 3143L2619 3070.43L2677.27 3032" fill="white"/>
<path d="M2625.93 3070.58L2671.5 3136.4L2720.06 3110.42L2675.87 3037.04L2625.93 3070.58ZM2670.22 3146C2668.91 3146 2667.62 3145.37 2666.83 3144.21L2616.74 3071.87C2616.11 3070.95 2615.86 3069.81 2616.08 3068.71C2616.27 3067.6 2616.92 3066.63 2617.85 3065.99L2674.89 3027.7C2675.82 3027.07 2676.98 3026.85 2678.07 3027.1C2679.16 3027.34 2680.11 3028.02 2680.7 3029L2729.4 3109.87C2729.99 3110.85 2730.15 3112.04 2729.85 3113.14C2729.55 3114.25 2728.81 3115.19 2727.81 3115.73L2672.15 3145.51C2671.54 3145.84 2670.88 3146 2670.22 3146" fill="black"/>
<path d="M2489.74 3173.11C2493.74 3187.41 2502.16 3227.73 2505.69 3251.97C2507.89 3267.18 2498.27 3281.59 2483.56 3285.56C2441.94 3296.82 2342.46 3296.33 2259.63 3299.98C2253.96 3300.24 2243.51 3297.47 2238.86 3283.74C2223.1 3237.13 2310.14 3222.71 2396.19 3175.32C2397.89 3174.4 2399.95 3174.49 2401.52 3175.61C2402.5 3176.31 2403.77 3177.18 2405.25 3178.12C2420.22 3187.65 2445.09 3187.65 2460.29 3178.52L2477.47 3168.2C2482.17 3165.36 2488.26 3167.78 2489.74 3173.11Z" fill="white"/>
<path d="M2399.23 3178.11C2399.08 3178.11 2398.92 3178.15 2398.78 3178.24C2372.45 3192.76 2345.96 3204.25 2322.59 3214.4C2265.53 3239.15 2233.72 3254.51 2243.03 3282.12C2247.54 3295.45 2257.69 3295.67 2259.72 3295.61C2281.03 3294.67 2303.71 3294 2325.63 3293.32C2388.1 3291.47 2452.7 3289.53 2483.24 3281.27C2496.03 3277.78 2504.26 3265.27 2502.36 3252.17C2498.99 3228.82 2490.56 3188.04 2486.5 3173.46C2486.14 3172.17 2485.24 3171.16 2484.02 3170.68C2482.84 3170.21 2481.5 3170.32 2480.38 3170.99L2463.17 3181.36C2446.5 3191.4 2419.77 3191.2 2403.6 3180.9C2402.04 3179.89 2400.7 3178.98 2399.66 3178.24C2399.54 3178.15 2399.39 3178.11 2399.23 3178.11ZM2259.17 3304C2250.88 3304 2239.92 3299.04 2235.11 3284.81C2222.88 3248.53 2265.41 3230.07 2319.25 3206.7C2342.46 3196.65 2368.77 3185.23 2394.75 3170.88C2397.89 3169.16 2401.64 3169.36 2404.54 3171.43C2405.48 3172.12 2406.68 3172.93 2408.09 3173.82C2421.62 3182.45 2444.87 3182.61 2458.86 3174.17L2476.07 3163.8C2479.44 3161.77 2483.46 3161.44 2487.12 3162.89C2490.78 3164.35 2493.5 3167.38 2494.55 3171.21C2498.72 3186.15 2507.12 3226.69 2510.64 3250.95C2513.16 3268.27 2502.3 3284.77 2485.42 3289.35C2453.93 3297.88 2391.73 3299.75 2325.89 3301.71C2303.98 3302.37 2281.33 3303.04 2260.08 3303.98C2259.79 3304 2259.48 3304 2259.17 3304" fill="black"/>
<path d="M2507.61 3262.05C2507.7 3262.47 2507.76 3262.77 2507.78 3262.9C2509.98 3278.02 2495.56 3287.3 2481.77 3293.75C2440.85 3312.87 2275.56 3301.92 2269.17 3301.49C2269.04 3301.47 2268.95 3301.47 2268.83 3301.47C2266.77 3301.51 2245.78 3301.51 2239.74 3288.52C2238.98 3286.91 2238.51 3284.64 2238.24 3282.51C2237.77 3279.04 2238.01 3275.5 2238.78 3272.09C2239.41 3269.31 2242.17 3267.57 2244.92 3268.27C2275.61 3276.08 2347.56 3281.18 2418.82 3270.82C2445.11 3267.01 2487.08 3255.28 2498.12 3248.71C2501.12 3246.93 2504.96 3248.66 2505.65 3252.1C2506.22 3254.98 2506.93 3258.48 2507.61 3262.05" fill="white"/>
<path d="M2269.04 3298.25C2269.18 3298.25 2269.58 3298.27 2269.69 3298.27C2328.67 3302.24 2448.69 3305.83 2480.76 3290.95C2498.61 3282.67 2505.94 3274.53 2504.47 3264.55L2502.37 3254.01C2502.28 3253.6 2502.03 3253.42 2501.83 3253.33C2501.58 3253.21 2501.31 3253.23 2501.05 3253.37C2489.48 3260.22 2447.06 3272.03 2420.04 3275.94C2351.57 3285.82 2278.28 3281.95 2244.08 3273.31C2243.88 3273.26 2243.66 3273.28 2243.46 3273.4C2243.33 3273.47 2243.12 3273.65 2243.03 3274.03C2242.32 3277.12 2242.18 3280.13 2242.56 3282.95C2242.92 3285.78 2243.42 3287.18 2243.7 3287.75C2248.72 3298.44 2268.15 3298.3 2269 3298.25H2269.04V3298.25ZM2373.24 3310C2321.93 3310 2272.91 3306.76 2269.13 3306.51C2266.54 3306.49 2243.26 3306.48 2236.12 3291.22C2235.28 3289.45 2234.67 3287.01 2234.27 3284.03C2233.77 3280.24 2233.96 3276.26 2234.89 3272.22C2235.43 3269.79 2236.97 3267.66 2239.1 3266.36C2241.24 3265.07 2243.73 3264.71 2246.16 3265.32C2272.8 3272.06 2343.25 3278.68 2418.83 3267.77C2444.56 3264.05 2486.08 3252.62 2496.77 3246.29C2499.34 3244.77 2502.5 3244.59 2505.23 3245.79C2507.98 3246.98 2509.97 3249.47 2510.57 3252.4L2512.54 3262.33V3262.35L2512.72 3263.31C2515.43 3281.72 2497.8 3292.17 2484.3 3298.43C2464.7 3307.51 2418.1 3310 2373.24 3310" fill="black"/>
<path d="M2390.76 3217C2389.86 3217 2388.96 3216.73 2388.19 3216.17L2362.68 3197.37C2360.8 3195.98 2360.45 3193.43 2361.87 3191.61C2363.28 3189.82 2365.94 3189.47 2367.8 3190.83L2393.33 3209.63C2395.19 3211.01 2395.55 3213.57 2394.14 3215.38C2393.29 3216.43 2392.03 3217 2390.76 3217" fill="black"/>
<path d="M2356.86 3231C2356 3231 2355.14 3230.73 2354.39 3230.16L2332.64 3213.56C2330.83 3212.18 2330.46 3209.54 2331.82 3207.68C2333.2 3205.83 2335.79 3205.44 2337.61 3206.85L2359.35 3223.45C2361.17 3224.85 2361.55 3227.47 2360.17 3229.33C2359.36 3230.44 2358.13 3231 2356.86 3231Z" fill="black"/>
<path d="M2665.96 3125.33L2730.49 3116L2768.58 3196.75C2774.19 3208.86 2769.74 3224.55 2758.39 3231.72C2743.62 3241.07 2721.54 3253.24 2696.19 3261.38C2648.37 3276.73 2600.63 3320.78 2559.53 3299.12C2518.41 3277.47 2521.13 3275.86 2519.07 3261.04C2517.02 3246.21 2557.76 3217 2585.34 3197.8C2607.85 3182.1 2665.96 3125.33 2665.96 3125.33" fill="white"/>
<path d="M2668.48 3129.48C2660.51 3137.26 2609.33 3186.86 2588.08 3201.69C2571.62 3213.18 2521.57 3248.1 2523.37 3261.17C2523.52 3262.26 2523.65 3263.25 2523.77 3264.21C2525.09 3274.88 2525.36 3277.1 2561.75 3296.29C2588.06 3310.16 2618.05 3294.83 2649.78 3278.59C2664.7 3270.97 2680.11 3263.09 2695.57 3258.12C2720.91 3249.98 2742.96 3237.68 2756.99 3228.8C2766.57 3222.74 2770.46 3209.36 2765.65 3198.98L2728.78 3120.75L2668.48 3129.48ZM2583.97 3310C2575.08 3310 2566.34 3308.16 2557.86 3303.67C2520.34 3283.9 2517.32 3280.07 2515.47 3265.22C2515.36 3264.32 2515.25 3263.34 2515.11 3262.31C2513.03 3247.27 2540.86 3224.46 2583.31 3194.86C2605.33 3179.47 2663.04 3123.12 2663.62 3122.56C2664.25 3121.94 2665.07 3121.54 2665.93 3121.42L2730.64 3112.05C2732.52 3111.76 2734.24 3112.74 2735.02 3114.4L2773.21 3195.44C2779.72 3209.52 2774.44 3227.64 2761.46 3235.85C2747.01 3244.99 2724.31 3257.65 2698.12 3266.07C2683.31 3270.83 2668.21 3278.55 2653.58 3286.02C2630.42 3297.87 2606.67 3310 2583.97 3310" fill="black"/>
<path d="M2644.89 3196C2644.11 3196 2643.34 3195.78 2642.64 3195.3L2613.88 3175.86C2611.97 3174.57 2611.42 3171.94 2612.67 3169.95C2613.9 3167.97 2616.45 3167.4 2618.36 3168.69L2647.12 3188.13C2649.03 3189.42 2649.58 3192.07 2648.33 3194.04C2647.55 3195.31 2646.23 3196 2644.89 3196" fill="black"/>
<path d="M2623.87 3217C2623.11 3217 2622.32 3216.79 2621.64 3216.34L2592.87 3197.58C2590.97 3196.35 2590.43 3193.79 2591.66 3191.88C2592.91 3189.97 2595.46 3189.41 2597.37 3190.68L2626.12 3209.42C2628.03 3210.68 2628.58 3213.21 2627.33 3215.12C2626.55 3216.34 2625.23 3217 2623.87 3217" fill="black"/>
<path d="M2522 3272.71C2522 3272.71 2554.4 3296.37 2590.06 3284.02C2625.71 3271.66 2769.03 3196 2769.03 3196L2776.43 3212.26C2780.19 3220.5 2776.98 3230.29 2769.07 3234.76C2733.36 3254.93 2638.07 3306.31 2588.48 3309.7C2526.7 3313.92 2522 3272.71 2522 3272.71" fill="white"/>
<path d="M2528.71 3281.16C2534.35 3291.8 2549.23 3307.02 2587.82 3304.46C2636.44 3301.18 2729.88 3251.91 2767.77 3230.87C2773.81 3227.52 2776.3 3220.07 2773.44 3213.93L2767.83 3201.83C2744.02 3214.13 2623.93 3275.9 2591.05 3287.09C2565.34 3295.83 2541.58 3287.56 2528.71 3281.16ZM2579.49 3313C2522.41 3313 2517.08 3272.89 2517.03 3272.46C2516.84 3270.85 2517.64 3269.26 2519.08 3268.43C2520.52 3267.61 2522.31 3267.7 2523.66 3268.67C2523.97 3268.88 2554.99 3290.62 2588.31 3279.28C2623.5 3267.31 2766.41 3193.21 2767.85 3192.48C2768.86 3191.94 2770.06 3191.85 2771.17 3192.23C2772.26 3192.59 2773.15 3193.37 2773.63 3194.41L2781.08 3210.49C2785.71 3220.52 2781.7 3232.62 2771.9 3238.07C2733.5 3259.39 2638.73 3309.31 2588.38 3312.7C2585.29 3312.91 2582.33 3313 2579.49 3313" fill="black"/>
<path d="M2622.93 2481.54C2622.93 2481.54 2400.44 2572.22 2318.37 2671.89C2239.92 2767.11 2593.21 3112.97 2593.21 3112.97C2593.64 3114.6 2713.26 3046.87 2713.26 3044.78L2621.63 2844.48C2585.48 2766.35 2513.16 2721.71 2542.66 2694.26C2569.49 2669.29 2718.69 2682.19 2795.26 2679.51C2931.3 2674.77 2930 2476 2930 2476L2622.93 2481.54" fill="black"/>
<path d="M2433.72 2728.72C2414.48 2800.66 2396.21 3017.1 2392 3138.15C2391.95 3139.82 2514.56 3140.99 2514.81 3138.8C2516.04 3128.15 2606.68 2800.37 2657.31 2713.69C2684.2 2667.66 2857.66 2680.86 2896.36 2673.17C2999.67 2652.65 2992.91 2444 2992.91 2444L2509.21 2637.23C2467.86 2643.52 2444.61 2687.94 2433.72 2728.72Z" fill="black"/>
<path d="M2534.85 3056C2533.63 3056 2532.42 3055.46 2531.59 3054.44L2434.9 2933.74C2433.48 2931.96 2433.77 2929.33 2435.55 2927.91C2437.35 2926.47 2439.99 2926.78 2441.41 2928.56L2538.1 3049.26C2539.52 3051.04 2539.23 3053.66 2537.45 3055.08C2536.67 3055.69 2535.75 3056 2534.85 3056" fill="white"/>
<path d="M3023.27 2114.06C3023.27 2114.06 3019.12 1947.93 2921.39 1915.69C2913.09 1912.95 2904.39 1911.58 2895.65 1911.25L2809.42 1908C2783.84 1907.81 2762.63 1913.98 2735.26 1923.99C2712.38 1932.38 2686.89 1947.97 2672.01 1961.48C2606.43 2021.03 2605.77 2220.95 2549.05 2216.22C2530 2214.65 2498.14 2182.84 2466.59 2143.94C2441.32 2112.78 2397.8 2074.53 2397.8 2074.53L2322 2112.78C2340.02 2143.32 2356.24 2174.95 2369.53 2207.87C2397.26 2276.65 2442.76 2334.38 2499.77 2383.68C2518.74 2400.08 2545.56 2403.44 2567.95 2392.27C2604.3 2374.15 2658.76 2344.99 2692.61 2317.42C2705.06 2360.42 2693.96 2407.32 2663.29 2440.46C2654.09 2450.4 2644.12 2459.53 2633.62 2466.98C2623.29 2474.33 2620.86 2488.82 2627.95 2499.37C2639.38 2516.35 2662.19 2535.89 2705.77 2531.33C2762.99 2525.3 2925.98 2525.95 2997.93 2526.56C3017.03 2526.74 3032.44 2510.92 3031.99 2491.67L3023.27 2114.06" fill="white"/>
<path d="M2692.65 2313.51C2693.06 2313.51 2693.48 2313.58 2693.9 2313.71C2695.24 2314.12 2696.27 2315.19 2696.66 2316.53C2709.53 2360.96 2697.89 2409.75 2666.34 2443.89C2656.34 2454.69 2646.11 2463.84 2635.95 2471.06C2627.51 2477.05 2625.42 2489.04 2631.3 2497.78C2642.19 2513.97 2663.92 2532.33 2705.39 2527.99C2763.34 2521.89 2929.83 2522.62 2998.7 2523.21C3006.79 2523.18 3014.32 2520.14 3019.98 2514.39C3025.75 2508.53 3028.83 2500.75 3028.65 2492.48L3019.89 2113.9C3019.84 2112.09 3014.61 1949.87 2920.65 1918.86C2913.14 1916.38 2904.86 1914.95 2895.99 1914.63L2809.58 1911.37C2809.18 1911.37 2808.79 1911.35 2808.39 1911.35C2784.56 1911.35 2764.75 1916.94 2736.83 1927.15C2715.57 1934.92 2690.06 1950.05 2674.81 1963.91C2644.16 1991.75 2627.57 2052.93 2612.95 2106.91C2596.03 2169.27 2581.49 2223.16 2548.41 2220.38C2530.23 2218.88 2501.44 2193.96 2462.85 2146.37C2441.2 2119.65 2405.5 2087.21 2396.51 2079.16L2327.03 2114.22C2345.68 2146.19 2360.63 2176.34 2372.7 2206.28C2398.46 2270.18 2441.99 2328.96 2502.1 2380.95C2519.83 2396.29 2544.85 2399.46 2565.84 2389C2604.26 2369.84 2656.99 2341.35 2690.01 2314.45C2690.77 2313.83 2691.71 2313.51 2692.65 2313.51V2313.51ZM2693.19 2537C2655.92 2537 2635.31 2518.73 2624.37 2502.43C2615.99 2489.98 2619.01 2472.83 2631.11 2464.24C2640.79 2457.36 2650.58 2448.61 2660.21 2438.21C2688.36 2407.78 2699.6 2364.89 2690.22 2324.94C2656.5 2351.1 2606.47 2378.06 2569.58 2396.47C2545.55 2408.45 2516.93 2404.83 2496.63 2387.26C2435.51 2334.38 2391.21 2274.56 2364.95 2209.41C2352.56 2178.66 2337.07 2147.67 2317.59 2114.62C2316.99 2113.62 2316.84 2112.43 2317.17 2111.33C2317.5 2110.22 2318.27 2109.28 2319.3 2108.78L2395.28 2070.42C2396.8 2069.66 2398.62 2069.9 2399.91 2071.02C2400.36 2071.42 2444.09 2109.95 2469.35 2141.12C2505.41 2185.59 2533.72 2210.79 2549.1 2212.07C2575.24 2214.06 2589.61 2161.06 2604.88 2104.72C2619.81 2049.64 2636.74 1987.21 2669.18 1957.72C2685.41 1942.99 2711.45 1927.54 2733.95 1919.31C2762.56 1908.84 2784.02 1902.69 2809.76 1903.01L2896.32 1906.27C2905.94 1906.65 2915.01 1908.2 2923.26 1910.92C3022.88 1943.81 3028.07 2106.77 3028.23 2113.68V2113.7L3036.99 2492.28C3037.24 2502.84 3033.32 2512.78 3025.93 2520.25C3018.66 2527.63 3009.02 2531.63 2998.63 2531.55C2929.9 2530.98 2763.79 2530.25 2706.27 2536.29C2701.69 2536.78 2697.33 2537 2693.19 2537" fill="black"/>
<path d="M2692.17 2323C2690.92 2323 2689.7 2322.44 2688.89 2321.4C2687.47 2319.6 2687.79 2316.99 2689.59 2315.57C2699.32 2307.96 2728.91 2280.51 2744.4 2257.81C2745.7 2255.92 2748.29 2255.43 2750.18 2256.73C2752.07 2258.02 2752.58 2260.59 2751.28 2262.48C2735.25 2285.97 2704.74 2314.25 2694.72 2322.1C2693.97 2322.71 2693.07 2323 2692.17 2323" fill="black"/>
<path d="M2388 2076.86L2376.36 2014.15C2376.36 2014.15 2366.85 1966.31 2355.21 1959.93C2346.64 1955.24 2340.95 1973 2342.74 1995.41C2343.03 1999.13 2337.96 2000.47 2336.41 1997.07C2330.36 1983.73 2324.01 1968.07 2323.46 1959.93C2322.41 1943.99 2319.24 1911.04 2304.42 1914.21C2289.62 1917.41 2263.15 1968.44 2283.27 2012.02C2303.37 2055.61 2349.91 2096 2349.91 2096L2388 2076.86" fill="white"/>
<path d="M2307.46 1917.36C2307.11 1917.36 2306.75 1917.41 2306.37 1917.48C2302.99 1918.21 2296.77 1924.17 2291.13 1935.48C2281.81 1954.16 2276.13 1983.49 2288.18 2009.8C2305.25 2047.02 2342.34 2082.39 2351.51 2090.8L2384.16 2074.29L2373.11 2014.44C2369.33 1995.34 2360.94 1966.7 2354.12 1962.93C2353.48 1962.58 2353.32 1962.67 2353.1 1962.82C2350.01 1964.83 2346.45 1976.97 2347.86 1994.53C2348.15 1998.26 2345.85 2001.5 2342.25 2002.43C2338.69 2003.37 2335.11 2001.65 2333.59 1998.26C2325.25 1979.83 2320.79 1966.8 2320.32 1959.54C2318.4 1930.46 2313.61 1921.03 2309.94 1918.26C2309.12 1917.65 2308.34 1917.36 2307.46 1917.36V1917.36ZM2350.84 2100C2349.87 2100 2348.89 2099.64 2348.11 2098.97C2346.18 2097.28 2300.78 2057.33 2280.6 2013.28C2267.31 1984.29 2273.48 1952.15 2283.66 1931.74C2289.93 1919.19 2297.76 1910.8 2304.6 1909.31C2308.34 1908.5 2311.92 1909.29 2314.96 1911.58C2322.54 1917.3 2326.88 1932.36 2328.64 1958.99C2329 1964.54 2332.76 1975.63 2339.27 1990.47C2338.78 1976.64 2340.91 1960.75 2348.56 1955.81C2351.51 1953.9 2354.91 1953.81 2358.13 1955.61C2370.79 1962.58 2379.67 2004.53 2381.32 2012.86L2392.93 2075.85C2393.27 2077.68 2392.37 2079.51 2390.7 2080.34L2352.72 2099.55C2352.13 2099.86 2351.49 2100 2350.84 2100" fill="black"/>
<path d="M2778.81 1932.73C2776.4 1932.3 2775.8 1929.06 2777.94 1927.84C2785.15 1923.7 2795.33 1916.18 2794.7 1907.11L2796.26 1872.04C2796.15 1867.77 2793.32 1864.05 2789.23 1862.81L2763.84 1855.16C2759.93 1853.97 2757.29 1850.32 2757.38 1846.22L2758.16 1809.04L2745.85 1799.16C2744.89 1798.41 2744.71 1797 2745.47 1796.02L2763.26 1772.7C2769.03 1763.93 2774.32 1743.29 2779.39 1744.48C2779.39 1744.48 2884.57 1728.02 2893.03 1779.91C2894.31 1787.85 2892.38 1795.98 2887.97 1802.69L2879.06 1816.24C2870.13 1829.84 2865.81 1846.25 2868.17 1862.38C2868.93 1867.45 2880.82 1914.07 2880.82 1914.07C2880.82 1914.07 2901.92 1923.55 2914.82 1927.12C2917.61 1927.87 2917.76 1931.78 2915.04 1932.77L2891.45 1938.36C2867.86 1943.87 2843.4 1944.48 2819.58 1940.15L2778.81 1932.73" fill="white"/>
<path d="M2784.3 1930.12L2820.9 1936.85C2844.13 1941.12 2867.54 1940.53 2890.54 1935.1L2909.31 1930.6C2896.56 1926.45 2880 1918.95 2879.23 1918.59C2878.08 1918.06 2877.23 1917.05 2876.91 1915.81C2875.7 1911.01 2865.04 1868.71 2864.29 1863.55C2861.86 1846.93 2865.92 1829.48 2875.72 1814.41L2884.55 1800.81C2888.49 1794.76 2890.05 1787.69 2888.95 1780.92C2881.31 1733.52 2781.94 1748.68 2780.93 1748.84C2780.81 1748.86 2780.66 1748.88 2780.52 1748.88C2778.9 1750.61 2776.22 1757.01 2774.43 1761.34C2772.32 1766.42 2770.13 1771.65 2767.76 1775.29L2751.03 1797.47L2761.82 1806.24C2762.83 1807.05 2763.4 1808.28 2763.37 1809.56L2762.6 1846.84C2762.54 1849.08 2763.98 1851.08 2766.08 1851.73L2791.25 1859.42C2797.04 1861.17 2801.02 1866.46 2801.18 1872.55L2799.65 1907.78C2800.15 1917.29 2792.23 1924.9 2784.3 1930.12V1930.12ZM2851.59 1948C2840.86 1948 2830.13 1947.01 2819.41 1945.04L2778.97 1937.61C2776.13 1937.1 2773.99 1934.92 2773.49 1932.05C2773.01 1929.2 2774.28 1926.44 2776.76 1924.99C2786.38 1919.4 2791.7 1913.25 2791.34 1908.1C2791.34 1907.94 2791.33 1907.78 2791.34 1907.62L2792.87 1872.46C2792.82 1870.26 2791.2 1868.1 2788.85 1867.38L2763.66 1859.71C2758.01 1857.97 2754.16 1852.62 2754.29 1846.66L2755.03 1811.44L2744.4 1802.81C2741.69 1800.61 2741.2 1796.69 2743.32 1793.9L2760.98 1770.51C2762.78 1767.73 2764.81 1762.84 2766.77 1758.13C2770.97 1748.03 2774.37 1739.94 2780.29 1740.5C2790.09 1739.04 2888.45 1725.72 2897.15 1779.59C2898.57 1788.41 2896.58 1797.56 2891.51 1805.36L2882.68 1818.96C2873.98 1832.33 2870.36 1847.74 2872.5 1862.36C2873.01 1865.81 2879.75 1893.09 2884.46 1911.82C2889.78 1914.17 2905.6 1921.02 2915.8 1923.86C2918.78 1924.69 2920.87 1927.34 2920.99 1930.46C2921.12 1933.56 2919.23 1936.38 2916.34 1937.44C2916.18 1937.5 2916.03 1937.55 2915.87 1937.59L2892.44 1943.2C2878.92 1946.39 2865.28 1948 2851.59 1948" fill="black"/>
<path d="M2771.92 1662.69C2796.18 1660.41 2766.47 1686.75 2855.52 1657.07C2890.97 1645.26 2874.29 1688.06 2883.49 1685.02C2917.49 1673.79 2916.31 1674.14 2933.24 1677.99C2944.43 1680.54 2952.36 1700.92 2950.8 1716.43C2948.74 1736.88 2927.27 1770.13 2908.24 1805.1C2898.39 1823.23 2879.71 1825.61 2855.91 1800.28C2853.38 1797.59 2865.04 1780.57 2858.29 1773.75C2840.78 1755.97 2834.51 1784.19 2820.65 1776.15C2807.32 1768.43 2801.74 1763.3 2787.51 1751.38C2770.28 1736.95 2743.41 1761.68 2732.38 1728.04C2726.62 1710.48 2738.68 1665.8 2771.92 1662.69" fill="black"/>
<path d="M3007.15 3216.6H2861.93V2688H2786.07V3216.6H2640.85C2594.54 3216.6 2557 3254.14 2557 3300.46V3313H3091V3300.46C3091 3254.14 3053.46 3216.6 3007.15 3216.6" fill="white"/>
<path d="M2561.34 3309.65H3087.64V3301.27C3087.64 3257.29 3051.87 3221.5 3007.87 3221.5H2862.48C2860.16 3221.5 2858.3 3219.64 2858.3 3217.33V2692.35H2790.7V3217.33C2790.7 3219.64 2788.84 3221.5 2786.52 3221.5H2641.11C2597.13 3221.5 2561.34 3257.29 2561.34 3301.27V3309.65ZM3091.82 3318H2557.16C2554.86 3318 2553 3316.14 2553 3313.82V3301.27C2553 3252.68 2592.53 3213.15 2641.11 3213.15H2782.34V2688.18C2782.34 2685.86 2784.22 2684 2786.52 2684H2862.48C2864.78 2684 2866.64 2685.86 2866.64 2688.18V3213.15H3007.87C3056.46 3213.15 3096 3252.68 3096 3301.27V3313.82C3096 3316.14 3094.14 3318 3091.82 3318" fill="black"/>
<path d="M3050.73 2126H3012.56C2910.73 2126 2822.64 2197.45 2800.88 2297.7L2756.43 2502.45C2746.04 2550.36 2703.93 2584.51 2655.27 2584.51H2574.99C2533.02 2584.51 2499 2618.8 2499 2661.08C2499 2703.37 2533.02 2737.66 2574.99 2737.66H2705.38L2705.31 2738H2934.7C3014.98 2738 3084.43 2681.67 3101.6 2602.63L3172.08 2277.92C3189.02 2199.85 3130.04 2126 3050.73 2126Z" fill="white"/>
<path d="M2708.12 2734.67H2935.66C3013.35 2734.67 3081.79 2679.06 3098.4 2602.42L3168.85 2277.37C3176.71 2241.09 3167.89 2203.77 3144.67 2174.97C3121.8 2146.61 3087.88 2130.35 3051.64 2130.35H3013.48C2914.41 2130.35 2827.14 2201.24 2805.96 2298.94L2761.55 2503.91C2750.82 2553.41 2706.59 2589.34 2656.36 2589.34H2576.12C2536.53 2589.34 2504.33 2621.86 2504.33 2661.83C2504.33 2701.79 2536.53 2734.31 2576.12 2734.31H2706.44C2707.02 2734.31 2707.6 2734.44 2708.12 2734.67V2734.67ZM2935.66 2743H2706.37C2705.77 2743 2705.21 2742.89 2704.69 2742.66H2576.12C2531.94 2742.66 2496 2706.4 2496 2661.83C2496 2617.26 2531.94 2581 2576.12 2581H2656.36C2702.68 2581 2743.5 2547.83 2753.4 2502.14L2797.81 2297.17C2819.82 2195.68 2910.52 2122 3013.48 2122H3051.64C3090.41 2122 3126.69 2139.4 3151.16 2169.73C3175.98 2200.52 3185.4 2240.39 3177 2279.14L3106.55 2604.2C3089.11 2684.63 3017.24 2743 2935.66 2743" fill="black"/>
<path d="M1989.84 2641.02C1965.94 2750.24 2060.68 3049.02 2080.54 3121.83C2083.15 3131.37 2091.88 3138 2101.85 3138H2190.12C2202.4 3138 2212.31 3128.09 2212.2 3115.94C2211.39 3029.54 2195.65 2714.58 2249.62 2623.89C2280.86 2571.39 2338.09 2547.73 2376.36 2522.74C2468.19 2462.77 2433.62 2330 2433.62 2330L2086.73 2535.51C2038.67 2542.69 2000.13 2593.96 1989.84 2641.02" fill="black"/>
<path d="M2121.28 2364.9C2121.28 2364.9 1818.71 2367.61 1723.3 2481.14C1637.56 2583.17 1764.67 3032.39 1791.29 3122.3C1794.05 3131.63 1802.66 3138 1812.45 3138H1926.13C1928.54 3138 1930.47 3136.07 1930.47 3133.7V2657.72C1930.47 2627.74 1936.36 2643.82 1961.77 2627.56C1997.39 2604.78 2062.02 2624.13 2151.07 2624.78C2433.84 2626.87 2388.3 2361 2388.3 2361L2121.28 2364.9" fill="black"/>
<path d="M2191.09 3140L2197 3215.65L2126.55 3216L2112 3140.53L2191.09 3140Z" fill="white"/>
<path d="M2116.24 3143.85L2129.32 3212.62L2192.3 3212.3L2186.98 3143.36L2116.24 3143.85ZM2125.85 3221C2123.84 3221 2122.12 3219.57 2121.75 3217.6L2107.08 3140.48C2106.84 3139.27 2107.17 3138 2107.96 3137.06C2108.74 3136.1 2109.92 3135.54 2111.16 3135.52L2190.83 3135H2190.86C2193.04 3135 2194.87 3136.67 2195.04 3138.85L2200.99 3216.13C2201.08 3217.29 2200.68 3218.43 2199.9 3219.28C2199.1 3220.13 2197.99 3220.62 2196.83 3220.64L2125.87 3221H2125.85" fill="black"/>
<path d="M1911 3140L1909.94 3215.65L1837.81 3216L1825 3140.53L1911 3140Z" fill="white"/>
<path d="M1829.17 3143.86L1840.81 3212.62L1906.56 3212.3L1907.53 3143.37L1829.17 3143.86ZM1837.25 3221C1835.21 3221 1833.46 3219.52 1833.12 3217.51L1820.06 3140.4C1819.86 3139.21 1820.18 3137.96 1820.99 3137.04C1821.77 3136.1 1822.94 3135.55 1824.17 3135.53L1911.77 3135.01C1912.92 3134.92 1914 3135.44 1914.78 3136.24C1915.58 3137.04 1916.02 3138.12 1916 3139.23L1914.91 3216.51C1914.87 3218.79 1913.01 3220.62 1910.74 3220.64L1837.29 3221H1837.25" fill="black"/>
<path d="M1838.61 3207H1906.3C1911.1 3207 1915.44 3209.84 1917.26 3214.23C1923.27 3228.66 1935.49 3262.4 1933.85 3294.4C1933.4 3303.15 1926.05 3310 1917.19 3310H1718.54C1709.41 3310 1702.46 3301.73 1704.3 3292.89C1706.48 3282.3 1714.03 3268.35 1735.82 3255.82C1771.09 3235.53 1815.41 3215.25 1829.38 3208.98C1832.29 3207.67 1835.43 3207 1838.61 3207" fill="white"/>
<path d="M1839.17 3210.34C1836.54 3210.34 1834.01 3210.9 1831.64 3211.97C1818.68 3217.81 1773.65 3238.45 1738.17 3258.93C1721.48 3268.57 1711.23 3280.51 1708.57 3293.47C1707.96 3296.42 1708.72 3299.46 1710.64 3301.81C1712.63 3304.25 1715.6 3305.66 1718.77 3305.66H1917.97C1924.67 3305.66 1930.17 3300.5 1930.5 3293.92C1932.13 3262.21 1919.64 3228.2 1914.19 3215.06C1912.99 3212.2 1910.21 3210.34 1907.06 3210.34H1839.17ZM1917.97 3314H1718.77C1713.06 3314 1707.74 3311.49 1704.16 3307.09C1700.64 3302.77 1699.27 3297.19 1700.37 3291.78C1702.58 3281.07 1710.2 3265.44 1734.01 3251.7C1769.82 3231.02 1815.16 3210.23 1828.2 3204.35C1831.67 3202.8 1835.35 3202 1839.17 3202H1907.06C1913.59 3202 1919.42 3205.87 1921.9 3211.86C1927.57 3225.54 1940.56 3260.94 1938.84 3294.35C1938.28 3305.37 1929.12 3314 1917.97 3314" fill="black"/>
<path d="M2128.61 3207H2196.3C2201.1 3207 2205.44 3209.84 2207.26 3214.23C2213.27 3228.66 2225.49 3262.4 2223.85 3294.4C2223.4 3303.15 2216.05 3310 2207.19 3310H2008.54C1999.41 3310 1992.46 3301.73 1994.3 3292.89C1996.48 3282.3 2004.03 3268.35 2025.82 3255.82C2061.09 3235.53 2105.41 3215.25 2119.38 3208.98C2122.29 3207.67 2125.43 3207 2128.61 3207" fill="white"/>
<path d="M2128.58 3210.34C2125.98 3210.34 2123.46 3210.9 2121.1 3211.97C2108.19 3217.81 2063.36 3238.45 2028.03 3258.93C2011.39 3268.57 2001.19 3280.51 1998.54 3293.47C1997.92 3296.42 1998.68 3299.46 2000.59 3301.81C2002.57 3304.25 2005.53 3305.66 2008.69 3305.66H2207.05C2213.72 3305.66 2219.2 3300.5 2219.52 3293.92C2221.14 3262.19 2208.7 3228.2 2203.28 3215.06C2202.09 3212.2 2199.31 3210.34 2196.18 3210.34H2128.58ZM2207.05 3314H2008.69C2003.01 3314 1997.71 3311.49 1994.14 3307.09C1990.64 3302.77 1989.27 3297.19 1990.37 3291.78C1992.57 3281.07 2000.18 3265.44 2023.86 3251.7C2059.52 3231.02 2104.68 3210.23 2117.67 3204.35C2121.12 3202.8 2124.79 3202 2128.58 3202H2196.18C2202.68 3202 2208.49 3205.87 2210.96 3211.86C2216.6 3225.52 2229.54 3260.92 2227.85 3294.35C2227.27 3305.37 2218.15 3314 2207.05 3314" fill="black"/>
<path d="M1843 2215.45L1806.79 2202.09C1791.43 2196.43 1774.62 2196.63 1759.43 2202.76C1740.49 2210.42 1714.79 2222.84 1697.18 2239.3C1692.77 2243.45 1695.49 2251 1701.44 2251H1841.32L1843 2215.45Z" fill="white"/>
<path d="M1783.7 2202.42C1776.03 2202.42 1768.39 2203.91 1761.17 2206.92C1743.14 2214.41 1718.11 2226.75 1701.15 2243.02C1700.15 2243.99 1700.16 2245.26 1700.51 2246.14C1700.72 2246.69 1701.26 2247.6 1702.48 2247.6H1836.24L1837.57 2218.73L1804.76 2206.28C1797.93 2203.71 1790.8 2202.42 1783.7 2202.42V2202.42ZM1840.21 2256H1702.48C1698.15 2256 1694.43 2253.41 1692.8 2249.26C1691.11 2244.94 1692.15 2240.09 1695.46 2236.92C1713.34 2219.73 1739.35 2206.88 1758.02 2199.14C1773.87 2192.54 1791.5 2192.3 1807.65 2198.41L1843.32 2211.91C1845.01 2212.55 1846.08 2214.23 1845.99 2216.05L1844.34 2251.99C1844.23 2254.23 1842.42 2256 1840.21 2256" fill="black"/>
<path d="M2452.34 2056.42C2452.34 2056.42 2456.21 1917.52 2360.31 1900.74C2360.36 1900.62 2360.41 1900.47 2360.45 1900.35L2258.87 1894.6C2258.87 1894.6 2193.58 1885.58 2133.45 1937.29C2079.2 1983.94 2067.27 2103.57 2032.59 2134.01C2002.51 2160.39 1873.04 2194.72 1839.12 2203.39C1834.31 2204.62 1830.98 2208.92 1831 2213.86L1831.11 2246.66H2036.4C2065.05 2246.66 2092.44 2235.1 2112.34 2214.64C2124.32 2202.32 2139.07 2187.17 2155.35 2170.13C2155.17 2180.67 2156.33 2198.14 2163.78 2217.58C2178.76 2256.8 2171.6 2301.24 2142.86 2332.01C2130.81 2344.94 2117.18 2356.54 2102.76 2363.49C2102.76 2363.49 2111.94 2406.85 2178.82 2409.81C2206 2411.02 2277.81 2413.62 2331.22 2410.58C2404.15 2406.45 2458 2393.03 2458 2393.03L2452.34 2056.42" fill="white"/>
<path d="M2108.23 2366.4C2111.67 2375.85 2126.36 2404.11 2179.54 2406.48C2201.34 2407.44 2276.72 2410.35 2331.69 2407.26C2393.45 2403.75 2441.96 2393.43 2454.6 2390.55L2448.99 2056.91V2056.73C2449.03 2055.35 2451.64 1921.06 2360.32 1905.1C2359.86 1905.01 2359.41 1904.85 2359.01 1904.63L2259.26 1898.99C2258.3 1898.88 2194.63 1890.89 2136.68 1940.73C2107.27 1966.01 2090.3 2014.28 2075.34 2056.89C2062.8 2092.6 2051.94 2123.42 2035.73 2137.65C2005.26 2164.4 1878.48 2198.27 1840.35 2208.01C1837.4 2208.77 1835.34 2211.41 1835.36 2214.45L1835.45 2243.12H2036.8C2064.17 2243.12 2090.79 2231.91 2109.81 2212.35L2112.61 2209.47C2124.07 2197.69 2137.82 2183.55 2152.85 2167.79C2154.05 2166.54 2155.87 2166.16 2157.47 2166.81C2159.06 2167.46 2160.09 2169.03 2160.05 2170.75C2159.85 2181.47 2161.1 2198.14 2168.2 2216.69C2184.19 2258.52 2175.85 2304.1 2146.43 2335.61C2133.51 2349.46 2120.68 2359.8 2108.23 2366.4V2366.4ZM2273.21 2417C2232.59 2417 2193.83 2415.46 2179.18 2414.81C2109.81 2411.74 2099.55 2367.03 2099.13 2365.13C2098.75 2363.25 2099.67 2361.34 2101.41 2360.5C2113.91 2354.48 2127 2344.18 2140.31 2329.91C2167.54 2300.74 2175.25 2258.5 2160.4 2219.67C2154.81 2205.06 2152.62 2191.52 2151.95 2180.82C2139.59 2193.69 2128.28 2205.33 2118.6 2215.28L2115.8 2218.15C2095.22 2239.32 2066.42 2251.47 2036.8 2251.47H1831.29C1828.99 2251.47 1827.13 2249.61 1827.11 2247.31L1827 2214.48C1826.98 2207.61 1831.61 2201.63 1838.27 2199.93C1915.91 2180.1 2007.11 2151.66 2030.23 2131.37C2044.8 2118.59 2055.8 2087.28 2067.45 2054.12C2082.77 2010.54 2100.15 1961.13 2131.21 1934.41C2192.15 1882 2257.33 1890.31 2260.08 1890.71L2361.42 1896.41C2362.25 1896.46 2363.03 1896.75 2363.68 1897.22C2459.02 1915.7 2457.44 2052.26 2457.35 2056.84L2463 2393.77C2463.04 2395.7 2461.73 2397.42 2459.85 2397.89C2459.31 2398.02 2404.74 2411.47 2332.16 2415.57C2313.85 2416.62 2293.3 2417 2273.21 2417" fill="black"/>
<path d="M2151.21 2186C2150.17 2186 2149.15 2185.64 2148.35 2184.88C2146.64 2183.32 2146.54 2180.67 2148.13 2178.96C2174.94 2150.28 2195.71 2117.22 2209.86 2080.68C2210.7 2078.53 2213.14 2077.44 2215.29 2078.29C2217.46 2079.11 2218.56 2081.54 2217.72 2083.69C2203.17 2121.23 2181.83 2155.19 2154.29 2184.66C2153.46 2185.55 2152.33 2186 2151.21 2186" fill="black"/>
<path d="M2198.97 1718.17C2198.97 1718.17 2195.19 1752.22 2178.19 1771.14C2176.89 1772.59 2176.6 1774.67 2177.59 1776.36L2184.6 1788.12C2185.2 1789.14 2185.7 1790.21 2186.08 1791.35L2197.71 1825.69C2198.77 1828.82 2201.58 1831.07 2204.88 1831.34C2212.15 1831.94 2230.59 1829.11 2232.08 1833.99C2233.76 1839.42 2232.46 1883.53 2231.81 1902.72C2231.63 1907.84 2235.2 1912.29 2240.2 1913.22L2279.53 1920.5C2297.25 1923.8 2315.47 1921.61 2331.82 1914.36C2337.12 1912.02 2339.48 1905.77 2337.03 1900.48C2328.04 1881.16 2308.35 1835.06 2310.96 1806.84L2328.43 1757.69C2328 1734.12 2308.44 1715.42 2284.83 1716.01L2198.97 1718.17" fill="white"/>
<path d="M2220.89 1826.85C2228.46 1826.85 2234.32 1827.84 2235.83 1832.71C2237.22 1837.16 2237.2 1860.71 2235.76 1902.72C2235.65 1905.78 2237.76 1908.38 2240.79 1908.94L2280.51 1916.21C2297.56 1919.34 2314.97 1917.32 2330.84 1910.37C2332.41 1909.68 2333.59 1908.43 2334.19 1906.86C2334.79 1905.3 2334.72 1903.6 2334.01 1902.1C2325.07 1883.11 2304.57 1835.78 2307.3 1806.48C2307.32 1806.13 2307.41 1805.79 2307.52 1805.45L2324.91 1757.13C2324.54 1747.21 2320.35 1737.97 2313.09 1731.08C2305.57 1723.91 2295.63 1720.1 2285.2 1720.37L2202.05 1722.43C2200.54 1731.95 2195.19 1757.87 2180.53 1774.02L2187.49 1786.02C2188.23 1787.27 2188.87 1788.62 2189.36 1790.03L2201.08 1824.33C2201.63 1825.91 2203.05 1827.01 2204.71 1827.16C2206.64 1827.32 2209.75 1827.19 2213.03 1827.06C2215.77 1826.96 2218.41 1826.85 2220.89 1826.85V1826.85ZM2296.2 1926C2290.46 1926 2284.71 1925.48 2278.98 1924.43L2239.26 1917.15C2232.12 1915.83 2227.11 1909.65 2227.37 1902.45C2228.83 1859.86 2228.61 1840.32 2227.95 1835.86C2225.44 1834.93 2217.67 1835.24 2213.37 1835.4C2209.82 1835.55 2206.47 1835.68 2204.01 1835.48C2199.03 1835.06 2194.75 1831.75 2193.13 1827.01L2181.41 1792.73C2181.11 1791.88 2180.73 1791.07 2180.28 1790.31L2173.2 1778.57C2171.27 1775.36 2171.7 1771.27 2174.29 1768.43C2190.34 1750.74 2194.18 1718.2 2194.22 1717.87C2194.46 1715.79 2196.19 1714.22 2198.28 1714.16L2285 1712.01C2297.89 1711.74 2309.76 1716.33 2318.92 1725.04C2327.98 1733.67 2333.1 1745.28 2333.33 1757.71C2333.35 1758.21 2333.26 1758.72 2333.1 1759.19L2315.62 1807.76C2313.36 1835.08 2333.02 1880.3 2341.62 1898.56C2343.29 1902.12 2343.46 1906.12 2342.05 1909.79C2340.67 1913.5 2337.89 1916.41 2334.24 1918.02C2322.14 1923.3 2309.23 1926 2296.2 1926" fill="black"/>
<path d="M2190.7 1707.09C2187.2 1712.44 2189.3 1719.62 2195.16 1722.29L2198.69 1723.91L2266.51 1757.17C2268.23 1758.02 2270.3 1757.91 2271.86 1756.79C2274.67 1754.77 2279.71 1752.28 2284.76 1755.49C2291.81 1759.97 2293.25 1783.88 2275.12 1790.23C2272.75 1791.06 2271.42 1793.57 2272.38 1795.9C2273.44 1798.39 2274.98 1801.73 2277.12 1805.37C2293.08 1832.73 2332.61 1834.35 2351.66 1808.98C2365.69 1790.29 2378.54 1759.54 2362.71 1717.49C2337.9 1651.55 2236.55 1637.36 2190.7 1707.09" fill="black"/>
<path d="M2355.53 1691.51C2355.53 1691.51 2385 1656.57 2428.11 1670.12C2471.23 1683.67 2473.43 1756.61 2478.43 1802.07C2496.02 1962.22 2535.15 2020.5 2547.78 2034.96C2561.78 2051.02 2451.59 2040.12 2414.45 2027.48C2307.44 1991.02 2363.8 1888.02 2368.81 1869.48C2373.85 1850.94 2413.73 1747.16 2364.16 1735.02L2339 1713.63L2355.53 1691.51Z" fill="black"/>
<path d="M2369.02 1741.26L2368.5 1741.44C2363.76 1743.16 2358.53 1740.77 2356.78 1736.07L2343.56 1700.35C2341.82 1695.67 2344.25 1690.46 2348.98 1688.74L2349.5 1688.56C2354.22 1686.84 2359.47 1689.23 2361.22 1693.93L2374.44 1729.65C2376.18 1734.33 2373.75 1739.54 2369.02 1741.26Z" fill="white"/>
<path d="M2352.71 1692.46C2352.15 1692.46 2351.57 1692.56 2351.02 1692.76L2350.48 1692.96C2349.27 1693.42 2348.28 1694.33 2347.74 1695.52C2347.2 1696.72 2347.17 1698.03 2347.6 1699.24L2360.69 1735.31C2361.63 1737.87 2364.43 1739.18 2366.97 1738.24L2367.51 1738.04C2368.73 1737.58 2369.7 1736.66 2370.24 1735.47C2370.78 1734.3 2370.84 1732.96 2370.41 1731.75L2357.29 1695.69C2356.57 1693.69 2354.7 1692.46 2352.71 1692.46ZM2365.3 1747C2359.94 1747 2354.88 1743.65 2352.92 1738.26L2339.81 1702.18C2338.61 1698.84 2338.75 1695.21 2340.21 1691.99C2341.68 1688.73 2344.33 1686.25 2347.63 1685.01L2348.19 1684.82C2354.97 1682.28 2362.58 1685.85 2365.08 1692.74L2378.18 1728.82C2379.4 1732.16 2379.26 1735.78 2377.78 1739.03C2376.31 1742.27 2373.66 1744.75 2370.35 1745.97L2369.83 1746.18C2368.34 1746.73 2366.81 1747 2365.3 1747Z" fill="black"/>
<path d="M2395.15 3216.6H2249.93V2688H2174.07V3216.6H2028.85C1982.54 3216.6 1945 3254.14 1945 3300.46V3313H2479V3300.46C2479 3254.14 2441.46 3216.6 2395.15 3216.6" fill="white"/>
<path d="M1948.32 3309.65H2473.66V3301.27C2473.66 3257.29 2437.95 3221.5 2394.03 3221.5H2248.89C2246.6 3221.5 2244.74 3219.64 2244.74 3217.33V2692.35H2177.26V3217.33C2177.26 3219.64 2175.4 3221.5 2173.09 3221.5H2027.95C1984.05 3221.5 1948.32 3257.29 1948.32 3301.27V3309.65ZM2477.83 3318H1944.15C1941.86 3318 1940 3316.14 1940 3313.82V3301.27C1940 3252.68 1979.46 3213.15 2027.95 3213.15H2168.92V2688.18C2168.92 2685.86 2170.8 2684 2173.09 2684H2248.89C2251.2 2684 2253.06 2685.86 2253.06 2688.18V3213.15H2394.03C2442.54 3213.15 2482 3252.68 2482 3301.27V3313.82C2482 3316.14 2480.14 3318 2477.83 3318" fill="black"/>
<path d="M2437.74 2126H2399.56C2297.73 2126 2209.64 2197.45 2187.88 2297.7L2143.43 2502.45C2133.04 2550.36 2090.93 2584.51 2042.27 2584.51H1961.99C1920.02 2584.51 1886 2618.8 1886 2661.08C1886 2703.37 1920.02 2737.66 1961.99 2737.66H2092.38L2092.29 2738H2321.7C2401.98 2738 2471.43 2681.67 2488.58 2602.63L2559.08 2277.92C2576.02 2199.85 2517.04 2126 2437.74 2126Z" fill="white"/>
<path d="M2093.81 2734.67H2321.01C2398.59 2734.67 2466.94 2679.06 2483.52 2602.42L2553.86 2277.37C2561.71 2241.09 2552.91 2203.77 2529.72 2174.97C2506.88 2146.61 2473.02 2130.35 2436.83 2130.35H2398.72C2299.8 2130.35 2212.65 2201.24 2191.51 2298.94L2147.16 2503.91C2136.45 2553.41 2092.26 2589.34 2042.12 2589.34H1962C1922.47 2589.34 1890.32 2621.86 1890.32 2661.83C1890.32 2701.79 1922.47 2734.31 1962 2734.31H2092.13C2092.71 2734.31 2093.29 2734.44 2093.81 2734.67V2734.67ZM2321.01 2743H2092.06C2091.47 2743 2090.91 2742.89 2090.38 2742.66H1962C1917.89 2742.66 1882 2706.4 1882 2661.83C1882 2617.26 1917.89 2581 1962 2581H2042.12C2088.38 2581 2129.12 2547.83 2139.03 2502.14L2183.37 2297.17C2205.35 2195.68 2295.92 2122 2398.72 2122H2436.83C2475.54 2122 2511.77 2139.4 2536.2 2169.73C2560.99 2200.52 2570.39 2240.39 2562 2279.14L2491.65 2604.2C2474.24 2684.63 2402.47 2743 2321.01 2743" fill="black"/>
<path d="M3219.79 2075C3219.48 2075 3219.18 2074.96 3218.87 2074.89C3216.62 2074.39 3215.23 2072.14 3215.73 2069.9C3282.59 1776.51 3228.6 1549.13 3171.53 1410.06C3109.68 1259.31 3030.96 1176.9 3030.17 1176.08C3028.58 1174.42 3028.62 1171.78 3030.26 1170.17C3031.91 1168.58 3034.54 1168.61 3036.15 1170.26C3036.94 1171.09 3116.58 1254.41 3179.06 1406.5C3236.69 1546.76 3291.24 1776.04 3223.84 2071.76C3223.41 2073.7 3221.68 2075 3219.79 2075" fill="black"/>
<path d="M3033.17 2497C3032.67 2497 3032.18 2496.91 3031.67 2496.73C3029.53 2495.9 3028.45 2493.49 3029.28 2491.34C3155.41 2158.51 3178.38 1940.47 3175.45 1816.14C3172.28 1681.57 3138.89 1624.9 3138.55 1624.34C3137.36 1622.39 3137.98 1619.82 3139.94 1618.61C3141.9 1617.41 3144.46 1618.03 3145.65 1620C3147.07 1622.31 3180.33 1678.44 3183.73 1814.78C3186.87 1939.98 3163.95 2159.49 3037.04 2494.31C3036.41 2495.97 3034.85 2497 3033.17 2497" fill="black"/>
<path d="M464.17 392C463.082 392 461.999 391.585 461.18 390.737C459.575 389.094 459.612 386.46 461.262 384.854C464.081 382.11 746.964 109.965 1055.06 52.0704C1057.33 51.6553 1059.5 53.1171 1059.93 55.391C1060.35 57.6469 1058.86 59.8303 1056.6 60.2454C751.016 117.688 469.886 388.102 467.085 390.827C466.273 391.621 465.222 392 464.175 392" fill="black"/>
<path d="M309.174 462C308.208 462 307.242 461.655 306.455 460.983C304.705 459.476 304.506 456.824 306.006 455.063C513.003 213.029 728.159 127.127 730.312 126.291C732.457 125.438 734.883 126.527 735.715 128.688C736.551 130.831 735.487 133.265 733.338 134.101C731.209 134.936 517.893 220.166 312.343 460.529C311.514 461.492 310.349 462 309.174 462" fill="black"/>
</svg>
