<svg width="3334" height="3334" viewBox="0 0 3334 3334" fill="none" xmlns="http://www.w3.org/2000/svg">
<path d="M873.21 853.574C920.936 852.603 960.425 890.512 961.413 938.235C962.402 985.957 924.516 1025.44 876.79 1026.43C829.066 1027.4 789.575 989.487 788.587 941.765C787.598 894.042 825.486 854.562 873.21 853.574ZM701 926.763L701.696 960.332L737.628 967.673C739.179 975.421 741.342 982.94 744.111 990.158L717.718 1015.54L735.105 1044.27L769.895 1032.66C775.058 1038.52 780.695 1043.92 786.753 1048.84L776.581 1084.09L805.997 1100.27L830.279 1072.86C837.605 1075.31 845.204 1077.17 853.006 1078.4L861.812 1114L895.382 1113.33L902.709 1077.4C910.451 1075.84 917.968 1073.67 925.184 1070.92L950.58 1097.32L979.303 1079.94L967.68 1045.13C973.529 1039.98 978.94 1034.33 983.855 1028.28L1019.1 1038.46L1035.28 1009.06L1007.86 984.757C1010.32 977.433 1012.17 969.844 1013.4 962.043L1049 953.236L1048.31 919.668L1012.37 912.327C1010.82 904.579 1008.66 897.078 1005.89 889.859L1032.28 864.463L1014.9 835.731L980.107 847.343C974.946 841.502 969.305 836.083 963.248 831.159L973.421 795.932L944.001 779.731L919.721 807.157C912.396 804.686 904.798 802.833 896.996 801.598L888.188 766L854.618 766.688L847.293 802.621C839.549 804.157 832.033 806.328 824.816 809.098L799.42 782.696L770.698 800.062L782.322 834.866C776.471 840.019 771.063 845.667 766.147 851.72L730.905 841.537L714.723 870.958L742.144 895.242C739.678 902.567 737.829 910.173 736.598 917.974L701 926.763" fill="white"/>
<path d="M872.786 856.428C850.668 856.888 830.052 865.894 814.736 881.822C799.422 897.732 791.24 918.64 791.7 940.678C792.632 985.637 829.615 1021.59 874.502 1021.59C875.075 1021.59 875.643 1021.59 876.218 1021.57C898.336 1021.11 918.952 1012.11 934.268 996.197C949.581 980.286 957.762 959.361 957.302 937.323C956.357 891.781 918.42 855.351 872.786 856.428V856.428ZM874.5 1029.4C825.377 1029.4 784.912 990.052 783.888 940.855C783.387 916.715 792.34 893.829 809.101 876.4C825.862 858.989 848.424 849.135 872.625 848.641C922.613 847.793 964.078 887.331 965.114 937.164C965.615 961.286 956.66 984.171 939.899 1001.6C923.14 1019.01 900.58 1028.87 876.377 1029.38C875.751 1029.38 875.123 1029.4 874.5 1029.4V1029.4ZM829.627 1068.03C830.043 1068.03 830.464 1068.1 830.872 1068.23C837.976 1070.61 845.434 1072.43 853.04 1073.63C854.593 1073.88 855.847 1075.03 856.224 1076.54L864.31 1109.14L891.749 1108.58L898.477 1075.68C898.79 1074.14 899.996 1072.96 901.537 1072.64C909.089 1071.14 916.465 1069.02 923.46 1066.35C924.923 1065.79 926.582 1066.16 927.67 1067.29L950.991 1091.45L974.464 1077.29L963.793 1045.43C963.296 1043.95 963.736 1042.3 964.914 1041.28C970.608 1036.26 975.918 1030.74 980.697 1024.87C981.684 1023.66 983.302 1023.16 984.811 1023.59L1017.17 1032.91L1030.39 1008.95L1005.22 986.714C1004.04 985.672 1003.61 984.03 1004.11 982.547C1006.5 975.466 1008.32 968.031 1009.52 960.438C1009.76 958.884 1010.91 957.63 1012.44 957.26L1045.12 949.207L1044.56 921.854L1011.56 915.144C1010.02 914.826 1008.82 913.625 1008.51 912.088C1007 904.548 1004.87 897.185 1002.19 890.227C1001.63 888.762 1002 887.102 1003.13 886.007L1027.36 862.768L1013.15 839.353L981.203 850.001C979.717 850.495 978.077 850.053 977.039 848.87C972.018 843.202 966.483 837.904 960.59 833.136C959.371 832.148 958.864 830.523 959.299 829.022L968.638 796.76L944.591 783.569L922.295 808.662C921.255 809.845 919.613 810.269 918.126 809.774C911.039 807.39 903.582 805.571 895.964 804.37C894.414 804.123 893.158 802.975 892.782 801.457L884.693 768.859L857.253 769.424L850.527 802.322C850.212 803.858 849.004 805.059 847.465 805.36C839.9 806.878 832.524 808.997 825.541 811.664C824.082 812.211 822.423 811.858 821.334 810.728L798.013 786.553L774.54 800.715L785.211 832.572C785.708 834.055 785.267 835.697 784.089 836.721C778.405 841.736 773.095 847.246 768.307 853.126C767.318 854.345 765.701 854.857 764.193 854.415L731.83 845.092L718.609 869.054L743.78 891.287C744.956 892.329 745.395 893.971 744.894 895.454C742.504 902.535 740.686 909.969 739.487 917.563C739.243 919.117 738.09 920.37 736.565 920.741L703.879 928.794L704.446 956.147L737.441 962.875C738.979 963.175 740.18 964.376 740.49 965.93C742.006 973.452 744.132 980.816 746.813 987.791C747.374 989.239 747.004 990.899 745.872 991.994L721.644 1015.23L735.854 1038.65L767.801 1028.02C769.287 1027.51 770.924 1027.95 771.964 1029.13C776.993 1034.8 782.526 1040.1 788.416 1044.86C789.634 1045.85 790.142 1047.48 789.707 1048.98L780.366 1081.24L804.412 1094.43L826.705 1069.34C827.459 1068.49 828.531 1068.03 829.627 1068.03V1068.03ZM861.268 1117C859.475 1117 857.909 1115.78 857.476 1114.03L849.258 1080.91C842.979 1079.81 836.808 1078.31 830.851 1076.42L808.186 1101.95C806.977 1103.31 804.987 1103.65 803.383 1102.78L773.864 1086.57C772.263 1085.69 771.487 1083.84 771.995 1082.07L781.489 1049.28C776.675 1045.24 772.099 1040.86 767.845 1036.21L735.364 1047.04C733.632 1047.6 731.736 1046.91 730.787 1045.36L713.341 1016.61C712.397 1015.04 712.659 1013.04 713.978 1011.77L738.61 988.145C736.487 982.3 734.729 976.207 733.365 969.991L699.827 963.175C698.037 962.804 696.738 961.251 696.699 959.432L696.001 925.845C695.965 924.008 697.198 922.401 698.97 921.977L732.198 913.784C733.302 907.515 734.803 901.37 736.682 895.437L711.09 872.833C709.721 871.633 709.376 869.637 710.257 868.03L726.494 838.593C727.373 837.004 729.239 836.227 730.999 836.739L763.901 846.204C767.96 841.401 772.347 836.845 776.988 832.607L766.14 800.221C765.56 798.49 766.26 796.601 767.824 795.647L796.644 778.271C798.204 777.317 800.211 777.582 801.476 778.889L825.184 803.47C831.049 801.351 837.15 799.603 843.386 798.243L850.224 764.797C850.59 763.014 852.147 761.725 853.972 761.689L887.652 761.001C889.584 760.965 891.086 762.202 891.524 763.968L899.747 797.095C906.031 798.208 912.201 799.709 918.151 801.581L940.817 776.064C942.025 774.704 944.022 774.351 945.619 775.234L975.14 791.427C976.738 792.31 977.515 794.182 977.009 795.93L967.516 828.722C972.332 832.783 976.906 837.163 981.158 841.789L1013.64 830.982C1015.37 830.4 1017.27 831.088 1018.22 832.66L1035.66 861.408C1036.61 862.962 1036.34 864.975 1035.03 866.229L1010.39 889.856C1012.52 895.719 1014.27 901.793 1015.64 908.009L1049.18 914.843C1050.97 915.197 1052.27 916.751 1052.3 918.569L1053 952.174C1053.03 953.993 1051.8 955.6 1050.03 956.023L1016.8 964.217C1015.7 970.486 1014.2 976.631 1012.32 982.564L1037.91 1005.17C1039.28 1006.39 1039.63 1008.38 1038.75 1009.97L1022.51 1039.41C1021.63 1041 1019.77 1041.77 1018 1041.28L985.105 1031.8C981.052 1036.58 976.662 1041.16 972.014 1045.39L982.864 1077.78C983.444 1079.51 982.743 1081.4 981.18 1082.35L952.358 1099.75C950.798 1100.68 948.789 1100.42 947.526 1099.11L923.82 1074.53C917.947 1076.65 911.843 1078.4 905.617 1079.76L898.779 1113.2C898.413 1114.99 896.857 1116.28 895.032 1116.33L861.348 1117H861.268" fill="black"/>
<path d="M2436.51 581.982C2476.27 581.168 2509.19 612.747 2510 652.522C2510.83 692.297 2479.26 725.203 2439.49 726.018C2399.71 726.832 2366.81 695.235 2365.98 655.478C2365.17 615.703 2396.73 582.797 2436.51 581.982V581.982ZM2293 642.963L2293.58 670.949L2323.52 677.056C2324.81 683.517 2326.61 689.783 2328.93 695.784L2306.93 716.955L2321.41 740.887L2350.41 731.204C2354.7 736.09 2359.4 740.603 2364.46 744.692L2355.98 774.059L2380.5 787.547L2400.72 764.713C2406.84 766.766 2413.17 768.306 2419.66 769.333L2427.01 799L2454.98 798.434L2461.08 768.483C2467.53 767.191 2473.79 765.403 2479.82 763.084L2500.98 785.087L2524.9 770.607L2515.23 741.613C2520.1 737.311 2524.6 732.62 2528.71 727.575L2558.07 736.054L2571.56 711.538L2548.7 691.305C2550.77 685.198 2552.31 678.861 2553.33 672.365L2583 665.037L2582.42 637.051L2552.47 630.944C2551.18 624.483 2549.37 618.217 2547.07 612.216L2569.07 591.045L2554.57 567.113L2525.58 576.796C2521.28 571.91 2516.58 567.397 2511.54 563.308L2520.01 533.941L2495.5 520.453L2475.26 543.288C2469.16 541.234 2462.83 539.694 2456.32 538.668L2448.99 509L2421.02 509.567L2414.9 539.517C2408.45 540.809 2402.19 542.597 2396.18 544.916L2375.02 522.913L2351.08 537.393L2360.77 566.388C2355.89 570.689 2351.38 575.38 2347.29 580.425L2317.91 571.946L2304.44 596.462L2327.28 616.695C2325.23 622.802 2323.69 629.139 2322.67 635.635L2293 642.963" fill="white"/>
<path d="M2437.09 585.854C2418.95 586.226 2402.04 593.665 2389.48 606.807C2376.91 619.932 2370.21 637.183 2370.58 655.39C2371.34 692.496 2401.68 722.164 2438.5 722.164C2438.98 722.164 2439.43 722.146 2439.91 722.146C2458.05 721.774 2474.96 714.335 2487.54 701.193C2500.09 688.068 2506.81 670.817 2506.42 652.61C2505.66 615.025 2474.56 585.128 2437.09 585.854V585.854ZM2438.5 729.974C2397.45 729.992 2363.65 696.924 2362.79 655.55C2362.38 635.252 2369.86 616.017 2383.86 601.37C2397.86 586.74 2416.71 578.451 2436.93 578.026C2437.46 578.026 2437.99 578.008 2438.5 578.008C2479.55 578.008 2513.37 611.076 2514.21 652.45C2514.64 672.73 2507.14 691.983 2493.14 706.613C2479.14 721.26 2460.29 729.549 2440.07 729.974H2438.5ZM2401.33 760.864C2401.75 760.864 2402.18 760.934 2402.58 761.058C2408.42 763.042 2414.57 764.548 2420.83 765.54C2422.38 765.788 2423.64 766.939 2424.01 768.462L2430.58 795.118L2452.25 794.675L2457.72 767.771C2458.04 766.23 2459.24 765.026 2460.77 764.725C2466.99 763.467 2473.06 761.714 2478.83 759.5C2480.27 758.933 2481.93 759.305 2483.02 760.439L2501.96 780.205L2520.51 768.94L2511.83 742.904C2511.34 741.416 2511.78 739.769 2512.96 738.724C2517.63 734.579 2522.01 730.01 2525.94 725.139C2526.94 723.917 2528.57 723.421 2530.05 723.846L2556.35 731.48L2566.79 712.422L2546.34 694.25C2545.16 693.205 2544.73 691.558 2545.23 690.07C2547.19 684.225 2548.68 678.061 2549.69 671.756C2549.92 670.215 2551.08 668.958 2552.6 668.568L2579.15 661.979L2578.69 640.247L2551.89 634.756C2550.36 634.437 2549.16 633.233 2548.86 631.692C2547.61 625.458 2545.86 619.365 2543.64 613.591C2543.08 612.121 2543.45 610.456 2544.58 609.357L2564.27 590.371L2553.06 571.756L2527.08 580.452C2525.6 580.948 2523.96 580.505 2522.94 579.336C2518.82 574.642 2514.25 570.25 2509.4 566.283C2508.18 565.291 2507.67 563.679 2508.11 562.156L2515.69 535.783L2496.7 525.298L2478.58 545.826C2477.54 546.995 2475.92 547.437 2474.43 546.942C2468.58 544.958 2462.44 543.452 2456.19 542.46C2454.63 542.212 2453.38 541.061 2453.01 539.538L2446.43 512.882L2424.76 513.325L2419.3 540.229C2418.98 541.77 2417.78 542.974 2416.25 543.275C2410.01 544.533 2403.94 546.286 2398.19 548.5C2396.73 549.049 2395.07 548.695 2394 547.561L2375.04 527.795L2356.51 539.042L2365.17 565.096C2365.68 566.584 2365.24 568.231 2364.06 569.276C2359.38 573.403 2354.99 577.972 2351.06 582.861C2350.07 584.083 2348.45 584.579 2346.95 584.154L2320.66 576.52L2310.21 595.56L2330.66 613.75C2331.84 614.795 2332.28 616.442 2331.77 617.93C2329.81 623.775 2328.32 629.939 2327.33 636.244C2327.08 637.785 2325.94 639.042 2324.42 639.432L2297.85 646.003L2298.31 667.753L2325.11 673.244C2326.64 673.545 2327.84 674.767 2328.16 676.308C2329.41 682.56 2331.15 688.653 2333.36 694.409C2333.92 695.879 2333.55 697.544 2332.42 698.643L2312.73 717.629L2323.96 736.244L2349.92 727.548C2351.4 727.052 2353.04 727.495 2354.06 728.664C2358.2 733.375 2362.77 737.768 2367.62 741.717C2368.83 742.692 2369.35 744.321 2368.91 745.826L2361.31 772.217L2380.31 782.702L2398.42 762.174C2399.18 761.324 2400.24 760.864 2401.33 760.864V760.864ZM2427.55 803C2425.75 803 2424.2 801.778 2423.76 800.024L2417.06 772.837C2412.12 771.933 2407.26 770.747 2402.57 769.277L2384.07 790.23C2382.85 791.594 2380.86 791.93 2379.29 791.062L2354.83 777.566C2353.23 776.68 2352.45 774.803 2352.97 773.05L2360.71 746.128C2356.93 742.904 2353.34 739.433 2349.97 735.784L2323.47 744.657C2321.74 745.224 2319.85 744.533 2318.9 742.975L2304.46 719.011C2303.51 717.452 2303.77 715.433 2305.09 714.158L2325.19 694.764C2323.54 690.141 2322.14 685.323 2321.05 680.399L2293.69 674.785C2291.91 674.413 2290.62 672.872 2290.58 671.03L2290 643.045C2289.97 641.221 2291.2 639.609 2292.96 639.166L2320.06 632.436C2320.95 627.494 2322.14 622.624 2323.59 617.912L2302.71 599.35C2301.36 598.146 2301 596.145 2301.88 594.533L2315.34 570.02C2316.22 568.408 2318.07 567.629 2319.83 568.142L2346.67 575.918C2349.88 572.128 2353.34 568.514 2356.99 565.149L2348.13 538.564C2347.55 536.828 2348.24 534.915 2349.81 533.976L2373.68 519.488C2375.24 518.55 2377.23 518.798 2378.5 520.126L2397.84 540.282C2402.46 538.634 2407.27 537.235 2412.17 536.155L2417.75 508.702C2418.12 506.913 2419.67 505.62 2421.48 505.567L2449.38 505C2451.39 505.035 2452.8 506.187 2453.24 507.976L2459.96 535.163C2464.9 536.067 2469.74 537.253 2474.45 538.723L2492.93 517.77C2494.15 516.406 2496.14 516.07 2497.73 516.938L2522.18 530.434C2523.77 531.32 2524.55 533.197 2524.03 534.95L2516.29 561.872C2520.08 565.096 2523.68 568.567 2527.03 572.216L2553.53 563.343C2555.26 562.776 2557.15 563.467 2558.1 565.025L2572.54 588.989C2573.49 590.548 2573.23 592.567 2571.92 593.842L2551.82 613.236C2553.48 617.877 2554.86 622.694 2555.95 627.601L2583.31 633.215C2585.1 633.587 2586.38 635.128 2586.44 636.97L2587 664.955C2587.03 666.779 2585.82 668.391 2584.04 668.834L2556.94 675.564C2556.05 680.523 2554.87 685.376 2553.41 690.088L2574.29 708.65C2575.64 709.854 2576 711.855 2575.12 713.467L2561.66 737.998C2560.8 739.592 2558.93 740.354 2557.18 739.858L2530.35 732.082C2527.14 735.872 2523.68 739.486 2520.03 742.851L2528.88 769.436C2529.47 771.172 2528.76 773.085 2527.21 774.024L2503.33 788.512C2501.76 789.45 2499.77 789.202 2498.52 787.874L2479.18 767.7C2474.54 769.365 2469.74 770.765 2464.84 771.845L2459.25 799.298C2458.9 801.087 2457.35 802.38 2455.52 802.433L2427.62 803H2427.55" fill="black"/>
<path d="M2795.56 459.694C2854.66 439.061 2919.35 470.152 2940.05 529.141C2960.72 588.147 2929.57 652.691 2870.44 673.306C2811.34 693.939 2746.65 662.849 2725.95 603.86C2705.28 544.871 2736.43 480.327 2795.56 459.694ZM2610.62 620.825L2625.16 662.302L2672.96 656.818C2678.07 665.829 2683.81 674.294 2690.21 682.159L2667.64 724.483L2701.04 753.157L2739.68 724.554C2748.5 729.738 2757.74 734.182 2767.3 737.833L2768.98 785.835L2812.26 794L2831.36 750.019C2841.5 750.107 2851.73 749.313 2861.96 747.673L2887.46 788.392L2929.04 773.896L2923.54 726.194C2932.55 721.115 2941.05 715.366 2948.92 708.982L2991.34 731.519L3020.09 698.207L2991.41 659.621C2996.61 650.822 3001.06 641.616 3004.72 632.076L3052.82 630.418L3061 587.23L3016.91 568.149C3017 558.027 3016.21 547.834 3014.56 537.623L3055.38 512.193L3040.84 470.698L2993.04 476.183C2987.93 467.171 2982.17 458.706 2975.79 450.841L2998.36 408.517L2964.96 379.843L2926.32 408.447C2917.5 403.262 2908.26 398.818 2898.7 395.167L2897.02 347.183L2853.75 339L2834.63 382.982C2824.5 382.894 2814.27 383.687 2804.04 385.327L2778.54 344.608L2736.96 359.121L2742.46 406.807C2733.45 411.885 2724.95 417.634 2717.08 424.018L2674.66 401.498L2645.91 434.811L2674.59 473.379C2669.39 482.178 2664.94 491.384 2661.28 500.925L2613.18 502.6L2605 545.788L2649.09 564.851C2649 574.974 2649.78 585.184 2651.44 595.395L2610.62 620.825Z" fill="white"/>
<path d="M2797.41 462.868C2769.84 472.561 2747.68 492.424 2735.02 518.843C2722.35 545.262 2720.68 575.066 2730.33 602.743C2750.22 659.887 2812.72 690.098 2869.59 670.129C2897.16 660.454 2919.32 640.573 2931.98 614.154C2944.65 587.735 2946.32 557.931 2936.67 530.254C2916.78 473.128 2854.28 442.899 2797.41 462.868ZM2833.61 684.109C2785.22 684.109 2739.83 653.739 2722.97 605.312C2712.63 575.668 2714.43 543.756 2728 515.459C2741.58 487.161 2765.31 465.863 2794.83 455.48C2855.78 434.075 2922.7 466.465 2944.03 527.685C2954.37 557.329 2952.57 589.241 2939 617.539C2925.42 645.854 2901.7 667.152 2872.17 677.518C2859.43 681.983 2846.41 684.109 2833.61 684.109ZM2773.37 783.602L2810.46 790.654L2828.3 749.333C2828.91 747.88 2830.17 746.941 2831.89 746.977C2841.74 747.065 2851.79 746.286 2861.79 744.673C2863.33 744.425 2864.88 745.134 2865.71 746.463L2889.52 784.718L2925.14 772.209L2920 727.397C2919.83 725.838 2920.6 724.314 2921.96 723.552C2930.77 718.555 2939.13 712.867 2946.76 706.63C2947.98 705.638 2949.67 705.479 2951.05 706.223L2990.65 727.379L3015.28 698.639L2988.52 662.403C2987.58 661.145 2987.49 659.444 2988.29 658.08C2993.35 649.45 2997.73 640.325 3001.29 630.987C3001.84 629.517 3003.23 628.524 3004.78 628.471L3049.67 626.912L3056.71 589.666L3015.54 571.752C3014.11 571.114 3013.18 569.697 3013.2 568.12C3013.28 558.233 3012.51 548.133 3010.9 538.104C3010.66 536.544 3011.36 534.985 3012.68 534.152L3050.79 510.267L3038.31 474.474L2993.7 479.648C2992.15 479.825 2990.63 479.046 2989.86 477.664C2984.88 468.822 2979.22 460.441 2973.01 452.768C2972.02 451.546 2971.87 449.845 2972.61 448.462L2993.67 408.683L2965.06 383.947L2928.97 410.827C2927.71 411.766 2926.02 411.855 2924.68 411.057C2916.09 405.99 2907.02 401.596 2897.69 397.999C2896.23 397.432 2895.24 396.049 2895.19 394.472L2893.63 349.395L2856.54 342.343L2838.7 383.664C2838.09 385.099 2836.68 386.021 2835.12 386.021C2834.68 386.074 2834.08 386.021 2833.57 386.021C2824.22 386.021 2814.68 386.8 2805.21 388.324C2803.67 388.59 2802.12 387.863 2801.29 386.534L2777.48 348.279L2741.86 360.788L2747 405.6C2747.17 407.159 2746.4 408.683 2745.04 409.445C2736.22 414.442 2727.87 420.147 2720.24 426.367C2719.02 427.359 2717.33 427.519 2715.95 426.792L2676.35 405.636L2651.72 434.358L2678.48 470.594C2679.42 471.852 2679.51 473.553 2678.71 474.917C2673.67 483.529 2669.29 492.654 2665.71 502.01C2665.16 503.481 2663.77 504.473 2662.22 504.526L2617.33 506.085L2610.29 543.331L2651.46 561.245C2652.89 561.883 2653.82 563.3 2653.8 564.877C2653.72 574.729 2654.48 584.847 2656.08 594.911C2656.35 596.453 2655.64 598.012 2654.3 598.845L2616.21 622.73L2628.67 658.523L2673.3 653.366C2674.83 653.189 2676.37 653.951 2677.14 655.333C2682.12 664.193 2687.78 672.574 2693.99 680.247C2694.98 681.469 2695.13 683.152 2694.39 684.552L2673.33 724.314L2701.94 749.05L2738.02 722.17C2739.27 721.231 2740.98 721.142 2742.32 721.939C2750.91 727.025 2760 731.419 2769.31 734.999C2770.77 735.566 2771.74 736.947 2771.8 738.525L2773.37 783.602ZM2812.79 799C2812.54 799 2812.31 798.982 2812.07 798.929L2768.87 790.725C2767.07 790.371 2765.76 788.829 2765.69 787.004L2764.11 741.36C2756.04 738.117 2748.16 734.307 2740.61 729.984L2704.08 757.201C2702.61 758.281 2700.6 758.211 2699.23 757.023L2665.89 728.212C2664.51 727.007 2664.14 725.023 2664.99 723.41L2686.31 683.135C2680.99 676.366 2676.07 669.083 2671.64 661.429L2626.48 666.656C2624.7 666.851 2622.95 665.788 2622.35 664.051L2607.84 622.376C2607.24 620.639 2607.91 618.726 2609.44 617.751L2648 593.564C2646.73 584.811 2646.06 576.04 2646.01 567.411L2604.34 549.267C2602.67 548.54 2601.73 546.75 2602.07 544.943L2610.23 501.549C2610.59 499.76 2612.12 498.431 2613.94 498.377L2659.4 496.783C2662.61 488.685 2666.4 480.765 2670.7 473.199L2643.61 436.502C2642.52 435.031 2642.6 433.011 2643.79 431.629L2672.47 398.158C2673.67 396.758 2675.64 396.386 2677.25 397.254L2717.34 418.659C2724.1 413.326 2731.35 408.382 2738.95 403.935L2733.77 358.574C2733.55 356.749 2734.63 355.03 2736.34 354.427L2777.85 339.844C2779.56 339.242 2781.48 339.915 2782.43 341.475L2806.53 380.191C2815.24 378.915 2823.97 378.242 2832.58 378.189L2850.63 336.354C2851.35 334.67 2853.13 333.731 2854.93 334.068L2898.13 342.29C2899.93 342.626 2901.24 344.168 2901.31 345.993L2902.89 391.637C2910.97 394.88 2918.86 398.689 2926.39 403.013L2962.92 375.796C2964.39 374.716 2966.4 374.786 2967.77 375.974L3001.11 404.803C3002.49 405.99 3002.86 407.975 3002.01 409.605L2980.69 449.862C2986.01 456.649 2990.93 463.931 2995.36 471.568L3040.52 466.341C3042.3 466.146 3044.05 467.21 3044.65 468.946L3059.16 510.639C3059.76 512.358 3059.09 514.271 3057.56 515.246L3019 539.433C3020.27 548.168 3020.94 556.939 3020.99 565.586L3062.66 583.73C3064.33 584.457 3065.27 586.247 3064.93 588.054L3056.77 631.448C3056.41 633.238 3054.9 634.567 3053.06 634.62L3007.62 636.215C3004.39 644.312 3000.6 652.215 2996.3 659.799L3023.39 696.495C3024.48 697.966 3024.4 699.985 3023.21 701.385L2994.53 734.857C2993.33 736.239 2991.34 736.611 2989.75 735.743L2949.66 714.338C2942.88 719.689 2935.63 724.633 2928.05 729.063L2933.23 774.424C2933.45 776.249 2932.37 777.967 2930.66 778.57L2889.15 793.153C2887.44 793.755 2885.52 793.082 2884.57 791.523L2860.47 752.806C2851.76 754.082 2843.03 754.755 2834.42 754.808L2816.37 796.643C2815.74 798.096 2814.33 799 2812.79 799" fill="black"/>
<path d="M715.898 2100C714.9 2100 713.905 2099.61 713.142 2098.85C711.619 2097.33 711.619 2094.86 713.142 2093.34L1050.34 1756.15C1051.87 1754.62 1054.33 1754.62 1055.86 1756.15C1057.38 1757.67 1057.38 1760.14 1055.86 1761.66L718.657 2098.85C717.896 2099.61 716.898 2100 715.9 2100" fill="black"/>
<path d="M795.893 1878C794.897 1878 793.901 1877.63 793.141 1876.85C791.62 1875.33 791.62 1872.85 793.141 1871.33L1062.35 1601.15C1063.88 1599.62 1066.34 1599.62 1067.86 1601.15C1069.38 1602.68 1069.38 1605.15 1067.86 1606.68L798.647 1876.85C797.887 1877.63 796.891 1878 795.895 1878" fill="black"/>
<path d="M419.903 1039C419.213 1039 418.515 1038.81 417.881 1038.42C416.037 1037.3 415.448 1034.9 416.567 1033.06C545.199 821.38 732.195 653.342 957.336 547.093C1051.07 502.862 1149.63 470.219 1250.32 450.082C1252.46 449.641 1254.5 451.019 1254.92 453.138C1255.35 455.24 1253.97 457.307 1251.86 457.731C1151.8 477.744 1053.84 510.175 960.679 554.141C736.936 659.736 551.096 826.749 423.253 1037.11C422.519 1038.33 421.23 1039 419.91 1039" fill="black"/>
<path d="M260.899 1074C260.261 1074 259.618 1073.84 259.023 1073.52C257.135 1072.48 256.446 1070.09 257.483 1068.22C333.9 929.143 432.591 804.46 550.825 697.599C673.174 587.025 813.394 498.428 967.6 434.3C969.595 433.469 971.874 434.424 972.7 436.404C973.527 438.402 972.584 440.683 970.596 441.514C669.816 566.604 418.995 790.51 264.33 1071.97C263.62 1073.26 262.284 1074 260.908 1074" fill="black"/>
<path d="M1100.52 359.038L1114.84 403.141L1142.9 361.284L1100.52 359.038ZM1113.57 416C1113.39 416 1113.21 415.983 1113.03 415.965C1111.5 415.755 1110.23 414.719 1109.77 413.281L1091.18 356.039C1090.79 354.828 1091.03 353.495 1091.84 352.495C1092.64 351.495 1093.91 350.951 1095.2 351.003L1150.23 353.916C1151.65 353.986 1152.92 354.793 1153.57 356.021C1154.21 357.267 1154.13 358.74 1153.35 359.898L1116.91 414.228C1116.17 415.333 1114.91 416 1113.57 416" fill="black"/>
<path d="M2231.99 140.06C2233.43 156.386 2248.1 168.526 2264.6 167.118C2272.62 166.432 2279.89 162.702 2285.06 156.633C2290.24 150.545 2292.7 142.84 2292.01 134.94C2290.58 118.596 2275.95 106.474 2259.41 107.882C2251.39 108.55 2244.12 112.28 2238.94 118.367C2233.77 124.437 2231.31 132.143 2231.99 140.06ZM2261.98 175C2242.48 175 2225.85 160.239 2224.14 140.728C2223.27 130.753 2226.39 121.024 2232.91 113.353C2239.45 105.7 2248.61 101.003 2258.74 100.14C2279.53 98.3635 2298.05 113.652 2299.85 134.254C2300.74 144.247 2297.62 153.958 2291.08 161.629C2284.56 169.3 2275.4 173.997 2265.28 174.859C2264.17 174.947 2263.07 175 2261.98 175" fill="black"/>
<path d="M2570.18 191H2569.98L2549.65 189.971C2547.53 189.862 2545.9 187.984 2546 185.78C2546.11 183.576 2547.93 181.897 2550.03 182.005L2570.35 183.035C2572.47 183.143 2574.1 185.021 2574 187.207C2573.89 189.338 2572.21 191 2570.18 191" fill="black"/>
<path d="M2498.9 187H2498.7L2476.91 185.97C2474.64 185.862 2472.89 183.982 2473.01 181.796C2473.12 179.591 2475.05 177.947 2477.32 178.001L2499.09 179.031C2501.36 179.14 2503.11 181.019 2502.99 183.205C2502.88 185.356 2501.08 187 2498.9 187" fill="black"/>
<path d="M2525.88 162H2525.65C2523.5 161.864 2521.87 160.102 2522.01 158.036L2523.24 138.502C2523.36 136.453 2525.24 134.843 2527.35 135.012C2529.5 135.131 2531.12 136.91 2530.99 138.977L2529.75 158.493C2529.62 160.475 2527.92 162 2525.88 162" fill="black"/>
<path d="M2520.88 234C2520.81 234 2520.72 234 2520.65 233.982C2518.5 233.855 2516.87 231.945 2517.01 229.745L2518.24 208.778C2518.36 206.559 2520.24 204.831 2522.35 205.013C2524.48 205.14 2526.12 207.05 2525.99 209.268L2524.75 230.217C2524.62 232.363 2522.92 234 2520.88 234" fill="black"/>
<path d="M651.551 2337.36C658.014 2389.95 642.676 2442.89 609.102 2483.9C575.529 2524.88 526.641 2550.38 473.798 2554.43C420.592 2558.52 368.056 2540.5 328.551 2504.64C289.045 2468.78 266.06 2418.24 265 2364.9L277.638 1354.03C276.191 1281.25 331.826 1219.98 404.427 1214.41C477.6 1208.8 542.244 1261.71 551.192 1334.52L651.551 2337.36" fill="black"/>
<path d="M414.714 1218.8C411.282 1218.8 407.827 1218.94 404.345 1219.21C334.01 1224.59 280.011 1284.1 281.411 1354.65L268.798 2364.32C269.829 2416.17 292.482 2466 330.943 2500.94C369.408 2535.87 421.227 2553.64 472.981 2549.67C524.401 2545.71 572.625 2520.56 605.294 2480.64C637.962 2440.71 653.093 2388.46 646.806 2337.25L646.797 2337.16L546.639 1335.65C538.38 1268.41 481.434 1218.8 414.714 1218.8V1218.8ZM458.654 2558C409.81 2558 362.051 2539.72 325.702 2506.72C285.659 2470.34 262.075 2418.44 261 2364.36L273.614 1354.69C272.133 1280.11 329.294 1217.14 403.749 1211.42C479.054 1205.65 545.188 1259.84 554.388 1334.78L654.551 2336.33C661.083 2389.62 645.332 2444.03 611.328 2485.58C577.318 2527.13 527.109 2553.32 473.579 2557.43C468.601 2557.82 463.618 2558 458.654 2558" fill="black"/>
<path d="M847.277 2505.96C809.716 2505.96 776.656 2481.22 766.106 2445.2L727.458 2313.3C719.94 2287.62 696.379 2270 669.609 2270H182.331C147.354 2270 119 2298.32 119 2333.25V2769H951V2569.22C951 2534.28 922.646 2505.96 887.669 2505.96H847.277" fill="black"/>
<path d="M121.81 2765.19H946.188V2569.24C946.188 2536.49 919.523 2509.86 886.747 2509.86H846.345C807.3 2509.86 772.375 2483.71 761.408 2446.26L722.75 2314.31C715.764 2290.47 693.511 2273.81 668.635 2273.81H181.246C148.47 2273.81 121.803 2300.45 121.803 2333.18L121.81 2765.19ZM950.095 2773H117.903C115.747 2773 114 2771.25 114 2769.1V2333.18C114 2296.14 144.167 2266 181.249 2266H668.639C696.959 2266 722.294 2284.97 730.249 2312.12L768.903 2444.07C778.903 2478.22 810.749 2502.05 846.348 2502.05H886.751C923.831 2502.05 954 2532.18 954 2569.24V2769.1C954 2771.25 952.253 2773 950.097 2773" fill="black"/>
<path d="M919.277 2505.96C881.716 2505.96 848.656 2481.22 838.105 2445.2L799.458 2313.3C791.938 2287.62 768.377 2270 741.609 2270H254.331C219.355 2270 191 2298.32 191 2333.25V2769H1023V2569.22C1023 2534.28 994.646 2505.96 959.668 2505.96H919.277" fill="white"/>
<path d="M193.81 2765.19H1018.19V2569.24C1018.19 2536.49 991.523 2509.86 958.747 2509.86H918.347C879.304 2509.86 844.376 2483.71 833.409 2446.26L794.751 2314.31C787.763 2290.47 765.511 2273.81 740.637 2273.81H253.246C220.47 2273.81 193.803 2300.45 193.803 2333.18L193.81 2765.19ZM1022.1 2773H189.903C187.748 2773 186 2771.25 186 2769.1V2333.18C186 2296.14 216.169 2266 253.249 2266H740.64C768.958 2266 794.294 2284.97 802.249 2312.12L840.906 2444.07C850.905 2478.22 882.751 2502.05 918.35 2502.05H958.751C995.831 2502.05 1026 2532.18 1026 2569.24V2769.1C1026 2771.25 1024.25 2773 1022.1 2773" fill="black"/>
<path d="M991 2577C991 2596.32 975.776 2612 957.001 2612C938.222 2612 923 2596.32 923 2577C923 2557.68 938.222 2542 957.001 2542C975.776 2542 991 2557.68 991 2577Z" fill="white"/>
<path d="M1107 2781H37V2734H1107V2781Z" fill="black"/>
<path d="M3199.52 2489L1288.18 2223.24C1240.19 2217.11 1204.22 2176.29 1204.22 2127.91L1178 794.931C1178 794.931 1221.57 763.525 1246.27 751.489C1258.84 745.374 1273.29 742.688 1288.35 744.615L3194.04 987.589C3242.03 993.721 3278 1034.55 3278 1082.92V2392.15C3278 2415.58 3267.29 2436.23 3250.73 2449.85C3235.47 2462.38 3199.55 2489 3199.55 2489" fill="black"/>
<path d="M3140.83 2506.39L1234.95 2263.37C1186.96 2257.26 1151 2216.43 1151 2168.05V858.705C1151 813.704 1190.5 778.92 1235.15 784.611L3141.03 1027.62C3189.02 1033.76 3225 1074.59 3225 1122.96V2432.31C3225 2477.31 3185.49 2512.08 3140.85 2506.39" fill="white"/>
<path d="M3100.8 2451.59L1281.06 2219.65C1246.16 2215.2 1220 2185.51 1220 2150.34V887.86C1220 857.825 1246.38 834.609 1276.2 838.408L3095.94 1070.35C3130.84 1074.8 3157 1104.49 3157 1139.65V2402.14C3157 2432.18 3130.61 2455.39 3100.8 2451.59" fill="white"/>
<path d="M3100.42 2448.83C3113.49 2450.49 3126.69 2446.44 3136.6 2437.73C3146.5 2428.99 3152.19 2416.42 3152.19 2403.21V1139.77C3152.19 1106.63 3127.42 1078.48 3094.57 1074.29L1275.58 842.174C1262.49 840.512 1249.31 844.561 1239.4 853.278C1229.48 862.012 1223.81 874.583 1223.81 887.791V2151.24C1223.81 2184.37 1248.58 2212.52 1281.43 2216.71L3100.42 2448.83ZM3106.23 2457C3103.97 2457 3101.69 2456.86 3099.43 2456.58L1280.44 2224.46C1243.71 2219.77 1216 2188.28 1216 2151.24V887.791C1216 872.338 1222.64 857.627 1234.24 847.425C1245.83 837.205 1261.25 832.485 1276.57 834.429L3095.56 1066.55C3132.29 1071.23 3160 1102.72 3160 1139.77V2403.21C3160 2418.65 3153.34 2433.38 3141.76 2443.58C3131.89 2452.28 3119.22 2457 3106.23 2457" fill="black"/>
<path d="M3150.45 2511C3147.15 2511 3143.84 2510.79 3140.52 2510.36L1235.35 2267.43C1185.55 2261.07 1148 2218.43 1148 2168.25V1631.79C1148 1629.63 1149.75 1627.88 1151.9 1627.88C1154.06 1627.88 1155.81 1629.63 1155.81 1631.79V2168.25C1155.81 2214.53 1190.42 2253.82 1236.32 2259.67L3141.49 2502.62C3161.64 2505.2 3181.96 2498.98 3197.21 2485.54C3212.46 2472.11 3221.21 2452.76 3221.21 2432.44V1123.43C3221.21 1077.15 3186.59 1037.85 3140.68 1031.98L2158.77 906.787C2156.64 906.505 2155.13 904.543 2155.4 902.405C2155.68 900.285 2157.64 898.765 2159.78 899.03L3141.67 1024.24C3191.47 1030.6 3229 1073.24 3229 1123.43V2432.44C3229 2455 3219.3 2476.49 3202.37 2491.4C3187.95 2504.11 3169.43 2511 3150.43 2511" fill="black"/>
<path d="M1151.91 1196C1149.75 1196 1148 1194.25 1148 1192.1V858.564C1148 836.001 1157.72 814.516 1174.67 799.604C1191.61 784.692 1214.16 777.783 1236.58 780.628L1685.59 837.839C1687.73 838.122 1689.23 840.065 1688.97 842.203C1688.69 844.341 1686.76 845.86 1684.58 845.578L1235.59 788.384C1215.42 785.805 1195.09 792.024 1179.83 805.452C1164.56 818.88 1155.81 838.245 1155.81 858.564V1192.1C1155.81 1194.25 1154.06 1196 1151.91 1196" fill="black"/>
<path d="M2029.04 3277.77L69.7889 3025.05C54.4548 3023.08 45.8071 3010.23 46.0033 2997.39C46.1411 2988.53 46.8567 2926.16 46.8567 2926.16L1082.8 2333.79C1134.7 2304.13 1201.85 2292.68 1261.14 2300.28L3195.65 2549.89C3207.29 2551.4 3217.28 2558.94 3221.89 2569.74L3225 2577.02C3225 2577.02 3223.34 2629.06 3224.01 2641.2C3224.54 2650.71 3220.26 2660.52 3210.32 2666.21L2200.39 3243.78C2148.47 3273.44 2088.32 3285.37 2029.04 3277.77" fill="black"/>
<path d="M2029.25 3208.77L76.7919 2956.3C50.8751 2952.98 44.057 2918.57 66.7468 2905.6L1071.39 2331.24C1123.31 2301.58 1183.46 2289.64 1242.75 2297.23L3195.21 2549.69C3221.12 2553.02 3227.94 2587.42 3205.25 2600.39L2200.6 3174.75C2148.68 3204.43 2088.53 3216.37 2029.23 3208.77" fill="white"/>
<path d="M2029.37 3204.03C2087.5 3211.47 2147.5 3199.58 2198.36 3170.52L3203.39 2596.64C3214.14 2590.49 3216.28 2579.79 3214.7 2571.84C3213.13 2563.87 3207.06 2554.8 3194.78 2553.23L1241.61 2300.97C1183.51 2293.52 1123.5 2305.44 1072.63 2334.48L67.6166 2908.38C56.8625 2914.51 54.7199 2925.2 56.3004 2933.16C57.8791 2941.13 63.943 2950.2 76.2245 2951.77L2029.37 3204.03ZM2063.4 3214C2051.71 3214 2040.01 3213.26 2028.38 3211.77L75.2132 2959.51C61.7119 2957.78 51.2743 2948.04 48.6242 2934.68C45.9741 2921.33 51.9036 2908.34 63.7255 2901.59L1068.75 2327.71C1121.09 2297.82 1182.83 2285.57 1242.62 2293.22L3195.79 2545.49C3209.29 2547.22 3219.72 2556.96 3222.37 2570.32C3225.03 2583.66 3219.1 2596.66 3207.28 2603.41L2202.25 3177.31C2160.1 3201.38 2111.84 3214 2063.42 3214" fill="black"/>
<path d="M2411.68 2889.99L718.49 2669.61C695.079 2666.63 688.923 2635.57 709.416 2623.86L1107.54 2398.72C1154.43 2371.94 1208.76 2361.15 1262.33 2368.01L2955.51 2588.38C2978.91 2591.39 2985.08 2622.45 2964.58 2634.15L2566.46 2859.28C2519.57 2886.08 2465.24 2896.85 2411.67 2889.99" fill="white"/>
<path d="M2412.23 2885.24C2464.6 2891.96 2518.72 2881.22 2564.59 2855.01L2962.74 2629.76C2972.27 2624.31 2974.18 2614.81 2972.76 2607.76C2971.37 2600.68 2965.99 2592.64 2955.11 2591.24L1261.77 2370.76C1209.39 2364.06 1155.28 2374.79 1109.41 2401.01L711.243 2626.26C701.722 2631.69 699.82 2641.18 701.221 2648.26C702.621 2655.32 707.998 2663.36 718.891 2664.76L2412.23 2885.24ZM2442.9 2895C2432.33 2895 2421.74 2894.35 2411.22 2892.98L717.9 2672.51C705.547 2670.93 695.995 2662 693.57 2649.78C691.148 2637.54 696.573 2625.64 707.392 2619.47L1105.56 2394.21C1152.88 2367.17 1208.71 2356.08 1262.78 2363.02L2956.1 2583.49C2968.46 2585.08 2978 2594 2980.42 2606.24C2982.86 2618.46 2977.44 2630.36 2966.6 2636.55L2568.45 2861.8C2530.34 2883.57 2486.68 2895 2442.9 2895" fill="black"/>
<path d="M2138.82 1151.24L2917.05 1238.75L2917.18 1205.74L2138.95 1118.26L2138.82 1151.24ZM2920.95 1247C2920.8 1247 2920.66 1246.98 2920.5 1246.96L2134.47 1158.6C2132.49 1158.37 2130.98 1156.69 2131 1154.72L2131.14 1113.89C2131.14 1112.78 2131.62 1111.72 2132.45 1110.99C2133.28 1110.25 2134.36 1109.9 2135.5 1110.02L2921.53 1198.41C2923.51 1198.62 2925.02 1200.29 2925 1202.29L2924.86 1243.12C2924.86 1244.21 2924.38 1245.27 2923.55 1246.01C2922.82 1246.65 2921.9 1247 2920.95 1247" fill="black"/>
<path d="M2302.81 1237.35L3094.07 1326.73L3094.19 1293.66L2302.93 1204.26L2302.81 1237.35ZM3097.96 1335C3097.81 1335 3097.67 1335 3097.51 1334.98L2298.46 1244.7C2296.48 1244.49 2295 1242.81 2295 1240.81L2295.16 1199.9C2295.16 1198.78 2295.64 1197.72 2296.45 1196.98C2297.28 1196.25 2298.37 1195.9 2299.49 1196.02L3098.54 1286.29C3100.52 1286.52 3102.02 1288.2 3102 1290.18L3101.86 1331.11C3101.86 1332.22 3101.38 1333.27 3100.55 1334.01C3099.83 1334.65 3098.91 1335 3097.96 1335" fill="black"/>
<path d="M2591.84 1337.61L2998.05 1383.67L2998.18 1350.4L2591.97 1304.33L2591.84 1337.61ZM3001.95 1392C3001.8 1392 3001.66 1391.98 3001.5 1391.96L2587.47 1345.03C2585.49 1344.8 2584 1343.1 2584 1341.11L2584.16 1299.92C2584.16 1298.8 2584.64 1297.73 2585.47 1297C2586.3 1296.26 2587.38 1295.9 2588.5 1296.02L3002.53 1342.98C3004.51 1343.19 3006.02 1344.88 3006 1346.89L3005.86 1388.09C3005.86 1389.19 3005.38 1390.26 3004.55 1391C3003.82 1391.64 3002.9 1392 3001.95 1392Z" fill="black"/>
<path d="M2137.81 1691.55L2915.06 1779.7L2915.19 1746.46L2137.94 1658.32L2137.81 1691.55ZM2918.95 1788C2918.81 1788 2918.67 1788 2918.51 1787.98L2133.46 1698.96C2131.49 1698.73 2129.98 1697.04 2130 1695.03L2130.14 1653.92C2130.14 1652.8 2130.62 1651.73 2131.45 1650.98C2132.28 1650.26 2133.36 1649.9 2134.49 1650.02L2919.53 1739.06C2921.51 1739.28 2923.02 1740.97 2923 1742.97L2922.86 1784.09C2922.86 1785.21 2922.38 1786.28 2921.55 1787.02C2920.83 1787.66 2919.91 1788 2918.95 1788" fill="black"/>
<path d="M2300.83 1776.35L3093.04 1865.73L3093.17 1832.64L2300.94 1743.26L2300.83 1776.35ZM3096.93 1874C3096.79 1874 3096.65 1873.98 3096.49 1873.96L2296.47 1783.7C2294.49 1783.49 2293 1781.81 2293 1779.81L2293.16 1738.88C2293.16 1737.78 2293.64 1736.72 2294.47 1735.98C2295.3 1735.25 2296.38 1734.9 2297.49 1735.02L3097.52 1825.29C3099.5 1825.5 3101 1827.18 3101 1829.18L3100.84 1870.11C3100.84 1871.21 3100.36 1872.27 3099.53 1873.01C3098.81 1873.65 3097.89 1874 3096.93 1874" fill="black"/>
<path d="M2589.83 1877.63L3092.04 1934.67L3092.17 1901.38L2589.96 1844.32L2589.83 1877.63ZM3095.93 1943C3095.79 1943 3095.65 1943 3095.49 1942.98L2585.47 1885.03C2583.49 1884.82 2582 1883.13 2582 1881.12L2582.16 1839.91C2582.16 1838.8 2582.64 1837.73 2583.47 1836.99C2584.3 1836.26 2585.38 1835.9 2586.49 1836.02L3096.53 1893.95C3098.5 1894.19 3100 1895.88 3100 1897.87L3099.84 1939.08C3099.84 1940.21 3099.36 1941.27 3098.53 1942C3097.81 1942.64 3096.89 1943 3095.93 1943" fill="black"/>
<path d="M2297.82 1908.58L2765.07 1961.68L2765.2 1928.43L2297.93 1875.32L2297.82 1908.58ZM2768.96 1970C2768.82 1970 2768.67 1970 2768.52 1969.98L2293.46 1915.98C2291.48 1915.77 2290 1914.08 2290 1912.07L2290.16 1870.91C2290.16 1869.8 2290.64 1868.74 2291.47 1867.99C2292.29 1867.26 2293.37 1866.89 2294.48 1867.03L2769.54 1921.01C2771.52 1921.24 2773.02 1922.92 2773 1924.93L2772.86 1966.09C2772.86 1967.21 2772.38 1968.26 2771.55 1969C2770.83 1969.64 2769.91 1970 2768.96 1970" fill="black"/>
<path d="M2138.81 1354.24L2916.06 1441.75L2916.19 1408.74L2138.94 1321.26L2138.81 1354.24ZM2919.95 1450C2919.81 1450 2919.67 1449.98 2919.51 1449.96L2134.46 1361.6C2132.49 1361.37 2130.98 1359.69 2131 1357.72L2131.14 1316.89C2131.14 1315.78 2131.62 1314.72 2132.45 1313.99C2133.28 1313.25 2134.36 1312.9 2135.49 1313.02L2920.53 1401.41C2922.51 1401.62 2924.02 1403.29 2924 1405.29L2923.86 1446.12C2923.86 1447.21 2923.38 1448.27 2922.55 1449.01C2921.83 1449.65 2920.91 1450 2919.95 1450" fill="black"/>
<path d="M2301.82 1439.35L3094.06 1528.73L3094.18 1495.66L2301.94 1406.28L2301.82 1439.35ZM3097.95 1537C3097.81 1537 3097.67 1537 3097.51 1536.98L2297.47 1446.72C2295.49 1446.49 2294 1444.81 2294 1442.81L2294.16 1401.9C2294.16 1400.78 2294.64 1399.72 2295.47 1399C2296.3 1398.25 2297.38 1397.9 2298.49 1398.02L3098.53 1488.29C3100.51 1488.52 3102.02 1490.2 3102 1492.18L3101.86 1533.11C3101.86 1534.22 3101.38 1535.27 3100.55 1536.01C3099.83 1536.65 3098.91 1537 3097.95 1537" fill="black"/>
<path d="M2590.86 1607.58L2901.04 1642.68L2901.16 1609.41L2590.98 1574.33L2590.86 1607.58ZM2904.94 1651C2904.8 1651 2904.65 1650.98 2904.5 1650.96L2586.48 1614.99C2584.49 1614.76 2583 1613.09 2583 1611.08L2583.16 1569.92C2583.16 1568.8 2583.64 1567.75 2584.47 1567C2585.31 1566.26 2586.39 1565.9 2587.5 1566.02L2905.52 1602.01C2907.51 1602.23 2909.02 1603.92 2909 1605.93L2908.86 1647.09C2908.86 1648.19 2908.38 1649.26 2907.55 1650C2906.82 1650.64 2905.9 1651 2904.94 1651Z" fill="black"/>
<path d="M2685.81 1685.59L2995.04 1720.68L2995.17 1687.42L2685.94 1652.31L2685.81 1685.59ZM2998.93 1729C2998.79 1729 2998.65 1728.98 2998.51 1728.98L2681.47 1692.99C2679.49 1692.77 2677.98 1691.08 2678 1689.07L2678.14 1647.92C2678.14 1646.8 2678.62 1645.73 2679.45 1644.98C2680.28 1644.26 2681.36 1643.9 2682.49 1644.02L2999.53 1680C3001.5 1680.23 3003 1681.92 3003 1683.92L3002.84 1725.09C3002.84 1726.21 3002.36 1727.26 3001.53 1728C3000.81 1728.64 2999.89 1729 2998.93 1729" fill="black"/>
<path d="M2591.82 1539.85L3093.08 1595.84L3093.2 1563.16L2591.94 1507.18L2591.82 1539.85ZM3096.96 1604C3096.82 1604 3096.68 1604 3096.52 1603.98L2587.46 1547.14C2585.48 1546.91 2584 1545.25 2584 1543.29L2584.16 1502.85C2584.16 1501.75 2584.64 1500.7 2585.46 1499.98C2586.29 1499.25 2587.37 1498.9 2588.48 1499.02L3097.54 1555.87C3099.52 1556.1 3101.02 1557.76 3101 1559.73L3100.86 1600.16C3100.86 1601.26 3100.38 1602.31 3099.55 1603.04C3098.83 1603.67 3097.91 1604 3096.96 1604Z" fill="black"/>
<path d="M2136.8 1961.24L2913.07 2048.75L2913.2 2015.76L2136.93 1928.26L2136.8 1961.24ZM2916.96 2057C2916.82 2057 2916.67 2057 2916.52 2056.98L2132.46 1968.6C2130.48 1968.37 2128.98 1966.69 2129 1964.72L2129.14 1923.89C2129.14 1922.78 2129.62 1921.74 2130.45 1920.99C2131.28 1920.25 2132.37 1919.9 2133.48 1920.02L2917.54 2008.41C2919.52 2008.64 2921.02 2010.31 2921 2012.29L2920.86 2053.12C2920.86 2054.23 2920.38 2055.27 2919.55 2056.01C2918.83 2056.65 2917.91 2057 2916.96 2057" fill="black"/>
<path d="M2299.81 2046.62L3066.06 2133.67L3066.19 2100.39L2299.94 2013.34L2299.81 2046.62ZM3069.95 2142C3069.81 2142 3069.67 2141.98 3069.51 2141.98L2295.46 2054.04C2293.48 2053.81 2292 2052.12 2292 2050.11L2292.16 2008.92C2292.16 2007.8 2292.64 2006.73 2293.47 2006C2294.3 2005.26 2295.38 2004.9 2296.49 2005.02L3070.54 2092.97C3072.52 2093.2 3074.02 2094.89 3074 2096.88L3073.86 2138.08C3073.86 2139.21 3073.38 2140.26 3072.55 2141C3071.83 2141.64 3070.91 2142 3069.95 2142" fill="black"/>
<path d="M2588.83 2146.63L3091.06 2203.69L3091.18 2170.38L2588.96 2113.34L2588.83 2146.63ZM3094.95 2212C3094.81 2212 3094.67 2212 3094.51 2211.98L2584.47 2154.05C2582.49 2153.82 2581 2152.13 2581 2150.14L2581.16 2108.92C2581.16 2107.8 2581.64 2106.75 2582.47 2106C2583.3 2105.26 2584.38 2104.9 2585.49 2105.02L3095.53 2162.97C3097.51 2163.19 3099.02 2164.88 3099 2166.89L3098.86 2208.08C3098.86 2209.2 3098.38 2210.27 3097.55 2211.02C3096.82 2211.66 3095.91 2212 3094.95 2212Z" fill="black"/>
<path d="M2135.81 2163.23L2913.06 2250.74L2913.19 2217.76L2135.94 2130.25L2135.81 2163.23ZM2916.95 2259C2916.81 2259 2916.67 2259 2916.51 2258.98L2131.46 2170.59C2129.49 2170.36 2127.98 2168.68 2128 2166.71L2128.14 2125.87C2128.14 2124.76 2128.62 2123.72 2129.45 2122.98C2130.28 2122.24 2131.38 2121.9 2132.49 2122.03L2917.53 2210.4C2919.51 2210.63 2921.02 2212.29 2921 2214.28L2920.86 2255.12C2920.86 2256.23 2920.38 2257.27 2919.55 2258.01C2918.83 2258.65 2917.91 2259 2916.95 2259" fill="black"/>
<path d="M2298.83 2249.35L3091.06 2338.73L3091.18 2305.66L2298.96 2216.28L2298.83 2249.35ZM3094.95 2347C3094.81 2347 3094.67 2347 3094.51 2346.98L2294.47 2256.72C2292.49 2256.49 2291 2254.81 2291 2252.81L2291.16 2211.9C2291.16 2210.78 2291.64 2209.72 2292.47 2209C2293.3 2208.25 2294.38 2207.9 2295.49 2208.02L3095.53 2298.29C3097.51 2298.52 3099.02 2300.2 3099 2302.18L3098.86 2343.11C3098.86 2344.22 3098.38 2345.28 3097.55 2346.01C3096.83 2346.65 3095.91 2347 3094.95 2347" fill="black"/>
<path d="M1995.77 1606.91L2064.1 1614.69L2064.21 1583.1L1995.9 1575.3L1995.77 1606.91ZM2067.97 1623C2067.83 1623 2067.67 1623 2067.53 1622.98L1991.45 1614.32C1989.48 1614.09 1987.98 1612.4 1988 1610.39L1988.14 1570.9C1988.14 1569.79 1988.62 1568.73 1989.44 1567.98C1990.27 1567.26 1991.34 1566.9 1992.45 1567.02L2068.55 1575.69C2070.52 1575.92 2072 1577.61 2072 1579.6L2071.86 1619.09C2071.84 1620.21 2071.37 1621.28 2070.56 1622.01C2069.84 1622.64 2068.92 1623 2067.97 1623Z" fill="black"/>
<path d="M1996.84 1136.25L2069.03 1144.54L2069.16 1110.76L1996.97 1102.46L1996.84 1136.25ZM2072.94 1153C2072.78 1153 2072.63 1152.98 2072.49 1152.96L1992.48 1143.79C1990.49 1143.55 1988.98 1141.83 1989 1139.79L1989.14 1097.98C1989.16 1096.84 1989.64 1095.76 1990.46 1095.02C1991.29 1094.26 1992.39 1093.9 1993.51 1094.02L2073.52 1103.22C2075.51 1103.44 2077 1105.15 2077 1107.2L2076.84 1149.02C2076.84 1150.15 2076.36 1151.23 2075.53 1151.99C2074.82 1152.64 2073.89 1153 2072.94 1153Z" fill="black"/>
<path d="M1997.84 1073.53L2070.03 1081.69L2070.16 1048.47L1997.97 1040.31L1997.84 1073.53ZM2073.92 1090C2073.78 1090 2073.63 1089.98 2073.49 1089.96L1993.48 1080.94C1991.49 1080.71 1989.98 1079.02 1990 1077.03L1990.14 1035.91C1990.14 1034.79 1990.62 1033.72 1991.46 1033C1992.29 1032.25 1993.37 1031.91 1994.51 1032.02L2074.52 1041.06C2076.51 1041.27 2078 1042.96 2078 1044.97L2077.84 1086.09C2077.84 1087.21 2077.36 1088.26 2076.53 1089.01C2075.82 1089.64 2074.88 1090 2073.92 1090Z" fill="black"/>
<path d="M1996.9 1203.59L2068.98 1211.68L2069.1 1178.42L1997.02 1170.33L1996.9 1203.59ZM2072.91 1220C2072.76 1220 2072.62 1220 2072.46 1219.98L1992.5 1211C1990.5 1210.77 1989 1209.08 1989 1207.09L1989.14 1165.92C1989.16 1164.8 1989.63 1163.75 1990.47 1163C1991.31 1162.26 1992.41 1161.9 1993.54 1162.02L2073.5 1171.01C2075.5 1171.24 2077.02 1172.93 2077 1174.92L2076.86 1216.09C2076.86 1217.21 2076.37 1218.28 2075.53 1219C2074.8 1219.64 2073.87 1220 2072.91 1220Z" fill="black"/>
<path d="M1997.81 1271.2L2065.07 1278.77L2065.17 1245.81L1997.93 1238.25L1997.81 1271.2ZM2068.94 1287C2068.79 1287 2068.65 1287 2068.51 1286.98L1993.46 1278.54C1991.48 1278.31 1989.98 1276.64 1990 1274.67L1990.14 1233.88C1990.14 1232.77 1990.62 1231.73 1991.45 1230.99C1992.28 1230.25 1993.36 1229.9 1994.49 1230.02L2069.54 1238.46C2071.52 1238.69 2073 1240.37 2073 1242.36L2072.84 1283.12C2072.84 1284.23 2072.36 1285.29 2071.53 1286.03C2070.81 1286.67 2069.89 1287 2068.94 1287Z" fill="black"/>
<path d="M1996.78 1338.1L2065.08 1345.78L2065.2 1312.91L1996.9 1305.21L1996.78 1338.1ZM2068.95 1354C2068.81 1354 2068.67 1354 2068.53 1353.98L1992.45 1345.41C1990.48 1345.2 1988.98 1343.53 1989 1341.54L1989.14 1300.86C1989.14 1299.77 1989.62 1298.71 1990.44 1297.97C1991.27 1297.25 1992.34 1296.9 1993.47 1297.02L2069.55 1305.58C2071.5 1305.81 2073 1307.48 2073 1309.47L2072.84 1350.13C2072.84 1351.24 2072.37 1352.3 2071.54 1353.02C2070.82 1353.67 2069.9 1354 2068.95 1354" fill="black"/>
<path d="M1996.78 1405.08L2065.08 1412.78L2065.2 1379.92L1996.9 1372.22L1996.78 1405.08ZM2068.95 1421C2068.81 1421 2068.67 1421 2068.53 1420.98L1992.45 1412.41C1990.48 1412.18 1988.98 1410.53 1989 1408.54L1989.14 1367.86C1989.16 1366.75 1989.63 1365.72 1990.44 1364.98C1991.27 1364.24 1992.34 1363.89 1993.47 1364.03L2069.55 1372.59C2071.52 1372.82 2073 1374.49 2073 1376.45L2072.84 1417.13C2072.84 1418.24 2072.37 1419.3 2071.54 1420.02C2070.82 1420.65 2069.9 1421 2068.95 1421" fill="black"/>
<path d="M1997.95 1537.85L2066.92 1545.62L2067.05 1512.14L1998.08 1504.37L1997.95 1537.85ZM2070.87 1554C2070.73 1554 2070.58 1553.98 2070.42 1553.96L1993.52 1545.32C1991.51 1545.08 1990 1543.4 1990 1541.38L1990.16 1499.93C1990.16 1498.8 1990.65 1497.74 1991.49 1496.99C1992.33 1496.24 1993.43 1495.9 1994.56 1496.03L2071.46 1504.67C2073.47 1504.91 2075 1506.59 2075 1508.61L2074.84 1550.06C2074.84 1551.19 2074.35 1552.25 2073.51 1553C2072.77 1553.64 2071.84 1554 2070.87 1554Z" fill="black"/>
<path d="M2000.78 1470.41L2065.1 1477.71L2065.22 1444.59L2000.9 1437.3L2000.78 1470.41ZM2068.97 1486C2068.83 1486 2068.67 1486 2068.53 1485.98L1996.45 1477.8C1994.48 1477.57 1993 1475.89 1993 1473.9L1993.14 1432.9C1993.16 1431.79 1993.63 1430.72 1994.44 1430C1995.27 1429.25 1996.34 1428.9 1997.47 1429.02L2069.55 1437.21C2071.52 1437.44 2073.02 1439.12 2073 1441.12L2072.86 1482.1C2072.84 1483.22 2072.37 1484.28 2071.56 1485.01C2070.83 1485.66 2069.92 1486 2068.97 1486Z" fill="black"/>
<path d="M1995.77 1811.9L2064.1 1819.69L2064.23 1788.09L1995.9 1780.31L1995.77 1811.9ZM2067.97 1828C2067.83 1828 2067.69 1827.98 2067.53 1827.96L1991.45 1819.3C1989.48 1819.07 1988 1817.38 1988 1815.39L1988.14 1775.91C1988.14 1774.79 1988.62 1773.74 1989.44 1773C1990.27 1772.25 1991.36 1771.91 1992.47 1772.02L2068.55 1780.68C2070.52 1780.91 2072.02 1782.6 2072 1784.61L2071.86 1824.09C2071.86 1825.19 2071.38 1826.26 2070.56 1827.01C2069.84 1827.64 2068.92 1828 2067.97 1828Z" fill="black"/>
<path d="M1997.75 1742.87L2065.13 1750.62L2065.25 1717.14L1997.87 1709.39L1997.75 1742.87ZM2068.98 1759C2068.83 1759 2068.69 1759 2068.55 1758.98L1993.44 1750.33C1991.47 1750.1 1989.98 1748.4 1990 1746.38L1990.14 1704.95C1990.16 1703.82 1990.61 1702.74 1991.44 1702.01C1992.26 1701.26 1993.35 1700.9 1994.45 1701.02L2069.56 1709.67C2071.53 1709.91 2073 1711.61 2073 1713.63L2072.84 1755.06C2072.84 1756.19 2072.37 1757.26 2071.54 1758C2070.84 1758.66 2069.93 1759 2068.98 1759Z" fill="black"/>
<path d="M1998.89 1675.41L2063.98 1682.71L2064.11 1649.57L1999.02 1642.28L1998.89 1675.41ZM2067.9 1691C2067.76 1691 2067.62 1690.98 2067.47 1690.96L1994.49 1682.78C1992.5 1682.57 1991 1680.89 1991 1678.89L1991.16 1637.89C1991.16 1636.79 1991.64 1635.72 1992.48 1634.98C1993.32 1634.25 1994.4 1633.9 1995.54 1634.02L2068.51 1642.21C2070.5 1642.42 2072 1644.1 2072 1646.1L2071.84 1687.1C2071.84 1688.2 2071.36 1689.26 2070.52 1690.01C2069.79 1690.65 2068.86 1691 2067.9 1691Z" fill="black"/>
<path d="M1993.88 2210.91L2063.01 2218.69L2063.13 2187.1L1993.99 2179.32L1993.88 2210.91ZM2066.92 2227C2066.78 2227 2066.64 2227 2066.5 2226.98L1989.49 2218.32C1987.49 2218.09 1986 2216.4 1986 2214.39L1986.14 2174.91C1986.16 2173.79 1986.64 2172.73 1987.46 2172C1988.3 2171.26 1989.4 2170.9 1990.52 2171.02L2067.51 2179.69C2069.5 2179.92 2071.02 2181.61 2071 2183.62L2070.86 2223.09C2070.86 2224.21 2070.38 2225.28 2069.54 2226.01C2068.81 2226.66 2067.89 2227 2066.92 2227Z" fill="black"/>
<path d="M1995.83 1874.18L2063.07 1881.76L2063.19 1848.8L1995.95 1841.24L1995.83 1874.18ZM2066.95 1890C2066.81 1890 2066.67 1889.98 2066.51 1889.96L1991.46 1881.53C1989.48 1881.3 1988 1879.64 1988 1877.65L1988.16 1836.87C1988.16 1835.76 1988.64 1834.72 1989.47 1833.98C1990.3 1833.24 1991.38 1832.89 1992.51 1833.03L2067.54 1841.47C2069.52 1841.68 2071.02 1843.35 2071 1845.34L2070.86 1886.12C2070.86 1887.22 2070.38 1888.27 2069.55 1889.01C2068.83 1889.65 2067.91 1890 2066.95 1890Z" fill="black"/>
<path d="M1994.8 1941.8L2063.1 1949.63L2063.22 1916.19L1994.92 1908.36L1994.8 1941.8ZM2066.97 1958C2066.83 1958 2066.69 1957.98 2066.53 1957.96L1990.45 1949.24C1988.5 1949.03 1987 1947.33 1987 1945.31L1987.16 1903.94C1987.16 1902.81 1987.63 1901.74 1988.46 1900.99C1989.29 1900.26 1990.36 1899.9 1991.47 1900.02L2067.55 1908.75C2069.52 1908.96 2071.02 1910.66 2071 1912.68L2070.86 1954.05C2070.86 1955.18 2070.38 1956.25 2069.56 1957C2068.84 1957.64 2067.92 1958 2066.97 1958Z" fill="black"/>
<path d="M1994.78 2009.82L2063.1 2017.63L2063.22 1984.19L1994.9 1976.36L1994.78 2009.82ZM2066.97 2026C2066.83 2026 2066.69 2026 2066.53 2025.98L1990.45 2017.26C1988.48 2017.04 1986.98 2015.34 1987 2013.32L1987.14 1971.92C1987.14 1970.81 1987.62 1969.74 1988.44 1968.99C1989.27 1968.26 1990.34 1967.9 1991.47 1968.02L2067.55 1976.73C2069.52 1976.97 2071.02 1978.66 2071 1980.67L2070.86 2022.07C2070.86 2023.19 2070.38 2024.27 2069.56 2025C2068.83 2025.66 2067.92 2026 2066.97 2026" fill="black"/>
<path d="M1996.75 2142.15L2064.13 2149.77L2064.25 2116.86L1996.87 2109.22L1996.75 2142.15ZM2067.98 2158C2067.84 2158 2067.69 2158 2067.55 2157.98L1992.44 2149.47C1990.47 2149.25 1989 2147.58 1989 2145.59L1989.14 2104.86C1989.16 2103.77 1989.63 2102.71 1990.44 2101.97C1991.26 2101.25 1992.35 2100.9 1993.45 2101.02L2068.56 2109.52C2070.53 2109.75 2072.02 2111.41 2072 2113.39L2071.86 2154.13C2071.84 2155.24 2071.37 2156.28 2070.56 2157.01C2069.84 2157.65 2068.93 2158 2067.98 2158Z" fill="black"/>
<path d="M1997.88 2074.69L2063 2081.87L2063.12 2049.32L1998 2042.15L1997.88 2074.69ZM2066.92 2090C2066.76 2090 2066.62 2090 2066.47 2089.98L1993.49 2081.94C1991.5 2081.72 1989.98 2080.08 1990 2078.12L1990.14 2037.83C1990.14 2036.74 1990.62 2035.71 1991.46 2034.98C1992.3 2034.25 1993.39 2033.9 1994.53 2034.02L2067.51 2042.08C2069.5 2042.29 2071 2043.94 2071 2045.91L2070.84 2086.19C2070.84 2087.27 2070.36 2088.31 2069.52 2089.04C2068.81 2089.67 2067.86 2090 2066.92 2090" fill="black"/>
<path d="M1285.82 983.836L1656.06 1025.7L1656.18 994.17L1285.92 952.302L1285.82 983.836ZM1659.95 1034C1659.81 1034 1659.67 1034 1659.51 1033.98L1281.47 991.228C1279.49 990.997 1277.98 989.313 1278 987.31L1278.14 947.906C1278.14 946.79 1278.62 945.726 1279.45 944.982C1280.26 944.255 1281.36 943.9 1282.47 944.024L1660.53 986.779C1662.51 987.009 1664.02 988.675 1664 990.678L1663.86 1030.1C1663.86 1031.22 1663.38 1032.26 1662.55 1033.01C1661.82 1033.65 1660.91 1034 1659.95 1034" fill="black"/>
<path d="M1339.81 1058.03L1730.07 1101.79L1730.19 1068.96L1339.93 1025.21L1339.81 1058.03ZM1733.95 1110C1733.81 1110 1733.67 1110 1733.51 1109.98L1335.46 1065.35C1333.48 1065.14 1332 1063.47 1332 1061.49L1332.14 1020.86C1332.16 1019.77 1332.64 1018.71 1333.45 1017.98C1334.28 1017.26 1335.39 1016.89 1336.49 1017.03L1734.54 1061.65C1736.52 1061.87 1738.02 1063.54 1738 1065.51L1737.86 1106.14C1737.86 1107.24 1737.38 1108.28 1736.55 1109.02C1735.83 1109.65 1734.91 1110 1733.95 1110" fill="black"/>
<path d="M1386.8 1131.3L1842.08 1182.73L1842.2 1149.69L1386.92 1098.26L1386.8 1131.3ZM1845.96 1191C1845.82 1191 1845.68 1190.98 1845.52 1190.96L1382.46 1138.65C1380.48 1138.44 1378.98 1136.76 1379 1134.76L1379.14 1093.88C1379.14 1092.78 1379.62 1091.72 1380.45 1090.98C1381.28 1090.24 1382.37 1089.9 1383.48 1090.03L1846.54 1142.34C1848.52 1142.55 1850.02 1144.23 1850 1146.23L1849.86 1187.1C1849.86 1188.21 1849.38 1189.27 1848.55 1190.01C1847.83 1190.65 1846.91 1191 1845.96 1191Z" fill="black"/>
<path d="M1531.81 1215.14L1911.07 1257.78L1911.19 1224.85L1531.93 1182.23L1531.81 1215.14ZM1914.94 1266C1914.8 1266 1914.65 1266 1914.51 1265.98L1527.46 1222.48C1525.48 1222.27 1523.98 1220.6 1524 1218.61L1524.14 1177.87C1524.16 1176.78 1524.64 1175.72 1525.45 1174.98C1526.28 1174.24 1527.39 1173.89 1528.49 1174.03L1915.54 1217.52C1917.52 1217.75 1919 1219.42 1919 1221.41L1918.84 1262.13C1918.84 1263.24 1918.36 1264.29 1917.53 1265.03C1916.83 1265.67 1915.89 1266 1914.94 1266Z" fill="black"/>
<path d="M1282.84 1523.9L1582.04 1557.71L1582.14 1526.1L1282.94 1492.3L1282.84 1523.9ZM1585.94 1566C1585.78 1566 1585.64 1566 1585.5 1565.98L1278.48 1531.29C1276.49 1531.08 1274.98 1529.39 1275 1527.38L1275.14 1487.9C1275.14 1486.79 1275.62 1485.73 1276.45 1484.98C1277.29 1484.26 1278.39 1483.9 1279.49 1484.02L1586.52 1518.7C1588.51 1518.93 1590 1520.62 1590 1522.62L1589.84 1562.09C1589.84 1563.21 1589.36 1564.28 1588.53 1565.02C1587.82 1565.66 1586.88 1566 1585.94 1566Z" fill="black"/>
<path d="M1378.79 1602.34L1594.09 1626.72L1594.21 1593.65L1378.91 1569.27L1378.79 1602.34ZM1597.97 1635C1597.82 1635 1597.68 1635 1597.52 1634.98L1374.45 1609.71C1372.48 1609.5 1370.98 1607.82 1371 1605.82L1371.14 1564.88C1371.16 1563.77 1371.62 1562.72 1372.44 1561.98C1373.27 1561.24 1374.38 1560.9 1375.48 1561.03L1598.55 1586.28C1600.52 1586.51 1602.02 1588.19 1602 1590.17L1601.86 1631.11C1601.86 1632.22 1601.38 1633.27 1600.56 1634.01C1599.83 1634.65 1598.92 1635 1597.97 1635Z" fill="black"/>
<path d="M1476.82 1681.39L1683.07 1704.72L1683.18 1671.6L1476.93 1648.29L1476.82 1681.39ZM1686.94 1713C1686.8 1713 1686.66 1712.98 1686.51 1712.96L1472.46 1688.77C1470.48 1688.54 1469 1686.86 1469 1684.86L1469.16 1643.9C1469.16 1642.79 1469.64 1641.72 1470.47 1641C1471.28 1640.25 1472.39 1639.9 1473.49 1640.02L1687.54 1664.24C1689.52 1664.45 1691 1666.13 1691 1668.13L1690.84 1709.11C1690.84 1710.2 1690.36 1711.27 1689.53 1712.01C1688.83 1712.65 1687.89 1713 1686.94 1713" fill="black"/>
<path d="M1569.81 1759.69L1833.07 1789.66L1833.19 1756.32L1569.93 1726.35L1569.81 1759.69ZM1836.95 1798C1836.81 1798 1836.67 1798 1836.51 1797.98L1565.46 1767.12C1563.48 1766.89 1562 1765.21 1562 1763.2L1562.14 1721.93C1562.16 1720.81 1562.64 1719.75 1563.45 1719C1564.28 1718.26 1565.39 1717.9 1566.49 1718.02L1837.54 1748.88C1839.52 1749.12 1841.02 1750.81 1841 1752.81L1840.86 1794.08C1840.86 1795.2 1840.38 1796.27 1839.55 1797C1838.83 1797.64 1837.91 1798 1836.95 1798Z" fill="black"/>
<path d="M1288.82 1255.54L1555.05 1285.69L1555.16 1252.47L1288.95 1222.32L1288.82 1255.54ZM1558.93 1294C1558.79 1294 1558.65 1294 1558.5 1293.98L1284.47 1262.95C1282.49 1262.72 1280.98 1261.03 1281 1259.04L1281.14 1217.91C1281.16 1216.8 1281.62 1215.73 1282.45 1215C1283.28 1214.26 1284.38 1213.9 1285.5 1214.02L1559.53 1245.06C1561.51 1245.29 1563 1246.96 1563 1248.97L1562.84 1290.09C1562.84 1291.21 1562.36 1292.26 1561.53 1293.01C1560.82 1293.64 1559.88 1294 1558.93 1294Z" fill="black"/>
<path d="M1487.83 1345.58L1904.04 1392.68L1904.17 1359.43L1487.96 1312.31L1487.83 1345.58ZM1907.94 1401C1907.8 1401 1907.64 1400.98 1907.5 1400.96L1483.47 1352.97C1481.49 1352.76 1479.98 1351.07 1480 1349.06L1480.14 1307.9C1480.16 1306.8 1480.64 1305.73 1481.45 1304.98C1482.29 1304.26 1483.39 1303.9 1484.5 1304.02L1908.53 1352.01C1910.51 1352.23 1912.02 1353.92 1912 1355.93L1911.86 1397.09C1911.84 1398.19 1911.36 1399.26 1910.55 1400C1909.82 1400.64 1908.9 1401 1907.94 1401" fill="black"/>
<path d="M1292.81 1390.55L1558.08 1420.7L1558.2 1387.46L1292.94 1357.31L1292.81 1390.55ZM1561.96 1429C1561.82 1429 1561.68 1429 1561.52 1428.98L1288.46 1397.94C1286.48 1397.73 1285 1396.04 1285 1394.03L1285.16 1352.9C1285.16 1351.8 1285.63 1350.74 1286.46 1349.99C1287.29 1349.26 1288.39 1348.89 1289.48 1349.03L1562.54 1380.05C1564.52 1380.28 1566.02 1381.97 1566 1383.98L1565.86 1425.09C1565.86 1426.21 1565.38 1427.28 1564.55 1428.02C1563.83 1428.66 1562.91 1429 1561.96 1429Z" fill="black"/>
<path d="M1491.82 1480.58L1906.06 1527.68L1906.18 1494.43L1491.94 1447.33L1491.82 1480.58ZM1909.94 1536C1909.8 1536 1909.66 1536 1909.52 1535.98L1487.46 1487.99C1485.48 1487.76 1484 1486.07 1484 1484.08L1484.16 1442.92C1484.16 1441.8 1484.64 1440.75 1485.46 1440C1486.29 1439.26 1487.39 1438.9 1488.5 1439.02L1910.54 1487.01C1912.52 1487.25 1914 1488.93 1914 1490.94L1913.84 1532.09C1913.84 1533.21 1913.36 1534.28 1912.54 1535C1911.83 1535.66 1910.89 1536 1909.94 1536" fill="black"/>
<path d="M1281.83 1793.49L1615.05 1830.78L1615.17 1799.52L1281.95 1762.23L1281.83 1793.49ZM1618.94 1839C1618.8 1839 1618.66 1839 1618.5 1838.98L1277.47 1800.82C1275.49 1800.59 1273.98 1798.92 1274 1796.95L1274.14 1757.87C1274.14 1756.77 1274.62 1755.71 1275.45 1754.99C1276.29 1754.25 1277.38 1753.9 1278.48 1754.02L1619.53 1792.19C1621.51 1792.42 1623.02 1794.09 1623 1796.06L1622.86 1835.13C1622.86 1836.24 1622.38 1837.28 1621.55 1838.02C1620.82 1838.65 1619.9 1839 1618.94 1839Z" fill="black"/>
<path d="M1295.8 1863.18L1843.07 1924.76L1843.18 1891.82L1295.93 1830.23L1295.8 1863.18ZM1846.96 1933C1846.8 1933 1846.66 1933 1846.52 1932.98L1291.46 1870.51C1289.48 1870.3 1288 1868.63 1288 1866.64L1288.16 1825.86C1288.16 1824.77 1288.64 1823.72 1289.45 1822.98C1290.28 1822.25 1291.39 1821.9 1292.48 1822.02L1847.54 1884.48C1849.52 1884.71 1851 1886.38 1851 1888.35L1850.84 1929.13C1850.84 1930.23 1850.36 1931.29 1849.53 1932.01C1848.83 1932.67 1847.89 1933 1846.96 1933Z" fill="black"/>
<path d="M1539.79 1958.47L1850.07 1993.7L1850.21 1960.53L1539.91 1925.31L1539.79 1958.47ZM1853.95 2002C1853.81 2002 1853.66 2002 1853.52 2001.98L1535.45 1965.87C1533.48 1965.64 1531.98 1963.96 1532 1961.95L1532.14 1920.91C1532.14 1919.79 1532.62 1918.73 1533.45 1918C1534.27 1917.25 1535.37 1916.9 1536.48 1917.02L1854.55 1953.14C1856.52 1953.37 1858 1955.05 1858 1957.06L1857.84 1998.1C1857.84 1999.22 1857.37 2000.28 1856.54 2001.01C1855.83 2001.65 1854.9 2002 1853.95 2002Z" fill="black"/>
<path d="M1372.84 2075.25L1733.05 2115.74L1733.17 2082.75L1372.97 2042.26L1372.84 2075.25ZM1736.95 2124C1736.79 2124 1736.64 2124 1736.5 2123.98L1368.47 2082.61C1366.49 2082.38 1365 2080.71 1365 2078.71L1365.16 2037.89C1365.16 2036.78 1365.64 2035.72 1366.47 2034.99C1367.3 2034.25 1368.4 2033.9 1369.51 2034.02L1737.53 2075.4C1739.51 2075.62 1741 2077.3 1741 2079.29L1740.86 2120.12C1740.84 2121.23 1740.36 2122.29 1739.55 2123.03C1738.82 2123.66 1737.9 2124 1736.95 2124" fill="black"/>
<path d="M1623.82 2030.21L1922.06 2063.75L1922.18 2030.79L1623.94 1997.25L1623.82 2030.21ZM1925.95 2072C1925.81 2072 1925.67 2072 1925.51 2071.98L1619.47 2037.56C1617.49 2037.33 1615.98 2035.66 1616 2033.67L1616.14 1992.88C1616.14 1991.77 1616.62 1990.72 1617.45 1989.99C1618.28 1989.25 1619.4 1988.9 1620.49 1989.02L1926.53 2023.44C1928.51 2023.67 1930.02 2025.35 1930 2027.32L1929.86 2068.12C1929.86 2069.23 1929.38 2070.27 1928.55 2071.01C1927.83 2071.65 1926.91 2072 1925.95 2072Z" fill="black"/>
<path d="M1523.82 2159.14L1805.08 2190.77L1805.2 2157.87L1523.94 2126.24L1523.82 2159.14ZM1808.96 2199C1808.8 2199 1808.66 2199 1808.52 2198.98L1519.46 2166.47C1517.48 2166.24 1516 2164.57 1516 2162.6L1516.16 2121.88C1516.16 2120.77 1516.64 2119.73 1517.46 2118.99C1518.29 2118.25 1519.39 2117.9 1520.48 2118.02L1809.54 2150.53C1811.52 2150.76 1813 2152.43 1813 2154.4L1812.84 2195.13C1812.84 2196.24 1812.36 2197.29 1811.54 2198.01C1810.83 2198.65 1809.89 2199 1808.96 2199Z" fill="black"/>
<path d="M1308.41 1356.56C1353.26 1365.82 1383.49 1403.59 1377.16 1442.44C1370.77 1481.69 1329.42 1508.06 1283.56 1502.18L422.55 1391.68C355.697 1383.11 306.397 1330.29 311.342 1272.53C313.946 1242.09 331.516 1214.67 359.629 1197.19C387.74 1179.69 423.714 1173.81 458.492 1180.99L1308.41 1356.56Z" fill="white"/>
<path d="M429.246 1180.82C404.913 1180.82 381.251 1187.24 361.613 1199.54C334.577 1216.46 317.639 1243.03 315.14 1272.4C310.338 1328.87 357.706 1379.72 422.977 1388.13L1284.14 1499.37C1328.08 1505.04 1367.33 1480.07 1373.39 1442.49C1379.4 1405.41 1350.54 1369.38 1307.7 1360.49L457.636 1183.74C448.205 1181.78 438.673 1180.82 429.248 1180.82H429.246ZM1296.56 1508C1292.14 1508 1287.67 1507.72 1283.14 1507.13L421.982 1395.9C352.554 1386.95 302.206 1332.39 307.363 1271.72C310.074 1239.88 328.344 1211.14 357.481 1192.89C386.415 1174.78 423.495 1168.66 459.223 1176.09L1309.27 1352.81C1356.23 1362.58 1387.78 1402.53 1381.11 1443.75C1374.98 1481.59 1339.08 1508 1296.56 1508" fill="black"/>
<path d="M667.551 2282.53C674.014 2335.1 658.676 2388 625.103 2428.95C591.529 2469.92 542.643 2495.38 489.798 2499.43C436.592 2503.51 384.057 2485.53 344.551 2449.69C305.047 2413.86 282.06 2363.35 281 2310.06L288.977 1302.9C287.531 1230.18 343.166 1168.97 415.767 1163.41C488.94 1157.81 553.584 1210.67 562.532 1283.43L667.551 2282.53" fill="white"/>
<path d="M426.062 1166.81C422.629 1166.81 419.174 1166.93 415.695 1167.2C345.357 1172.6 291.357 1232.14 292.759 1302.75L284.796 2310.17C285.828 2362.05 308.479 2411.93 346.944 2446.89C385.406 2481.86 437.186 2499.62 488.981 2495.64C540.401 2491.7 588.628 2466.52 621.296 2426.57C653.965 2386.63 669.096 2334.32 662.807 2283.08C662.805 2283.06 662.802 2283.04 662.8 2283.02L557.991 1283.76C549.728 1216.45 492.782 1166.81 426.062 1166.81V1166.81ZM474.654 2504C425.811 2504 378.05 2485.71 341.702 2452.67C301.655 2416.26 278.073 2364.35 277 2310.2L284.961 1302.81C283.478 1228.16 340.641 1165.15 415.096 1159.42C490.4 1153.64 556.534 1207.88 565.74 1282.87L670.549 2282.16C677.086 2335.49 661.336 2389.93 627.331 2431.51C593.32 2473.11 543.111 2499.32 489.577 2503.43C484.6 2503.81 479.618 2504 474.654 2504" fill="black"/>
<path d="M493.485 2180.82C556.537 2194.83 596.24 2257.09 582.165 2319.87C568.09 2382.64 505.567 2422.19 442.515 2408.18C379.463 2394.17 339.76 2331.93 353.835 2269.14C367.911 2206.35 430.433 2166.82 493.485 2180.82Z" fill="black"/>
<path d="M443.99 1221.88C486.024 1231.27 512.494 1272.95 503.11 1314.98C493.727 1357.02 452.044 1383.49 410.011 1374.11C367.975 1364.73 341.507 1323.04 350.89 1281.01C360.274 1238.98 401.956 1212.52 443.99 1221.88Z" fill="black"/>
<path d="M472.334 2459C460.932 2459 449.412 2457.78 437.959 2455.28C425.53 2452.55 413.494 2448.4 402.181 2442.93C400.244 2441.99 399.449 2439.68 400.405 2437.78C401.361 2435.89 403.707 2435.11 405.643 2436.05C416.395 2441.24 427.842 2445.2 439.66 2447.79C505.599 2462.23 573.869 2431.49 605.638 2373.04C606.654 2371.16 609.018 2370.45 610.931 2371.46C612.836 2372.45 613.555 2374.78 612.539 2376.65C584.641 2427.98 529.994 2459 472.334 2459" fill="black"/>
<path d="M622.547 2338C622.368 2338 622.189 2338 622.008 2337.96C619.773 2337.68 618.201 2335.7 618.498 2333.54C622.163 2306.77 618.299 2279.43 607.326 2254.47C606.445 2252.48 607.411 2250.16 609.485 2249.32C611.565 2248.46 613.953 2249.39 614.834 2251.39C626.378 2277.64 630.443 2306.41 626.584 2334.58C626.313 2336.56 624.562 2338 622.547 2338" fill="black"/>
<path d="M475.845 1393C474.478 1393 473.156 1392.24 472.462 1390.91C471.454 1388.96 472.15 1386.54 474.018 1385.51C494.324 1374.13 510.151 1355.68 518.584 1333.52C519.367 1331.48 521.595 1330.47 523.57 1331.28C525.544 1332.09 526.509 1334.4 525.73 1336.46C516.632 1360.35 499.562 1380.25 477.665 1392.51C477.085 1392.84 476.461 1393 475.845 1393" fill="black"/>
<path d="M525.112 1270C523.471 1270 521.948 1268.95 521.413 1267.29C510.621 1233.63 482.781 1207.96 448.756 1200.28C421.999 1194.21 393.693 1199.78 371.09 1215.51C369.319 1216.74 366.901 1216.29 365.684 1214.49C364.468 1212.71 364.917 1210.25 366.686 1209.02C391.07 1192.05 421.601 1186.06 450.449 1192.57C487.145 1200.88 517.169 1228.56 528.808 1264.85C529.472 1266.91 528.356 1269.14 526.312 1269.8C525.914 1269.95 525.508 1270 525.112 1270" fill="black"/>
<path d="M1461 1944.24L1619.54 1859L1664.16 1904.86L1725.48 2019.28L1740 2083.76L1581.44 2169L1461 1944.24" fill="black"/>
<path d="M1467.16 1946.24L1583.15 2162.85L1734.68 2081.32L1721.01 2020.63L1660.59 1907.82L1618.69 1864.72L1467.16 1946.24ZM1581.57 2172C1581.2 2172 1580.81 2171.95 1580.44 2171.84C1579.46 2171.54 1578.63 2170.87 1578.14 2169.95L1458.46 1946.49C1457.44 1944.59 1458.17 1942.24 1460.05 1941.22L1617.6 1856.47C1619.13 1855.64 1621.01 1855.94 1622.22 1857.17L1666.54 1902.77C1666.79 1903.04 1667.01 1903.32 1667.17 1903.66L1728.1 2017.42C1728.28 2017.73 1728.4 2018.05 1728.47 2018.4L1742.9 2082.51C1743.29 2084.22 1742.5 2085.96 1740.95 2086.79L1583.42 2171.54C1582.84 2171.86 1582.2 2172 1581.57 2172Z" fill="black"/>
<path d="M1457.34 2145.86C1436.31 2157.14 1410.1 2149.25 1398.82 2128.23L1394.15 2119.51C1382.85 2098.47 1390.76 2072.28 1411.78 2061L1959.45 1767L2005 1851.85L1457.34 2145.86" fill="black"/>
<path d="M1687.95 1950C1686.54 1950 1685.19 1949.24 1684.47 1947.91C1683.44 1945.97 1684.15 1943.55 1686.08 1942.53L1732.2 1917.48C1734.13 1916.43 1736.49 1917.17 1737.53 1919.1C1738.56 1921.04 1737.85 1923.44 1735.92 1924.48L1689.8 1949.53C1689.19 1949.86 1688.57 1950 1687.95 1950Z" fill="white"/>
<path d="M1862.62 1931.38L1816.85 1846.42C1810.59 1834.78 1814.97 1820.25 1826.66 1814L1856.85 1797.85C1868.54 1791.6 1883.11 1795.98 1889.39 1807.62L1935.14 1892.58C1941.41 1904.22 1937.03 1918.75 1925.33 1925L1895.15 1941.15C1883.45 1947.4 1868.89 1943.02 1862.62 1931.38" fill="black"/>
<path d="M1865.06 1929.61C1867.6 1934.31 1871.84 1937.78 1876.99 1939.32C1882.12 1940.87 1887.57 1940.32 1892.31 1937.78L1922.55 1921.61C1932.33 1916.38 1936.01 1904.21 1930.77 1894.44L1884.94 1809.39C1882.41 1804.68 1878.16 1801.22 1873.01 1799.68C1867.88 1798.14 1862.43 1798.67 1857.69 1801.22L1827.45 1817.38C1817.67 1822.6 1813.98 1834.8 1819.23 1844.55L1865.06 1929.61ZM1882.83 1948C1880.12 1948 1877.4 1947.59 1874.72 1946.8C1867.56 1944.64 1861.69 1939.85 1858.15 1933.28L1812.33 1848.23C1805.03 1834.7 1810.14 1817.77 1823.74 1810.5L1853.98 1794.32C1860.57 1790.8 1868.13 1790.06 1875.29 1792.2C1882.44 1794.35 1888.32 1799.15 1891.85 1805.71L1937.68 1890.77C1944.98 1904.3 1939.84 1921.24 1926.26 1928.49L1896.02 1944.66C1891.9 1946.87 1887.38 1948 1882.83 1948Z" fill="white"/>
<path d="M2731.11 1410C2729.72 1410 2728.38 1409.26 2727.68 1407.96C2710.26 1375.56 2688.2 1346.17 2662.16 1320.66C2660.63 1319.14 2660.61 1316.68 2662.13 1315.17C2663.62 1313.63 2666.09 1313.61 2667.62 1315.12C2694.22 1341.2 2716.74 1371.2 2734.53 1404.29C2735.55 1406.17 2734.85 1408.52 2732.95 1409.54C2732.36 1409.86 2731.73 1410 2731.11 1410" fill="black"/>
<path d="M1216.84 1438.75C1205.6 1419 1202.97 1395.48 1209.56 1373.73C1216.15 1351.96 1231.38 1333.88 1251.7 1323.7C1274.04 1312.5 1299.99 1310.93 1323.52 1319.36C1347.05 1327.8 1366.12 1345.51 1376.27 1368.37L1628 1934.53L1527.37 1985L1216.84 1438.75" fill="black"/>
<path d="M1219.14 1436.71L1528.72 1979.95L1622.99 1932.79L1372.07 1369.83C1362.36 1348.05 1343.89 1330.94 1321.41 1322.9C1298.93 1314.87 1273.81 1316.38 1252.44 1327.05C1233.13 1336.72 1218.47 1354.1 1212.19 1374.74C1205.92 1395.39 1208.45 1417.98 1219.14 1436.71V1436.71ZM1527.16 1989C1525.8 1989 1524.47 1988.28 1523.76 1987.02L1212.35 1440.59C1200.61 1419.98 1197.82 1395.16 1204.71 1372.48C1211.6 1349.78 1227.73 1330.69 1248.96 1320.07C1272.2 1308.46 1299.57 1306.8 1324.05 1315.56C1348.53 1324.31 1368.64 1342.94 1379.21 1366.67L1631.66 1933.04C1632.51 1934.93 1631.7 1937.17 1629.84 1938.11L1528.92 1988.58C1528.35 1988.86 1527.75 1989 1527.17 1989" fill="black"/>
<path d="M1211.86 1448.93C1200.6 1429.14 1197.97 1405.61 1204.57 1383.8C1211.18 1362.02 1226.45 1343.92 1246.8 1333.71C1269.2 1322.49 1295.21 1320.93 1318.8 1329.37C1342.38 1337.83 1361.49 1355.54 1371.69 1378.44L1624 1945.46L1523.13 1996L1211.86 1448.93" fill="white"/>
<path d="M1216.1 1447.91L1524.96 1991.94L1619.01 1944.72L1368.68 1380.93C1358.98 1359.12 1340.56 1341.98 1318.15 1333.93C1295.72 1325.87 1270.64 1327.4 1249.34 1338.09C1230.07 1347.75 1215.43 1365.17 1209.17 1385.83C1202.92 1406.51 1205.44 1429.13 1216.1 1447.91V1447.91ZM1523.41 2001C1522.05 2001 1520.74 2000.29 1520.02 1999.03L1209.32 1451.79C1197.61 1431.15 1194.83 1406.29 1201.7 1383.56C1208.58 1360.85 1224.67 1341.72 1245.84 1331.09C1269.03 1319.45 1296.35 1317.8 1320.78 1326.56C1345.19 1335.34 1365.25 1353.98 1375.79 1377.74L1627.66 1944.95C1628.51 1946.87 1627.7 1949.11 1625.85 1950.05L1525.16 2000.59C1524.59 2000.88 1523.99 2001 1523.41 2001" fill="black"/>
<path d="M1461 1939.51L1621.36 1859L1631.1 1921.36L1687.17 2033.58L1735 2086.51L1574.66 2167L1531 2122.46L1469.17 1998.68L1461 1939.51" fill="white"/>
<path d="M1533.42 2119.38L1574.85 2161.34L1728.74 2084.62L1684.13 2035.64C1683.9 2035.37 1683.69 2035.07 1683.53 2034.75L1627.25 1922.83C1627.07 1922.48 1626.93 1922.09 1626.88 1921.71L1617.92 1864.77L1464.17 1941.41L1471.89 1997.05L1533.42 2119.38ZM1574.05 2170C1573.02 2170 1572.01 2169.59 1571.25 2168.82L1527.41 2124.39C1527.12 2124.11 1526.88 2123.77 1526.7 2123.4L1464.6 1999.96C1464.42 1999.57 1464.28 1999.17 1464.23 1998.74L1456.04 1939.72C1455.81 1938.06 1456.66 1936.46 1458.16 1935.7L1619.2 1855.41C1620.32 1854.85 1621.65 1854.87 1622.74 1855.43C1623.86 1856 1624.62 1857.07 1624.82 1858.29L1634.52 1919.89L1690.3 2030.8L1737.99 2083.19C1738.82 2084.09 1739.16 2085.32 1738.93 2086.52C1738.72 2087.72 1737.94 2088.75 1736.84 2089.29L1575.8 2169.58C1575.24 2169.86 1574.65 2170 1574.05 2170" fill="black"/>
<path d="M1283.92 1448.25C1266.38 1442.33 1256.88 1423.08 1262.72 1405.28C1268.56 1387.46 1287.51 1377.82 1305.08 1383.75C1322.62 1389.68 1332.12 1408.92 1326.28 1426.74C1320.44 1444.54 1301.49 1454.18 1283.92 1448.25Z" fill="black"/>
<path d="M1660 2072L1587 2109L1660 2072Z" fill="black"/>
<path d="M1587.89 2113C1586.47 2113 1585.1 2112.21 1584.41 2110.85C1583.45 2108.93 1584.24 2106.59 1586.15 2105.64L1658.37 2069.42C1660.29 2068.45 1662.63 2069.22 1663.59 2071.14C1664.54 2073.06 1663.77 2075.4 1661.85 2076.37L1589.62 2112.6C1589.07 2112.88 1588.47 2113 1587.89 2113" fill="black"/>
<path d="M1592 1940L1519 1977L1592 1940Z" fill="black"/>
<path d="M1517.93 1981C1516.49 1981 1515.12 1980.21 1514.42 1978.85C1513.44 1976.93 1514.23 1974.59 1516.17 1973.62L1589.31 1937.42C1591.25 1936.45 1593.6 1937.22 1594.58 1939.14C1595.56 1941.06 1594.77 1943.4 1592.83 1944.37L1519.69 1980.58C1519.12 1980.86 1518.53 1981 1517.93 1981" fill="black"/>
<path d="M1294.1 1475C1288.01 1475 1281.9 1474.01 1275.95 1471.99C1271.71 1470.55 1267.62 1468.62 1263.83 1466.25C1262.02 1465.11 1261.46 1462.7 1262.58 1460.86C1263.69 1459.02 1266.07 1458.45 1267.88 1459.58C1271.16 1461.64 1274.69 1463.32 1278.39 1464.56C1289.06 1468.18 1300.28 1468.04 1310.84 1464.19C1312.85 1463.46 1315.05 1464.51 1315.77 1466.55C1316.5 1468.57 1315.45 1470.82 1313.44 1471.54C1307.14 1473.85 1300.61 1475 1294.1 1475" fill="black"/>
<path d="M1240.64 1429C1238.76 1429 1237.09 1427.67 1236.77 1425.78C1235.24 1416.61 1236 1407.08 1238.99 1398.21C1246.26 1376.65 1265.77 1361.26 1288.68 1359.02C1290.88 1358.81 1292.77 1360.37 1292.98 1362.49C1293.19 1364.61 1291.61 1366.52 1289.46 1366.73C1269.61 1368.68 1252.73 1381.98 1246.43 1400.64C1243.84 1408.32 1243.18 1416.57 1244.52 1424.51C1244.87 1426.62 1243.41 1428.61 1241.28 1428.95C1241.07 1428.98 1240.85 1429 1240.64 1429" fill="black"/>
<path d="M1854.55 1150C1843.05 1112.32 1845 1088.53 1855.43 1063.76L1873 1029.05L1820.18 1008L1803.99 1047.51C1798.77 1060.24 1791.22 1071.9 1781.73 1081.88L1773 1091.08L1854.55 1150" fill="white"/>
<path d="M1778.73 1090.7L1847.07 1141.21C1839.36 1110.33 1840.66 1087.37 1851.1 1062.01L1866.75 1030.35L1821.84 1012.06L1807.22 1048.52C1801.84 1061.94 1794.16 1074.09 1784.38 1084.64L1778.73 1090.7ZM1853.8 1155C1853.01 1155 1852.2 1154.75 1851.52 1154.23L1770.6 1094.43C1769.7 1093.77 1769.12 1092.74 1769.02 1091.61C1768.91 1090.49 1769.3 1089.37 1770.05 1088.55L1778.72 1079.23C1787.85 1069.4 1795.02 1058.07 1800.03 1045.56L1816.11 1005.46C1816.9 1003.44 1819.17 1002.48 1821.14 1003.28L1873.57 1024.64C1874.57 1025.05 1875.36 1025.87 1875.75 1026.91C1876.14 1027.94 1876.07 1029.09 1875.59 1030.07L1858.16 1065.29C1849.2 1087.06 1845.6 1109.94 1857.53 1149.91C1858 1151.54 1857.42 1153.29 1856.05 1154.27C1855.38 1154.75 1854.59 1155 1853.8 1155" fill="black"/>
<path d="M1797.43 1071.81C1796.1 1067.71 1790.7 1066.7 1787.72 1069.85C1779.36 1078.7 1764.73 1093.55 1753.63 1101.2C1743.28 1108.34 1740.04 1122.1 1745.9 1133.13C1762.5 1164.29 1804.45 1231.92 1848.68 1283.52C1851.71 1287.05 1859.23 1291.78 1870.06 1286.93C1906.44 1270.61 1871.86 1196.9 1852.13 1120.15C1851.35 1117.13 1848.93 1114.82 1845.84 1114.25L1834.86 1112.24C1814.56 1108.21 1806.04 1098.67 1797.43 1071.81" fill="black"/>
<path d="M1756.08 1100C1756.08 1100 1754.41 1101.13 1753.59 1101.67C1743.28 1108.79 1740.05 1122.52 1745.89 1133.53C1762.44 1164.61 1804.26 1232.07 1848.36 1283.53C1851.38 1287.05 1858.89 1291.78 1869.68 1286.93C1873 1285.43 1878 1281.38 1878 1281.38L1875.03 1277.63C1832.79 1223.96 1794.57 1167.28 1760.68 1108.02L1756.08 1100" fill="white"/>
<path d="M1754.74 1105.59C1746.87 1111.77 1744.5 1122.82 1749.25 1131.82C1766.36 1164.12 1807.67 1230.78 1851.39 1282.07C1852.42 1283.26 1858.02 1289.02 1868.17 1284.44C1869.4 1283.9 1871.08 1282.8 1872.56 1281.73L1872.05 1281.08C1829.76 1227.09 1791.12 1169.51 1757.21 1109.95L1754.74 1105.59ZM1860.83 1294C1853.97 1294 1848.58 1290.81 1845.47 1287.16C1801.32 1235.39 1759.62 1168.1 1742.36 1135.49C1735.55 1122.6 1739.38 1106.67 1751.3 1098.41L1753.82 1096.69C1754.7 1096.07 1755.83 1095.85 1756.88 1096.1C1757.94 1096.35 1758.86 1097.02 1759.39 1097.98L1763.99 1106.06C1797.71 1165.31 1836.14 1222.56 1878.19 1276.24L1881.16 1280.03C1882.48 1281.71 1882.22 1284.14 1880.56 1285.49C1880.01 1285.93 1875.05 1289.94 1871.38 1291.59C1867.59 1293.29 1864.05 1294 1860.83 1294" fill="black"/>
<path d="M1867.04 1182C1866.82 1182 1866.59 1181.98 1866.37 1181.94L1829.32 1175.38C1827.15 1174.98 1825.69 1172.8 1826.05 1170.51C1826.41 1168.22 1828.47 1166.68 1830.63 1167.06L1867.68 1173.64C1869.85 1174.02 1871.31 1176.2 1870.95 1178.49C1870.62 1180.55 1868.95 1182 1867.04 1182" fill="white"/>
<path d="M1872.16 1203C1871.96 1203 1871.77 1202.98 1871.58 1202.96L1842.29 1198.26C1840.18 1197.94 1838.73 1195.82 1839.04 1193.54C1839.36 1191.28 1841.31 1189.72 1843.4 1190.04L1872.71 1194.74C1874.82 1195.08 1876.27 1197.19 1875.96 1199.46C1875.68 1201.51 1874.04 1203 1872.16 1203" fill="white"/>
<path d="M1558.24 601.187C1558.24 601.187 1923.6 520.952 2034.97 584.455C2051.75 594.031 2067.65 614.085 2071.16 633.097C2081.86 690.981 2049.67 817.12 1873.63 1054.22C1871.16 1057.58 1866.73 1058.87 1862.83 1057.4L1806.98 1036.18C1802.46 1034.47 1799.99 1029.55 1801.33 1024.89L1875.89 763.601C1877.83 756.798 1872.2 750.208 1865.2 751.074L1517 793.921L1558.24 601.187" fill="white"/>
<path d="M1866.08 746.177C1870.08 746.177 1873.9 747.909 1876.55 751.001C1879.56 754.518 1880.6 759.289 1879.33 763.742L1804.61 1025.08C1803.85 1027.76 1805.28 1030.64 1807.91 1031.65L1863.87 1052.85C1866.13 1053.72 1868.73 1052.96 1870.18 1051C2061.55 793.782 2075.91 678.621 2067.44 632.872C2064.27 615.784 2049.82 596.452 2033.08 586.91C1928.75 527.553 1592.68 596.717 1560.51 603.538L1520.88 788.463L1864.38 746.283C1864.95 746.212 1865.51 746.177 1866.08 746.177V746.177ZM1865.78 1061C1864.21 1061 1862.63 1060.73 1861.11 1060.15L1805.14 1038.95C1798.75 1036.53 1795.22 1029.49 1797.09 1022.94L1871.81 761.604C1872.38 759.642 1871.93 757.627 1870.61 756.072C1869.28 754.517 1867.35 753.775 1865.34 754.023L1516.38 796.874C1515.13 797.033 1513.87 796.574 1513.02 795.637C1512.17 794.701 1511.82 793.429 1512.09 792.192L1553.4 599.421C1553.73 597.936 1554.9 596.77 1556.39 596.434C1571.4 593.147 1925.31 516.598 2036.93 580.142C2055.52 590.709 2071.58 612.285 2075.11 631.458C2083.81 678.462 2069.58 796.062 1876.46 1055.66C1873.9 1059.09 1869.88 1061 1865.78 1061" fill="black"/>
<path d="M1666.45 1289.7L1673.61 1323.83C1683.18 1373.51 1647 1398.93 1647 1398.93L1754 1412C1754 1412 1730.63 1397.75 1735.4 1328.73L1741.52 1271L1666.45 1289.7" fill="white"/>
<path d="M1654.95 1395.43L1743.31 1406.06C1736.27 1395.52 1727.49 1373.11 1730.6 1328.62L1736.15 1276.94L1670 1293.17L1676.4 1323.24C1683.69 1360.51 1665.46 1384.88 1654.95 1395.43V1395.43ZM1753.13 1415C1752.97 1415 1752.81 1414.98 1752.65 1414.96L1645.44 1402.06C1643.83 1401.87 1642.52 1400.71 1642.11 1399.16C1641.73 1397.62 1642.34 1395.97 1643.67 1395.06C1645.07 1394.08 1677.73 1370.68 1668.74 1324.78L1661.58 1291.13C1661.16 1289.08 1662.41 1287.09 1664.47 1286.58L1739.67 1268.11C1740.92 1267.82 1742.22 1268.11 1743.19 1268.95C1744.14 1269.77 1744.64 1271.02 1744.5 1272.26L1738.38 1329.31C1733.89 1393.35 1755 1407.72 1755.21 1407.86C1756.73 1408.84 1757.39 1410.75 1756.77 1412.45C1756.2 1413.99 1754.75 1415 1753.13 1415" fill="black"/>
<path d="M1663.88 1353.62C1655.08 1363.79 1639.17 1382.86 1626.93 1401.31C1619.24 1412.88 1623.85 1426.24 1632.08 1437.34C1648.86 1459.98 1671.9 1477.4 1698.97 1495.33C1722.62 1510.98 1749.08 1527.5 1780.88 1542.09C1789.51 1546.06 1808.98 1551.48 1822 1544.97C1861.33 1525.29 1795.76 1463.67 1744.2 1392.68C1742.18 1389.89 1738.75 1388.53 1735.38 1389.2L1723.31 1391.62C1711.23 1394.02 1698.91 1388.92 1692.09 1378.68L1675.86 1354.35C1673.09 1350.2 1667.15 1349.85 1663.88 1353.62" fill="black"/>
<path d="M1631.65 1392C1631.65 1392 1625.85 1399.7 1625.25 1400.61C1623.31 1403.51 1622.16 1406.91 1621.54 1410.38C1619.49 1421.57 1623.4 1433.03 1631.27 1441.27C1633.18 1443.25 1635.77 1445.78 1638.79 1448.63C1670.05 1478.28 1705.19 1503.55 1743.06 1524.18C1762.27 1534.63 1804.9 1556.13 1822.33 1544.78C1827.71 1541.27 1831 1530.59 1831 1530.59C1831 1530.59 1820.82 1536.69 1790.17 1521.51C1738.39 1495.85 1703.33 1467.07 1660.58 1432.64C1652.15 1425.88 1646.36 1419.66 1640.37 1412.28C1635.65 1406.45 1632.62 1399.44 1631.65 1392" fill="white"/>
<path d="M1630.57 1401C1629.92 1401.91 1629.46 1402.53 1629.34 1402.72C1627.87 1404.92 1626.83 1407.72 1626.23 1411.04C1624.49 1420.7 1627.73 1430.98 1634.89 1438.54C1636.74 1440.49 1639.26 1442.99 1642.2 1445.79C1672.5 1474.82 1707 1500.07 1744.78 1520.83C1795.12 1548.51 1813.13 1545.72 1819.38 1541.61C1820.98 1540.56 1822.53 1538.26 1823.82 1535.78C1816.9 1535.95 1805.6 1533.95 1787.89 1525.1C1737.82 1500.05 1703.04 1471.75 1662.76 1438.98L1658.67 1435.67C1650.97 1429.41 1645.02 1423.32 1638.06 1414.69C1634.76 1410.58 1632.23 1405.95 1630.57 1401ZM1808.58 1552C1793.09 1552 1770.47 1543.88 1741.04 1527.69C1702.69 1506.61 1667.62 1480.95 1636.82 1451.46C1633.79 1448.56 1631.19 1445.97 1629.27 1443.95C1620.38 1434.6 1616.4 1421.76 1618.59 1409.64C1619.36 1405.26 1620.81 1401.48 1622.85 1398.38C1623.49 1397.42 1628.37 1390.88 1629.34 1389.56C1630.29 1388.31 1631.91 1387.72 1633.44 1388.13C1634.97 1388.54 1636.1 1389.83 1636.3 1391.43C1637.16 1398.13 1639.87 1404.48 1644.12 1409.76C1650.69 1417.95 1656.33 1423.7 1663.57 1429.58L1667.64 1432.9C1707.57 1465.37 1742.05 1493.42 1791.37 1518.08C1818.6 1531.7 1828.17 1527.3 1828.26 1527.25C1829.65 1526.56 1831.4 1526.73 1832.58 1527.74C1833.76 1528.77 1834.29 1530.35 1833.85 1531.84C1833.46 1533.08 1829.97 1544 1823.64 1548.17C1819.75 1550.72 1814.73 1552 1808.58 1552" fill="black"/>
<path d="M1734.92 1445C1733.11 1445 1731.48 1443.78 1731.09 1442.01C1730.63 1439.94 1731.98 1437.93 1734.09 1437.48L1774.25 1429.08C1776.38 1428.65 1778.45 1429.94 1778.91 1431.99C1779.36 1434.04 1778.03 1436.07 1775.9 1436.5L1735.74 1444.91C1735.48 1444.97 1735.19 1445 1734.92 1445" fill="white"/>
<path d="M1755.88 1463C1754.12 1463 1752.53 1461.76 1752.1 1459.89C1751.61 1457.71 1752.91 1455.53 1754.99 1455.02L1787.22 1447.12C1789.3 1446.58 1791.4 1447.94 1791.9 1450.12C1792.39 1452.29 1791.09 1454.47 1789.01 1454.97L1756.78 1462.89C1756.48 1462.96 1756.18 1463 1755.88 1463" fill="white"/>
<path d="M1793.75 705.047C1687.1 613.863 1343.93 611 1343.93 611C1343.93 611 1301.08 662.098 1321.53 764.876C1328.28 798.776 1352.25 829.194 1390.14 829.194L1600.66 830.98C1616.09 831.103 1628.34 843.953 1627.76 859.365C1623.83 961.118 1620.33 1171.48 1649.43 1314.84C1650.61 1320.64 1655 1325.27 1660.73 1326.83C1674.16 1330.47 1700.52 1336.37 1729.09 1335.98C1737.99 1335.86 1745.45 1329.16 1746.64 1320.32L1816.46 799.023C1818.57 783.311 1818.6 767.35 1815.99 751.726C1813.18 735.023 1807.01 716.394 1793.75 705.047" fill="white"/>
<path d="M1346.83 614.832C1340.43 623.707 1308.35 673.757 1326.33 764.063C1331.94 792.296 1352.29 825.25 1391.12 825.25L1601.73 827.036C1610.25 827.107 1618.19 830.537 1624.08 836.707C1629.97 842.877 1633.03 850.974 1632.69 859.495C1628.48 968.789 1625.71 1173.21 1654.32 1314.15C1655.2 1318.52 1658.45 1321.97 1662.79 1323.15C1675.84 1326.67 1701.92 1332.56 1730.1 1332.17C1737.02 1332.08 1742.92 1326.79 1743.84 1319.9L1813.68 798.466C1815.82 782.431 1815.68 766.891 1813.22 752.306C1809.78 731.816 1802.74 716.877 1792.29 707.949C1692.05 622.24 1374.82 615.274 1346.83 614.832V614.832ZM1727.48 1340C1699.39 1340 1673.77 1334.2 1660.75 1330.68C1653.54 1328.72 1648.15 1322.99 1646.66 1315.69C1617.89 1173.96 1620.67 968.841 1624.89 859.195C1625.14 852.795 1622.84 846.731 1618.42 842.099C1614.02 837.467 1608.06 834.904 1601.68 834.85L1391.09 833.065C1347.55 833.065 1324.87 796.716 1318.66 765.601C1298.08 662.124 1340.11 610.536 1341.91 608.397C1342.65 607.495 1343.86 607.088 1344.94 607C1359.01 607.106 1690.85 610.925 1797.36 702.008C1809.25 712.174 1817.17 728.651 1820.93 751.016C1823.52 766.379 1823.67 782.697 1821.43 799.51L1751.59 1320.92C1750.15 1331.64 1740.96 1339.82 1730.21 1339.98C1729.31 1339.98 1728.39 1340 1727.48 1340" fill="black"/>
<path d="M1721.95 371L1750.11 424.954C1777.47 474.084 1821.42 506.625 1870.09 534.8L1889.83 546.211C1902.49 553.536 1917.2 556.459 1931.69 554.522L1933.92 554.223C1956.05 551.282 1978.5 556.547 1997 569.05L1947.94 587.803C1918.03 599.249 1884.73 598.792 1855.4 585.902C1827.31 573.575 1763.99 558.467 1734.13 523.742C1671.56 450.998 1674.01 434.833 1674.01 434.833L1721.95 371" fill="white"/>
<path d="M1676.9 435.313C1677.56 439.047 1683.38 459.292 1736.43 520.877C1758.69 546.715 1800.89 561.74 1831.71 572.694C1841.67 576.251 1850.28 579.312 1857.12 582.303C1885.63 594.815 1917.66 595.452 1947.29 584.144L1989.26 568.11C1972.82 559.032 1953.88 555.422 1935.09 557.917L1932.86 558.218C1917.5 560.271 1901.65 557.121 1888.22 549.369L1868.37 537.902C1824.68 512.666 1776 479.626 1746.12 426.04L1720.61 377.232L1676.9 435.313ZM1904.18 600C1887.03 600 1869.99 596.478 1853.96 589.47C1847.39 586.586 1838.9 583.56 1829.07 580.056C1797.43 568.801 1754.11 553.369 1730.48 525.956C1669.43 455.08 1668.61 436.481 1669.05 433.473C1669.16 432.836 1669.41 432.234 1669.8 431.721L1718.07 367.569C1718.87 366.49 1720.19 365.906 1721.52 366.012C1722.87 366.136 1724.06 366.915 1724.68 368.1L1753.03 422.324C1781.95 474.175 1829.55 506.437 1872.3 531.142L1892.16 542.609C1904.1 549.511 1918.19 552.289 1931.83 550.466L1934.05 550.183C1957.3 547.069 1980.83 552.59 2000.28 565.686C2001.49 566.517 2002.15 567.933 2001.97 569.384C2001.81 570.818 2000.85 572.057 1999.49 572.588L1950.1 591.453C1935.15 597.151 1919.63 600 1904.18 600" fill="black"/>
<path d="M1579.06 631.77C1579.06 631.77 1582.64 639.103 1487.49 652.882C1418.9 662.801 1356.62 658.426 1327.2 655.203C1317.6 654.14 1311.13 644.895 1313.48 635.507C1321.21 604.565 1326.84 575.837 1356.54 497.269C1377.17 442.736 1345.84 343.268 1409.89 284.165C1517.97 184.432 1667.1 311.689 1667.1 311.689L1714 380.71C1660.27 443.852 1618.05 516.008 1589.31 593.833L1579.06 631.77" fill="black"/>
<path d="M1539.05 442C1537.07 442 1535.36 440.511 1535.14 438.509L1527.02 363.329C1526.79 361.185 1528.36 359.253 1530.52 359.023C1532.68 358.792 1534.64 360.352 1534.86 362.496L1542.98 437.676C1543.21 439.82 1541.64 441.752 1539.48 441.982C1539.34 442 1539.19 442 1539.05 442" fill="white"/>
<path d="M1440.06 483C1438.63 483 1437.25 482.244 1436.56 480.926C1418.84 447.682 1396.47 360.601 1396 341.976C1395.95 339.832 1397.66 338.057 1399.84 338.005C1402.11 337.899 1403.83 339.639 1403.88 341.782C1404.33 359.424 1426.64 445.609 1443.54 477.324C1444.56 479.222 1443.81 481.559 1441.88 482.561C1441.29 482.859 1440.67 483 1440.06 483" fill="white"/>
<path d="M2045.87 575.613L1791 595L1931.04 342.424C1936.25 332.907 1946.11 326.628 1957.17 325.779L2164 310.053C2177.16 309.045 2186.2 322.489 2180.01 333.792L2045.87 575.613" fill="black"/>
<path d="M2012.75 456.221C2007.8 465.306 1996.3 473.244 1987.05 473.95C1977.79 474.655 1974.3 467.864 1979.25 458.779C1984.18 449.694 1995.7 441.756 2004.95 441.05C2014.21 440.345 2017.7 447.136 2012.75 456.221Z" fill="white"/>
<path d="M2033.18 592.399L1634.71 622.957C1626.48 623.579 1619.29 617.375 1618.67 609.091L1618 606.833L2046.29 574L2046.96 576.257C2047.58 584.541 2041.41 591.777 2033.18 592.399" fill="black"/>
<path d="M1829.41 546.058L1777.59 528.093C1769.87 525.423 1761.34 526.979 1755.06 532.177L1731.01 552.105C1726.42 555.906 1720.56 557.781 1714.61 557.374C1688.67 555.659 1567.85 522.576 1558.6 500.615C1550.81 482.12 1544.72 460 1544.72 460L1451 492.8C1451 492.8 1452.52 521.798 1490.62 560.716C1523.04 593.834 1606.69 604.974 1721.74 598.025C1721.74 598.025 1745.79 595.301 1765.95 571.183C1778.82 555.8 1810.2 563.722 1828.81 559.16C1835.41 557.533 1835.83 548.285 1829.41 546.058" fill="white"/>
<path d="M1455.22 496.135C1456.76 504.102 1463.61 528.162 1493.32 558.342C1523.55 589.033 1602.47 601.45 1721.53 594.291C1721.55 594.291 1744.17 591.372 1763 569.001C1772.54 557.657 1789.55 557.516 1806 557.357C1814.18 557.287 1821.9 557.234 1827.96 555.739C1829.93 555.265 1830.16 553.558 1830.18 553.048C1830.22 552.538 1830.15 550.815 1828.22 550.164L1776.36 532.295C1769.98 530.097 1762.79 531.398 1757.6 535.672L1733.54 555.493C1728.17 559.908 1721.37 562.089 1714.39 561.631C1690.35 560.048 1565.5 527.687 1554.95 502.801C1549.05 488.871 1544.19 473.13 1542.06 465.902L1455.22 496.135ZM1660.8 604C1573.15 604 1513.9 590.334 1487.76 563.794C1449.05 524.486 1447.08 494.957 1447.01 493.726C1446.92 492.002 1447.98 490.419 1449.62 489.856L1543.38 457.213C1544.41 456.862 1545.52 456.95 1546.47 457.442C1547.43 457.935 1548.13 458.814 1548.43 459.851C1548.49 460.063 1554.55 481.836 1562.14 499.775C1570.11 518.577 1687.75 552.081 1714.9 553.875C1719.87 554.227 1724.74 552.644 1728.58 549.496L1752.63 529.692C1759.91 523.695 1770 521.883 1778.92 524.961L1830.78 542.83C1835.3 544.378 1838.2 548.634 1837.99 553.4C1837.76 558.184 1834.47 562.159 1829.81 563.285C1822.87 564.991 1814.71 565.061 1806.07 565.131C1791.39 565.254 1776.22 565.395 1768.99 573.978C1748.06 598.864 1723.26 601.924 1722.22 602.03C1700.42 603.349 1679.93 604 1660.8 604" fill="black"/>
<path d="M1653.54 306C1717.56 340.22 1743.46 390.405 1777 435.286C1753.37 456.573 1725.17 485.471 1706.89 506C1689.65 492.767 1667.86 479.374 1652 460.379L1653.54 306" fill="black"/>
<path d="M1574.14 181.57L1574.01 251.427C1574.44 260.542 1580.43 268.478 1589.1 271.416L1602.47 277.135C1605.9 278.596 1593.53 297.23 1538.61 288.837C1517.49 285.616 1497.4 277.487 1479.86 265.328L1467 256.407C1475.89 255.105 1500.3 248.612 1502.54 239.955L1522.8 149L1574.14 181.57" fill="white"/>
<path d="M1476.48 257.403L1482.02 261.247C1499.18 273.128 1518.96 281.061 1539.21 284.146C1576.86 289.893 1593.05 282.454 1597.77 278.434L1587.65 274.115C1577.66 270.731 1570.69 261.493 1570.17 250.687L1570.3 182.659L1525.4 154.172L1506.32 239.863C1503.95 248.995 1487.2 254.671 1476.48 257.403V257.403ZM1564.28 294C1556.66 294 1547.92 293.348 1538.05 291.849C1516.6 288.571 1495.69 280.197 1477.56 267.628L1464.68 258.708C1463.37 257.791 1462.73 256.169 1463.1 254.618C1463.48 253.067 1464.75 251.886 1466.34 251.657C1478.2 249.911 1497.41 243.124 1498.72 238.047L1518.97 147.05C1519.26 145.816 1520.12 144.793 1521.29 144.3C1522.48 143.806 1523.82 143.929 1524.88 144.617L1576.31 177.247C1577.44 177.952 1578.12 179.204 1578.12 180.526L1577.99 250.511C1578.35 257.915 1583.25 264.402 1590.46 266.852L1604.12 272.687C1606.44 273.674 1607.52 276.213 1606.76 278.857C1604.81 285.662 1591.63 294 1564.28 294" fill="black"/>
<path d="M1667.76 101.82C1652.58 90.3117 1661.55 119.971 1614.57 63.6712C1595.86 41.2577 1589.47 76.4587 1584.61 70.6511C1566.62 49.2145 1567.27 49.9249 1554.46 45.5026C1546 42.59 1532.42 52.8199 1527.15 63.7069C1520.18 78.0927 1528.72 88.7489 1519.77 123.026C1513.51 147.091 1503.95 157.889 1509.84 165.953C1515.81 174.122 1528.7 167.391 1535.88 175.81C1545.17 186.714 1529.67 205.132 1535.31 220.868C1538.86 230.796 1553.6 244.151 1588.29 248.893C1593.92 249.657 1599.33 246.264 1601.13 240.83C1603.44 233.85 1606.3 225.041 1608.34 216.374C1618.06 175.117 1611.34 159.808 1621.27 154.089C1636.47 145.315 1656.12 169.38 1667.36 161.335C1679.03 152.988 1688.54 117.556 1667.76 101.82" fill="black"/>
<path d="M1580.67 111.507L1579.56 123.008C1579.03 128.412 1578.14 133.781 1576.87 139.062C1574.5 149.002 1570.56 166.084 1569.08 175.83C1566.9 190.148 1610.3 200 1610.3 200L1616.86 194.648L1621.98 195.712C1622.97 195.907 1624 195.907 1624.97 195.588C1627.36 194.773 1628.84 192.558 1628.82 190.183C1628.75 177.23 1629.54 148.772 1637 127.739C1637 127.739 1615.79 103.87 1580.67 111.507" fill="white"/>
<path d="M1585.2 114.735L1584.35 123.342C1583.82 128.932 1582.87 134.522 1581.58 139.97C1579.32 149.429 1575.3 166.75 1573.82 176.475C1572.79 183.201 1593.82 191.808 1610.35 195.819L1615.45 191.684C1616.35 190.938 1617.53 190.654 1618.68 190.885L1623.81 191.932C1624.2 192.003 1624.55 192.021 1624.78 191.932C1625.54 191.684 1626.02 191.027 1626.02 190.282C1625.93 176.049 1626.85 149.607 1633.64 128.754C1628.52 123.945 1611.31 110.245 1585.2 114.735V114.735ZM1611.32 204C1611.04 204 1610.76 203.965 1610.48 203.894C1602.61 202.119 1563.51 192.358 1566.12 175.286C1567.64 165.277 1571.72 147.726 1573.99 138.142C1575.21 133.049 1576.09 127.814 1576.6 122.578L1577.73 111.079C1577.89 109.375 1579.13 107.991 1580.79 107.618C1617.8 99.5791 1640.08 124.052 1641.01 125.099C1641.97 126.163 1642.25 127.672 1641.77 129.021C1634.38 149.837 1633.75 178.764 1633.8 190.229C1633.83 194.381 1631.21 198.055 1627.27 199.368C1625.74 199.883 1623.99 199.972 1622.26 199.617L1618.93 198.925L1613.78 203.13C1613.07 203.698 1612.21 204 1611.32 204" fill="black"/>
<path d="M1567.76 145.253C1567.76 145.253 1570.41 117.549 1558.03 119.06C1545.66 120.552 1543.47 151.118 1567.76 145.253Z" fill="white"/>
</svg>
