<svg version="1.2" xmlns="http://www.w3.org/2000/svg" viewBox="0 0 156 50" width="156" height="50"><defs><clipPath clipPathUnits="userSpaceOnUse" id="cp1"><path d="m15.48 0.04l-2.31 4.01l-2.31-4.01z" /></clipPath><clipPath clipPathUnits="userSpaceOnUse" id="cp2"><path d="m23.51 0.04c13.78 0 24.95 11.18 24.95 24.95c0 13.78-11.17 24.95-24.95 24.95h-19.58v-30.91h12v18.94h7.58c7.16 0 12.96-5.81 12.96-12.96c0-7.16-5.8-12.96-12.96-12.96h-5.72l2.31-4h-4.62l2.31 4h-1.89h-2.73l-2.31-4h4.62l-2.31-4h4.62l-2.31-4.01z" /></clipPath><clipPath clipPathUnits="userSpaceOnUse" id="cp3"><path d="m1.62 1.37l1.16 2.02h-2.33z" /></clipPath><clipPath clipPathUnits="userSpaceOnUse" id="cp4"><path d="m3.93 4.93l1.54 2.68h-3.09z" /></clipPath><clipPath clipPathUnits="userSpaceOnUse" id="cp5"><path d="m10.1 8.49l-1.55 2.68l-1.55-2.68z" /></clipPath><clipPath clipPathUnits="userSpaceOnUse" id="cp6"><path d="m6.24 0.93l1.54 2.68h-3.09z" /></clipPath><clipPath clipPathUnits="userSpaceOnUse" id="cp7"><path d="m12.79 4.27l-1.93 3.34l-1.93-3.34z" /></clipPath></defs><style>.s0{fill:#ffffff}</style><g clip-path="url(#cp1)"><path class="s0" d="m15.5 4h-4.6v-4h4.6z" /><path class="s0" d="m15.5 0l-2.3 4l-2.3-4z" /></g><g clip-path="url(#cp2)"><path class="s0" d="m48.5 49.9h-44.6v-49.9h44.6z" /><path class="s0" d="m23.5 0c13.8 0 25 11.2 25 25c0 13.8-11.2 24.9-25 24.9h-19.6v-30.9h12v19h7.6c7.2 0 13-5.8 13-13c0-7.1-5.8-13-13-13h-5.7l2.3-4h-4.6l2.3 4h-1.9v0.1h-2.7l-2.3-4.1h4.6l-2.3-4h4.6l-2.3-4z" /></g><g clip-path="url(#cp3)"><path class="s0" d="m2.8 3.4h-2.4v-2h2.4z" /><path class="s0" d="m1.6 1.4l1.2 2h-2.4z" /></g><g clip-path="url(#cp4)"><path class="s0" d="m5.5 7.6h-3.1v-2.7h3.1z" /><path class="s0" d="m3.9 4.9l1.6 2.7h-3.1z" /></g><g clip-path="url(#cp5)"><path class="s0" d="m10.1 11.2h-3.1v-2.7h3.1z" /><path class="s0" d="m10.1 8.5l-1.6 2.7l-1.5-2.7z" /></g><g clip-path="url(#cp6)"><path class="s0" d="m7.8 3.6h-3.1v-2.7h3.1z" /><path class="s0" d="m6.2 0.9l1.6 2.7h-3.1z" /></g><g clip-path="url(#cp7)"><path class="s0" d="m12.8 7.6h-3.9v-3.3h3.9z" /><path class="s0" d="m12.8 4.3l-1.9 3.3l-2-3.3z" /></g><path class="s0" d="m54 28v21.6h-1.9v-21.6z" /><path fill-rule="evenodd" class="s0" d="m68.6 40.1h1.9v1.8c0 5.7-3.3 7.9-6.5 7.9c-3.2 0-6.7-2.2-6.7-7.9v-6.1c0-5.8 3.5-8 6.7-8c2.1 0 4.3 1.1 5.7 3.6l-1.7 1c-0.9-2-2.5-2.8-4-2.8c-2.3 0-4.8 1.7-4.8 6.4v5.5c0 4.8 2.5 6.5 4.8 6.5c2.3 0 4.6-1.7 4.6-6.4zm-4.3-0.8q-0.2-0.6-0.2-0.9c0-0.4 0.1-0.7 0.3-0.9h5.9c0.1 0.2 0.2 0.5 0.2 0.9q0 0.3-0.3 0.9z" /><path class="s0" d="m75.7 28v21.6h-1.8v-21.6z" /><path class="s0" d="m89.5 49.2l-8.5-16.8v17.2h-1.9v-20.8c0.2-0.5 0.6-0.8 1.2-0.8c0.2 0 0.6 0.2 0.8 0.4l8.6 16.8v-17.2h1.8v20.7c-0.2 0.5-0.6 0.8-1.1 0.8c-0.4 0-0.6-0.1-0.9-0.3z" /><path class="s0" d="m96.7 43.6c0.1 0 0.6 0 1 0.5l-1.6 5.4c-0.3 0.2-0.5 0.2-0.7 0.2c-0.5 0-0.8-0.3-1.1-0.5l1.5-5.3c0.2-0.2 0.4-0.3 0.9-0.3zm8.7-3.2c-0.4-0.4-1.1-0.5-1.5-0.5q-0.2 0-0.4 0.1l-2.4-8.7l-2.7 9.5h5.7c0.8 0 1.3 0.4 1.7 1.2l2.1 7.2c-0.3 0.2-0.7 0.5-1.2 0.5c-0.2 0-0.4 0-0.7-0.2q-1.4-4.9-1.8-6.5c-0.1-0.2-0.2-0.2-0.3-0.2h-5.9c-0.2-0.2-0.6-0.2-0.9-0.2c-0.3 0-0.7 0.1-1.1 0.3l4.1-14.8h1.9z" /><path class="s0" d="m107.8 29.9q-0.3-0.7-0.3-0.9c0-0.4 0.1-0.6 0.2-0.9h5.2c-0.7 0.5-1.1 0.8-1.3 1.8zm6.8 0.2v19.5h-1.9v-19.7c0-1 0.9-1.8 1.9-1.8h5c0.1 0.2 0.2 0.5 0.2 0.9q0 0.3-0.3 0.9h-4.7q-0.2 0-0.2 0.2z" /><path class="s0" d="m124.7 28v21.6h-1.9v-21.6z" /><path fill-rule="evenodd" class="s0" d="m134 27.8c3 0 6.6 2.1 6.6 8.1v5.8c0 6.2-3.6 8.1-6.6 8.1c-3 0-6.5-2-6.5-8.1v-5.8c0-6.1 3.5-8.1 6.5-8.1zm0 1.8c-2.2 0-4.7 1.6-4.7 6.3v5.8c0 4.7 2.5 6.3 4.7 6.3c2.3 0 4.8-1.6 4.8-6.3v-5.8c0-4.7-2.5-6.3-4.8-6.3z" /><path class="s0" d="m154.1 49.2l-8.6-16.8v17.2h-1.9v-20.8c0.3-0.5 0.7-0.8 1.3-0.8c0.2 0 0.6 0.2 0.7 0.4l8.6 16.8v-17.2h1.9v20.7c-0.2 0.5-0.6 0.8-1.2 0.8c-0.3 0-0.6-0.1-0.8-0.3z" /><path fill-rule="evenodd" class="s0" d="m80.6 13.2c-0.4 2.1-2.3 3.5-4.5 3.5c-2.6 0-4.7-2.1-4.7-4.8v-1.5h1.6v1.4c0 2.1 1.2 3.4 3.2 3.4c1.7 0 3.1-1.2 3.1-2.6c0-0.8-0.5-1.4-1.4-1.4q-0.1 0-0.2 0v-1.4h0.6q1.8 0 2.6 1.6c0.6 1 1.1 1.4 1.9 1.4h1.6q0-0.2 0-0.4q0-1.4 0.9-2.3q0.8-0.8 2.2-0.8q1.4 0 2.2 0.9q0.8 0.9 0.8 2.2v0.4h3.2q-0.4-0.7-0.4-1.6c0-1.8 1.2-3.1 3-3.1c1.8 0 3.1 1.4 3.1 3.2c0 1.8-1.2 3.1-3.1 3.1h-6.4q-0.8 1.2-2.4 1.2q-1.6 0-2.5-1.2h-2c-1.4-0.1-1.8-0.3-2.4-1.2zm-5 6.5h-1.5v-1.5h1.5zm2.6 0h-1.5v-1.6h1.5zm10.8-7.2q0-0.7-0.4-1.2q-0.4-0.6-1.2-0.6q-0.7 0-1.1 0.6q-0.3 0.4-0.3 1.2c0 0.9 0.6 1.7 1.5 1.7q0.7 0 1.1-0.5q0.4-0.5 0.4-1.2zm6.8-5.5h-1.5v-1.5h1.5zm2 4.3c0-1-0.6-1.8-1.5-1.8c-0.9 0-1.5 0.7-1.5 1.8c0 1 0.6 1.8 1.6 1.8c0.8 0 1.4-0.8 1.4-1.8zm0.6-4.3h-1.5v-1.5h1.5zm5.3 7.4c-0.2 1.5-1.5 2.3-3.3 2.3v-1.3q1.9 0 1.9-1.9v-5.2h1.5v4.6h3.1q0.7 0 1-0.5q0.1-0.2 0.1-0.9v-5.8h1.5v6.3q0 2.5-2.3 2.4zm8.7 0h-1.5v-8.7h1.5zm12.1 0q-0.5 1-1.5 1.6q-1 0.6-2.1 0.6q-1.8 0-3.1-1.3q-1.2-1.4-1.2-3.3v-3.8h1.5v3.6q0 1.3 0.7 2.3q0.8 1.1 2.1 1.1q1.3 0 2.1-1.1q0.6-1 0.6-2.3v-3.6h1.6v3.8q0 0.4-0.1 0.8h4.2v-7.2h1.5l-0.2 4.9c1.3-1.6 2.6-2.4 4-2.4q3.5 0.1 3.5 4.8q0 0.7 0 1.5zm-2.9-7.5h-1.5v-1.5h1.5zm14.9 5.9v-0.4c0-1.8-0.8-2.9-2.1-2.9c-1.5 0-3.1 1.4-4 3.3zm8.8 1.5q-0.4 2.3-3 2.3v-1.2c0.8 0 1.3-0.3 1.5-1.1h-1.5c-1.6 0-2.9-1.3-2.9-3.1c0-1.8 1.3-3.1 3-3.1c1.7 0 2.8 1.3 2.8 3.1v1.6h2.8q0.8 0 1-0.5q0.1-0.2 0.1-0.9v-5.8h1.5v6.3q0 2.4-2.3 2.4zm-1.5-1.5v-1.9c-0.1-0.8-0.6-1.4-1.3-1.4c-0.9 0-1.5 0.7-1.5 1.6c0 0.9 0.6 1.7 1.4 1.7zm9.9 1.5h-1.5v-8.8h1.5z" /></svg>