<?xml version="1.0" encoding="utf-8"?>
<!-- Svg Vector Icons : http://www.onlinewebfonts.com/icon -->
<!DOCTYPE svg PUBLIC "-//W3C//DTD SVG 1.1//EN" "http://www.w3.org/Graphics/SVG/1.1/DTD/svg11.dtd">
<svg fill="currentColor" version="1.1" xmlns="http://www.w3.org/2000/svg" xmlns:xlink="http://www.w3.org/1999/xlink" x="0px" y="0px" viewBox="0 0 1000 1000" enable-background="new 0 0 1000 1000" xml:space="preserve">
<metadata> Svg Vector Icons : http://www.onlinewebfonts.com/icon </metadata>
<g><path d="M519.6,93.3h-31.3C264,93.3,10,257.3,10,454.8v82.8c0,91.4,85,177.4,85,191.7c0,46.7-39.2,110.8-53.7,132.2c-14.9,29.5,0,4.1-23.5,45.2l23.5-5.2c60-4.8,155-40,203.8-40h15.7c73.9,0,137.7,37.6,235.2,37.6C747.2,899.1,990,736.4,990,500v-22.6C990,266.1,746,93.3,519.6,93.3z M147.2,728.3v-7.1c0-41.5-81.7-94.3-81.7-214v-35.7c0-186.7,229.4-328.1,438.2-328.1c209.4,0,430.7,148.7,430.7,342.4c0,180.1-171.1,323.9-363.9,356.7H459.2c-69.4,0-114.1-28.6-163.4-34.7h-37.1c-42.9,6.1-109.5,25.9-148.5,34.7C119.2,804.9,147.2,776.6,147.2,728.3z"/><path d="M297.8,453.4h-10c-28.5,0-49.9,25.2-49.9,52.8c0,23.3,28.2,47.9,54.9,47.9c25.1,0,49.9-23.9,49.9-47.9v-9.6C342.7,472.8,322.5,453.4,297.8,453.4z"/><path d="M707.2,453.4c-28.5,0-49.9,25.2-49.9,52.8c0,23.3,28.2,47.9,54.9,47.9c25.1,0,49.9-23.9,49.9-47.9C762.1,470.2,744.6,453.4,707.2,453.4z"/><path d="M505,453.4h-10c-24.7,0-44.9,19.5-44.9,43.2v9.6c0,21.8,23.7,47.9,44.9,47.9c35,0,59.9-21.5,59.9-52.7C554.9,477.2,530.1,453.4,505,453.4z"/></g>
</svg>