<svg class="scroll-arrow-right-icon"  viewBox="0 0 64 64" fill="#262626" xmlns="https://www.w3.org/2000/svg" aria-hidden="true">
	<g id="right-arrow" stroke="none" stroke-width="1" fill="none" fill-rule="evenodd">
	<g>
		<path d="M32,0 C49.673112,1.082166e-15 64,14.326888 64,32 C64,49.673112 49.673112,64 32,64 C14.326888,64 2.164332e-15,49.673112 0,32 C-2.164332e-15,14.326888 14.326888,3.24649801e-15 32,0 Z M32,2 C15.4314575,2 2,15.4314575 2,32 C2,48.5685425 15.4314575,62 32,62 C48.5685425,62 62,48.5685425 62,32 C62,15.4314575 48.5685425,2 32,2 Z" id="Shape" fill="#060606"></path>
		<path d="M23.12,30.52 L44.52,30.52 C45.3373814,30.52 45.9999999,31.1826186 45.9999999,32 C45.9999999,32.8173814 45.3373814,33.48 44.52,33.48 L23.12,33.48 L31.12,41.48 C31.4100317,41.7522 31.5745559,42.1322423 31.5745559,42.53 C31.5745559,42.9277577 31.4100317,43.3078 31.12,43.58 C30.5343649,44.1649068 29.5856351,44.1649068 29,43.58 L18.4,33.08 C17.8150932,32.4943649 17.8150932,31.5456351 18.4,30.96 L29,20.46 C29.5856351,19.8750932 30.5343649,19.8750932 31.12,20.46 C31.6483108,21.0219995 31.6483108,21.8980005 31.12,22.46 L23.12,30.52 Z" id="Path" fill="#4D4D4D" transform="translate(31.980660, 32.020000) scale(-1, 1) translate(-31.980660, -32.020000) "></path>
		
	</g></g></svg>



