<?xml version="1.0" encoding="UTF-8"?>
<svg version="1.1" viewBox="0 0 3333.3 3333.3" xml:space="preserve" xmlns="http://www.w3.org/2000/svg"><g transform="matrix(1.3333 0 0 -1.3333 0 3333.3)"><g transform="scale(.1)"><path d="M 25000,0 H 0 V 25000 H 25000 V 0" fill="#fff"/><path d="m22230 20449c0 652.7-523.2 1173.6-1168.7 1173.6l-13216 3.9c-645.45 0-1169.1-525.4-1169.1-1173.4l0.59-15085-2953 1.8c0-660.9 436.01-1225.4 1036.6-1413.9 138.58-43.5 285.93-67 438.71-67l13222 0.3c814.8 0 1475.1 663.1 1475.1 1481.1l-4.9 15079 2338.2-0.3" fill="#fff"/><path d="m3747.5 5346.2c10.32-621.4 426.75-1181.7 1019.8-1367.8 139.29-43.7 284.52-65.9 431.66-65.9l13222 0.3c800.3 0 1451.5 653.8 1451.5 1457.5l-4.9 15079c0 6.2 2.4 12.2 6.9 16.7 4.4 4.4 10.4 6.9 16.7 6.9l2314.4-0.4c-12.6 623.3-521.3 1126.5-1144.8 1126.5l-13216 3.9c-631.6 0-1145.5-515.8-1145.5-1149.8l0.59-15085c0-6.3-2.49-12.3-6.91-16.7s-10.43-6.9-16.7-6.9zm1451.5-1480.9c-151.93 0-301.92 22.9-445.78 68.1-620.04 194.5-1053.1 785.2-1053.1 1436.4 0 6.2 2.48 12.2 6.91 16.7 4.44 4.4 10.43 6.9 16.68 6.9h0.01l2929.4-1.8-0.59 15061c0 660 535.02 1197 1192.7 1197l13216-3.9c657.4 0 1192.2-537.1 1192.2-1197.2 0-6.3-2.5-12.3-6.9-16.7-4.4-4.5-10.4-6.9-16.7-6.9l-2314.6 0.3 4.9-15055c0-829.7-672.3-1504.7-1498.7-1504.7l-13222-0.3"/><path d="m5199 3865.7c-13.02 0-23.59 10.6-23.59 23.6 0 13.1 10.57 23.6 23.59 23.6 800.48 0 1451.7 653.9 1451.7 1457.6 0 13 10.57 23.6 23.6 23.6s23.59-10.6 23.59-23.6c0-829.7-672.4-1504.8-1498.9-1504.8"/><path d="m19892 20426c-13.1 0-23.6 10.6-23.6 23.7 0 659.9 534.8 1196.8 1192.1 1196.8 13.1 0 23.6-10.5 23.6-23.6 0-13-10.5-23.6-23.6-23.6-631.3 0-1144.9-515.7-1144.9-1149.6 0-13.1-10.6-23.7-23.6-23.7"/><path d="m7434.7 3860.9h-0.02l-2236.7 2.2c-127.42 0-254.11 16.2-376.53 48.2-12.61 3.3-20.16 16.2-16.87 28.8 3.28 12.6 16.14 20.2 28.8 16.9 118.52-31 241.21-46.7 364.62-46.7l2236.7-2.2c13.03 0 23.58-10.6 23.57-23.6s-10.57-23.6-23.6-23.6"/><path d="m7977.5 3865.4c-13.03 0-23.59 10.6-23.59 23.6s10.56 23.6 23.59 23.6l4202.7 0.1c13 0 23.6-10.6 23.6-23.6s-10.6-23.6-23.6-23.6l-4202.7-0.1"/><path d="m16390 3865.6c-13 0-23.6 10.6-23.6 23.6s10.6 23.6 23.6 23.6h807.8c13.1 0 23.6-10.6 23.6-23.6s-10.5-23.6-23.6-23.6h-807.8"/><path d="m18421 3866.3h-151.1c-13.1 0-23.6 10.6-23.6 23.6s10.5 23.6 23.6 23.6h151.1c797.2 0 1445.8 653.8 1445.8 1457.5 0 13 10.6 23.6 23.6 23.6 13.1 0 23.6-10.6 23.6-23.6 0-829.7-669.8-1504.7-1493-1504.7"/><path d="m8783.8 17808c-111.6 0-202.39-90.4-202.39-201.4 0-111.1 90.79-201.4 202.39-201.4h9232.6c111.6 0 202.4 90.3 202.4 201.4 0 111-90.8 201.4-202.4 201.4zm9232.6-450h-9232.6c-137.63 0-249.58 111.5-249.58 248.6s111.95 248.6 249.58 248.6h9232.6c137.6 0 249.6-111.5 249.6-248.6s-112-248.6-249.6-248.6"/><path d="m8783.8 13781c-111.6 0-202.39-90.4-202.39-201.4 0-111.1 90.79-201.5 202.39-201.5h8231.6c111.6 0 202.4 90.4 202.4 201.5 0 111-90.8 201.4-202.4 201.4zm8231.6-450h-8231.6c-137.62 0-249.58 111.5-249.58 248.6s111.96 248.6 249.58 248.6h8231.6c137.6 0 249.6-111.5 249.6-248.6s-112-248.6-249.6-248.6"/><path d="m10499 6493.1c-111.6 0-202.4-90.3-202.4-201.4s90.8-201.4 202.4-201.4h1645.6c111.6 0 202.4 90.3 202.4 201.4s-90.8 201.4-202.4 201.4zm1645.6-450h-1645.6c-137.6 0-249.5 111.5-249.5 248.6s111.9 248.6 249.5 248.6h1645.6c137.7 0 249.6-111.5 249.6-248.6s-111.9-248.6-249.6-248.6"/><path d="m8783.8 11767c-56.75 0-109.32-22.8-148.04-64.1-38.44-41-57.58-94.6-53.91-150.8 6.87-105.4 98.99-188 209.72-188h5256.8c111.6 0 202.4 90.4 202.4 201.4 0 111.1-90.8 201.5-202.4 201.5zm5264.6-450.1h-5256.8c-135.52 0-248.33 101.9-256.82 232.1-4.52 69.4 19.12 135.5 66.57 186.2 47.06 50.2 113.57 79 182.48 79h5264.6c137.6 0 249.6-111.6 249.6-248.7s-112-248.6-249.6-248.6"/><path d="m15761 11767c-111.6 0-202.4-90.4-202.4-201.5 0-111 90.8-201.4 202.4-201.4h2255.2c55.9 0 109.9 23.4 148.1 64.1 38.4 41 57.5 94.6 53.9 150.8-6.9 105.4-99 188-209.7 188zm2255.2-450.1h-2255.2c-137.6 0-249.6 111.5-249.6 248.6s112 248.7 249.6 248.7h2247.5c135.5 0 248.3-102 256.8-232.1 4.5-69.4-19.1-135.5-66.6-186.2-47-50.2-113.6-79-182.5-79"/><path d="m12934 12786c-111.6 0-202.4-90.3-202.4-201.4s90.8-201.5 202.4-201.5h5082.1c55.9 0 109.9 23.4 148.1 64.1 38.4 41.1 57.5 94.6 53.9 150.9-6.9 105.4-99 187.9-209.7 187.9zm5082.1-450.1h-5082.1c-137.6 0-249.6 111.6-249.6 248.7s112 248.6 249.6 248.6h5074.4c135.5 0 248.3-101.9 256.8-232.1 4.5-69.4-19.1-135.5-66.6-186.1-47-50.3-113.6-79.1-182.5-79.1"/><path d="m14652 10779c-111.7 0-202.4-90.3-202.4-201.4s90.7-201.5 202.4-201.5h3702.5c55.9 0 109.9 23.4 148 64.1 38.5 41.1 57.6 94.6 53.9 150.9-6.8 105.4-98.9 187.9-209.7 187.9zm3702.5-450.1h-3702.5c-137.7 0-249.6 111.6-249.6 248.7s111.9 248.6 249.6 248.6h3694.7c135.6 0 248.4-101.9 256.8-232.1 4.6-69.4-19.1-135.5-66.5-186.1-47.1-50.2-113.6-79.1-182.5-79.1"/><path d="m8783.8 12786c-56.75 0-109.32-22.7-148.04-64-38.44-41.1-57.58-94.6-53.91-150.9 6.87-105.4 98.99-188 209.72-188h2608c111.7 0 202.5 90.4 202.5 201.5s-90.8 201.4-202.5 201.4zm2615.8-450.1h-2608c-135.52 0-248.33 102-256.82 232.1-4.52 69.5 19.12 135.6 66.57 186.2 47.06 50.2 113.55 79 182.48 79h2615.8c137.7 0 249.6-111.5 249.6-248.6s-111.9-248.7-249.6-248.7"/><path d="m8783.8 14799c-56.75 0-109.32-22.7-148.04-64-38.42-41.1-57.58-94.6-53.91-150.9 6.87-105.4 98.99-188 209.72-188h5708.8c111.6 0 202.4 90.4 202.4 201.5s-90.8 201.4-202.4 201.4zm5716.6-450h-5708.8c-135.52 0-248.33 101.9-256.82 232-4.52 69.5 19.12 135.6 66.57 186.2 47.06 50.2 113.55 79 182.48 79h5716.6c137.6 0 249.6-111.5 249.6-248.6s-112-248.6-249.6-248.6"/><path d="m16689 14799c-111.6 0-202.4-90.3-202.4-201.4s90.8-201.5 202.4-201.5h1327.4c55.9 0 109.9 23.4 148.1 64.1 38.4 41.1 57.5 94.6 53.9 150.9-6.9 105.4-99 187.9-209.7 187.9zm1327.4-450h-1327.4c-137.6 0-249.6 111.5-249.6 248.6s112 248.6 249.6 248.6h1319.7c135.5 0 248.3-101.9 256.8-232.1 4.5-69.4-19.1-135.5-66.6-186.1-47-50.2-113.6-79-182.5-79"/><path d="m8783.8 16813c-56.75 0-109.32-22.8-148.04-64.1-38.44-41-57.58-94.6-53.91-150.9 6.87-105.4 98.99-188 209.72-188h1926c111.6 0 202.4 90.4 202.4 201.5s-90.8 201.5-202.4 201.5zm1933.8-450.1h-1926c-135.52 0-248.33 101.9-256.82 232-4.52 69.5 19.12 135.6 66.57 186.2 47.06 50.3 113.55 79 182.48 79h1933.8c137.7 0 249.6-111.5 249.6-248.6s-111.9-248.6-249.6-248.6"/><path d="m12288 16813c-111.6 0-202.4-90.4-202.4-201.5s90.8-201.5 202.4-201.5h5728.7c55.9 0 109.9 23.4 148.1 64.1 38.4 41.1 57.5 94.6 53.9 150.9-6.9 105.4-99 188-209.7 188zm5728.7-450.1h-5728.7c-137.6 0-249.6 111.5-249.6 248.6s112 248.6 249.6 248.6h5721c135.5 0 248.3-101.9 256.8-232.1 4.5-69.4-19.1-135.5-66.6-186.1-47.1-50.2-113.6-79-182.5-79"/><path d="m8783.8 15818c-129.8 0-234.04-109-225.5-240.1 7.8-119.6 112.91-210 233.27-210h2401.8c124.9 0 226.1 100.8 226.1 225.1 0 124.2-101.2 225-226.1 225h-2409.6" fill="#fff"/><path d="m13025 15794c-111.7 0-202.5-90.4-202.5-201.4 0-111.1 90.8-201.5 202.5-201.5h4991.1c55.9 0 109.9 23.4 148.1 64.1 38.4 41 57.5 94.6 53.9 150.8-6.9 105.4-99 188-209.7 188zm4991.1-450.1h-4991.1c-137.7 0-249.7 111.5-249.7 248.7 0 137.1 112 248.6 249.7 248.6h4983.4c135.5 0 248.3-102 256.8-232.1 4.5-69.4-19.1-135.5-66.6-186.2-47-50.2-113.6-79-182.5-79"/><path d="m9803.8 6974.4c-3.96 0-7.96 1-11.65 3.1-11.32 6.4-15.28 20.8-8.84 32.1l464.62 816.4c26.9 47.3 75.4 76.5 129.6 78 54.2 1.7 104.3-24.8 133.9-70.4l144.7-223.5c19.8-30.7 53.4-49 89.8-49s70 18.3 89.8 49l144 222.3c29.7 45.8 80.3 72.2 134.2 70.5 54.5-1.7 102.9-31.2 129.7-78.8l403.5-718.1c19.6-34.9 55.6-55.6 95.1-54.7 40 0.7 74.8 22.4 93.3 58l541.3 1046.7c26.7 51.6 79.1 83.5 137 83.5h1.2c58.3-0.4 110.8-33.2 136.8-85.6l142.2-285.5c5.9-11.7 1.1-25.9-10.6-31.7-11.6-5.8-25.8-1-31.6 10.6l-142.2 285.6c-18.4 36.9-53.9 59.1-95 59.4-40.2 0-77-21.3-95.9-58l-541.3-1046.6c-26.6-51.3-76.8-82.6-134.4-83.6-57.3-1.2-108.8 28.5-137.1 78.8l-403.4 718.1c-18.6 33.1-52.3 53.5-90 54.7-37.4 1.3-72.6-17.1-93.2-48.9l-144-222.4c-28.5-44.1-76.9-70.5-129.4-70.5s-100.8 26.4-129.4 70.5l-144.7 223.5c-20.5 31.7-54.5 50.1-92.9 48.9-37.6-1-71.3-21.3-90-54.1l-464.6-816.4c-4.35-7.6-12.33-11.9-20.53-11.9"/><path d="m10714 19580c-14.8-157.8-72.8-280.9-174-369.3s-235.8-132.6-403.8-132.6c-117.4 0-220.79 28-310.17 83.8-89.4 55.9-158.37 135.3-206.95 238.3-48.58 102.9-73.87 222.5-75.89 358.6v138.2c0 139.5 24.62 262.4 73.87 368.8 49.24 106.3 119.91 188.3 212.01 245.8 92.09 57.6 198.53 86.4 319.23 86.4 162.6 0 293.5-44.2 392.7-132.6s156.8-213.5 173-375.4h-255c-12.1 106.4-43 183.1-92.6 230.1-49.6 47.1-122.3 70.6-218.1 70.6-111.3 0-196.79-40.8-256.49-122.5-59.71-81.7-90.25-201.5-91.59-359.5v-131.1c0-160 28.5-282.1 85.51-366.1 57-84.1 140.47-126.1 250.47-126.1 100.5 0 176.1 22.7 226.7 68 50.6 45.4 82.6 120.9 96.1 226.6h255"/><path d="m11119 19637c0-113.1 23.3-201.7 69.8-265.7 46.6-64 111.4-96 194.3-96 83 0 147.6 32.5 193.8 97.5 46.2 65.1 69.4 160.2 69.4 285.5 0 111.1-23.8 199.2-71.4 264.2s-112.2 97.5-193.8 97.5c-80.3 0-144-32-191.3-96-47.2-64-70.8-159.7-70.8-287zm-245.9 21.3c0 107.7 21.3 204.8 63.8 291.1 42.5 86.4 102.2 152.7 179.1 199.2 76.9 46.3 165.3 69.5 265.1 69.5 147.8 0 267.7-47.7 359.8-143.2s141.8-222.2 149.2-380l1-57.9c0-108.4-20.7-205.2-62.2-290.6-41.5-85.3-100.9-151.3-178.1-198.1-77.3-46.7-166.5-70.1-267.7-70.1-154.5 0-278.1 51.7-370.8 155-92.8 103.2-139.2 240.9-139.2 412.9v12.2"/><path d="m12327 20198 7.1-127c80.9 98.2 187.2 147.3 318.8 147.3 228 0 344-131 348.1-393.1v-726.5h-245.9v712.2c0 69.8-15.1 121.4-45.1 155-30 33.5-79.1 50.2-147.2 50.2-99.2 0-173.1-45-221.6-135.1v-782.3h-245.9v1099.3h231.7"/><path d="m13560 20465v-267.2h193.3v-182.9h-193.3v-613.6c0-42 8.2-72.3 24.8-90.9 16.5-18.7 46-28 88.5-28 28.4 0 57 3.4 86 10.2v-191c-56-15.6-109.9-23.4-161.9-23.4-188.9 0-283.3 104.7-283.3 314v622.7h-180.2v182.9h180.2v267.2h245.9"/><path d="m14514 19972c-32.4 5.4-65.8 8.1-100.2 8.1-112.7 0-188.6-43.3-227.7-130v-751.9h-245.9v1099.3h234.8l6-122.9c59.4 95.5 141.7 143.2 247 143.2 35 0 64-4.7 87-14.2l-1-231.6"/><path d="m15023 19276c48.5 0 94.2 11.9 137.1 35.6 42.8 23.7 75.1 55.5 96.6 95.5v207.2h-132.5c-91.1 0-159.6-15.9-205.4-47.7-45.9-31.8-68.9-76.9-68.9-135.1 0-47.4 15.7-85.2 47.1-113.3s73.4-42.2 126-42.2zm270.2-177.8c-10.8 21-20.3 55.2-28.4 102.6-78.2-81.9-174-122.9-287.4-122.9-109.9 0-199.7 31.5-269.2 94.5-69.4 63-104.2 140.9-104.2 233.7 0 117.2 43.4 207.1 130.1 269.7 86.6 62.7 210.6 94 371.9 94h150.7v72.1c0 56.9-15.8 102.5-47.5 136.7s-80 51.3-144.7 51.3c-56 0-101.9-14.1-137.7-42.2-35.7-28.1-53.6-63.8-53.6-107.2h-245.9c0 60.3 19.9 116.7 59.7 169.2s93.9 93.6 162.4 123.4 144.9 44.7 229.2 44.7c128.2 0 230.4-32.3 306.7-97 76.2-64.7 115.3-155.6 117.4-272.8v-495.8c0-98.9 13.8-177.8 41.4-236.7v-17.3h-250.9"/><path d="m16210 19275c61.4 0 112.3 18 152.8 53.9 40.5 35.8 62.1 80.2 64.8 133.1h231.7c-2.7-68.5-23.9-132.3-63.7-191.6-39.8-59.2-93.8-106.1-161.9-140.7-68.2-34.5-141.7-51.8-220.6-51.8-153.2 0-274.6 49.8-364.4 149.4-89.7 99.5-134.5 237-134.5 412.5v25.3c0 167.3 44.5 301.3 133.5 401.9 89.1 100.5 210.5 150.8 364.3 150.8 130.2 0 236.3-38.1 318.3-114.3 82-76.1 125-176.2 129-300.2h-231.7c-2.7 63-24.1 114.8-64.3 155.5-40.1 40.6-91.2 60.9-153.3 60.9-79.6 0-141-28.9-184.2-86.8-43.1-58-65.1-145.8-65.7-263.7v-39.6c0-119.2 21.4-208.1 64.2-266.7 42.9-58.6 104.8-87.9 185.7-87.9"/><path d="m17153 20465v-267.2h193.3v-182.9h-193.3v-613.6c0-42 8.2-72.3 24.8-90.9 16.5-18.7 46-28 88.5-28 28.4 0 57 3.4 86 10.2v-191c-56-15.6-109.9-23.4-161.9-23.4-188.9 0-283.3 104.7-283.3 314v622.7h-180.2v182.9h180.2v267.2h245.9"/><path d="m5750.3 11478c224.45 148.8 599 68.6 743.16-305.2 117.77-305.3-145.7-541-212.43-766.2-215.87-728.4 482.53-2283.1 8.06-3076.9-378.54-633.4-1431.4-1100.4-2339.4-705.5-863.41 375.6-1450.4 1279.4-1100.1 2019.3 314.86 665.1 909.72 350.5 1271 1006.2 356.13 646.3 29.2 950.6 289.7 1274.2 356.22 442.5 703.92 132.4 1340.1 554.1"/><path d="m9664.1 12110-142.84-459.4c-47.02-142.4-23.42-298.8 63.49-420.8l160.16-230.7c26.52-38.3 33.83-84.5 34.71-131.1 1.98-104.3-13.65-263.4-13.65-263.4l381.55-6.2s-41.8 202-61.1 271.3c-24.7 88.8-25.3 185.8 13.2 269.5 122.6 266 86.7 533.1 86.7 533.1l-261.39-70s-80.9 138.1-65.61 379.3c3.73 59-2.45 104-14.31 138.3-30.53 88.1-157.85 80.6-180.91-9.9" fill="#fff"/><path d="m9664.1 12110h0.23zm127.69-1482.2 326.63-5.3c-12.3 58.2-40.2 188.7-54.8 240.9-28.4 102.2-23.2 203.7 14.6 285.6 96.2 208.8 92.2 420.1 87.2 493.3l-234.37-62.8c-10.26-2.8-21.1 1.7-26.47 10.9-3.46 5.9-84.37 147.1-68.82 392.7 3.24 51.3-1.15 94.7-13.04 129-12.38 35.8-43.59 47.3-68.51 46.3-24.91-1-57.47-15.8-67.24-54.2-0.1-0.4-0.22-0.8-0.33-1.2l-142.85-459.4c-44.64-135.2-22.1-284.6 60.18-400.1l160.31-231c33.36-48 38.2-105.2 38.94-144 1.52-80.6-7.09-191.2-11.43-240.7zm355.73-53h-0.3l-381.64 6.2c-6.59 0.1-12.83 3-17.22 7.9-4.38 5-6.51 11.5-5.86 18 0.14 1.6 15.47 159 13.53 260.7-0.99 51.9-10.68 89.4-30.51 118l-160.15 230.7c-90.8 127.5-115.73 292.7-66.52 441.7l142.54 458.5c13.51 51.9 56.94 86.8 110.84 89.1 53.07 2.1 97.92-28.4 115.08-78 13.96-40.3 19.19-89.9 15.55-147.5-11.72-184.9 35.26-308.1 54.54-350l242.82 65c6.5 1.8 13.5 0.6 19.2-3.1 5.6-3.8 9.4-9.8 10.3-16.5 1.5-11.2 35.4-277-88.7-546.2-33.1-71.8-37.3-161.8-11.9-253.3 19.3-69.3 59.8-264.6 61.5-272.8 1.5-7.1-0.3-14.3-4.9-19.9-4.5-5.4-11.1-8.5-18.2-8.5"/><path d="m10233 10784-572.88-49.7s-28.9-802.2-614.45-1405.9c-408.45-421-1020.7-331.5-1466.8-226.3-695.9 258.2-1711.8 203.6-2248.2-29.5-1073.4-466.4-1699.7-4150-1359.4-4942.7 310.76-724 2975.3-870 3717-247.6 315.98 265.1 216.33 1840.8 162.75 2470.5-16.28 191.4-24.21 383.3-24.01 575.4l0.32 313.1c280.8 61.3 2007.4 477.3 2390.8 1504.9 409.2 1096.8 14.9 2037.8 14.9 2037.8" fill="#fff"/><path d="m6503.2 9248.1c-448.92 0-881.99-74.8-1163.4-197-458.7-199.3-905.9-1071.4-1196.2-2332.7-250.34-1087.5-315.21-2196.3-150.86-2579.1 89.96-209.6 402.6-387.6 880.36-501.3 916.46-218 2291.7-163.9 2799.8 262.4 314.28 263.8 197.63 1942.4 154.4 2450.5-16.18 190.3-24.29 384.6-24.1 577.4l0.33 313.1c0.01 11.1 7.73 20.7 18.56 23 330.49 72.2 1998.2 483.4 2373.8 1490.2 372.3 997.9 69.7 1876.5 21.5 2004.5l-535.11-46.4c-9.84-131.2-87.3-851.6-619.78-1400.6-408.69-421.3-1010.5-345.7-1489.2-232.8-0.95 0.2-1.88 0.5-2.79 0.8-315.67 117.1-696.88 168-1067.3 168zm-481.57-5781.6c-405.09 0-814.57 43.6-1159.5 125.6-348.5 82.9-789.76 241.9-912.8 528.6-170.55 397.2-108.21 1494.2 148.24 2608.3 141.02 612.6 542.53 2069.5 1223.4 2365.4 519.44 225.7 1532.6 301.4 2264.5 30.5 466.29-109.9 1051.3-183.8 1443 220.1 572.6 590.3 607.52 1382.4 607.8 1390.3 0.44 11.9 9.68 21.6 21.54 22.6l572.92 49.7c10.2 0.9 19.8-4.9 23.8-14.4s393.1-962.3-14.6-2055.1c-377.52-1011.9-2015.2-1432.1-2389.4-1515.7l-0.29-294.1c-0.2-191.5 7.85-384.4 23.93-573.4 56.04-658.6 151.55-2219.9-171.11-2490.6-325.83-273.4-997.38-397.8-1681.6-397.8"/><path d="m5509.4 10190c23.38-1 41.97 18.8 39.44 42.3-11.95 111.5-47.51 320.8 58.83 414.8 136.3 120.3 363.29 303.4 451.25 191.4 77.11-98.1 155.03-297.4 341.26-371.5 17.85-7.1 19.61-33 11.65-50.5l-39-99.3c-8.93-19.7-1.09-65.3 7.26-85.4 25.84-61.9 85.57-191.1 73.99-218.2-22.57-52.8-225.97-147.2-225.97-147.2l134.56-631.2c5.11-24 21.05-63.7 44.5-57.8l248.41-18.5s-15.45-342.1-543.69-436.6c-690.34-123.4-781.07 341.4-781.07 341.4s674.87 10.8 380.97 749.5c-6.46 16.3-21.14 27.8-38.25 30.5-65.65 10-247.17 45.8-281.64 163.2-36.6 124.5 37.45 186.6 117.5 183.1" fill="#fff"/><path d="m5361.2 9041.8c30.78-94.1 175.92-398.5 746.56-296.5 429.19 76.8 507.23 316 521.25 391.7l-220.51 16.4c-10.05-1.4-20.04 0.8-29.16 6.5-26.51 16.5-37.12 57.9-39.73 70.2l-134.57 631.2c-2.3 10.8 3.15 21.7 13.14 26.3 93.88 43.6 202.47 107.6 214.21 135.1 3.05 20.1-41.1 122.8-59.94 166.7-5.27 12.3-10.1 23.5-14.12 33.2-8.78 21-20.25 74.9-6.97 104.1l38.53 98.2c4.25 9.4 2.86 18.4 1.25 20.2-146.38 58.2-227.32 187.5-292.34 291.4-20.5 32.7-39.87 63.6-58.43 87.3-12.02 15.3-27.65 23.6-47.8 25.4-108.9 10-304.86-163.2-369.27-220-87.86-77.6-67.81-249.5-54.55-363.3 1.29-11.1 2.52-21.6 3.56-31.3 1.94-18.1-4-35.9-16.28-49-12.25-13.1-29.74-20.1-47.64-19.3-34.16 1.3-64.51-11.1-82.83-34.5-21.8-27.9-25.6-68.8-11.02-118.5 29.58-100.6 193.48-136 262.56-146.5 25.41-3.9 47.12-21.1 56.62-45 98.08-246.6 101.08-441.6 8.93-579.8-106.34-159.5-305.59-193.1-381.45-200.2zm533.52-364c-506.05 0-586.21 376.9-587.05 381.2-1.33 6.9 0.44 14 4.83 19.4s10.96 8.6 17.94 8.7c2.55 0.1 256.8 6.6 373.1 181.3 82.88 124.5 78.28 304.8-13.66 535.9-3.35 8.4-10.96 14.5-19.88 15.8-96.92 14.8-264.85 57.8-300.73 179.9-24.09 82-2.89 132.7 19.13 160.9 27.81 35.5 72.31 54.6 122.01 52.5 5.77-0.3 9.54 2.7 11.21 4.5s4.41 5.7 3.77 11.7c-1.03 9.6-2.24 19.9-3.51 30.9-14.4 123.5-36.17 310.1 70.18 404 118.33 104.6 289.23 242.3 404.78 231.7 33.33-3 60.45-17.6 80.65-43.3 20.11-25.6 40.12-57.6 61.31-91.4 61.37-98.1 137.77-220.1 270.11-272.8 12.05-4.8 21.5-14.4 26.61-27.1 6.62-16.5 5.77-37.6-2.2-55.1l-38.53-98.2c-5.1-11.3-0.85-48.5 7.09-67.6 3.96-9.5 8.73-20.6 13.92-32.6 50.99-118.8 71.75-176.4 59.98-203.9-22.06-51.7-164.16-124.1-220.69-151.3l130.67-613c4.15-19.5 12.78-35.4 17.66-39.4 1.82 0.3 3.71 0.4 5.51 0.2l248.42-18.5c12.73-0.9 22.4-11.8 21.82-24.6-0.67-14.7-22.53-362.1-563.1-458.7-81.6-14.6-155.13-21.1-221.35-21.1"/><path d="m8211.8 5025.7s404.27 144.1 684.6 64.8c0 0 41.87-175.8 162.95-254.1 121.07-78.3 417.26-114.6 473.81-283.6s-536.02-331.7-747.59-245.9c-211.57 85.7-402.51 299.2-603.25 289.1-200.74-10.2 29.48 429.7 29.48 429.7" fill="#fff"/><path d="m8196.6 4619.9c126.2 0 243.69-77.5 367.8-159.3 74.6-49.2 151.75-100.1 230.07-131.9 153.7-62.3 556.66 20.2 684.38 140.2 29.05 27.3 39.79 53 31.97 76.4-34.58 103.4-175.81 154.7-300.41 200-62.9 22.8-122.3 44.4-163.85 71.3-108.62 70.2-156.45 210-169.38 254.6-246.97 62.9-590.08-45.2-648.75-64.8-58.53-114.3-132.8-308.4-94.1-368.8 5.43-8.5 16.34-19.6 46.82-18.1 5.16 0.3 10.32 0.4 15.45 0.4zm744.72-360c-64.6 0-122.03 7.8-164.59 25.1-82.66 33.5-161.79 85.7-238.31 136.2-122.52 80.8-238.25 157.2-354.87 151.2-50.92-2.5-76.45 20.2-88.96 39.7-67.31 105.1 79.38 392.1 96.33 424.5 2.76 5.3 7.4 9.3 12.98 11.3 16.81 6 414.65 145.7 698.94 65.3 8.22-2.3 14.54-8.9 16.54-17.2 0.4-1.7 41.31-167.7 152.81-239.8 37.06-24 94.04-44.7 154.34-66.6 134.64-48.9 287.23-104.4 329.04-229.3 9.76-29.2 9.98-74.7-44.42-125.8-107.76-101.2-372.16-174.6-569.83-174.6"/><path d="m5440.7 7260.9 471.16-1092.4c97.43-225.9 287.19-398.5 520.62-473.7l1807.5-582.2-42.34-630.4s-2374.5 223.8-2785.2 527.8c-384.37 284.5-867.49 1597.6-867.49 1597.6l895.72 653.3" fill="#fff"/><path d="m8197.7 4458.6c-0.74 0-1.48 0.1-2.22 0.1-97.23 9.2-2385.8 227.9-2797 532.3-385.6 285.4-855.76 1554.5-875.59 1608.4-4.51 12.2 1.76 25.8 14 30.3 12.22 4.5 25.78-1.8 30.29-14 4.8-13.1 485.06-1309.7 859.38-1586.8 378.76-280.4 2498.1-496.1 2749.2-520.8l39.48 587.7-1790 576.5c-239.93 77.3-434.94 254.8-535.06 486.9l-113.79 263.8c-5.16 11.9 0.36 25.8 12.33 31 11.92 5.1 25.84-0.4 31.02-12.3l113.78-263.8c94.72-219.7 279.21-387.5 506.19-460.7l1807.5-582.1c10.3-3.4 17.02-13.3 16.29-24.1l-42.34-630.4c-0.43-6.3-3.4-12.2-8.26-16.4-4.28-3.6-9.71-5.6-15.28-5.6"/><path d="m12806 7439.6c-69.6 292.5-889.2 389-980.1 251.5-211.2-319.1-573.6-1119.3-767.3-1559.6-86.7-197-235.4-359.7-423.3-463.4l-1093.6-603.7c-58.21 15-593.49 152.1-646.89 140.9-56.48-11.9-123.24-117.8-263.43-197.3-140.18-79.5-245.93-127.1-212.79-188.7 29.44-54.8 292.41-33.5 477.44 48.3 37.27 16.4 81.23 6.5 108.63-23.7 66.07-72.9 356.3-202.5 616.89-201.3l1753.2 288.9c182.6 30.1 343.3 137.8 440.6 295.8 334.7 543.9 1083.8 1820.6 990.6 2212.3" fill="#fff"/><path d="m8934.4 4899.2c32.8 0 65.08-13.8 88.35-39.5 60.53-66.8 338.93-193.5 595.68-193.5h1.74l1751.4 288.6c176 28.9 330.6 132.8 424.3 284.9 327.4 531.9 1079.1 1810.6 987.7 2194.4-34.3 144.2-273.4 235.8-485.8 273.5-238.9 42.3-420.4 17.7-451.6-29.5-209.6-316.7-569.5-1110.9-765.4-1556.1-88.2-200.4-242.1-368.9-433.5-474.6l-1093.5-603.7c-5.29-2.9-11.49-3.7-17.29-2.2-288.92 74.4-600.06 146.7-636.26 140.7-20.3-4.3-49.19-30.9-82.66-61.7-43.54-40-97.74-89.9-173.87-133-17.28-9.8-34.02-19.1-50.06-28-106.43-59.2-170.78-97.1-153.6-129 16.41-30.6 248.38-29.1 447.12 58.7 15.24 6.7 31.35 10 47.32 10zm687.73-256.6h0.24zm-3.74-23.6c-273.79 0-563.49 135-630.62 209-20.9 23.1-53.71 30.3-81.61 18-182.42-80.6-466.83-114-507.77-37.9-40.08 74.6 48.98 124.1 172.24 192.6 15.93 8.9 32.56 18.1 49.71 27.8 71.44 40.5 123.44 88.3 165.2 126.8 41.74 38.3 71.9 66.1 105 73.1 53.36 11.3 464.17-91.4 648.55-138.8l1085.4 599.1c182.4 100.7 329.1 261.3 413.1 452.3 196.5 446.6 557.7 1243.5 769.2 1563.2 56.3 85.1 298.3 85.5 499.2 49.8 110.2-19.5 473.7-99.6 523.5-309 92-386.5-582.9-1563.1-993.4-2230-100.8-163.8-267.3-275.6-456.9-306.8l-1753.2-288.9c-2.5-0.4-5.06-0.3-7.58-0.3"/><path d="m16907 6715s-366.3 1827.1-1411.3 2261.4c-1045 434.4-2674.3 193.5-3042.8-68.5-368.6-262-915.4-1490.5-915.4-1490.5l803.5-1068.4s-90.1-1523.1 30-2508.3c24.9-204.2 191.8-355.9 386-350.5 261.1 7.3 624.7 21.3 880.9 46.4 480.3 47.1 1487.7 23.8 2282.9 12.1 179.2-2.7 313.1 149.9 297.5 339.1l-231.4 2803.5 920.1 23.7" fill="#fff"/><path d="m12370 3817.1c-11.7 0-21.9 8.8-23.4 20.7-114.2 937.6-37.6 2378.4-30.5 2503.9l-798.4 1061.5c-5.1 6.8-6.1 15.9-2.6 23.7 22.4 50.5 553.6 1237.5 923.2 1500.2 356.2 253.3 1984.4 520.5 3065.5 71.1 547.1-227.4 905.7-835.7 1110.2-1305.9 220.6-507.5 314.3-968 315.2-972.6 1.4-6.8-0.3-13.9-4.7-19.4-4.3-5.4-10.8-8.7-17.8-8.8l-895.2-23.2 229.4-2778.6c1.1-13-8.6-24.4-21.6-25.4-12.7-1.2-24.4 8.6-25.5 21.5l-231.4 2803.5c-0.5 6.5 1.7 12.9 6 17.7 4.3 4.9 10.5 7.7 17 7.9l891.6 23c-51.4 229.5-439.4 1821.1-1391.3 2216.7-617.4 256.7-1370.5 251.3-1764.4 225.2-549.4-36.4-1065.8-156.1-1255.7-291.1-339.3-241.2-842.6-1337.7-901.7-1468.3l795.1-1057.2c3.3-4.5 5-10 4.7-15.6-0.9-15.2-88.7-1532.3 29.8-2504.1 1.6-12.9-7.6-24.7-20.6-26.2-0.9-0.2-1.9-0.2-2.9-0.2"/><path d="m12473 5189.8 1986 100.5-733.9 2195.8-1986.1-100.6 734-2195.7"/><path d="m16746 6710.7-1027.8 400.2s227.4-1702.6-1845.8-1016c0 0 63.9 223.5 40.4 479.6s-163.9 0-174.8-209.7c-11-209.6-492.7-149.1-783.7-81.5-291.1 67.7-665-5.2 17-339 682-333.9 819.1-162.6 819.1-162.6s907.2-1147.5 1948.8-841.3c1281.2 376.7 1006.8 1770.3 1006.8 1770.3" fill="#fff"/><path d="m13791 5805h0.6c7-0.2 13.7-3.2 18-8.7 9-11.3 909.4-1131.4 1923.6-833.2 522 153.5 847.4 492.5 967.2 1007.5 80.1 344.7 36.2 657.2 25.3 722.9l-979.5 381.4c11.7-146.2 24.1-658.8-334.9-956.3-319.3-264.5-839.3-280.1-1545.6-46.1-12.1 3.9-18.8 16.7-15.3 28.8 0.6 2.2 62.4 222.6 39.6 471-6.9 75.8-23 86-23.1 86.1-23.9-2.6-96.5-138.7-104.7-294.8-2.3-43.6-21.7-79.4-57.8-106.6-162.2-122-618.7-28.3-754.8 3.4-172.1 40-322.9 22.6-337.7-19.1-4.8-13.4-9.4-89.9 370.5-275.8 647.1-316.8 789.4-170.1 790.7-168.6 4.5 5 11.1 8.1 17.9 8.1zm1590.8-939.3c-330 0-676.7 121.8-1020.4 361.1-303.6 211.5-516.2 453.5-573.4 521.6-60.8-39.8-262.3-101.5-826.4 174.7-294 143.9-423 253.2-394.2 334.1 33.7 94.5 258.9 80.3 392.9 49.1 257.7-59.9 599.7-98.9 715.7-11.6 24.8 18.6 37.6 42 39.1 71.4 6.9 132.4 75.2 337.8 151.8 339.3 57.3 0.9 67.2-96.6 70.1-128.8 19.7-214.1-20-403.2-35.5-466.2 679.1-221.3 1176.9-206.3 1479.7 44.5 393 325.7 315.1 946.6 314.3 952.9-1.1 8.2 2.2 16.5 8.8 21.6 6.6 5.2 15.3 6.5 23.1 3.5l1027.8-400.2c7.5-2.9 13-9.5 14.6-17.4 2.8-14.5 68.5-357.9-23.1-753.8-85-366.9-327.4-845.9-1000.2-1043.7-118.4-34.8-240.4-52.1-364.7-52.1"/><path d="m13903 9767.8c90.8-75.4 265.4-164.3 394.9-90.4 96.4 55 145.1 187.4 134.3 335.6 45.9-1.4 105.8 4.8 146.8 45 63 61.9 45.2 169 39.1 239.6-28.3 326 158.1 385.7 100.8 605-45.1 172.4-186.6 269.3-213.1 287.4-133.6 91.5-219.2 55.5-438.4 101.4-368.8 77.3-388.3 234.3-628.2 222.8-13.9-0.6-340.1-20.8-439.5-252.8-80.9-188.7 35.6-407.1 150.3-519.2 148.6-145.1 245.9-64.8 393.8-185.3 259.5-211.6 89.3-565.1 359.2-789.1"/><path d="m13147 10314 13.7 13.2c68.9 65.9 140.3 142.1 154.7 236.6 61.3 401.7 416.8 564.4 451.9 200.2 8.8-91.9 343.7-70.2 308.8-168.9-91-257.4-96.7-189.7 54.3-275.2 16.6 0.2 33.2-2.6 49.1-9.1 76.8-31.3 108.5-132.2 70.8-225.4-22.9-56.6-66.1-96.9-113.7-113.2l20-398.3c7.5-149.3 104.2-279.2 244.7-328.8l136.8-48.2s-604.2-441-1260.8-23.6l82.7 42.4c145.7 74.6 236.1 226.2 233 390.3l-3.2 77.9c-42.4-5.9-83.9-5.1-122.6 4.1-179.9 42.8-249.1 245-231.8 501.5l-74.1 35.3c-34.6 16.5-42 62.7-14.3 89.2" fill="#fff"/><path d="m13326 9171.2c528.4-311.4 1019.8-64.7 1159.4 19.3l-91.3 32.1c-150.2 53-252.4 190.3-260.5 349.9l-20 398.3c-0.5 10.5 6 20.1 16 23.5 42.9 14.7 80.1 52 99.5 99.7 32.7 81 6.8 168.4-57.9 194.7-12.3 5.1-25.6 7.8-40 7.4-4.6 0.3-8.2 1.1-11.8 3.1-26.1 14.8-47.5 24.9-64.6 33-85.6 40.5-77.8 61.5-34.2 178.1 9.4 25 20.7 55.3 33.9 92.5 2.2 6.3 0.8 8.9 0 10.3-11.5 20.9-80.8 36.6-131.4 48.1-88.9 20.3-172.8 39.4-178.7 100.3-10.9 113.5-55.5 179.6-122.3 181.5-108.9 2.9-247.3-150.2-282.8-383-15.7-102.9-91.7-183-161.7-250.1l-13.7-13.1c-7.6-7.2-10.9-17.3-9.3-27.6 1.7-10.3 8-18.8 17.4-23.3l74.1-35.3c8.8-4.1 14.1-13.2 13.5-22.9-18.1-266.5 59.8-440.4 213.7-477 34.4-8.2 72.7-9.4 113.8-3.6 6.6 0.9 13.3-1 18.4-5.2 5.1-4.3 8.2-10.5 8.5-17.2l3.2-77.9c3.3-172.5-93.2-334.1-245.8-412.3zm547.6-200c-185.5 0-394.6 46.1-608.4 182-7.1 4.5-11.3 12.5-10.9 21 0.4 8.4 5.3 16 12.8 19.9l82.7 42.4c136.7 70 223.1 214.8 220.2 368.9l-2.1 52.1c-37.5-2.9-72.8-0.5-105.5 7.3-175.3 41.7-266.3 227.2-250.9 510.1l-59.8 28.4c-23.2 11.1-39.5 32.9-43.6 58.3-4.2 25.5 4.5 51.4 23.1 69.3l13.8 13.1c64.4 61.7 134.2 134.9 147.7 223.2 40.5 265.8 202.9 426.7 330.7 422.9 44.2-1.2 148.9-25.5 168-224 2.6-27.1 86.6-46.2 142.2-58.8 75.4-17.2 140.5-32 162.2-71.4 8.1-14.8 9.2-31.7 3.1-48.9-13.2-37.4-24.7-68.1-34.1-93.3-18.5-49.5-30.7-82.2-28.9-94.7 0.9-5.8 14.7-12.6 39.1-24.1 16.6-7.9 37.1-17.6 62.3-31.6 18.2-0.6 35.5-4.2 51.7-10.9 88.7-36.1 126.3-151 83.8-256.1-22.3-55-62.2-97.8-111.2-120l19.2-381.4c7-140.4 96.9-261.2 229-307.7l136.7-48.2c8.3-2.9 14.2-10.2 15.5-18.9 1.3-8.6-2.4-17.3-9.4-22.4-4.2-3.1-289.5-206.5-679-206.5"/><path d="m13590 9660.1c-11 0-20.8 7.7-23.1 18.9-2.6 12.7 5.6 25.2 18.3 27.8 230.5 47.6 327.8 234.5 328.8 236.4 5.9 11.6 20 16.2 31.7 10.3 11.6-5.9 16.3-20.1 10.4-31.7-4.4-8.5-108.8-209.1-361.3-261.2-1.6-0.3-3.2-0.5-4.8-0.5"/><path d="m3014.8 12296c-12.62 0-23.07 10-23.56 22.7-44.15 1133.1 163.53 2261.2 617.26 3353.1 445.01 1070.9 1104.1 2054.3 1958.9 2923 9.15 9.3 24.1 9.4 33.38 0.3 9.28-9.2 9.4-24.1 0.27-33.4-1715.2-1743-2649.2-4017.8-2562.6-6241.1 0.51-13.1-9.63-24-22.65-24.5-0.31 0-0.64-0.1-0.93-0.1"/><path d="m3687.1 10831c-10.52 0-20.1 7-22.85 17.7-286.26 1113.6-294.89 2256.2-25.63 3396.3 260.1 1101.2 763.66 2139.6 1496.7 3086.3 7.96 10.3 22.79 12.2 33.1 4.2 10.3-8 12.19-22.8 4.21-33.1-1488-1921.7-2021.1-4269.7-1462.7-6442 3.24-12.6-4.36-25.5-16.98-28.7-1.97-0.5-3.95-0.7-5.89-0.7"/><path d="m5456.1 17757 63.82-233.6 154.17 181.2c-45.5 12.3-129.17 33.9-217.99 52.4zm52.83-306.5c-1.71 0-3.42 0.2-5.13 0.6-8.54 1.9-15.32 8.4-17.64 16.8l-85.67 313.6c-2.15 7.9-0.08 16.3 5.47 22.3 5.54 5.9 13.77 8.6 21.79 7.1 147.5-28.7 293.35-70.3 294.81-70.7 7.71-2.2 13.77-8.2 16.08-15.8 2.33-7.7 0.59-16.1-4.6-22.2l-207.14-243.4c-4.54-5.3-11.14-8.3-17.97-8.3"/><path d="m21061 10284c-13 0-23.5 10.6-23.5 23.6v183.8c0 13 10.5 23.6 23.5 23.6 13.1 0 23.6-10.6 23.6-23.6v-183.8c0-13-10.5-23.6-23.6-23.6"/><path d="m21061 9855.8c-13 0-23.5 10.6-23.5 23.6v183.8c0 13 10.5 23.6 23.5 23.6 13.1 0 23.6-10.6 23.6-23.6v-183.8c0-13-10.5-23.6-23.6-23.6"/><path d="m20939 10162h-183.1c-13 0-23.6 10.6-23.6 23.6 0 13.1 10.6 23.6 23.6 23.6h183.1c13 0 23.6-10.5 23.6-23.6 0-13-10.6-23.6-23.6-23.6"/><path d="m21366 10162h-183.1c-13 0-23.6 10.6-23.6 23.6 0 13.1 10.6 23.6 23.6 23.6h183.1c13 0 23.6-10.5 23.6-23.6 0-13-10.6-23.6-23.6-23.6"/><path d="m11587 17172c1 0.4 1.9 0.8 2.9 1.1 22.8 7.2-452.4-143.7-452.4-143.7-210.4-66.8-660.7-357.6-608.9-522 51.7-164.3 586.7-142.2 797.1-75.4 0 0 436.8 133.3 448.3 136.9 103.5 32.9 144.9 194.4 92.4 360.8-51.9 164.7-176.5 272.2-279.4 242.3" fill="#fff"/><path d="m11504 16814c52.4-166.3 176.2-275.3 276.5-243.4 100.2 31.9 139 192.5 86.5 358.9-52.5 166.3-176.3 275.3-276.5 243.4-100.3-31.9-139-192.6-86.5-358.9"/><path d="m10558 16577c-9.7-24-11.9-45.1-6.3-62.6 6.8-21.6 25.9-40.6 56.9-56.7 156.1-81.1 538.7-57.9 710.6-3.3l342.9 108.9c-42.5 22-83.3 60.3-117.8 111.5l-342.8-108.9c-137.1-43.5-411.9-50.5-643.5 11.1zm372.7-219.3c-134.3 0-264.2 16.7-343.9 58.1-42.5 22.1-69.5 50.5-80.1 84.4-10.8 34-4.9 72.9 17.4 115.8 5.2 9.9 16.7 14.8 27.4 11.7 227-64.8 501.4-59.4 635.7-16.8l360.1 114.4c10.3 3.2 21.5-0.9 27.2-10.2 48.5-78.8 114-127 171.5-126.2 11.7 0.4 21.8-8.3 23.7-19.8 1.9-11.6-5-22.8-16.1-26.3l-420.1-133.4c-96.9-30.8-252.6-51.7-402.8-51.7"/><path d="m11595 17150h0.2zm-2.9-0.8c-53.7-17-447.2-142-447.2-142-212.6-67.5-638.5-349.7-593.5-492.4 6.8-21.6 25.9-40.6 56.9-56.7 156.1-81.1 538.7-57.9 710.6-3.3 4.6 1.4 437 133.4 448.2 136.9 89.5 28.5 124.7 180.1 77.1 331.2-47.7 151.3-160 253-250.3 226.8-0.6-0.2-1.2-0.4-1.8-0.5zm-661.7-791.1c-134.3 0-264.2 16.7-343.9 58.1-42.5 22.1-69.5 50.5-80.1 84.4-58.5 185.6 407.9 482.9 624.3 551.6l433.7 137.7c4.9 1.6 9.6 3.1 14 4.3 0.4 0.1 0.8 0.3 1.2 0.4 0.2 0.1 0.4 0 0.6 0l-0.1 0.2c0.4 0.2 2.5 0.9 2.9 1.1l0.1-0.2c116.2 31.7 250.2-81.3 306.1-258.7 57.2-181.4 9.9-352.8-107.8-390.3-11.4-3.6-430.6-131.5-448.5-137-96.7-30.7-252.3-51.6-402.5-51.6"/><path d="m11374 16298-1889.3 2267-250.37-95s639-1790.4 692.71-2032.2c53.71-241.7 42.51-670.9 42.51-670.9l1404.5 531.1" fill="#fff"/><path d="m9376.1 18499c266.69-488.5 859.11-1582.7 920.51-1773.7 64.7-201.2 94.8-534.1 102.9-638.2l853.7 319.4-1775.9 2130.9zm1002.2-2468.6c-4.5 0-8.9 1.3-12.8 3.8-6.3 4-10.2 10.8-10.7 18.2-0.3 4.3-29.1 428.3-103.1 658.5-62.9 195.6-727.74 1419-930 1789.3-3.28 6-3.79 13.1-1.43 19.5s7.39 11.4 13.77 13.9l142.26 53.9c9.37 3.6 20.04 0.8 26.49-6.9l1808-2169.4c4.9-5.9 6.6-13.8 4.7-21.2-2-7.3-7.4-13.3-14.6-16l-914.3-342.1c-2.7-1-5.5-1.5-8.3-1.5"/><path d="m9264.3 18457c76.38-214.4 634.92-1784.4 685.75-2013.2 45.38-204.3 45.15-533.7 43.71-641.7l1341 507-1857.4 2228.6zm705.23-2712.9c-4.83 0-9.62 1.5-13.67 4.4-6.4 4.5-10.13 11.9-9.92 19.8 0.11 4.3 10.5 429.1-41.95 665.2-52.79 237.6-685.53 2011.5-691.91 2029.4-4.32 12.1 1.85 25.4 13.86 30l250.37 94.9c9.37 3.6 20.04 0.8 26.49-6.9l1889.3-2267c4.9-5.9 6.7-13.7 4.7-21.1-1.9-7.4-7.3-13.4-14.5-16.1l-1404.4-531.1c-2.7-1-5.53-1.5-8.34-1.5"/><path d="m6278.8 14681 56.29-178.7 1888.1 143.5c526.17 39.9 1049.7 135.7 1556 284.6 1342.7 395 3673 1084.8 4194.5 1267.6 792.5 277.7 759.8 508.9 749.1 584.9-12.5 87.9-229.9 178.7-364 215.3-2.1 0.6-4.1 1.4-6 2.6-422.6 255-931.7 75.4-936.8 73.5l-5902.4-1696.9c-3.93-1.2-8.08-1.3-12.07-0.3l-2142.1 517.7-445.69-141.6 1639.2-891.6c7.69-4.2 12.44-12.3 12.31-21-0.13-8.8-5.09-16.8-12.91-20.7zm39.4-227.2c-10.22 0-19.38 6.6-22.49 16.5l-67.94 215.6c-3.46 11 1.54 22.9 11.83 28.1l251.34 127.6-1648.4 896.6c-8.31 4.6-13.12 13.6-12.22 23s7.34 17.4 16.36 20.3l504.73 160.3c4.1 1.3 8.48 1.4 12.68 0.4l2142.5-517.8 5894.8 1694.8c20 7.3 531.3 188.1 973-76.4 51-14.1 374.6-109.5 395.1-253.3 21-148.3-37.1-375.7-780.2-636-522.5-183.2-2853.7-873.3-4196.7-1268.3-509.5-149.9-1036.3-246.3-1565.8-286.5l-1906.8-144.8c-0.6-0.1-1.2-0.1-1.8-0.1" fill="#fff"/><path d="m6569.3 14885-257.37 1130.3 227.78 79.4 715.63-952.8-686.04-256.9" fill="#fff"/><path d="m6339.6 16000 246.69-1083.4 631.22 236.4-686.35 913.7zm229.67-1138.6c-3.86 0-7.72 1-11.19 2.9-6 3.2-10.31 8.9-11.82 15.5l-257.36 1130.3c-2.67 11.7 3.89 23.6 15.25 27.5l227.77 79.3c9.66 3.4 20.45 0.1 26.61-8.1l715.64-952.7c4.47-5.9 5.88-13.6 3.79-20.8-2.09-7.1-7.41-12.8-14.38-15.5l-686.03-256.9c-2.68-1-5.48-1.5-8.28-1.5"/><path d="m11462 15028c1 0.3 1.9 0.7 2.9 1 22.8 7.3-452.4-143.7-452.4-143.7-210.4-66.8-660.7-357.6-608.9-522 51.7-164.2 586.8-142.2 797.2-75.4 0 0 436.7 133.3 448.2 136.9 103.5 33 144.9 194.5 92.4 360.8-51.9 164.7-176.4 272.3-279.4 242.4" fill="#fff"/><path d="m11378 14670c52.4-166.3 176.2-275.2 276.5-243.4 100.2 31.9 139 192.6 86.5 358.9-52.4 166.3-176.2 275.3-276.5 243.4-100.2-31.9-139-192.5-86.5-358.9"/><path d="m10432 14433c-9.7-24-11.9-45-6.3-62.6 6.8-21.6 25.9-40.6 56.9-56.7 156.1-81.1 538.7-57.9 710.6-3.3l342.9 108.9c-42.5 22.1-83.3 60.3-117.7 111.5l-342.9-108.9c-137.1-43.5-411.9-50.4-643.5 11.1zm372.7-219.3c-134.3 0-264.2 16.7-343.9 58.1-42.5 22.1-69.4 50.5-80.1 84.4-10.7 34-4.9 73 17.5 115.8 5.1 9.9 16.6 14.8 27.4 11.8 226.9-64.9 501.3-59.5 635.6-16.9l360.1 114.4c10.3 3.2 21.5-0.9 27.2-10.2 48.6-78.8 113.7-127 171.5-126.2 12 0.5 21.8-8.2 23.7-19.8s-5-22.7-16.1-26.3l-420.1-133.4c-96.9-30.8-252.6-51.7-402.8-51.7"/><path d="m11469 15006h0.3zm-2.9-0.9c-53.7-17-447.1-142-447.1-142-212.7-67.5-638.6-349.7-593.6-492.4 6.8-21.6 25.9-40.6 56.9-56.7 156.1-81.1 538.7-57.9 710.6-3.3 4.6 1.4 437 133.4 448.2 136.9 89.5 28.5 124.8 180.1 77.1 331.2-47.7 151.3-160 253-250.3 226.8-0.6-0.2-1.2-0.3-1.8-0.5zm-661.6-791.1c-134.3 0-264.3 16.7-344 58.1-42.5 22.1-69.4 50.5-80.1 84.4-58.5 185.6 407.9 482.9 624.3 551.6l433.7 137.8c4.9 1.5 9.6 3 14 4.2 0.4 0.1 0.8 0.3 1.2 0.5 0.2 0 0.4-0.1 0.6 0v0.2c0.4 0.1 2.4 0.9 2.9 1v-0.2c116.2 31.7 250.2-81.3 306.1-258.6 57.3-181.5 9.9-352.9-107.8-390.3-11.4-3.7-430.6-131.6-448.5-137.1-96.7-30.7-252.3-51.6-402.4-51.6"/><path d="m7507 15400 5900.8 1696.5s474.8 172.5 899.1-43.3c40.6-20.7 399.5-129.1 439.1-267 38.1-132.2-41.1-357-764.6-610.5-529-185.4-2938.8-898.2-4195.6-1267.9-508.94-149.7-1032-245.4-1560.9-285.6l-1906.8-144.8-67.93 215.6 291.36 147.9-1687.8 918.1 504.74 160.3 2148.5-519.3" fill="#fff"/><path d="m4914.1 15753 1634.4-878.3 874.28 237.1-2279.9 713.9zm1631.5-927.1c-3.87 0-7.7 0.9-11.16 2.8l-1691.8 909.2c-8.35 4.5-13.2 13.5-12.33 23 0.88 9.4 7.32 17.4 16.36 20.3l289.01 91.7c4.63 1.5 9.59 1.5 14.19 0.1l2364.2-740.3c10-3.2 16.74-12.5 16.54-23-0.21-10.5-7.3-19.6-17.42-22.3l-961.34-260.7c-2.03-0.5-4.1-0.8-6.18-0.8"/><path d="m6299.3 14616 35.71-113.4 1888.1 143.5c526.2 39.9 1049.7 135.7 1556 284.6 1342.6 395 3672.8 1084.8 4194.5 1267.6 724.9 254 780.9 473.5 749.8 581.7-18.3 63.5-122.5 124.1-221.8 169.4 23.9-24 44.3-50.5 56.3-78.7v-0.1c6.4-15 11-39.5-2.9-71-34.3-77.5-164.5-157.6-376.6-231.8-1820-636.9-3553.6-1140.3-5152.9-1496.2-1489.8-331.6-2384.7-428.4-2726.2-455.6zm18.82-161.9c-10.22 0-19.38 6.6-22.49 16.5l-50.26 159.5c-2.16 6.9-1.07 14.4 2.96 20.3 4.05 6 10.59 9.8 17.77 10.3 302.41 22.8 3093.2 270.7 7896.7 1951.7 275.2 96.2 335.8 176.3 349 206.3 5.7 12.9 6.6 24.2 2.6 33.6-38.3 90.4-192.5 167.7-214.8 178.5-1.2 0.6-2.4 1.1-3.4 1.6-11.5 5.9-16.1 19.8-10.5 31.4 5.6 11.5 19.4 16.5 31.1 11.1 0.5-0.3 1.7-0.8 3.5-1.7 7.6-3.3 23.5-9.3 41.5-16.1 120.4-45 370.9-138.7 406.9-264.1 43.7-151.7-56.1-385.8-779.5-639.2-522.6-183.2-2853.7-873.3-4196.7-1268.3-509.46-149.9-1036.2-246.3-1565.8-286.5l-1906.8-144.8c-0.6-0.1-1.2-0.1-1.8-0.1"/><path d="m14031 17144c-69.7 12.4-137.8 17.4-201.8 17.6 101.5-60.1 191-144.1 188.4-198.1-3.3-68-136.3-173.3-206.9-224.6-23.9-17.4-30.3-50.3-14.6-75.5l32.8-52.4c17-27.2 53.2-34.8 79.3-16.4 179 125.5 312.8 260.1 299.1 348.6-13.4 85.8-98.7 154.8-176.3 200.8"/><path d="m6278.8 14681 56.29-178.7 1888.1 143.5c526.17 39.9 1049.7 135.7 1556 284.6 1342.7 395 3673 1084.8 4194.5 1267.6 724.9 254 780.9 473.5 749.8 581.7-29.5 102.5-282.7 197.3-378.1 233-24.6 9.2-40.9 15.3-49.1 19.4-410.4 208.7-875.7 43.9-880.3 42.2l-5902.4-1696.9c-3.93-1.2-8.08-1.3-12.07-0.3l-2142.1 517.7-445.69-141.6 1639.2-891.6c7.69-4.2 12.44-12.3 12.31-21-0.13-8.8-5.09-16.8-12.91-20.7zm39.4-227.2c-10.22 0-19.38 6.6-22.49 16.5l-67.94 215.6c-3.46 11 1.54 22.9 11.83 28.1l251.34 127.6-1648.4 896.6c-8.31 4.6-13.12 13.6-12.22 23s7.34 17.4 16.36 20.3l504.73 160.3c4.1 1.3 8.48 1.4 12.68 0.4l2142.5-517.8 5894.8 1694.8c18.3 6.7 487.8 172.9 916.3-45 5.9-3 23.7-9.6 44.2-17.4 120.4-45 370.9-138.7 406.9-264.1 43.7-151.7-56.1-385.8-779.5-639.2-522.5-183.2-2853.7-873.3-4196.7-1268.3-509.5-149.9-1036.3-246.3-1565.8-286.5l-1906.8-144.8c-0.6-0.1-1.2-0.1-1.8-0.1"/><path d="m5688.8 13453 273.02 68.4 1049.7 1102-717.87-68.2-604.84-1102.2" fill="#fff"/><path d="m6308.3 14533-572.82-1043.9 213.96 53.6 1001.4 1051.3zm-619.51-1103.5c-7.21 0-14.15 3.3-18.68 9.2-5.73 7.4-6.52 17.5-2 25.7l604.83 1102.2c3.76 6.9 10.67 11.4 18.45 12.1l717.88 68.3c9.66 0.9 19.16-4.3 23.46-13.2 4.31-8.9 2.65-19.5-4.14-26.6l-1049.7-1102c-3.09-3.2-7.02-5.5-11.35-6.6l-273.02-68.4c-1.9-0.5-3.84-0.7-5.74-0.7"/><path d="m11428 15573-3065.2-3645.7-454.77-69s1351.9 2052.4 1523 2341.5c171.11 289 361.75 925.5 361.75 925.5l1635.2 447.7" fill="#fff"/><path d="m10368 15256c-64.8-199.9-221.8-660.7-365.3-901.4-82.9-139-462.78-656.4-864.99-1204.2-351.18-478.3-713.56-971.8-879.18-1215.6l92.46 14 3010.6 3580.9zm-2159-3376.1c-7.98 0-15.51 4-19.89 10.9-5.02 7.8-4.94 17.9 0.21 25.7 148.77 224.7 535.91 751.9 910.3 1261.8 401.51 546.9 780.76 1063.4 862.52 1200.5l20.27-12.1-20.27 12.1c144.01 241.5 303.11 712.5 364.81 903.8 2.4 7.6 8.5 13.4 16.2 15.5l1079 297.2c10 2.7 20.6-1.3 26.2-10 5.5-8.7 4.8-20-1.8-27.9l-3065.2-3645.7c-3.7-4.4-8.86-7.3-14.53-8.2l-154.29-23.4c-1.18-0.2-2.37-0.2-3.53-0.2"/><path d="m9811.9 15106c-28.37-93.2-200.86-649-360.27-918.3-155.42-262.6-1296.5-1997.4-1494.5-2298.2l393.58 59.7 3010.7 3581zm-1903.6-3271.3c-7.96 0-15.5 4-19.88 10.9-5.02 7.8-4.95 17.9 0.18 25.7 13.51 20.5 1353.5 2055.2 1522.4 2340.5 167.7 283.3 357.55 914 359.45 920.3 2.34 7.8 8.52 13.9 16.37 16l1635.2 447.6c9.9 2.7 20.5-1.3 26.1-10 5.5-8.7 4.8-20-1.8-27.9l-3065.2-3645.7c-3.7-4.4-8.86-7.3-14.53-8.2l-454.77-69c-1.18-0.1-2.37-0.2-3.53-0.2"/><path d="m17372 6868 2101.2-368.8 2084.5 366.7c2.9 0.5 2.9 4.7 0 5.3l-2108.3 370.6-2077.4-373.8" fill="#fff"/><path d="m17507 6868.3 1966.4-345.1 1963.3 345.3-1987.1 349.3zm1966.4-392.7c-1.3 0-2.7 0.2-4.1 0.4l-2101.2 368.8c-11.3 2-19.5 11.8-19.5 23.2-0.1 11.4 8.1 21.2 19.4 23.3l2077.4 373.7c2.7 0.5 5.6 0.5 8.3 0l2108.3-370.6c12.6-2.2 21.7-13.1 21.7-25.9s-9.2-23.7-21.7-25.9l-2084.5-366.6c-1.3-0.2-2.7-0.4-4.1-0.4"/><path d="m19473 3373.6v3128.7l-2109.5 367.1v-3120.2l2109.5-375.6" fill="#fff"/><path d="m18212 6402.3 412.2-73.4v299.7l-412.2 71.7zm435.8-125.2c-1.4 0-2.8 0.2-4.2 0.4l-459.4 81.8c-11.2 2-19.4 11.8-19.4 23.2v345.9c0 6.9 3.1 13.6 8.4 18 5.3 4.5 12.3 6.4 19.3 5.2l459.3-79.9c11.3-2 19.6-11.8 19.6-23.3v-347.7c0-7-3.1-13.6-8.5-18.1-4.3-3.5-9.6-5.5-15.1-5.5"/><path d="m17387 3769 2062.3-367.2v3080.7l-2062.3 358.8zm2085.9-419c-1.4 0-2.7 0.1-4.1 0.4l-2109.5 375.6c-11.3 2-19.5 11.8-19.5 23.2v3120.1c0 7 3.1 13.6 8.4 18.1s12.3 6.4 19.3 5.2l2109.5-367c11.3-2 19.5-11.8 19.5-23.3v-3128.7c0-7-3.1-13.6-8.4-18.1-4.3-3.6-9.7-5.5-15.2-5.5"/><path d="m17753 4822.7 1316.4-236.7v1447.7l-1316.4 231.3zm1340-288.5c-1.4 0-2.8 0.1-4.2 0.4l-1363.5 245.2c-11.3 2-19.5 11.8-19.5 23.2v1490.1c0 7 3.1 13.6 8.5 18.1 5.3 4.5 12.4 6.4 19.2 5.2l1363.5-239.6c11.3-2 19.6-11.8 19.6-23.3v-1495.7c0-7-3.1-13.6-8.5-18.1-4.3-3.6-9.7-5.5-15.1-5.5"/><path d="m18259 4861.9c-0.6 0-1.1 0-1.7 0.1-46.7 1.1-90.5 21-123.5 56.2-33.8 36-52.4 83.8-52.4 134.6l0.1 31.7c0 25.6 20.1 46.4 44.7 46.4 12.1 0 23.5-4.9 31.9-13.9 8.3-8.8 12.8-20.4 12.8-32.6l-0.1-33.2c0-25.9 9.5-50.2 26.6-68.4 16.9-18 39.2-27.9 63-27.9h0.5c23.4 0.3 45.4 10.1 62 27.9 17.2 18.2 26.6 42.5 26.6 68.4l0.3 931.5c0 13.4 5.5 26.1 15.2 34.9 9.3 8.5 21.6 12.6 33.9 11.3 22.6-2.3 40.2-23.1 40.2-47.4v-928.9c0-50.7-18.6-98.5-52.4-134.5-33.2-35.3-77.2-55.2-124.1-56.1-0.3-0.1-0.6-0.1-0.9-0.1h-1.1-1.6"/><path d="m17977 5508.1c-27.9 4.8-45.8 32.8-38.6 60.5 63.4 243.6 276.9 319.1 504.6 279.5 219.1-38.1 384.8-209.5 440-425.7 8.8-34.4-19.9-66.8-54.6-60.8l-851.4 146.5"/><path d="m19473 3373.6v3128.7l2091.3 367.5v-3122.4l-2091.3-373.8" fill="#fff"/><path d="m19496 6482.5v-3080.7l2044.1 365.4v3074.5zm-23.6-3132.5c-5.5 0-10.8 1.9-15.1 5.5-5.4 4.5-8.5 11.1-8.5 18.1v3128.7c0 11.5 8.3 21.3 19.6 23.2l2091.2 367.6c6.8 1.2 13.9-0.7 19.2-5.2 5.4-4.5 8.4-11.1 8.4-18.1v-3122.4c0-11.4-8.2-21.2-19.4-23.2l-2091.2-373.8c-1.4-0.3-2.8-0.4-4.2-0.4"/><path d="m21061 5180.2v-230l-1031.9-176.5v225l1031.9 181.5"/><path d="m20079 5684.1 213 307.4 211.8-232.4-108.8-19.1v-545.2l-206-35.2v544.2l-110-19.7"/><path d="m20587 5769.9 213 307.4 211.8-232.3-108.8-19.2v-545.2l-206-35.2v544.2l-110-19.7"/><path d="m19887 6033.7v-1447.7l1316.3 236.7v1442.3zm-23.6-1499.5c-5.5 0-10.9 1.9-15.1 5.5-5.4 4.5-8.5 11.1-8.5 18.1v1495.7c0 11.5 8.2 21.3 19.5 23.3l1363.5 239.6c6.9 1.2 14-0.7 19.3-5.2s8.4-11.1 8.4-18.1v-1490.1c0-11.4-8.2-21.2-19.4-23.2l-1363.5-245.2c-1.4-0.3-2.8-0.4-4.2-0.4"/><path d="m18423 8807.8 1267.8-222.5 1253.6 220.5c2.5 0.4 2.5 4.2 0 4.6l-1268 222.9-1253.4-225.5" fill="#fff"/><path d="m18558 8808.1 1132.9-198.8 1130.4 198.8-1144.8 201.2zm1132.9-246.4c-1.4 0-2.7 0.1-4.1 0.4l-1267.8 222.5c-11.2 2-19.5 11.7-19.5 23.2 0 11.4 8.2 21.2 19.4 23.2l1253.4 225.5c2.7 0.5 5.5 0.5 8.3 0l1268-222.9c12.4-2.2 21.4-12.9 21.4-25.5s-9-23.3-21.4-25.5l-1253.7-220.5c-1.3-0.3-2.7-0.4-4-0.4"/><path d="m19691 6699.5v1887.7l-1272.7 221.4v-1882.5l1272.7-226.6" fill="#fff"/><path d="m18897 8502 274.4-48.9v195.5l-274.4 47.7zm298-100.7c-1.3 0-2.7 0.1-4.1 0.4l-321.7 57.3c-11.2 2-19.4 11.8-19.4 23.2v242.2c0 6.9 3.1 13.5 8.4 18s12.3 6.4 19.2 5.2l321.7-56c11.3-1.9 19.5-11.7 19.5-23.2v-243.5c0-7-3.1-13.6-8.4-18.1-4.3-3.6-9.7-5.5-15.2-5.5"/><path d="m18442 6945.9 1225.5-218.2v1839.6l-1225.5 213.3zm1249.1-270c-1.4 0-2.8 0.1-4.1 0.4l-1272.8 226.6c-11.2 2-19.4 11.8-19.4 23.2v1882.5c0 7 3.1 13.6 8.4 18.1 5.3 4.4 12.3 6.3 19.2 5.2l1272.8-221.5c11.3-2 19.5-11.8 19.5-23.2v-1887.7c0-7-3.1-13.6-8.4-18.1-4.3-3.6-9.7-5.5-15.2-5.5"/><path d="m19691 6699.5v1887.7l1261.7 221.7v-1883.9l-1261.7-225.5" fill="#fff"/><path d="m19714 8567.3v-1839.6l1214.5 217.1v1836zm-23.6-1891.4c-5.5 0-10.9 1.9-15.1 5.5-5.4 4.5-8.5 11.1-8.5 18.1v1887.7c0 11.4 8.3 21.2 19.5 23.2l1261.8 221.7c6.8 1.2 13.9-0.7 19.2-5.1 5.3-4.5 8.4-11.1 8.4-18.1v-1883.9c0-11.4-8.2-21.2-19.4-23.2l-1261.7-225.5c-1.4-0.3-2.8-0.4-4.2-0.4"/><path d="m18692 13530c107.5-422.2-137.3-857.7-546.7-972.8-409.5-115.1-828.5 133.8-936 556-107.5 422.1 137.3 857.7 546.7 972.8s828.5-133.8 936-556" fill="#fff"/><path d="m17942 12505c-132.8 0-263.8 34.9-382.2 103.2-186.6 107.8-319.3 284.9-373.8 498.8-23.8 93.5-31.3 189.5-22.4 285.2 1.2 12.9 12.9 22.5 25.7 21.3 13-1.2 22.5-12.8 21.3-25.7-8.5-90.4-1.3-180.9 21.1-269.2 51.3-201.4 176.2-368.2 351.7-469.5 169.5-97.9 366.5-122.5 555.1-69.6 396.5 111.5 634.4 535.1 530.2 944.3-51.3 201.4-176.2 368.2-351.7 469.5-169.4 97.8-366.5 122.6-555 69.6-179.1-50.4-333.3-167-434.2-328.4-7-11.1-21.5-14.4-32.6-7.5-11 6.9-14.4 21.4-7.4 32.5 107.1 171.4 271 295.3 461.4 348.8 200.9 56.4 410.9 30.1 591.4-74.1 186.6-107.8 319.4-284.9 373.8-498.8 110.5-433.8-142.2-882.9-563.2-1001.3-69.2-19.4-139.4-29.1-209.2-29.1"/><path d="m18021 12856-27 106c-73.4-17-148.9-16.7-196.2-3.7l-0.8 139.7c52-12.9 121.8-18.4 192.2 1.4 61.7 17.4 97.7 53.8 86.3 98.4-10.8 42.5-52.2 59.5-139.5 64.9-126 7.6-219.3 41.2-246.9 149.5-25 98.2 22.5 194.1 132.4 250.1l-27 106.1 106.1 29.8 25-98.2c73.4 17 126.1 15.1 166.4 7.3l0.7-135c-31.3 4.4-87.6 16-165.6-5.9-70.3-19.8-85.1-57.4-77.1-88.7 9.3-36.8 53.2-49.6 154.3-59.4 140.8-10.7 208.4-57.5 234-158 25.3-99.3-21.3-203.3-140.2-260.6l29-113.9-106.1-29.8"/><path d="m20920 15019c144-520.7-148.5-1067.1-653.4-1220.3-504.8-153.2-1030.8 144.8-1174.8 665.6s148.6 1067.1 653.4 1220.3 1030.8-144.8 1174.8-665.6" fill="#fff"/><path d="m19997 13735c-157.2 0-312.6 39.7-454.5 117.7-232.7 128.2-400.9 343.2-473.4 605.5-31.8 114.8-43.5 233-34.8 351.2 0.9 13 12 22.8 25.2 21.8 13-0.9 22.8-12.2 21.8-25.2-8.2-112.9 3-225.6 33.3-335.2 69.1-250 229.2-454.8 450.7-576.7 213.9-117.8 460.5-143.6 694.5-72.6 491.9 149.3 777.8 683.7 637.4 1191.5-69.1 249.9-229.1 454.7-450.7 576.7-213.9 117.8-460.5 143.5-694.5 72.5-222.2-67.4-411.6-216.8-533.3-420.8-6.7-11.2-21.2-14.8-32.4-8.2-11.2 6.7-14.8 21.2-8.2 32.4 127.8 214.1 326.8 371 560.2 441.8 246.2 74.7 505.8 47.6 731-76.4 232.7-128.1 400.9-343.1 473.4-605.5 147.2-532.1-153-1092.5-669.2-1249.2-91.1-27.6-184.1-41.3-276.5-41.3"/><path d="m20106 14166-36.2 130.8c-90.5-23-184.2-24.6-243.3-9.7l-4.5 173.3c64.9-14.7 151.6-19.7 238.4 6.7 76.1 23 119.8 69.1 104.5 124.2-14.4 52.3-66.3 72.4-174.6 76.9-156.5 6.2-273 45.5-310 179.1-33.5 121.2 23 241.3 157.9 313.6l-36.2 130.8 130.8 39.7 33.5-121.2c90.6 23 156 22 206.2 13.3l4.3-167.4c-38.9 4.6-109.1 17.7-205.2-11.5-86.8-26.3-104.2-73.4-93.5-111.9 12.6-45.5 67.3-60.2 192.9-69.9 174.9-9.6 259.9-65.9 294.2-189.8 33.9-122.6-21.3-252.7-167.2-326.9l38.8-140.4-130.8-39.7"/><path d="m20266 11132c-251.4-355.3-740.6-449.3-1092.7-210-352.1 239.2-433.8 721.1-182.5 1076.3 251.4 355.2 740.6 449.3 1092.8 210 352.1-239.2 433.8-721.1 182.4-1076.3" fill="#fff"/><path d="m19606 10767c-155 0-310.4 44-445.9 136.1-172.9 117.5-288.7 295.6-326 501.6-38.4 212.3 10.4 428.2 137.6 607.9 55.7 78.7 123.7 146.5 202.3 201.5 10.7 7.5 25.3 4.9 32.9-5.8 7.4-10.6 4.9-25.4-5.8-32.8-74.1-52-138.4-115.9-190.9-190.2-119.8-169.2-165.8-372.5-129.7-572.2 35-193.4 143.8-360.7 306.2-471 341-231.7 816.6-140.2 1060.1 204.1 119.8 169.2 165.9 372.4 129.7 572.2-35 193.4-143.7 360.7-306.1 471-154 104.6-342.3 147.4-530.2 120.4-13.2-1.9-24.9 7.1-26.7 20-1.9 12.9 7.1 24.8 20 26.7 199.5 28.7 399.7-16.8 563.4-128.1 173-117.5 288.7-295.6 326.1-501.6 38.4-212.3-10.5-428.2-137.6-607.9-161.8-228.5-420-351.9-679.4-351.9"/><path d="m19321 11210 63.1 89.2c-60.4 45.2-108.9 103.2-129.7 147.9l105.7 91c23.8-48.2 64.8-105.3 125.3-146.4 53.1-36.1 104-40.1 130.6-2.5 25.3 35.7 11.4 78.5-40.9 148.8-75.7 101.5-110.4 194.6-45.9 285.7 58.5 82.7 162.1 108.3 275.7 60.3l63.1 89.3 91.2-62-58.5-82.7c60.4-45.2 93-86.8 113.1-122.7l-102.1-87.8c-16.9 26.8-44.4 77.5-111.5 123-60.5 41.1-98.6 28.1-117.3 1.8-21.9-31-3.3-72.8 54.6-156.7 82.9-114.7 91-196.7 31.2-281.3-59.1-83.6-168.3-115.1-288.7-61.1l-67.8-95.8-91.2 62"/></g></g></svg>
