<?xml version="1.0" encoding="UTF-8"?>
<svg version="1.1" viewBox="0 0 3333.3 3333.3" xml:space="preserve" xmlns="http://www.w3.org/2000/svg"><g transform="matrix(1.3333 0 0 -1.3333 0 3333.3)"><g transform="scale(.1)"><path d="M 25000,0 H 0 V 25000 H 25000 V 0" fill="#fff"/><path d="m19154 15744h-4206.5c-146.1 0-265.6 119.6-265.6 265.7s119.5 265.7 265.6 265.7h4206.5c146.1 0 265.7-119.6 265.7-265.7s-119.6-265.7-265.7-265.7" fill="#fff"/><path d="m14948 16253c-134.3 0-243.5-109.2-243.5-243.5s109.2-243.5 243.5-243.5h4206.5c134.3 0 243.5 109.2 243.5 243.5s-109.2 243.5-243.5 243.5zm4206.5-531.3h-4206.5c-158.7 0-287.8 129.1-287.8 287.8s129.1 287.8 287.8 287.8h4206.5c158.7 0 287.8-129.1 287.8-287.8s-129.1-287.8-287.8-287.8"/><path d="m18800 14858h-4427.9c-146.1 0-265.7 119.5-265.7 265.6s119.6 265.7 265.7 265.7h4427.9c146.1 0 265.7-119.6 265.7-265.7s-119.6-265.6-265.7-265.6" fill="#fff"/><path d="m14372 15368c-134.3 0-243.5-109.3-243.5-243.6s109.2-243.5 243.5-243.5h4427.9c134.3 0 243.5 109.2 243.5 243.5s-109.2 243.6-243.5 243.6zm4427.9-531.4h-4427.9c-158.7 0-287.8 129.1-287.8 287.8s129.1 287.8 287.8 287.8h4427.9c158.7 0 287.8-129.1 287.8-287.8s-129.1-287.8-287.8-287.8"/><path d="m6018.3 5287h7631.7c328.9 0 561.9 265.8 520.4 593.6l-1879.2 14846c-41.5 327.8-341.7 593.5-670.6 593.5l-7248.7 84.7c-832.05 0-944.93-350.4-903.44-678.2l1879.2-14846c41.49-327.8 341.74-593.6 670.61-593.6"/><path d="m6477.5 5287h7631.8c328.8 0 561.8 266.6 520.3 595.5l-1879.2 14893c-41.5 328.9-341.7 595.5-670.6 595.5h-7631.7c-328.87 0-561.83-266.6-520.34-595.5l1879.2-14893c41.5-328.9 341.74-595.5 670.61-595.5" fill="#fff"/><path d="m4448.1 21348c-151.73 0-287.04-58.6-381-165.2-95.06-107.9-136.75-251.8-117.37-405.3l1879.2-14893c40.1-317.7 331.07-576.1 648.65-576.1h7631.8c151.7 0 287 58.6 381 165.2 95 107.8 136.7 251.8 117.3 405.3l-1879.1 14893c-40.1 317.7-331.1 576.1-648.7 576.1zm9661.2-16084h-7631.8c-339.09 0-649.8 275.8-692.58 614.8l-1879.2 14893c-20.99 166.4 24.5 322.7 128.1 440.2 102.48 116.2 249.59 180.2 414.21 180.2h7631.7c339.1 0 649.8-275.8 692.6-614.8l1879.2-14893c21-166.4-24.5-322.7-128.1-440.2-102.5-116.2-249.6-180.2-414.2-180.2"/><path d="m7251.1 5264.9h-773.63c-339.09 0-649.8 275.8-692.58 614.8l-287.56 2278.9c-1.53 12.2 7.07 23.2 19.2 24.8 12.2 1.6 23.22-7.1 24.74-19.2l287.55-2278.9c40.1-317.7 331.07-576.1 648.65-576.1h773.63c12.24 0 22.14-10 22.14-22.2s-9.9-22.1-22.14-22.1"/><path d="m4572.8 20197c-30.08 0-56.76-11.5-75.18-32.4-18.67-21.1-26.83-49.6-22.98-80.1l1794.3-14220c8.21-65.1 67.82-118 132.85-118h7672.8c30 0 56.8 11.4 75.2 32.3 18.6 21.2 26.8 49.7 22.9 80.2l-1794.3 14220c-8.2 65.2-67.8 118.1-132.8 118.1zm9501.8-14495h-7672.8c-86.57 0-165.87 70.3-176.79 156.8l-1794.3 14220c-5.47 43.3 6.51 84.2 33.7 115 26.94 30.6 65.43 47.4 108.39 47.4h7672.8c86.6 0 165.8-70.3 176.8-156.8l1794.3-14220v-0.1c5.4-43.3-6.5-84.1-33.7-115-27-30.5-65.5-47.3-108.4-47.3"/><path d="m8359.5 20613c123.2 0 210.48 99.9 194.93 223.1s-128.02 223.1-251.22 223.1c-123.21 0-210.48-99.9-194.93-223.1 15.54-123.2 128.02-223.1 251.22-223.1"/><path d="m13521 10564h-4.3c-442.7 1.3-898.3 267.9-1354.1 792.3-319.4 367.6-522.8 731.2-531.2 746.5-67.8 122-23.9 275.8 98.1 343.5 121.9 67.8 275.7 23.9 343.5-98.1 198.1-355.3 843.7-1277.2 1445.2-1279h2.7c190.8 0 338.3 58.9 450.9 180 269.4 289.9 289.1 869.2 274 1068-10.6 139.1 93.6 260.4 232.7 271 138.9 10.6 260.4-93.5 271-232.7 3-38.1 65.9-940.8-407.7-1450.3-210.4-226.4-486.6-341.2-820.8-341.2"/><path d="m15295 12384h-1496.1c-139.5 0-252.7 113.1-252.7 252.6s113.2 252.6 252.7 252.6h1496.1c139.5 0 252.6-113.1 252.6-252.6s-113.1-252.6-252.6-252.6"/><path d="m13358 15860h-119.2v1493.8h119.2c357.4 0 647.2-289.8 647.2-647.2v-199.3c0-357.5-289.8-647.3-647.2-647.3" fill="#fff"/><path d="m13261 15882h97.1c344.7 0 625.1 280.4 625.1 625.1v199.3c0 344.7-280.4 625.1-625.1 625.1h-97.1zm97.1-44.3h-119.2c-12.3 0-22.2 9.9-22.2 22.1v1493.8c0 12.3 9.9 22.2 22.2 22.2h119.2c369.1 0 669.4-300.3 669.4-669.4v-199.3c0-369.1-300.3-669.4-669.4-669.4"/><path d="m6375.3 15860h119.19v1493.8h-119.19c-357.47 0-647.25-289.8-647.25-647.2v-199.3c0-357.5 289.78-647.3 647.25-647.3" fill="#fff"/><path d="m6375.2 17332c-344.67 0-625.09-280.4-625.09-625.1v-199.3c0-344.7 280.42-625.1 625.09-625.1h97.05v1449.5zm119.2-1493.8h-119.2c-369.08 0-669.37 300.3-669.37 669.4v199.3c0 369.1 300.29 669.4 669.37 669.4h119.2c12.23 0 22.14-9.9 22.14-22.2v-1493.8c0-12.2-9.91-22.1-22.14-22.1"/><path d="m6253 16669c0 1605.2 1617.9 3265.6 3613.8 3265.6s3613.7-1660.4 3613.7-3265.6c0-1605.1-1617.9-2547.2-3613.7-2547.2s-3613.8 942.1-3613.8 2547.2" fill="#fff"/><path d="m9866.8 19912c-2055.6 0-3591.6-1712.3-3591.6-3243.4 0-757.4 362.59-1399.6 1048.6-1857.1 645.83-430.7 1549-667.9 2543-667.9 994.04 0 1897.2 237.2 2543 667.9 686 457.5 1048.6 1099.7 1048.6 1857.1 0 1531.1-1536 3243.4-3591.6 3243.4zm0-5812.7c-1002.7 0-1914.6 239.9-2567.6 675.4-698.88 466.1-1068.3 1121-1068.3 1893.9 0 792.9 388.32 1613.3 1065.4 2250.8 710.13 668.7 1623 1036.9 2570.5 1036.9 947.44 0 1860.3-368.2 2570.5-1036.9 677-637.5 1065.4-1457.9 1065.4-2250.8 0-772.9-369.4-1427.8-1068.3-1893.9-653.1-435.5-1564.9-675.4-2567.6-675.4"/><path d="m10772 13639h-1810.3c-793.47 0-1436.7-643.2-1436.7-1436.7 0-524.2 51.13-1047.2 152.68-1561.5l260.28-1318.2c181.91-921.3 989.88-1585.3 1928.9-1585.3s1747 664 1928.9 1585.3l260.3 1318.2c101.5 514.3 152.7 1037.3 152.7 1561.5 0 793.5-643.3 1436.7-1436.8 1436.7" fill="#fff"/><path d="m8961.6 13617c-780 0-1414.6-634.6-1414.6-1414.6 0-521.6 51.22-1045.5 152.27-1557.2l260.29-1318.2c179.32-908.3 981.39-1567.5 1907.2-1567.5 925.74 0 1727.8 659.2 1907.2 1567.5l260.3 1318.2c101 511.8 152.2 1035.7 152.2 1557.2 0 780-634.6 1414.6-1414.6 1414.6zm905.18-5901.7c-946.87 0-1767.2 674.2-1950.6 1603.1l-260.29 1318.2c-101.57 514.5-153.09 1041.3-153.09 1565.8 0 804.4 654.43 1458.8 1458.8 1458.8h1810.3c804.5 0 1458.9-654.4 1458.9-1458.8 0-524.4-51.5-1051.2-153.1-1565.8l-260.3-1318.2c-183.4-928.9-1003.8-1603.1-1950.6-1603.1"/><path d="m10852 13617h-1970.9c-12.23 0-22.14 9.9-22.14 22.1s9.91 22.1 22.14 22.1h1970.9c12.2 0 22.1-9.9 22.1-22.1s-9.9-22.1-22.1-22.1"/><path d="m12296 17150h-3479.9c-361.51 0-654.57-315.8-654.57-705.4v-460.2c0-297.1 158.58-611.9 432.07-663.3 964.37-181.2 2960.6-181.2 3924.9 0 273.5 51.4 432.1 366.2 432.1 663.3v460.2c0 389.6-293 705.4-654.6 705.4"/><path d="m9738.7 16224c0-130.6-98.19-236.4-219.31-236.4s-219.3 105.8-219.3 236.4c0 130.5 98.18 236.3 219.3 236.3s219.31-105.8 219.31-236.3" fill="#fff"/><path d="m12072 16224c0-130.6-98.2-236.4-219.3-236.4s-219.3 105.8-219.3 236.4c0 130.5 98.2 236.3 219.3 236.3s219.3-105.8 219.3-236.3" fill="#fff"/><path d="m11067 11940c0-640.8-519.4-1160.2-1160.2-1160.2-640.74 0-1160.2 519.4-1160.2 1160.2 0 640.7 519.42 1160.1 1160.2 1160.1 640.79 0 1160.2-519.4 1160.2-1160.1" fill="#fff"/><path d="m9906.5 13078c-627.51 0-1138-510.5-1138-1138s510.52-1138.1 1138-1138.1c627.48 0 1138 510.6 1138 1138.1s-510.5 1138-1138 1138zm0-2320.3c-651.92 0-1182.3 530.3-1182.3 1182.3 0 651.9 530.39 1182.3 1182.3 1182.3 651.88 0 1182.3-530.4 1182.3-1182.3 0-652-530.4-1182.3-1182.3-1182.3"/><path d="m10018 11233h-184.29c-96.64 0-174.98 78.4-174.98 175v1016c0 96.7 78.34 175 174.98 175h184.29c96.6 0 175-78.3 175-175v-1016c0-96.6-78.4-175-175-175"/><path d="m9246.3 11822v186.7c0 96.6 78.34 174.9 174.98 174.9h1009.9c96.6 0 175-78.3 175-174.9v-186.7c0-96.6-78.4-175-175-175h-1009.9c-96.64 0-174.98 78.4-174.98 175"/><path d="m7555.3 9416.1c-494.94 0-1164.6 70.5-1593.8 399.6-247.4 189.7-391.92 440.1-429.54 744.3-168.91 1365.7 1479.2 2147.4 1549.4 2180 126.53 58.8 276.74 3.8 335.48-122.7 58.7-126.5 3.89-276.5-122.43-335.4-13.85-6.5-1384.8-659.9-1261.1-1659.9 20.66-167.1 97.71-299.7 235.52-405.4 471.94-361.8 1501-311 1857.8-260.9 138.12 19.5 265.88-76.8 285.29-215 19.41-138.1-76.85-265.9-215.01-285.3-25.33-3.5-289.22-39.3-641.62-39.3"/><path d="m9299.6 9147.4h-485.14c-265.05 0-484.81 198.9-511.18 462.7l-16.89 168.8c-14.41 144.1 33.07 288.4 130.28 395.8s236.05 169 380.92 169h773.81c139.52 0 252.61-113.1 252.61-252.6s-113.09-252.6-252.61-252.6h-773.81c-1.41 0-3.78 0-6.33-2.8-2.53-2.8-2.29-5.1-2.14-6.5l16.88-168.9c0.43-4.3 4.08-7.6 8.46-7.6h485.14c139.51 0 252.61-113.1 252.61-252.7 0-139.5-113.1-252.6-252.61-252.6"/><path d="m20800 9622c-3.6 0-7.3 0.9-10.7 2.8-10.7 5.9-14.6 19.3-8.7 30l82.9 150.5c5.9 10.7 19.3 14.6 30 8.7s14.6-19.4 8.7-30.1l-82.8-150.4c-4-7.4-11.6-11.5-19.4-11.5"/><path d="m20607 9271.5c-3.7 0-7.3 0.9-10.7 2.8-10.7 5.9-14.6 19.3-8.7 30l82.8 150.5c5.9 10.7 19.3 14.6 30.1 8.7 10.7-5.9 14.6-19.3 8.7-30.1l-82.8-150.4c-4.1-7.3-11.6-11.5-19.4-11.5"/><path d="m20644 9577.1c-3.6 0-7.2 0.8-10.6 2.7l-150.5 82.8c-10.7 5.9-14.6 19.4-8.7 30.1s19.3 14.6 30.1 8.7l150.4-82.8c10.7-5.9 14.6-19.4 8.7-30.1-4-7.3-11.6-11.4-19.4-11.4"/><path d="m20995 9384.1c-3.6 0-7.2 0.9-10.6 2.7l-150.5 82.9c-10.7 5.9-14.6 19.3-8.7 30 5.9 10.8 19.3 14.7 30.1 8.8l150.4-82.9c10.7-5.9 14.6-19.3 8.7-30-4-7.4-11.6-11.5-19.4-11.5"/><path d="m12987 21571c-22.5 0-45-4.8-66.2-14.3-83.4-37.5-121.3-137.2-84.5-222.5 17.9-41.6 50.7-73.3 92.2-89.5 40.6-15.8 84.9-14.7 124.8 3.2 83.3 37.5 121.3 137.3 84.5 222.5-17.9 41.6-50.7 73.4-92.2 89.5-19 7.4-38.8 11.1-58.6 11.1zm0.1-381.7c-25.2 0-50.4 4.7-74.6 14.1-52.7 20.5-94.2 60.7-116.9 113.3-46.3 107.3 1.8 233.1 107.1 280.4 50.7 22.8 107.1 24.2 158.9 4.1 52.7-20.5 94.2-60.7 116.9-113.3 46.3-107.3-1.7-233.1-107.1-280.4-27-12.1-55.6-18.2-84.3-18.2"/><path d="m12740 4144c-46.4 0-92.6 0.5-138.9 1.4-12.2 0.2-21.9 10.3-21.7 22.6 0.3 12.2 11.5 22 22.6 21.7 969.6-19.7 1952.2 168.1 2918.8 558.1 11.3 4.5 24.3-0.9 28.9-12.3 4.5-11.3-0.9-24.2-12.3-28.8-926.1-373.6-1866.5-562.7-2797.4-562.7"/><path d="m12257 4163.7h-0.3c-617 8.7-1002.9 102.9-1006.7 103.9-11.9 2.9-19.1 14.9-16.2 26.8 3 11.9 14.9 19.1 26.9 16.2 3.7-1 385.2-94 996.6-102.6 12.3-0.2 22-10.2 21.9-22.5-0.2-12.1-10.1-21.8-22.2-21.8"/><path d="m12800 3735.8c-243.5 0-387.7 12.9-392.8 13.4-12.1 1.2-21 12-19.9 24.1 1.2 12.2 11.7 21.1 24.2 20 18.1-1.7 1831-163.3 3582.5 690.7 11.1 5.4 24.3 0.8 29.6-10.2 5.4-11 0.8-24.2-10.1-29.6-1273.7-621-2579.7-708.4-3213.5-708.4"/><path d="m20931 10871c-1.8 0-3.5 0.2-5.3 0.6-11.9 2.9-19.1 14.9-16.2 26.8 253.3 1034.2 269.5 2035.7 48.2 2976.6-2.8 11.9 4.6 23.8 16.5 26.6 11.8 2.8 23.8-4.6 26.6-16.5 222.9-947.7 206.7-1956.1-48.3-2997.3-2.5-10.1-11.5-16.8-21.5-16.8"/><path d="m21216 10517c-2.3 0-4.6 0.4-6.9 1.2-11.6 3.8-17.9 16.3-14.1 27.9 629.4 1908.8 71.6 3637.5 65.9 3654.7-3.9 11.7 2.4 24.2 14 28 11.7 3.9 24.2-2.4 28-14 5.7-17.4 568.2-1759.3-65.8-3682.6-3.1-9.3-11.8-15.2-21.1-15.2"/><path d="m3721.2 11053c-44.35 0-87.52-23-111.26-64-35.37-61.3-14.31-139.9 46.94-175.3 61.21-35.3 139.84-14.3 175.23 46.9 35.37 61.3 14.32 139.9-46.93 175.2-20.16 11.7-42.21 17.2-63.98 17.2zm-0.43-300.7c-29.28 0-58.92 7.4-86.03 23.1-82.4 47.6-110.72 153.3-63.15 235.7 47.6 82.4 153.35 110.7 235.72 63.1 82.4-47.6 110.72-153.3 63.16-235.7-31.94-55.3-90.05-86.2-149.7-86.2"/><path d="m4586.4 7862.2c-6.68 0-13.28 3-17.62 8.7-414.07 543-719.57 1342.7-933.98 2444.6-2.34 12 5.49 23.6 17.49 25.9 11.89 2.3 23.63-5.5 25.97-17.5 213.09-1095.1 515.88-1888.6 925.72-2426.1 7.41-9.7 5.55-23.6-4.18-31.1-4.02-3-8.73-4.5-13.4-4.5"/><path d="m19210 19083c0-716-580.3-1296.4-1296.3-1296.4-715.9 0-1296.3 580.4-1296.3 1296.4 0 715.9 580.4 1296.3 1296.3 1296.3 716 0 1296.3-580.4 1296.3-1296.3" fill="#fff"/><path d="m17914 20357c-702.6 0-1274.2-571.6-1274.2-1274.1 0-702.6 571.6-1274.2 1274.2-1274.2s1274.2 571.6 1274.2 1274.2c0 702.5-571.6 1274.1-1274.2 1274.1zm0-2592.6c-727 0-1318.4 591.4-1318.4 1318.5 0 727 591.4 1318.4 1318.4 1318.4s1318.5-591.4 1318.5-1318.4c0-727.1-591.5-1318.5-1318.5-1318.5"/><path d="m17772 19775v-257.9c0-125.5-24.8-247.7-73.7-363.2l-256.3-606.1c-15.3-36.2-11.6-75.7 10.1-108.4 21.7-32.8 56.7-51.6 96-51.6h718.5c39.3 0 74.3 18.8 96 51.6 21.7 32.7 25.4 72.2 10 108.4l-256.3 606.1c-48.8 115.6-73.6 237.7-73.6 363.2v257.9zm494.6-1431.4h-718.5c-53.6 0-103.3 26.6-132.9 71.3s-34.8 100.8-14 150.2l256.4 606c46.5 110.1 70.1 226.5 70.1 346v280.1c0 12.2 9.9 22.1 22.1 22.1h315c12.3 0 22.2-9.9 22.2-22.1v-280.1c0-119.5 23.6-235.9 70.1-346l256.3-606c20.9-49.4 15.7-105.5-13.9-150.2s-79.3-71.3-132.9-71.3"/><path d="m17766 19924c-28.7 0-52.1-23.4-52.1-52.2 0-28.7 23.4-52.1 52.1-52.1h282.7c28.7 0 52.1 23.4 52.1 52.1 0 28.8-23.4 52.2-52.1 52.2zm282.7-148.6h-282.7c-53.2 0-96.4 43.3-96.4 96.4 0 53.2 43.2 96.5 96.4 96.5h282.7c53.1 0 96.4-43.3 96.4-96.5 0-53.1-43.3-96.4-96.4-96.4"/><path d="m18121 19127h-427.7l-245.7-581c-14.5-34.2-11-71.6 9.5-102.6s53.6-48.7 90.8-48.7h718.5c37.2 0 70.2 17.7 90.8 48.7 20.5 31 24 68.4 9.5 102.6l-245.7 581"/><path d="m18122 19127c0-7-95.9-12.8-214.1-12.8-118.3 0-214.1 5.8-214.1 12.8 0 7.1 95.8 12.8 214.1 12.8 118.2 0 214.1-5.7 214.1-12.8" fill="#fff"/><path d="m16050 20355c0-702.9-569.8-1272.7-1272.7-1272.7s-1272.7 569.8-1272.7 1272.7 569.8 1272.7 1272.7 1272.7 1272.7-569.8 1272.7-1272.7" fill="#fff"/><path d="m14777 21606c-689.5 0-1250.5-561-1250.5-1250.5 0-689.6 561-1250.5 1250.5-1250.5s1250.5 560.9 1250.5 1250.5c0 689.5-561 1250.5-1250.5 1250.5zm0-2545.3c-713.9 0-1294.8 580.8-1294.8 1294.8s580.9 1294.8 1294.8 1294.8c714 0 1294.8-580.8 1294.8-1294.8s-580.8-1294.8-1294.8-1294.8"/><path d="m15313 20131c0-299.5-242.8-542.3-542.3-542.3s-542.3 242.8-542.3 542.3c0 271.9 446.5 930.3 528.8 1049.4 7.2 10.3 22.2 10.9 30.2 1.1 94.1-115.9 525.6-777.8 525.6-1050.5"/><path d="m14376 20203c-1.9 0-3.9 0.3-5.8 0.8-11.8 3.2-18.8 15.4-15.6 27.2 21.1 77.1 66.8 179.6 136.1 304.4 5.9 10.7 19.4 14.6 30.1 8.6 10.7-5.9 14.5-19.4 8.6-30-67.5-121.8-112-220.9-132-294.6-2.7-9.9-11.6-16.4-21.4-16.4" fill="#fff"/><path d="m14751 19733c-194.3 0-363.5 137.9-402.4 328-2.5 11.9 5.3 23.6 17.3 26.1 11.9 2.4 23.6-5.3 26.1-17.3 34.7-169.5 185.7-292.6 359-292.6 58.6 0 114.5 13.4 166.3 39.8 10.9 5.6 24.2 1.2 29.8-9.7 5.5-10.8 1.2-24.2-9.7-29.7-58.1-29.6-120.8-44.6-186.4-44.6" fill="#fff"/><path d="m21419 16875c222.9-680.4-148-1412.6-828.4-1635.5-680.4-222.8-1412.6 148.1-1635.4 828.5-222.9 680.3 148 1412.5 828.4 1635.4s1412.6-148 1635.4-828.4" fill="#fff"/><path d="m20188 17747c-133.4 0-267.4-21.2-397.9-63.9-667.7-218.7-1033-939.9-814.3-1607.5 175.7-536.5 675.8-877.7 1211.8-877.7 131.2 0 264.4 20.4 395.7 63.4 323.4 105.9 586.3 331.5 740.1 635.1s180.1 649 74.2 972.4c-106 323.4-331.5 586.3-635.1 740-181.2 91.8-377.2 138.2-574.5 138.2zm-0.3-2593.4c-554.7 0-1072.1 353.1-1254 908.2-226.3 690.9 151.7 1437.1 842.6 1663.3 334.8 109.7 692 82.4 1006.2-76.8 314.1-159.1 547.5-431.1 657.1-765.7 109.7-334.7 82.4-692-76.7-1006.2-159.2-314.2-431.1-547.6-765.8-657.2-135.8-44.5-273.8-65.6-409.4-65.6"/><path d="m19596 15962c130.3-142.7 351.5-152.8 494.2-22.5l630.2 575.4c142.7 130.3 152.7 351.5 22.5 494.2-130.3 142.6-351.5 152.7-494.2 22.4l-630.2-575.4c-142.7-130.2-152.7-351.5-22.5-494.1" fill="#fff"/><path d="m20485 17101c-78.9 0-158-28.2-220.8-85.5l-630.2-575.4c-64.6-59-102.4-139.7-106.4-227.1-3.9-87.4 26.4-171.2 85.4-235.8s139.6-102.4 227.1-106.4c86.8-4 171.1 26.3 235.8 85.3l630.2 575.4c133.4 121.8 142.9 329.5 21.1 462.9-64.6 70.7-153.2 106.6-242.2 106.6zm-629.6-1274.8c-5.8 0-11.6 0.1-17.3 0.4-99.3 4.5-190.8 47.4-257.8 120.7l16.3 15-16.3-15c-67 73.4-101.4 168.5-96.9 267.7s47.4 190.8 120.8 257.8l630.2 575.4c73.3 67 168.6 101.3 267.7 96.9 99.2-4.5 190.7-47.4 257.7-120.8s101.4-168.4 96.9-267.7c-4.5-99.2-47.4-190.8-120.8-257.8l-630.2-575.4c-69.1-63-157.4-97.2-250.3-97.2"/><path d="m20743 17009c130.3-142.6 119-362.5-23.7-492.7l-322.7-294.7-469.2 513.9 322.8 294.6c142.6 130.3 362.6 121.6 492.8-21.1"/><path d="m20566 16492c-6 0-12 2.4-16.4 7.2-8.2 9-7.6 23 1.5 31.2l75 68.6c44.6 40.7 70.7 96 73.4 155.8 2.8 59.9-18.1 117.4-58.7 161.9-8.3 9-7.6 23 1.4 31.3 9 8.2 23 7.6 31.3-1.4 48.6-53.3 73.6-122.1 70.3-193.8-3.3-71.6-34.5-137.9-87.8-186.5l-75.1-68.6c-4.2-3.8-9.6-5.7-14.9-5.7" fill="#fff"/><path d="m17164 12758c-4.7 0-9.4 1.5-13.5 4.6l-47.6 36.4c-49.5 37.8-104.4 109-106.8 112.1-7.4 9.6-5.6 23.5 4.1 31 9.7 7.4 23.6 5.6 31.1-4.1 0.5-0.7 53.7-69.6 98.5-103.8l47.6-36.4c9.7-7.5 11.6-21.4 4.2-31.1-4.4-5.7-11-8.7-17.6-8.7"/><path d="m17246 12849c-3.5 0-7 0.8-10.2 2.5l-53.3 27.7c-55.2 28.7-121.6 89.3-124.4 91.9-9 8.3-9.6 22.2-1.4 31.3 8.3 9 22.3 9.6 31.3 1.3 0.7-0.6 65-59.3 115-85.3l53.2-27.6c10.8-5.7 15.1-19.1 9.4-29.9-3.9-7.6-11.6-11.9-19.6-11.9"/><path d="m19075 13829c146-18.8 940-179.5 1007.5-1074 1.5-20.6-9.2-40.2-27.1-50.5l-459.1-264.3c-17.2-10-27.6-28.4-27-48.3 5.1-163.6 31.4-907 100.8-1219.3 54.1-243.5 91.7-442 109.7-541.3 6.4-35-22.3-66.3-57.7-63.1-112.4 10.3-335.3 35.1-482.2 80.3-184.6 56.8-266.1 165.1-712.2-20-93.7-38.9-199.9-33.6-289.6 13.9-244.2 129.3-752.9 358.6-1103.6 242.8-39.7-13.1-78.5 21.8-69.4 62.7 51.2 229.6 158.3 672.3 169.7 906.3 14.3 292.3-153.8 1266-75.6 1367.7 74.5 96.8 402.5 319.4 624.1 380.4 81.1 22.3 166.5 24.4 234.9 41.3 171.7 42.3 647.7 238.4 1056.8 185.4"/><path d="m19860 11650c-136.5-203.9-294.6-268.9-638.9-180.1s-1074.4 611.5-1435.3 1109.3c0 0-24.9 45.7-95.4 37.4s-360.9-120.3-576.6 70.5c-215.8 190.8-164.2 327.6-153.5 353.6 18.3 43.8 340.1-12.2 427.3 26.6 87.1 38.8 86 99 20.7 188.1-78 106.3 95.9 130.6 228.2-58.1 80.3-114.7 215.6-265.5 338-327.4 126.5-64 1412.6-526.9 1478.9-506.3 66.4 20.7 484 273 484 273s71.3-764.5-77.4-986.6" fill="#fff"/><path d="m17804 12591c352.6-486 1076.6-1011 1422.4-1100.2 356.8-92 495.7-7 614.9 171l18.4-12.3-18.4 12.3c124.8 186.4 88.3 784.9 76.7 936.9-102.2-61.4-399.7-238.5-458.3-256.7-2.2-0.7-5.3-1-9.2-1-145.1-0.1-1412.2 471.1-1486.3 508.6-127.8 64.7-266.3 220.6-346.2 334.5-71.5 102-152.8 133.9-189.1 130.3-9-0.8-15.5-3.7-17.3-7.8-2.5-5.5-0.2-18.9 14.2-38.6 43.4-59.1 58.7-104.9 48.3-144.2-8.7-32.5-34.1-57.8-77.8-77.3-47.7-21.2-148.4-17.2-245.5-13.4-64.6 2.5-152.4 6-171.4-4.1-17.8-45.6-35-163.3 148.7-325.8 173.7-153.7 400.4-100.8 509.3-75.4 21.2 4.9 37.9 8.8 50.1 10.3 77.3 9 110.5-37.5 116.5-47.1zm1674.2-1182.4c-75.9 0-162.4 13.5-262.9 39.4-352.9 91-1090.3 624.7-1447.7 1117.7-0.6 0.8-1.1 1.6-1.5 2.4-0.7 1-19.9 32.3-73.4 26-9.7-1.2-26.2-5-45.2-9.4-116.2-27.1-358-83.5-548.7 85.3-208.9 184.8-180.9 326.4-159.2 378.6 14.5 35 79.3 34 212.9 28.7 87.9-3.4 187.5-7.3 225.7 9.7 30.8 13.7 48.1 29.4 53.1 48.2 6.5 24.6-7.3 60.5-41.2 106.6-28.7 39.3-26.2 66.8-18.9 83 8.7 19.3 27.6 31.3 53.5 33.7 58.5 5.7 152.1-38.3 229.6-149 76.9-109.7 209.4-259.4 329.9-320.4 149.8-75.8 1387.9-512.3 1463.9-504.5 50.8 15.9 362.1 200.7 477.6 270.5 6.5 3.9 14.7 4.2 21.4 0.8 6.8-3.5 11.4-10.1 12.1-17.7 2.9-31.6 70.3-775-81.1-1001-104.7-156.4-224-228.6-399.9-228.6"/><path d="m17183 12638 4.9-45.8 28.6-264.3c29.5-232.6 6.5-422.1 6.5-422.1 0.5-73-44-159-98.8-207.4-63.1-55.6-96.1-67.1-147.6-85.8-193.5-70.4-278-48.7-348.2 151.3-70.3 200-45.5 324 119.8 944.1 0 0 45.5 125.2-82.6 209.4-113.9 74.8-76.3 254.3 28.7 390.2 167.5 216.9 518.7-640.8 488.7-669.6" fill="#fff"/><path d="m17167 12654zm-410.8 666.7c-16.8 0-31.2-8.7-45-26.5-68.9-89.2-103.8-191.8-91.1-267.7 6.6-39.6 25.8-70 57-90.5 141.2-92.7 91.9-234 91.4-235.4-165.9-622.2-187.6-736.4-119.9-929.3 32-90.8 65.5-140.5 108.8-161 45.5-21.5 106.6-14.8 211.1 23.2l2.4 0.9c49.4 17.9 79.2 28.7 138.1 80.7 53.3 47.1 91.7 127.3 91.3 190.7 0 0.9 0 1.9 0.2 2.8 0.2 1.9 22.2 189.7-6.6 416.7l-33.5 310.4c-0.5 3.9 0.2 7.8 1.7 11.3 0.6 70.9-225.8 607.9-382.4 668.8-8.4 3.2-16.2 4.9-23.5 4.9zm59.6-1766.8c-29.3 0-54.4 5.5-77.3 16.4-54.9 25.9-95.5 83.4-131.6 186.4-72 204.8-50.1 321.8 119.4 957.1 2.1 6.3 37.8 112.1-73.5 185.2-41.3 27.1-67.7 68.7-76.4 120.2-14.7 87.7 23.5 203.4 99.8 302.1 33.6 43.5 71.8 46.8 98 42 174.4-32.4 382.7-534.7 420.2-660.1 11.4-38.1 13.8-57.3 10.6-68.9l32.9-303.9c28.5-224.5 8.9-406.7 6.7-425.7-0.1-76.1-43.7-167.5-106.3-222.8-65.2-57.5-101.7-70.8-152.2-89.1l-2.5-0.9c-70.1-25.5-123.7-38-167.8-38"/><path d="m17068 13044s284.3-30.5 372.5 39c65.3 51.6-56.6 205.7-65.7 217.8-77.2 101.7-257.3 338.8-284.2 372.4-24.3 30.5-70.7 102.9-131.2 97.6-60.6-5.3-395.9-60.5-420.3-71.3-51.1-22.5-29.5-93.6 7.8-132.7 37.4-39.2 521.1-522.8 521.1-522.8"/><path d="m19437 10678s274.6-2283.4 308.4-2723.9c33.9-440.5 84.8-1982.3 0-2744.7-54.8-493.9-92.9-824.3-112.9-995.7-9.2-79.5-76.6-139.4-156.6-139.4h-559.6c-28.6 0-51.9 22.9-52.3 51.5-2.5 205.6-20.9 989.1-152.1 1659.6-152.4 779.4-321.9 1999.3-406.6 2490.6-28.2 164-52 346.3-72.1 524.7l-63.4-185.9c-63.4-185.8-305-1440.1-372.7-1931.4-61.7-446.9-165.4-2239.6-183.6-2560-1.6-27.7-24.5-49.1-52.2-49.1h-716.6c-26.9 0-49.3 20.2-52 46.9-33.3 332.3-229.6 2340.1-198.6 3239.9 33.9 982.7 474.4 2151.7 559.1 2473.6 84.8 321.9 198.4 1138.2 198.4 1138.2s1718-25.8 2085.4-294.9" fill="#fff"/><path d="m18233 8823.1c0.8 0 1.6 0 2.4-0.1 10.3-1.1 18.4-9.2 19.6-19.5 23.2-205.9 46.7-377.1 71.9-523.5 29.5-171 69.1-429.3 115-728.2 85.6-558.7 192.2-1254 291.6-1761.8 130.6-667.5 149.7-1442.1 152.5-1663.6 0.2-16.4 13.7-29.7 30.1-29.7h559.6c68.8 0 126.7 51.5 134.6 119.8 17.9 152.8 56.2 485.4 112.9 995.6 82.2 739.4 37.2 2256.2 0 2740.6-32.4 420.4-287.6 2550.1-307.2 2713.2-351.7 241.7-1855.9 280.8-2045.4 284.8-17.9-126.1-119.4-829.6-196.2-1121.3-17.1-65-48.3-163.5-87.8-288.1-155-488.5-443.5-1397.8-470.5-2180.7-30.7-890.8 159.9-2852.6 198.4-3236.8 1.6-15.5 14.4-27.1 30-27.1h716.6c16 0 29.2 12.4 30.1 28.3 19.9 349.7 122.4 2116.8 183.7 2561.7 69.1 500.8 310.1 1749 373.7 1935.6l63.4 185.9c3.1 9 11.6 14.9 21 14.9zm1242.7-4770.7h-559.6c-40.6 0-73.9 32.9-74.4 73.4-2.7 220.6-21.8 991.8-151.7 1655.7-99.5 508.7-206.2 1204.5-291.9 1763.6-45.8 298.7-85.4 556.7-114.8 727.4-21.3 123.5-41.3 264.4-61 428.6l-31.8-93.1c-63.1-185.2-302.8-1428-371.7-1927.3-61.1-443.2-163.5-2208.8-183.4-2558.3-2.3-39.2-34.9-70-74.3-70h-716.6c-38.4 0-70.2 28.8-74 66.9-38.6 384.8-229.5 2349.2-198.7 3242.9 27.2 788.9 316.9 1701.9 472.6 2192.5 39.3 124 70.4 222 87.2 285.9 83.4 317 196.7 1127.5 197.9 1135.7 1.5 11.1 11.2 19 22.2 19.1 70.5-1.1 1729.3-29.1 2098.2-299.3 4.9-3.6 8.1-9.1 8.9-15.2 2.7-22.8 275-2288.9 308.5-2724.8 37.4-485.7 82.4-2006.7 0-2748.8-56.8-510.4-95.2-843.1-113-995.9-10.5-90.6-87.3-159-178.6-159"/><path d="m18233 8785c-11.1 0-20.7 8.4-21.9 19.7-11.5 101.9-22.7 210.7-33.3 323.3-19.1 204.4-156.1 382.7-348.9 454.1l-123.7 45.8c-11.4 4.2-17.3 17-13 28.4 4.2 11.5 16.9 17.3 28.4 13.1l123.7-45.8c208.7-77.3 356.9-270.2 377.6-491.4 10.6-112.4 21.7-220.9 33.2-322.6 1.3-12.1-7.4-23.1-19.5-24.4-0.9-0.1-1.7-0.2-2.6-0.2"/><path d="m17002 4074.8h456.6c32.4 0 61.6-19.4 73.9-49.4 40.5-98.5 123-328.6 111.9-546.9-3.1-59.7-52.6-106.4-112.4-106.4h-1339.9c-61.6 0-108.4 56.3-96.1 116.7 14.8 72.3 65.8 167.4 212.7 252.9 237.9 138.4 536.8 276.8 631.1 319.6 19.5 8.9 40.7 13.5 62.2 13.5" fill="#fff"/><path d="m17002 4052.6c-18.4 0-36.3-3.9-53-11.5-87.3-39.6-390.7-179.8-629.2-318.6-113.9-66.2-183.8-148.6-202.1-238.2-4.5-21.9 1.1-44.5 15.4-62 14.5-17.8 36.1-28 59-28h1339.9c48.2 0 87.8 37.5 90.3 85.3 10.9 216.4-73.5 447.9-110.3 537.4-8.9 21.6-29.9 35.6-53.4 35.6zm530-702.6h-1339.9c-36.3 0-70.3 16.1-93.3 44.3-22.7 27.8-31.6 63.9-24.5 98.9 14.6 71.3 65.2 175.6 223.3 267.6 240.2 139.8 545.3 280.8 633 320.6 22.6 10.3 46.6 15.5 71.4 15.5h456.6c41.6 0 78.6-24.8 94.4-63.1 37.9-92.2 124.9-331.1 113.5-556.4-3.6-71.5-62.7-127.4-134.5-127.4"/><path d="m16940 3752.9c-5.6 0-11.2 2.1-15.5 6.4l-192.2 189c-8.7 8.6-8.8 22.6-0.2 31.3 8.5 8.7 22.5 8.9 31.3 0.3l192.1-189.1c8.7-8.6 8.8-22.6 0.3-31.3-4.4-4.4-10.1-6.6-15.8-6.6"/><path d="m16816 3675.4c-5.6 0-11.2 2.1-15.5 6.4l-192.1 189c-8.8 8.6-8.9 22.6-0.3 31.3 8.5 8.8 22.6 8.9 31.3 0.3l192.1-189.1c8.7-8.5 8.9-22.5 0.3-31.3-4.3-4.4-10.1-6.6-15.8-6.6"/><path d="m19017 4074.8h456.6c32.4 0 61.6-19.4 73.9-49.4 40.5-98.5 123-328.6 111.9-546.9-3-59.7-52.6-106.4-112.3-106.4h-1340c-61.6 0-108.4 56.3-96.1 116.7 14.8 72.3 65.8 167.4 212.7 252.9 237.9 138.4 536.8 276.8 631.1 319.6 19.5 8.9 40.7 13.5 62.2 13.5" fill="#fff"/><path d="m19017 4052.6c-18.4 0-36.3-3.9-53-11.5-87.3-39.6-390.7-179.8-629.2-318.6-113.9-66.2-183.8-148.6-202.1-238.2-4.4-21.9 1.2-44.5 15.4-62 14.6-17.8 36.1-28 59-28h1340c48.1 0 87.7 37.5 90.2 85.3 11 216.4-73.5 447.9-110.3 537.4-8.9 21.6-29.8 35.6-53.4 35.6zm530.1-702.6h-1340c-36.3 0-70.3 16.1-93.3 44.3-22.7 27.8-31.6 63.9-24.4 98.9 14.5 71.3 65.1 175.6 223.2 267.6 240.2 139.8 545.3 280.8 633 320.6 22.6 10.3 46.6 15.5 71.4 15.5h456.6c41.6 0 78.6-24.8 94.4-63.1 37.9-92.2 124.9-331.1 113.5-556.4-3.6-71.5-62.7-127.4-134.4-127.4"/><path d="m19006 3769.4c-5.6 0-11.2 2.2-15.5 6.4l-192.2 189c-8.7 8.6-8.8 22.6-0.3 31.4 8.6 8.7 22.6 8.8 31.3 0.2l192.2-189c8.7-8.6 8.8-22.6 0.3-31.4-4.4-4.3-10.1-6.6-15.8-6.6"/><path d="m18882 3692c-5.6 0-11.2 2.1-15.5 6.3l-192.2 189.1c-8.7 8.5-8.8 22.6-0.2 31.3 8.5 8.7 22.6 8.8 31.3 0.2l192.1-189c8.7-8.6 8.9-22.6 0.3-31.3-4.3-4.4-10.1-6.6-15.8-6.6"/><path d="m18491 14958c-10-3.4-20.6-7.7-31.9-13.2 0 0-25.3-15.4-48.4-57.8-23.2-42.5-61.8-173.6-111.9-165.9s-111.9 212.1-111.9 212.1-19.2 100.3-173.5 61.8c-154.3-38.6-273.9-104.2-320.2-131.2s-88.7-34.7-135-30.8c-46.3 3.8-196.7 92.5-169.7 235.2 27 142.8 158.2 239.8 273.9 239.2 120.4-0.6 293.1 77.1 324 92.6 30.8 15.4 212.4 89.8 311.3 34.6 88.3-49.2 162.5-127.3 202.8-262.3 25.7-86.2 5.9-165.2 3.2-191.2-1.1-10.1-3-19.8-12.7-23.1"/><path d="m17674 14849c-3-1.5-4.6-4.6-4.4-7.9 1.6-23.6 6.8-121-7.9-208.9-8.2-48.5-39.3-166.4-26.2-190.7s61.7-26.1 84.1-24.3c22.4 1.9 59.8-7.5 69.2-26.1 9.3-18.7 37.4-192.6 48.6-233.7s48.6-89.7 117.7-82.3c8.9 1 34.8 6.8 54.8 11.5 14.6 3.4 29.1-6.3 31.4-21.1 33.2-211.1-180.2-449-231.5-503.3-5.3-5.6-3.4-14.8 3.7-17.9 473.2-206.5 959.9 150 1092.9 260.8 5.9 4.9-248.5 73.8-370.1 366.3-53.5 128.7-35.6 328.9-37.6 408.4-0.4 16.1 8.6 30.8 23.2 37.6 32 14.7 78.5 63.6 91.9 111.8 19.3 69.5 11.6 290.8-171.8 202.1 0 0-25.3-15.4-48.5-57.9-23.1-42.4-61.7-173.5-111.8-165.8-50.2 7.7-111.9 212.1-111.9 212.1s-19.3 100.3-173.5 61.7c-139.3-34.8-293.6-116.7-322.3-132.4" fill="#fff"/><path d="m17674 14849h0.2zm17.7-6.3v-0.2 0.2zm-7.2-13.1zm152.1-1271.1c431.8-177.8 868.4 114.7 1028.8 241.8-163.8 76.5-281.3 198.5-349.6 362.6-44.5 107.2-41.6 257.3-39.7 356.6 0.5 23.6 0.9 44.1 0.5 59.8-0.6 24.9 13.5 47.8 36.1 58.2 25.2 11.6 67.8 54.4 79.8 97.6 11.7 42.2 10.6 144.2-33.1 180.7-23.8 19.9-59.6 18.6-106.4-3.8-3.9-2.7-22.5-17.1-40-49.2-5-9.1-11.4-24.3-18.2-40.4-27.3-64.7-60.9-145.3-116.5-136.7-57.7 8.9-109.9 162.1-129.7 227.6-0.2 0.8-0.4 1.5-0.5 2.3-0.2 0.7-5.4 23.4-29.8 38.6-26.3 16.3-66.6 18.3-116.7 5.8-127-31.8-267.3-103.8-309.4-126.3 2.1-36 4.9-124.2-8.7-205.2-2.1-12.5-5.7-29.5-9.7-48.4-7.8-36.7-23.9-113.1-18.5-128.8 4.5-8.3 34.5-14.4 62.5-12 27.7 2.3 75.8-8.3 90.8-38.3 6-12.1 13.5-50 29.2-133.6 8-42.8 16.3-87.1 20.9-104.2 3.4-12.4 23.7-73.6 94.1-66.1 2.8 0.3 13.5 2 52 11 13 3.1 26.7 0.5 37.8-6.9 11-7.4 18.5-19.2 20.6-32.2 32.1-204.6-152.9-430-226.6-510.5zm285.6-100.1c-103.5 0-210.6 18.9-317.6 65.6-9.9 4.3-17.1 13.3-19.3 23.9-2.1 10.6 1 21.7 8.4 29.5 60.7 64.3 256.5 289.2 225.7 484.7-0.2 1.2-0.9 2-1.5 2.4s-1.7 0.8-3 0.5c-45.4-10.6-54.4-11.6-57.4-11.9-76.9-8.3-126.5 43.5-141.5 98.5-5.1 18.8-13.2 61.9-21.8 107.6-8.8 47.2-20.9 111.8-25.4 122.2-2.9 5.9-27.8 15.4-47.3 13.8-13.8-1.2-83.6-4.8-105.5 35.8-11.7 21.8-5.3 64.5 14.5 158.2 3.8 18.2 7.3 34.6 9.3 46.7 14.2 84.1 9.5 177.2 7.7 203.7-0.9 11.8 5.4 23.2 15.9 28.9 29.8 16.2 185.8 99 327.5 134.4 63.5 15.9 114.7 11.9 152-11.9 36.4-23.2 46.5-57.8 48.3-65.6 30.2-99.4 74-190.9 93.9-195.9 21.6-3.5 55.8 79.1 68.9 110.1 7.5 17.9 14.1 33.3 20.1 44.4 25.3 46.3 53.3 64.3 56.4 66.2 82.2 39.9 130.7 21.7 157.2-0.4 62.5-52.2 61.7-175.2 47.5-226.5-14.9-53.6-65.8-108.4-104-126-6.5-3-10.5-9.6-10.3-16.9 0.4-16.2 0-37.3-0.5-61.8-1.9-95.6-4.7-240 36.3-338.7 66.3-159.3 182.3-276.2 344.8-347.4 16.1-7 25-10.9 26.9-24.1 1.1-7.6-2-15.4-7.8-20.3-108.3-90.2-430.8-329.7-798.4-329.7"/><path d="m18023 14068c-9.6 0-18.4 6.2-21.2 15.9-3.5 11.7 3.2 24 15 27.5 60.5 17.8 157.7 59.5 226.5 104.7 10.2 6.7 23.9 3.9 30.7-6.3 6.7-10.3 3.8-24-6.4-30.7-72.4-47.6-174.7-91.4-238.3-110.2-2.1-0.6-4.2-0.9-6.3-0.9"/></g></g></svg>
