<?xml version="1.0" encoding="UTF-8"?>
<svg version="1.1" viewBox="0 0 3333.3 3333.3" xml:space="preserve" xmlns="http://www.w3.org/2000/svg"><g transform="matrix(1.3333 0 0 -1.3333 0 3333.3)"><g transform="scale(.1)"><path d="M 25000,0 H 0 V 25000 H 25000 V 0" fill="#fff"/><path d="m15434 11832-3505.6-22c-22.7 0-30.2-21.1-30.2-41.3v-2982.6c0-285.5-1991.8-1027.5-2011.2-989.7l-2.44-315.7c-0.14-58.8 51.53-110.9 117.42-110.9h43.8 0.9 2939.2c136.4 0 271.1 30.5 394.6 82.2l1616 680.5c290.9 122.5 474.5 385.6 474.5 672.5v2985.7c0 20.2-14.3 41.3-37 41.3"/><path d="m11543 11984v-2983.2c0-294.1-189.3-562.1-486.6-689l-1090.2-465.3c-71.21-30.4-46.94-125.8 32.01-125.8h2995.3c134.7 0 267.7 26.6 389.5 77.9l1207.9 508.5c299.6 126.1 490.7 395.2 490.7 690.7v2986.2c0 12.2-11.1 22.1-24.8 22.1h-3489c-13.7 0-24.8-9.9-24.8-22.1" fill="#fff"/><path d="m11565 11983v-2982.3c0-301.3-196.3-579.8-500.2-709.5l-1090.1-465.3c-21.53-9.2-31.95-26.5-27.89-46.4 3.46-16.9 18.92-36.6 51.13-36.6h2995.3c130.9 0 262.6 26.3 380.9 76.1l1207.8 508.6c289.8 122 477.1 385 477.1 670.1v2985.9c-0.2-0.4-1 0.1-2.5 0.1h-3489c-1.3 0-2.1-0.4-2.5-0.7zm1428.2-4284.7h-2995.3c-55.3 0-87.48 36.3-94.83 72.3-8.24 40.3 13.49 79 54.08 96.3l1090.1 465.3c287.4 122.7 473.1 385.1 473.1 668.5v2983.2c0 24.5 21.1 44.4 47.1 44.4h3489c26 0 47.1-19.9 47.1-44.4v-2986.2c0-303.1-198-582.3-504.4-711.3l-1207.8-508.5c-123.7-52.1-261.4-79.6-398.2-79.6"/><path d="m4989.8 10275 15110-33.9c132.2 0 264.1 99.4 280.9 230.8l1227.7 9454.8c29.3 229.1-148.1 457-376 451.3l-14935-78.9-1307.8-10024"/><path d="m20639 20324c260 0 494.7-263.5 461.4-522l-1192-9307.3c-16.9-131.5-157.6-242.7-289.8-242.7l-14843 24.1c-158.54 0-264.44 131.6-244.16 289.3l1234.5 9479.8c16.91 131.4 103.81 278.8 235.99 278.8h14637" fill="#fff"/><path d="m6002.4 20302c-117.24 0-197.69-133.6-213.87-259.3l-1234.5-9479.9c-9.4-73 9.73-140.9 53.86-191.1 41.4-47 101.14-73 168.19-73l14843-24.1c125 0 252.5 106.4 267.6 223.2l1192 9307.3c14.9 116-26.6 239.5-114.1 338.9-88.3 100.4-206.8 158-325.2 158zm13616-10072-14843 24.1c-80.02 0-151.65 31.3-201.64 88.2-51.96 59.1-75.5 141.5-64.6 226.2l1234.4 9479.9c18.6 144.5 115.39 298.2 258.11 298.2h14637c131.2 0 262-63.1 358.7-173.1 95.9-109.1 141.4-245.4 124.9-374.1l-1192.1-9307.3c-18-139.6-163.7-262.1-311.9-262.1"/><path d="m6374.1 19919c-106.83 0-180.2-122.1-194.99-237l-1135.7-8721.3c-8.58-66.6 8.86-128.5 49.11-174.3 37.75-42.9 92.23-66.6 153.39-66.6l14024-22.1c114.2 0 230.7 97.1 244.4 203.8l1096.7 8562.4c13.6 106.2-24.4 219.3-104.6 310.4-80.8 92-189.4 144.7-297.8 144.7zm12895-9265.9-14024 22.1c-74.13 0-140.5 29.1-186.85 81.7-48.13 54.8-69.94 131.1-59.85 209.6l1135.7 8721.2c17.22 133.8 106.91 276 239.23 276h13834c121.2 0 242-58.3 331.3-159.9 88.6-100.7 130.6-226.7 115.3-345.6l-1096.6-8562.4c-16.7-129.3-151.6-242.7-288.8-242.7"/><path d="m13059 18782h5655.5l32.4 241.1h-5655.5zm5675-44.7h-5700.5c-6.4 0-12.5 2.8-16.8 7.7-4.2 4.8-6.1 11.3-5.3 17.6l38.4 285.8c1.5 11.1 10.9 19.3 22.1 19.3h5700.5c6.4 0 12.6-2.7 16.8-7.6 4.2-4.8 6.2-11.3 5.3-17.6l-38.4-285.8c-1.5-11.1-10.9-19.4-22.1-19.4"/><path d="m19964 18289h-5808l38.4 285.8h5808l-38.4-285.8"/><path d="m16224 17840h2957l32.5 241.2h-2957.1zm2976.5-44.6h-3002c-6.4 0-12.5 2.8-16.8 7.6-4.2 4.9-6.1 11.3-5.3 17.7l38.4 285.8c1.5 11 11 19.3 22.1 19.3h3002.1c6.4 0 12.5-2.8 16.8-7.6 4.2-4.9 6.1-11.3 5.3-17.7l-38.4-285.8c-1.5-11-11-19.3-22.2-19.3"/><path d="m12552 15013h5655.5l32.4 241.2h-5655.4zm5675-44.6h-5700.4c-6.5 0-12.6 2.8-16.8 7.7-4.3 4.8-6.2 11.2-5.4 17.6l38.5 285.8c1.4 11.1 10.9 19.3 22.1 19.3h5700.4c6.5 0 12.6-2.8 16.8-7.6s6.2-11.3 5.3-17.7l-38.4-285.7c-1.5-11.1-10.9-19.4-22.1-19.4"/><path d="m15143 14497h-1493.5c-6.4 0-12.5 2.7-16.7 7.6-4.3 4.8-6.2 11.3-5.4 17.6l38.5 285.8c1.4 11.1 10.9 19.3 22.1 19.3h1350.9c12.3 0 22.3-9.9 22.3-22.3 0-12.3-10-22.3-22.3-22.3h-1331.4l-32.4-241.1h1467.9c12.3 0 22.3-10 22.3-22.3 0-12.4-10-22.3-22.3-22.3"/><path d="m19457 14497h-3587.4c-12.3 0-22.3 9.9-22.3 22.3 0 12.3 10 22.3 22.3 22.3h3567.8l32.5 241.1h-3793.9c-12.3 0-22.3 10-22.3 22.3 0 12.4 10 22.3 22.3 22.3h3819.4c6.4 0 12.5-2.7 16.8-7.6 4.2-4.8 6.1-11.3 5.3-17.6l-38.4-285.8c-1.5-11.1-11-19.3-22.1-19.3"/><path d="m19394 14026h-3102.6c-12.3 0-22.3 10-22.3 22.3s10 22.3 22.3 22.3h3083.1l32.4 241.2h-3286.3c-12.3 0-22.3 9.9-22.3 22.3 0 12.3 10 22.3 22.3 22.3h3311.8c6.5 0 12.6-2.8 16.8-7.7 4.2-4.8 6.2-11.2 5.3-17.6l-38.4-285.8c-1.5-11.1-10.9-19.3-22.1-19.3"/><path d="m15619 13574h-2115.7c-6.4 0-12.5 2.8-16.8 7.6-4.2 4.9-6.2 11.3-5.3 17.7l38.4 285.8c1.5 11 10.9 19.3 22.1 19.3h1741.3c12.4 0 22.3-10 22.3-22.3s-9.9-22.3-22.3-22.3h-1721.8l-32.4-241.2h2090.2c12.3 0 22.3-10 22.3-22.3s-10-22.3-22.3-22.3"/><path d="m18544 17346h-5700.4l38.4 285.8h5700.5l-38.5-285.8"/><path d="m18943 16875h-4977l38.4 285.8h4946.1l-7.5-285.8"/><path d="m15970 15955h2256.7l32.4 241.2h-2256.6zm2276.2-44.6h-2301.7c-6.4 0-12.5 2.8-16.8 7.6-4.2 4.8-6.1 11.3-5.3 17.7l38.4 285.7c1.5 11.1 11 19.4 22.1 19.4h2301.7c6.5 0 12.6-2.8 16.8-7.7 4.3-4.8 6.2-11.2 5.3-17.6l-38.4-285.8c-1.5-11-10.9-19.3-22.1-19.3"/><path d="m18871 15462h-2301.7l38.4 285.7h2301.7l-38.4-285.7"/><path d="m18761 16404h-2752.4l38.4 285.7h2725.4l-11.4-285.7"/><path d="m17974 13106h-5700.4l38.4 285.8h5700.4l-38.4-285.8" fill="#fff"/><path d="m16405 12612h-3009.3c-6.4 0-12.6 2.7-16.8 7.6-4.2 4.8-6.2 11.2-5.3 17.6l38.4 285.8c1.5 11.1 10.9 19.3 22.1 19.3h2868.4c12.3 0 22.3-10 22.3-22.3s-10-22.3-22.3-22.3h-2848.9l-32.4-241.1h2983.8c12.3 0 22.3-10 22.3-22.3 0-12.4-10-22.3-22.3-22.3"/><path d="m17988 12141h-2550c-6.5 0-12.6 2.7-16.8 7.6-4.3 4.8-6.2 11.3-5.3 17.6l38.4 285.8c1.5 11.1 10.9 19.4 22.1 19.4h2420.5c12.3 0 22.3-10 22.3-22.3 0-12.4-10-22.4-22.3-22.4h-2401l-32.4-241.1h2524.5c12.3 0 22.3-10 22.3-22.3s-10-22.3-22.3-22.3"/><path d="m17784 11692h-5700.5l38.4 285.8h5700.5l-38.4-285.8" fill="#fff"/><path d="m17965 11199h-4759.6c-6.4 0-12.5 2.8-16.8 7.6-4.2 4.9-6.1 11.3-5.3 17.7l38.4 285.8c1.5 11 11 19.3 22.2 19.3h4743.9c12.3 0 22.3-10 22.3-22.3s-10-22.3-22.3-22.3h-4724.4l-32.5-241.2h4734.1c12.4 0 22.3-10 22.3-22.3s-9.9-22.3-22.3-22.3"/><path d="m12116 15467h-555.3l36.9 274.6h555.3l-36.9-274.6"/><path d="m12580 18760h-578.8l38.4 285.8h578.8l-38.4-285.8"/><path d="m12638 19193h-578.8l38.5 285.8h578.7l-38.4-285.8"/><path d="m12512 18288h-574.3l38.4 285.8h574.3l-38.4-285.8"/><path d="m12429 17817h-545.1l38.4 285.7h545.1l-38.4-285.7"/><path d="m12369 17346h-554.9l38.4 285.7h554.9l-38.4-285.7"/><path d="m12302 16875h-554.9l38.5 285.8h554.8l-38.4-285.8"/><path d="m12192 15952h-549.9l38.5 285.7h549.8l-38.4-285.7"/><path d="m12242 16423h-525.7l38.5 285.8h525.6l-38.4-285.8"/><path d="m11924 14036h-555.3l36.9 274.5h555.3l-36.9-274.5"/><path d="m12000 14520h-549.9l38.4 285.8h549.9l-38.4-285.8"/><path d="m12049 14992h-525.7l38.4 285.8h525.7l-38.4-285.8"/><path d="m11549 11249h-555.3l36.9 274.6h555.3l-36.9-274.6"/><path d="m11862 13599h-545.1l38.5 285.8h545.1l-38.5-285.8"/><path d="m11801 13128h-554.8l38.4 285.8h554.9l-38.5-285.8"/><path d="m11735 12657h-554.9l38.4 285.8h554.9l-38.4-285.8"/><path d="m11625 11733h-549.9l38.4 285.8h549.9l-38.4-285.8"/><path d="m11674 12204h-525.7l38.4 285.7h525.7l-38.4-285.7"/><path d="m9636.2 19255h-2744l36.91 274.6h2744l-36.91-274.6"/><path d="m7251.4 18801h2847.5l32.4 241.2h-2847.5zm2867-44.6h-2892.5c-6.44 0-12.56 2.8-16.8 7.6-4.23 4.9-6.16 11.3-5.31 17.7l38.42 285.8c1.49 11 10.93 19.3 22.11 19.3h2892.5c6.4 0 12.5-2.8 16.8-7.6 4.2-4.9 6.2-11.3 5.3-17.7l-38.4-285.8c-1.5-11-10.9-19.3-22.1-19.3"/><path d="m7530.1 18330h3324.9l32.4 241.2h-3324.9zm3344.4-44.6h-3369.9c-6.44 0-12.55 2.8-16.79 7.7-4.23 4.8-6.16 11.2-5.31 17.6l38.41 285.8c1.5 11.1 10.94 19.3 22.11 19.3h3369.9c6.4 0 12.6-2.8 16.8-7.6s6.2-11.3 5.3-17.7l-38.4-285.7c-1.5-11.1-11-19.4-22.1-19.4"/><path d="m8519.9 17859h2767.1l32.5 241.1h-2767.2zm2786.6-44.6h-2812.2c-6.43 0-12.55 2.7-16.79 7.6-4.23 4.8-6.16 11.3-5.31 17.6l38.43 285.8c1.49 11.1 10.94 19.3 22.11 19.3h2812.2c6.4 0 12.5-2.7 16.7-7.6 4.3-4.8 6.2-11.3 5.4-17.6l-38.5-285.8c-1.4-11.1-10.9-19.3-22.1-19.3"/><path d="m8608 15486h-2222.6l36.91 274.6h2222.6l-36.91-274.6"/><path d="m7042.8 15032h1580.3l32.42 241.2h-1580.3zm1599.8-44.6h-1625.3c-6.44 0-12.56 2.8-16.79 7.6-4.24 4.9-6.17 11.3-5.32 17.7l38.42 285.7c1.49 11.1 10.94 19.4 22.11 19.4h1625.3c6.44 0 12.56-2.8 16.8-7.6 4.23-4.9 6.16-11.3 5.31-17.7l-38.42-285.8c-1.49-11-10.93-19.3-22.1-19.3"/><path d="m7694.2 14560h1510.9l32.42 241.2h-1510.9zm1530.4-44.6h-1555.9c-6.43 0-12.55 2.8-16.79 7.7-4.23 4.8-6.16 11.2-5.31 17.6l38.41 285.8c1.5 11 10.94 19.3 22.11 19.3h1555.9c6.43 0 12.55-2.8 16.79-7.6 4.23-4.8 6.16-11.3 5.31-17.7l-38.42-285.7c-1.49-11.1-10.93-19.4-22.11-19.4"/><path d="m8311.3 14089h1923.9l32.4 241.1h-1923.9zm1943.4-44.6h-1968.9c-6.43 0-12.56 2.7-16.8 7.6-4.23 4.8-6.16 11.2-5.31 17.6l38.43 285.8c1.49 11.1 10.94 19.3 22.11 19.3h1968.9c6.5 0 12.6-2.7 16.8-7.6 4.3-4.8 6.2-11.3 5.3-17.6l-38.4-285.8c-1.5-11.1-10.9-19.3-22.1-19.3"/><path d="m8660.9 17365h-1987.2l38.42 285.8h1987.2l-38.42-285.8"/><path d="m8085.5 16916h3025.6l32.4 241.2h-3025.6zm3045.1-44.6h-3070.6c-6.44 0-12.56 2.8-16.8 7.6-4.23 4.9-6.16 11.3-5.31 17.7l38.42 285.8c1.49 11 10.94 19.3 22.11 19.3h3070.6c6.5 0 12.6-2.8 16.8-7.6 4.2-4.9 6.2-11.3 5.3-17.7l-38.4-285.8c-1.5-11-10.9-19.3-22.1-19.3"/><path d="m8559.1 16424h-1987.2l38.42 285.8h1987.2l-38.42-285.8"/><path d="m7983.7 15975h3025.6l32.5 241.2h-3025.6zm3045.1-44.6h-3070.6c-6.43 0-12.56 2.8-16.79 7.6-4.24 4.9-6.17 11.3-5.31 17.7l38.42 285.8c1.49 11 10.93 19.3 22.1 19.3h3070.7c6.4 0 12.5-2.8 16.8-7.6 4.2-4.9 6.1-11.3 5.3-17.7l-38.4-285.8c-1.5-11-11-19.3-22.2-19.3"/><path d="m8602.9 13601h-2470.9l36.91 274.5h2470.9l-36.91-274.5"/><path d="m6193.1 13147h3989.9l32.4 241.2h-3989.9zm4009.4-44.6h-4034.9c-6.44 0-12.56 2.8-16.79 7.6-4.24 4.8-6.17 11.3-5.32 17.7l38.42 285.8c1.49 11 10.93 19.3 22.11 19.3h4034.9c6.5 0 12.6-2.8 16.8-7.6 4.3-4.9 6.2-11.3 5.3-17.7l-38.4-285.8c-1.5-11-10.9-19.3-22.1-19.3"/><path d="m7897.9 12676h2271.4l32.4 241.2h-2271.4zm2290.9-44.6h-2316.4c-6.43 0-12.55 2.8-16.79 7.6-4.23 4.9-6.16 11.3-5.31 17.7l38.42 285.8c1.49 11 10.93 19.3 22.11 19.3h2316.4c6.5 0 12.6-2.8 16.8-7.6 4.3-4.9 6.2-11.3 5.3-17.7l-38.4-285.8c-1.5-11-10.9-19.3-22.1-19.3"/><path d="m9217.3 11711h-1549.2l-125.27 285.7h1712.8l-38.42-285.7"/><path d="m8455.6 12242h2176.8l32.5 241.2h-2176.9zm2196.4-44.6h-2221.9c-6.44 0-12.56 2.8-16.8 7.6-4.23 4.9-6.16 11.3-5.31 17.7l38.42 285.8c1.49 11 10.93 19.3 22.1 19.3h2221.9c6.4 0 12.5-2.8 16.8-7.6 4.2-4.9 6.1-11.3 5.3-17.7l-38.4-285.7c-1.5-11.1-11-19.4-22.1-19.4"/><path d="m9675.3 11218h-1773c-12.32 0-22.3 10-22.3 22.3s9.98 22.3 22.3 22.3h1753.4l32.43 241.2h-1868.3c-12.31 0-22.29 9.9-22.29 22.3 0 12.3 9.98 22.3 22.29 22.3h1893.8c6.43 0 12.56-2.8 16.79-7.7 4.24-4.8 6.17-11.2 5.32-17.6l-38.42-285.8c-1.49-11-10.94-19.3-22.11-19.3"/><path d="m20835 4952.3-55.6-533.8-358.6-42.3v633l414.2-56.9" fill="#fff"/><path d="m20443 4983.6v-582.3l315.9 37.3 51.6 494.6zm-22.3-629.7c-5.4 0-10.7 2-14.8 5.7-4.8 4.2-7.5 10.3-7.5 16.6v633c0 6.4 2.8 12.5 7.7 16.8 4.8 4.2 11.3 6.1 17.6 5.3l414.3-56.9c11.9-1.6 20.4-12.4 19.1-24.4l-55.6-533.8c-1.1-10.3-9.2-18.6-19.6-19.8l-358.6-42.3c-0.8-0.1-1.7-0.2-2.6-0.2"/><path d="m20364 3447c149.5-21.2 394.7-39.8 682.4 0.3 94.1 13.1 156.5 105.2 133.8 198-63.3 259.1-172.4 750.8-359.8 978.7l-46.5-123.6-64.3 116.4c-8.8 15.9-24.6 26.7-42.6 29l-140.7 17.9c-29.4 3.8-56.8-15.8-62.9-45l-22.4-107.2-85.8 140.5-38.1-524.9c-8.2-112.5-25.1-224.1-50.5-333.9l-38.4-165.6c-11.5-87.5 49-168.3 135.8-180.6" fill="#fff"/><path d="m20373 4581-33.1-455.5c-8.2-113.2-25.3-226.7-51-337.3l-38.4-165.6c-9.4-73.2 43-143 117.3-153.5 152.4-21.6 393.5-39.1 676.1 0.3 38.6 5.4 73.3 27 95.2 59.3 22.1 32.6 29.4 73.1 20.1 111.3l-13.6 56.2c-60.8 251.3-160.4 663.7-317.8 882.4l-32.4-86c-3.1-8.2-10.6-13.8-19.3-14.4-9-0.5-16.9 3.8-21.1 11.4l-64.3 116.4c-5.4 9.7-15 16.3-25.9 17.6l-140.8 18c-17.8 2.3-34.5-9.8-38.2-27.5l-22.3-107.2c-1.9-8.9-9.1-15.8-18.1-17.4-8.9-1.6-18 2.6-22.8 10.4zm330.6-1179.7c-137.2 0-254.1 11.1-342.1 23.6-98.4 13.9-167.8 106.2-154.8 205.6l38.8 167.7c25.1 108.5 41.9 219.7 50 330.5l38.1 524.9c0.7 9.7 7.5 17.8 17 20.1 9.4 2.3 19.2-1.8 24.2-10.1l56.5-92.4 10.9 52c8.4 40.3 46.9 67.9 87.5 62.6l140.8-17.9c24.9-3.2 47-18.3 59.2-40.3l40.9-74.1 29.6 78.4c2.8 7.4 9.3 12.8 17.2 14.1s15.8-1.7 20.8-7.8c177.8-216.3 286.1-664 350.7-931.5l13.6-56.1c12.3-50.4 2.7-104-26.5-146.9-29-42.8-74.9-71.4-125.9-78.5-124.7-17.4-241.5-23.9-346.5-23.9"/><path d="m20692 3559.9c-182.3 0-293.3 39-300 41.4-11.6 4.2-17.6 17-13.4 28.6s16.9 17.6 28.5 13.4c2.4-0.8 239.2-83.5 588.4-3.4 12 2.8 24-4.7 26.7-16.8 2.8-12-4.7-23.9-16.7-26.7-118.9-27.3-224.7-36.5-313.5-36.5"/><path d="m20865 3970h-0.7l-336.1 11.2c-12.3 0.4-22 10.7-21.6 23s11.1 22.2 23 21.5l336.1-11.1c12.3-0.4 22-10.8 21.6-23.1-0.4-12-10.3-21.5-22.3-21.5"/><path d="m19156 5236.6-53.8-779h-431.4l-20.1 779h505.3" fill="#fff"/><path d="m18692 4479.9h388.9l50.7 734.4h-458.5zm409.7-44.6h-431.4c-12.1 0-22 9.6-22.3 21.7l-20.1 779c-0.1 6 2.2 11.8 6.4 16.1 4.1 4.3 9.9 6.8 15.9 6.8h505.3c6.2 0 12.1-2.6 16.3-7.1 4.2-4.6 6.4-10.6 5.9-16.8l-53.7-778.9c-0.8-11.7-10.5-20.8-22.3-20.8"/><path d="m19215 4017.8c1-73.7-49-138.4-120.3-155.1-248-58.1-806.8-187.4-966.2-211.3-206.8-31-461.1 32.8-570.4 154.5-109.3 121.8 244.8 412.6 412.8 518.4 249.6 157.2 489.4 467.9 590 481.9 100.5 13.9 288.2-279.7 288.2-279.7l306.9 129.7s53.5-264.6 59-638.4" fill="#fff"/><path d="m18568 4784.4c-1.5 0-3.1-0.1-4.5-0.3-43.3-6-132.8-91.5-227.6-182-106.5-101.7-227.2-217-353.6-296.6-138.3-87.1-404-303.2-422-432-3-21.6 1.5-38.8 13.9-52.7 102-113.6 343.8-178.3 550.5-147.4 159.3 23.9 727.5 155.6 964.4 211 60.6 14.3 104 70.2 103.1 133.1-4.5 299.9-40.3 531.1-53.6 607.4l-281.3-118.9c-10-4.3-21.6-0.7-27.5 8.5-72.9 114-200.3 269.9-261.8 269.9zm-548.1-1163.2c-190.3 0-386.2 66.6-478.9 169.8-21.4 23.9-29.8 53.7-24.9 88.7 21.4 153.2 307.3 378.4 442.4 463.5 122.6 77.2 241.6 190.9 346.6 291.1 113 108 194.7 186 252.2 193.9 100.8 14.2 251.1-199.9 299.9-273.9l289.6 122.5c6.2 2.6 13.2 2.3 19.1-0.9 5.9-3.1 10.1-8.7 11.4-15.3 0.6-2.6 54-270.9 59.5-642.4 1.2-83.7-56.6-158.2-137.5-177.2-237.4-55.6-807-187.6-968-211.7-36.3-5.5-73.8-8.1-111.4-8.1"/><path d="m18023 3812.2c-134.9 0-255.5 22.1-342.6 79.2-10.3 6.8-13.2 20.6-6.4 30.9 6.7 10.3 20.6 13.2 30.8 6.4 320-209.7 1172.8 100.6 1340.5 164.9 11.6 4.5 24.5-1.3 28.8-12.8 4.5-11.5-1.3-24.4-12.8-28.8-177-67.9-662.7-239.8-1038.3-239.8"/><path d="m18502 4236c-5.6 0-11.2 2.1-15.6 6.4l-178.7 175c-8.8 8.6-8.9 22.8-0.3 31.6s22.7 8.9 31.5 0.3l178.7-175c8.9-8.6 9-22.8 0.4-31.6-4.4-4.4-10.2-6.7-16-6.7"/><path d="m20957 10315s133.7-2435.2 203.7-3275.8c69.9-840.7-163.7-2191.9-163.7-2191.9l-665.9 35.2s-45.7 1643-95.2 2099.2c0 0-281.3 618.5-364.7 1170.2-83.3 551.6-367.3 1422.9-367.3 1422.9s-230.7-4348.9-252.9-4690.6c0 0-522.3-23.4-709.5 95.2 0 0-331.7 1585.7-284.1 2448.5s-4.7 3006.4-4.7 3006.4l2704.3-119.3" fill="#fff"/><path d="m20353 4903.5 625.5-33.1c28.1 169.1 224.5 1393.2 160.1 2166.7-65.8 790.9-189.5 3020-202.6 3256.3l-2660.2 117.4c5.5-237.9 48.5-2179.5 4-2984.3-45-815.5 254.5-2300.3 281.8-2433.3 164.6-95.7 573.4-90.3 668.6-87.6 28.3 459.9 249.3 4627.4 251.6 4670.2 0.6 10.7 8.7 19.5 19.4 20.9 10.5 1.4 20.8-4.9 24.1-15.2 2.8-8.7 285.5-879.4 368.2-1426.5 81.9-542.1 360.1-1158.1 362.9-1164.2 1-2.2 1.7-4.5 1.9-6.9 46-424.2 89.2-1889.1 94.7-2080.4zm644.3-78.7h-1.2l-666 35.2c-11.6 0.6-20.8 10.1-21.2 21.7-0.4 16.4-45.9 1638.9-94.6 2093.9-22.3 49.9-285.1 645.2-364.9 1172.7-64.2 424.5-249.9 1046.3-329.6 1302.5-37.7-709.8-226.5-4262.7-246.4-4568.2-0.7-11.4-9.9-20.4-21.2-20.9-21.7-1-531.4-22.3-722.4 98.6-5.1 3.3-8.7 8.4-9.9 14.3-3.3 15.9-331.8 1598.5-284.6 2454.3 47.1 852.1-4.2 2983.2-4.7 3004.7-0.2 6.1 2.3 12.1 6.7 16.4s10.4 6.5 16.6 6.4l2704.3-119.3c11.4-0.5 20.6-9.7 21.2-21.1 1.4-24.4 134.5-2444.5 203.7-3275.2 69.4-833.8-161.6-2184-163.9-2197.5-1.8-10.8-11.2-18.5-21.9-18.5"/><path d="m20563 6959.4h-203.6c-12.4 0-22.3 9.9-22.3 22.3 0 12.3 9.9 22.3 22.3 22.3h203.6c12.3 0 22.3-10 22.3-22.3 0-12.4-10-22.3-22.3-22.3"/><path d="m18909 5694.5c-12.2 0-22.1 9.7-22.3 21.9-7.1 390.3-453.6 1124.2-458.1 1131.6-6.4 10.5-3.1 24.2 7.4 30.7 10.5 6.4 24.2 3.1 30.7-7.4 18.6-30.5 457.2-751.7 464.6-1154.1 0.2-12.3-9.6-22.4-21.9-22.7h-0.4"/><path d="m17843 14167c-36.9 2.9-343.8-524-488.2-775.6-41-71.5-132.5-94.8-202.5-51.6l-1128.5 696.7c-92.1 56.8-171.2 133-230.7 223.7-94.3 143.6-150.4 289.6-276.5 391.6-102.6 83-206.5 175.2-237.6 199.3-19.5 15.1-110-49.3-41.9-163.7 21-35.2 99.3-106.4 120.7-138.8 34.2-51.6 34.2-120.3-3.8-169.1-40.5-52-74.3-135.4-28.8-251.4 67.2-171.7 219.6-214.1 305.9-224.1 43.4-5 83.2-26 112-59l1041.4-1193.3c161.6-185.2 431.7-227 641-99.1 338.6 206.8 774.5 623.6 1088.5 1150.4l-671 464" fill="#fff"/><path d="m15269 14830c-6.1-2.2-18.2-10.7-26.5-26.8-10.4-20.1-16.4-54.5 13.5-104.7 10-16.7 37.9-46.2 62.6-72.2 23.9-25.2 46.5-49 57.5-65.7 40.4-61 38.5-139.4-4.8-195.1-51-65.5-59.7-142.8-25.7-229.6 63.2-161.1 207.4-200.8 287.8-210.1 48.9-5.6 93.7-29.2 126.2-66.5l1041.4-1193.3c154.6-177.2 412.3-217.1 612.6-94.7 300.7 183.7 738 574.9 1070.2 1124.9l-641.5 443.7c-39.6-40.6-180-257.1-468.4-759.9-22.9-39.9-60-68.1-104.4-79.4-44.4-11.2-90.2-4.1-129.2 19.9l-1128.5 696.7c-95 58.6-177.2 138.3-237.7 230.5-27.9 42.6-52.6 85.4-76.4 126.7-56.3 97.9-109.5 190.3-195.4 259.8-59.9 48.4-121.3 100.9-166.2 139.2-29.5 25.3-53.5 45.7-67.1 56.6zm1894.4-2374c-147.4 0-292.7 62.3-396 180.7l-1041.4 1193.3c-25.2 28.8-59.9 47.1-97.7 51.5-90.3 10.5-252.5 55.3-324.2 238.1-50 127.7-10.2 219.1 32 273.3 31.5 40.5 32.7 98 2.8 143.1-8.9 13.4-31.1 36.9-52.6 59.6-27.6 29-56.1 59.1-68.6 80-49.4 82.8-25.5 148.9 10 180.2 22.6 20.1 48.6 25.1 64.6 12.6 13.5-10.4 39.6-32.8 72.8-61.1 44.6-38.2 105.8-90.4 165.2-138.4 92.4-74.8 147.6-170.7 206.1-272.2 23.5-40.8 47.8-83 75-124.6 56.9-86.7 134.3-161.7 223.8-217l1128.5-696.6c28.6-17.7 62.3-22.9 94.8-14.6 32.6 8.2 59.8 29 76.7 58.3 453.7 791 486.9 788.3 509.3 786.8 3.9-0.4 7.7-1.7 10.9-3.9l671-464.1c9.7-6.7 12.5-19.7 6.5-29.8-337.7-566.3-787.6-969.5-1096.1-1158-85.1-51.9-179.7-77.2-273.4-77.2"/><path d="m21716 13187s75.1 1387.3-973.6 1777c-812.1 301.8-1849.2 171.6-2174.2 58.9-800.2-277.6-1194.1-1334.9-1194.1-1334.9l937.8-132.2s-282.6-3037.7-160-3715.3c0 0 754.7-88.6 1074.8 38.3s1372.6 304.7 1875.7 72.1l-91.4 3249.2 705-13.1"/><path d="m18171 9861c112.1-11.9 762.2-74.4 1047.5 38.7 313.3 124.2 1336 301.5 1860.6 85.7l-90.4 3214.1c-0.2 6.1 2.2 12 6.4 16.4 4.3 4.3 10.7 6.4 16.3 6.6l683-12.7c3.4 176.3-9.6 1380.3-959.8 1733.4-784.6 291.6-1809.5 180-2159.1 58.7-711.8-246.9-1103.3-1132.3-1170.2-1295.7l909.8-128.2c11.7-1.6 20.1-12.3 19-24.1-2.8-30.1-276.6-2994.8-163.1-3692.9zm513.4-73.1c-269.2 0-517.3 28.5-535.1 30.6-9.8 1.1-17.6 8.5-19.4 18.2-117.7 650.6 130.9 3407.2 157.9 3700.1l-916.8 129.2c-6.7 1-12.6 4.9-16.1 10.7-3.4 5.8-4 12.9-1.7 19.2 4 10.7 406.8 1070.3 1207.7 1348.1 354.7 123.1 1394.1 236.5 2189.2-59 435.8-161.9 744.8-524.8 893.8-1049.4 112.1-394.6 94.6-746.2 94.4-749.7-0.7-11.8-10.4-21.1-22.3-21.1h-0.4l-681.7 12.7 90.8-3225.9c0.2-7.7-3.5-15-10-19.3-6.4-4.2-14.6-4.8-21.6-1.6-502.3 232.3-1543.4 52.3-1858.2-72.5-137.3-54.5-349.8-70.3-550.5-70.3" fill="#fff"/><path d="m20409 10598c-1.3 0-2.6 0.1-3.9 0.3-1224.3 217.8-1582.3 1075.7-1585.8 1084.3-4.6 11.4 0.9 24.4 12.4 29 11.3 4.6 24.4-0.9 29-12.3 3.4-8.4 353.4-843.8 1552.2-1057.1 12.1-2.1 20.2-13.7 18-25.8-1.9-10.8-11.3-18.4-21.9-18.4" fill="#fff"/><path d="m18171 12070h1536.5l-481.3 1727.5h-1536.4l481.2-1727.5" fill="#fff"/><path d="m18188 12092h1490.2l-468.8 1682.9h-1490.2zm1519.6-44.6h-1536.5c-10 0-18.8 6.6-21.5 16.3l-481.2 1727.5c-1.9 6.7-0.5 14 3.7 19.5 4.2 5.6 10.8 8.8 17.8 8.8h1536.4c10 0 18.8-6.7 21.5-16.3l481.2-1727.6c1.9-6.7 0.5-13.9-3.7-19.4-4.2-5.6-10.8-8.8-17.7-8.8"/><path d="m21534 13186-675.6 30.6s-5.1-572.7-66.1-582.9c-217.2-36.5-672-38.3-968.1-2.3-103.1 12.5-184.7 91.9-204.1 194.6-14.6 77.6-56.3 168.7-162.2 234.2-102.2 63.4-1.4-136-97-264.4-51.4-69-214.1-38.4-436 13.4-221.8 51.7-278.2-187-29.5-331.2 269.5-156.3 440.8-138.8 526.8-157.1 171.2-36.5 1685.1-275.3 1918.8-147.5 180.5 98.8 193 1012.6 193 1012.6" fill="#fff"/><path d="m18866 12794c-51.6 0-90.1-20.9-105.3-59.2-23.8-60 11.5-160 145.2-237.5 207.7-120.5 354.1-135.5 450.9-145.3 26.7-2.8 49.8-5.1 69.3-9.3 174.5-37.2 1679.2-272.4 1903.5-149.7 134.9 73.8 175.7 706.5 181.1 971.7l-631.1 28.6c-0.7-46.5-3.1-156.3-9.8-265.7-17.5-282.9-46.4-311.2-74.5-315.9-222.5-37.3-677.8-38.5-974.4-2.5-112.2 13.7-201.9 99.1-223.4 212.7-17.7 94.1-68.9 167.9-152 219.4-7.2 4.4-12 6.6-15 7.7-2.3-10.4-2.1-33.5-2-51.1 0.5-58.2 1.3-146-50.5-215.4-60.1-80.7-228-48.9-458.8 4.9-18.9 4.4-36.7 6.6-53.2 6.6zm2180.6-680.5c-540 0-1544.1 167.3-1629.8 185.6-17.2 3.6-39.1 5.9-64.6 8.5-100.6 10.3-252.6 25.8-468.7 151.1-156.5 90.8-194.9 215.3-164.3 292.5 22.6 57 89.7 107.7 210.1 79.7 200-46.7 369.3-80.5 413-21.8 42.7 57.4 42.1 133.1 41.6 188.4-0.3 45.6-0.6 78.6 23.9 92.4 20.6 11.6 44.8-0.6 61.2-10.7 92.9-57.6 152.5-143.7 172.3-249.1 17.9-94.3 92.2-165.3 184.9-176.6 291.7-35.4 738.1-34.6 958.4 1.6 28.6 34.9 48.6 316.3 50.7 561.7 0.1 6.1 2.6 11.9 7 16 4.4 4.2 10.3 6.4 16.4 6.1l675.6-30.7c12.1-0.5 21.5-10.5 21.3-22.5-1.3-94.9-18.1-929.8-204.6-1031.8-52.7-28.8-162.6-40.4-304.4-40.4"/><path d="m19207 14998s175 107.7 173.3 170.6l49.9 323.1c0.5 29.6-17.7 56.1-45.3 65.8l-206.8 71.1c-26.4 9.3-43.4 35.3-41.6 63.6l16.1 256.8-81.1 71.7c-6.4 5.7-7.1 15.4-1.7 22l128.1 156c41.8 59 83.9 200.2 118.2 190.5 0 0 729.8 84.3 765.4-283.7 5.2-53.3-10.9-106.5-41.8-150.1l-64.6-91.1c-64.9-91.5-99.1-203.7-87.6-315.8 2.4-23.3 32.7-173.3 53-272.5 11.6-56.3 42.8-106.4 88.2-141.3 57-43.9 126.4-99.8 115.1-103.5 0 0-80.8-59.3-208.4-111.9-226.6-93.5-484.3-70.2-693.7 57.6l-34.7 21.1" fill="#fff"/><path d="m19249 14999 4.3-2.7c204.4-124.7 456.2-145.7 673.6-56 89.4 36.9 155.9 77.5 185.9 97.2-13.2 12.4-40.6 36-97.7 79.9-49.6 38.2-83.8 93.1-96.4 154.5-33.5 163.6-51.4 256-53.4 274.7-11.6 113.8 20.9 231.3 91.6 331l64.7 91.1c28.8 40.7 42.2 88.6 37.7 135-6.1 63.4-34.2 114.6-85.9 156.3-195.9 158.4-650.2 107.9-654.8 107.4-1.5-0.1-2.9-0.1-4.4 0-12.3-9.3-35.1-58.2-48.9-87.9-15.8-34.1-32.2-69.3-49.3-93.3l-125-152.5 76.4-67.6c5.1-4.6 7.9-11.3 7.5-18.1l-16.2-256.8c-1.1-18.3 9.9-35.2 26.8-41.2l206.7-71c36.8-13 61-48 60.3-87.3 0-1-0.1-2-0.3-3l-49.6-321.4c-1.1-57.7-99.1-131.6-153.6-168.3zm398.4-158.3c-144.8 0-289.8 39.7-417.3 117.5l-34.7 21.2c-6.6 4-10.7 11.2-10.7 19 0 7.7 4 15 10.6 19 78.9 48.6 163.5 120.1 162.7 151-0.1 1.3 0 2.7 0.2 4l49.7 321.5c-0.2 19.4-12.3 36.6-30.4 43l-206.7 71c-35.8 12.6-59 48-56.6 86.1l15.5 245.9-73 64.6c-15.4 13.6-17.3 36.8-4.2 52.7l128.1 156.1c13.7 19.4 29.3 52.8 44.3 85 30.8 66.2 55.5 119 92.1 113.8 47.2 5.1 481.4 46.7 684.4-117.4 60.7-49 95.1-111.8 102.3-186.7 5.5-57-10.7-115.7-45.8-165.1l-64.6-91.1c-64.5-90.9-94.2-197.7-83.6-300.6 1-9.7 9.2-57.8 52.7-270.3 10.4-51 38.8-96.5 79.9-128.1 128.9-99.3 127.3-108.5 124.7-123.8-1.1-5.8-5-11.6-10-15.3-3.4-2.5-84.5-61.6-213.1-114.7-94.7-39-195.5-58.3-296.5-58.3"/><path d="m19292 16950c166.3 8.6-44-162.8 572.1 14.3 245.4 70.5 119.4-217.4 183.1-199.2 235.2 66.9 227.1 64.8 341.4 33.6 75.8-20.6 124.1-162.3 109-267.8-19.9-139.2-176.1-360.2-315.9-593.8-72.4-121-200.7-131.9-355.7 48.1-16.5 19.2 67.8 132.1 23.8 180.7-114.5 126.5-165.3-64.6-257.7-5.6-88.7 56.7-125.3 93.3-219.1 178.9-113.4 103.7-303.9-57.6-369.6 175.6-34.2 121.7 60.9 423.5 288.6 435.2"/><path d="m13848 4201.7s50.9-0.2 99.7 34.4c150.9 107 464.6 346 678.9 316.1 358.9-50 401.4-343 401.4-343s302.7 11.2 296.7-190.2c-4.6-154.6-92.7-351-337.4-459.1-333.6-147.4-668.1-259.6-1037.2-17.8-71.6 47-156.7 68.9-241.9 60.3-207.4-20.9-3298.2-87.5-3298.2-87.5-707.03 0-1355.7 392.4-1684 1018.5l-651.47 1242.7 746.38 2085.5 1170.4-2719c567.03-774 3797.5-954.3 3856.6-940.9" fill="#fff"/><path d="m13744 3626.5c76.4 0 152.6-22.8 218.1-65.7 361.4-236.8 686.8-125.9 1016 19.5 292.4 129.1 322 369 324.1 439.4 1.2 39.9-10.9 72-37 98-74.6 74.1-234.9 69.2-236.6 69.2h-0.8c-11 0-20.5 8.1-22 19.1-1.7 11.2-45.3 277.2-382.5 324.2-190 26.3-474.8-177.6-627.7-287.2l-35.2-25.1c-54.1-38.3-111-38-112.7-38.5-77.4-4.3-884.6 39.9-1741.2 175.5-808 127.8-1834 365.9-2133.3 774.5-1 1.4-1.84 2.9-2.5 4.4l-1148 2666.9-724.01-2022.9 646.93-1234c325.51-620.9 963.19-1006.6 1664.2-1006.6 30.4 0.7 3091.8 66.8 3296 87.4 12.7 1.3 25.4 1.9 38.2 1.9zm656.6-246.8c-149.6 0-303.7 39.5-462.9 143.8-67.9 44.5-148.7 64.6-227.4 56.7-205.9-20.7-3173.8-84.8-3300-87.6-718.16 0-1371 394.9-1704.2 1030.5l-651.47 1242.6c-2.9 5.5-3.35 12-1.24 17.9l746.38 2085.5c3.08 8.6 11.14 14.5 20.3 14.8 9.08 0.5 17.56-5.1 21.18-13.5l1169.4-2716.6c549.7-742.7 3708.4-945.7 3833.3-930.1 1.6 0.3 2.2 0.4 3.9 0.3 1.3 0.1 45.3 0.9 86.8 30.3l35 25c169.1 121.2 452.1 324 659.9 295 316.8-44.1 398.7-274.3 416.2-342.8 48.5-0.8 178.4-10.2 250.8-82.1 35-34.7 51.9-78.8 50.3-131.1-2.3-77-34.4-339.1-350.7-478.8-190.1-84-388.4-159.8-595.5-159.8"/><path d="m13035 4760.7 298.9 523.2 245.4-159.2c13.5-8.8 24.8-20.6 32.9-34.6l14.7-25.2c18.4-31.8 52.6-51.4 89-51 19.7 0.3 39.2-5.4 56-16.3l1824.7-1181.8c15-9.7 28.7-21.4 40.8-34.7l368.7-408.8-513.3 116c-27.9 6.3-55 16.2-80.5 29.6l-1920.3 1003.9c-16.4 8.6-30.3 21.5-39.9 37.2l-2.5 4c-18.6 30.3-51.7 48.9-86.8 48.7h-17.8c-16.2-0.1-32.3 3.8-46.9 11.5l-263.1 137.5" fill="#fff"/><path d="m13364 4634c42.5 0 82.9-22.7 105.4-59.3l2.4-3.9c7.7-12.4 18.5-22.5 31.3-29.2l1920.3-1004c23.8-12.4 49.1-21.7 75.2-27.6l444.7-100.4-321.7 356.5c-10.7 11.9-22.9 22.3-36.4 31l-1824.7 1181.8c-13.1 8.5-27.9 13.4-43.5 12.7h-1.5c-43.9 0-84.9 23.7-107.1 62.1l-14.7 25.2c-6.3 10.9-15.2 20.3-25.8 27.1l-225.5 146.4-275.7-482.7 242.5-126.8c11.4-5.9 23.6-8.8 36.5-8.9h17.8 0.5zm2642.9-1284c-1.6 0-3.2 0.2-4.9 0.5l-513.3 116c-29.8 6.7-58.7 17.4-85.9 31.6l-1920.4 1004c-19.9 10.4-36.7 26.1-48.5 45.3l-2.5 3.9c-14.4 23.5-40.3 38.1-67.4 38.1h-0.3-17.8-0.5c-19.6 0-39.2 4.8-56.8 14l-263.1 137.5c-5.4 2.8-9.4 7.7-11.1 13.5s-1 12.1 2.1 17.4l298.9 523.2c3 5.3 8.1 9.1 14.1 10.6 5.9 1.4 12.2 0.4 17.4-3l245.3-159.2c16.4-10.6 30.3-25.1 40.1-42.1l14.7-25.2c14.3-24.7 40.4-39.9 68.5-39.9h2.5c23.6 0 46.7-6.8 66.8-19.9l1824.7-1181.7c16.7-10.9 31.9-23.8 45.2-38.6l368.8-408.8c6.5-7.2 7.6-17.8 2.7-26.2-4.1-6.9-11.5-11-19.3-11"/><path d="m15505 3562.5c-3.4 0-6.9 0.8-10.2 2.5-10.9 5.7-15.2 19.1-9.6 30.1l109.6 212.3c5.7 10.9 19.1 15.2 30.1 9.6 10.9-5.7 15.2-19.1 9.6-30.1l-109.6-212.3c-4-7.6-11.8-12.1-19.9-12.1"/><path d="m12909 5543 434.8-262.8-306.8-522.4-434.8 262.8c-79.7 48.1-107 150.6-61 228.9l140.3 238.9c45.9 78.3 147.8 102.7 227.5 54.6"/><path d="m12822 5545.4c-11.8 0-23.7-1.4-35.4-4.4-36.2-9.2-66.5-31.9-85.3-63.9l-140.3-238.9c-39.8-67.7-15.9-156.7 53.3-198.5l415.5-251.1 284.2 483.9-416 251.4c-23.5 14.2-49.7 21.5-76 21.5zm215.6-809.9c-4 0-8 1.1-11.5 3.2l-434.9 262.8c-89.9 54.4-120.7 170.7-68.7 259.3l140.3 238.9c24.9 42.4 65 72.4 112.9 84.5 49.4 12.5 101 4.7 145.4-22.1l434.8-262.8c10.5-6.3 13.9-19.9 7.7-30.4l-306.8-522.4c-3-5.1-7.9-8.9-13.7-10.3-1.8-0.5-3.7-0.7-5.5-0.7"/><path d="m13466 4664c-3.9 0-7.8 1-11.4 3.2-10.6 6.4-14 20.1-7.6 30.6l147.9 245.8c6.4 10.5 20.1 13.9 30.6 7.6 10.6-6.4 14-20.1 7.6-30.7l-147.9-245.7c-4.2-6.9-11.6-10.8-19.2-10.8"/><path d="m14339 4456.2c-4 0-8.1 1.1-11.8 3.4l-544.5 341.8c-10.5 6.5-13.6 20.3-7.1 30.7 6.6 10.5 20.4 13.6 30.8 7.1l544.5-341.8c10.4-6.6 13.6-20.3 7-30.7-4.2-6.8-11.5-10.5-18.9-10.5"/><path d="m15474 3752.1c-4 0-8.1 1.1-11.7 3.4l-212.7 132.4c-10.5 6.6-13.7 20.3-7.2 30.8 6.5 10.4 20.3 13.6 30.7 7.1l212.7-132.4c10.5-6.5 13.7-20.3 7.2-30.8-4.3-6.7-11.5-10.5-19-10.5"/><path d="m12989 4945.4c-4 0-8 1.1-11.6 3.3l-331.4 203.5c-10.5 6.5-13.8 20.2-7.3 30.7 6.4 10.5 20.2 13.8 30.7 7.3l331.3-203.5c10.5-6.4 13.8-20.1 7.4-30.6-4.3-6.9-11.6-10.7-19.1-10.7" fill="#fff"/><path d="m13848 4201.7s445.4 55.5 729 16.2c220.9-30.7 874.7 126.3 738.1-296.6-29.4-91.1-44.9-151.8-125.9-237.7-44.2-47-165.4-143.9-234.1-174.2-333.9-147.5-636.5-209.3-1006.1 33.5-71.2 46.7-156 68-240.7 59.5-49.3-5 124 595.8 139.7 599.3" fill="#fff"/><path d="m14446 3357.7c-163.4 0-329.3 47.9-509.9 166.5-67.1 44-147.2 63.9-226.2 56-54.4-5.5-228.7-11.5-236.1-11.8-12.3-0.6-22.6 9.2-23 21.5-0.5 12.3 9.1 22.7 21.5 23.1 1.8 0 180.2 6.3 233.1 11.6 89 8.9 179.6-13.5 255.2-63.1 353.7-232.3 639-184.4 984.8-31.7 64 28.3 183 122.5 226.9 169.1 72 76.4 89.1 130 115 211.1l5.9 18.1c25.3 78.5 23.1 136-6.8 175.9-66.4 88.5-263.7 82.9-437.8 78.1-109.5-3.1-212.9-6-278.9 14.5-336.5 104.5-711.8-14.9-715.5-16.1-18.6-4.3-67.1-2.8-180.8 4.9-12.3 0.8-21.5 11.5-20.7 23.8s11.2 21.6 23.8 20.7c98.8-6.7 154.5-8.9 165.8-6.4 13.9 4.6 390.4 124.5 740.6 15.7 58.9-18.3 158.8-15.5 264.4-12.6 185 5.3 394.6 11.1 474.8-95.9 38.7-51.6 43.2-124.4 13.5-216.3l-5.8-18c-26.7-83.8-46.1-144.3-125-228.1-46.2-49-170.5-148-241.3-179.3-178.7-78.9-346.7-131.3-517.5-131.3"/><path d="m6998.8 9322.8s1371.6-181.7 1827.2-736.8c576.94-703 825.63-1747.5 906.43-2199 23.74-132.6 20.91-268.5-8.36-400l-33.57-150.8c-118.48-532.2-603.9-901.1-1148.4-872.8h27.27c-88.02 4.5-216.39 33.6-253.66 113.5l-144.1 262.9-13.56-94.7c-108.33-699.6 457.05-1657.9 457.05-1657.9l-1622.3 218.9c-833.51 83.7-1626.6 412.1-2263 957-345.51 295.8-612.63 572.5-727.88 908.7-195.69 570.7-177.82 733.4-232.7 1425.9-37.37 471.5 100.98 942.5 396.71 1311.6 434.6 542.5 1271.2 1111.6 2832.9 913.5" fill="#fff"/><path d="m6390.9 9340.6c-1181 0-1846.4-494.4-2207.6-945.2-290.24-362.3-429.42-822.5-391.88-1296 8.76-110.6 15.67-207.7 21.89-295 32.64-458.6 46.15-648.5 209.66-1125.4 120.04-350.1 417.61-639 721.29-899 628.13-537.8 1406.4-866.9 2250.7-951.7l1578.4-212.9c-106.13 190-534.48 1005.8-437.34 1633.1l13.51 94.5c1.35 9.5 8.65 17 18.09 18.8 9.37 1.6 18.93-2.9 23.54-11.3l144.11-262.9c31.89-68.2 146.56-97.3 235.26-102 2.12-0.1 4.14-0.5 6.05-1.1 521.44-11.9 978.06 343.9 1092.2 856.6l33.56 150.8c28.77 129.2 31.51 260.8 8.18 391.2-58.54 327-296.55 1451.4-901.72 2188.8-444.83 542-1799.2 727-1812.9 728.8-215.22 27.3-416.67 39.9-604.97 39.9zm2224.2-5775.7c-0.99 0-1.98 0.1-2.98 0.2l-1622.4 218.9c-852.64 85.6-1639.4 418.3-2274.5 962.1-308.49 264.2-610.98 558.2-734.47 918.5-165.4 482.4-179.03 673.9-211.96 1136.6-6.22 87.3-13.13 184.2-21.88 294.7-38.43 484.8 104.18 956.2 401.56 1327.4 425.87 531.5 1266.5 1123 2853.1 921.7 0.04-0.1 0.08-0.1 0.12-0.1 56.37-7.4 1385.6-189.2 1841.5-744.8 612.02-745.7 852.14-1879.4 911.16-2209.2 24.38-136.2 21.5-273.7-8.55-408.7l-33.56-150.8c-121.3-544.9-613.53-919.3-1171.4-890.2-3.74 0.2-7.22 1.3-10.24 3.1-96.71 11.3-200.23 48.2-235.2 123.2l-111.28 202.9-4.09-28.5c-105.92-684 448.57-1633.8 454.19-1643.3 4.34-7.4 4.09-16.6-0.63-23.7-4.16-6.3-11.18-10-18.58-10"/><path d="m8264.6 5070.6c-8.33 0-16.32 4.6-20.14 12.7l-384.17 806.7c-5.29 11.2-0.57 24.5 10.55 29.8 11.1 5.2 24.42 0.6 29.72-10.6l384.17-806.8c5.29-11.1 0.58-24.4-10.56-29.7-3.09-1.4-6.34-2.1-9.57-2.1"/><path d="m7213.8 12070 100.72 67.2c80.83 53.9 114.87 156.1 81.16 247.2-101.17 273.4-470.1 749.9-1812.1 388-1368.4-369-1126.4-2564.6 39.26-3033.8 1165.7-469.2 1561.6 1942.9 1561.6 1942.9l29.33 388.5"/><path d="m7045.6 12020c15.62 83.8 127.11 102.2 169.28 28.2 102.38-179.7 151.19-304.8 167.55-381.1 21.99-102.6-73.31-205.3-22-315.3 51.33-109.9 131.97-234.6 139.3-432.5 7.16-193.4 203.33-1079.9-485.39-1051.9-27.04 1.1-49.66-20.2-49.32-47.2 1.67-135 8.9-506.1 38.86-707 16.34-109.5-51.9-213.6-158.44-243.7-275.71-77.9-789.04-187.5-1173.2-62.6-99.87 32.5-152.28 142-116.69 240.7 45.41 126.1 108.86 480.5 67.32 691.3 0 0 230.03 22.7 486.17 140.2 393.72 180.6 587.45 620.4 478.66 1039.7-23.41 90.2-74.02 218.4-21.29 354.2 136.03 350.3 339.46-1.8 339.46-1.8l139.71 748.8" fill="#fff"/><path d="m5648.9 9719.4c34.27-219.3-27.38-554.7-72.38-679.6-15.31-42.5-12.8-88.3 7.05-128.8 19.56-40 53.49-69.5 95.55-83.2 379.29-123.3 889.72-13.5 1160.2 62.9 95.8 27 157.03 121.1 142.44 218.9-29.82 199.9-37.28 563.1-39.11 710-0.23 19 7.17 36.8 20.84 50.1 13.66 13.3 32.39 20.5 51.69 19.7 153.46-6.2 272.11 34.6 353.03 121.3 185.43 198.7 142.09 592 118.81 803.4-4.86 44.1-8.7 79-9.64 104.1-5.93 160.1-60.85 269.9-109.31 366.9-9.8 19.6-19.27 38.5-27.91 57-32.23 69.1-12.93 135.7 4.09 194.5 12.78 44.1 24.83 85.8 16.3 125.5-10.88 50.8-46.8 167.1-165.12 374.8-17.69 31-48.62 37.9-71.71 34.1-22.93-3.9-49.75-20.5-56.26-55.4l-139.71-748.8c-1.71-9.2-8.95-16.3-18.14-17.9-9.07-1.6-18.4 2.8-23.09 10.8-24.59 42.5-103.9 151.2-177.87 145.7-45.72-3.6-86.59-50.9-121.49-140.8-42.92-110.5-12.84-216.4 11.33-301.5 3.86-13.6 7.55-26.6 10.74-39 112.92-435.1-93.55-883.3-490.93-1065.6-211.84-97.2-403.62-130.1-469.43-139.1zm428.52-991.6c-142.52 0-284.25 16-412.09 57.6-53.64 17.5-96.91 55.1-121.82 106-25.21 51.5-28.39 109.5-8.95 163.5 43.94 122 107.21 472.4 66.42 679.4-1.21 6.2 0.23 12.6 3.98 17.6 3.75 5.1 9.45 8.3 15.71 8.9 2.27 0.3 229.61 23.8 479.06 138.3 377.7 173.3 573.84 599.7 466.36 1013.8-3.11 12.1-6.72 24.7-10.49 38-24.61 86.7-58.32 205.4-9.99 329.9 41.66 107.2 95.38 164.1 159.69 169.1 78.68 6 149.66-69.7 188.62-121.5l129.73 695.4c8.83 47.4 45.22 83.2 92.7 91.1 47.53 8.1 93.91-13.9 117.87-56 115.21-202.2 156.03-322.3 169.99-387.4 10.87-50.8-3.35-99.8-17.09-147.3-16.28-56.2-31.66-109.3-6.5-163.2 8.47-18.2 17.75-36.8 27.37-56 47.99-96 107.71-215.4 114-385.2 0.87-23.5 4.82-59.3 9.4-100.9 24.07-218.4 68.86-625-130.54-838.6-90.19-96.7-220.66-142.4-387.45-135.5-7.32 0.3-13.8-2.2-18.81-7.1-4.79-4.6-7.39-10.9-7.31-17.6 1.82-145.9 9.22-506.7 38.63-703.9 17.88-119.9-57.1-235.3-174.43-268.5-185.23-52.3-481.26-119.9-774.06-119.9"/><path d="m5032.7 12329s-673.34 321.4-1163-137.7-964.1-1469.1-229.55-2570.9c461.63-692.5 639.19-1239.9 707.41-1551 22.85-104.3 159.38-130.3 218.53-41.5 295.63 443.7 834.96 1422.5 573.77 2342.3-351.97 1239.6-107.12 1958.8-107.12 1958.8"/><path d="m7501.6 11006c-7.58 0-14.97 3.9-19.14 10.9-6.34 10.5-2.92 24.2 7.64 30.6 220.99 132.6 77.84 507.3 38.11 599.8l-625.22-319.2c-10.95-5.5-24.42-1.2-30 9.8-5.6 10.9-1.26 24.4 9.72 30l646.14 329.8c5.33 2.8 11.57 3.2 17.24 1.3 5.7-1.9 10.37-6 12.99-11.4 9.93-20.6 240.2-506.6-46.02-678.4-3.6-2.1-7.55-3.2-11.46-3.2"/><path d="m7519.5 10749c-5.74 0-11.48 2.2-15.84 6.6-8.68 8.8-8.61 22.9 0.13 31.6l88.13 87.3c26.84 26.6 30.33 68.2 8.32 98.9l-60.62 84.6c-7.18 10-4.87 24 5.14 31.1 10 7.2 23.95 4.9 31.12-5.1l60.63-84.6c34.82-48.6 29.29-114.4-13.18-156.5l-88.13-87.4c-4.34-4.3-10.03-6.5-15.7-6.5"/><path d="m6810.4 10672c-14.36 0-29.64 1.6-45.59 5.6-76.25 18.9-141.74 84.1-194.65 193.8-5.34 11.1-0.68 24.4 10.4 29.8 11.1 5.4 24.43 0.7 29.79-10.4 46.71-96.8 102.08-154 164.6-169.8 67.17-17 121.29 21.3 121.82 21.7 9.98 7.2 23.89 5 31.13-4.9 7.23-9.9 5.13-23.8-4.76-31.1-2.33-1.7-48.1-34.7-112.74-34.7"/><path d="m4863.5 12389s625.65-188.4 369.54-788.5c0 0 289.04 208.6 281.72 534.2-7.32 325.7-248.8 431.8-409.78 428.1-160.99-3.7-241.48-173.8-241.48-173.8" fill="#fff"/><path d="m4896 12402c73.72-27.6 281.82-120.6 375.37-320.7 55.92-119.5 60.3-255.5 13.25-405.1 82.11 81.3 212.6 244.7 207.79 458.6-3.1 137.8-51.2 248.7-139.12 320.8-67.71 55.5-160.7 87.1-247.86 85.5-111.6-2.5-182.4-95.7-209.43-139.1zm336.97-823.2c-4.93 0-9.87 1.7-13.93 4.9-7.82 6.3-10.52 17-6.59 26.2 72.82 170.6 79.1 322.8 18.65 452.3-103.65 222-371.41 305.2-374.1 306.1-6.22 1.8-11.31 6.3-13.93 12.3-2.64 5.9-2.56 12.7 0.21 18.5 3.53 7.5 88.36 182.7 261.13 186.6 99.49 2.2 200.36-32.6 277.17-95.6 68.54-56.2 151.12-163.3 155.42-354.3 7.5-333.5-278.79-543.9-290.99-552.7-3.89-2.8-8.47-4.3-13.04-4.3"/><path d="m3670.4 7259.8c516.35-312.1 1566.5-757 3256.6-653.8 124.28 7.5 239.18-66.1 283.04-182.7l105.43-422c185.38-741.9 533.99-1433.1 1020.4-2023.2l252.5-306.3c38.86-47.1 2.27-117.9-58.66-113.4l-1114.3 81.9c-1912.7 253-3398.8 1212.3-3875.4 2959.9l-127.13 466.2c-41.26 151.3 123.29 274.5 257.49 193.4"/><path d="m14183 19148h3669.3c207.7 0 366.7-169 366.7-376.8v-1061.9c0-207.7-159-375.5-366.7-375.5h-132.7v-709.2l-482.8 709.2h-3053.8c-207.7 0-385.6 167.8-385.6 375.5v1061.9c0 207.8 177.9 376.8 385.6 376.8" fill="#fff"/><path d="m14183 19125c-196.9 0-363.3-162.4-363.3-354.5v-1061.9c0-191.5 166.4-353.2 363.3-353.2h3053.8c7.4 0 14.3-3.7 18.5-9.8l442-649.3v636.8c0 12.3 10 22.3 22.3 22.3h132.7c193.1 0 344.3 155.1 344.3 353.2v1061.9c0 198.8-151.2 354.5-344.3 354.5zm3536.6-2523.4c-7.2 0-14.2 3.6-18.4 9.8l-476.2 699.4h-3042c-221.1 0-407.9 182.2-407.9 397.8v1061.9c0 216.3 186.8 399.1 407.9 399.1h3669.3c218.1 0 389-175.3 389-399.1v-1061.9c0-223.1-170.9-397.8-389-397.8h-110.3v-686.9c0-9.8-6.4-18.4-15.8-21.3-2.2-0.6-4.4-1-6.6-1"/><path d="m15561 17977c-3.1 0-6.2 0.6-9.2 2l-505.4 229.2c-7.9 3.6-13.1 11.5-13.1 20.3 0 8.7 5.1 16.6 13.1 20.3l505.3 230.6c11.3 5.1 24.5 0.2 29.6-11.1 5.1-11.2 0.2-24.4-11-29.5l-460.8-210.3 460.7-208.9c11.2-5.1 16.2-18.3 11.1-29.5-3.7-8.3-11.8-13.1-20.3-13.1"/><path d="m16285 17977c-8.5 0-16.6 4.8-20.3 13.1-5.1 11.2-0.1 24.4 11.1 29.5l460.7 208.9-460.8 210.3c-11.2 5.1-16.1 18.3-11 29.5 5.1 11.3 18.3 16.2 29.6 11.1l505.3-230.6c8-3.7 13.1-11.6 13.1-20.3 0-8.8-5.1-16.7-13.1-20.3l-505.4-229.2c-3-1.4-6.1-2-9.2-2"/><path d="m15713 17708c-2.6 0-5.3 0.5-8 1.5-11.5 4.4-17.2 17.3-12.8 28.8l393.4 1029.2c4.4 11.5 17.3 17.3 28.8 12.9s17.3-17.3 12.9-28.8l-393.4-1029.2c-3.4-8.9-11.9-14.4-20.9-14.4"/><path d="m14991 5295.1c-8.6 0-16.7 5-20.4 13.3-5 11.3 0.1 24.4 11.3 29.4 1150.8 509.8 2194.6 1335.7 3018.5 2388.6 7.5 9.7 21.6 11.5 31.3 3.8 9.7-7.5 11.4-21.6 3.8-31.3-828.4-1058.6-1878-1889.2-3035.5-2401.9-2.9-1.3-6-1.9-9-1.9"/><path d="m14880 4707.3c-8.9 0-17.3 5.4-20.8 14.2-4.4 11.5 1.3 24.4 12.8 28.9 1107.1 429.5 2099 1110.5 2948.1 2024 8.4 9 22.6 9.5 31.5 1.2 9-8.4 9.6-22.5 1.2-31.6-853.8-918.5-1851.2-1603.3-2964.7-2035.2-2.7-1-5.4-1.5-8.1-1.5"/><path d="m10002 20895c-10.12 0-19.3 6.9-21.68 17.2-2.77 12 4.73 24 16.73 26.8 1152.2 265.7 2293.8 283.5 3392.6 53 12.1-2.6 19.8-14.4 17.2-26.4-2.5-12.1-14.3-19.8-26.4-17.3-1092.5 229.2-2227.5 211.5-3373.4-52.8-1.7-0.4-3.4-0.5-5.1-0.5"/><path d="m13818 21360c-1.8 0-3.7 0.3-5.6 0.7-941.6 244.2-1927.1 305.9-2929.2 183.5-12.2-1.4-23.3 7.2-24.8 19.4s7.2 23.4 19.4 24.9c1007.7 123.1 1998.8 61 2945.8-184.6 11.9-3.1 19.1-15.2 16-27.2-2.6-10-11.7-16.7-21.6-16.7"/><path d="m14301 5247.2c0 82.4 66.8 149.1 149.2 149.1s149.2-66.7 149.2-149.1c0-82.3-66.8-149.1-149.2-149.1s-149.2 66.8-149.2 149.1"/><path d="m4070.2 13959c-5.55 0-11.1 2.1-15.43 6.2-8.89 8.6-9.19 22.7-0.67 31.6l82.07 85.6c8.52 8.9 22.65 9.2 31.53 0.7 8.9-8.5 9.19-22.6 0.68-31.5l-82.07-85.7c-4.38-4.6-10.24-6.9-16.11-6.9"/><path d="m3783 13659c-5.55 0-11.11 2-15.43 6.2-8.9 8.5-9.19 22.6-0.68 31.5l82.07 85.7c8.53 8.9 22.67 9.2 31.54 0.7 8.89-8.5 9.19-22.7 0.68-31.6l-82.07-85.6c-4.38-4.6-10.24-6.9-16.11-6.9"/><path d="m3863.5 13955c-5.65 0-11.3 2.2-15.65 6.4l-83.31 82c-8.77 8.7-8.88 22.8-0.24 31.6s22.76 8.9 31.54 0.2l83.31-82c8.78-8.6 8.89-22.7 0.25-31.5-4.37-4.4-10.14-6.7-15.9-6.7"/><path d="m4155.1 13668c-5.65 0-11.31 2.1-15.65 6.4l-83.3 81.9c-8.78 8.7-8.88 22.8-0.25 31.6 8.65 8.8 22.77 8.9 31.55 0.2l83.3-81.9c8.78-8.7 8.88-22.8 0.25-31.6-4.37-4.4-10.14-6.6-15.9-6.6"/><path d="m14190 21360h0.3zm80.3-4.9c-24.2 0-48.4-5.2-71.1-15.4-89.6-40.2-130.3-147.4-90.8-238.9 19.2-44.7 54.4-78.9 99.1-96.2 43.6-17 91.2-15.7 134 3.5 89.6 40.2 130.3 147.4 90.8 238.9-19.3 44.7-54.5 78.8-99.1 96.2-20.4 7.9-41.7 11.9-62.9 11.9zm0.1-407c-26.7 0-53.4 5-79.1 14.9-55.9 21.7-99.9 64.4-123.9 120.1-49.1 113.8 1.8 247.1 113.5 297.3 53.8 24.1 113.6 25.7 168.5 4.4 55.8-21.8 99.8-64.4 123.9-120.1 49.1-113.8-1.8-247.2-113.5-297.3-28.6-12.9-59-19.3-89.4-19.3"/></g></g></svg>
