<?xml version="1.0" encoding="UTF-8"?>
<svg version="1.1" viewBox="0 0 3333.3 3333.3" xml:space="preserve" xmlns="http://www.w3.org/2000/svg"><g transform="matrix(1.3333 0 0 -1.3333 0 3333.3)"><g transform="scale(.1)"><path d="M 25000,0 H 0 V 25000 H 25000 V 0" fill="#fff"/><path d="m5529.9 7759.3c-172.01 310.8-59.49 702.2 251.33 874.2s702.24 59.5 874.25-251.3 59.49-702.2-251.33-874.2c-310.82-172.1-702.24-59.5-874.25 251.3zm1079.4-880 218.62 121-76.37 262c45.61 37.1 87.6 77.4 125.53 120.6l258.74-85.7 128.84 214.1-197.19 188.8c20.62 54.2 36.68 110.1 48.04 167.1l267.33 55.2 4.53 249.8-264.76 64.8c-9.17 56.8-23.33 113.2-42.29 168.9l203.85 181.4-120.99 218.6-262-76.3c-37.08 45.6-77.39 87.6-120.63 125.5l85.7 258.7-214.08 128.9-188.77-197.2c-54.28 20.6-110.17 36.7-167.1 48l-55.23 267.4-249.82 4.5-64.79-264.8c-56.79-9.1-113.24-23.3-168.88-42.3l-181.45 203.9-218.62-121 76.37-262c-45.6-37.1-87.59-77.4-125.52-120.6l-258.75 85.7-128.83-214.1 197.18-188.8c-20.61-54.2-36.68-110.1-48.04-167.1l-267.31-55.2-4.54-249.8 264.76-64.8c9.16-56.8 23.34-113.3 42.29-168.9l-203.85-181.4 120.99-218.7 262 76.4c37.08-45.6 77.38-87.6 120.63-125.5l-85.71-258.8 214.1-128.8 188.75 197.2c54.28-20.6 110.18-36.7 167.11-48.1l55.23-267.3 249.82-4.5 64.79 264.7c56.79 9.2 113.24 23.4 168.88 42.3l181.44-203.8"/><path d="m8262.5 5446.9c-281.06 507.9-97.2 1147.4 410.65 1428.5 507.85 281 1147.4 97.2 1428.4-410.7 281.1-507.8 97.2-1147.4-410.63-1428.4-507.85-281.1-1147.4-97.2-1428.4 410.6zm1763.6-1437.8 357.2 197.7-124.8 428.1c74.6 60.6 143.2 126.4 205.1 197.1l422.8-140.1 210.5 349.8-322.2 308.5c33.7 88.7 60 180 78.5 273l436.8 90.2 7.4 408.2-432.6 105.9c-15 92.8-38.1 185-69.1 275.9l333.1 296.5-197.7 357.2-428.1-124.8c-60.6 74.5-126.4 143.1-197.1 205.1l140.1 422.8-349.8 210.5-308.48-322.2c-88.68 33.7-180 59.9-273.02 78.5l-90.24 436.8-408.19 7.4-105.85-432.6c-92.79-15-185.02-38.2-275.93-69.1l-296.46 333-357.2-197.6 124.77-428.1c-74.52-60.6-143.12-126.5-205.08-197.1l-422.77 140-210.51-349.8 322.17-308.4c-33.67-88.7-59.93-180-78.5-273l-436.76-90.3-7.41-408.2 432.59-105.8c14.97-92.8 38.13-185 69.09-275.9l-333.06-296.5 197.68-357.2 428.08 124.8c60.59-74.6 126.43-143.2 197.11-205.1l-140.04-422.8 349.8-210.5 308.42 322.2c88.68-33.7 180.01-59.9 273.03-78.5l90.24-436.8 408.19-7.4 105.87 432.6c92.78 15 185.01 38.1 275.91 69.1l296.45-333.1"/><path d="m3924 18748h12868c172.5 0 323.1-139.9 336.3-312.4l639-8349.7c13.2-172.6-115.9-312.4-288.5-312.4h-12868c-172.52 0-323.07 139.8-336.27 312.4l-639.06 8349.7c-13.21 172.5 115.93 312.4 288.46 312.4" fill="#fff"/><path d="m3924 18725c-76.77 0-146.63-29.7-196.66-83.8-50.27-54.2-74.7-126.6-68.8-203.7l639.07-8349.8c12.26-160.5 152.78-291 313.24-291h12868c76.8 0 146.7 29.7 196.7 83.8 50.3 54.2 74.7 126.6 68.8 203.7l-639 8349.8c-12.3 160.5-152.9 291-313.3 291zm13555-8974.5h-12868c-184.04 0-345.2 149.7-359.27 333.7l-639.07 8349.8c-6.9 90.1 21.87 174.8 80.97 238.6 58.88 63.6 140.74 98.6 230.52 98.6h12868c184 0 345.2-149.7 359.3-333.7l639.1-8349.8c6.9-90.1-21.9-174.8-81-238.6-58.9-63.6-140.8-98.6-230.6-98.6"/><path d="m13965 12195c-11.9 0-22 9.3-23 21.4l-43.9 573.9c-1 12.7 8.6 23.8 21.3 24.8 12.3 1.1 23.8-8.6 24.7-21.3l44-573.9c0.9-12.7-8.6-23.8-21.3-24.8-0.6 0-1.2-0.1-1.8-0.1"/><path d="m13618 10249h-8123.6c-250.81 0-462.26 195.9-481.42 446l-160.45 2096.3c-0.97 12.7 8.55 23.8 21.26 24.8 12.58 0.9 23.81-8.6 24.77-21.3l160.45-2096.3c17.31-226.1 208.56-403.3 435.39-403.3h8123.6c123 0 236.7 49.7 320.3 139.9s124.5 207.5 115.1 330.1l-51.9 677.9c-1 12.7 8.5 23.8 21.2 24.8 12.4 0.9 23.8-8.6 24.8-21.3l51.9-677.9c10.2-133.6-36.1-266.6-127.2-364.9-91.1-98.4-220.2-154.8-354.2-154.8"/><path d="m4637 15880c-11.95 0-22.07 9.2-22.99 21.3l-92.06 1202.7c-10.23 133.6 36.16 266.6 127.24 364.9 91.06 98.4 220.18 154.7 354.18 154.7h294.56c12.76 0 23.08-10.3 23.08-23 0-12.8-10.32-23.1-23.08-23.1h-294.56c-122.98 0-236.74-49.7-320.32-139.9-83.58-90.3-124.45-207.5-115.07-330.1l92.05-1202.7c0.98-12.7-8.54-23.8-21.25-24.7-0.59-0.1-1.2-0.1-1.78-0.1"/><path d="m8669.1 17577h-2600.2c-12.76 0-23.08 10.3-23.08 23.1 0 12.7 10.32 23 23.08 23h2600.2c12.76 0 23.08-10.3 23.08-23 0-12.8-10.32-23.1-23.08-23.1"/><path d="m14502 14544h2208.6l-56 730.8h-2208.6zm2233.5-46.2h-2254.9c-12.1 0-22.1 9.3-23 21.4l-59.5 776.9c-0.5 6.4 1.7 12.8 6.1 17.5s10.5 7.4 16.9 7.4h2254.9c12.1 0 22.1-9.3 23-21.4l59.5-776.9c0.5-6.4-1.7-12.8-6.1-17.5s-10.5-7.4-16.9-7.4"/><path d="m14611 13128h2208.6l-56 730.8h-2208.6zm2233.5-46.1h-2254.9c-12.1 0-22.1 9.3-23 21.3l-59.5 776.9c-0.5 6.4 1.7 12.8 6.1 17.5s10.5 7.4 16.9 7.4h2254.9c12.1 0 22.1-9.3 23-21.3l59.5-777c0.5-6.4-1.7-12.7-6.1-17.4s-10.5-7.4-16.9-7.4"/><path d="m14719 11711h2208.6l-55.9 730.8h-2208.7zm2233.5-46.2h-2254.9c-12 0-22.1 9.3-23 21.3l-59.5 777c-0.5 6.4 1.7 12.7 6.1 17.4s10.5 7.4 16.9 7.4h2254.9c12.1 0 22.1-9.3 23.1-21.3l59.4-777c0.5-6.4-1.7-12.7-6.1-17.4-4.3-4.7-10.5-7.4-16.9-7.4"/><path d="m14827 10295h2208.6l-56 730.8h-2208.5zm2233.5-46.2h-2254.9c-12 0-22.1 9.3-23 21.4l-59.5 776.9c-0.5 6.4 1.8 12.7 6.1 17.5 4.4 4.7 10.5 7.3 17 7.3h2254.8c12.1 0 22.1-9.2 23.1-21.3l59.4-776.9c0.5-6.4-1.7-12.8-6.1-17.5-4.3-4.7-10.5-7.4-16.9-7.4"/><path d="m14396 15926h2208.5l-126.4 1651.2h-2208.6zm2233.5-46.1h-2254.9c-12.1 0-22.1 9.2-23 21.3l-130 1697.3c-0.5 6.4 1.7 12.7 6.1 17.4 4.4 4.8 10.5 7.4 16.9 7.4h2254.9c12.1 0 22.1-9.3 23-21.3l130-1697.3c0.5-6.4-1.7-12.7-6.1-17.4-4.4-4.8-10.5-7.4-16.9-7.4"/><path d="m13282 16380s1044-402.8 2299.9 617.1c576.2 468.1 926.9 1159 976 1899.8 9.5 144.7 74.2 280.3 180.7 378.8l779.1 496.5c15.3 9.7 35 8.5 48.9-3 15.2-12.4 13.2-37.3 12.4-47.4-7.4-90-250.8-310.4-337.9-506.7-27.4-61.6-56.7-159.9-43.3-302.9 109.4 32.7 218.8 65.3 328.3 97.9 23.4 7 48.8 0.2 65.6-17.5 19.7-21 15.5-53.4 13.8-66.5-14.1-109-270.8-289.5-415.1-440.6-59.7-62.6-143-164.9-214.4-321.7 31-375.2 46.1-1219.8-445.7-2072.4-920-1594.8-2784.3-1780.3-2979.7-1796.5l-268.6 2085.1" fill="#fff"/><path d="m13310 16346 260.9-2026.4c291.4 27.7 2059.2 256.7 2939.7 1783 443.1 768.1 485.3 1543.7 442.7 2059-0.4 3.9 0.4 7.9 2 11.5 57.2 125.6 130.8 235.9 218.8 328 48 50.3 108.7 104.2 167.3 156.2 109.3 96.9 233.2 206.8 241.6 271.5 1.3 10.4 4.5 34.6-7.8 47.6-10.9 11.5-27.1 15.8-42.2 11.3l-328.3-97.9c-6.6-2-13.8-0.9-19.6 3-5.7 3.9-9.4 10.1-10 17-10.9 116.6 4.3 222.3 45.2 314.4 45.6 102.7 130.9 209.4 206.1 303.5 65.3 81.6 126.9 158.6 129.9 195.7 1.5 19-1.4 25.5-4 27.7-6.3 5.2-15 5.7-21.8 1.3l-777.4-495.4c-101.7-94.8-162.7-223.2-171.9-361.9-49.7-750-408.5-1448.4-984.5-1916.2-653.5-530.7-1249.2-671.5-1633.9-696.2-334.2-21.3-567.2 36.9-652.8 63.3zm240.8-2074.4c-11.5 0-21.3 8.5-22.8 20.1l-268.6 2085c-1 8.1 2.3 16.1 8.7 21.1s14.9 6.3 22.5 3.4c10.3-4 1047-385.3 2277 613.6 566 459.6 918.7 1146.1 967.5 1883.3 10 151.2 76.8 291.2 188.1 394.2 1 1 2.1 1.8 3.3 2.6l779.1 496.5c23.8 15.1 54.3 13.3 76-4.6 24.5-20.2 21.7-54.2 20.7-67.1-4.2-51.2-64-126.1-139.8-220.8-73.5-92-156.9-196.1-200-293.4-34.4-77.4-49-165.8-43.6-263.3l300.9 89.7c32 9.6 66 0.5 88.9-23.8 27.4-28.9 22-69.8 20-85.3-10.6-81.8-130.1-187.8-256.6-300-58-51.4-117.9-104.6-164.7-153.6-83.1-87-152.9-191.2-207.6-309.8 42.3-521.9-1.9-1304.4-449.2-2079.9-918.3-1591.9-2787.7-1790.5-2997.8-1807.9h-2"/><path d="m6647.4 10268h5011.4c21.3 1795.2 736.3 3988.4 736.3 3988.4l1397.8-103.9 165.4 2472.9s-1424.8 105.4-2578 204.8c-778.6 67.1-2221.8-215-3077-405.3-438.36-97.6-827.02-349.2-1096.2-708.6l-801.23-1069.8 869.73-494c-745.37-1258.1-738.77-2857.8-628.09-3884.5"/><path d="m10107 13798 214.3-3550.1c3.3-54.1-26.2-104.5-74.2-126.8l-4151.4-1939.7c-41.39-19.3-85.88-13.8-120.3 8.4-33.12 21.4-130.85 83-130.85 83l-143.13 3570.1c-3.27 54.1 26.24 104.6 74.19 126.9l4168.3 2003.9s73.58-51.1 108.68-76.2c30.3-21.8 51.8-57 54.4-99.5"/><path d="m9974.6 13877 214.36-3550.1c3.3-54.1-26.2-104.5-74.2-126.8l-4140.1-1928.4c-81.23-37.8-174.4 19.9-179.93 111.5l-214.35 3550.1c-3.27 54.1 26.23 104.5 74.19 126.8l4140.1 1928.4c81.23 37.8 174.4-19.9 179.93-111.5" fill="#fff"/><path d="m9847.3 13977c-14.5 0-29.04-3.2-42.86-9.6l-4140.1-1928.4c-39.11-18.2-63.58-60.2-60.9-104.5l214.36-3550.1c2.19-36.3 21.73-68.8 52.27-87 29.44-17.6 63.97-19.4 94.9-5l4140.1 1928.4c39.1 18.2 63.5 60.2 60.9 104.5l-214.4 3550.1c-2.19 36.3-21.73 68.8-52.27 87-16.27 9.7-34.12 14.6-52.04 14.6zm-3925.2-5740.4c-26.06 0-51.98 7.1-75.6 21.1-43.69 26.1-71.62 72.4-74.73 123.9l-214.36 3550.1c-3.81 63 31.36 123 87.51 149.2l4140.1 1928.3c44.95 21 95.25 18.3 137.99-7.1 43.69-26.1 71.62-72.4 74.73-123.9l214.32-3550.1c3.8-63.1-31.3-123-87.5-149.2l-4140-1928.3c-20.1-9.4-41.3-14-62.39-14"/><path d="m9692.4 14157 214.36-3550.1c3.26-54.1-26.24-104.5-74.19-126.9l-4140.1-1928.3c-81.23-37.8-174.4 19.9-179.94 111.5l-214.35 3550.1c-3.27 54 26.23 104.5 74.19 126.8l4140.1 1928.4c81.23 37.8 174.4-19.9 179.93-111.5" fill="#fff"/><path d="m9565 14257c-14.49 0-29.03-3.2-42.85-9.6l-4140.1-1928.4c-39.09-18.2-63.57-60.2-60.88-104.6l214.36-3550c2.18-36.3 21.73-68.8 52.29-87 29.39-17.6 63.99-19.3 94.85-5l4140.1 1928.4c39.1 18.2 63.58 60.2 60.9 104.5l-214.36 3550.1c-2.21 36.3-21.75 68.8-52.31 87-16.26 9.7-34.11 14.6-52.01 14.6zm-3925.2-5740.5c-26.05 0-51.97 7.1-75.6 21.2-43.68 26-71.61 72.4-74.72 123.9l-214.36 3550.1c-3.81 63 31.34 123 87.48 149.1l4140.1 1928.4c44.92 21 95.19 18.4 137.94-7.1 43.71-26 71.66-72.4 74.77-123.9l214.37-3550.1c3.8-63.1-31.36-123-87.51-149.2l-4140.1-1928.3c-20.1-9.4-41.27-14.1-62.37-14.1"/><path d="m9456.5 13850 188.87-3127.9c2.88-47.6-23.12-92.1-65.37-111.8l-3647.8-1699c-71.57-33.4-153.67 17.5-158.54 98.2l-188.87 3128c-2.88 47.6 23.12 92.1 65.37 111.7l3647.8 1699.1c71.57 33.4 153.67-17.5 158.54-98.3" fill="#fff"/><path d="m9344.2 13936c-12.36 0-24.77-2.7-36.56-8.2l-3647.8-1699.1c-33.43-15.5-54.37-51.5-52.1-89.5l188.9-3127.9c1.87-31.1 18.59-58.9 44.72-74.5 25.1-15 54.61-16.5 81.03-4.2l3647.8 1699c33.43 15.6 54.35 51.6 52.07 89.6l-188.87 3127.9c-1.89 31-18.62 58.9-44.76 74.4-13.89 8.3-29.12 12.5-44.45 12.5zm-3458.5-5057.9c-23.45 0-46.75 6.4-68.01 19-39.26 23.5-64.37 65.1-67.17 111.4l-188.89 3127.9c-3.4 56.8 28.22 110.7 78.69 134.2l3647.8 1699c40.39 18.9 85.66 16.6 124.13-6.4 39.27-23.4 64.4-65 67.2-111.3l188.86-3128c3.41-56.7-28.19-110.6-78.66-134.1l-3647.8-1699.1c-18.07-8.4-37.14-12.6-56.12-12.6"/><path d="m8669.1 10164c-8.7 0-17.04 5-20.95 13.4-5.38 11.5-0.38 25.2 11.19 30.6l904.86 421.5c33.43 15.6 54.37 51.5 52.09 89.5l-20.96 347.2c-0.77 12.7 8.93 23.7 21.64 24.4 12.76 0.7 23.66-8.9 24.43-21.6l20.96-347.3c3.41-56.7-28.21-110.6-78.68-134l-904.87-421.5c-3.16-1.5-6.47-2.2-9.71-2.2"/><path d="m5769.6 12278c-8.68 0-17 4.9-20.92 13.3-5.41 11.5-0.45 25.3 11.09 30.7l598.63 280.6c11.63 5.5 25.29 0.4 30.7-11.1s0.45-25.2-11.09-30.7l-598.63-280.6c-3.17-1.5-6.51-2.2-9.78-2.2"/><path d="m6671.2 14517 1257.9-739.7s-1049.8-1714.4 545.82-3529.7l1031.1 126.6s-221.64-165.4-449.95-206.8c-228.32-41.3-277.16-284.6-277.16-284.6l468.64-257.2s-576.37-536.2-937.28-327c-360.9 209.1-3364.4 2458.9-1639.1 5218.4" fill="#fff"/><path d="m6679 14486c-486.54-787.5-629.34-1605-424.46-2430.2 366.77-1477.4 1745.7-2550.5 2067.4-2737 301.48-174.6 774.22 206.4 885.84 302.6l-439.9 241.4c-8.84 4.9-13.5 14.9-11.52 24.8 0.52 2.6 54.73 259.2 295.67 302.9 138.6 25.1 276.12 98.1 359.65 149.2l-933.88-114.7c-7.63-1-15.1 2-20.15 7.7-829.69 943.9-934.82 1860.4-876.91 2463 55.15 573.8 265.01 980.2 317.03 1073.6zm1822.8-5259c-70.98 0-139.8 15.2-202.98 51.9-325.03 188.4-1718.4 1272.8-2089.1 2765.8-209.65 844.4-60.94 1680.5 442 2484.8 6.63 10.6 20.44 14 31.26 7.7l1257.9-739.7c5.34-3.2 9.19-8.3 10.68-14.3 1.51-6 0.55-12.4-2.7-17.7-2.59-4.2-261.02-433.1-322.35-1076.4-56.38-591 47.1-1489.3 857.8-2416.8l1019 125.1c10.32 1.6 20.33-4.5 24.23-14.3 3.9-9.7 0.79-20.8-7.62-27.1-9.22-6.9-228.63-169.1-459.63-211-177.28-32.1-239.1-197.6-254.45-250.3l452.93-248.5c6.49-3.6 10.88-10.1 11.78-17.5 0.93-7.3-1.75-14.6-7.16-19.7-19.98-18.6-415.38-382-761.6-382"/><path d="m10168 17575c-125.2-78-321.83-200.5-540.88-135.1-233.22 69.6-426.78 332.9-383.51 509.1 37.91 154.4 235.31 150.9 265.51 311.7 28.4 151.4-136.25 208.8-147.51 394.8-15.01 247.9 253.03 543.6 501.51 550.7 152.48 4.3 167.88-103.7 344.18-114.3 240.2-14.4 287.9 181.4 560.5 207.8 196.4 19 356.7-64.6 491.7-135.1 200.2-104.5 331.8-173.1 344.2-280.5 25.4-219.9-488.8-255.1-963.7-810.4-172.7-201.9-237.6-352.7-472-498.7"/><path d="m10978 17391c185.3 502.8-218.9 1142.1-248.6 1194.8 0 0-228.6-190.4-533.5-169.9-305.01 20.4-279.58-392.4-279.58-392.4-165.83 36.6-194.73-74.9-153.7-302.5 41.03-227.7 267.08-161.1 267.08-161.1 31.5-37.7 64.6-70.4 98.6-99.1l-387.18-572.9c-105.7-156.4-253.37-279.8-426.05-356l-156.94-69.3c-40.9-18-32.58-78.5 11.72-84.4 306.7-41.2 1026.8-92.6 1567.2 222 32.5 18.8 24 68.1-12.7 75.9l-125.8 26.8c-89.3 19.1-135.9 118.1-93.6 199.1l196.3 375.5c68.4 2.8 127.2 12 169.9 20.9 49.4 10.2 89.4 45.3 106.8 92.6" fill="#fff"/><path d="m10978 17391h0.3zm-948.3 191.9c6.8 0 13.3-2.9 17.7-8.2 29-34.7 61.2-67.1 95.8-96.3 9-7.6 10.9-20.8 4.3-30.5l-387.26-572.9c-108.24-160.2-258.97-286.2-435.86-364.2l-156.93-69.3c-13.75-6.1-13.07-18.8-12.54-22.6 0.52-3.7 3.39-15.9 18.02-17.9 287.41-38.5 1014.1-94.3 1552.6 219.1 9.4 5.4 9 14.5 8.4 18.1-0.4 3-2.9 12.9-14.4 15.3l-125.6 26.8c-49.8 10.6-90.7 43.1-112.4 89.1-21.6 46-20.5 98.2 3 143.3l196.4 375.5c3.8 7.3 11.2 12.1 19.5 12.4 55.4 2.3 112.8 9.3 166.1 20.4 41.4 8.5 75 37.7 89.9 78 152.7 414.5-107.8 937.2-233.7 1152.6-64.8-47.1-268-176-528.4-158.8-67.6 4.5-122.7-13.8-163.8-54.7-102.63-101.9-91.29-311.1-91.15-313.2 0.43-7.2-2.55-14.2-8.05-18.9s-12.92-6.5-19.95-5c-53.15 11.7-89.51 7.2-111.28-13.7-35.55-34.2-40.37-120-14.72-262.2 10.73-59.6 36.02-102.1 75.17-126.4 69.4-43.1 161.78-17 162.78-16.7 2.1 0.6 4.2 0.9 6.4 0.9zm-399.88-1258.3c-192.86 0-357.22 16.5-463.03 30.7-30.18 4-53.31 27-57.59 57.1-4.3 30.3 11.61 59 39.6 71.3l156.93 69.3c168.94 74.6 312.89 194.8 416.28 347.8l375.79 556c-27.2 24-52.8 50-76.5 77.3-33.17-6.9-115.58-17.6-184.79 25.2-50.91 31.4-83.41 84.4-96.6 157.5-29.4 163.1-20.72 256.8 28.15 303.8 28.87 27.8 69.72 38 124.61 30.6 0.35 65.7 11.45 226.3 105.22 319.6 50.91 50.7 118.01 73.6 199.51 68.1 292-19.7 515 162.8 517.2 164.7 5.3 4.3 12.3 6.1 19 4.9s12.6-5.4 15.9-11.4c1.5-2.6 4-6.9 7.4-12.6 157.6-266.9 398.8-778 242.8-1201.5-20.4-55.4-66.7-95.5-123.8-107.3-52.2-10.8-106.1-17.7-160.3-20.6l-190.2-363.8c-16.7-32.2-17.5-69.4-2.1-102.2 15.5-32.9 44.7-56.1 80.2-63.6l125.6-26.8c26.4-5.6 46.2-26.5 50.4-53.2 4.3-26.3-7.8-52-30.7-65.3-351.4-204.5-779.34-255.6-1119-255.6"/><path d="m10652 17252c-165.3 0-317.9 91.2-325 95.5-10.9 6.6-14.4 20.8-7.8 31.7s20.8 14.3 31.7 7.8c1.8-1.1 179.7-107.4 347.5-86 12.6 1.5 24.2-7.3 25.8-20 1.6-12.6-7.3-24.2-20-25.8-17.4-2.2-34.9-3.2-52.2-3.2"/><path d="m9863 16028c-186 0-349.78 19.6-486.33 46.1-429.58 83.4-682.53 247-693.08 253.9-10.66 7-13.63 21.3-6.65 31.9 6.99 10.7 21.3 13.6 31.94 6.7 10.12-6.6 1025.4-652.8 2398.9 1.5 11.5 5.5 25.3 0.6 30.7-10.9 5.5-11.5 0.6-25.3-10.9-30.7-478.2-227.9-911.4-298.5-1264.6-298.5" fill="#fff"/><path d="m17735 21600h-1.1c-91.2 4.5-185 5.1-275 2.1-0.2-0.1-0.5-0.1-0.8-0.1-12.4 0-22.6 9.9-23 22.4-0.5 12.7 9.5 23.4 22.3 23.8 91.1 3.1 186.3 2.4 278.7-2.1 12.7-0.6 22.6-11.4 21.9-24.1-0.6-12.4-10.8-22-23-22zm-826.2-62.2c-10.7 0-20.4 7.5-22.6 18.4-2.5 12.5 5.6 24.7 18 27.3 90.6 18.3 183.2 33.1 275.3 43.9 12.8 1.5 24.1-7.6 25.6-20.3 1.5-12.6-7.6-24.1-20.2-25.6-90.9-10.6-182.2-25.2-271.5-43.3-1.5-0.3-3.1-0.4-4.6-0.4zm1374.5-10.5c-1.7 0-3.3 0.2-5 0.6-88.9 19.5-180 35.4-270.7 47.4-12.6 1.7-21.5 13.3-19.8 25.9 1.6 12.7 13.1 21.5 25.9 19.9 91.9-12.2 184.3-28.4 274.5-48.2 12.5-2.7 20.3-15 17.6-27.4-2.4-10.8-11.9-18.2-22.5-18.2zm-1905.4-144.7c-9.2 0-18 5.6-21.5 14.7-4.6 11.9 1.3 25.3 13.2 29.9 86.4 33.3 175.2 63.4 264.1 89.4 12.2 3.6 25-3.5 28.6-15.7 3.5-12.3-3.5-25.1-15.7-28.7-87.6-25.5-175.2-55.2-260.3-88.1-2.8-1-5.6-1.5-8.4-1.5zm2434-18.6c-2.9 0-5.8 0.5-8.6 1.6-84.9 34.3-172.1 65.3-259.2 92.2-12.2 3.8-19 16.7-15.2 28.9 3.7 12.2 16.7 19.1 28.8 15.2 88.4-27.3 176.8-58.7 262.9-93.5 11.8-4.7 17.5-18.2 12.7-30-3.6-9-12.2-14.4-21.4-14.4zm-2931.2-223.1c-7.9 0-15.6 4-19.9 11.3-6.5 11-2.9 25.1 8.1 31.6 79.5 47.3 162 91.7 245.2 132.2 11.5 5.6 25.4 0.8 30.9-10.6 5.6-11.5 0.8-25.3-10.7-30.9-82-39.9-163.4-83.8-241.9-130.4-3.7-2.2-7.7-3.2-11.7-3.2zm3425.2-26.5c-4.2 0-8.3 1.1-12.1 3.4-77.8 47.9-158.6 93-240.1 134.2-11.3 5.8-15.9 19.6-10.2 31 5.8 11.4 19.7 15.9 31.1 10.2 82.6-41.7 164.5-87.5 243.4-136.1 10.8-6.7 14.2-20.9 7.5-31.8-4.3-7-11.9-10.9-19.6-10.9zm-3875.5-294.7c-6.6 0-13.1 2.8-17.6 8.2-8.3 9.7-7.1 24.3 2.6 32.5 70.9 60 144.9 117.6 220 171.2 10.4 7.4 24.8 5 32.2-5.4s5-24.8-5.4-32.2c-74.1-52.9-147.1-109.7-216.9-168.8-4.4-3.7-9.7-5.5-14.9-5.5zm4320.9-33.6c-5.4 0-10.8 1.9-15.2 5.7-68.7 60.1-140.9 118.1-214.3 172.2-10.3 7.6-12.5 22-4.9 32.3 7.5 10.3 22 12.4 32.3 4.9 74.4-54.9 147.6-113.7 217.3-174.6 9.6-8.4 10.6-23 2.2-32.6-4.5-5.2-11-7.9-17.4-7.9zm-4712-357.8c-5.2 0-10.5 1.8-14.8 5.5-9.8 8.2-11 22.8-2.8 32.5 59.7 70.7 123.2 139.7 188.7 205.3 9 9 23.6 9 32.7 0 9-9 9-23.7 0-32.7-64.6-64.6-127.2-132.7-186.1-202.4-4.6-5.4-11.1-8.2-17.7-8.2zm5096.9-39.5c-6.7 0-13.3 2.9-17.8 8.4-57.9 70.6-119.4 139.6-183 205.3-8.8 9.1-8.6 23.7 0.5 32.6s23.8 8.7 32.7-0.5c64.4-66.6 126.8-136.6 185.5-208.1 8-9.9 6.6-24.4-3.3-32.5-4.3-3.5-9.4-5.2-14.6-5.2zm-5417.7-411.3c-4 0-8.1 1.1-11.8 3.3-10.9 6.5-14.6 20.6-8.1 31.6 47.2 79.6 98.4 158.2 152.1 233.7 7.4 10.4 21.8 12.8 32.2 5.4s12.8-21.8 5.4-32.2c-52.9-74.4-103.4-152-149.9-230.4-4.3-7.3-12-11.4-19.9-11.4zm5731.4-44.2c-8 0-15.8 4.2-20 11.6-45.3 79.1-94.5 157.4-146.3 232.6-7.3 10.5-4.6 24.9 5.9 32.1s24.9 4.6 32.1-5.9c52.5-76.3 102.5-155.7 148.4-235.9 6.3-11 2.4-25.1-8.6-31.5-3.6-2-7.6-3-11.5-3zm-5972.8-453.8c-2.7 0-5.5 0.5-8.3 1.6-11.8 4.5-17.8 17.9-13.2 29.8 33.2 86.3 70.5 172.4 111 255.9 5.5 11.4 19.4 16.2 30.8 10.6 11.5-5.5 16.3-19.3 10.7-30.8-39.9-82.3-76.7-167.1-109.4-252.3-3.6-9.2-12.3-14.8-21.6-14.8zm6206.3-47.4c-9.5 0-18.3 5.8-21.7 15.1-31.4 85.5-66.8 170.8-105.4 253.7-5.4 11.5-0.4 25.3 11.1 30.7 11.7 5.4 25.4 0.3 30.7-11.2 39.2-84.1 75.1-170.6 106.9-257.3 4.4-11.9-1.7-25.2-13.7-29.6-2.6-1-5.3-1.4-7.9-1.4zm-6360.7-483.7c-1.5 0-3.1 0.1-4.6 0.5-12.5 2.5-20.6 14.6-18.1 27.1 18.4 91 40.7 182 66.6 270.7 3.5 12.3 16.3 19.4 28.6 15.7 12.2-3.5 19.2-16.3 15.7-28.6-25.5-87.4-47.5-177.2-65.6-266.9-2.2-10.9-11.9-18.5-22.6-18.5zm6506.9-49.7c-10.9 0-20.6 7.7-22.6 18.8-16.7 89.9-37.4 180-61.5 267.9-3.4 12.3 3.8 25 16.1 28.4 12.2 3.4 25-3.8 28.4-16.2 24.5-89.2 45.4-180.6 62.4-271.6 2.3-12.6-6-24.6-18.5-27-1.4-0.2-2.9-0.3-4.3-0.3zm-6570.6-499.7h-0.8c-12.7 0.4-22.7 11.1-22.3 23.8 3 92.6 9.9 186.1 20.5 277.9 1.5 12.7 13 21.7 25.6 20.3 12.7-1.5 21.8-12.9 20.3-25.6-10.5-90.5-17.3-182.7-20.3-274.1-0.4-12.4-10.6-22.3-23-22.3zm6625.9-50.6c-12.5 0-22.8 10.1-23.1 22.6-1.5 91.4-6.9 183.7-16 274.5-1.3 12.7 8 24 20.6 25.2 12.8 1.2 24-8 25.3-20.6 9.2-92 14.7-185.6 16.3-278.2 0.2-12.8-9.9-23.3-22.7-23.5h-0.4zm-10.8-335.1c-0.6 0-1.3 0.1-1.9 0.1-12.7 1.1-22.2 12.2-21.1 24.9 7.5 90.7 11.3 183.1 11.3 274.6 0 12.8 10.3 23.1 23 23.1 12.8 0 23.1-10.3 23.1-23.1 0-92.8-3.8-186.5-11.4-278.4-1-12-11.1-21.2-23-21.2zm-6587.5-166.8c-11.4 0-21.3 8.5-22.9 20-12.2 91.5-20.7 184.9-25.4 277.6-0.6 12.7 9.2 23.6 21.9 24.2 12.7 1.1 23.6-9.1 24.2-21.9 4.6-91.4 13-183.5 25.1-273.7 1.7-12.7-7.2-24.3-19.8-26-1.1-0.1-2.1-0.2-3.1-0.2zm6496.1-378.7c-1.9 0-3.8 0.2-5.7 0.7-12.4 3.2-19.8 15.7-16.7 28.1 22.6 88.3 41.7 178.8 56.7 268.9 2.1 12.6 14 21.2 26.6 19 12.6-2.1 21.1-14 19-26.6-15.3-91.4-34.7-183.1-57.6-272.7-2.6-10.4-12-17.4-22.3-17.4zm-6377.1-161.4c-9.9 0-19 6.3-22.1 16.3-27.4 88.3-51.4 178.9-71.3 269.4-2.8 12.5 5.1 24.8 17.6 27.5 12.3 2.8 24.7-5.1 27.5-17.6 19.6-89.2 43.3-178.6 70.3-265.7 3.8-12.2-3-25.1-15.2-28.9-2.3-0.7-4.6-1-6.8-1zm6195.7-361.3c-3.2 0-6.4 0.6-9.4 2-11.7 5.2-16.9 18.8-11.7 30.4 37.1 83.5 71.1 169.6 101 255.9 4.2 12 17.3 18.4 29.4 14.2 12-4.2 18.4-17.3 14.2-29.4-30.3-87.4-64.8-174.7-102.4-259.4-3.9-8.6-12.3-13.7-21.1-13.7zm-5988-151.2c-8.5 0-16.6 4.6-20.6 12.6-41.8 82.5-80.6 167.8-115.4 253.6-4.8 11.8 0.9 25.3 12.7 30.1s25.3-0.9 30-12.7c34.4-84.6 72.6-168.8 113.8-250.1 5.8-11.4 1.2-25.3-10.1-31-3.4-1.7-6.9-2.5-10.4-2.5zm5721.6-333.9c-4.4 0-8.8 1.3-12.7 3.9-10.7 7-13.6 21.4-6.5 32 50.4 76 98.3 155.2 142.3 235.3 6.2 11.1 20.2 15.2 31.4 9.1 11.1-6.2 15.2-20.2 9.1-31.4-44.6-81.2-93.2-161.4-144.4-238.6-4.4-6.6-11.7-10.3-19.2-10.3zm-5431.3-136.8c-7.1 0-14.1 3.2-18.6 9.3-55 74.5-107.5 152.2-156.1 230.9-6.7 10.9-3.3 25.1 7.5 31.8 10.9 6.7 25.1 3.3 31.8-7.5 47.9-77.7 99.7-154.3 153.9-227.8 7.6-10.2 5.4-24.7-4.8-32.2-4.2-3.1-9-4.5-13.7-4.5zm5088.2-297.2c-5.7 0-11.3 2-15.8 6.2-9.3 8.7-9.8 23.3-1.1 32.6 62.5 66.9 122.9 137 179.4 208.5 7.9 10 22.4 11.7 32.4 3.8s11.7-22.4 3.8-32.4c-57.3-72.5-118.5-143.6-181.9-211.4-4.5-4.8-10.7-7.3-16.8-7.3zm-4723.8-119c-5.8 0-11.6 2.1-16.1 6.5-66.5 64.3-131.2 132.2-192.1 201.9-8.4 9.6-7.5 24.2 2.1 32.6s24.2 7.4 32.6-2.2c60.1-68.7 123.9-135.7 189.5-199.2 9.2-8.8 9.4-23.4 0.6-32.6-4.6-4.7-10.6-7-16.6-7zm4313.6-252.2c-6.9 0-13.8 3.2-18.4 9.1-7.7 10.1-5.7 24.6 4.4 32.4 72.5 55.3 143.6 114.5 211.3 175.8 9.4 8.5 24 7.8 32.6-1.6 8.5-9.5 7.8-24.1-1.6-32.6-68.7-62.2-140.8-122.2-214.3-178.3-4.2-3.2-9.1-4.8-14-4.8zm-3885.3-98c-4.5 0-9.1 1.3-13 4-76.3 52.4-151.3 108.7-223 167.4-9.9 8.1-11.4 22.6-3.3 32.5 8.1 9.8 22.6 11.3 32.5 3.2 70.7-57.8 144.7-113.4 219.9-165 10.5-7.2 13.2-21.6 6-32.1-4.5-6.5-11.7-10-19.1-10zm3419.4-200c-8.3 0-16.3 4.4-20.4 12.3-6 11.3-1.6 25.2 9.6 31.2 80.7 42.6 160.6 89.1 237.5 138.3 10.7 6.9 25 3.7 31.9-7 6.8-10.7 3.7-25-7-31.9-77.9-49.9-159-97-240.8-140.3-3.5-1.8-7.1-2.6-10.8-2.6zm-2938.8-74.3c-3.2 0-6.5 0.6-9.7 2.1-84 39.1-167.4 82.1-247.8 128-11 6.3-14.9 20.4-8.5 31.5 6.3 11.1 20.3 15 31.4 8.6 79.3-45.2 161.5-87.7 244.4-126.2 11.5-5.4 16.6-19.1 11.2-30.7-3.9-8.4-12.3-13.3-21-13.3zm2430-141.8c-9.7 0-18.7 6.2-21.9 15.9-4 12.1 2.6 25.1 14.7 29.1 86.6 28.5 173.1 61 257.1 96.7 11.6 4.9 25.2-0.5 30.3-12.2 4.9-11.8-0.5-25.3-12.3-30.3-85.1-36.1-172.8-69.1-260.7-98-2.4-0.8-4.8-1.2-7.2-1.2zm-1910.3-48.3c-2 0-4.1 0.3-6.1 0.8-89.2 24.4-178.6 52.8-265.6 84.7-11.9 4.4-18.1 17.6-13.7 29.6 4.4 11.9 17.6 18 29.6 13.7 85.8-31.4 173.9-59.4 261.8-83.4 12.4-3.4 19.6-16.1 16.3-28.4-2.8-10.3-12.2-17-22.3-17zm1372.1-79.6c-11.2 0-21.1 8.2-22.8 19.6-1.9 12.6 6.8 24.4 19.4 26.3 90.4 13.6 181.1 31.2 269.8 52.3 12.5 3 24.9-4.7 27.8-17.1 3-12.4-4.7-24.9-17.1-27.8-89.9-21.4-182-39.2-273.6-53.1-1.2-0.1-2.4-0.2-3.5-0.2zm-828.2-20.8c-0.8 0-1.5 0.1-2.3 0.2-92 9.1-184.9 22.2-275.9 39-12.6 2.3-20.9 14.3-18.6 26.8 2.4 12.6 14.5 21 26.9 18.6 89.8-16.5 181.4-29.5 272.2-38.5 12.7-1.3 21.9-12.6 20.7-25.2-1.2-11.9-11.3-20.9-23-20.9zm330.8-16.3c-18.3 0-36.6 0.2-54.8 0.5-12.8 0.2-22.9 10.7-22.7 23.4 0.2 12.6 10.5 22.8 23 22.8h0.4c91-1.5 183.8 0.8 274.9 6.8 12.8 0.5 23.7-8.8 24.5-21.5 0.9-12.7-8.8-23.7-21.5-24.6-74.1-4.9-149.4-7.4-223.8-7.4"/><path d="m17572 16011c-1271 0-2301.4 1030.4-2301.4 2301.4 0 1271.1 1030.4 2301.5 2301.4 2301.5 1271.1 0 2301.5-1030.4 2301.5-2301.5 0-1271-1030.4-2301.4-2301.5-2301.4zm0 5132.5c-1563.5 0-2831.1-1267.5-2831.1-2831.1 0-1563.5 1267.6-2831 2831.1-2831 1563.6 0 2831.1 1267.5 2831.1 2831 0 1563.6-1267.5 2831.1-2831.1 2831.1" fill="#fff"/><path d="m17572 20591c-1256.3 0-2278.4-1022-2278.4-2278.4 0-1256.3 1022.1-2278.4 2278.4-2278.4s2278.4 1022.1 2278.4 2278.4c0 1256.4-1022.1 2278.4-2278.4 2278.4zm0-4602.9c-1281.7 0-2324.5 1042.8-2324.5 2324.5 0 1281.8 1042.8 2324.6 2324.5 2324.6 1281.8 0 2324.6-1042.8 2324.6-2324.6 0-1281.7-1042.8-2324.5-2324.6-2324.5zm0 5132.6c-1548.3 0-2808-1259.7-2808-2808.1 0-1548.3 1259.7-2808 2808-2808s2808 1259.7 2808 2808c0 1548.4-1259.7 2808.1-2808 2808.1zm0-5662.2c-1573.8 0-2854.1 1280.3-2854.1 2854.1 0 1573.9 1280.3 2854.2 2854.1 2854.2s2854.2-1280.3 2854.2-2854.2c0-1573.8-1280.4-2854.1-2854.2-2854.1"/><path d="m15887 19880-374.7 374.7c-128.1-135.8-242.9-284.3-342.4-443.4l457.5-267.3c76.2 120 163.2 232.4 259.6 336" fill="#fff"/><path d="m15202 19820 417.8-244.1c69.5 107.2 148.4 209.4 235 304.2l-342.1 342.2c-115.2-124.2-219.6-259.3-310.7-402.3zm425.2-298.3c-3.9 0-7.9 1.1-11.6 3.2l-457.5 267.3c-5.4 3.1-9.3 8.3-10.8 14.4-1.5 6-0.5 12.4 2.9 17.7 99.8 159.8 216 310.1 345.1 447 4.3 4.6 10.2 7.2 16.5 7.3 6.2-0.3 12.2-2.4 16.6-6.8l374.7-374.7c8.8-8.8 9.1-22.9 0.6-32-95.7-102.9-182.1-214.8-257-332.6-4.3-6.9-11.8-10.8-19.5-10.8"/><path d="m17655 21143v-529.9c550.2-19.5 1051.2-232 1437.3-572.1l364.1 385c-481.3 429.6-1110.3 697.2-1801.4 717" fill="#fff"/><path d="m17678 20635c519.1-23.5 1019.1-222.5 1412.7-562.3l332.4 351.5c-484.1 424.7-1102.1 670.7-1745.1 694.7zm1414.2-617.3c-5.4 0-10.8 1.8-15.2 5.7-393.7 346.7-899.1 547.8-1422.9 566.3-12.5 0.4-22.3 10.7-22.3 23.1v529.9c0 6.3 2.5 12.2 7 16.6 4.5 4.3 11 6.5 16.7 6.5 670.5-19.3 1315.4-276 1816.2-722.9 4.6-4.1 7.4-10 7.7-16.2 0.2-6.3-2.1-12.3-6.3-16.9l-364.1-384.9c-4.5-4.8-10.7-7.2-16.8-7.2"/><path d="m19212 19927c408.6-415.4 660.9-985.2 660.9-1614 0-199-25.3-392.1-72.8-576.2l506.8-155.2c62.3 233.4 95.6 478.5 95.6 731.4 0 780.4-315.7 1486.9-826.3 1999l-364.2-385"/><path d="m19256 16745 374.8-374.7c280.4 297.3 497.2 655.2 628.5 1052.1l-506.5 155.1c-105.5-313.1-276.6-595.9-496.8-832.5"/><path d="m15931 16699c-408.7 415.4-660.9 985.2-660.9 1613.9 0 393.9 99 764.6 273.3 1088.7l-457.6 267.3c-220.2-402.7-345.4-864.7-345.4-1356 0-780.3 315.8-1486.8 826.4-1998.9l364.2 385"/><path d="m19139 16628c-392.2-365-911.8-594.7-1484.8-615v-529.9c719.2 20.6 1371.2 309.6 1859.5 770.2l-374.7 374.7" fill="#fff"/><path d="m17678 15991v-483.9c671.5 25 1310 289.5 1803.2 747l-342.2 342.1c-401.4-366.5-918.6-580.7-1461-605.2zm-23.1-530.8c-6 0-11.8 2.3-16.1 6.5-4.5 4.3-7 10.3-7 16.5v530c0 12.4 9.8 22.6 22.3 23.1 546.9 19.3 1068.9 235.6 1469.8 608.8 9.1 8.5 23.3 8.3 32.1-0.5l374.7-374.8c4.4-4.4 6.8-10.4 6.8-16.6-0.1-6.3-2.7-12.2-7.3-16.5-509.5-480.6-1175.2-756.4-1874.7-776.5h-0.6"/><path d="m16004 19998c392.1 365 911.7 594.7 1484.8 615v529.9c-719.3-20.6-1371.2-309.6-1859.5-770.2l374.7-374.7"/><path d="m17489 15483v529.9c-550.2 19.5-1051.2 232-1437.3 572l-364.1-384.9c481.3-429.6 1110.3-697.2 1801.4-717" fill="#fff"/><path d="m15721 16202c484.1-424.7 1102.1-670.7 1745.2-694.7v483.9c-519.2 23.5-1019.2 222.4-1412.7 562.3zm1768.3-741.6h-0.7c-670.4 19.3-1315.4 276-1816.1 722.9-4.6 4.1-7.4 10-7.7 16.2-0.3 6.3 2 12.3 6.3 16.9l364.1 384.9c8.5 9 22.6 9.7 32 1.5 393.7-346.7 899-547.8 1422.9-566.3 12.4-0.5 22.3-10.7 22.3-23.1v-530c0-6.2-2.6-12.2-7-16.5-4.4-4.2-10.1-6.5-16.1-6.5"/><path d="m17572 16476c-235.2 0-464.2 43.8-680.8 130.3-11.9 4.8-17.6 18.2-12.9 30 4.7 11.9 18.2 17.7 30 12.9 211.1-84.3 434.4-127 663.7-127 781.3 0 1466.5 499.3 1705.1 1242.5 3.9 12.1 17 18.7 29 14.9 12.2-3.9 18.9-16.9 15-29-244.8-762.4-947.7-1274.6-1749.1-1274.6"/><path d="m19335 18714c-10.4 0-19.9 7.1-22.4 17.7-36.8 153.5-94 301.6-170.1 440.3-6.1 11.2-2 25.2 9.2 31.4 11.2 6.1 25.2 2 31.3-9.2 78-142.3 136.7-294.3 174.5-451.7 3-12.4-4.7-24.9-17.1-27.9-1.8-0.4-3.6-0.6-5.4-0.6"/><path d="m16406 16901c-5.3 0-10.5 1.8-14.9 5.4-416.8 350.2-655.8 863-655.8 1406.8 0 1012.8 823.9 1836.7 1836.6 1836.7 191.1 0 379.4-29.2 559.8-86.9 12.1-3.9 18.8-16.8 14.9-29-3.8-12.1-16.8-19-29-14.9-175.7 56.1-359.3 84.6-545.7 84.6-987.3 0-1790.5-803.2-1790.5-1790.5 0-530.1 233.1-1030 639.4-1371.5 9.8-8.2 11.1-22.7 2.9-32.5-4.6-5.4-11.2-8.2-17.7-8.2"/><path d="m20631 9249.9h-10701v-417.9h1668.5l-1301.8-5441.9h284.1l1185.4 4918.8 1185.4-4918.8h284.2l-1301.9 5441.9h8696.8v417.9" fill="#fff"/><path d="m12970 3413.1h236.7l-1295 5413.5c-1.7 6.9-0.1 14.1 4.3 19.7 4.4 5.5 11.1 8.8 18.1 8.8h8673.7v371.7h-10654v-371.7h1645.4c7.1 0 13.8-3.3 18.2-8.8 4.3-5.6 5.9-12.8 4.3-19.7l-1295.1-5413.5h236.7l1181.2 4901.2c2.5 10.4 11.8 17.7 22.4 17.7 10.7 0 20-7.3 22.5-17.7zm266-46.1h-284.2c-10.6 0-19.9 7.3-22.4 17.6l-1163 4825.8-1162.9-4825.8c-2.5-10.3-11.8-17.6-22.5-17.6h-284.1c-7.1 0-13.8 3.2-18.1 8.8-4.4 5.5-6 12.7-4.4 19.6l1295.1 5413.5h-1639.3c-12.76 0-23.08 10.3-23.08 23.1v417.9c0 12.7 10.32 23 23.08 23h10701c12.8 0 23.1-10.3 23.1-23v-417.9c0-12.8-10.3-23.1-23.1-23.1h-8667.5l1295-5413.5c1.7-6.9 0.1-14.1-4.3-19.6-4.4-5.6-11-8.8-18.1-8.8"/><path d="m17967 3390 1185.4 4919.5 1185.4-4919.5h284.2l-1302.5 5445.1-334.1 0.5-1302.5-5445.6h284.1" fill="#fff"/><path d="m20356 3413.1h236.7l-1291.4 5398.9-297.7 0.4-1291.5-5399.3h236.7l1181.2 4901.8c2.5 10.4 11.8 17.7 22.4 17.7 10.7 0 20-7.3 22.5-17.7zm266-46.1h-284.2c-10.6 0-19.9 7.3-22.4 17.6l-1163 4826.4-1162.9-4826.4c-2.6-10.3-11.8-17.6-22.5-17.6h-284.1c-7.1 0-13.8 3.2-18.1 8.8-4.4 5.5-6 12.7-4.4 19.6l1302.6 5445.5c2.5 10.4 11.7 17.7 22.4 17.7l334.1-0.4c10.7-0.1 20-7.4 22.5-17.8l1302.4-5445c1.7-6.9 0.1-14.1-4.3-19.6-4.4-5.6-11.1-8.8-18.1-8.8"/><path d="m17869 8894.8c-12.8 0-23.1 10.3-23.1 23v257.8c0 12.8 10.3 23.1 23.1 23.1s23.1-10.3 23.1-23.1v-257.8c0-12.7-10.3-23-23.1-23" fill="#fff"/><path d="m17150 4459-110.5-550.4c-3.8-18.6-21.1-31.2-37.3-27.1l-323.1 82.2c-13.9 3.5-22.1 18.3-19.1 34.3l93.1 491.9 396.9-30.9" fill="#fff"/><path d="m16772 4465.3-89.2-471.5c-0.8-4.3 0.7-7.4 2.1-7.8l323.1-82.1c1.4-0.3 2.9 0.6 3.5 1 2.7 1.7 4.7 4.7 5.4 8.3l105.4 524.9zm236.6-607.6c-4 0-8 0.5-12 1.5l-323 82.1c-26 6.6-41.5 32.8-36.2 61l93.1 491.9c2.2 11.6 13.4 19.6 24.4 18.7l397-30.8c6.6-0.6 12.6-3.9 16.6-9.1 4-5.3 5.5-12 4.2-18.5l-110.5-550.5c-3.2-15.8-12.7-29.8-26.1-38.2-8.5-5.4-18-8.1-27.5-8.1"/><path d="m18192 4931.2 272.2-447.5-311.1-164.8-280 400.3 318.9 212" fill="#fff"/><path d="m17905 4713.1 254.7-364.2 271.4 143.8-247 406zm247.5-417.3c-7.3 0-14.5 3.5-18.9 9.9l-280 400.3c-3.5 5.1-4.9 11.4-3.7 17.5 1.1 6.1 4.7 11.5 9.9 15l318.8 211.9c5.2 3.5 11.7 4.7 17.8 3.3 6.1-1.3 11.4-5.1 14.7-10.5l272.2-447.5c3.3-5.4 4.2-12 2.5-18.1s-5.8-11.3-11.4-14.3l-311.1-164.8c-3.4-1.8-7.1-2.7-10.8-2.7"/><path d="m17155 4150.5c22.1-79.1 68.7-302.2 88.2-436.3 12.2-84.2-41-163.9-122.4-185.9-230.2-62.3-780.5-59.6-1238.7-79.8-31.4-1.4-89.2 13.9-114.9 89.9-87.2 257.9 394.3 337.7 870.3 599.9 9.4 5.1 20.8 4.6 29.5-1.6 5.4-3.9 12.4-8.7 20.6-13.9 82.8-52.7 220.4-52.7 304.5-2.2l95 57.1c26 15.7 59.7 2.3 67.9-27.2" fill="#fff"/><path d="m16651 4118.7c-0.8 0-1.7-0.2-2.5-0.7-145.3-80-291.5-143.3-420.5-199.2-314.9-136.3-490.5-220.9-439.1-373 24.9-73.4 80.9-74.6 92.1-74.3 117.6 5.2 242.8 8.9 363.8 12.6 344.8 10.2 701.3 20.9 869.9 66.4 70.6 19.2 116 88.1 105.5 160.3-18.6 128.6-65.1 353.2-87.5 433.5-2 7.1-7 12.7-13.7 15.3-6.5 2.6-13.9 2-20.1-1.7l-95-57.1c-92-55.3-239.5-54.2-328.8 2.5-8.6 5.6-16 10.6-21.7 14.7-0.7 0.5-1.5 0.7-2.4 0.7zm-773-693.4c-45.8 0-106.3 27.3-132.8 105.7-67.5 199.8 167.2 301.5 464.4 430.2 128.1 55.4 273.3 118.3 416.7 197.3 17.3 9.5 38 8.4 54-3 5.2-3.8 11.8-8.3 19.6-13.2 74.7-47.5 203-48.4 280.2-1.9l95 57.1c18.6 11.2 40.8 13 61 5s35.2-24.7 41-45.8c23-82.3 69.4-305.6 88.8-439.2 13.9-95.4-46-186.3-139.2-211.5-173.8-47-517.1-57.3-880.5-68.1-120.9-3.6-245.9-7.3-363.2-12.5-1.6-0.1-3.3-0.1-5-0.1"/><path d="m17257 3653.4c0.5-2.3 0.8-4 0.9-4.7 12.2-84.2-67.7-135.9-144.1-171.8-226.8-106.5-1142.8-45.5-1178.2-43.1-0.7 0.1-1.2 0.1-1.9 0.1-11.4-0.2-127.7-0.2-161.2 72.1-4.2 9-6.8 21.6-8.3 33.5-2.6 19.3-1.3 39 3 58 3.5 15.5 18.8 25.2 34 21.3 170.1-43.5 568.8-71.9 963.7-14.2 145.7 21.2 378.3 86.5 439.5 123.1 16.6 9.9 37.9 0.3 41.7-18.9 3.2-16 7.1-35.5 10.9-55.4" fill="#fff"/><path d="m15933 3457c0.8 0 3-0.1 3.6-0.1 326.1-22.2 989.6-42.3 1166.9 40.9 98.7 46.3 139.2 91.8 131.1 147.6l-11.6 58.9c-0.5 2.3-1.9 3.3-3 3.8-1.4 0.7-2.9 0.6-4.3-0.2-64-38.3-298.5-104.3-447.9-126.2-378.5-55.2-783.7-33.6-972.8 14.7-1.1 0.3-2.3 0.2-3.4-0.5-0.7-0.4-1.9-1.4-2.4-3.5-3.9-17.3-4.7-34.1-2.6-49.9 2-15.8 4.8-23.6 6.3-26.8 27.8-59.8 135.2-59 139.9-58.7h0.2zm576.1-65.7c-283.7 0-554.7 18.1-575.6 19.5-14.3 0.1-143 0.2-182.5 85.5-4.6 9.9-8 23.5-10.2 40.2-2.8 21.2-1.7 43.4 3.4 66 3 13.6 11.5 25.5 23.3 32.8 11.8 7.2 25.6 9.2 39 5.8 147.3-37.7 536.8-74.7 954.6-13.7 142.3 20.8 371.8 84.7 430.9 120.1 14.2 8.5 31.7 9.5 46.8 2.8 15.2-6.7 26.2-20.6 29.5-37l10.9-55.5v-0.1l1-5.4c15-102.9-82.5-161.3-157.1-196.3-108.4-50.8-366-64.7-614-64.7"/><path d="m16605 3906.8c-4.9 0-9.8 1.5-14 4.7l-138.9 105.8c-10.2 7.8-12.1 22.2-4.4 32.4 7.7 10.1 22.2 12.1 32.3 4.4l139-105.8c10.1-7.8 12.1-22.2 4.4-32.4-4.6-5.9-11.5-9.1-18.4-9.1"/><path d="m16420 3831.2c-4.8 0-9.6 1.5-13.8 4.6l-121.6 91.2c-10.1 7.6-12.2 22.1-4.6 32.3 7.7 10.2 22.2 12.3 32.4 4.6l121.5-91.2c10.2-7.7 12.3-22.1 4.6-32.3-4.5-6.1-11.4-9.2-18.5-9.2"/><path d="m18132 4414.4 357.8 51.8 211.2-448.2c31.1-67.2 6.4-154.3-56.5-194.1-81.9-51.9-204.3-119.4-344.9-164.6-265.1-85.2-529.8-329.7-757.7-209.5-228 120.2-212.9 129.1-224.3 211.4s214.5 244.4 367.4 351c124.8 87.1 447 402.2 447 402.2" fill="#fff"/><path d="m18143 4392.6c-44.1-43-327.1-317.3-444.6-399.3-91-63.5-367.8-256.6-357.8-328.9 0.8-6 1.5-11.5 2.2-16.8 7.3-59 8.8-71.3 210-177.4 145.5-76.7 311.3 8.1 486.8 97.9 82.5 42.1 167.7 85.7 253.2 113.2 140.1 45 262 113 339.6 162.1 53 33.5 74.5 107.5 47.9 164.9l-203.9 432.6zm-467.3-998.2c-49.2 0-97.5 10.2-144.4 35-207.5 109.3-224.2 130.5-234.4 212.6-0.6 5-1.2 10.4-2 16.1-11.5 83.2 142.4 209.3 377.1 373 121.8 85.1 440.9 396.7 444.1 399.8 3.5 3.4 8 5.6 12.8 6.3l357.8 51.8c10.4 1.6 19.9-3.8 24.2-13l211.2-448.1c36-77.9 6.8-178.1-65-223.5-79.9-50.5-205.4-120.5-350.2-167.1-81.9-26.3-165.4-69-246.3-110.3-128.1-65.5-259.4-132.6-384.9-132.6"/><path d="m18015 4025.2c-4.4 0-8.7 1.2-12.6 3.8l-161.3 104.9c-10.7 7-13.8 21.2-6.8 31.9 6.9 10.7 21.2 13.8 31.9 6.8l161.3-104.9c10.7-7 13.8-21.3 6.8-31.9-4.4-6.9-11.8-10.6-19.3-10.6"/><path d="m17900 3905c-4.3 0-8.7 1.2-12.5 3.7l-161.4 105c-10.7 6.9-13.7 21.2-6.8 31.9 7 10.7 21.3 13.8 32 6.7l161.3-104.9c10.7-7 13.8-21.2 6.8-31.9-4.4-6.8-11.8-10.5-19.4-10.5"/><path d="m17334 3599.6s179.4-130.7 376.9-62.5c197.4 68.3 991 486.2 991 486.2l41-89.8c20.8-45.5 3-99.6-40.8-124.3-197.7-111.4-725.4-395.2-1e3 -413.9-342.1-23.3-368.1 204.3-368.1 204.3" fill="#fff"/><path d="m17375 3548.4c31-59.4 112.9-144.4 325.2-130.1 267.5 18.3 781.6 293.5 990.1 411 33.2 18.7 46.9 60.3 31.2 94.6l-30.9 67.6c-131-68.7-791.7-413.7-972.6-476.2-141.5-48.8-272.2-2.6-343 33.1zm279.4-177.8c-314.1 0-343.4 224-343.7 226.4-1 9 3.4 17.9 11.3 22.5s17.8 4.1 25.2-1.3c1.7-1.2 172.4-122.6 355.7-59.3 193.6 66.9 979.9 480.7 987.8 484.8 5.6 3 12.2 3.5 18.3 1.4 6-2 10.9-6.4 13.5-12.2l41-89.8c25.5-56 3.4-123.6-50.5-154-211.3-119.1-732.7-397.9-1009.7-416.8-17-1.2-33.3-1.7-48.9-1.7"/><path d="m17894 7973s-1232.3-501.1-1686.9-1051.9c-434.5-526.2 1522.3-2437.4 1522.3-2437.4 2.4-9 664.9 365.3 664.9 376.8l-507.5 1106.9c-200.2 431.7-600.8 678.4-437.4 830.1 148.6 138 975 66.7 1399.1 81.5 753.5 26.2 746.3 1124.6 746.3 1124.6l-1700.8-30.6"/><path d="m16844 6608.6c-106.4-397.9-207.5-1595-230.8-2264.5-0.3-9.2 678.1-15.7 679.5-3.6 6.8 58.9 508.3 1871.8 788.4 2351.2 148.8 254.6 1108.5 181.6 1322.6 224.1 571.6 113.5 534.2 1267.5 534.2 1267.5l-2676.2-1068.7c-228.8-34.8-357.4-280.5-417.7-506"/><path d="m17405 4796.2c-6.8 0-13.5 3-18.1 8.7l-536.6 671.2c-7.9 9.9-6.3 24.5 3.6 32.4 10 8 24.6 6.3 32.5-3.6l536.6-671.2c7.9-9.9 6.3-24.5-3.6-32.4-4.3-3.4-9.4-5.1-14.4-5.1" fill="#fff"/><path d="m20109 10011s-23 920.7-564.4 1099.4c-46 15.2-94.2 22.8-142.6 24.6l-477.7 18c-141.7 1.1-259.2-33.1-410.8-88.6-126.8-46.5-268-132.9-350.4-207.8-363.3-330-367-1438-681.2-1411.8-105.5 8.7-282 185-456.8 400.6-140 172.7-381.1 384.7-381.1 384.7l-419.9-212c99.8-169.3 189.7-344.6 263.3-527 153.6-381.2 405.7-701.2 721.5-974.4 105.1-90.9 253.7-109.5 377.7-47.6 201.4 100.4 503.1 262 690.6 414.8 69-238.3 7.5-498.2-162.4-681.9-51-55.1-106.2-105.7-164.4-147-57.2-40.7-70.7-121-31.4-179.5 63.3-94.1 189.7-202.4 431.1-177.1 317 33.4 1219.9 29.8 1618.5 26.4 105.8-1 191.2 86.7 188.7 193.4l-48.3 2092.8" fill="#fff"/><path d="m18277 8906.8c2.3 0 4.6-0.4 6.9-1.1 7.4-2.3 13.1-8.2 15.3-15.6 71.1-245.6 6.8-515.3-167.6-704-55.3-59.7-111.8-110.3-168-150.2-46.6-33.1-58.2-99.4-25.7-147.7 60.2-89.5 180.3-191 409.5-167 320.3 33.7 1240.5 29.7 1621.2 26.4 44.7 0.2 86.3 17 117.6 48.8 31.9 32.4 48.9 75.4 47.9 121.1l-48.4 2092.7c-0.3 10-29.2 906.7-548.5 1078.1-41.5 13.7-87.3 21.6-136.3 23.4l-477.6 18c-2.2 0-4.4 0.1-6.6 0.1-131.7 0-241.2-30.9-395.5-87.3-117.5-43-258.5-126.6-342.8-203.2-169.4-153.9-261.1-492.1-341.9-790.5-93.5-344.7-173.9-642.6-356.7-627.2-100.5 8.3-259.6 146-472.9 409.1-119.7 147.7-317 327-366.7 371.5l-384-193.8c103.1-176.7 185.7-343.4 252.4-508.9 142.4-353.2 383-678.1 715.2-965.5 98-84.8 236.3-102.3 352.3-44.5 212.4 105.9 503.8 263.4 686.3 412.1 4.2 3.4 9.4 5.2 14.6 5.2zm3-1235.4c-206 0-319.9 101-380.4 191.1-46.3 68.8-29.6 163.6 37.3 211.1 53.5 38 107.6 86.4 160.8 143.9 155.6 168.2 217.7 405.3 165.9 626.1-186.4-144.6-462.9-293.6-666.8-395.4-132.8-66.2-291-46.2-403.2 50.9-337.8 292.3-582.7 623-727.8 983.1-68.5 170-154.1 341.3-261.8 524-3.3 5.5-4.1 12.1-2.3 18.2s6.1 11.3 11.8 14.1l419.9 212c8.4 4.2 18.5 2.9 25.6-3.3 2.5-2.2 244.2-215.2 383.8-387.5 199.3-245.8 355.8-385.1 440.8-392.2 144.5-11 223.9 282 308.3 593.4 82.5 304.5 176.1 649.6 355.4 812.6 89.7 81.4 233.6 166.8 358 212.3 158.1 57.9 276.7 91.9 419 90.1l478.4-18c53.2-2.1 103.3-10.7 148.9-25.7 550.6-181.8 579.3-1082.6 580.2-1120.8v-0.1l48.4-2092.7c1.4-58.4-20.3-113.3-61.1-154.6-40.2-40.8-93.5-62.9-150.9-62.5-379.9 3.2-1298 7.2-1615.9-26.2-25.3-2.7-49.4-3.9-72.3-3.9"/><path d="m18271 8855.7c-6.9 0-13.7 3.1-18.2 8.9-7.9 10-6.1 24.5 3.9 32.4 54 42.3 218.3 194.8 304.3 321 7.2 10.5 21.6 13.2 32.1 6s13.3-21.5 6.1-32c-89-130.5-258.4-287.7-314-331.3-4.2-3.4-9.2-5-14.2-5"/><path d="m16592 10218-64.2 347.3s-52.4 265-116.6 300.3c-47.2 26-78.6-72.4-68.7-196.5 1.6-20.6-26.4-28-34.9-9.2-33.4 73.9-68.4 160.6-71.4 205.7-5.8 88.3-23.3 270.8-105 253.2-81.6-17.7-227.5-300.3-116.6-541.7 110.8-241.4 367.4-465.1 367.4-465.1l210 106" fill="#fff"/><path d="m16142 11097c-1.9 0-3.9-0.3-6-0.7-18.7-4-53.1-36.9-84.3-99.3-51.5-103.1-82.9-265-16.3-410.2 94.4-205.4 299.5-400.6 350.2-447l180.5 91.1-61.1 330.3c-20.9 105.4-67.3 263.5-105 284.3-3.5 1.9-4.4 1.4-5.6 0.6-17.1-11.1-36.8-78.1-29-175 1.6-20.6-11.1-38.5-31-43.6-19.7-5.2-39.5 4.3-47.9 23-46.1 101.7-70.8 173.6-73.4 213.7-10.6 160.5-37.1 212.5-57.4 227.8-4.5 3.4-8.8 5-13.7 5zm239.9-1008c-5.4 0-10.8 2-15.1 5.7-10.7 9.3-261.7 229.8-373.3 472.9-73.5 160-39.4 337.4 16.9 450 34.7 69.3 78 115.6 115.8 123.8 20.7 4.5 40.5 0.1 57.3-12.5 41.9-31.6 65.9-114.7 75.6-261.7 2-30.6 22.8-91.8 58.8-173.7-2.7 76.3 9.1 164 51.4 191.3 16.3 10.5 35.1 11 52.9 1.1 70-38.5 119.1-270 128.2-316l64.2-347.6c1.9-10.1-3.1-20.2-12.3-24.8l-210-106c-3.3-1.7-6.8-2.5-10.4-2.5"/><path d="m18756 11011c-13.3 2.4-16.6 20.4-4.8 27.2 39.8 23 96 64.8 92.5 115.2l8.6 194.9c-0.6 23.7-16.2 44.4-38.8 51.3l-140.1 42.5c-21.6 6.6-36.2 26.9-35.7 49.7l4.3 206.6-67.9 54.9c-5.3 4.2-6.3 12-2.1 17.5l98.2 129.6c31.8 48.7 61 163.4 89 156.8 0 0 580.5 91.5 627.2-196.9 7.1-44.1-3.6-89.3-27.9-126.6l-49.2-75.3c-49.3-75.6-73.1-166.8-60.1-256.4 4.2-28.2 69.8-287.3 69.8-287.3s116.5-52.7 187.7-72.5c15.4-4.2 16.2-25.9 1.2-31.4l-130.2-31.1c-130.2-30.6-265.2-34-396.7-9.9l-225 41.2" fill="#fff"/><path d="m18588 11771zm192.9-741.4 203.6-37.3c129.2-23.7 259.4-20.4 387.3 9.7l104.4 24.9c-70.9 23-163 64.6-167.3 66.6-6.4 2.9-11.1 8.5-12.9 15.4-6.7 26.6-66 261-70.2 289.6-13.5 92.1 9.1 188.8 63.6 272.3l49.1 75.4c21.9 33.5 30.6 72.7 24.5 110.2-42.5 262.7-595.2 178.7-600.8 177.8-0.7-0.1-1.5-0.2-2.3-0.2-9-9.6-23.9-45.1-33.9-69.1-11.7-28.1-23.9-57.1-37.1-77.3l-93-122.9 60-48.6c5.6-4.5 8.8-11.3 8.6-18.4l-4.3-206.6c-0.3-12.4 7.7-23.5 19.4-27.1l140-42.6c32.2-9.7 54.3-39 55.2-72.8l-8.5-195.2c2.8-52.7-41.3-94.9-85.4-123.8zm374.3-99.1c-59.7 0-119.4 5.5-179 16.4l-224.9 41.2c-15.8 2.8-27.7 14.9-30.5 30.8-2.7 15.8 4.4 31.1 18.2 39.1 53.5 31 83.1 65.1 81.1 93.6 0 0.9-0.1 1.8 0 2.7l8.5 194.8c-0.3 12.2-9.3 24.2-22.4 28.2l-140.1 42.5c-31.4 9.6-52.8 39.3-52.1 72.3l4.1 195.2-59.1 47.8c-15.1 12.2-17.8 33.9-6 49.4l98.2 129.6c10 15.4 21.3 42.5 32.2 68.6 23.4 56 42.3 100.8 75.2 97.7 54.5 8.1 601.6 81.9 650-216.6 7.9-48.9-3.2-99.6-31.4-142.8l-49.1-75.4c-48.4-74.1-68.5-159.5-56.6-240.5 2.8-19.1 40.3-170.3 66.5-274.1 29.6-13 117.6-51 174.3-66.7 16.6-4.6 28.2-19.3 28.9-36.6 0.7-17.2-9.8-32.8-25.9-38.7-0.9-0.3-1.7-0.6-2.6-0.8l-130.3-31.1c-75.2-17.7-151.1-26.6-227.2-26.6"/><path d="m18720 12506c134 12.5-30.1-132.2 461.7 30.9 195.8 64.9 103.7-170.3 154.5-153.6 187.8 61.7 181.3 59.8 274.8 38.6 61.8-14 105.6-126 97-211.2-11.4-112.4-130-295.1-235.1-487.3-54.4-99.6-157.6-112.7-289 26.5-14 14.8 50.4 108.3 13.1 145.8-96.7 97.7-131.3-57.4-207.9-13.2-73.6 42.4-104.4 70.6-183 136.1-95.2 79.3-243.6-56.6-304.5 128.3-31.8 96.5 34.8 342 218.4 359.1"/><path d="m20020 3906.7h-803.9v2926.1h-420v-2926.1h-803.9c-256.4 0-464.2-207.8-464.2-464.2v-69.4h2956.2v69.4c0 256.4-207.8 464.2-464.2 464.2" fill="#fff"/><path d="m17551 3396.2h2910.1v46.3c0 243.2-197.8 441.1-441.1 441.1h-803.9c-12.8 0-23.1 10.3-23.1 23.1v2903h-373.8v-2903c0-12.8-10.3-23.1-23.1-23.1h-804c-243.2 0-441.1-197.9-441.1-441.1zm2933.2-46.2h-2956.3c-12.7 0-23 10.3-23 23.1v69.4c0 268.7 218.6 487.3 487.2 487.3h780.9v2903c0 12.8 10.4 23.1 23.1 23.1h420c12.7 0 23-10.3 23-23.1v-2903h780.9c268.7 0 487.3-218.6 487.3-487.3v-69.4c0-12.8-10.3-23.1-23.1-23.1"/><path d="m20260 9945.3h-211.2c-563.3 0-1050.6-395.9-1171-951.4l-245.9-1134.5c-57.5-265.5-290.4-454.7-559.6-454.7h-444.1c-232.2 0-420.4-190-420.4-424.3s188.2-424.3 420.4-424.3h721.3l-0.4-1.9h1269c444.1 0 828.3 312.1 923.3 750.1l389.9 1799.2c93.7 432.6-232.6 841.8-671.3 841.8" fill="#fff"/><path d="m18359 6577.2h1259.3c430 0 808.8 307.8 900.7 732l389.9 1799.2c43.5 200.8-5.3 407.4-133.8 566.8-126.6 157-314.3 247-514.9 247h-211.2c-548.3 0-1031.3-392.4-1148.5-933.2l-245.8-1134.5c-59.4-274-304.2-472.9-582.2-472.9h-444.1c-219.1 0-397.3-180-397.3-401.2s178.2-401.2 397.3-401.2h721.3c3.2 0 6.4-0.7 9.3-2zm1259.3-46.1h-1269c-3.3 0-6.4 0.6-9.3 1.9h-711.6c-244.5 0-443.4 200.7-443.4 447.4s198.9 447.4 443.4 447.4h444.1c256.4 0 482.3 183.6 537.1 436.5l245.8 1134.5c121.8 561.8 623.8 969.6 1193.6 969.6h211.2c214.6 0 415.4-96.3 550.8-264.2 137.4-170.4 189.5-391.1 143-605.6l-389.9-1799.2c-96.5-445.2-494.3-768.3-945.8-768.3"/><path d="m14389 7092.9c-132.1-605 391.7-2260.1 501.5-2663.4 14.4-52.9 62.7-89.6 117.8-89.6h488c67.9 0 122.7 54.9 122.1 122.2-4.5 478.6-91.5 2223.3 206.9 2725.7 172.7 290.8 489.1 421.9 700.7 560.3 507.7 332.2 316.6 1067.7 316.6 1067.7l-1917.9-1138.4c-265.7-39.8-478.8-323.8-535.7-584.5"/><path d="m15116 8625.5s-1674.2-15-2202.1-644c-474.4-565.3 228.9-3054.1 376.2-3552.2 15.3-51.7 62.9-87 117.1-87h629c13.3 0 24 10.7 24 23.8v2637.1c0 166.1 32.6 77 173.2 167.1 197.1 126.2 554.7 19 1047.4 15.4 1564.6-11.6 1312.6 1461.4 1312.6 1461.4l-1477.4-21.6"/><path d="m15500 4337.6 32.8-427.1-391.1-2-80.8 426.1 439.1 3" fill="#fff"/><path d="m15089 4311.7 72.1-380 347.1 1.8-29.3 380.9zm53-426.3c-11.1 0-20.6 7.9-22.6 18.8l-80.9 426.1c-1.3 6.7 0.5 13.7 4.9 18.9 4.3 5.3 10.8 8.4 17.6 8.5l439.1 2.9h0.2c12 0 22.1-9.2 23-21.3l32.8-427c0.5-6.4-1.7-12.7-6-17.4-4.4-4.7-10.5-7.4-16.9-7.5l-391.1-2h-0.1"/><path d="m13954 4337.6-5.9-427.1-403.3-2-71.6 426.1 480.8 3" fill="#fff"/><path d="m13500 4311.7 63.9-380 361 1.8 5.3 380.9zm44.4-426.3c-11.2 0-20.8 8.2-22.7 19.3l-71.7 426.1c-1.1 6.6 0.7 13.5 5.1 18.6 4.3 5.2 10.7 8.2 17.5 8.3l480.9 2.9c6.3 0.5 12.2-2.4 16.5-6.8 4.4-4.4 6.8-10.4 6.7-16.5l-6-427.1c-0.2-12.6-10.4-22.7-22.9-22.8l-403.2-2h-0.2"/><path d="m13551 3963h375c26.6 0 50.6-15.8 60.7-40.2 33.3-80.3 101-268 91.9-446-2.5-48.7-43.2-86.8-92.3-86.8h-1100.4c-50.6 0-89.1 46-78.9 95.2 12.1 58.9 53.9 136.5 174.6 206.2 195.4 112.9 440.9 225.7 518.3 260.6 16.1 7.3 33.5 11 51.1 11" fill="#fff"/><path d="m13551 3940c-14.5 0-28.5-3.1-41.6-9-71.6-32.3-320.3-146.4-516.3-259.6-92.2-53.3-148.8-119.3-163.5-190.9-3.4-16.3 0.8-33.1 11.4-46.1 11-13.5 27.4-21.3 44.9-21.3h1100.4c37 0 67.4 28.5 69.2 64.9 9 175.3-60 363.3-90.1 435.9-6.6 15.8-22 26.1-39.4 26.1zm435.3-573h-1100.4c-31.5 0-60.9 13.9-80.7 38.2-19.4 23.9-27 54.7-20.9 84.6 12.2 59.2 54.3 145.6 185.8 221.6 197.8 114.3 448.3 229.2 520.3 261.7 19.2 8.6 39.5 13 60.6 13h375c36.1 0 68.3-21.4 82-54.5 31.3-75.6 103.1-271.3 93.6-456-3.1-60.9-53.7-108.6-115.3-108.6"/><path d="m15156 3963h375c26.6 0 50.6-15.8 60.7-40.2 33.3-80.3 101-268 91.9-446-2.5-48.7-43.2-86.8-92.3-86.8h-1100.4c-50.6 0-89.1 46-78.9 95.2 12.1 58.9 53.9 136.5 174.6 206.2 195.4 112.9 440.9 225.7 518.3 260.6 16.1 7.3 33.5 11 51.1 11" fill="#fff"/><path d="m15156 3940c-14.4 0-28.4-3.1-41.5-9-71.6-32.3-320.3-146.4-516.3-259.6-92.3-53.3-148.9-119.3-163.6-190.9-3.4-16.3 0.8-33.1 11.4-46.1 11-13.5 27.4-21.3 44.9-21.3h1100.4c37 0 67.4 28.5 69.2 64.9 9 175.4-60 363.3-90.1 435.9-6.6 15.8-22 26.1-39.4 26.1zm435.3-573h-1100.4c-31.5 0-60.9 13.9-80.7 38.2-19.4 23.9-27 54.7-20.9 84.6 12.2 59.2 54.4 145.6 185.8 221.6 197.8 114.3 448.3 229.2 520.4 261.7 19.1 8.6 39.5 13 60.5 13h375c36.1 0 68.3-21.4 82-54.5 31.3-75.5 103.1-271.2 93.7-456-3.2-60.9-53.8-108.6-115.4-108.6"/><path d="m13571 9447.1-198.4 74.1c-84.2 31.4-176.3 30.3-259.5-3.7-103.8-42.5-244.6-111.4-341.1-202.7-24.2-23-9.3-64.9 23.3-64.9h766.5l9.2 197.2" fill="#fff"/><path d="m13247 9520.8c-42.7 0-85.2-8.2-125.4-24.7-100.3-41.1-239.6-108.8-334-198.1-5.6-5.3-5.5-12.3-3.6-17.1 1.2-3 4.2-8 11-8h744.4l7.4 158.4-182.6 68.3c-38 14.1-77.7 21.2-117.2 21.2zm314.5-294h-766.5c-24.1 0-44.8 14.2-53.9 37-9.4 23.7-3.6 50.3 14.8 67.7 99.5 94.3 244.3 164.8 348.2 207.3 88.2 36.2 186.3 37.5 276.2 4l198.5-74.1c9.4-3.5 15.4-12.7 14.9-22.7l-9.2-197.2c-0.6-12.3-10.7-22-23-22"/><path d="m16948 10330s21.4 769.2-509.2 862.1c0.3 0.7 0.6 1.5 0.8 2.2l-562 31.8s-361.2 50-693.9-236.4c-300.1-258.3-366.1-920.8-558-1089.4-166.4-146.1-882.7-336.2-1070.4-384.2-26.6-6.8-45-30.6-44.9-58l0.6-181.6h1135.8c158.5 0 310 64 420.1 177.3 66.3 68.2 147.9 152.1 238 246.5-1-58.4 5.4-155.1 46.6-262.8 82.9-217.2 43.3-463.3-115.7-633.7-66.7-71.6-142.1-135.8-221.9-174.3 0 0 50.8-240.1 420.8-256.5 150.4-6.7 547.7-21.1 843.2-4.3 403.5 22.9 701.4 97.2 701.4 97.2l-31.3 1864.1" fill="#fff"/><path d="m15042 8617.6c19-52.3 100.2-208.6 394.1-221.7 120.5-5.3 537.1-21.4 840.9-4.3 341.3 19.4 609.4 76.5 679.3 92.4l-31 1845.5v1c0.2 7.6 14.6 750.4-490.1 838.7-2.5 0.5-5 1.4-7.2 2.6l-551.3 31.2c-5.3 0.6-357.2 44.8-677.5-230.9-162.5-139.8-256.3-406.8-339-642.5-69.3-197.5-129.3-368-218.9-446.7-168.4-148-869.1-335.3-1079.8-389.2-16.3-4.2-27.7-18.8-27.6-35.6l0.5-158.6h1112.8c151.3 0 298.4 62 403.5 170.2l15.5 15.9c63.3 65.2 139.3 143.4 222.4 230.6 6.6 6.9 16.7 9 25.5 5.4s14.5-12.3 14.3-21.8c-1.1-59.3 5.8-151.5 45-254.1 88.4-231.4 42.3-483.5-120.3-657.8-71.4-76.6-142.3-133.8-211.1-170.3zm911.8-279.9c-224.5 0-438.7 8.5-519.7 12.1-383.4 17-440.1 264.3-442.4 274.8-2.1 10.4 3 21 12.6 25.6 69.1 33.3 141.4 90.3 215 169.2 150.5 161.4 193.1 395 111 609.8-30.9 80.8-43 155.7-46.7 214.9-68.3-71.2-130.8-135.6-184.3-190.6l-15.5-15.9c-113.7-117.1-272.9-184.3-436.6-184.3h-1135.8c-12.7 0-23 10.3-23.1 23l-0.6 181.6c-0.1 38 25.5 71.1 62.3 80.5 429.1 109.7 933.1 267 1060.9 379.2 80.5 70.7 141.3 243.9 205.7 427.3 84.7 241.1 180.7 514.4 352.4 662.2 336.8 289.9 697 243.9 712.2 241.7l560.1-31.5c4.6-0.3 8.9-1.9 12.5-4.5 526.9-102.2 518.2-857.6 517.7-882.9l31.2-1863.7c0.2-10.7-7-20.2-17.4-22.8-3-0.7-304.6-75.1-705.7-97.8-101.2-5.8-214.8-7.9-325.8-7.9"/><path d="m15281 9611.9c-5.7 0-11.3 2-15.7 6.2-9.4 8.6-9.9 23.2-1.2 32.6 147 158.2 260.9 340.5 338.5 542 4.6 11.9 18 17.9 29.8 13.2 11.9-4.5 17.9-17.9 13.3-29.8-79.8-207-196.8-394.3-347.8-556.8-4.6-4.9-10.8-7.4-16.9-7.4"/><path d="m15543 12200s-21-187.9-115.3-292.3c-7.2-8-8.8-19.5-3.3-28.8l38.9-64.9c3.3-5.6 6.1-11.5 8.2-17.8l64.5-189.5c5.9-17.3 21.5-29.7 39.8-31.2 40.3-3.3 142.6 12.3 150.9-14.6 9.3-30 2.1-273.4-1.5-379.3-1-28.2 18.8-52.8 46.5-57.9l218.2-40.2c98.3-18.2 199.4-6.1 290.1 33.9 29.4 12.9 42.5 47.4 28.9 76.6-49.9 106.6-159.1 361-144.6 516.7l96.9 271.2c-2.4 130.1-110.9 233.3-241.9 230l-476.3-11.9" fill="#fff"/><path d="m15667 11600c41.6 0 73.8-5.5 82.1-32.4 7.6-24.6 7.5-154.8-0.4-387-0.6-16.9 11-31.3 27.6-34.4l218.2-40.2c93.7-17.3 189.3-6.1 276.5 32.3 8.6 3.8 15.1 10.7 18.4 19.4 3.3 8.6 2.9 18-1 26.3-49.1 105-161.7 366.6-146.7 528.6 0.1 1.9 0.6 3.8 1.2 5.7l95.5 267.1c-2 54.8-25 105.9-64.9 144-41.3 39.6-95.9 60.7-153.2 59.2l-456.8-11.4c-8.3-52.6-37.7-195.9-118.2-285.2l38.2-66.3c4.1-6.9 7.6-14.4 10.3-22.2l64.4-189.6c3-8.7 10.8-14.8 19.9-15.6 10.6-0.9 27.7-0.2 45.7 0.5 15.1 0.6 29.6 1.2 43.2 1.2zm413.7-548.1c-31.5 0-63.1 2.9-94.6 8.7l-218.2 40.2c-39.2 7.3-66.7 41.5-65.3 81.3 8 235.4 6.8 343.4 3.2 368.1-13.8 5.1-56.5 3.4-80.1 2.5-19.5-0.8-37.9-1.5-51.4-0.4-27.4 2.3-50.9 20.6-59.8 46.8l-64.4 189.5c-1.6 4.7-3.7 9.2-6.2 13.4l-38.9 64.9c-10.6 17.7-8.2 40.3 6 56 88.2 97.8 109.3 277.7 109.5 279.5 1.3 11.5 10.8 20.2 22.3 20.5l476.4 11.9c70.8 1.5 136-23.9 186.3-72 49.8-47.7 77.9-111.9 79.2-180.6 0.1-2.8-0.4-5.6-1.3-8.2l-96-268.5c-12.4-151 95.6-401 142.8-501.9 9.2-19.7 10.1-41.8 2.4-62.1-7.6-20.5-22.9-36.6-42.9-45.5-66.5-29.2-137.4-44.1-209-44.1"/><path d="m15499 12266c-19.3-29.6-7.7-69.4 24.6-84.2l19.5-9 374.2-184.3c9.5-4.7 20.9-4.1 29.5 2.1 15.5 11.2 43.3 25 71.2 7.2 38.9-24.8 46.8-157.3-53.2-192.5-13.1-4.6-20.4-18.5-15.1-31.4 5.8-13.8 14.3-32.3 26.1-52.5 88.1-151.6 306.2-160.6 411.3-20 77.4 103.6 148.3 274 61 507-136.9 365.4-696.1 444-949.1 57.6"/><path d="m16410 12351s163.3 193.7 402.2 118.6 251.1-479.5 278.8-731.5c97.5-887.8 314.3-1210.9 384.3-1291.1 77.6-89-533-28.6-738.8 41.5-593 202.1-280.7 773.1-252.9 875.9 27.9 102.8 248.9 678.1-25.8 745.4l-139.4 118.6 91.6 122.6"/><path d="m16485 12074-2.9-1c-26.1-9.5-54.9 3.7-64.5 29.6l-72.8 196.8c-9.6 25.8 3.8 54.5 29.8 64l2.9 1c26 9.5 54.9-3.7 64.5-29.6l72.8-196.8c9.6-25.8-3.8-54.5-29.8-64" fill="#fff"/><path d="m16395 12344c-3.1 0-6.3-0.5-9.4-1.6l-3-1.1c-6.7-2.5-12.2-7.5-15.2-14s-3.2-13.7-0.8-20.3l72.8-196.8c5.2-14 20.8-21.1 34.9-16l3 1.1c6.8 2.5 12.2 7.5 15.2 14 3 6.4 3.3 13.7 0.9 20.3l-72.9 196.8c-4 10.9-14.4 17.6-25.5 17.6zm70-297.6c-29.8 0-57.9 18.3-68.8 47.7l-72.9 196.9c-6.7 18.2-5.9 38 2.2 55.6 8.2 17.8 22.9 31.3 41.3 38.1l3.1 1c37.7 13.9 80-5.6 93.9-43.2l72.8-196.9c6.8-18.2 6-38-2.2-55.7s-22.9-31.2-41.3-37.9l-2.9-1.1c-8.3-3-16.8-4.5-25.2-4.5"/><path d="m16626 3906.7h-803.9v2926.1h-420v-2926.1h-803.9c-256.4 0-464.2-207.8-464.2-464.2v-69.4h2956.2v69.4c0 256.4-207.8 464.2-464.2 464.2" fill="#fff"/><path d="m14158 3396.2h2910.1v46.3c0 243.2-197.8 441.1-441.1 441.1h-804c-12.7 0-23 10.3-23 23.1v2903h-373.8v-2903c0-12.8-10.3-23.1-23.1-23.1h-804c-243.2 0-441.1-197.9-441.1-441.1zm2933.2-46.2h-2956.3c-12.7 0-23 10.3-23 23.1v69.4c0 268.7 218.6 487.3 487.2 487.3h780.9v2903c0 12.8 10.4 23.1 23.1 23.1h419.9c12.8 0 23.1-10.3 23.1-23.1v-2903h780.9c268.7 0 487.3-218.6 487.3-487.3v-69.4c0-12.8-10.3-23.1-23.1-23.1"/><path d="m16866 9945.3h-211.2c-563.3 0-1050.6-395.9-1171-951.4l-245.9-1134.5c-57.5-265.5-290.4-454.7-559.6-454.7h-444.1c-232.2 0-420.4-190-420.4-424.3s188.2-424.3 420.4-424.3h721.3l-0.5-1.9h1269.1c444.1 0 828.3 312.1 923.2 750.1l390 1799.2c93.7 432.6-232.6 841.8-671.3 841.8" fill="#fff"/><path d="m14965 6577.2h1259.3c430 0 808.8 307.8 900.7 732l389.9 1799.2c43.5 200.8-5.3 407.4-133.8 566.8-126.6 157-314.3 247-514.9 247h-211.2c-548.3 0-1031.3-392.4-1148.5-933.2l-245.8-1134.5c-59.4-274-304.3-472.9-582.2-472.9h-444.1c-219.1 0-397.3-180-397.3-401.2s178.2-401.2 397.3-401.2h721.3c3.2 0 6.4-0.7 9.3-2zm1259.3-46.1h-1269c-3.3 0-6.4 0.6-9.3 1.9h-711.6c-244.5 0-443.4 200.7-443.4 447.4s198.9 447.4 443.4 447.4h444.1c256.4 0 482.2 183.6 537.1 436.5l245.8 1134.5c121.8 561.8 623.8 969.6 1193.6 969.6h211.2c214.6 0 415.4-96.3 550.8-264.2 137.4-170.4 189.5-391.1 143-605.6l-389.9-1799.2c-96.5-445.2-494.3-768.3-945.8-768.3"/><path d="m21193 10230c-1.7 0-3.4 0.2-5.1 0.6-12.5 2.8-20.2 15.2-17.4 27.6 371 1622.3 71.4 2879.6-245.3 3648.6-343.2 833.6-780 1289.3-784.4 1293.8-8.8 9.2-8.6 23.8 0.5 32.7 9.2 8.8 23.8 8.6 32.7-0.5 4.4-4.6 446.3-465.3 793-1306.3 319.8-775.6 622.5-2043.4 248.5-3678.6-2.4-10.7-12-17.9-22.5-17.9"/><path d="m20158 7894.9c-2.8 0-5.5 0.5-8.3 1.5-11.9 4.6-17.9 17.9-13.3 29.8 700.2 1841.3 827.7 3047.6 811.4 3735.4-17.6 744.5-202.9 1058-204.8 1061.1-6.6 10.8-3.2 25 7.7 31.7 10.9 6.6 25.1 3.2 31.7-7.7 7.9-12.8 192.5-323.3 211.4-1077.6 17.4-692.6-109.8-1907-814.3-3759.3-3.5-9.2-12.2-14.9-21.5-14.9"/><path d="m5941.7 19541c-6.02 0-12.01 2.3-16.54 7-8.88 9.1-8.68 23.7 0.45 32.6 15.6 15.2 1580.8 1523.2 3285.5 1844 12.58 2.3 24.6-5.8 26.94-18.4 2.36-12.5-5.88-24.6-18.42-26.9-1690.8-318.3-3246.3-1816.7-3261.8-1831.8-4.49-4.4-10.31-6.5-16.1-6.5"/><path d="m5086.6 19160c-5.34 0-10.68 1.9-15.03 5.6-9.67 8.3-10.77 22.9-2.48 32.6 1144.3 1332.7 2333.7 1805.7 2345.6 1810.3 11.86 4.7 25.27-1.3 29.87-13.2 4.62-11.8-1.26-25.2-13.14-29.8-11.77-4.6-1191-473.9-2327.3-1797.4-4.58-5.3-11.02-8.1-17.52-8.1"/></g></g></svg>
