<?xml version="1.0" encoding="UTF-8"?>
<svg version="1.1" viewBox="0 0 3333.3 3333.3" xml:space="preserve" xmlns="http://www.w3.org/2000/svg"><g transform="matrix(1.3333 0 0 -1.3333 0 3333.3)"><g transform="scale(.1)"><path d="M 25000,0 H 0 V 25000 H 25000 V 0" fill="#fff"/><path d="m8061.3 17079c270.75 5.5 494.77-209.3 500.38-479.7s-209.32-494.1-480.07-499.7c-270.74-5.5-494.77 209.3-500.38 479.7s209.33 494.1 480.07 499.7zm-976.95-414.7 3.95-190.2 203.84-41.6c8.8-43.9 21.07-86.5 36.78-127.4l-149.73-143.8 98.64-162.8 197.36 65.8c29.29-33.2 61.27-63.8 95.64-91.7l-57.71-199.7 166.88-91.7 137.75 155.3c41.56-13.9 84.67-24.4 128.93-31.4l49.96-201.7 190.44 3.8 41.57 203.6c43.92 8.8 86.56 21.1 127.5 36.7l144.07-149.6 162.95 98.5-65.94 197.2c33.18 29.2 63.88 61.2 91.76 95.5l199.92-57.7 91.8 166.6-155.56 137.7c13.99 41.5 24.49 84.5 31.47 128.7l201.94 49.9-3.94 190.2-203.84 41.6c-8.81 43.9-21.07 86.4-36.78 127.3l149.72 143.9-98.63 162.8-197.36-65.8c-29.28 33.1-61.28 63.8-95.64 91.7l57.71 199.6-166.9 91.8-137.74-155.4c-41.56 14-84.66 24.5-128.92 31.5l-49.97 201.7-190.44-3.9-41.56-203.6c-43.93-8.7-86.57-21-127.51-36.7l-144.07 149.6-162.94-98.4 65.94-197.2c-33.19-29.2-63.87-61.2-91.76-95.5l-199.93 57.7-91.8-166.7 155.56-137.6c-13.99-41.5-24.48-84.6-31.46-128.8l-201.95-49.8" fill="#fff"/><path d="m8061.8 17057c-125.05-2.6-241.61-53.6-328.2-143.8-86.58-90.1-132.84-208.5-130.24-333.3 5.27-254.6 214.36-458.2 468.14-458.2 3.24 0 6.45 0 9.7 0.1 125.05 2.6 241.61 53.6 328.2 143.7 86.58 90.1 132.83 208.6 130.23 333.4-5.34 257.9-219.83 464.2-477.83 458.1zm9.69-979.5c-277.73 0-506.51 222.8-512.3 501.4-2.83 136.7 47.79 266.3 142.55 365 94.76 98.6 222.32 154.4 359.15 157.2 282.62 4.8 517.05-219.1 522.91-501.3 2.83-136.6-47.8-266.2-142.56-364.9-94.75-98.6-222.3-154.4-359.14-157.3-3.54 0-7.09-0.1-10.61-0.1zm-253.7-218.8c2.35 0 4.73-0.4 7.04-1.1 40.16-13.5 82.33-23.8 125.33-30.6 8.78-1.4 15.87-7.9 18-16.5l45.72-184.6 155.13 3.2 38.04 186.3c1.77 8.7 8.59 15.4 17.3 17.2 42.7 8.5 84.4 20.5 123.95 35.6 8.27 3.2 17.65 1.1 23.8-5.3l131.85-136.8 132.71 80.2-60.33 180.4c-2.81 8.4-0.32 17.7 6.34 23.5 32.19 28.4 62.21 59.7 89.23 92.9 5.58 6.9 14.73 9.7 23.26 7.3l182.97-52.8 74.75 135.7-142.32 125.9c-6.66 5.9-9.13 15.2-6.3 23.6 13.51 40.1 23.8 82.2 30.58 125.2 1.38 8.8 7.89 15.9 16.52 18l184.8 45.6-3.22 154.9-186.53 38c-8.7 1.8-15.5 8.6-17.24 17.3-8.57 42.7-20.6 84.4-35.75 123.8-3.18 8.3-1.09 17.7 5.32 23.9l136.97 131.6-80.33 132.6-180.62-60.3c-8.4-2.8-17.67-0.3-23.54 6.4-28.39 32.1-59.68 62.1-93 89.1-6.89 5.6-9.76 14.8-7.3 23.3l52.8 182.7-135.95 74.7-126.06-142.1c-5.88-6.7-15.16-9.1-23.57-6.3-40.07 13.5-82.23 23.8-125.3 30.6-8.76 1.4-15.86 7.9-17.99 16.5l-45.73 184.6-155.14-3.2-38.03-186.3c-1.78-8.7-8.61-15.5-17.31-17.2-42.77-8.6-84.47-20.6-123.95-35.7-8.25-3.1-17.63-1.1-23.79 5.3l-131.85 136.9-132.71-80.2 60.33-180.4c2.81-8.4 0.32-17.7-6.34-23.5-32.14-28.4-62.16-59.6-89.23-92.9-5.59-6.9-14.73-9.8-23.26-7.3l-182.97 52.8-74.75-135.7 142.31-125.9c6.65-5.9 9.13-15.2 6.3-23.6-13.51-40.1-23.79-82.2-30.57-125.2-1.38-8.8-7.9-15.9-16.52-18l-184.8-45.6 3.21-154.9 186.54-38.1c8.7-1.7 15.49-8.5 17.24-17.3 8.57-42.6 20.59-84.3 35.75-123.8 3.17-8.2 1.08-17.6-5.32-23.8l-136.98-131.6 80.34-132.6 180.62 60.2c8.4 2.9 17.66 0.4 23.54-6.3 28.43-32.1 59.71-62.1 93.01-89.1 6.89-5.6 9.76-14.8 7.3-23.3l-52.81-182.7 135.95-74.7 126.04 142.1c4.26 4.8 10.32 7.4 16.52 7.4zm178.89-277.3c-10.14 0-18.99 6.9-21.44 16.8l-46.46 187.6c-35.5 6.2-70.39 14.7-104.07 25.4l-128.14-144.6c-6.84-7.7-18.09-9.6-27.16-4.7l-166.89 91.8c-9.05 5-13.44 15.5-10.57 25.5l53.68 185.7c-27.22 22.9-53.09 47.7-77.14 74l-183.64-61.3c-9.79-3.2-20.51 0.7-25.88 9.5l-98.63 162.8c-5.34 8.9-3.86 20.2 3.6 27.4l139.26 133.8c-12 33.1-21.94 67.6-29.65 102.8l-189.62 38.6c-10.12 2.1-17.46 10.9-17.68 21.2l-3.95 190.2c-0.2 10.4 6.77 19.5 16.79 21.9l187.86 46.4c6.24 35.5 14.73 70.3 25.35 103.9l-144.69 128c-7.74 6.8-9.69 18.1-4.71 27.2l91.8 166.7c4.97 9 15.52 13.4 25.47 10.5l186.02-53.6c22.95 27.2 47.75 53 73.99 77l-61.33 183.4c-3.28 9.8 0.68 20.5 9.52 25.9l162.94 98.4c8.82 5.4 20.17 3.9 27.32-3.5l134.04-139.2c33.16 12 67.65 21.9 102.91 29.6l38.66 189.4c2.07 10.1 10.87 17.4 21.19 17.6l190.42 3.9c10.92 0.2 19.41-6.8 21.89-16.8l46.49-187.6c35.53-6.3 70.41-14.8 104.05-25.4l128.15 144.5c6.83 7.7 18.12 9.7 27.15 4.7l166.9-91.7c9.04-5 13.43-15.6 10.57-25.5l-53.67-185.7c27.23-23 53.09-47.8 77.13-74l183.63 61.2c9.79 3.3 20.52-0.6 25.88-9.5l98.63-162.8c5.35-8.8 3.86-20.2-3.59-27.3l-139.26-133.8c12-33.2 21.94-67.6 29.65-102.8l189.62-38.7c10.11-2 17.46-10.8 17.67-21.1l3.94-190.3c0.2-10.3-6.76-19.4-16.79-21.8l-187.85-46.4c-6.24-35.5-14.74-70.3-25.36-103.9l144.71-128c7.74-6.9 9.69-18.2 4.71-27.2l-91.8-166.7c-4.97-9-15.48-13.4-25.48-10.6l-186 53.7c-22.91-27.1-47.73-53-74.01-77l61.34-183.4c3.28-9.8-0.68-20.5-9.52-25.9l-162.95-98.5c-8.82-5.3-20.18-3.8-27.32 3.6l-134.03 139.2c-33.2-12-67.71-21.9-102.91-29.6l-38.66-189.4c-2.07-10.1-10.87-17.4-21.19-17.7l-190.44-3.8h-0.45"/><path d="m16910 18614c224.9 4.6 411.1-173.8 415.7-398.5 4.7-224.7-173.9-410.6-398.8-415.2-225-4.6-411.1 173.9-415.8 398.5-4.6 224.7 173.9 410.6 398.9 415.2zm-811.7-344.5 3.3-158.1 169.3-34.5c7.3-36.5 17.5-71.9 30.6-105.8l-124.4-119.6 81.9-135.2 164 54.7c24.3-27.6 50.9-53.1 79.5-76.2l-48-165.9 138.7-76.2 114.4 129c34.6-11.6 70.4-20.3 107.1-26.1l41.6-167.6 158.2 3.2 34.5 169.2c36.5 7.3 71.9 17.4 106 30.5l119.7-124.3 135.3 81.8-54.7 163.8c27.5 24.3 53 50.8 76.2 79.3l166.1-47.9 76.3 138.5-129.3 114.3c11.7 34.5 20.4 70.3 26.2 107l167.8 41.4-3.3 158.1-169.4 34.5c-7.3 36.5-17.5 71.9-30.5 105.8l124.4 119.6-82 135.2-164-54.7c-24.3 27.6-50.9 53.1-79.4 76.2l47.9 165.9-138.6 76.2-114.5-129c-34.5 11.6-70.3 20.3-107.1 26.1l-41.5 167.6-158.2-3.2-34.6-169.2c-36.5-7.3-71.9-17.4-105.9-30.5l-119.7 124.3-135.4-81.8 54.8-163.8c-27.6-24.3-53.1-50.8-76.2-79.3l-166.2 47.9-76.2-138.5 129.2-114.3c-11.6-34.5-20.3-70.3-26.1-107l-167.8-41.4" fill="#fff"/><path d="m16911 18591c-102.9-2.1-198.8-44.1-270-118.3-71.3-74.1-109.3-171.5-107.2-274.3 4.3-209.5 176.4-377 385.2-377 2.7 0 5.3 0.1 8 0.1 102.9 2.1 198.8 44.1 270.1 118.3 71.2 74.1 109.3 171.5 107.1 274.3-4.3 212.2-180.7 381-393.2 376.9zm8-813.7c-232.8-0.1-424.5 186.6-429.4 420.2-2.3 114.6 40.1 223.2 119.5 305.9 79.4 82.6 186.3 129.4 301 131.8 3 0 6 0.1 8.9 0.1 232.8 0 424.6-186.7 429.4-420.3 2.4-114.5-40.1-223.2-119.5-305.8-79.4-82.7-186.3-129.5-301-131.9h-8.9zm-210.8-174.4c2.4 0 4.8-0.4 7.1-1.1 33.1-11.2 68-19.7 103.5-25.3 8.8-1.4 15.9-7.9 18-16.5l37.3-150.5 122.9 2.5 31 151.9c1.8 8.7 8.6 15.5 17.3 17.2 35.3 7.1 69.7 17 102.4 29.5 8.2 3.2 17.6 1.1 23.8-5.3l107.4-111.6 105.2 63.6-49.2 147c-2.8 8.4-0.3 17.7 6.4 23.6 26.5 23.4 51.3 49.2 73.6 76.7 5.7 6.9 14.9 9.7 23.3 7.3l149.2-43.1 59.2 107.6-116 102.6c-6.7 5.9-9.1 15.2-6.3 23.6 11.1 33 19.6 67.8 25.3 103.4 1.3 8.7 7.9 15.8 16.5 18l150.6 37.2-2.6 122.7-152 31c-8.7 1.8-15.5 8.6-17.2 17.3-7.1 35.2-17 69.6-29.6 102.2-3.2 8.3-1.1 17.7 5.3 23.9l111.7 107.2-63.6 105.1-147.3-49.1c-8.4-2.8-17.7-0.3-23.5 6.3-23.4 26.5-49.3 51.3-76.8 73.7-6.9 5.6-9.8 14.7-7.3 23.3l43 148.9-107.7 59.2-102.8-115.9c-5.9-6.6-15.1-9.1-23.5-6.3-33.2 11.2-68 19.7-103.5 25.3-8.8 1.4-15.9 7.9-18 16.5l-37.3 150.5-122.9-2.5-31-151.9c-1.8-8.7-8.6-15.5-17.3-17.2-35.4-7.1-69.8-17-102.4-29.5-8.3-3.1-17.7-1.1-23.8 5.3l-107.5 111.6-105.1-63.5 49.1-147.1c2.9-8.4 0.4-17.7-6.3-23.6-26.5-23.3-51.4-49.1-73.7-76.7-5.6-6.9-14.8-9.7-23.3-7.3l-149.1 43.1-59.3-107.5 116-102.7c6.7-5.9 9.2-15.2 6.3-23.6-11.1-33-19.6-67.8-25.2-103.4-1.4-8.7-7.9-15.8-16.5-18l-150.7-37.1 2.6-122.8 152-31c8.7-1.7 15.5-8.6 17.3-17.3 7.1-35.3 17-69.7 29.5-102.2 3.2-8.3 1.1-17.7-5.3-23.9l-111.7-107.2 63.7-105.1 147.2 49.1c8.4 2.8 17.7 0.3 23.5-6.3 23.5-26.6 49.4-51.4 76.9-73.7 6.9-5.5 9.8-14.7 7.3-23.2l-43.1-149 107.8-59.2 102.7 115.9c4.3 4.8 10.3 7.4 16.5 7.4zm148.7-237.9c-10.2 0-19 6.9-21.5 16.8l-38 153.5c-28 5.1-55.6 11.8-82.2 20.1l-104.9-118.3c-6.9-7.7-18.2-9.6-27.1-4.7l-138.7 76.2c-9.1 5-13.5 15.6-10.6 25.5l43.9 152c-21.4 18.2-41.8 37.8-60.9 58.4l-150.3-50.1c-9.8-3.2-20.5 0.7-25.9 9.5l-81.9 135.3c-5.4 8.8-3.9 20.2 3.6 27.4l114 109.5c-9.4 26.1-17.3 53.3-23.5 81.1l-155.2 31.7c-10.1 2.1-17.4 10.8-17.6 21.2l-3.3 158c-0.2 10.3 6.8 19.4 16.8 21.9l153.7 38c5 27.9 11.8 55.4 20 82l-118.4 104.8c-7.7 6.8-9.7 18.1-4.7 27.2l76.3 138.4c5 9.1 15.5 13.5 25.5 10.6l152.2-43.9c18.2 21.4 37.8 41.8 58.5 60.8l-50.2 150.1c-3.3 9.8 0.6 20.6 9.5 25.9l135.4 81.8c8.8 5.3 20.1 3.9 27.3-3.6l109.7-113.8c26.2 9.3 53.5 17.2 81.3 23.3l31.6 155c2.1 10.1 10.9 17.4 21.2 17.7l158.2 3.2c11.4-0.2 19.4-6.7 21.9-16.8l38.1-153.5c28-5.1 55.5-11.8 82.2-20.1l104.8 118.3c6.9 7.7 18.2 9.6 27.2 4.7l138.7-76.2c9-5 13.4-15.6 10.5-25.5l-43.9-152c21.5-18.2 41.9-37.8 60.9-58.4l150.3 50.1c9.8 3.2 20.5-0.7 25.9-9.5l81.9-135.3c5.4-8.8 3.9-20.2-3.5-27.4l-114-109.5c9.4-26.2 17.2-53.4 23.4-81.1l155.2-31.7c10.1-2.1 17.4-10.8 17.7-21.2l3.2-158c0.2-10.3-6.7-19.4-16.8-21.9l-153.7-38c-5-28-11.7-55.4-20-82l118.4-104.8c7.7-6.8 9.7-18.1 4.7-27.2l-76.3-138.5c-4.9-9-15.5-13.3-25.4-10.5l-152.2 43.9c-18.2-21.4-37.8-41.8-58.5-60.8l50.2-150.1c3.3-9.8-0.7-20.6-9.5-25.9l-135.4-81.8c-8.9-5.3-20.2-3.9-27.3 3.6l-109.7 113.9c-26.3-9.4-53.5-17.3-81.3-23.4l-31.7-155c-2-10.1-10.8-17.4-21.2-17.7l-158.2-3.2h-0.4"/><path d="m18942 19307c334.5 117 700.6-59.3 817.7-393.8 117-334.6-59.3-700.6-393.9-817.5-334.5-117-700.6 59.3-817.7 393.8-117 334.5 59.3 700.5 393.9 817.5zm-1046.6-913.7 82.3-235.2 270.5 31.1c28.9-51.1 61.4-99.1 97.6-143.7l-127.7-240 189-162.6 218.7 162.2c49.9-29.4 102.2-54.6 156.3-75.3l9.5-272.2 244.9-46.3 108.1 249.4c57.4-0.5 115.3 4 173.2 13.3l144.3-230.9 235.3 82.2-31.1 270.5c51 28.8 99.1 61.4 143.6 97.6l240.1-127.8 162.7 188.9-162.3 218.8c29.4 49.9 54.6 102.1 75.3 156.2l272.2 9.4 46.3 244.9-249.5 108.2c0.5 57.4-4 115.2-13.3 173.1l231 144.2-82.3 235.3-270.5-31.1c-28.9 51.1-61.5 99.1-97.6 143.7l127.7 240-189 162.6-218.7-162.2c-49.9 29.4-102.2 54.6-156.3 75.3l-9.5 272.1-244.9 46.4-108.2-249.4c-57.3 0.5-115.2-4-173.1-13.3l-144.3 230.9-235.3-82.3 31.1-270.4c-51-28.8-99.1-61.4-143.6-97.6l-240.1 127.7-162.7-188.9 162.3-218.7c-29.4-49.9-54.6-102.1-75.3-156.2l-272.2-9.5-46.3-244.9 249.5-108.1c-0.5-57.4 3.9-115.3 13.3-173.2l-231-144.2" fill="#fff"/><path d="m18949 19286c-156.3-54.7-281.9-166.8-353.7-315.9s-81.3-317.3-26.6-473.5c112.8-322.5 467.1-493 789.5-380.3 156.3 54.6 281.9 166.8 353.7 315.9s81.3 317.3 26.6 473.5c-112.8 322.4-467.1 493-789.5 380.3zm205.2-1248.6c-274.3 0-531.6 171.4-627.2 444.7-58.6 167.3-48.4 347.4 28.5 507.1 77 159.7 211.5 279.9 378.9 338.5 345.5 120.8 724.9-62 845.8-407.5 58.6-167.3 48.4-347.4-28.5-507.1-77-159.8-211.5-280-378.9-338.5-72.2-25.2-146-37.2-218.6-37.2zm-341.5-561.5 210.3-39.8 101.1 233.2c3.5 8.2 10.6 13.5 20.4 13.3 55.8-0.5 112.8 3.9 169.5 13 8.7 1.4 17.5-2.6 22.2-10.1l135-215.9 201.9 70.6-29.1 252.9c-1 8.8 3.4 17.4 11.1 21.7 49.9 28.2 97.3 60.3 140.6 95.5 6.9 5.6 16.5 6.5 24.3 2.3l224.5-119.4 139.6 162.2-151.7 204.5c-5.3 7.1-5.8 16.7-1.3 24.4 28.7 48.7 53.5 100.2 73.7 152.9 3.1 8.3 11 13.9 19.8 14.2l254.5 8.8 39.9 210.2-233.4 101.1c-8.1 3.6-13.4 11.6-13.3 20.5 0.5 55.8-3.9 112.8-13 169.4-1.4 8.8 2.6 17.6 10.1 22.3l216 134.8-70.7 202-252.9-29.2c-8.8-1-17.4 3.4-21.8 11.2-28.2 49.9-60.3 97.2-95.5 140.5-5.6 6.9-6.5 16.5-2.3 24.3l119.4 224.5-162.2 139.6-204.6-151.7c-7.1-5.3-16.7-5.8-24.3-1.3-48.7 28.6-100.1 53.4-153 73.7-8.3 3.2-13.9 11-14.2 19.9l-8.8 254.4-210.3 39.8-101.1-233.2c-3.5-8.1-11.5-13.3-20.3-13.3-2.5-0.3-5.9 0-8.8 0-53 0-107.1-4.4-160.8-13-8.7-1.5-17.5 2.6-22.2 10.1l-135 215.9-201.9-70.6 29.1-252.9c1-8.8-3.4-17.4-11.1-21.7-50-28.2-97.3-60.4-140.6-95.5-6.9-5.6-16.5-6.5-24.3-2.4l-224.5 119.4-139.6-162.1 151.7-204.5c5.3-7.1 5.8-16.7 1.3-24.4-28.6-48.6-53.4-100.1-73.7-152.9-3.1-8.3-11-13.9-19.8-14.2l-254.5-8.8-39.9-210.2 233.4-101.1c8.1-3.6 13.4-11.6 13.3-20.5-0.5-55.6 3.8-112.7 12.9-169.5 1.5-8.7-2.5-17.5-10.1-22.2l-215.9-134.8 70.6-202 253 29.1c8.7 1 17.4-3.3 21.8-11.1 28.2-50 60.3-97.3 95.5-140.6 5.6-6.9 6.5-16.4 2.3-24.3l-119.4-224.4 162.2-139.6 204.5 151.7c7.1 5.3 16.8 5.8 24.4 1.3 48.7-28.7 100.2-53.5 153-73.7 8.3-3.2 13.8-11 14.1-19.9zm223.5-86.9c-1.4 0-2.7 0.1-4.1 0.4l-244.9 46.3c-10.2 2-17.6 10.7-18 21l-9 257.6c-45.7 18.3-90.4 39.8-133.2 64.2l-207.1-153.6c-8.3-6.1-19.7-5.7-27.5 1l-189 162.6c-7.8 6.8-9.9 18-5.1 27.1l120.9 227.3c-30.2 38.2-58.1 79.3-83.2 122.5l-256-29.5c-10.1-1.1-20 4.9-23.4 14.7l-82.3 235.2c-3.4 9.8 0.4 20.6 9.1 26.1l218.6 136.5c-7.2 49.4-11 98.9-11.3 147.6l-236.2 102.4c-9.5 4.1-14.8 14.2-12.9 24.4l46.3 244.9c2 10.1 10.7 17.6 21 17.9l257.7 9c18.2 45.7 39.7 90.4 64.1 133.1l-153.6 207.1c-6.2 8.3-5.7 19.7 1 27.5l162.6 188.9c6.8 7.9 18 10 27.1 5.1l227.3-120.8c38.3 30.1 79.4 58 122.5 83.1l-29.4 256c-1.2 10.3 4.9 20 14.6 23.4l235.3 82.3c9.7 3.4 20.6-0.4 26-9.2l136.6-218.5c49.4 7.2 98.9 11 147.7 11.3l102.3 236.1c4.1 9.5 14.2 14.8 24.4 12.9l244.9-46.4c10.2-1.9 17.6-10.6 18-20.9l9-257.6c45.8-18.3 90.5-39.8 133.2-64.2l207.1 153.6c8.3 6.1 19.7 5.7 27.5-1l189-162.7c7.8-6.7 9.9-17.9 5.1-27.1l-120.9-227.2c30.2-38.3 58.1-79.4 83.2-122.5l256 29.5c10.1 1.1 20-4.9 23.4-14.7l82.3-235.3c3.4-9.7-0.4-20.5-9.1-26l-218.6-136.5c7.2-49.3 11-98.8 11.3-147.6l236.2-102.4c9.5-4.1 14.8-14.2 12.9-24.4l-46.3-244.9c-2-10.1-10.6-17.6-21-17.9l-257.6-9c-18.3-45.7-39.8-90.3-64.2-133.1l153.6-207.1c6.2-8.3 5.7-19.7-1-27.6l-162.6-188.9c-6.8-7.8-18.1-9.9-27.1-5l-227.3 120.8c-38.4-30.2-79.5-58.1-122.5-83.1l29.4-256c1.2-10.3-4.9-20-14.6-23.4l-235.3-82.3c-9.7-3.4-20.6 0.4-26 9.2l-136.6 218.5c-49.4-7.2-98.9-11-147.7-11.3l-102.3-236.1c-3.6-8.2-11.6-13.3-20.3-13.3"/><path d="m7171.1 10025c-5.65 0-11.29 2.2-15.61 6.5-8.62 8.6-8.62 22.6 0 31.2l1909.5 1909.1c8.62 8.7 22.6 8.7 31.23 0 8.62-8.6 8.62-22.6 0-31.2l-1909.5-1909.1c-4.31-4.3-9.96-6.5-15.61-6.5"/><path d="m7623.2 11282c-5.65 0-11.3 2.1-15.61 6.5-8.63 8.6-8.63 22.6 0 31.2l1527 1526.6c8.63 8.7 22.6 8.7 31.23 0 8.62-8.6 8.62-22.6 0-31.2l-1527-1526.6c-4.31-4.4-9.96-6.5-15.61-6.5"/><path d="m5499.6 16027c-3.9 0-7.85 1.1-11.43 3.3-10.43 6.3-13.76 19.9-7.43 30.3 727.26 1198.4 1784.5 2149.7 3057.4 2751.2 529.93 250.4 1087.2 435.2 1656.5 549.2 12.1 2.5 23.6-5.3 26-17.3 2.4-11.9-5.4-23.6-17.3-26-565.73-113.3-1119.6-296.9-1646.3-545.8-1265-597.8-2315.7-1543.3-3038.5-2734.2-4.15-6.9-11.44-10.7-18.9-10.7"/><path d="m4598.3 15829c-3.61 0-7.25 0.9-10.62 2.7-10.69 5.9-14.59 19.4-8.72 30 432.57 786.6 991.22 1491.8 1660.5 2096.2 692.57 625.4 1486.3 1126.5 2359.2 1489.2 11.29 4.7 24.19-0.7 28.87-11.9 4.68-11.3-0.66-24.2-11.91-28.9-1702.6-707.5-3122.4-1973.9-3997.9-3565.8-4.02-7.3-11.58-11.5-19.37-11.5"/><path d="m9351.6 19873 79.26-251.4 155.4 238.6zm72.25-324.7c-0.99 0-2 0.1-3 0.2-8.45 1.2-15.49 7.1-18.06 15.3l-102.91 326.3c-2.18 6.9-0.83 14.5 3.61 20.2s11.46 8.8 18.65 8.5l304.69-16.6c7.88-0.4 14.92-5 18.49-12 3.57-7.1 3.12-15.5-1.18-22.1l-201.79-309.7c-4.1-6.3-11.1-10.1-18.5-10.1"/><path d="m15752 21116c8.1-92.8 90.4-161.8 183-153.8 45 3.9 85.8 25.1 114.8 59.6 29.1 34.6 42.9 78.4 39 123.3-8 92.9-90.1 161.8-182.9 153.8-45-3.8-85.8-25-114.9-59.6-29-34.5-42.8-78.3-39-123.3zm168.3-198.6c-109.4 0-202.7 83.9-212.3 194.8-4.9 56.7 12.6 112 49.2 155.6 36.7 43.5 88.1 70.2 144.9 75.1 116.7 10.1 220.6-76.8 230.7-193.9 5-56.8-12.5-112-49.2-155.6-36.6-43.6-88-70.3-144.8-75.2-6.2-0.5-12.4-0.8-18.5-0.8"/><path d="m17667 20828h-1.1l-117.1 5.7c-12.2 0.6-21.6 11-21 23.2s11.1 21.5 23.2 20.9l117-5.7c12.2-0.6 21.6-11 21-23.1-0.6-11.8-10.3-21-22-21"/><path d="m17257 20848h-1.1l-117.1 5.7c-12.2 0.6-21.6 11-21 23.1 0.6 12.2 11 21.3 23.2 21l117-5.7c12.2-0.6 21.6-11 21-23.1-0.6-11.9-10.3-21-22-21"/><path d="m17412 20985h-1.3c-12.2 0.8-21.5 11.2-20.7 23.4l7 115.3c0.7 12.1 11.4 21.6 23.4 20.6 12.2-0.7 21.4-11.2 20.7-23.4l-7.1-115.2c-0.7-11.7-10.4-20.7-22-20.7"/><path d="m17388 20582c-0.4 0-0.9 0-1.3 0.1-12.2 0.7-21.5 11.2-20.7 23.3l7 115.3c0.7 12.2 11.4 21.7 23.4 20.7 12.1-0.7 21.4-11.2 20.7-23.4l-7.1-115.2c-0.7-11.8-10.4-20.8-22-20.8"/><path d="m6805.3 8681.7c36.53-297.4-50.17-596.8-239.96-828.7-189.78-231.8-466.13-376-764.84-398.9-300.76-23.1-597.74 78.8-821.05 281.6-223.32 202.8-353.25 488.6-359.24 790.3l71.44 5716.9c-8.18 411.6 306.31 758.1 716.71 789.6 413.63 31.7 779.05-267.5 829.63-679.3l567.31-5671.5"/><path d="m5468.8 15013c-19.44 0-39.01-0.8-58.73-2.3-398.39-30.5-704.25-367.5-696.32-767l-71.44-5717.7c5.84-293.6 134.15-575.8 352-773.7 217.87-197.8 511.38-298.4 804.52-275.9 291.25 22.4 564.4 164.8 749.44 390.9s270.74 522 235.13 812l-0.05 0.5-567.31 5671.5c-46.78 380.8-369.33 661.7-747.24 661.7zm248.88-7583.8c-276.66 0-547.17 103.5-753.06 290.4-226.81 206-360.39 499.9-366.48 806.2l71.45 5717.7c-8.39 422.3 315.38 778.9 737.1 811.3 426.54 32.7 801.13-274.2 853.24-698.6l567.34-5671.7c37-301.8-52.22-609.9-244.82-845.2-192.64-235.3-477.03-383.6-780.23-406.9-28.2-2.2-56.42-3.2-84.54-3.2"/><path d="m7915 7727.1c-212.53 0-399.59 140.1-459.28 344.1l-218.68 747c-42.54 145.4-175.85 245.2-327.32 245.2h-2757.1c-197.91 0-358.34-160.4-358.34-358.2v-2467.8h4707.6v1131.4c0 197.9-160.43 358.3-358.34 358.3h-228.54"/><path d="m3816.4 6259.5h4663.4v1109.3c0 185.4-150.84 336.2-336.25 336.2h-228.55c-220.87 0-418.44 148-480.48 360l-218.68 747c-39.52 135-165.4 229.3-306.12 229.3h-2757.1c-185.41 0-336.26-150.8-336.26-336.1zm4685.5-44.2h-4707.6c-12.2 0-22.08 9.9-22.08 22.1v2467.8c0 209.7 170.65 380.3 380.42 380.3h2757.1c160.2 0 303.52-107.4 348.52-261.1l218.66-747c56.57-193.3 236.72-328.2 438.1-328.2h228.55c209.76 0 380.42-170.6 380.42-380.4v-1131.4c0-12.2-9.88-22.1-22.08-22.1"/><path d="m8321.6 7727.1c-212.53 0-399.59 140.1-459.29 344.1l-218.67 747c-42.55 145.4-175.86 245.2-327.32 245.2h-2757.1c-197.9 0-358.34-160.4-358.34-358.2v-2467.8h4707.6v1131.4c0 197.9-160.43 358.3-358.34 358.3h-228.54" fill="#fff"/><path d="m4223 6259.5h4663.4v1109.3c0 185.4-150.85 336.2-336.26 336.2h-228.54c-220.86 0-418.44 148-480.48 360l-218.68 747c-39.53 135-165.41 229.3-306.12 229.3h-2757.1c-185.41 0-336.26-150.8-336.26-336.1zm4685.5-44.2h-4707.6c-12.19 0-22.08 9.9-22.08 22.1v2467.8c0 209.7 170.66 380.3 380.42 380.3h2757.1c160.19 0 303.51-107.4 348.51-261.1l218.68-747c56.56-193.3 236.71-328.2 438.09-328.2h228.54c209.76 0 380.42-170.6 380.42-380.4v-1131.4c0-12.2-9.89-22.1-22.08-22.1"/><path d="m8730.1 7323.9c0-107.5-87.19-194.7-194.72-194.7-107.55 0-194.73 87.2-194.73 194.7s87.18 194.7 194.73 194.7c107.53 0 194.72-87.2 194.72-194.7" fill="#fff"/><path d="m9383.5 6171.4h-6051v269.8h6051v-269.8"/><path d="m21224 7825.6-10813 1503.7c-271.5 34.7-474.97 265.7-474.97 539.4l-148.34 7542.3s246.51 177.7 386.21 245.8c71.1 34.6 152.9 49.8 238.1 38.9l10781-1374.8c271.5-34.7 475-265.7 475-539.4v-7407.9c0-132.6-60.6-249.4-154.3-326.5-86.3-70.9-289.5-221.5-289.5-221.5"/><path d="m20894 7725.4-10781 1374.9c-271.45 34.6-474.89 265.6-474.89 539.3v7407.9c0 254.6 223.44 451.4 475.99 419.2l10781-1374.9c271.5-34.7 475-265.7 475-539.4v-7407.9c0-254.6-223.5-451.3-476-419.1" fill="#fff"/><path d="m20665 8030.7-10294 1312.8c-197.4 25.2-345.4 193.2-345.4 392.3v7145.6c0 170 149.2 301.4 317.9 279.9l10294-1312.8c197.4-25.2 345.4-193.2 345.4-392.2v-7145.7c0-170-149.3-301.4-317.9-279.9" fill="#fff"/><path d="m20667 8052.6c74-9.4 148.7 13.5 204.8 62.8 56 49.4 88.2 120.5 88.2 195.2v7145.7c0 187.4-140.2 346.6-326.1 370.3l-10294 1312.8c-74.1 9.4-148.7-13.5-204.8-62.8-56.1-49.4-88.2-120.5-88.2-195.2v-7145.7c0-187.4 140.2-346.6 326.1-370.3zm32.9-46.2c-12.8 0-25.7 0.8-38.5 2.4l-10294 1312.8c-207.9 26.5-364.7 204.6-364.7 414.1v7145.7c0 87.4 37.6 170.6 103.2 228.3 65.6 57.8 152.9 84.5 239.6 73.5l10294-1312.8c207.9-26.5 364.7-204.6 364.7-414.1v-7145.7c0-87.3-37.7-170.6-103.2-228.3-55.9-49.2-127.6-75.9-201.1-75.9"/><path d="m20947 7699.9c-18.7 0-37.4 1.2-56.2 3.6l-10781 1374.8c-281.8 36-494.28 277.3-494.28 561.3v3035.9c0 12.2 9.89 22.1 22.08 22.1 12.2 0 22.09-9.9 22.09-22.1v-3035.9c0-261.9 195.89-484.3 455.61-517.4l10781-1374.9c114-14.6 229 20.6 315.3 96.7 86.3 76 135.8 185.5 135.8 300.5v7407.9c0 261.9-195.9 484.3-455.7 517.5l-5556.4 708.5c-12.1 1.6-20.6 12.7-19.1 24.8 1.6 12 12.7 20.6 24.8 19.1l5556.3-708.6c281.8-36 494.2-277.3 494.2-561.3v-7407.9c0-127.7-54.9-249.3-150.7-333.7-81.6-71.9-186.4-110.9-293.9-110.9"/><path d="m9637.8 15138c-12.19 0-22.08 9.9-22.08 22.1v1887.7c0 127.7 54.96 249.3 150.78 333.7 95.8 84.4 223.29 123.5 350.1 107.4l2538.8-323.8c12.1-1.6 20.6-12.6 19.1-24.7-1.6-12.1-12.5-20.7-24.8-19.1l-2538.7 323.7c-114.09 14.6-229.01-20.6-315.31-96.6-86.31-76-135.8-185.6-135.8-300.6v-1887.7c0-12.2-9.89-22.1-22.09-22.1"/><path d="m14604 3362.6-11088 1429.9c-86.78 11.1-135.72 83.8-134.61 156.5 0.78 50.1 4.83 403 4.83 403l5862.7 3351.6c293.74 167.8 673.79 232.6 1009.3 189.6l10948-1412.3c65.9-8.5 122.4-51.2 148.5-112.3l17.6-41.2s-9.4-294.4-5.6-363.1c3-53.8-21.2-109.3-77.5-141.5l-5715.5-3267.9c-293.8-167.8-634.2-235.3-969.7-192.3"/><path d="m14604 3755.4-11048 1427.2c-146.65 18.8-185.23 213.3-56.84 286.6l5684.8 3246.9c293.74 167.7 634.14 235.2 969.63 192.3l11048-1427.2c146.6-18.8 185.2-213.3 56.8-286.6l-5684.8-3246.9c-293.8-167.8-634.2-235.3-969.7-192.3" fill="#fff"/><path d="m14607 3777.3c328.8-42.1 668.2 25.2 955.9 189.6l5684.9 3246.8c60.8 34.8 72.9 95.3 64 140.3-8.9 45.1-43.2 96.4-112.7 105.3l-11048 1427.2c-328.64 42.1-668.13-25.3-955.87-189.6l-5684.8-3246.9c-60.83-34.7-72.95-95.2-64.01-140.2 8.93-45.1 43.23-96.4 112.7-105.3zm192.5-56.4c-66.1 0-132.3 4.2-198.1 12.6l-11048 1427.2c-76.37 9.8-135.41 64.9-150.4 140.5-14.99 75.5 18.55 149 85.42 187.2l5684.9 3246.8c296.02 169.1 645.28 238.4 983.48 195.1l11048-1427.2c76.4-9.8 135.4-64.9 150.4-140.5 15-75.5-18.5-149-85.4-187.2l-5684.9-3246.9c-238.4-136.2-511.4-207.6-785.3-207.6"/><path d="m16767 5557.7-9580.2 1246.6c-132.46 16.9-167.29 192.6-51.34 258.8l2252.6 1273.6c265.3 151.5 572.75 212.5 875.81 173.7l9580.2-1246.6c132.4-17 167.3-192.7 51.3-258.9l-2252.6-1273.5c-265.3-151.6-572.7-212.5-875.8-173.7" fill="#fff"/><path d="m16770 5579.6c296.3-38 602.5 22.7 862 170.9l2252.6 1273.6c53.9 30.8 64.7 84.5 56.7 124.4-7.9 40-38.3 85.5-99.9 93.4l-9580.3 1246.6c-296.33 37.9-602.46-22.8-861.96-171l-2252.7-1273.6c-53.87-30.7-64.63-84.4-56.7-124.4 7.92-39.9 38.34-85.4 99.97-93.3zm173.5-55.2c-59.8 0-119.7 3.7-179.2 11.4l-9580.2 1246.6c-69.89 8.9-123.93 59.4-137.65 128.5-13.7 69.2 16.99 136.5 78.2 171.4l2252.7 1273.6c267.69 152.9 583.56 215.6 889.48 176.4l9580.2-1246.6c69.9-9 123.9-59.4 137.6-128.6 13.8-69.1-16.9-136.4-78.2-171.4l-2252.6-1273.6c-215.6-123.1-462.6-187.7-710.3-187.7"/><path d="m15229 15390 4396.9-496.1 0.7 187.1-4396.9 496zm4418.9-542.9c-0.8 0-1.6 0.1-2.5 0.2l-4441 501c-11.2 1.3-19.7 10.8-19.6 22l0.8 231.5c0 6.3 2.7 12.3 7.4 16.4 4.7 4.2 10.8 6.2 17.2 5.5l4441-501.1c11.2-1.2 19.7-10.7 19.6-22l-0.8-231.5c0-6.2-2.7-12.2-7.4-16.4-4.1-3.6-9.3-5.6-14.7-5.6"/><path d="m16152 14904 4480.7-505.5 0.7 187-4480.7 505.6zm4502.7-552.3c-0.8 0-1.6 0-2.5 0.1l-4524.8 510.6c-11.2 1.2-19.6 10.7-19.6 22l0.9 231.4c0 6.3 2.7 12.3 7.3 16.5 4.7 4.1 10.9 6.1 17.2 5.4l4524.8-510.5c11.2-1.3 19.7-10.8 19.6-22l-0.8-231.5c0-6.3-2.7-12.2-7.4-16.4-4.1-3.6-9.3-5.6-14.7-5.6"/><path d="m17791 14337 2294.6-258.9 0.7 187-2294.6 258.9zm2316.6-305.7c-0.8 0-1.6 0.1-2.5 0.2l-2338.8 263.8c-11.2 1.3-19.6 10.8-19.6 22l0.9 231.5c0 6.3 2.7 12.3 7.4 16.4 4.7 4.2 10.8 6.2 17.1 5.5l2338.8-263.9c11.2-1.2 19.7-10.7 19.6-22l-0.8-231.5c0-6.2-2.7-12.2-7.4-16.4-4.1-3.6-9.3-5.6-14.7-5.6"/><path d="m15218 12336 4396.9-496.1 0.7 187.1-4396.9 496zm4418.9-542.8c-0.8 0-1.6 0-2.5 0.1l-4441 501c-11.2 1.3-19.7 10.8-19.6 22.1l0.8 231.4c0 6.3 2.7 12.3 7.4 16.5 4.7 4.1 10.8 6.1 17.2 5.4l4441-501.1c11.2-1.2 19.7-10.7 19.6-22l-0.8-231.4c0-6.3-2.7-12.3-7.4-16.5-4.1-3.6-9.3-5.5-14.7-5.5"/><path d="m16141 11851 4480.6-505.5 0.7 187.1-4480.7 505.5zm4502.6-552.3c-0.8 0-1.6 0.1-2.5 0.2l-4524.8 510.5c-11.2 1.2-19.6 10.7-19.6 22l0.9 231.5c0 6.2 2.7 12.2 7.4 16.4 4.7 4.1 10.8 6.1 17.1 5.4l4524.8-510.5c11.2-1.2 19.7-10.7 19.7-22l-0.9-231.5c0-6.2-2.7-12.2-7.4-16.4-4.1-3.6-9.3-5.6-14.7-5.6"/><path d="m17780 11284 2840.2-320.4 0.7 187-2840.2 320.5zm2862.2-367.2c-0.8 0-1.6 0-2.5 0.1l-2884.4 325.5c-11.2 1.2-19.6 10.7-19.6 22l0.9 231.5c0 6.2 2.7 12.2 7.4 16.4 4.7 4.1 10.8 6.1 17.1 5.4l2884.5-325.4c11.1-1.3 19.6-10.8 19.6-22l-0.9-231.5c0-6.3-2.7-12.3-7.4-16.4-4.1-3.6-9.3-5.6-14.7-5.6"/><path d="m16121 11105 2647-298.6 0.7 187-2647.1 298.7zm2669-345.4c-0.8 0-1.6 0-2.5 0.1l-2691.2 303.7c-11.2 1.2-19.6 10.7-19.6 22l0.9 231.5c0 6.2 2.7 12.2 7.4 16.4 4.7 4.1 10.8 6.2 17.1 5.4l2691.2-303.6c11.2-1.3 19.7-10.7 19.6-22l-0.8-231.5c0-6.3-2.7-12.2-7.4-16.4-4.1-3.6-9.3-5.6-14.7-5.6"/><path d="m15225 14245 4396.9-496.1 0.7 187.1-4396.9 496zm4418.9-542.9c-0.8 0-1.6 0.1-2.5 0.2l-4441 501c-11.2 1.3-19.7 10.8-19.6 22l0.8 231.5c0 6.3 2.7 12.3 7.4 16.4 4.7 4.2 10.8 6.2 17.2 5.5l4441-501.1c11.2-1.2 19.7-10.7 19.6-22l-0.8-231.5c0-6.2-2.7-12.2-7.4-16.4-4.1-3.6-9.3-5.6-14.7-5.6"/><path d="m16148 13759 4480.7-505.5 0.7 187-4480.7 505.5zm4502.7-552.3c-0.8 0-1.6 0-2.5 0.1l-4524.8 510.5c-11.2 1.3-19.6 10.8-19.6 22.1l0.9 231.4c0 6.3 2.7 12.3 7.4 16.4 4.7 4.2 10.8 6.2 17.1 5.5l4524.8-510.5c11.2-1.3 19.7-10.8 19.6-22l-0.8-231.5c0-6.3-2.7-12.2-7.4-16.4-4.1-3.6-9.3-5.6-14.7-5.6"/><path d="m17785 12810 1749-197.4 0.7 187.1-1749 197.3zm1771-244.2c-0.8 0-1.6 0.1-2.5 0.2l-1793.2 202.3c-11.2 1.3-19.6 10.7-19.6 22l0.9 231.5c0 6.3 2.7 12.2 7.4 16.4s10.8 6.2 17.1 5.5l1793.2-202.4c11.2-1.2 19.7-10.7 19.6-22l-0.8-231.5c0-6.2-2.7-12.2-7.4-16.4-4.1-3.6-9.3-5.6-14.7-5.6"/><path d="m18320 12369 1749-197.3 0.7 187-1749 197.4zm1771-244.1c-0.8 0-1.6 0.1-2.4 0.1l-1793.2 202.4c-11.2 1.2-19.7 10.7-19.6 22l0.8 231.4c0 6.3 2.7 12.3 7.4 16.5 4.7 4.1 10.8 6.1 17.2 5.4l1793.2-202.3c11.1-1.3 19.6-10.8 19.6-22l-0.9-231.5c0-6.3-2.7-12.2-7.4-16.4-4.1-3.6-9.3-5.6-14.7-5.6"/><path d="m17787 13192 2840.2-320.5 0.7 187.1-2840.2 320.4zm2862.2-367.2c-0.8 0-1.6 0-2.5 0.1l-2884.4 325.4c-11.2 1.3-19.6 10.8-19.6 22l0.9 231.5c0 6.3 2.7 12.3 7.4 16.4 4.7 4.2 10.8 6.2 17.1 5.5l2884.4-325.4c11.2-1.3 19.7-10.8 19.6-22.1l-0.8-231.4c0-6.3-2.7-12.3-7.4-16.5-4.1-3.6-9.3-5.5-14.7-5.5"/><path d="m15213 10810 4396.9-496.1 0.7 187-4396.9 496.1zm4418.9-542.9c-0.8 0-1.6 0-2.5 0.1l-4441 501.1c-11.2 1.3-19.7 10.8-19.6 22l0.8 231.5c0 6.3 2.7 12.2 7.4 16.4s10.9 6.2 17.2 5.5l4441-501.1c11.2-1.3 19.7-10.8 19.6-22l-0.8-231.5c0-6.3-2.7-12.2-7.4-16.4-4.1-3.6-9.3-5.6-14.7-5.6"/><path d="m16135 10324 4335.2-489.1 0.7 187-4335.2 489.1zm4357.2-535.9c-0.8 0-1.6 0.1-2.5 0.1l-4379.3 494.1c-11.2 1.3-19.6 10.8-19.6 22.1l0.9 231.4c0 6.3 2.7 12.3 7.4 16.4 4.7 4.2 10.8 6.2 17.1 5.5l4379.3-494.1c11.2-1.3 19.7-10.8 19.6-22l-0.8-231.5c0-6.3-2.7-12.2-7.4-16.4-4.1-3.6-9.3-5.6-14.7-5.6"/><path d="m17774 9757.4 2840.2-320.5 0.7 187.1-2840.2 320.4zm2862.2-367.2c-0.8 0-1.6 0-2.5 0.1l-2884.4 325.4c-11.2 1.3-19.6 10.8-19.6 22l0.9 231.5c0 6.3 2.7 12.2 7.4 16.4s10.8 6.2 17.1 5.5l2884.4-325.5c11.2-1.2 19.7-10.7 19.6-22l-0.8-231.4c0-6.3-2.7-12.3-7.4-16.5-4.1-3.6-9.3-5.5-14.7-5.5"/><path d="m15208 9665.1 4396.9-496.1 0.7 187-4396.9 496.1zm4418.9-542.9c-0.8 0-1.6 0-2.5 0.1l-4441 501.1c-11.2 1.3-19.7 10.8-19.6 22l0.8 231.5c0 6.3 2.7 12.2 7.4 16.4s10.9 6.1 17.2 5.4l4441-501c11.2-1.3 19.7-10.7 19.6-22l-0.8-231.5c0-6.3-2.7-12.2-7.4-16.4-4.1-3.6-9.3-5.6-14.7-5.6"/><path d="m16131 9179.2 4480.6-505.5 0.7 187-4480.6 505.5zm4502.6-552.3c-0.8 0-1.6 0-2.5 0.1l-4524.8 510.5c-11.2 1.3-19.6 10.8-19.6 22.1l0.9 231.4c0 6.3 2.7 12.3 7.4 16.4 4.7 4.2 10.8 6.2 17.1 5.5l4524.8-510.5c11.2-1.3 19.7-10.8 19.6-22l-0.8-231.5c0-6.3-2.7-12.3-7.4-16.4-4.1-3.6-9.3-5.6-14.7-5.6"/><path d="m14417 12813 388.5-43.8 0.6 177.9-388.4 43.9zm410.5-90.6c-0.8 0-1.7 0-2.5 0.1l-432.6 48.8c-11.2 1.3-19.7 10.8-19.6 22.1l0.8 222.4c0 6.2 2.7 12.2 7.4 16.4 4.7 4.1 10.8 6.1 17.1 5.4l432.7-48.8c11.2-1.3 19.6-10.8 19.6-22l-0.8-222.4c-0.1-6.3-2.8-12.3-7.4-16.4-4.1-3.6-9.3-5.6-14.7-5.6"/><path d="m14425 15480 406.8-45.9 0.7 187-406.8 45.9zm428.8-92.7c-0.9 0-1.7 0.1-2.5 0.2l-450.9 50.8c-11.2 1.3-19.7 10.8-19.6 22.1l0.8 231.4c0.1 6.3 2.8 12.3 7.4 16.4 4.7 4.2 10.9 6.2 17.2 5.5l450.9-50.9c11.2-1.2 19.6-10.7 19.6-22l-0.9-231.5c0-6.2-2.7-12.2-7.4-16.4-4-3.6-9.2-5.6-14.6-5.6"/><path d="m14426 15831 406.8-45.9 0.7 187-406.8 45.9zm428.7-92.7c-0.8 0-1.6 0.1-2.4 0.2l-450.9 50.8c-11.2 1.3-19.7 10.8-19.6 22l0.8 231.5c0 6.3 2.7 12.3 7.4 16.4 4.7 4.2 10.8 6.1 17.2 5.5l450.9-50.9c11.2-1.2 19.6-10.7 19.6-22l-0.9-231.5c0-6.3-2.7-12.2-7.4-16.4-4-3.6-9.3-5.6-14.7-5.6"/><path d="m14424 15099 403.3-45.5 0.7 187-403.3 45.5zm425.3-92.3c-0.8 0-1.6 0-2.5 0.1l-447.4 50.5c-11.2 1.3-19.6 10.8-19.6 22l0.8 231.5c0.1 6.3 2.7 12.2 7.4 16.4s10.9 6.2 17.2 5.5l447.4-50.5c11.2-1.3 19.7-10.8 19.6-22l-0.8-231.5c0-6.3-2.7-12.3-7.4-16.4-4.1-3.6-9.3-5.6-14.7-5.6"/><path d="m14430 14716 380.6-43 0.6 187.1-380.5 42.9zm402.5-89.7c-0.8 0-1.6 0-2.4 0.1l-424.7 47.9c-11.2 1.3-19.7 10.8-19.6 22l0.8 231.5c0 6.3 2.7 12.2 7.4 16.4s10.8 6.2 17.2 5.5l424.7-47.9c11.2-1.3 19.6-10.8 19.6-22.1l-0.9-231.4c0-6.3-2.7-12.3-7.4-16.5-4.1-3.6-9.3-5.5-14.7-5.5"/><path d="m14423 14335 388.1-43.7 0.7 187-388.1 43.8zm410.1-90.5c-0.8 0-1.6 0-2.4 0.1l-432.3 48.8c-11.2 1.2-19.7 10.7-19.6 22l0.8 231.5c0 6.2 2.7 12.2 7.4 16.4 4.7 4.1 10.8 6.1 17.2 5.4l432.3-48.7c11.1-1.3 19.6-10.8 19.6-22.1l-0.9-231.4c0-6.3-2.7-12.3-7.4-16.4-4.1-3.7-9.3-5.6-14.7-5.6"/><path d="m14419 13954 388.1-43.8 0.7 187-388.1 43.8zm410.1-90.6c-0.8 0-1.6 0-2.4 0.1l-432.3 48.8c-11.2 1.3-19.7 10.7-19.6 22l0.8 231.5c0.1 6.3 2.8 12.2 7.4 16.4 4.7 4.2 10.8 6.2 17.2 5.4l432.3-48.7c11.2-1.3 19.6-10.8 19.6-22l-0.9-231.5c0-6.3-2.7-12.3-7.4-16.4-4.1-3.6-9.3-5.6-14.7-5.6"/><path d="m14431 13204 384.2-43.4 0.7 187-384.2 43.4zm406.2-90.2c-0.8 0-1.6 0.1-2.5 0.2l-428.4 48.3c-11.2 1.3-19.6 10.7-19.6 22l0.9 231.5c0 6.3 2.7 12.2 7.4 16.4s10.8 6.1 17.1 5.4l428.4-48.3c11.2-1.3 19.7-10.7 19.7-22l-0.9-231.5c0-6.3-2.7-12.2-7.4-16.4-4.1-3.6-9.3-5.6-14.7-5.6"/><path d="m14441 13585 365.4-41.2 0.7 187-365.4 41.2zm387.4-88c-0.8 0-1.7 0-2.5 0.1l-409.5 46.2c-11.2 1.3-19.6 10.8-19.6 22l0.8 231.5c0.1 6.3 2.8 12.3 7.4 16.4 4.7 4.2 10.8 6.2 17.2 5.5l409.5-46.2c11.2-1.3 19.7-10.8 19.6-22.1l-0.8-231.4c-0.1-6.3-2.8-12.3-7.4-16.4-4.1-3.7-9.3-5.6-14.7-5.6"/><path d="m14413 11654 388.5-43.9 0.7 178-388.5 43.8zm410.5-90.7c-0.8 0-1.6 0.1-2.5 0.2l-432.6 48.8c-11.2 1.3-19.6 10.8-19.6 22l0.8 222.4c0 6.3 2.7 12.2 7.4 16.4s10.9 6.1 17.2 5.5l432.6-48.8c11.2-1.3 19.7-10.8 19.6-22.1l-0.8-222.4c0-6.2-2.7-12.2-7.4-16.4-4.1-3.6-9.3-5.6-14.7-5.6"/><path d="m14427 12045 384.3-43.3 0.7 187-384.3 43.3zm406.3-90.1c-0.9 0-1.7 0-2.5 0.1l-428.4 48.3c-11.2 1.3-19.7 10.8-19.6 22.1l0.8 231.4c0.1 6.3 2.7 12.3 7.4 16.4 4.7 4.2 10.9 6.2 17.2 5.5l428.4-48.3c11.2-1.3 19.6-10.8 19.6-22.1l-0.9-231.4c0-6.3-2.7-12.3-7.4-16.4-4-3.7-9.2-5.6-14.6-5.6"/><path d="m14437 12426 365.3-41.2 0.7 187.1-365.3 41.2zm387.3-88c-0.8 0-1.6 0.1-2.4 0.2l-409.6 46.2c-11.2 1.2-19.6 10.7-19.6 22l0.9 231.5c0 6.2 2.7 12.2 7.4 16.4 4.7 4.1 10.8 6.1 17.2 5.4l409.5-46.2c11.2-1.2 19.6-10.7 19.6-22l-0.9-231.5c0-6.2-2.7-12.2-7.4-16.4-4.1-3.6-9.3-5.6-14.7-5.6"/><path d="m14405 9396.5 388.4-43.8 0.7 177.9-388.5 43.8zm410.4-90.6c-0.8 0-1.6 0-2.4 0.1l-432.7 48.8c-11.2 1.3-19.6 10.8-19.6 22.1l0.8 222.3c0.1 6.3 2.8 12.3 7.4 16.4 4.7 4.2 10.9 6.2 17.2 5.5l432.6-48.8c11.2-1.3 19.7-10.8 19.6-22.1l-0.8-222.3c0-6.3-2.7-12.3-7.4-16.4-4.1-3.7-9.3-5.6-14.7-5.6"/><path d="m14417 11300 380.5-43 0.7 187.1-380.5 42.9zm402.5-89.8c-0.8 0-1.6 0.1-2.5 0.2l-424.7 47.9c-11.2 1.3-19.6 10.7-19.6 22l0.9 231.5c0 6.3 2.7 12.2 7.4 16.4s10.8 6.2 17.2 5.4l424.6-47.9c11.2-1.2 19.7-10.7 19.6-22l-0.8-231.5c0-6.2-2.7-12.2-7.4-16.4-4.1-3.6-9.3-5.6-14.7-5.6"/><path d="m14411 10918 388.1-43.8 0.7 187.1-388.1 43.8zm410.1-90.6c-0.8 0-1.6 0.1-2.5 0.2l-432.3 48.8c-11.1 1.2-19.6 10.7-19.6 22l0.9 231.4c0 6.3 2.7 12.3 7.4 16.5 4.7 4.1 10.8 6.1 17.1 5.4l432.3-48.8c11.2-1.2 19.7-10.7 19.6-22l-0.8-231.4c0-6.3-2.7-12.3-7.4-16.5-4.1-3.6-9.3-5.6-14.7-5.6"/><path d="m14407 10537 388.1-43.7 0.7 187-388.1 43.8zm410.1-90.5c-0.8 0-1.6 0-2.5 0.1l-432.2 48.8c-11.2 1.2-19.7 10.7-19.6 22l0.8 231.5c0 6.2 2.7 12.2 7.4 16.4 4.7 4.1 10.8 6.1 17.2 5.4l432.2-48.7c11.2-1.3 19.7-10.8 19.6-22l-0.8-231.5c0-6.3-2.7-12.3-7.4-16.4-4.1-3.7-9.3-5.6-14.7-5.6"/><path d="m14419 9787.4 384.3-43.3 0.7 187-384.3 43.4zm406.3-90.1c-0.8 0-1.7 0-2.5 0.1l-428.4 48.4c-11.2 1.2-19.6 10.7-19.6 22l0.8 231.5c0.1 6.2 2.8 12.2 7.4 16.4 4.7 4.1 10.9 6.1 17.2 5.4l428.4-48.3c11.2-1.3 19.7-10.7 19.6-22l-0.8-231.5c-0.1-6.3-2.8-12.2-7.4-16.4-4.1-3.6-9.3-5.6-14.7-5.6"/><path d="m14428 10168 365.4-41.3 0.7 187.1-365.4 41.2zm387.4-88c-0.9 0-1.7 0-2.5 0.1l-409.5 46.2c-11.2 1.3-19.7 10.7-19.6 22l0.8 231.5c0 6.3 2.7 12.2 7.4 16.4s10.8 6.2 17.2 5.5l409.5-46.3c11.2-1.2 19.6-10.7 19.6-22l-0.9-231.5c0-6.2-2.7-12.2-7.4-16.4-4-3.6-9.3-5.5-14.6-5.5"/><path d="m10395 16337 2093.6-236.2 0.7 177.9-2093.7 236.2zm2115.6-283c-0.8 0-1.6 0-2.5 0.1l-2137.7 241.2c-11.2 1.3-19.7 10.8-19.6 22.1l0.8 222.3c0 6.3 2.7 12.3 7.4 16.5 4.6 4.1 10.8 6.1 17.1 5.4l2137.8-241.2c11.2-1.3 19.7-10.7 19.6-22l-0.8-222.4c0-6.3-2.7-12.2-7.4-16.4-4.1-3.6-9.3-5.6-14.7-5.6"/><path d="m10703 15916 2209.3-249.3 0.7 187-2209.3 249.3zm2231.3-296.1c-0.8 0-1.6 0-2.5 0.1l-2253.4 254.3c-11.2 1.2-19.6 10.7-19.6 22l0.8 231.5c0.1 6.2 2.8 12.2 7.4 16.4 4.7 4.1 11 6.2 17.2 5.4l2253.4-254.2c11.2-1.3 19.7-10.8 19.6-22l-0.8-231.5c0-6.3-2.7-12.2-7.4-16.4-4.1-3.6-9.3-5.6-14.7-5.6"/><path d="m10968 15504 2581.2-291.2 0.7 187.1-2581.2 291.2zm2603.2-338c-0.8 0-1.6 0.1-2.5 0.2l-2625.3 296.2c-11.2 1.2-19.7 10.7-19.6 22l0.8 231.5c0 6.2 2.7 12.2 7.4 16.4s10.9 6.1 17.2 5.4l2625.3-296.2c11.2-1.2 19.7-10.7 19.6-22l-0.8-231.4c0-6.3-2.7-12.3-7.4-16.5-4.1-3.6-9.3-5.6-14.7-5.6"/><path d="m11787 15030 2146.8-242.3 0.7 187.1-2146.8 242.2zm2168.7-289c-0.8 0-1.6 0-2.4 0.1l-2190.9 247.2c-11.2 1.2-19.7 10.7-19.6 22l0.8 231.5c0.1 6.2 2.8 12.2 7.4 16.4 4.7 4.2 11 6.2 17.2 5.4l2190.9-247.1c11.2-1.3 19.6-10.8 19.6-22.1l-0.9-231.4c0-6.3-2.7-12.3-7.4-16.5-4-3.6-9.3-5.5-14.7-5.5"/><path d="m10383 13284 1687.4-190.4 0.6 178-1687.4 190.4zm1709.4-237.1c-0.9 0-1.7 0-2.5 0.1l-1731.5 195.4c-11.2 1.2-19.7 10.7-19.6 22l0.8 222.4c0 6.2 2.7 12.2 7.4 16.4 4.7 4.1 10.9 6.1 17.1 5.4l1731.6-195.3c11.2-1.3 19.6-10.8 19.6-22.1l-0.9-222.3c0-6.3-2.7-12.3-7.4-16.5-4-3.6-9.3-5.5-14.6-5.5"/><path d="m10924 12836 1222.1-137.9 0.7 187-1222.1 137.9zm1244.1-184.7c-0.8 0-1.6 0-2.5 0.1l-1266.2 142.9c-11.2 1.2-19.7 10.7-19.6 22l0.8 231.5c0.1 6.3 2.7 12.2 7.4 16.4s11 6.1 17.2 5.4l1266.2-142.8c11.2-1.3 19.7-10.8 19.6-22l-0.8-231.5c0-6.3-2.7-12.2-7.4-16.4-4.1-3.6-9.3-5.6-14.7-5.6"/><path d="m11480 12392 1168-131.8 0.6 187.1-1168 131.7zm1189.9-178.6c-0.8 0-1.6 0.1-2.4 0.2l-1212.2 136.7c-11.2 1.3-19.6 10.8-19.6 22.1l0.9 231.4c0 6.3 2.7 12.3 7.4 16.4 4.6 4.2 10.9 6.2 17.1 5.5l1212.2-136.8c11.2-1.2 19.6-10.7 19.6-22l-0.9-231.5c0-6.2-2.7-12.2-7.4-16.4-4-3.6-9.3-5.6-14.7-5.6"/><path d="m12008 11950 1489.8-168.1 0.7 187-1489.8 168.1zm1511.8-214.9c-0.8 0-1.6 0-2.5 0.1l-1533.9 173.1c-11.2 1.3-19.6 10.7-19.6 22l0.8 231.5c0.1 6.3 2.8 12.2 7.4 16.4 4.7 4.2 11 6.2 17.2 5.5l1533.9-173.1c11.2-1.3 19.7-10.8 19.6-22l-0.8-231.5c0-6.3-2.7-12.3-7.4-16.4-4.1-3.6-9.3-5.6-14.7-5.6"/><path d="m10417 14802 1504.1-169.7 0.6 187-1504 169.7zm1526-216.5c-0.8 0-1.6 0-2.4 0.1l-1548.2 174.7c-11.2 1.3-19.7 10.8-19.6 22l0.8 231.5c0.1 6.3 2.7 12.3 7.4 16.4 4.7 4.2 10.9 6.2 17.2 5.5l1548.2-174.7c11.2-1.3 19.6-10.7 19.6-22l-0.9-231.5c0-6.3-2.7-12.2-7.4-16.4-4-3.6-9.3-5.6-14.7-5.6"/><path d="m11545 14293 2348.1-264.9 0.7 187-2348.1 265zm2370.1-311.7c-0.8 0-1.7 0.1-2.5 0.2l-2392.2 269.9c-11.2 1.2-19.7 10.7-19.6 22l0.8 231.5c0.1 6.2 2.8 12.2 7.4 16.4 4.7 4.1 10.9 6.1 17.2 5.4l2392.2-269.9c11.2-1.2 19.7-10.7 19.6-22l-0.8-231.5c-0.1-6.2-2.8-12.2-7.4-16.4-4.1-3.6-9.3-5.6-14.7-5.6"/><path d="m10433 14038 1504-169.7 0.7 187.1-1504 169.7zm1526-216.4c-0.8 0-1.6 0-2.5 0.1l-1548.2 174.7c-11.2 1.2-19.6 10.7-19.6 22l0.9 231.5c0 6.2 2.7 12.2 7.4 16.4 4.7 4.1 10.9 6.2 17.1 5.4l1548.2-174.6c11.2-1.3 19.7-10.8 19.6-22.1l-0.8-231.4c0-6.3-2.7-12.3-7.4-16.5-4.1-3.6-9.3-5.5-14.7-5.5"/><path d="m11561 13529 2348-264.9 0.7 187-2348 264.9zm2370-311.7c-0.8 0-1.6 0-2.4 0.1l-2392.3 269.9c-11.2 1.3-19.6 10.8-19.6 22l0.9 231.5c0 6.3 2.7 12.2 7.4 16.4s10.9 6.2 17.2 5.5l2392.2-269.9c11.2-1.3 19.6-10.8 19.6-22.1l-0.9-231.4c0-6.3-2.7-12.3-7.4-16.4-4-3.7-9.3-5.6-14.7-5.6"/><path d="m10378 11757 1880.8-212.2 0.7 177.9-1880.8 212.2zm1902.8-259c-0.8 0-1.6 0-2.5 0.1l-1924.9 217.2c-11.2 1.3-19.7 10.8-19.6 22l0.8 222.4c0 6.3 2.7 12.3 7.4 16.4 4.7 4.2 10.9 6.2 17.1 5.5l1925-217.2c11.2-1.3 19.7-10.8 19.6-22l-0.8-222.4c0-6.3-2.7-12.2-7.4-16.4-4.1-3.6-9.3-5.6-14.7-5.6"/><path d="m10454 11362 3099.4-349.6 0.6 187-3099.3 349.7zm3121.4-396.4c-0.9 0-1.7 0-2.5 0.1l-3143.5 354.7c-11.2 1.2-19.6 10.7-19.6 22l0.9 231.5c0 6.2 2.7 12.2 7.3 16.4 4.7 4.1 11 6.1 17.2 5.4l3143.5-354.6c11.2-1.3 19.6-10.8 19.6-22l-0.9-231.5c0-6.3-2.7-12.3-7.4-16.4-4-3.7-9.3-5.6-14.6-5.6"/><path d="m11830 10825 1760.5-198.6 0.8 187-1760.6 198.6zm1782.5-245.4c-0.8 0-1.6 0-2.4 0.1l-1804.7 203.6c-11.2 1.3-19.7 10.8-19.6 22.1l0.8 231.4c0 6.3 2.7 12.3 7.4 16.4 4.7 4.2 10.9 6.2 17.2 5.5l1804.7-203.6c11.2-1.3 19.6-10.8 19.6-22.1l-0.9-231.4c0-6.3-2.7-12.3-7.4-16.4-4-3.6-9.3-5.6-14.7-5.6"/><path d="m10895 10167 2034.6-229.5 0.7 187-2034.6 229.5zm2056.6-276.3c-0.9 0-1.7 0-2.5 0.1l-2078.8 234.5c-11.2 1.3-19.6 10.8-19.6 22.1l0.9 231.4c0 6.3 2.7 12.3 7.4 16.4 4.7 4.2 10.9 6.2 17.2 5.5l2078.7-234.5c11.2-1.3 19.6-10.8 19.6-22.1l-0.8-231.4c-0.1-6.3-2.8-12.3-7.4-16.5-4.1-3.6-9.3-5.5-14.7-5.5"/><path d="m12309 10420 1686.8-190.3 0.7 187-1686.8 190.3zm1708.8-237.1c-0.8 0-1.6 0-2.5 0.1l-1730.9 195.3c-11.2 1.3-19.7 10.8-19.6 22.1l0.8 231.4c0 6.3 2.7 12.3 7.4 16.4 4.7 4.2 11 6.2 17.2 5.5l1730.9-195.3c11.2-1.3 19.7-10.8 19.6-22l-0.8-231.5c0-6.3-2.7-12.2-7.4-16.4-4.1-3.6-9.3-5.6-14.7-5.6"/><path d="m11741 9689.8 1593.6-179.8 0.7 187-1593.6 179.8zm1615.6-226.6c-0.9 0-1.7 0-2.5 0.1l-1637.8 184.8c-11.2 1.3-19.6 10.8-19.6 22l0.9 231.5c0 6.3 2.7 12.2 7.4 16.4s10.9 6.2 17.1 5.5l1637.8-184.8c11.2-1.3 19.6-10.8 19.6-22l-0.9-231.5c0-6.3-2.7-12.3-7.4-16.4-4-3.6-9.3-5.6-14.6-5.6"/><path d="m10528 14230c253.8-52.6 424.9-267.1 389.1-487.8-36.2-222.9-270.2-372.7-529.7-339.3l-4872.5 627.6c-378.32 48.7-657.31 348.7-629.33 676.8 14.74 172.9 114.17 328.6 273.26 427.9 159.08 99.4 362.66 132.8 559.47 92l4809.7-997.2" fill="#fff"/><path d="m5552.8 15222c-137.68 0-271.56-36.2-382.67-105.6-152.97-95.5-248.81-245.4-262.95-411.1-27.17-318.6 240.84-605.5 610.15-653l4872.5-627.6c248.6-32 470.7 108.9 505 320.9 34 209.2-129.3 412.5-371.7 462.7l-4809.7 997.2c-53.36 11.1-107.29 16.5-160.62 16.5zm4907.3-1846c-25 0-50.3 1.6-75.9 4.9l-4872.5 627.6c-392.83 50.5-677.7 358.3-648.52 700.6 15.34 179.7 118.71 341.8 283.57 444.8 163.71 102.2 373.51 136.7 575.66 94.8l4809.6-997.1c265.7-55.1 444.2-280.5 406.5-513.1-34.7-213.5-237.8-362.5-478.4-362.5"/><path d="m6896.7 8990.1c36.53-297.5-50.17-596.9-239.95-828.7-189.79-231.9-466.13-376-764.85-398.9-300.76-23.1-597.73 78.7-821.05 281.5-223.31 202.8-353.25 488.7-359.24 790.3l45.09 5700.3c-8.17 411.6 306.32 758 716.72 789.5 413.63 31.7 779.05-267.5 829.63-679.3l593.65-5654.7" fill="#fff"/><path d="m5533.8 15304c-19.44 0-39.01-0.7-58.72-2.2-398.4-30.6-704.26-367.5-696.32-767.1l-45.1-5700.9c5.84-293.6 134.14-575.9 352.01-773.7 217.85-197.9 511.14-298.4 804.51-275.9 291.25 22.3 564.41 164.8 749.45 390.9 185.04 226 270.74 522 235.12 812-0.01 0.1-0.03 0.2-0.04 0.3l-593.65 5654.8c-46.8 380.9-369.35 661.8-747.26 661.8zm275.23-7567.1c-276.65 0-547.17 103.5-753.05 290.5-226.83 206-360.4 499.8-366.48 806.2l45.09 5700.8c-8.4 422.4 315.38 779 737.1 811.4 426.53 32.7 801.12-274.2 853.26-698.6l593.65-5654.9c37.03-301.8-52.18-609.9-244.79-845.2-192.64-235.4-477.03-383.7-780.25-407-28.19-2.1-56.41-3.2-84.53-3.2"/><path d="m5914 9563.3c355.7-79.4 579.68-432.2 500.28-788-79.4-355.7-432.12-579.8-787.82-500.4s-579.68 432.1-500.28 787.9c79.41 355.8 432.12 579.8 787.82 500.5"/><path d="m5635.6 14996c238.25-53.2 388.28-289.5 335.09-527.8-53.18-238.3-289.44-388.4-527.68-335.2-238.26 53.2-388.28 289.5-335.1 527.8 53.19 238.3 289.44 388.3 527.69 335.2"/><path d="m5794.1 7989.5c-64.39 0-129.45 7-194.13 21.4-70.19 15.7-138.16 39.6-202.05 71.1-10.94 5.4-15.43 18.7-10.03 29.6s18.65 15.4 29.58 10c60.72-29.9 125.37-52.7 192.11-67.6 372.38-83.1 757.93 93.8 937.34 430.2 5.74 10.8 19.09 14.9 29.89 9.1 10.76-5.7 14.82-19.1 9.08-29.9-157.55-295.4-466.16-473.9-791.79-473.9"/><path d="m6646.3 8682.5c-0.97 0-1.94 0-2.92 0.2-12.1 1.6-20.61 12.7-19 24.8 19.84 150.1-1.08 303.4-60.49 443.3-4.77 11.2 0.46 24.2 11.69 28.9 11.26 4.8 24.19-0.4 28.96-11.6 62.5-147.2 84.51-308.5 63.62-466.4-1.47-11.1-10.95-19.2-21.86-19.2"/><path d="m5816.7 14028c-7.86 0-15.46 4.2-19.45 11.6-5.79 10.8-1.79 24.2 8.95 29.9 116.73 63 207.71 165.2 256.19 287.9 4.5 11.3 17.31 16.9 28.66 12.4s16.9-17.3 12.42-28.7c-52.3-132.3-150.43-242.5-276.31-310.4-3.33-1.8-6.92-2.7-10.46-2.7"/><path d="m6095.7 14723c-9.32 0-17.97 5.9-21.01 15.2-61.31 188.7-219.46 332.6-412.75 375.7-152 34-312.8 2.8-441.2-85.4-10.06-6.9-23.8-4.4-30.71 5.7-6.91 10-4.36 23.8 5.69 30.7 138.52 95.1 311.96 128.7 475.84 92.2 208.46-46.6 379.02-201.8 445.14-405.2 3.77-11.6-2.57-24.1-14.18-27.8-2.26-0.8-4.57-1.1-6.82-1.1"/><path d="m11392 10903 895.1 480.6 251.9-258.6 346.2-645.1 82-363.6-895.2-480.6-680 1267.3"/><path d="m11422 10894 659.1-1228.3 861 462.3-77.7 344.2-343.3 639.7-238.1 244.4zm650.1-1280.2c-2.1 0-4.3 0.3-6.4 0.9-5.6 1.7-10.3 5.5-13.1 10.7l-680 1267.2c-5.8 10.8-1.7 24.1 9 29.9l895.2 480.6c8.7 4.7 19.4 3 26.3-4l251.8-258.6c1.4-1.5 2.7-3.1 3.6-5l346.2-645.1c1-1.8 1.7-3.6 2.1-5.6l82-363.5c2.2-9.7-2.3-19.6-11.1-24.3l-895.1-480.6c-3.3-1.8-6.9-2.6-10.5-2.6"/><path d="m18812 14073c615.3-1146.5 184.8-2574.9-961.5-3190.3s-2574.3-184.9-3189.6 961.7c-615.3 1146.5-184.8 2574.9 961.5 3190.3s2574.3 184.9 3189.6-961.7zm-3298.9 1165.4c-1258.8-675.8-1731.5-2244.3-1055.8-3503.3 675.6-1259.1 2243.8-1731.9 3502.5-1056.1 1258.8 675.8 1731.5 2244.3 1055.8 3503.3-675.6 1259.1-2243.8 1731.9-3502.5 1056.1"/><path d="m11369 9765c-118.9-63.8-267.1-19.2-330.9 99.7l-26.4 49.3c-63.9 119-19.2 267.1 99.7 330.9l3097.1 1662.8 257.6-479.9-3097.1-1662.8"/><path d="m12673 10873c-7.9 0-15.5 4.2-19.5 11.6-5.8 10.8-1.8 24.2 9 29.9l259 139.1c10.8 5.8 24.1 1.7 29.9-9 5.8-10.8 1.8-24.1-9-29.9l-259-139.1c-3.4-1.8-6.9-2.6-10.4-2.6" fill="#fff"/><path d="m13660 10978-258.1 480.9c-35.3 65.9-10.6 148.1 55.3 183.5l170.3 91.4c65.9 35.4 148.1 10.6 183.5-55.3l258-480.9c35.4-65.9 10.7-148.1-55.3-183.5l-170.2-91.4c-66-35.4-148.1-10.6-183.5 55.3"/><path d="m13679 10988c14.3-26.6 38.2-46.2 67.2-54.9 28.9-8.8 59.6-5.7 86.3 8.7l170.3 91.4c55.1 29.6 75.8 98.4 46.3 153.6l-258.1 480.9c-14.3 26.6-38.2 46.2-67.2 54.9-28.9 8.7-59.6 5.7-86.3-8.7l-170.3-91.4c-55.1-29.5-75.9-98.5-46.3-153.6zm100.1-104c-15.3 0-30.6 2.3-45.7 6.8-40.3 12.2-73.4 39.3-93.3 76.4l-258.1 480.9c-41.1 76.5-12.3 172.2 64.3 213.3l170.3 91.5c37.1 19.9 79.7 24.1 120 12 40.3-12.2 73.4-39.3 93.3-76.4l258.1-480.9c41.1-76.5 12.2-172.3-64.3-213.3l-170.3-91.4c-23.2-12.5-48.7-18.9-74.3-18.9" fill="#fff"/><path d="m18573 13926c-7.9 0-15.5 4.2-19.5 11.6-98.9 184.4-224.1 351.6-371.9 496.8-8.7 8.6-8.8 22.6-0.2 31.2 8.5 8.8 22.5 8.9 31.2 0.3 151-148.4 278.8-319.1 379.8-507.4 5.8-10.7 1.8-24.1-9-29.9-3.3-1.8-6.9-2.6-10.4-2.6"/><path d="m15764 11094c-3.5 0-7 0.8-10.3 2.6-372.3 195.7-674.6 495.9-874.3 868-549.5 1024-163.7 2304.2 860.1 2853.9 739.3 396.9 1642.9 317.6 2302.1-201.9 9.5-7.6 11.2-21.5 3.6-31.1-7.5-9.5-21.4-11.2-31-3.6-645.4 508.7-1530 586.3-2253.8 197.7-1002.3-538.1-1380.1-1791.6-842.1-2794.1 195.5-364.3 491.5-658.2 856-849.8 10.7-5.7 14.9-19.1 9.2-29.9-3.9-7.5-11.6-11.8-19.5-11.8"/><path d="m10005 13767c-63.65 111.8-78.54 244.9-41.2 368 37.3 123.2 123.6 225.5 238.7 283.1 126.6 63.4 273.6 72.3 406.9 24.6 133.3-47.8 241.3-148 298.8-277.4l1426.1-3204.1-570.1-285.6-1759.2 3091.4"/><path d="m10024 13778 1748.8-3073.3 532.5 266.8-1417.4 3184.9c-54.9 123.2-159.2 220-286.2 265.5-127 45.4-268.9 36.9-389.6-23.5-109.1-54.7-191.9-153-227.37-269.8-35.42-116.8-21.12-244.6 39.27-350.6zm1740-3124.5c-7.7 0-15.2 4.1-19.2 11.2l-1759.2 3091.4c-66.32 116.6-82.03 257-43.12 385.3 38.93 128.4 130.04 236.4 249.94 296.5 131.3 65.7 285.9 75.1 424.2 25.5 138.3-49.5 251.9-154.9 311.6-289.1l1426.1-3204.2c4.8-10.7 0.2-23.4-10.3-28.7l-570.1-285.5c-3.2-1.6-6.6-2.4-9.9-2.4"/><path d="m9983.5 13703c-63.64 111.8-78.52 244.8-41.19 368 37.35 123.1 123.68 225.4 238.68 283.1 126.6 63.4 273.6 72.2 406.9 24.5 133.3-47.8 241.3-147.9 298.9-277.3l1426-3204.2-570.1-285.6-1759.2 3091.5" fill="#fff"/><path d="m10003 13714 1748.8-3073.2 532.5 266.7-1417.4 3184.9c-54.9 123.2-159.2 220-286.1 265.5-127 45.5-269 36.9-389.6-23.5-109.1-54.6-192.02-153-227.44-269.7-35.42-116.8-21.12-244.6 39.24-350.7zm1740-3124.4c-7.7 0-15.1 4-19.2 11.1l-1759.2 3091.4c-66.32 116.6-82.03 257-43.12 385.4 38.93 128.3 130.01 236.4 249.91 296.4 131.3 65.8 286 75.1 424.3 25.6 138.2-49.6 251.8-154.9 311.5-289.1l1426.1-3204.2c4.8-10.8 0.2-23.5-10.3-28.8l-570.1-285.5c-3.2-1.6-6.6-2.3-9.9-2.3"/><path d="m11388 10933 908.5 455.1 55.2-352.5 317.6-634.4 271-299.2-908.4-455-247.3 251.8-350.3 699.7-46.3 334.5" fill="#fff"/><path d="m11802 9911.9 233.7-237.8 868.1 434.8-251.6 277.6c-1.3 1.5-2.5 3.2-3.4 5l-317.5 634.3c-1 2-1.8 4.2-2.1 6.4l-50.5 322.7-867.3-434.4 43.5-315.3zm229.2-286.9c-5.8 0-11.5 2.3-15.8 6.7l-247.3 251.8c-1.6 1.6-3 3.5-4 5.6l-350.3 699.6c-1 2.2-1.8 4.5-2.1 6.9l-46.2 334.5c-1.3 9.4 3.5 18.5 12 22.8l908.4 455c6.3 3.2 13.8 3.1 20-0.1 6.3-3.2 10.6-9.3 11.7-16.2l54.7-349.1 314.7-628.6 269-296.9c4.7-5.1 6.6-12.1 5.3-18.9-1.2-6.8-5.6-12.6-11.8-15.7l-908.4-455c-3.2-1.6-6.5-2.4-9.9-2.4"/><path d="m10384 13713c-99.2 33-152.9 140.3-119.9 239.5 33 99.3 140.2 153 239.5 120 99.2-33.1 152.9-140.3 119.9-239.6-33-99.2-140.2-152.9-239.5-119.9"/><path d="m12515 10178-410.8-205.8 410.8 205.8"/><path d="m12104 9950c-8.1 0-15.9 4.5-19.8 12.2-5.5 10.9-1 24.2 9.9 29.6l410.8 205.8c10.9 5.5 24.2 1.1 29.7-9.8 5.4-10.9 1-24.2-9.9-29.7l-410.9-205.8c-3.1-1.6-6.5-2.3-9.8-2.3"/><path d="m12127 10926-410.9-205.8 410.9 205.8"/><path d="m11716 10698c-8.1 0-15.8 4.5-19.7 12.2-5.5 10.9-1.1 24.2 9.8 29.7l410.9 205.7c10.9 5.5 24.1 1.1 29.6-9.8s1.1-24.2-9.8-29.7l-410.9-205.7c-3.2-1.6-6.5-2.4-9.9-2.4"/><path d="m10444 13564c-34.9 0-69.9 5.6-104 17-24.3 8.1-47.7 19-69.4 32.4-10.4 6.4-13.6 20-7.2 30.4s20 13.6 30.4 7.2c18.8-11.6 39-21.1 60.2-28.1 61.1-20.4 125.4-19.6 185.9 2.1 11.5 4.1 24.1-1.8 28.2-13.3 4.2-11.4-1.8-24.1-13.3-28.2-36.1-13-73.5-19.5-110.8-19.5"/><path d="m10141 13821c-10.6 0-20 7.6-21.8 18.4-8.6 52.3-4.3 106.7 12.5 157.3 40.9 123 150.7 210.8 279.6 223.6 12.4 1.2 23-7.7 24.2-19.8s-7.7-23-19.8-24.2c-111.7-11.1-206.7-87-242.1-193.5-14.6-43.8-18.3-90.9-10.8-136.2 2-12-6.2-23.4-18.2-25.3-1.2-0.2-2.4-0.3-3.6-0.3"/><path d="m13616 15396c-64.9 214.3-53.9 349.6 5 490.5l99.2 197.4-298.3 119.7-91.4-224.7c-29.5-72.4-72.1-138.7-125.7-195.5l-49.3-52.3 460.5-335.1" fill="#fff"/><path d="m13189 15734 388.9-283c-43.9 173-36.5 301.7 22.9 443.8l89.1 177.4-255.6 102.5-83.2-204.3c-30.6-75.2-74.3-143.3-130-202.4zm427.2-360.3c-4.5 0-9.1 1.4-13 4.3l-460.5 335.1c-5.1 3.7-8.4 9.5-9 15.8s1.6 12.6 5.9 17.2l49.3 52.2c52 55.1 92.8 118.6 121.3 188.7l91.5 224.7c4.5 11.3 17.4 16.7 28.6 12.2l298.4-119.7c5.7-2.3 10.2-6.9 12.4-12.7s1.8-12.2-0.9-17.7l-99.2-197.4c-51-122-71.5-250.2-3.6-474.2 2.7-9.1-0.6-18.9-8.4-24.4-3.8-2.7-8.3-4.1-12.8-4.1"/><path d="m13291 15840c-7.5 23.2-38 28.9-54.8 11.1-47.2-50.1-129.8-134.2-192.5-177.5-58.4-40.4-76.7-118.3-43.6-180.8 93.7-176.4 330.5-559.3 580.2-851.4 17.1-20 59.6-46.8 120.7-19.3 205.4 92.4 10.2 509.7-101.2 944.2-4.4 17.1-18.1 30.2-35.5 33.4l-62 11.4c-114.6 22.8-162.7 76.8-211.3 228.9"/><path d="m13058 15683s-9.5-6.4-14.1-9.5c-58.4-40.4-76.7-118.3-43.6-180.8 93.7-176.4 330.5-559.3 580.2-851.4 17.1-20 59.6-46.8 120.7-19.3 18.8 8.5 47.1 31.5 47.1 31.5l-16.8 21.3c-239.2 304.6-455.6 626.3-647.5 962.7l-26 45.5" fill="#fff"/><path d="m13050 15652c-44.5-34.9-57.9-97.2-31-148 96.7-182.2 330.3-558.2 577.5-847.5 5.8-6.7 37.5-39.2 94.9-13.4 6.9 3.1 16.4 9.3 24.8 15.3l-2.9 3.7c-239.1 304.5-457.6 629.3-649.3 965.3zm599.9-1062.8c-38.8 0-69.3 18-86.9 38.6-249.6 292-485.4 671.6-583 855.5-38.5 72.7-16.8 162.6 50.6 209.2l14.2 9.7c5 3.5 11.4 4.7 17.3 3.3 6-1.4 11.2-5.2 14.2-10.6l26-45.6c190.7-334.2 408-657.1 645.7-959.9l16.8-21.4c7.5-9.5 6-23.2-3.4-30.8-3.1-2.5-31.1-25.1-51.9-34.4-21.4-9.6-41.4-13.6-59.6-13.6"/><path d="m13685 15220c-1.2 0-2.5 0.1-3.7 0.3l-205.7 34.4c-12 2.1-20.1 13.5-18.1 25.5s13.4 20.1 25.4 18.1l205.7-34.5c12-2 20.1-13.4 18.1-25.4-1.8-10.8-11.1-18.4-21.7-18.4" fill="#fff"/><path d="m13718 15102c-1.1 0-2.2 0.1-3.3 0.2l-168 25c-12.1 1.7-20.4 13-18.6 25.1 1.8 12 13 20.3 25 18.6l168.1-25c12.1-1.8 20.4-13 18.6-25.1-1.6-10.9-11-18.8-21.8-18.8" fill="#fff"/><path d="m11936 18507s2070.5 454.1 2701.6 94.7c95.1-54.2 185.2-167.7 205.1-275.3 60.6-327.6-121.8-1041.5-1119.4-2383.4-14-19-39.1-26.3-61.2-18l-316.5 120.1c-25.6 9.7-39.6 37.5-32 63.9l422.5 1478.8c11 38.5-20.9 75.8-60.6 70.9l-1973.2-242.5 233.7 1090.8" fill="#fff"/><path d="m13682 17681c22.6 0 44.2-9.8 59.2-27.3 17-19.9 22.9-46.9 15.7-72.1l-422.5-1478.9c-4.3-15.2 3.8-31.5 18.7-37.2l316.4-120c12.8-4.9 27.5-0.6 35.7 10.5 1082.1 1455.6 1163.3 2107.3 1115.4 2366.2-17.9 96.7-99.6 206.1-194.3 260.1-589.9 335.9-2490.3-55.5-2672.2-94.1l-224.1-1046.5 1942.4 238.7c3.2 0.4 6.4 0.6 9.6 0.6zm-1.7-1781.6c-8.9 0-17.8 1.5-26.4 4.8l-316.5 120c-36.1 13.7-56.1 53.5-45.5 90.6l422.5 1478.9c3.2 11.1 0.7 22.5-6.8 31.3s-18.4 13-29.8 11.6l-1973.2-242.5c-7.1-0.9-14.2 1.7-19 7s-6.8 12.5-5.3 19.5l233.6 1090.9c1.9 8.4 8.5 15 16.9 16.9 84.9 18.6 2086.1 451.8 2717.3 92.2 105.1-59.8 195.9-181.9 215.9-290.4 49.2-266-31.3-931.5-1123.3-2400.6-14.5-19.4-37.2-30.2-60.4-30.2"/><path d="m12547 14608 40.6-192.8c54.2-280.6-150.8-424.2-150.8-424.2l606.3-73.8s-132.4 80.5-105.4 470.3l34.7 326.1-425.4-105.6" fill="#fff"/><path d="m12488 14007 499.7-60.8c-39.8 60.3-89.5 188.4-71.9 442.8l31.4 295.5-374.1-92.8 36.2-171.9c41.2-213.1-61.9-352.5-121.3-412.8zm555.2-111.9c-0.9 0-1.8 0.1-2.7 0.2l-606.3 73.8c-9.1 1.1-16.5 7.7-18.8 16.6-2.2 8.8 1.3 18.2 8.8 23.4 7.9 5.6 192.6 139.4 141.8 401.9l-40.5 192.4c-2.4 11.7 4.7 23.1 16.3 26l425.3 105.6c7.1 1.7 14.4 0 19.9-4.8 5.4-4.7 8.2-11.8 7.4-18.9l-34.6-326.2c-25.4-366.2 94-448.4 95.2-449.2 8.6-5.6 12.3-16.5 8.8-26.2-3.2-8.8-11.4-14.6-20.6-14.6"/><path d="m12534 14251c-50-57.6-140.5-165.7-210.1-270.2-43.7-65.6-17.5-141.3 29.3-204.2 95.4-128.3 226.4-227 380.3-328.6 134.5-88.7 284.9-182.3 465.7-265 49.1-22.5 159.8-53.2 233.8-16.3 223.6 111.5-149.2 460.7-442.3 863-11.5 15.8-31 23.5-50.2 19.7l-68.6-13.7c-68.7-13.6-138.7 15.3-177.5 73.3l-92.3 137.9c-15.7 23.5-49.5 25.5-68.1 4.1"/><path d="m12360 14029s-32.6-43.5-36-48.6c-10.9-16.4-17.4-35.6-20.9-55.2-11.5-63.2 10.5-127.9 54.8-174.4 10.7-11.2 25.3-25.5 42.3-41.6 175.9-167.4 373.7-310.1 586.8-426.6 108.1-59 348-180.4 446.1-116.3 30.3 19.8 48.8 80.1 48.8 80.1s-57.3-34.4-229.8 51.3c-291.4 144.9-488.7 307.4-729.3 501.8-47.4 38.2-80 73.3-113.7 115-26.6 32.9-43.6 72.5-49.1 114.5" fill="#fff"/><path d="m12350 13978c-3.7-5.1-6.3-8.6-7-9.7-8.3-12.4-14.2-28.2-17.6-46.9-9.9-54.5 8.5-112.5 49.1-155.1 10.5-11 24.8-25.1 41.5-40.9 172-163.7 367.8-306.1 582.2-423.2 285.7-156.1 387.9-140.4 423.4-117.2 9.1 5.9 17.9 18.9 25.2 32.9-39.3-1-103.4 10.3-203.9 60.2-284.2 141.3-481.6 300.9-710.2 485.7l-23.2 18.7c-43.7 35.3-77.5 69.6-117 118.3-18.7 23.2-33.1 49.3-42.5 77.2zm1010.3-851.6c-87.9 0-216.3 45.8-383.3 137.1-217.7 118.9-416.7 263.6-591.5 429.9-17.2 16.4-32 31-42.9 42.4-50.4 52.7-73 125.1-60.6 193.5 4.4 24.7 12.6 46 24.2 63.5 3.6 5.4 31.3 42.3 36.8 49.7 5.4 7.1 14.6 10.4 23.3 8.1s15.1-9.6 16.2-18.6c4.9-37.8 20.3-73.6 44.4-103.4 37.3-46.2 69.3-78.6 110.4-111.8l23.1-18.7c226.6-183.1 422.3-341.3 702.2-480.4 154.6-76.8 208.9-52 209.4-51.7 7.9 3.9 17.8 2.9 24.5-2.8 6.7-5.8 9.7-14.7 7.2-23.1-2.2-7-22-68.6-57.9-92.1-22.1-14.4-50.6-21.6-85.5-21.6"/><path d="m12936 13727c-10.2 0-19.4 7.1-21.6 17.4-2.6 12 5 23.7 16.9 26.3l226.2 48.8c12 2.5 23.7-5 26.3-16.9 2.5-11.9-5-23.7-17-26.2l-226.2-48.9c-1.5-0.3-3.1-0.5-4.6-0.5" fill="#fff"/><path d="m13061 13626c-10 0-19.1 6.8-21.5 17-2.8 11.9 4.6 23.8 16.4 26.6l183.5 43.2c11.8 2.9 23.8-4.5 26.6-16.4s-4.6-23.8-16.4-26.5l-183.5-43.3c-1.7-0.4-3.4-0.6-5.1-0.6" fill="#fff"/><path d="m13275 17915c-603.3 515.9-2544.6 532.1-2544.6 532.1s-242.4-289.1-126.7-870.6c38.2-191.8 173.8-363.9 388.1-363.9l1190.9-10.1c87.3-0.7 156.6-73.4 153.3-160.6-22.2-575.7-42-1765.9 122.6-2577 6.7-32.8 31.5-59 63.9-67.8 76-20.6 225.1-54 386.7-51.8 50.4 0.7 92.6 38.6 99.3 88.6l395 2949.4c11.9 88.9 12.1 179.2-2.7 267.6-15.9 94.5-50.8 199.9-125.8 264.1" fill="#fff"/><path d="m10742 18425c-36.2-50.2-217.6-333.3-115.9-844.1 31.7-159.7 146.8-346.1 366.4-346.1l1191.1-10.1c48.2-0.4 93.1-19.8 126.4-54.7s50.6-80.7 48.7-128.9c-23.8-618.2-39.5-1774.5 122.3-2571.7 5-24.7 23.4-44.2 47.9-50.9 73.8-19.9 221.3-53.2 380.7-51 39.1 0.5 72.5 30.4 77.7 69.4l395 2949.4c12.1 90.7 11.3 178.6-2.6 261.1-19.5 115.9-59.3 200.4-118.4 250.9-566.9 484.8-2361 524.2-2519.3 526.7zm2152.8-4101.8c-158.9 0-303.8 32.8-377.4 52.7-40.8 11.1-71.3 43.5-79.7 84.8-162.7 801.7-147 1961.9-123.1 2582.1 1.4 36.2-11.6 70.5-36.6 96.7-24.9 26.2-58.6 40.7-94.7 41l-1191 10.1c-246.2 0-374.5 205.6-409.6 381.6-116.4 585.3 121.3 877.1 131.5 889.2 4.2 5.1 11 7.4 17.1 7.9 79.6-0.6 1956.3-22.2 2558.7-537.4 67.2-57.5 112-150.7 133.3-277.2 14.6-86.9 15.5-179.2 2.8-274.3l-395-2949.3c-8.1-60.6-60.1-106.9-120.9-107.8-5.1 0-10.3-0.1-15.4-0.1"/><path d="m12864 19810 159.7-306.4c155.1-279 404.3-463.8 680.3-623.8l111.9-64.8c71.8-41.6 155.2-58.2 237.4-47.2l12.6 1.7c125.5 16.7 252.8-13.2 357.7-84.2l-278.2-106.5c-169.6-65-358.4-62.4-524.7 10.8-159.3 70-518.3 155.8-687.6 353-354.8 413.1-340.9 504.9-340.9 504.9l271.8 362.5" fill="#fff"/><path d="m12615 19440c3.7-21.1 36.5-135.5 335.3-483.5 125.4-146 363.1-230.9 536.7-292.8 56.1-20.1 104.6-37.4 143.1-54.3 160.6-70.7 341-74.3 507.9-10.4l236.4 90.6c-92.6 51.3-199.3 71.7-305.1 57.6l-12.6-1.7c-86.5-11.6-175.8 6.2-251.4 50l-111.8 64.8c-246.1 142.6-520.3 329.3-688.6 632.1l-143.7 275.8zm1280.2-930.6c-96.6 0-192.6 19.9-282.9 59.5-37 16.3-84.8 33.4-140.2 53.2-178.2 63.6-422.2 150.8-555.3 305.7-343.9 400.5-348.5 505.6-346 522.6 0.6 3.6 2 7 4.2 9.9l271.9 362.5c4.5 6.1 11.9 9.4 19.4 8.8 7.6-0.7 14.3-5.1 17.8-11.8l159.7-306.4c162.9-293 431-475.3 671.8-614.9l111.9-64.8c67.2-39 146.6-54.7 223.4-44.4l12.5 1.6c131 17.6 263.5-13.6 373.1-87.6 6.8-4.7 10.5-12.7 9.5-20.9-0.9-8.1-6.3-15.1-14-18.1l-278.2-106.6c-84.2-32.2-171.6-48.3-258.6-48.3"/><path d="m12055 18331s20.3-41.4-518.2-119.2c-388.2-56-740.7-31.3-907.2-13.1-54.3 6-90.9 58.2-77.6 111.2 43.7 174.7 75.6 336.9 243.7 780.5 116.7 307.9-60.6 869.5 301.9 1203.2 611.7 563.1 1455.7-155.4 1455.7-155.4l265.4-389.7c-304.1-356.5-543-763.9-705.7-1203.3l-58-214.2"/><path d="m11829 19404c-11.1 0-20.7 8.4-21.9 19.7l-45.5 424.2c-1.3 12.1 7.5 23 19.6 24.3s23.1-7.5 24.3-19.6l45.5-424.2c1.3-12.1-7.5-23-19.6-24.3-0.8-0.1-1.6-0.1-2.4-0.1" fill="#fff"/><path d="m11268 19171c-8 0-15.7 4.3-19.6 11.8-99.1 189.2-224.3 684.8-226.9 790.8-0.3 12.2 9.3 22.3 21.5 22.6 12.7 0.6 22.3-9.3 22.6-21.5 2.5-100.4 127.3-590.9 221.9-771.4 5.7-10.8 1.5-24.1-9.3-29.8-3.3-1.7-6.8-2.5-10.2-2.5" fill="#fff"/><path d="m14697 18647-1437.8-109.6 790 1427.9c29.4 53.8 85 89.3 147.4 94.1l1166.8 88.9c74.2 5.7 125.2-70.3 90.3-134.2l-756.7-1367.1"/><path d="m14510 19321c-28.2-51.5-93.7-96.5-146.4-100.5s-72.6 34.5-44.4 86c28.1 51.5 93.7 96.5 146.4 100.5s72.6-34.5 44.4-86" fill="#fff"/><path d="m14627 18554-2255.3-171.9c-46.6-3.5-87.3 31.4-90.8 78l-3.8 12.7 2424.1 184.7 3.8-12.7c3.5-46.6-31.4-87.3-78-90.8"/><path d="m13476 18814-293.5 101.6c-43.7 15.1-92 6.3-127.6-23.1l-136.2-112.7c-26-21.5-59.2-32.1-92.9-29.8-146.9 9.7-831.2 196.8-883.6 321-44.1 104.6-78.6 229.7-78.6 229.7l-530.8-185.5s8.6-164 224.4-384.1c183.6-187.3 657.4-250.3 1309-211 0 0 136.2 15.4 250.4 151.8 72.9 87 250.6 42.2 356 68 37.4 9.2 39.8 61.5 3.4 74.1" fill="#fff"/><path d="m11357 19100c8.7-45.3 47.5-182.1 215.7-353.7 171.1-174.5 617.9-245.1 1291.9-204.4 0.1 0 128.2 16.6 234.8 143.8 54 64.5 150.3 65.3 243.4 66.2 46.3 0.4 90 0.7 124.3 9.2 11.2 2.7 12.5 12.4 12.6 15.3 0.2 2.9-0.2 12.7-11.1 16.4l-293.6 101.6c-36.1 12.5-76.8 5.1-106.2-19.2l-136.2-112.7c-30.4-25.1-68.9-37.5-108.4-34.9-136.1 9-842.9 193-902.6 334.5-33.4 79.2-60.9 168.7-73 209.8zm1163.8-613.3c-496.2 0-831.6 77.7-979.6 228.6-219.1 223.5-230.3 391.4-230.7 398.4-0.5 9.8 5.5 18.8 14.8 22l530.8 185.6c5.8 2 12.1 1.5 17.5-1.3s9.4-7.8 11.1-13.7c0.3-1.2 34.6-125 77.6-227 45.1-106.9 711.1-297.4 864.8-307.6 28.1-2 55.7 7 77.4 24.9l136.2 112.6c41.2 34.1 98.3 44.4 148.8 26.9l293.6-101.6c25.6-8.8 42-33 40.8-60.1-1.3-27.2-19.9-49.8-46.3-56.2-39.3-9.7-85.5-10.1-134.4-10.5-83.1-0.7-169-1.5-209.9-50.3-118.5-141.5-258.9-158.9-264.8-159.5-123.4-7.5-239.4-11.2-347.7-11.2"/><path d="m12480 20177c362.5-194.2 509.2-479 699.1-733.7-133.8-120.8-293.5-284.8-397-401.3-97.6 75.1-221 151.1-310.8 258.9l8.7 876.1"/><path d="m12030 20883-0.7-397c2.4-51.8 36.3-96.9 85.4-113.6l75.7-32.5c19.4-8.3-50.6-114.2-361.5-66.5-119.6 18.3-233.3 64.5-332.6 133.6l-72.8 50.7c50.3 7.4 188.5 44.3 201.2 93.5l114.7 516.9 290.6-185.1" fill="#fff"/><path d="m11477 20447 31.3-21.8c97-67.4 208.8-112.4 323.3-129.9 212.8-32.6 304.3 9.6 331 32.4l-57.2 24.5c-56.5 19.2-95.9 71.6-98.8 132.9l0.7 385.9-253.8 161.6-107.8-486.1c-13.4-51.8-108.1-84-168.7-99.5zm496.3-207.6c-43.1 0-92.5 3.7-148.3 12.2-121.2 18.6-239.4 66.1-341.9 137.4l-72.8 50.6c-7.4 5.2-11 14.4-8.9 23.2s9.3 15.5 18.3 16.8c67 9.9 175.6 48.4 183 77.2l114.5 516.2c1.6 7 6.5 12.8 13.1 15.6 6.7 2.8 14.3 2.1 20.3-1.8l290.7-185.1c6.4-4 10.2-11.1 10.2-18.6l-0.7-397c2-42 29.7-78.8 70.5-92.7l77.2-33.1c13.1-5.6 19.2-20 14.9-35-11-38.6-85.5-85.9-240.1-85.9"/><path d="m12559 21330c-86.1 64.8-35.2-102.2-301.6 214.8-106.1 126.2-142.3-72-169.9-39.3-102 120.7-98.3 116.7-170.9 141.6-48 16.4-125-41.2-154.9-102.5-39.5-81 8.9-141-41.8-334-35.5-135.5-89.7-196.3-56.3-241.7 33.8-46 106.9-8.1 147.6-55.5 52.7-61.4-35.2-165.1-3.2-253.7 20.1-55.9 103.7-131.1 300.4-157.8 31.9-4.3 62.6 14.8 72.8 45.4 13.1 39.3 29.3 88.9 40.9 137.7 55.1 232.3 17 318.5 73.3 350.7 86.2 49.4 197.6-86.1 261.3-40.8 66.2 47 120.1 246.5 2.3 335.1"/><path d="m12070 21273-6.3-64.9c-3-30.5-8.1-60.8-15.3-90.6-13.5-56.1-35.9-152.5-44.3-207.5-12.4-80.8 234.4-136.4 234.4-136.4l37.3 30.2 29.1-6c5.6-1.1 11.5-1.1 17 0.7 13.6 4.6 22 17.1 21.9 30.5-0.4 73.1 4.1 233.7 46.5 352.4 0 0-120.6 134.7-320.3 91.6" fill="#fff"/><path d="m12090 21255-4.8-48.5c-3-31.5-8.4-63-15.7-93.7-12.8-53.3-35.6-150.9-44-205.7-5.8-37.9 113.4-86.4 207.1-109l28.9 23.3c5.1 4.2 11.8 5.8 18.3 4.5l29.1-5.9c2.2-0.4 4.2-0.5 5.5 0 4.3 1.4 7 5.1 7 9.3-0.5 80.2 4.7 229.2 43.2 346.7-29 27.1-126.6 104.3-274.6 79zm148.1-503c-1.6 0-3.2 0.2-4.8 0.6-44.6 10-266.2 65-251.4 161.2 8.6 56.4 31.7 155.3 44.6 209.3 6.9 28.7 11.9 58.2 14.8 87.7l6.4 64.8c0.9 9.6 7.9 17.4 17.3 19.5 209.8 45.3 336.1-92.6 341.4-98.5 5.4-6 7-14.5 4.3-22.1-41.9-117.3-45.5-280.3-45.2-344.9 0.2-23.4-14.7-44.1-37-51.5-8.7-2.9-18.6-3.4-28.4-1.4l-18.9 3.9-29.2-23.7c-4-3.2-8.9-4.9-13.9-4.9"/><path d="m11995 21082s15.5 155.9-56.9 147.4c-72.3-8.4-85.1-180.4 56.9-147.4" fill="#fff"/><path d="m17515 13301c132 34.2 265.2 31.1 400.7-41 108.2-97.9 69.3-206-16.2-198.1-135.5 98.3-267.4 107.5-396.7 54.4l12.2 184.7"/><path d="m17499 12338c132 34.2 265.2 31.1 400.7-41.1 108.2-97.8 69.2-205.9-16.3-198-135.5 98.2-267.3 107.4-396.7 54.3l12.3 184.8"/><path d="m16073 13586c-104.5 87.6-226.1 142.2-379.4 135.3-139.8-41.8-151.2-156.1-70.6-185.8 164.6 30.4 287.6-18 381.6-121.5l68.4 172"/><path d="m15674 12711c-104.5 87.6-226.1 142.2-379.5 135.3-139.7-41.8-151.1-156.1-70.5-185.8 164.6 30.4 287.6-18 381.5-121.5l68.5 172"/><path d="m17548 12569c-198.3-877.6-760.2-1498.3-1255.1-1386.4-494.8 111.8-735.2 913.9-536.9 1791.4 198.4 877.5 737.6 1201.5 1232.4 1089.7 494.9-111.8 758-617.2 559.6-1494.7"/><path d="m17548 12569c-198.3-877.6-760.2-1498.3-1255.1-1386.4-494.8 111.8-735.2 913.9-536.9 1791.4 198.4 877.5 737.6 1201.5 1232.4 1089.7 494.9-111.8 758-617.2 559.6-1494.7"/><path d="m16088 13678c301.9 109 607 127.5 916.3 26.6-331.4-874.8-510.2-2067.5-1080.8-2444-37.9-25-89.3-5-98.2 39.5-166.2 840.4-148.8 1646.2 262.7 2377.9" fill="#fff"/><path d="m16103 13660c-363.8-651.3-445.2-1400.1-256.2-2355.6 2.6-13.4 11.4-24.1 24-29.3 13.2-5.5 28.2-4 40.4 3.9 403.9 266.6 614 968.1 817.1 1646.5 77.3 258.1 157.2 524.8 247 765.1-283.4 87.4-569.1 77.3-872.3-30.6zm-215.8-2432.4c-11.3 0-22.7 2.2-33.4 6.7-26.1 10.9-44.9 33.9-50.3 61.5-191.9 969.9-107.7 1730.4 265 2393.1 2.6 4.6 6.8 8.1 11.7 9.9 319.2 115.2 632.3 124.2 930.8 26.8 5.7-1.8 10.4-6 13-11.4 2.6-5.5 2.9-11.7 0.8-17.4-92.6-244.4-174.7-518.7-254.2-784-205.4-685.9-417.8-1395.2-835.1-1670.6-14.6-9.7-31.4-14.6-48.3-14.6"/><path d="m17487 13400c-235.4 218.3-509 354.6-833.1 382.6-36.9-934.8-338.4-2102.6 39.7-2672.1 25.1-37.8 80.3-39.5 105.8-2 481.5 708.6 780.4 1457.1 687.6 2291.5" fill="#fff"/><path d="m16675 13758c-11.3-256.3-42-533-71.7-800.8-78.2-703.9-159-1431.6 108.7-1834.9 8-12.1 21.3-19.3 35.6-19.4h0.2c13.6 0 25.7 6.4 33.3 17.6 547.4 805.7 765.2 1526.7 684.9 2268.4-237.1 217.9-496.1 338.8-791 369.1zm72.8-2699.3h-0.4c-29 0.2-56 14.8-72.2 39.2-276.6 416.6-194.8 1152.5-115.8 1864.1 30.5 275.2 62.1 559.8 72.4 821 0.3 6.1 3 11.7 7.5 15.7s10.5 5.9 16.5 5.5c312.8-27.1 597.5-157.7 846.2-388.5 3.9-3.6 6.4-8.4 7-13.7 84-755.7-135.7-1488.5-691.3-2306.3-15.8-23.2-41.9-37-69.9-37"/><path d="m17574 13407c-198.9 124.6-409.7 202-635.1 221.8-264.6 125.7-544 154.2-834.8 107-539.3-643.3-704.9-1432.1-696.5-2288.8 0.5-45.4 47.4-74.5 89.3-56.9 511.3 214.9 868.2 1005.6 1244.9 1722.9 70.8-816.4 88.2-1701.6 481.2-2103.4 31.8-32.5 86.3-23.9 104.3 17.8 340.4 786.2 494 1577.4 246.7 2379.6" fill="#fff"/><path d="m16742 13135c1.5 0 2.9-0.1 4.4-0.4 9.6-1.9 16.8-10 17.6-19.7 8.9-101.9 16.9-204.8 24.9-307.7 55-706.1 111.8-1436.2 450.2-1782.2 10.2-10.4 24.6-15 38.7-12.4 13.4 2.5 24.2 11.1 29.6 23.6 386.9 893.8 465.9 1642.8 248.2 2356.4-199.4 123.6-407.4 195.7-618.4 214.3-2.6 0.2-5.1 0.9-7.5 2-249.6 118.5-515.7 153.3-813.7 106.4-477.6-573.1-695.6-1294.1-686-2268.1 0.1-13.6 6.8-25.7 18.2-33.2 11.9-7.9 27.1-9.2 40.4-3.5 446.2 187.5 782 838.3 1106.7 1467.7 42.3 82 84.6 164 127.2 245 3.9 7.4 11.5 11.8 19.5 11.8zm528-2167.3c-23.2 0-45.8 9.4-62.5 26.4-349.6 357.5-407.1 1095.7-462.6 1809.7-6 77.3-12.1 154.7-18.5 231.7-30.6-59-61.2-118.3-91.8-177.5-328.4-636.4-667.9-1294.5-1128.9-1488.3-26.9-11.3-57.5-8.6-81.8 7.4-23.5 15.5-37.8 41.5-38.1 69.7-9.7 988.7 213.2 1720.5 701.7 2303.2 3.4 4 8.1 6.7 13.4 7.6 304.5 49.4 588.6 13.4 844.1-107.1 219.1-20 434.7-95.6 641-224.8 4.5-2.8 7.9-7.1 9.4-12.2 224-726.6 145.3-1487.6-247.5-2394.9-11.2-25.8-34.4-44.3-62.1-49.5-5.3-0.9-10.5-1.4-15.8-1.4"/><path d="m17599 13329c-57.8 413-283.7 659.8-611.4 733.9-334.8 75.7-689.8-48.6-945.9-408.4 466.3 158.1 1232.9-105 1557.3-325.5"/><path d="m16837 14050c-3.2 0-6.4 0.7-9.4 2.2-11 5.2-15.8 18.3-10.6 29.3 65.5 138.9 99.5 359.5 27.9 539.6-41.4 103.8-111 175.5-206.9 213-109.2 42.7-242.7 13.6-310.4-67.6-34.2-40.9-47.6-102.5-32.6-149.8 7.9-25 27.2-57.4 74.4-70.1 11.8-3.2 18.8-15.3 15.6-27-3.2-11.8-15.3-18.8-27.1-15.6-51.8 13.9-89.2 49.2-105 99.4-19.6 61.8-3.2 138.8 40.8 191.4 80.6 96.7 232.2 130.5 360.4 80.4 106.3-41.5 186.4-123.7 231.8-237.8 76.6-192.3 40.6-427.2-28.9-574.7-3.8-8-11.7-12.7-20-12.7"/><path d="m17112 13808c-1.6 0-3.3 0.1-4.9 0.5-11.9 2.8-19.3 14.6-16.6 26.5 41.1 179.6 93.5 327.5 169.8 479.7 136.1 271.4 295.9 379.6 488.8 330.7 93.9-23.9 156.9-83 177.6-166.6 22.1-89.6-9.8-191.9-79.5-254.6-62.7-56.4-143.2-70.8-226.6-40.6-11.5 4.2-17.4 16.8-13.2 28.3 4.1 11.4 16.8 17.4 28.3 13.2 67.3-24.4 131.9-13.1 182 31.9 56.9 51.3 84.1 138.1 66.1 211.2-16.5 67-68.2 114.7-145.6 134.4-169.6 42.9-313-57.6-438.4-307.7-74.7-148.9-125.9-293.8-166.3-469.8-2.3-10.2-11.4-17.1-21.5-17.1"/></g></g></svg>
