<?xml version="1.0" standalone="no"?>
<!DOCTYPE svg PUBLIC "-//W3C//DTD SVG 20010904//EN"
 "http://www.w3.org/TR/2001/REC-SVG-20010904/DTD/svg10.dtd">
<svg version="1.0" xmlns="http://www.w3.org/2000/svg"
 viewBox="0 0 512.000000 512.000000"
 preserveAspectRatio="xMidYMid meet">

<g transform="translate(0.000000,512.000000) scale(0.100000,-0.100000)"
fill="currentColor" stroke="none">
<path d="M1580 4623 c-167 -58 -259 -238 -204 -399 l16 -47 -345 -345 -345
-345 -34 14 c-19 8 -66 14 -113 14 -64 -1 -90 -5 -130 -25 -236 -116 -246
-443 -17 -568 l62 -34 0 -208 0 -209 -61 -32 c-67 -36 -98 -68 -137 -143 -22
-43 -26 -64 -27 -136 0 -78 3 -90 34 -148 38 -70 70 -101 145 -140 69 -36 199
-38 262 -5 l42 22 56 -59 c31 -32 56 -64 56 -70 0 -6 -8 -25 -17 -43 -12 -23
-17 -56 -17 -117 -1 -78 2 -90 33 -148 38 -70 69 -100 145 -140 44 -23 63 -27
136 -26 69 0 95 5 135 24 65 32 126 93 155 158 l24 52 350 0 c193 0 395 -3
449 -7 l98 -6 22 -46 c60 -128 218 -205 355 -173 l42 10 101 -144 100 -144
-33 -67 c-29 -60 -33 -77 -32 -148 0 -64 5 -89 23 -125 41 -79 79 -118 149
-152 59 -29 76 -33 147 -32 64 0 89 5 125 23 75 39 115 77 149 141 l32 60 289
0 289 0 32 -61 c35 -66 78 -107 149 -141 35 -17 63 -22 130 -22 78 -1 90 2
148 33 69 37 109 80 144 151 17 35 22 63 22 130 0 73 -4 92 -27 138 -15 29
-46 71 -67 92 -22 22 -40 43 -40 46 0 3 14 50 30 104 l31 98 47 7 c59 8 155
59 188 98 14 16 37 53 52 81 22 44 26 63 26 136 0 69 -4 94 -24 135 -30 62
-92 124 -147 149 l-43 19 0 496 0 496 55 29 c63 32 94 66 133 140 22 43 26 64
26 136 1 73 -3 92 -26 136 -40 76 -70 107 -140 145 -57 30 -71 33 -148 34 -65
0 -93 -5 -120 -19 l-35 -19 -342 347 -343 347 17 32 c12 23 17 56 17 117 1 78
-2 90 -33 148 -38 70 -70 100 -145 140 -43 22 -64 26 -136 26 -72 0 -93 -4
-136 -26 -74 -39 -108 -70 -140 -133 l-29 -55 -615 0 -615 0 -31 58 c-69 130
-235 194 -374 145z m163 -157 c104 -43 128 -175 47 -256 -66 -66 -156 -67
-221 -1 -124 123 13 325 174 257z m1840 0 c104 -43 128 -175 47 -256 -66 -66
-156 -67 -221 -1 -124 123 13 325 174 257z m-373 -221 c0 -22 44 -107 75 -143
l26 -31 -68 -154 -68 -155 -70 -4 c-119 -8 -227 -79 -270 -176 l-19 -42 -216
0 -216 0 -19 42 c-42 96 -150 167 -267 176 l-67 5 -36 76 c-20 42 -53 111 -72
153 l-35 77 26 32 c32 37 76 122 76 144 0 13 69 15 610 15 541 0 610 -2 610
-15z m-1658 -216 c25 -13 69 -23 116 -26 l75 -6 68 -145 c38 -79 69 -149 69
-154 0 -6 -10 -18 -23 -28 -28 -23 -87 -130 -87 -159 0 -13 -8 -22 -22 -26
-37 -8 -876 -135 -893 -135 -54 0 -21 39 306 366 184 184 337 334 342 334 4 0
26 -9 49 -21z m2482 -320 c304 -308 334 -342 323 -360 -6 -10 -17 -19 -24 -19
-22 0 -887 151 -895 156 -4 3 -8 14 -8 25 0 27 -44 112 -80 152 l-30 34 68
152 68 152 75 3 c53 1 85 8 114 24 22 11 43 21 46 22 4 0 158 -153 343 -341z
m-1891 -123 c103 -43 128 -177 48 -257 -65 -65 -157 -65 -222 0 -124 123 13
325 174 257z m1041 0 c44 -18 86 -75 93 -124 20 -152 -160 -241 -268 -133
-124 124 13 325 175 257z m-365 -253 c13 -34 43 -80 95 -148 5 -6 -21 -82 -69
-197 l-77 -185 -61 -6 c-34 -3 -69 -8 -78 -11 -13 -6 -46 40 -151 206 -74 117
-138 219 -142 225 -4 7 10 47 30 88 l37 75 200 -2 199 -3 17 -42z m-2196 13
c103 -43 128 -177 48 -257 -64 -65 -153 -65 -220 -1 -128 121 9 326 172 258z
m4081 0 c44 -18 86 -75 93 -124 20 -152 -160 -241 -268 -133 -124 124 13 325
175 257z m-2895 -70 c16 -30 35 -57 40 -60 5 -4 -43 -100 -107 -214 l-116
-209 -95 1 c-89 1 -100 -1 -153 -30 l-56 -31 -229 174 c-125 95 -228 177 -228
181 1 29 18 102 23 103 6 0 869 135 884 138 3 0 20 -23 37 -53z m2070 -32
c240 -42 439 -81 443 -87 4 -7 8 -20 8 -29 0 -10 8 -33 17 -53 20 -42 39 -19
-166 -198 l-154 -134 -56 26 c-48 22 -68 26 -136 24 -44 -1 -91 -3 -105 -5
-22 -3 -44 24 -188 225 l-164 229 17 39 c10 21 25 39 33 39 8 0 211 -34 451
-76z m-460 -334 l167 -232 -31 -63 -30 -64 -245 0 -245 -1 -23 54 c-13 30 -39
72 -58 94 -19 22 -34 43 -34 47 0 3 34 89 76 189 l76 183 69 6 c38 3 77 10 86
16 10 5 19 8 21 6 2 -2 79 -108 171 -235z m-1082 5 l143 -224 -24 -36 c-14
-20 -30 -52 -36 -70 l-12 -35 -286 0 -287 0 -27 58 c-15 31 -33 64 -39 73 -11
14 6 51 107 232 l119 215 55 -5 c30 -2 73 0 95 5 22 6 42 10 45 11 3 0 69
-101 147 -224z m-1337 -139 c193 -146 221 -171 215 -190 -3 -11 -9 -46 -12
-77 l-6 -56 -186 -53 -186 -52 -41 39 c-22 22 -66 50 -97 64 l-57 24 0 205 0
205 63 31 c34 17 67 30 74 30 7 -1 112 -77 233 -170z m3543 122 l37 -13 0
-485 0 -486 -46 -13 c-26 -8 -49 -10 -53 -5 -5 5 -90 96 -191 203 -125 133
-180 198 -176 210 3 9 14 41 25 71 27 74 26 151 -4 222 -5 12 35 52 166 168
112 98 179 149 189 146 8 -3 32 -11 53 -18z m-2960 -272 c103 -43 128 -177 48
-257 -64 -65 -153 -65 -220 -1 -128 121 9 326 172 258z m1200 0 c103 -43 128
-177 48 -257 -65 -65 -157 -65 -222 0 -124 123 13 325 174 257z m1121 0 c44
-18 86 -75 93 -124 20 -152 -160 -241 -268 -133 -124 124 13 325 175 257z
m-1473 -278 c36 -71 70 -108 127 -141 l54 -30 -6 -71 c-18 -202 -17 -196 -40
-196 -11 0 -44 -13 -72 -28 l-51 -29 -316 250 c-275 218 -315 253 -306 269 9
17 28 18 299 18 l290 0 21 -42z m1107 21 c2 -12 -98 -91 -331 -263 -184 -135
-341 -248 -349 -251 -8 -3 -36 6 -62 21 l-48 27 6 63 c3 35 9 94 12 130 5 48
11 67 23 70 9 3 44 19 79 36 68 33 100 66 138 140 l25 48 252 -2 c224 -3 252
-5 255 -19z m-2915 -63 c103 -43 128 -177 48 -257 -65 -65 -157 -65 -222 0
-124 123 13 325 174 257z m667 -47 l38 -40 -73 -148 -73 -148 -74 -6 c-40 -3
-90 -13 -111 -23 l-38 -18 -60 60 -60 61 20 61 c12 34 21 79 21 100 l0 39 173
51 c94 27 178 50 185 51 7 1 30 -17 52 -40z m2525 -97 c45 -3 79 0 117 13 l53
17 59 -64 c33 -34 120 -127 194 -205 l134 -143 -23 -55 -24 -55 -687 0 c-686
0 -687 0 -693 21 -4 11 -5 22 -3 23 1 2 131 97 288 211 157 115 313 230 348
256 l62 47 56 -30 c39 -21 75 -32 119 -36z m-1785 -186 c277 -220 305 -245
303 -271 -1 -15 -3 -28 -5 -29 -2 -1 -204 0 -449 2 l-447 4 -18 41 c-11 23
-34 62 -52 86 l-34 43 73 153 72 153 66 4 c44 3 82 14 116 31 28 14 55 26 60
26 6 0 147 -109 315 -243z m-847 -230 c103 -43 128 -177 48 -257 -65 -65 -157
-65 -222 0 -124 123 13 325 174 257z m1520 0 c103 -43 128 -177 48 -257 -64
-65 -153 -65 -220 -1 -128 121 9 326 172 258z m2000 0 c103 -43 128 -177 48
-257 -65 -65 -157 -65 -222 0 -124 123 13 325 174 257z m-378 -245 c-6 -4
-190 -106 -410 -226 -220 -119 -416 -226 -436 -237 l-36 -20 -49 34 c-27 19
-65 41 -84 49 -37 15 -158 19 -201 7 -24 -7 -32 1 -122 131 -54 76 -97 143
-97 148 0 5 14 35 31 66 l31 57 691 0 c389 0 687 -4 682 -9z m136 -164 l27
-19 -32 -97 -33 -96 -58 -7 c-116 -15 -231 -106 -265 -209 l-13 -39 -285 0
c-157 0 -282 3 -278 7 20 20 892 489 901 484 6 -2 22 -13 36 -24z m-1198 -391
c103 -43 128 -177 48 -257 -65 -65 -157 -65 -222 0 -124 123 13 325 174 257z
m1200 0 c103 -43 128 -177 48 -257 -65 -65 -157 -65 -222 0 -124 123 13 325
174 257z"/>
</g>
</svg>
