<svg viewBox="0 0 480 448" fill="none" xmlns="http://www.w3.org/2000/svg">
    <path
        d="M122 1.59998C107.8 6.79998 99.1 19.9 100.2 34.3C101.9 55.2 122.2 68.7 141.9 62L148.3 59.9L162.5 73.9L176.7 88H198.3H220V104V120H188.5H156.9L154.5 122.5C152.1 124.8 152 125.4 152 138.5V152H128.7H105.5L84.6 130.5C65.2 110.4 63.9 108.8 65.3 107.2C71.9 99.9 73.5 84.6 68.7 74.9C63.1 63.3 52.6 56.6 40 56.6C27.2 56.6 16.7 63.2 11.1 75C7.5 82.6 7.5 94.1 11 101.5C17.4 114.8 33.5 122.8 46.5 119.1L50.5 118L56.5 124.2C59.8 127.7 70.6 138.9 80.6 149.2L98.8 168H125.4H152V192V216H107.6H63.1L60.7 210.7C57.7 204.1 52.6 198.9 45.7 195.3C41.3 193 39.2 192.6 32 192.5C21.9 192.5 16.1 194.8 9.2 201.8C2.7 208.3 0.5 213.8 0.5 224C0.5 234.2 2.7 239.7 9.2 246.2C15.9 252.9 21.9 255.4 31.5 255.5C38.1 255.5 40.5 255 45.1 252.9C52.1 249.6 57.6 244.2 60.7 237.3L63.1 232H107.6H152V256V280H125.4H98.8L80.6 298.7C70.6 309.1 59.8 320.3 56.5 323.8L50.5 330L46.5 328.9C34.7 325.6 19.5 332 12.4 343.2C-0.9 364.2 14.4 392.3 39 392.4C47.8 392.5 54.8 389.9 60.9 384.4C72.9 373.6 75.3 355.6 66.5 342.6L64 338.9L84.7 317.4L105.5 296H128.8H152V309.5C152 322.6 152.1 323.2 154.5 325.5L156.9 328H188.5H220V344V360H198.3H176.7L162.5 374.1L148.3 388.1L141.9 386C126.6 380.8 110.2 387.7 103 402.5C99.5 409.7 99.5 422.3 103 429.5C114.5 453 147.3 454.1 159.7 431.4C164.3 422.9 165 414.9 162 406.1L159.9 399.7L171.7 387.8L183.5 376H207.3H231.1L233.5 373.5C236 371.1 236 371.1 236 349.5V328H295.5H355.1L357.5 325.5L360 323.1V224V124.9L357.5 122.5L355.1 120H295.5H236V98.5C236 76.9 236 76.9 233.5 74.5L231.1 72H207.3H183.5L171.7 60.2L159.9 48.3L162 41.9C167.2 26.6 160.2 10.1 145.5 3.09998C139 -2.49832e-05 128.3 -0.700025 122 1.59998ZM138.3 17.4C148.7 21.7 151.2 35.4 142.9 43.2C136.2 49.6 127.3 49.6 120.9 43.1C108.5 30.8 122.2 10.6 138.3 17.4ZM46.3 73.4C56.6 77.7 59.1 91.1 51.1 99.1C39.9 110.4 21.5 100.3 24.4 84.5C26.2 75.1 37.2 69.5 46.3 73.4ZM269.4 161.5C287.9 165.4 304.9 178.6 312.9 195.2C322.3 214.6 322.3 233.4 312.9 252.8C304.9 269.4 287.5 282.7 269 286.6C241.3 292.4 211.9 278.3 199.2 253C189.7 234 189.6 214.1 199.2 195C212 169.4 241.1 155.5 269.4 161.5ZM38.3 209.4C48.6 213.7 51.1 227.1 43.1 235.1C36.6 241.6 27.4 241.6 20.9 235.1C8.5 222.8 22.2 202.6 38.3 209.4ZM46.3 345.4C56.6 349.7 59.1 363.1 51.1 371.1C44.6 377.6 35.4 377.6 28.9 371.1C16.5 358.8 30.2 338.6 46.3 345.4ZM138.4 401.4C140.2 402.2 142.9 404.3 144.4 406.2C149.5 413 149.1 420.7 143.2 426.9C136.8 433.6 127.5 433.7 120.9 427.1C108.5 414.7 122.2 394.6 138.4 401.4Z"
        fill="url(#paint0_linear_336_3)" />
    <path
        d="M244.1 177.6C218.8 184.4 203.1 210.7 209.5 235.5C216.2 261.1 242.4 277 267.5 270.5C293.1 263.8 309 237.6 302.5 212.7C295.8 186.8 269.2 170.8 244.1 177.6Z"
        fill="url(#paint1_linear_336_3)" />
    <path
        d="M302.7 17C296.9 18.5 289.2 22.7 284.6 27.1C280.6 30.7 273.2 42.6 274.2 43.6C274.5 43.8 276.2 43.3 278 42.3C290.3 36.2 313.6 42.9 327.2 56.4C338.2 67.4 343.4 79.7 343.5 94.7V104H349.4C352.6 104 357.1 104.5 359.4 105.2C364.9 106.8 373.2 115.1 374.8 120.6C375.7 123.7 376 140.9 376 186.4V248L379.6 244C384.7 238.4 395.7 233.1 404.2 232.3C410.4 231.8 411 231.9 413.4 234.3C418.5 239.4 415.1 248 407.9 248C395.6 248 384 259.7 384 272C384 284.3 395.6 296 407.9 296C415.1 296 418.5 304.6 413.4 309.7C411 312.1 410.4 312.2 404.3 311.7C395.9 310.9 386.8 306.7 380.6 300.8L376 296.3V309.8C376 317.5 375.5 325 374.8 327.4C373.2 332.9 364.9 341.2 359.4 342.8C356.4 343.7 343.4 344 313.6 344H271.9L272.2 372.8L272.5 401.6L276.2 409.2C280.7 418.3 286.5 423.9 295.8 428.3C301.9 431.2 303.4 431.5 312 431.5C320.6 431.5 322.1 431.2 328.2 428.3C331.9 426.6 337.1 423.1 339.8 420.6C344.5 416.2 345 416 350.6 416C368.4 415.9 384.4 407 393.2 391.9C397.6 384.6 400.3 373.5 399.8 365.6L399.5 360.2L405.8 359.6C413 358.8 422.6 355.6 429.4 351.6C435.2 348.2 444.3 339.1 447.7 333.2C456.7 317.9 458.3 298.2 451.9 283.3L449.8 278.5L452.7 276.5C454.2 275.4 458.5 271.5 462.2 267.8C485.7 244 485.7 204.1 462.2 180.1C458.5 176.4 454.2 172.4 452.7 171.4L449.9 169.4L451.9 164.7C458.3 149.8 456.7 130 447.7 114.7C440 101.6 423.6 90.9 407.8 88.8L399.5 87.6L399.8 82.3C400 79.3 399.5 73.6 398.6 69.6C393.7 47.8 374.1 32.3 351.1 32.1C344.9 32 344.5 31.8 339.8 27.4C332.6 20.7 323.8 16.9 314.2 16.4C310 16.2 304.8 16.5 302.7 17Z"
        fill="url(#paint2_linear_336_3)" />
    <path
        d="M282.6 58.3C277.5 63.4 280.9 72 288.1 72C300.3 72 312 83.7 312 95.9C312 103.1 320.6 106.5 325.7 101.4C328.1 99 328.2 98.4 327.7 92.2C326.8 83.4 321.7 72.8 315.4 67.1C309.2 61.3 299.9 57.1 291.7 56.3C285.6 55.8 285 55.9 282.6 58.3Z"
        fill="url(#paint3_linear_336_3)" />
    <path
        d="M272 92.9V104H284.6C297.2 104 297.2 104 296.6 101.7C296.3 100.5 296 98 296 96.2C296 91.7 292.2 88 287.7 88C283.5 88 278.4 86.3 274.8 83.8L272 81.9V92.9Z"
        fill="url(#paint4_linear_336_3)" />
    <defs>
        <linearGradient id="paint0_linear_336_3" x1="-35.45" y1="341.653" x2="538.141" y2="124.379"
            gradientUnits="userSpaceOnUse">
            <stop stop-color="#1C8A55" />
            <stop offset="1" stop-color="#54C5D2" />
        </linearGradient>
        <linearGradient id="paint1_linear_336_3" x1="198.481" y1="249.207" x2="341.615" y2="181.734"
            gradientUnits="userSpaceOnUse">
            <stop stop-color="#1C8A55" />
            <stop offset="1" stop-color="#54C5D2" />
        </linearGradient>
        <linearGradient id="paint2_linear_336_3" x1="251.108" y1="333.041" x2="610.416" y2="248.181"
            gradientUnits="userSpaceOnUse">
            <stop stop-color="#1C8A55" />
            <stop offset="1" stop-color="#54C5D2" />
        </linearGradient>
        <linearGradient id="paint3_linear_336_3" x1="275.381" y1="92.5088" x2="346.699" y2="58.8769"
            gradientUnits="userSpaceOnUse">
            <stop stop-color="#1C8A55" />
            <stop offset="1" stop-color="#54C5D2" />
        </linearGradient>
        <linearGradient id="paint4_linear_336_3" x1="269.52" y1="98.7588" x2="304.865" y2="80.0583"
            gradientUnits="userSpaceOnUse">
            <stop stop-color="#1C8A55" />
            <stop offset="1" stop-color="#54C5D2" />
        </linearGradient>
    </defs>
</svg>