<?xml version="1.0" standalone="no"?>
<!DOCTYPE svg PUBLIC "-//W3C//DTD SVG 20010904//EN"
 "http://www.w3.org/TR/2001/REC-SVG-20010904/DTD/svg10.dtd">
<svg version="1.0" xmlns="http://www.w3.org/2000/svg"
 viewBox="0 0 512.000000 512.000000"
 preserveAspectRatio="xMidYMid meet">

<g transform="translate(0.000000,512.000000) scale(0.100000,-0.100000)"
fill="#000000" stroke="none">
<path d="M1380 4784 c-142 -52 -229 -183 -218 -327 17 -209 220 -344 417 -277
l64 21 142 -140 142 -141 216 0 217 0 0 -160 0 -160 -315 0 -316 0 -24 -25
c-24 -23 -25 -29 -25 -160 l0 -135 -233 0 -232 0 -209 215 c-194 201 -207 217
-193 233 66 73 82 226 34 323 -56 116 -161 183 -287 183 -128 0 -233 -66 -289
-184 -36 -76 -36 -191 -1 -265 64 -133 225 -213 355 -176 l40 11 60 -62 c33
-35 141 -147 241 -250 l182 -188 266 0 266 0 0 -240 0 -240 -444 0 -445 0 -24
53 c-30 66 -81 118 -150 154 -44 23 -65 27 -137 28 -101 0 -159 -23 -228 -93
-65 -65 -87 -120 -87 -222 0 -102 22 -157 87 -222 67 -67 127 -92 223 -93 66
0 90 5 136 26 70 33 125 87 156 156 l24 53 445 0 444 0 0 -240 0 -240 -266 0
-266 0 -182 -187 c-100 -104 -208 -216 -241 -251 l-60 -62 -40 11 c-118 33
-270 -31 -341 -143 -133 -210 20 -491 266 -492 88 -1 158 25 219 80 120 108
144 288 56 418 l-25 37 207 215 208 214 233 0 232 0 0 -135 c0 -131 1 -137 25
-160 l24 -25 316 0 315 0 0 -160 0 -160 -217 0 -216 0 -142 -141 -142 -140
-64 21 c-153 52 -317 -17 -389 -165 -35 -72 -35 -198 0 -270 115 -235 443
-246 567 -19 46 85 53 165 23 253 l-21 64 118 119 118 118 238 0 238 0 24 25
c25 24 25 24 25 240 l0 215 595 0 596 0 24 25 25 24 0 991 0 991 -25 24 -24
25 -596 0 -595 0 0 215 c0 216 0 216 -25 240 l-24 25 -238 0 -238 0 -118 118
-118 119 21 64 c52 153 -18 318 -165 388 -65 31 -172 38 -235 15z m163 -158
c104 -43 129 -180 46 -258 -67 -64 -156 -64 -220 1 -124 123 13 325 174 257z
m-920 -560 c103 -43 128 -177 48 -257 -112 -113 -296 -12 -267 146 18 94 128
150 219 111z m2231 -881 c185 -39 355 -171 435 -337 94 -194 94 -382 0 -576
-80 -166 -254 -299 -439 -338 -277 -58 -571 83 -698 336 -95 190 -96 389 0
580 128 256 419 395 702 335z m-2311 -479 c103 -43 128 -177 48 -257 -65 -65
-157 -65 -222 0 -124 123 13 325 174 257z m80 -1360 c103 -43 128 -177 48
-257 -65 -65 -157 -65 -222 0 -124 123 13 325 174 257z m921 -560 c18 -8 45
-29 60 -48 51 -68 47 -145 -12 -207 -64 -67 -157 -68 -223 -2 -124 124 13 325
175 257z"/>
<path d="M2601 3024 c-253 -68 -410 -331 -346 -579 67 -256 329 -415 580 -350
256 67 415 329 350 578 -67 259 -333 419 -584 351z"/>
<path d="M3187 4630 c-58 -15 -135 -57 -181 -101 -40 -36 -114 -155 -104 -165
3 -2 20 3 38 13 123 61 356 -6 492 -141 110 -110 162 -233 163 -383 l0 -93 59
0 c32 0 77 -5 100 -12 55 -16 138 -99 154 -154 9 -31 12 -203 12 -658 l0 -616
36 40 c51 56 161 109 246 117 62 5 68 4 92 -20 51 -51 17 -137 -55 -137 -123
0 -239 -117 -239 -240 0 -123 116 -240 239 -240 72 0 106 -86 55 -137 -24 -24
-30 -25 -91 -20 -84 8 -175 50 -237 109 l-46 45 0 -135 c0 -77 -5 -152 -12
-176 -16 -55 -99 -138 -154 -154 -30 -9 -160 -12 -458 -12 l-417 0 3 -288 3
-288 37 -76 c45 -91 103 -147 196 -191 61 -29 76 -32 162 -32 86 0 101 3 162
32 37 17 89 52 116 77 47 44 52 46 108 46 178 1 338 90 426 241 44 73 71 184
66 263 l-3 54 63 6 c72 8 168 40 236 80 58 34 149 125 183 184 90 153 106 350
42 499 l-21 48 29 20 c15 11 58 50 95 87 235 238 235 637 0 877 -37 37 -80 77
-95 87 l-28 20 20 47 c64 149 48 347 -42 500 -77 131 -241 238 -399 259 l-83
12 3 53 c2 30 -3 87 -12 127 -49 218 -245 373 -475 375 -62 1 -66 3 -113 47
-72 67 -160 105 -256 110 -42 2 -94 -1 -115 -6z"/>
<path d="M2986 4217 c-51 -51 -17 -137 55 -137 122 0 239 -117 239 -239 0 -72
86 -106 137 -55 24 24 25 30 20 92 -9 88 -60 194 -123 251 -62 58 -155 100
-237 108 -61 5 -67 4 -91 -20z"/>
<path d="M2880 3871 l0 -111 126 0 c126 0 126 0 120 23 -3 12 -6 37 -6 55 0
45 -38 82 -83 82 -42 0 -93 17 -129 42 l-28 19 0 -110z"/>
</g>
</svg>
