<?xml version="1.0" standalone="no"?>
<!DOCTYPE svg PUBLIC "-//W3C//DTD SVG 20010904//EN"
 "http://www.w3.org/TR/2001/REC-SVG-20010904/DTD/svg10.dtd">
<svg version="1.0" xmlns="http://www.w3.org/2000/svg"
 viewBox="0 0 512.000000 512.000000"
 preserveAspectRatio="xMidYMid meet">

<g transform="translate(0.000000,512.000000) scale(0.100000,-0.100000)"
fill="currentColor" stroke="none">
<path d="M3285 4820 c-78 -34 -148 -70 -159 -82 -17 -21 -18 -35 -11 -168 l6
-145 -54 -53 -54 -54 -144 7 c-132 7 -146 6 -167 -11 -24 -21 -142 -292 -142
-327 1 -28 16 -46 128 -146 l92 -84 0 -77 0 -77 -92 -84 c-112 -100 -127 -118
-128 -146 0 -35 118 -306 142 -327 21 -17 35 -18 168 -11 l145 6 53 -54 54
-54 -7 -144 c-7 -132 -6 -146 11 -167 21 -24 292 -142 327 -142 28 1 46 16
146 128 l84 92 77 0 77 0 84 -92 c100 -112 118 -127 146 -128 36 0 306 117
327 142 17 21 18 35 11 167 l-7 144 54 54 53 54 145 -6 c133 -7 147 -6 168 11
24 21 142 292 142 327 -1 28 -16 46 -127 146 l-93 84 0 77 0 77 93 84 c111
100 126 118 127 146 0 35 -118 306 -142 327 -21 17 -35 18 -168 11 l-145 -6
-53 54 -54 54 7 144 c7 132 6 146 -11 167 -21 25 -291 142 -327 142 -28 -1
-46 -16 -146 -127 l-84 -93 -77 0 -77 0 -84 93 c-102 114 -118 127 -149 126
-14 0 -88 -27 -165 -59z m192 -172 c26 -29 69 -74 94 -100 l46 -48 143 0 143
0 46 48 c25 26 68 71 95 101 55 60 49 60 161 10 l43 -19 -5 -140 -6 -141 101
-101 101 -101 141 4 141 4 30 -70 c16 -38 29 -73 29 -77 0 -4 -24 -29 -52 -55
-29 -26 -74 -69 -100 -94 l-48 -46 0 -143 0 -143 48 -46 c26 -25 71 -68 100
-94 28 -26 52 -51 52 -55 0 -4 -13 -39 -29 -77 l-30 -70 -141 4 -141 4 -101
-101 -101 -101 6 -141 5 -140 -43 -19 c-112 -50 -106 -50 -161 10 -27 30 -70
75 -95 102 l-46 47 -143 0 -143 0 -46 -47 c-25 -27 -68 -72 -94 -100 -26 -29
-51 -53 -55 -53 -4 0 -39 13 -77 29 l-70 30 4 141 4 141 -101 101 -101 101
-141 -4 -141 -4 -31 74 -31 74 101 96 102 96 0 145 0 145 -102 96 -101 96 31
74 31 74 141 -4 141 -4 101 101 101 101 -4 141 -4 141 65 29 c36 15 70 28 77
29 7 1 34 -23 60 -51z"/>
<path d="M3641 4144 c-253 -68 -410 -331 -346 -579 50 -190 207 -330 401 -358
329 -48 612 266 529 586 -67 259 -333 419 -584 351z m254 -175 c63 -30 123
-90 155 -154 35 -71 35 -197 0 -270 -31 -64 -91 -124 -155 -155 -73 -35 -199
-35 -270 0 -64 31 -124 91 -155 155 -20 41 -25 65 -24 135 0 72 4 93 26 136
15 28 38 64 52 81 27 32 112 82 160 94 55 14 157 4 211 -22z"/>
<path d="M404 4631 c-47 -12 -133 -62 -160 -94 -14 -17 -37 -53 -52 -81 l-27
-51 0 -1685 0 -1685 27 -51 c40 -76 70 -107 140 -145 l63 -34 748 -3 c411 -1
747 -6 747 -10 0 -4 -9 -101 -20 -217 -11 -116 -20 -220 -20 -232 0 -23 -2
-23 -125 -23 l-125 0 0 -80 0 -80 880 0 880 0 0 80 0 80 -125 0 c-123 0 -125
0 -125 23 0 12 -9 116 -20 232 -11 116 -20 213 -20 217 0 4 336 9 748 10 l747
3 63 34 c70 38 100 69 140 145 l27 51 3 923 3 922 -81 0 -80 0 0 -640 0 -640
-2160 0 -2160 0 0 1120 0 1120 1040 0 1040 0 0 80 0 80 -1041 0 -1040 0 3 189
c3 207 6 216 72 265 27 21 32 21 1297 24 l1269 2 0 80 0 80 -1262 -1 c-695 -1
-1277 -4 -1294 -8z m4234 -3380 c-3 -207 -6 -216 -72 -265 l-27 -21 -2058 0
-2058 0 -37 29 c-60 45 -66 71 -66 271 l0 175 2161 0 2160 0 -3 -189z m-1728
-463 c0 -7 9 -107 20 -223 11 -116 20 -218 20 -227 0 -17 -29 -18 -470 -18
-441 0 -470 1 -470 18 0 9 9 111 20 227 11 116 20 216 20 223 0 9 93 12 430
12 337 0 430 -3 430 -12z"/>
<path d="M2400 1200 l0 -80 80 0 80 0 0 80 0 80 -80 0 -80 0 0 -80z"/>
<path d="M480 4240 l0 -80 80 0 80 0 0 80 0 80 -80 0 -80 0 0 -80z"/>
<path d="M800 4240 l0 -80 80 0 80 0 0 80 0 80 -80 0 -80 0 0 -80z"/>
<path d="M1120 4240 l0 -80 80 0 80 0 0 80 0 80 -80 0 -80 0 0 -80z"/>
<path d="M585 3575 c-25 -24 -25 -26 -25 -215 0 -257 -17 -240 240 -240 257 0
240 -17 240 240 0 257 17 240 -240 240 -189 0 -191 0 -215 -25z m295 -215 l0
-80 -80 0 -80 0 0 80 0 80 80 0 80 0 0 -80z"/>
<path d="M1225 3575 c-25 -24 -25 -26 -25 -215 0 -257 -17 -240 240 -240 189
0 191 0 215 25 25 24 25 26 25 215 0 257 17 240 -240 240 -189 0 -191 0 -215
-25z m295 -215 l0 -80 -80 0 -80 0 0 80 0 80 80 0 80 0 0 -80z"/>
<path d="M1865 3575 c-25 -24 -25 -26 -25 -215 0 -257 -17 -240 240 -240 257
0 240 -17 240 240 0 257 17 240 -240 240 -189 0 -191 0 -215 -25z m295 -215
l0 -80 -80 0 -80 0 0 80 0 80 80 0 80 0 0 -80z"/>
<path d="M585 2935 c-25 -24 -25 -26 -25 -215 0 -257 -17 -240 240 -240 257 0
240 -17 240 240 0 257 17 240 -240 240 -189 0 -191 0 -215 -25z m295 -215 l0
-80 -80 0 -80 0 0 80 0 80 80 0 80 0 0 -80z"/>
<path d="M1225 2935 c-25 -24 -25 -26 -25 -215 0 -257 -17 -240 240 -240 189
0 191 0 215 25 25 24 25 26 25 215 0 257 17 240 -240 240 -189 0 -191 0 -215
-25z m295 -215 l0 -80 -80 0 -80 0 0 80 0 80 80 0 80 0 0 -80z"/>
<path d="M1865 2935 c-25 -24 -25 -26 -25 -215 0 -257 -17 -240 240 -240 189
0 191 0 215 25 25 24 25 26 25 215 0 257 17 240 -240 240 -189 0 -191 0 -215
-25z m295 -215 l0 -80 -80 0 -80 0 0 80 0 80 80 0 80 0 0 -80z"/>
<path d="M585 2295 c-25 -24 -25 -26 -25 -215 0 -257 -17 -240 240 -240 257 0
240 -17 240 240 0 257 17 240 -240 240 -189 0 -191 0 -215 -25z m295 -215 l0
-80 -80 0 -80 0 0 80 0 80 80 0 80 0 0 -80z"/>
<path d="M1225 2295 c-25 -24 -25 -26 -25 -215 0 -257 -17 -240 240 -240 189
0 191 0 215 25 25 24 25 26 25 215 0 257 17 240 -240 240 -189 0 -191 0 -215
-25z m295 -215 l0 -80 -80 0 -80 0 0 80 0 80 80 0 80 0 0 -80z"/>
<path d="M1865 2295 c-25 -24 -25 -26 -25 -215 0 -257 -17 -240 240 -240 189
0 191 0 215 25 25 24 25 26 25 215 0 257 17 240 -240 240 -189 0 -191 0 -215
-25z m295 -215 l0 -80 -80 0 -80 0 0 80 0 80 80 0 80 0 0 -80z"/>
<path d="M2720 2240 l0 -80 80 0 80 0 0 80 0 80 -80 0 -80 0 0 -80z"/>
<path d="M3040 2240 l0 -80 680 0 680 0 0 80 0 80 -680 0 -680 0 0 -80z"/>
<path d="M2560 1920 l0 -80 760 0 760 0 0 80 0 80 -760 0 -760 0 0 -80z"/>
</g>
</svg>
