<?xml version="1.0" standalone="no"?>
<!DOCTYPE svg PUBLIC "-//W3C//DTD SVG 20010904//EN"
 "http://www.w3.org/TR/2001/REC-SVG-20010904/DTD/svg10.dtd">
<svg version="1.0" xmlns="http://www.w3.org/2000/svg"
  viewBox="0 0 512.000000 512.000000"
 preserveAspectRatio="xMidYMid meet">

<g transform="translate(0.000000,512.000000) scale(0.100000,-0.100000)"
fill="#000000" stroke="none">
<path d="M1440 5027 c-49 -16 -133 -102 -148 -153 -16 -56 -16 -412 0 -468 23
-78 135 -166 212 -166 14 0 16 -19 16 -160 0 -141 -2 -160 -16 -160 -77 0
-189 -88 -212 -166 -16 -56 -16 -412 0 -468 23 -78 135 -166 212 -166 14 0 16
-19 16 -160 0 -141 -2 -160 -16 -160 -79 0 -190 -89 -213 -171 -9 -32 -12
-107 -9 -257 l3 -212 -347 0 -348 0 -200 -400 -200 -400 185 0 185 0 0 -536
c0 -392 3 -548 12 -578 16 -55 99 -138 154 -154 60 -18 3608 -18 3668 0 55 16
138 99 154 154 9 30 12 186 12 578 l0 536 185 0 185 0 -200 400 -200 400 -348
0 -347 0 3 212 c2 146 0 226 -9 256 -24 85 -131 172 -211 172 -17 0 -18 12
-18 160 0 141 2 160 16 160 77 0 189 88 212 166 16 55 16 412 0 466 -17 59
-88 133 -145 152 -26 9 -55 16 -65 16 -17 0 -18 12 -18 160 0 141 2 160 16
160 77 0 189 88 212 166 16 55 16 412 0 466 -6 22 -31 62 -55 88 -77 86 8 80
-1217 79 -758 -1 -1091 -4 -1116 -12z m2215 -172 c25 -24 25 -26 25 -215 0
-189 0 -191 -25 -215 l-24 -25 -1071 0 -1071 0 -24 25 c-25 24 -25 26 -25 215
0 189 0 191 25 215 l24 25 1071 0 1071 0 24 -25z m-215 -775 l0 -160 -880 0
-880 0 0 160 0 160 880 0 880 0 0 -160z m215 -345 c25 -24 25 -26 25 -215 0
-189 0 -191 -25 -215 l-24 -25 -1071 0 -1071 0 -24 25 c-25 24 -25 26 -25 215
0 189 0 191 25 215 l24 25 1071 0 1071 0 24 -25z m-215 -775 l0 -160 -880 0
-880 0 0 160 0 160 880 0 880 0 0 -160z m215 -345 c25 -24 25 -26 25 -215 0
-189 0 -191 -25 -215 l-24 -25 -1071 0 -1071 0 -24 25 c-25 24 -25 26 -25 215
0 189 0 191 25 215 l24 25 1071 0 1071 0 24 -25z m-1665 -855 l-120 -240 -710
0 -710 0 120 240 120 240 710 0 710 0 -120 -240z m2560 0 l120 -240 -1030 0
-1030 0 -120 240 -120 240 1030 0 1030 0 120 -240z m-2390 -775 l0 -745 -695
0 -696 0 -24 25 -25 24 0 536 0 535 625 0 625 0 92 185 c51 102 94 185 95 185
2 0 3 -335 3 -745z m1295 375 l945 0 0 -535 0 -536 -25 -24 -24 -25 -1016 0
-1015 0 1 748 0 747 95 -187 94 -188 945 0z"/>
<path d="M1600 4640 l0 -80 80 0 80 0 0 80 0 80 -80 0 -80 0 0 -80z"/>
<path d="M1920 4640 l0 -80 80 0 80 0 0 80 0 80 -80 0 -80 0 0 -80z"/>
<path d="M2240 4640 l0 -80 80 0 80 0 0 80 0 80 -80 0 -80 0 0 -80z"/>
<path d="M1600 3520 l0 -80 80 0 80 0 0 80 0 80 -80 0 -80 0 0 -80z"/>
<path d="M1920 3520 l0 -80 80 0 80 0 0 80 0 80 -80 0 -80 0 0 -80z"/>
<path d="M2240 3520 l0 -80 80 0 80 0 0 80 0 80 -80 0 -80 0 0 -80z"/>
<path d="M1600 2400 l0 -80 80 0 80 0 0 80 0 80 -80 0 -80 0 0 -80z"/>
<path d="M1920 2400 l0 -80 80 0 80 0 0 80 0 80 -80 0 -80 0 0 -80z"/>
<path d="M2240 2400 l0 -80 80 0 80 0 0 80 0 80 -80 0 -80 0 0 -80z"/>
<path d="M3440 800 l0 -80 400 0 400 0 0 80 0 80 -400 0 -400 0 0 -80z"/>
<path d="M3440 480 l0 -80 80 0 80 0 0 80 0 80 -80 0 -80 0 0 -80z"/>
<path d="M3760 480 l0 -80 80 0 80 0 0 80 0 80 -80 0 -80 0 0 -80z"/>
<path d="M4080 480 l0 -80 80 0 80 0 0 80 0 80 -80 0 -80 0 0 -80z"/>
<path d="M4000 4640 l0 -80 415 0 416 0 24 -25 25 -24 0 -991 0 -991 -25 -24
-24 -25 -416 0 -415 0 0 -80 0 -80 416 0 c298 0 428 3 458 12 55 16 138 99
154 154 17 59 17 2009 0 2066 -6 22 -31 62 -55 88 -72 80 -72 80 -555 80
l-418 0 0 -80z"/>
<path d="M240 3587 c-49 -16 -133 -102 -148 -153 -17 -58 -17 -890 0 -948 16
-55 99 -138 154 -154 30 -9 160 -12 458 -12 l416 0 0 80 0 80 -415 0 -416 0
-24 25 -25 24 0 431 0 431 25 24 24 25 416 0 415 0 0 80 0 80 -422 -1 c-278
-1 -435 -5 -458 -12z"/>
</g>
</svg>
