<?xml version="1.0" standalone="no"?>
<!DOCTYPE svg PUBLIC "-//W3C//DTD SVG 20010904//EN"
 "http://www.w3.org/TR/2001/REC-SVG-20010904/DTD/svg10.dtd">
<svg version="1.0" xmlns="http://www.w3.org/2000/svg"
 viewBox="0 0 512.000000 512.000000"
 preserveAspectRatio="xMidYMid meet">

<g transform="translate(0.000000,512.000000) scale(0.100000,-0.100000)"
fill="currentColor" stroke="none">
<path d="M1405 4808 c-9 -40 -19 -81 -21 -90 -3 -9 -26 -24 -52 -33 -26 -9
-58 -22 -71 -29 -22 -12 -30 -10 -96 30 -40 24 -77 44 -82 44 -12 0 -133 -123
-133 -135 0 -6 20 -41 43 -80 l43 -70 -30 -70 c-17 -38 -31 -71 -32 -73 -1 -2
-41 -12 -88 -23 l-86 -21 0 -98 0 -98 73 -17 c39 -9 80 -19 89 -21 9 -3 24
-26 33 -52 9 -26 22 -58 29 -71 12 -22 10 -30 -30 -96 -24 -40 -44 -77 -44
-82 0 -11 123 -133 134 -133 5 0 41 20 81 44 66 40 74 42 96 30 13 -7 45 -20
71 -29 26 -9 49 -24 52 -33 2 -9 12 -50 21 -89 l17 -73 98 0 98 0 21 86 c11
47 21 87 23 88 2 1 35 15 73 32 l70 30 70 -43 c39 -23 75 -43 80 -43 12 0 135
122 135 134 0 5 -20 41 -44 81 -40 66 -42 74 -30 96 7 13 20 45 29 70 l16 47
89 22 90 22 0 98 0 98 -90 22 -89 22 -16 47 c-9 25 -22 57 -29 70 -12 22 -10
30 30 96 24 40 44 77 44 82 0 12 -123 133 -135 133 -6 0 -41 -20 -80 -43 l-70
-43 -70 30 c-38 17 -71 31 -73 32 -2 1 -12 41 -23 88 l-21 86 -98 0 -98 0 -17
-72z m246 -357 c69 -33 112 -74 150 -143 31 -58 34 -70 34 -148 0 -78 -3 -90
-34 -148 -38 -70 -70 -100 -145 -140 -43 -22 -64 -26 -136 -26 -78 -1 -90 2
-148 33 -69 37 -109 80 -144 151 -32 66 -31 196 2 265 42 86 123 152 215 176
49 13 158 2 206 -20z"/>
<path d="M3313 3426 c-244 -121 -443 -223 -443 -226 0 -3 200 -105 445 -228
l445 -222 0 185 0 185 456 0 c329 0 468 -3 498 -12 55 -16 138 -99 154 -154
17 -58 17 -730 0 -788 -16 -55 -99 -138 -154 -154 -30 -9 -186 -12 -578 -12
l-536 0 0 -80 0 -81 568 3 568 3 76 37 c91 45 147 103 191 196 l32 67 0 415 0
415 -32 67 c-44 93 -100 151 -191 196 l-76 37 -488 3 -488 3 -2 183 -3 183
-442 -221z"/>
<path d="M265 3575 l-25 -24 0 -351 0 -351 25 -24 24 -25 1071 0 1071 0 24 25
25 24 0 351 0 351 -25 24 c-23 24 -30 25 -137 25 l-113 0 -110 -110 -110 -110
-90 55 c-49 30 -92 55 -95 55 -3 0 -17 -46 -31 -102 l-25 -103 -224 0 -224 0
-24 100 c-14 55 -26 102 -28 104 -2 2 -45 -22 -96 -53 l-93 -56 -110 110 -110
110 -273 0 -273 0 -24 -25z m295 -375 l0 -80 -80 0 -80 0 0 80 0 80 80 0 80 0
0 -80z m320 0 l0 -80 -80 0 -80 0 0 80 0 80 80 0 80 0 0 -80z m320 0 l0 -80
-80 0 -80 0 0 80 0 80 80 0 80 0 0 -80z"/>
<path d="M1225 2295 l-25 -24 0 -351 0 -351 25 -24 24 -25 1071 0 1071 0 24
25 25 24 0 351 0 351 -25 24 -24 25 -1071 0 -1071 0 -24 -25z m295 -375 l0
-80 -80 0 -80 0 0 80 0 80 80 0 80 0 0 -80z m320 0 l0 -80 -80 0 -80 0 0 80 0
80 80 0 80 0 0 -80z m320 0 l0 -80 -80 0 -80 0 0 80 0 80 80 0 80 0 0 -80z"/>
<path d="M745 1015 l-25 -24 0 -351 0 -351 25 -24 24 -25 1071 0 1071 0 24 25
25 24 0 351 0 351 -25 24 -24 25 -1071 0 -1071 0 -24 -25z m295 -375 l0 -80
-80 0 -80 0 0 80 0 80 80 0 80 0 0 -80z m320 0 l0 -80 -80 0 -80 0 0 80 0 80
80 0 80 0 0 -80z m320 0 l0 -80 -80 0 -80 0 0 80 0 80 80 0 80 0 0 -80z"/>
</g>
</svg>
