<?xml version="1.0" standalone="no"?>
<!DOCTYPE svg PUBLIC "-//W3C//DTD SVG 20010904//EN"
 "http://www.w3.org/TR/2001/REC-SVG-20010904/DTD/svg10.dtd">
<svg version="1.0" xmlns="http://www.w3.org/2000/svg"
viewBox="0 0 512.000000 512.000000"
 preserveAspectRatio="xMidYMid meet">

<g transform="translate(0.000000,512.000000) scale(0.100000,-0.100000)"
fill="#000000" stroke="none">
<path d="M657 4955 c-172 -47 -315 -201 -347 -374 -13 -72 -13 -785 0 -833 17
-59 69 -120 129 -150 l55 -28 308 0 308 0 0 -959 0 -960 -327 -3 c-315 -3
-330 -4 -376 -25 -105 -49 -173 -129 -202 -238 -21 -81 -22 -878 -1 -966 25
-107 84 -181 189 -237 l52 -27 2010 -3 c1460 -2 2029 1 2078 9 188 31 343 179
383 368 11 55 14 381 14 2027 0 1365 -3 1978 -11 2020 -32 178 -176 333 -353
380 -75 20 -3836 19 -3909 -1z m3935 -168 c67 -33 121 -90 157 -166 l26 -56 0
-2005 0 -2005 -26 -55 c-37 -80 -81 -125 -157 -162 l-67 -33 -1403 -3 c-1339
-2 -1404 -2 -1397 15 47 107 46 97 43 601 l-3 477 -28 57 c-17 34 -50 77 -83
107 -74 68 -147 91 -291 91 l-105 0 3 1408 c4 1515 4 1531 -47 1642 -14 30
-39 70 -57 88 l-31 32 1704 -2 1705 -3 57 -28z m-3840 -3382 c3 -82 7 -98 28
-120 23 -25 24 -25 200 -25 l177 0 24 26 c21 23 24 36 27 120 l4 94 126 0
c138 0 185 -13 229 -61 52 -57 53 -64 53 -547 0 -444 0 -448 -22 -492 -16 -32
-36 -52 -68 -70 l-45 -25 -506 0 -505 0 -42 28 c-23 15 -52 46 -64 70 -23 42
-23 43 -23 497 l0 455 27 47 c21 34 41 53 80 72 47 24 63 26 174 26 l122 0 4
-95z"/>
<path d="M1795 4585 c-51 -18 -120 -91 -134 -141 -6 -22 -11 -128 -11 -249 0
-182 3 -215 19 -250 23 -51 65 -93 116 -116 38 -18 84 -19 810 -19 l770 0 51
24 c57 26 85 58 109 119 13 36 16 80 13 268 l-3 226 -30 48 c-22 36 -45 57
-84 77 l-53 28 -767 0 c-634 -1 -773 -3 -806 -15z m230 -311 c24 -10 46 -60
39 -89 -9 -38 -41 -55 -102 -55 -43 0 -58 5 -77 25 -14 13 -25 36 -25 50 0 14
11 37 25 50 19 20 34 25 74 25 27 0 57 -3 66 -6z m300 -19 c14 -13 25 -36 25
-50 0 -14 -11 -37 -25 -50 -19 -20 -34 -25 -75 -25 -62 0 -84 10 -99 49 -10
24 -10 34 3 59 19 37 27 40 94 41 43 1 57 -3 77 -24z"/>
<path d="M3966 4320 c-126 -83 -141 -98 -131 -130 9 -28 235 -170 272 -170 39
0 63 28 63 73 l0 37 85 0 85 0 0 -470 0 -470 -250 0 -250 0 0 76 c0 64 -4 84
-27 125 -31 58 -96 105 -157 114 -22 3 -378 5 -791 3 l-750 -3 -42 -22 c-52
-28 -98 -83 -113 -137 -8 -28 -10 -113 -8 -257 l3 -216 30 -48 c22 -36 45 -57
84 -77 l53 -28 774 0 c838 0 805 -2 872 55 50 42 65 80 72 175 l5 85 302 3
302 2 20 26 c21 26 21 36 21 596 l0 569 -25 24 c-23 24 -29 25 -160 25 l-135
0 0 40 c0 46 -27 80 -62 80 -13 0 -77 -36 -142 -80z m-1643 -1141 c24 -11 47
-47 47 -73 0 -7 -9 -25 -21 -40 -18 -23 -27 -26 -84 -26 -57 0 -66 3 -84 26
-33 42 -23 96 22 114 31 12 92 12 120 -1z m302 -14 c31 -30 32 -71 3 -102 -29
-32 -128 -33 -158 -3 -30 30 -27 83 6 109 39 31 117 29 149 -4z"/>
<path d="M1838 2398 c-52 -14 -123 -79 -143 -131 -14 -37 -16 -79 -13 -274 l3
-230 28 -41 c15 -23 46 -54 69 -69 l42 -28 802 0 802 0 44 30 c28 20 52 49 71
84 l27 55 0 218 c0 238 -5 266 -58 321 -15 16 -45 39 -67 50 -40 22 -42 22
-805 24 -483 1 -779 -3 -802 -9z m228 -331 c34 -30 36 -83 3 -109 -33 -28
-132 -25 -159 4 -34 37 -22 100 23 118 44 17 104 11 133 -13z m273 8 c46 -23
54 -66 20 -109 -18 -23 -27 -26 -84 -26 -57 0 -66 3 -84 26 -12 15 -21 33 -21
40 0 25 22 62 44 72 31 16 93 14 125 -3z"/>
<path d="M2148 1306 c-79 -21 -131 -70 -157 -145 -15 -46 -15 -431 1 -482 16
-57 70 -114 126 -136 44 -17 95 -18 817 -18 770 0 770 0 810 22 51 27 90 68
109 115 23 54 23 462 0 516 -19 47 -58 88 -109 115 -40 22 -42 22 -795 24
-585 2 -765 -1 -802 -11z m225 -334 c25 -26 27 -75 3 -101 -36 -40 -140 -36
-172 7 -15 19 -18 51 -8 77 18 46 137 57 177 17z m262 14 c37 -16 52 -48 41
-92 -14 -54 -139 -70 -182 -23 -21 23 -23 71 -4 95 30 35 89 43 145 20z"/>
</g>
</svg>
