<?xml version="1.0" standalone="no"?>
<!DOCTYPE svg PUBLIC "-//W3C//DTD SVG 20010904//EN"
 "http://www.w3.org/TR/2001/REC-SVG-20010904/DTD/svg10.dtd">
<svg version="1.0" xmlns="http://www.w3.org/2000/svg"
 viewBox="0 0 512.000000 512.000000"
 preserveAspectRatio="xMidYMid meet">

<g transform="translate(0.000000,512.000000) scale(0.100000,-0.100000)"
fill="currentColor" stroke="none">
<path d="M1840 5027 c-49 -16 -133 -102 -148 -153 -7 -23 -12 -66 -12 -97 l0
-56 -408 -3 -408 -3 -76 -37 c-91 -45 -147 -103 -191 -196 l-32 -67 -3 -829
-3 -830 -144 -147 c-81 -82 -164 -178 -191 -219 -88 -136 -132 -277 -140 -445
-5 -103 -1 -138 65 -535 39 -234 81 -463 92 -510 12 -47 52 -164 90 -261 l69
-175 0 -192 0 -192 560 0 560 0 0 80 0 80 720 0 720 0 0 -80 0 -80 720 0 720
0 0 73 c0 141 -33 273 -99 402 -20 39 -37 73 -39 76 -1 3 45 65 103 138 58 73
118 158 134 190 56 112 56 115 56 651 l0 495 -28 48 c-53 89 -63 94 -517 207
l-410 102 0 449 0 449 320 0 320 0 0 -145 0 -145 359 179 c381 192 409 210
430 288 14 48 14 78 0 126 -21 78 -49 97 -431 288 l-358 179 0 -145 0 -145
-319 0 -320 0 -3 288 -3 288 -37 76 c-45 91 -103 147 -196 191 l-67 32 -407 3
-408 3 0 56 c0 80 -18 128 -67 183 -66 73 -96 80 -337 79 -116 -1 -216 -6
-236 -12z m455 -172 c21 -20 25 -34 25 -80 l0 -55 -240 0 -240 0 0 55 c0 46 4
60 25 80 24 25 26 25 215 25 189 0 191 0 215 -25z m-935 -374 l0 -80 -189 -3
c-207 -3 -216 -6 -265 -72 -21 -27 -21 -33 -26 -1454 -5 -1338 -6 -1429 -23
-1459 -30 -56 -75 -68 -114 -31 l-23 21 0 1475 c0 1129 3 1484 12 1516 15 51
99 137 148 153 21 6 126 11 258 12 l222 1 0 -79z m1280 -81 l0 -160 -560 0
-560 0 0 160 0 160 560 0 560 0 0 -160z m634 148 c55 -16 138 -99 154 -154 8
-28 12 -126 12 -298 l0 -256 -79 0 -80 0 -3 229 c-3 214 -4 232 -24 257 -49
66 -58 69 -265 72 l-189 3 0 80 0 79 216 0 c141 0 231 -4 258 -12z m-1914
-388 l0 -80 720 0 720 0 0 80 0 80 160 0 160 0 0 -1045 c0 -575 -2 -1045 -4
-1045 -3 0 -26 13 -53 30 -89 55 -218 75 -291 44 -75 -31 -131 -111 -132 -186
l0 -38 -400 0 -400 0 0 -80 0 -80 400 0 400 0 1 78 c0 52 3 69 8 52 5 -14 34
-77 66 -140 82 -163 85 -177 85 -445 0 -326 19 -393 151 -561 34 -44 66 -85
72 -92 7 -9 -133 -12 -698 -12 l-707 0 7 28 c62 240 65 346 21 905 -41 516
-43 526 -123 597 -74 65 -162 84 -257 56 -104 -32 -153 -94 -195 -251 l-29
-110 -1 1148 -1 1147 160 0 160 0 0 -80z m3515 -542 c7 -13 7 -23 0 -35 -6
-10 -115 -71 -243 -136 l-232 -117 0 95 0 95 -560 0 -560 0 0 80 0 80 560 0
560 0 0 95 0 95 232 -117 c128 -65 237 -126 243 -135z m-1435 -340 l0 -83 -80
0 -80 0 0 83 0 82 80 0 80 0 0 -82z m-25 -263 l25 -24 0 -776 0 -775 80 0 80
0 0 429 0 429 80 -20 80 -20 0 -409 0 -409 80 0 80 0 0 389 0 389 80 -20 80
-20 0 -369 0 -369 80 0 80 0 0 349 0 349 58 -14 c35 -9 66 -25 80 -40 l22 -25
0 -444 c0 -271 -4 -463 -10 -492 -16 -74 -46 -123 -160 -269 l-105 -133 -445
0 -445 0 -105 133 c-114 146 -144 195 -160 269 -5 26 -10 151 -10 276 0 275
-9 319 -100 501 -66 133 -71 164 -25 176 83 21 205 -50 258 -150 20 -38 22
-56 25 -263 l3 -223 80 0 79 0 0 775 0 776 25 24 c15 16 36 25 55 25 19 0 40
-9 55 -25z m-2831 -1688 c58 -117 207 -159 323 -91 55 32 82 73 142 215 67
159 95 245 151 464 44 169 53 193 80 218 44 39 92 37 134 -5 41 -41 37 -14 78
-556 29 -394 31 -443 20 -550 -14 -135 -39 -238 -89 -369 l-36 -93 -427 0
-427 0 -56 143 c-30 78 -62 167 -71 197 -25 85 -166 943 -166 1009 0 130 46
284 117 391 20 30 73 92 117 138 l81 84 5 -579 c5 -540 6 -581 24 -616z m2445
-832 c-16 -35 -29 -71 -29 -80 0 -13 -84 -15 -740 -15 l-740 0 0 34 c0 19 9
55 20 80 l19 46 750 0 750 0 -30 -65z m1115 22 c36 -60 74 -166 82 -226 l7
-51 -553 0 -553 0 7 51 c8 60 46 166 82 226 l25 43 439 0 439 0 25 -43z
m-2784 -197 l0 -80 -400 0 -400 0 0 80 0 80 400 0 400 0 0 -80z"/>
<path d="M1568 3763 l-208 -208 -48 48 c-26 26 -52 47 -58 47 -13 0 -104 -93
-104 -106 0 -5 47 -56 105 -114 l105 -105 265 265 c146 146 265 270 265 275 0
13 -92 105 -105 105 -6 0 -103 -93 -217 -207z"/>
<path d="M2000 3840 l0 -80 480 0 480 0 0 80 0 80 -480 0 -480 0 0 -80z"/>
<path d="M2000 3520 l0 -80 480 0 480 0 0 80 0 80 -480 0 -480 0 0 -80z"/>
<path d="M2000 3040 l0 -80 480 0 480 0 0 80 0 80 -480 0 -480 0 0 -80z"/>
<path d="M1568 2883 l-208 -208 -48 48 c-26 26 -52 47 -58 47 -13 0 -104 -93
-104 -106 0 -5 47 -56 105 -114 l105 -105 265 265 c146 146 265 270 265 275 0
13 -92 105 -105 105 -6 0 -103 -93 -217 -207z"/>
<path d="M2000 2720 l0 -80 480 0 480 0 0 80 0 80 -480 0 -480 0 0 -80z"/>
<path d="M1840 2240 l0 -80 400 0 400 0 0 80 0 80 -400 0 -400 0 0 -80z"/>
<path d="M1840 1280 l0 -400 400 0 400 0 0 400 0 400 -400 0 -400 0 0 -400z
m640 0 l0 -240 -240 0 -240 0 0 240 0 240 240 0 240 0 0 -240z"/>
</g>
</svg>
