<svg id="svg" xmlns="http://www.w3.org/2000/svg" xmlns:xlink="http://www.w3.org/1999/xlink" viewBox="0, 0, 400,416.414686825054" version="1.1"><g id="svgg"><path id="path0" d="M86.000 0.578 C 86.000 0.920,86.180 1.200,86.400 1.200 C 86.620 1.200,86.800 1.549,86.800 1.976 C 86.800 2.403,86.980 2.864,87.200 3.000 C 87.420 3.136,87.600 3.597,87.600 4.024 C 87.600 4.451,87.780 4.800,88.000 4.800 C 88.220 4.800,88.400 5.045,88.400 5.344 C 88.400 5.643,88.850 6.226,89.400 6.639 C 89.951 7.053,90.400 7.796,90.400 8.295 C 90.400 8.793,90.580 9.200,90.800 9.200 C 91.020 9.200,91.200 9.560,91.200 10.000 C 91.200 10.440,91.380 10.800,91.600 10.800 C 91.820 10.800,92.000 11.120,92.000 11.512 C 92.000 11.903,92.360 12.483,92.800 12.800 C 93.240 13.117,93.600 13.787,93.600 14.288 C 93.600 14.832,93.842 15.200,94.200 15.200 C 94.530 15.200,94.800 15.520,94.800 15.912 C 94.800 16.303,95.160 16.883,95.600 17.200 C 96.040 17.517,96.400 18.187,96.400 18.688 C 96.400 19.190,96.580 19.600,96.800 19.600 C 97.020 19.600,97.200 19.960,97.200 20.400 C 97.200 20.840,97.380 21.200,97.600 21.200 C 97.820 21.200,98.000 21.520,98.000 21.912 C 98.000 22.303,98.360 22.883,98.800 23.200 C 99.240 23.517,99.600 24.103,99.600 24.501 C 99.600 24.899,99.870 25.329,100.200 25.455 C 100.530 25.582,100.800 26.026,100.800 26.443 C 100.800 26.859,100.980 27.200,101.200 27.200 C 101.420 27.200,101.600 27.560,101.600 28.000 C 101.600 28.440,101.780 28.800,102.000 28.800 C 102.220 28.800,102.400 29.070,102.400 29.400 C 102.400 29.730,102.580 30.000,102.800 30.000 C 103.020 30.000,103.200 30.360,103.200 30.800 C 103.200 31.240,103.380 31.600,103.600 31.600 C 103.820 31.600,104.000 31.960,104.000 32.400 C 104.000 32.840,104.180 33.200,104.400 33.200 C 104.620 33.200,104.800 33.476,104.800 33.813 C 104.800 34.149,105.070 34.529,105.400 34.655 C 105.730 34.782,106.000 35.136,106.000 35.443 C 106.000 35.749,106.180 36.000,106.400 36.000 C 106.620 36.000,106.800 36.360,106.800 36.800 C 106.800 37.240,106.980 37.600,107.200 37.600 C 107.420 37.600,107.600 37.920,107.600 38.312 C 107.600 38.703,107.960 39.283,108.400 39.600 C 108.840 39.917,109.200 40.587,109.200 41.088 C 109.200 41.590,109.380 42.000,109.600 42.000 C 109.820 42.000,110.000 42.360,110.000 42.800 C 110.000 43.244,110.267 43.600,110.600 43.600 C 110.933 43.600,111.200 43.956,111.200 44.400 C 111.200 44.840,111.380 45.200,111.600 45.200 C 111.820 45.200,112.000 45.470,112.000 45.800 C 112.000 46.130,112.180 46.400,112.400 46.400 C 112.620 46.400,112.800 46.760,112.800 47.200 C 112.800 47.640,112.980 48.000,113.200 48.000 C 113.420 48.000,113.600 48.360,113.600 48.800 C 113.600 49.240,113.780 49.600,114.000 49.600 C 114.220 49.600,114.400 49.960,114.400 50.400 C 114.400 50.840,114.580 51.200,114.800 51.200 C 115.020 51.200,115.200 51.470,115.200 51.800 C 115.200 52.130,115.470 52.400,115.800 52.400 C 116.133 52.400,116.400 52.756,116.400 53.200 C 116.400 53.640,116.580 54.000,116.800 54.000 C 117.020 54.000,117.200 54.360,117.200 54.800 C 117.200 55.240,117.380 55.600,117.600 55.600 C 117.820 55.600,118.000 55.926,118.000 56.325 C 118.000 56.723,118.360 57.436,118.800 57.908 C 119.240 58.380,119.600 59.044,119.600 59.383 C 119.600 59.722,119.780 60.000,120.000 60.000 C 120.220 60.000,120.400 60.294,120.400 60.654 C 120.400 61.014,120.850 61.725,121.400 62.235 C 121.950 62.745,122.400 63.440,122.400 63.781 C 122.400 64.121,122.580 64.400,122.800 64.400 C 123.020 64.400,123.200 64.760,123.200 65.200 C 123.200 65.989,122.933 66.000,104.600 66.000 L 86.000 66.000 86.000 67.125 C 86.000 67.743,86.360 68.636,86.800 69.108 C 87.240 69.580,87.600 70.244,87.600 70.583 C 87.600 70.922,87.780 71.200,88.000 71.200 C 88.220 71.200,88.400 71.560,88.400 72.000 C 88.400 72.444,88.667 72.800,89.000 72.800 C 89.358 72.800,89.600 73.168,89.600 73.712 C 89.600 74.213,89.960 74.883,90.400 75.200 C 90.840 75.517,91.200 76.097,91.200 76.488 C 91.200 76.880,91.380 77.200,91.600 77.200 C 91.820 77.200,92.000 77.526,92.000 77.925 C 92.000 78.323,92.360 79.036,92.800 79.508 C 93.240 79.980,93.600 80.644,93.600 80.983 C 93.600 81.322,93.870 81.600,94.200 81.600 C 94.533 81.600,94.800 81.956,94.800 82.400 C 94.800 82.840,94.980 83.200,95.200 83.200 C 95.420 83.200,95.600 83.610,95.600 84.112 C 95.600 84.613,95.960 85.283,96.400 85.600 C 96.840 85.917,97.200 86.497,97.200 86.888 C 97.200 87.280,97.380 87.600,97.600 87.600 C 97.820 87.600,98.000 87.842,98.000 88.139 C 98.000 89.046,99.237 91.216,100.040 91.718 C 100.458 91.979,100.800 92.509,100.800 92.896 C 100.800 93.283,100.980 93.600,101.200 93.600 C 101.420 93.600,101.600 94.010,101.600 94.512 C 101.600 95.013,101.960 95.683,102.400 96.000 C 102.840 96.317,103.200 96.897,103.200 97.288 C 103.200 97.680,103.380 98.000,103.600 98.000 C 103.820 98.000,104.000 98.268,104.000 98.595 C 104.000 100.951,100.737 100.800,151.489 100.800 C 181.963 100.800,197.600 100.936,197.600 101.200 C 197.600 101.443,199.400 101.600,202.200 101.600 C 205.000 101.600,206.800 101.757,206.800 102.000 C 206.800 102.226,207.933 102.400,209.400 102.400 C 210.867 102.400,212.000 102.574,212.000 102.800 C 212.000 103.020,212.810 103.200,213.800 103.200 C 214.790 103.200,215.600 103.380,215.600 103.600 C 215.600 103.820,216.410 104.000,217.400 104.000 C 218.390 104.000,219.200 104.180,219.200 104.400 C 219.200 104.620,219.901 104.800,220.757 104.800 C 221.772 104.800,222.395 105.009,222.545 105.400 C 222.679 105.751,223.279 106.000,223.987 106.000 C 224.654 106.000,225.200 106.180,225.200 106.400 C 225.200 106.620,225.740 106.800,226.400 106.800 C 227.060 106.800,227.600 106.980,227.600 107.200 C 227.600 107.420,228.230 107.600,229.000 107.600 C 229.770 107.600,230.400 107.780,230.400 108.000 C 230.400 108.220,230.760 108.400,231.200 108.400 C 231.640 108.400,232.000 108.580,232.000 108.800 C 232.000 109.020,232.540 109.200,233.200 109.200 C 233.860 109.200,234.400 109.380,234.400 109.600 C 234.400 109.820,234.850 110.000,235.400 110.000 C 236.022 110.000,236.400 110.227,236.400 110.600 C 236.400 110.933,236.756 111.200,237.200 111.200 C 237.640 111.200,238.000 111.380,238.000 111.600 C 238.000 111.820,238.360 112.000,238.800 112.000 C 239.240 112.000,239.600 112.180,239.600 112.400 C 239.600 112.620,240.050 112.800,240.600 112.800 C 241.150 112.800,241.600 112.980,241.600 113.200 C 241.600 113.420,241.960 113.600,242.400 113.600 C 242.840 113.600,243.200 113.780,243.200 114.000 C 243.200 114.220,243.560 114.400,244.000 114.400 C 244.440 114.400,244.800 114.580,244.800 114.800 C 244.800 115.020,245.070 115.200,245.400 115.200 C 245.730 115.200,246.000 115.380,246.000 115.600 C 246.000 115.820,246.360 116.000,246.800 116.000 C 247.244 116.000,247.600 116.267,247.600 116.600 C 247.600 116.930,247.920 117.200,248.312 117.200 C 248.703 117.200,249.283 117.560,249.600 118.000 C 249.917 118.440,250.547 118.800,251.000 118.800 C 251.453 118.800,252.083 119.160,252.400 119.600 C 252.717 120.040,253.219 120.400,253.515 120.400 C 253.811 120.400,254.648 121.030,255.374 121.800 C 256.100 122.570,256.910 123.200,257.173 123.200 C 257.437 123.200,258.529 124.100,259.600 125.200 C 260.671 126.300,261.733 127.200,261.959 127.200 C 262.489 127.200,272.400 137.057,272.400 137.584 C 272.400 137.803,273.390 138.973,274.600 140.183 C 275.810 141.393,276.800 142.590,276.800 142.844 C 276.800 143.098,277.430 143.900,278.200 144.626 C 278.970 145.352,279.600 146.189,279.600 146.485 C 279.600 146.781,279.960 147.283,280.400 147.600 C 280.840 147.917,281.200 148.547,281.200 149.000 C 281.200 149.453,281.560 150.083,282.000 150.400 C 282.440 150.717,282.800 151.297,282.800 151.688 C 282.800 152.080,283.070 152.400,283.400 152.400 C 283.733 152.400,284.000 152.756,284.000 153.200 C 284.000 153.640,284.180 154.000,284.400 154.000 C 284.620 154.000,284.800 154.270,284.800 154.600 C 284.800 154.930,284.980 155.200,285.200 155.200 C 285.420 155.200,285.600 155.560,285.600 156.000 C 285.600 156.440,285.780 156.800,286.000 156.800 C 286.220 156.800,286.400 157.160,286.400 157.600 C 286.400 158.040,286.580 158.400,286.800 158.400 C 287.020 158.400,287.200 158.749,287.200 159.176 C 287.200 159.603,287.380 160.064,287.600 160.200 C 287.820 160.336,288.000 160.719,288.000 161.052 C 288.000 161.385,288.225 161.908,288.500 162.215 C 289.777 163.638,290.000 164.021,290.000 164.783 C 290.000 165.232,290.180 165.600,290.400 165.600 C 290.620 165.600,290.800 166.140,290.800 166.800 C 290.800 167.460,290.980 168.000,291.200 168.000 C 291.420 168.000,291.600 168.360,291.600 168.800 C 291.600 169.240,291.780 169.600,292.000 169.600 C 292.220 169.600,292.400 170.230,292.400 171.000 C 292.400 171.770,292.580 172.400,292.800 172.400 C 293.020 172.400,293.200 172.940,293.200 173.600 C 293.200 174.260,293.380 174.800,293.600 174.800 C 293.820 174.800,294.000 175.346,294.000 176.013 C 294.000 176.721,294.249 177.321,294.600 177.455 C 294.942 177.587,295.200 178.183,295.200 178.843 C 295.200 179.479,295.380 180.000,295.600 180.000 C 295.820 180.000,296.000 180.810,296.000 181.800 C 296.000 182.790,296.180 183.600,296.400 183.600 C 296.620 183.600,296.800 184.590,296.800 185.800 C 296.800 187.010,296.980 188.000,297.200 188.000 C 297.420 188.000,297.600 188.889,297.600 189.976 C 297.600 191.063,297.780 192.064,298.000 192.200 C 298.221 192.337,298.400 194.137,298.400 196.224 C 298.400 198.475,298.562 200.000,298.800 200.000 C 299.053 200.000,299.200 202.867,299.200 207.800 C 299.200 212.733,299.053 215.600,298.800 215.600 C 298.561 215.600,298.400 217.133,298.400 219.400 C 298.400 221.667,298.239 223.200,298.000 223.200 C 297.774 223.200,297.600 224.333,297.600 225.800 C 297.600 227.267,297.426 228.400,297.200 228.400 C 296.980 228.400,296.800 229.210,296.800 230.200 C 296.800 231.190,296.620 232.000,296.400 232.000 C 296.180 232.000,296.000 232.810,296.000 233.800 C 296.000 234.790,295.820 235.600,295.600 235.600 C 295.380 235.600,295.200 236.301,295.200 237.157 C 295.200 238.172,294.991 238.795,294.600 238.945 C 294.249 239.079,294.000 239.679,294.000 240.387 C 294.000 241.054,293.820 241.600,293.600 241.600 C 293.380 241.600,293.200 242.140,293.200 242.800 C 293.200 243.460,293.020 244.000,292.800 244.000 C 292.580 244.000,292.400 244.450,292.400 245.000 C 292.400 245.550,292.220 246.000,292.000 246.000 C 291.780 246.000,291.600 246.540,291.600 247.200 C 291.600 247.860,291.420 248.400,291.200 248.400 C 290.980 248.400,290.800 248.760,290.800 249.200 C 290.800 249.640,290.620 250.000,290.400 250.000 C 290.180 250.000,290.000 250.450,290.000 251.000 C 290.000 251.550,289.865 252.001,289.700 252.003 C 289.242 252.006,288.000 254.365,288.000 255.232 C 288.000 255.655,287.820 256.000,287.600 256.000 C 287.380 256.000,287.200 256.270,287.200 256.600 C 287.200 256.930,287.020 257.200,286.800 257.200 C 286.580 257.200,286.400 257.560,286.400 258.000 C 286.400 258.440,286.220 258.800,286.000 258.800 C 285.780 258.800,285.600 259.160,285.600 259.600 C 285.600 260.040,285.420 260.400,285.200 260.400 C 284.980 260.400,284.800 260.741,284.800 261.158 C 284.800 261.575,284.353 262.340,283.807 262.858 C 283.261 263.376,282.811 264.025,282.807 264.300 C 282.803 264.575,282.620 264.800,282.400 264.800 C 282.180 264.800,282.000 265.078,282.000 265.417 C 282.000 265.756,281.640 266.420,281.200 266.892 C 280.760 267.364,280.396 268.032,280.391 268.375 C 280.387 268.719,279.757 269.538,278.991 270.196 C 278.226 270.854,277.600 271.619,277.600 271.896 C 277.600 272.173,277.420 272.400,277.200 272.400 C 276.980 272.400,276.800 272.598,276.800 272.840 C 276.800 273.081,276.260 273.783,275.600 274.400 C 274.940 275.017,274.400 275.720,274.400 275.962 C 274.400 276.205,272.870 277.927,271.000 279.789 C 269.130 281.650,267.600 283.359,267.600 283.587 C 267.600 283.814,267.414 284.000,267.187 284.000 C 266.959 284.000,265.250 285.530,263.389 287.400 C 261.527 289.270,259.805 290.800,259.562 290.800 C 259.320 290.800,258.617 291.340,258.000 292.000 C 257.383 292.660,256.614 293.200,256.290 293.200 C 255.967 293.200,255.164 293.830,254.506 294.600 C 253.848 295.370,253.015 296.000,252.655 296.000 C 252.295 296.000,252.000 296.180,252.000 296.400 C 252.000 296.620,251.730 296.800,251.400 296.800 C 251.070 296.800,250.800 296.980,250.800 297.200 C 250.800 297.420,250.480 297.600,250.088 297.600 C 249.697 297.600,249.117 297.960,248.800 298.400 C 248.483 298.840,247.903 299.200,247.512 299.200 C 247.120 299.200,246.800 299.470,246.800 299.800 C 246.800 300.158,246.432 300.400,245.888 300.400 C 245.387 300.400,244.717 300.760,244.400 301.200 C 244.083 301.640,243.503 302.000,243.112 302.000 C 242.720 302.000,242.400 302.180,242.400 302.400 C 242.400 302.620,242.040 302.800,241.600 302.800 C 241.160 302.800,240.800 302.980,240.800 303.200 C 240.800 303.420,240.350 303.600,239.800 303.600 C 239.250 303.600,238.800 303.780,238.800 304.000 C 238.800 304.220,238.440 304.400,238.000 304.400 C 237.560 304.400,237.200 304.580,237.200 304.800 C 237.200 305.020,236.874 305.200,236.476 305.200 C 236.079 305.200,235.404 305.464,234.976 305.787 C 234.549 306.110,233.885 306.380,233.500 306.387 C 233.115 306.394,232.800 306.580,232.800 306.800 C 232.800 307.020,232.440 307.200,232.000 307.200 C 231.560 307.200,231.200 307.380,231.200 307.600 C 231.200 307.820,230.570 308.000,229.800 308.000 C 229.030 308.000,228.400 308.180,228.400 308.400 C 228.400 308.620,227.860 308.800,227.200 308.800 C 226.540 308.800,226.000 308.980,226.000 309.200 C 226.000 309.420,225.471 309.600,224.824 309.600 C 224.177 309.600,223.536 309.780,223.400 310.000 C 223.264 310.220,222.708 310.400,222.164 310.400 C 221.620 310.400,221.071 310.670,220.945 311.000 C 220.788 311.407,220.150 311.600,218.957 311.600 C 217.991 311.600,217.200 311.780,217.200 312.000 C 217.200 312.220,216.480 312.400,215.600 312.400 C 214.720 312.400,214.000 312.580,214.000 312.800 C 214.000 313.026,212.867 313.200,211.400 313.200 C 209.933 313.200,208.800 313.374,208.800 313.600 C 208.800 313.831,207.533 314.000,205.800 314.000 C 204.067 314.000,202.800 314.169,202.800 314.400 C 202.800 314.664,190.400 314.800,166.400 314.800 L 130.000 314.800 130.000 236.200 L 130.000 157.600 79.000 157.600 L 28.000 157.600 28.000 287.027 L 28.000 416.455 120.267 416.327 C 193.634 416.226,212.568 416.098,212.700 415.700 C 212.818 415.347,213.971 415.200,216.610 415.200 C 218.674 415.200,220.464 415.021,220.600 414.800 C 220.736 414.580,222.102 414.400,223.636 414.400 C 225.746 414.400,226.481 414.254,226.655 413.800 C 226.821 413.369,227.494 413.200,229.043 413.200 C 230.229 413.200,231.200 413.020,231.200 412.800 C 231.200 412.580,232.190 412.400,233.400 412.400 C 234.610 412.400,235.600 412.220,235.600 412.000 C 235.600 411.780,236.500 411.600,237.600 411.600 C 238.700 411.600,239.600 411.420,239.600 411.200 C 239.600 410.980,240.410 410.800,241.400 410.800 C 242.390 410.800,243.200 410.620,243.200 410.400 C 243.200 410.180,243.909 410.000,244.776 410.000 C 245.643 410.000,246.464 409.820,246.600 409.600 C 246.736 409.380,247.472 409.200,248.236 409.200 C 249.102 409.200,249.712 408.974,249.855 408.600 C 249.997 408.230,250.605 408.000,251.443 408.000 C 252.189 408.000,252.800 407.820,252.800 407.600 C 252.800 407.380,253.340 407.200,254.000 407.200 C 254.660 407.200,255.200 407.020,255.200 406.800 C 255.200 406.580,255.830 406.400,256.600 406.400 C 257.370 406.400,258.000 406.220,258.000 406.000 C 258.000 405.780,258.540 405.600,259.200 405.600 C 259.860 405.600,260.400 405.420,260.400 405.200 C 260.400 404.980,261.030 404.800,261.800 404.800 C 262.570 404.800,263.200 404.620,263.200 404.400 C 263.200 404.180,263.740 404.000,264.400 404.000 C 265.060 404.000,265.600 403.820,265.600 403.600 C 265.600 403.380,266.028 403.200,266.551 403.200 C 267.074 403.200,267.726 402.930,268.000 402.600 C 268.274 402.270,268.836 402.000,269.249 402.000 C 269.662 402.000,270.000 401.820,270.000 401.600 C 270.000 401.380,270.540 401.200,271.200 401.200 C 271.860 401.200,272.400 401.020,272.400 400.800 C 272.400 400.580,272.850 400.400,273.400 400.400 C 273.950 400.400,274.400 400.220,274.400 400.000 C 274.400 399.780,274.760 399.600,275.200 399.600 C 275.640 399.600,276.000 399.420,276.000 399.200 C 276.000 398.980,276.540 398.800,277.200 398.800 C 277.860 398.800,278.400 398.620,278.400 398.400 C 278.400 398.180,278.766 398.000,279.213 398.000 C 279.659 398.000,280.129 397.730,280.255 397.400 C 280.382 397.070,280.826 396.800,281.243 396.800 C 281.659 396.800,282.000 396.620,282.000 396.400 C 282.000 396.180,282.450 396.000,283.000 396.000 C 283.550 396.000,284.000 395.820,284.000 395.600 C 284.000 395.380,284.360 395.200,284.800 395.200 C 285.240 395.200,285.600 395.020,285.600 394.800 C 285.600 394.580,285.960 394.400,286.400 394.400 C 286.840 394.400,287.200 394.220,287.200 394.000 C 287.200 393.780,287.560 393.600,288.000 393.600 C 288.440 393.600,288.800 393.420,288.800 393.200 C 288.800 392.980,289.166 392.800,289.613 392.800 C 290.059 392.800,290.529 392.530,290.655 392.200 C 290.782 391.870,291.226 391.600,291.643 391.600 C 292.059 391.600,292.400 391.420,292.400 391.200 C 292.400 390.980,292.760 390.800,293.200 390.800 C 293.640 390.800,294.000 390.620,294.000 390.400 C 294.000 390.180,294.270 390.000,294.600 390.000 C 294.930 390.000,295.200 389.820,295.200 389.600 C 295.200 389.380,295.560 389.200,296.000 389.200 C 296.440 389.200,296.800 389.020,296.800 388.800 C 296.800 388.580,297.083 388.400,297.429 388.400 C 298.147 388.400,299.200 387.466,299.200 386.829 C 299.200 386.593,299.650 386.400,300.200 386.400 C 300.750 386.400,301.200 386.220,301.200 386.000 C 301.200 385.780,301.520 385.600,301.912 385.600 C 302.303 385.600,302.883 385.240,303.200 384.800 C 303.517 384.360,304.097 384.000,304.488 384.000 C 304.880 384.000,305.200 383.820,305.200 383.600 C 305.200 383.380,305.470 383.200,305.800 383.200 C 306.130 383.200,306.400 383.020,306.400 382.800 C 306.400 382.580,306.683 382.400,307.029 382.400 C 307.747 382.400,308.800 381.466,308.800 380.829 C 308.800 380.593,309.160 380.400,309.600 380.400 C 310.040 380.400,310.400 380.220,310.400 380.000 C 310.400 379.780,310.670 379.600,311.000 379.600 C 311.330 379.600,311.600 379.420,311.600 379.200 C 311.600 378.980,311.920 378.800,312.312 378.800 C 312.703 378.800,313.283 378.440,313.600 378.000 C 313.917 377.560,314.431 377.200,314.741 377.200 C 315.052 377.200,315.900 376.570,316.626 375.800 C 317.352 375.030,318.156 374.400,318.413 374.400 C 318.669 374.400,319.383 373.860,320.000 373.200 C 320.617 372.540,321.319 372.000,321.560 372.000 C 321.802 372.000,322.000 371.820,322.000 371.600 C 322.000 371.380,322.207 371.200,322.460 371.200 C 322.713 371.200,323.685 370.390,324.620 369.400 C 325.556 368.410,326.564 367.594,326.860 367.587 C 327.409 367.575,329.600 365.830,329.600 365.406 C 329.600 365.049,332.330 362.400,332.698 362.400 C 332.877 362.400,333.283 362.040,333.600 361.600 C 333.917 361.160,334.329 360.800,334.514 360.800 C 334.903 360.800,337.825 358.031,342.273 353.447 C 343.471 352.211,344.620 351.200,344.826 351.200 C 345.032 351.200,345.200 350.840,345.200 350.400 C 345.200 349.960,345.380 349.600,345.600 349.600 C 345.820 349.600,346.000 349.414,346.000 349.187 C 346.000 348.704,348.623 346.000,349.092 346.000 C 349.267 346.000,349.768 345.520,350.205 344.934 C 350.642 344.348,351.225 343.641,351.500 343.363 C 351.775 343.085,352.005 342.619,352.011 342.329 C 352.017 342.038,352.827 341.096,353.811 340.235 C 354.795 339.374,355.600 338.415,355.600 338.104 C 355.600 337.792,356.320 336.846,357.200 336.000 C 358.080 335.154,358.800 334.265,358.800 334.024 C 358.800 333.783,359.430 332.974,360.200 332.226 C 360.970 331.479,361.600 330.621,361.600 330.322 C 361.600 330.022,361.960 329.517,362.400 329.200 C 362.840 328.883,363.200 328.290,363.200 327.883 C 363.200 327.072,364.094 326.000,364.771 326.000 C 365.007 326.000,365.200 325.680,365.200 325.288 C 365.200 324.897,365.560 324.317,366.000 324.000 C 366.440 323.683,366.800 323.103,366.800 322.712 C 366.800 322.320,366.980 322.000,367.200 322.000 C 367.420 322.000,367.600 321.730,367.600 321.400 C 367.600 321.070,367.780 320.800,368.000 320.800 C 368.220 320.800,368.400 320.480,368.400 320.088 C 368.400 319.697,368.760 319.117,369.200 318.800 C 369.640 318.483,370.000 317.922,370.000 317.554 C 370.000 317.187,370.270 316.782,370.600 316.655 C 370.930 316.529,371.200 316.099,371.200 315.701 C 371.200 315.303,371.560 314.717,372.000 314.400 C 372.440 314.083,372.800 313.503,372.800 313.112 C 372.800 312.720,372.980 312.400,373.200 312.400 C 373.420 312.400,373.600 311.950,373.600 311.400 C 373.600 310.850,373.780 310.400,374.000 310.400 C 374.220 310.400,374.400 310.080,374.400 309.688 C 374.400 309.297,374.769 308.712,375.219 308.388 C 376.092 307.762,377.200 305.832,377.200 304.939 C 377.200 304.642,377.380 304.400,377.600 304.400 C 377.820 304.400,378.000 304.040,378.000 303.600 C 378.000 303.160,378.180 302.800,378.400 302.800 C 378.620 302.800,378.800 302.440,378.800 302.000 C 378.800 301.560,378.980 301.200,379.200 301.200 C 379.420 301.200,379.600 300.750,379.600 300.200 C 379.600 299.650,379.780 299.200,380.000 299.200 C 380.220 299.200,380.400 298.840,380.400 298.400 C 380.400 297.960,380.567 297.600,380.771 297.600 C 381.297 297.600,382.400 295.256,382.400 294.139 C 382.400 293.622,382.580 293.200,382.800 293.200 C 383.020 293.200,383.200 292.840,383.200 292.400 C 383.200 291.960,383.380 291.600,383.600 291.600 C 383.820 291.600,384.000 291.251,384.000 290.824 C 384.000 290.397,384.180 289.936,384.400 289.800 C 384.620 289.664,384.800 289.203,384.800 288.776 C 384.800 288.349,384.980 288.000,385.200 288.000 C 385.420 288.000,385.600 287.479,385.600 286.843 C 385.600 286.183,385.858 285.587,386.200 285.455 C 386.551 285.321,386.800 284.721,386.800 284.013 C 386.800 283.346,386.980 282.800,387.200 282.800 C 387.420 282.800,387.600 282.440,387.600 282.000 C 387.600 281.560,387.780 281.200,388.000 281.200 C 388.220 281.200,388.400 280.671,388.400 280.024 C 388.400 279.377,388.580 278.736,388.800 278.600 C 389.020 278.464,389.200 277.823,389.200 277.176 C 389.200 276.529,389.380 276.000,389.600 276.000 C 389.820 276.000,390.000 275.460,390.000 274.800 C 390.000 274.140,390.180 273.600,390.400 273.600 C 390.620 273.600,390.800 272.970,390.800 272.200 C 390.800 271.430,390.980 270.800,391.200 270.800 C 391.420 270.800,391.600 270.279,391.600 269.643 C 391.600 268.983,391.858 268.387,392.200 268.255 C 392.596 268.103,392.800 267.477,392.800 266.413 C 392.800 265.526,392.980 264.800,393.200 264.800 C 393.420 264.800,393.600 264.170,393.600 263.400 C 393.600 262.630,393.780 262.000,394.000 262.000 C 394.220 262.000,394.400 261.280,394.400 260.400 C 394.400 259.520,394.580 258.800,394.800 258.800 C 395.020 258.800,395.200 257.990,395.200 257.000 C 395.200 256.010,395.380 255.200,395.600 255.200 C 395.820 255.200,396.000 254.210,396.000 253.000 C 396.000 251.790,396.180 250.800,396.400 250.800 C 396.620 250.800,396.800 249.919,396.800 248.843 C 396.800 247.472,396.980 246.817,397.400 246.655 C 397.841 246.486,398.000 245.791,398.000 244.036 C 398.000 242.722,398.180 241.536,398.400 241.400 C 398.620 241.264,398.800 239.939,398.800 238.456 C 398.800 236.833,398.999 235.561,399.300 235.260 C 400.031 234.529,400.031 180.344,399.300 180.100 C 398.960 179.987,398.800 178.984,398.800 176.967 C 398.800 175.256,398.631 174.000,398.400 174.000 C 398.178 174.000,398.000 172.929,398.000 171.587 C 398.000 169.812,397.842 169.114,397.400 168.945 C 396.981 168.784,396.800 168.131,396.800 166.781 C 396.800 165.717,396.620 164.736,396.400 164.600 C 396.180 164.464,396.000 163.463,396.000 162.376 C 396.000 161.289,395.820 160.400,395.600 160.400 C 395.380 160.400,395.200 159.590,395.200 158.600 C 395.200 157.610,395.020 156.800,394.800 156.800 C 394.580 156.800,394.400 156.091,394.400 155.224 C 394.400 154.357,394.220 153.536,394.000 153.400 C 393.780 153.264,393.600 152.623,393.600 151.976 C 393.600 151.329,393.420 150.800,393.200 150.800 C 392.980 150.800,392.800 150.074,392.800 149.187 C 392.800 148.123,392.596 147.497,392.200 147.345 C 391.858 147.213,391.600 146.617,391.600 145.957 C 391.600 145.321,391.420 144.800,391.200 144.800 C 390.980 144.800,390.800 144.170,390.800 143.400 C 390.800 142.630,390.620 142.000,390.400 142.000 C 390.180 142.000,390.000 141.460,390.000 140.800 C 390.000 140.140,389.820 139.600,389.600 139.600 C 389.380 139.600,389.200 138.970,389.200 138.200 C 389.200 137.430,389.020 136.800,388.800 136.800 C 388.580 136.800,388.400 136.260,388.400 135.600 C 388.400 134.940,388.220 134.400,388.000 134.400 C 387.780 134.400,387.600 134.040,387.600 133.600 C 387.600 133.160,387.420 132.800,387.200 132.800 C 386.980 132.800,386.800 132.254,386.800 131.587 C 386.800 130.879,386.551 130.279,386.200 130.145 C 385.870 130.018,385.600 129.574,385.600 129.157 C 385.600 128.741,385.420 128.400,385.200 128.400 C 384.980 128.400,384.800 127.770,384.800 127.000 C 384.800 126.230,384.620 125.600,384.400 125.600 C 384.180 125.600,384.000 125.240,384.000 124.800 C 384.000 124.360,383.820 124.000,383.600 124.000 C 383.380 124.000,383.200 123.640,383.200 123.200 C 383.200 122.760,383.020 122.400,382.800 122.400 C 382.580 122.400,382.400 121.965,382.400 121.432 C 382.400 120.410,381.209 118.007,380.700 118.003 C 380.535 118.001,380.400 117.640,380.400 117.200 C 380.400 116.760,380.220 116.400,380.000 116.400 C 379.780 116.400,379.600 115.950,379.600 115.400 C 379.600 114.850,379.420 114.400,379.200 114.400 C 378.980 114.400,378.800 114.040,378.800 113.600 C 378.800 113.160,378.620 112.800,378.400 112.800 C 378.180 112.800,378.000 112.440,378.000 112.000 C 378.000 111.560,377.820 111.200,377.600 111.200 C 377.380 111.200,377.200 110.958,377.200 110.661 C 377.200 109.768,376.092 107.838,375.219 107.212 C 374.769 106.888,374.400 106.213,374.400 105.712 C 374.400 105.210,374.220 104.800,374.000 104.800 C 373.780 104.800,373.600 104.440,373.600 104.000 C 373.600 103.560,373.420 103.200,373.200 103.200 C 372.980 103.200,372.800 102.880,372.800 102.488 C 372.800 102.097,372.440 101.517,372.000 101.200 C 371.560 100.883,371.200 100.297,371.200 99.899 C 371.200 99.501,370.930 99.071,370.600 98.945 C 370.270 98.818,370.000 98.413,370.000 98.046 C 370.000 97.678,369.640 97.117,369.200 96.800 C 368.760 96.483,368.400 95.903,368.400 95.512 C 368.400 95.120,368.220 94.800,368.000 94.800 C 367.780 94.800,367.600 94.530,367.600 94.200 C 367.600 93.870,367.420 93.600,367.200 93.600 C 366.980 93.600,366.800 93.280,366.800 92.888 C 366.800 92.497,366.440 91.917,366.000 91.600 C 365.560 91.283,365.200 90.787,365.200 90.499 C 365.200 90.211,364.930 89.871,364.600 89.745 C 364.270 89.618,364.000 89.264,364.000 88.957 C 364.000 88.651,363.820 88.400,363.600 88.400 C 363.380 88.400,363.200 88.112,363.200 87.760 C 363.200 87.409,362.660 86.617,362.000 86.000 C 361.340 85.383,360.800 84.614,360.800 84.290 C 360.800 83.967,360.170 83.164,359.400 82.506 C 358.630 81.848,358.000 81.104,358.000 80.851 C 358.000 80.599,357.460 79.828,356.800 79.137 C 356.140 78.446,355.600 77.686,355.600 77.447 C 355.600 77.209,354.610 76.085,353.400 74.949 C 352.190 73.814,351.200 72.588,351.200 72.225 C 351.200 71.605,349.519 69.600,349.000 69.600 C 348.697 69.600,346.800 67.710,346.800 67.408 C 346.800 67.002,343.235 63.600,342.811 63.600 C 342.585 63.600,342.400 63.240,342.400 62.800 C 342.400 62.360,342.220 62.000,342.000 62.000 C 341.780 62.000,341.600 61.814,341.600 61.587 C 341.600 61.049,338.951 58.400,338.413 58.400 C 338.186 58.400,338.000 58.220,338.000 58.000 C 338.000 57.780,337.640 57.600,337.200 57.600 C 336.760 57.600,336.400 57.415,336.400 57.189 C 336.400 56.765,332.998 53.200,332.592 53.200 C 332.290 53.200,330.400 51.303,330.400 51.000 C 330.400 50.481,328.395 48.800,327.775 48.800 C 327.412 48.800,326.186 47.810,325.051 46.600 C 323.915 45.390,322.765 44.400,322.493 44.400 C 322.222 44.400,322.000 44.220,322.000 44.000 C 322.000 43.780,321.770 43.600,321.488 43.600 C 321.207 43.600,320.717 43.240,320.400 42.800 C 320.083 42.360,319.568 42.000,319.257 42.000 C 318.945 42.000,318.152 41.370,317.494 40.600 C 316.836 39.830,316.033 39.200,315.710 39.200 C 315.386 39.200,314.617 38.660,314.000 38.000 C 313.383 37.340,312.591 36.800,312.240 36.800 C 311.888 36.800,311.600 36.620,311.600 36.400 C 311.600 36.180,311.412 36.000,311.183 36.000 C 310.747 36.000,310.204 35.600,308.599 34.100 C 308.070 33.605,307.358 33.200,307.018 33.200 C 306.678 33.200,306.400 33.020,306.400 32.800 C 306.400 32.580,306.130 32.400,305.800 32.400 C 305.470 32.400,305.200 32.220,305.200 32.000 C 305.200 31.780,304.880 31.600,304.488 31.600 C 304.097 31.600,303.517 31.240,303.200 30.800 C 302.883 30.360,302.322 30.000,301.954 30.000 C 301.587 30.000,301.182 29.730,301.055 29.400 C 300.929 29.070,300.499 28.800,300.101 28.800 C 299.703 28.800,299.117 28.440,298.800 28.000 C 298.483 27.560,297.903 27.200,297.512 27.200 C 297.120 27.200,296.800 27.020,296.800 26.800 C 296.800 26.580,296.440 26.400,296.000 26.400 C 295.560 26.400,295.200 26.220,295.200 26.000 C 295.200 25.780,294.750 25.600,294.200 25.600 C 293.650 25.600,293.200 25.420,293.200 25.200 C 293.200 24.980,292.840 24.800,292.400 24.800 C 291.960 24.800,291.600 24.595,291.600 24.344 C 291.600 23.729,290.365 22.828,289.500 22.813 C 289.115 22.806,288.800 22.620,288.800 22.400 C 288.800 22.180,288.440 22.000,288.000 22.000 C 287.560 22.000,287.200 21.820,287.200 21.600 C 287.200 21.380,286.840 21.200,286.400 21.200 C 285.960 21.200,285.600 21.020,285.600 20.800 C 285.600 20.580,285.150 20.400,284.600 20.400 C 284.050 20.400,283.600 20.220,283.600 20.000 C 283.600 19.780,283.317 19.600,282.971 19.600 C 282.626 19.600,282.073 19.330,281.743 19.000 C 281.413 18.670,280.796 18.400,280.371 18.400 C 279.947 18.400,279.600 18.220,279.600 18.000 C 279.600 17.780,279.150 17.600,278.600 17.600 C 278.050 17.600,277.600 17.420,277.600 17.200 C 277.600 16.980,277.240 16.800,276.800 16.800 C 276.360 16.800,276.000 16.620,276.000 16.400 C 276.000 16.180,275.640 16.000,275.200 16.000 C 274.760 16.000,274.400 15.820,274.400 15.600 C 274.400 15.380,273.770 15.200,273.000 15.200 C 272.230 15.200,271.600 15.020,271.600 14.800 C 271.600 14.580,271.317 14.400,270.971 14.400 C 270.626 14.400,270.073 14.130,269.743 13.800 C 269.413 13.470,268.706 13.200,268.171 13.200 C 267.637 13.200,267.200 13.020,267.200 12.800 C 267.200 12.580,266.840 12.400,266.400 12.400 C 265.960 12.400,265.600 12.220,265.600 12.000 C 265.600 11.780,265.060 11.600,264.400 11.600 C 263.740 11.600,263.200 11.420,263.200 11.200 C 263.200 10.980,262.570 10.800,261.800 10.800 C 261.030 10.800,260.400 10.620,260.400 10.400 C 260.400 10.180,259.860 10.000,259.200 10.000 C 258.540 10.000,258.000 9.820,258.000 9.600 C 258.000 9.380,257.370 9.200,256.600 9.200 C 255.830 9.200,255.200 9.020,255.200 8.800 C 255.200 8.580,254.679 8.400,254.043 8.400 C 253.383 8.400,252.787 8.142,252.655 7.800 C 252.503 7.404,251.877 7.200,250.813 7.200 C 249.926 7.200,249.200 7.020,249.200 6.800 C 249.200 6.580,248.390 6.400,247.400 6.400 C 246.410 6.400,245.600 6.220,245.600 6.000 C 245.600 5.780,245.060 5.600,244.400 5.600 C 243.740 5.600,243.200 5.420,243.200 5.200 C 243.200 4.980,242.210 4.800,241.000 4.800 C 239.790 4.800,238.800 4.620,238.800 4.400 C 238.800 4.180,237.990 4.000,237.000 4.000 C 236.010 4.000,235.200 3.820,235.200 3.600 C 235.200 3.380,234.377 3.200,233.371 3.200 C 232.279 3.200,231.301 2.958,230.943 2.600 C 230.559 2.216,229.571 2.000,228.195 2.000 C 227.014 2.000,225.936 1.820,225.800 1.600 C 225.664 1.380,224.339 1.200,222.856 1.200 C 221.233 1.200,219.961 1.001,219.660 0.700 C 218.817 -0.144,86.000 -0.265,86.000 0.578 M125.600 2.817 C 125.600 3.640,125.857 4.043,127.500 5.801 C 127.995 6.330,128.400 7.132,128.400 7.582 C 128.400 8.032,128.580 8.400,128.800 8.400 C 129.020 8.400,129.200 8.760,129.200 9.200 C 129.200 9.640,129.380 10.000,129.600 10.000 C 129.820 10.000,130.000 10.320,130.000 10.712 C 130.000 11.103,130.360 11.683,130.800 12.000 C 131.240 12.317,131.600 12.903,131.600 13.301 C 131.600 13.699,131.870 14.129,132.200 14.255 C 132.530 14.382,132.800 14.826,132.800 15.243 C 132.800 15.659,132.980 16.000,133.200 16.000 C 133.420 16.000,133.600 16.320,133.600 16.712 C 133.600 17.103,133.960 17.683,134.400 18.000 C 134.840 18.317,135.200 18.987,135.200 19.488 C 135.200 19.990,135.380 20.400,135.600 20.400 C 135.820 20.400,136.000 20.678,136.000 21.018 C 136.000 21.358,136.450 22.086,137.000 22.636 C 137.550 23.186,138.000 23.898,138.000 24.218 C 138.000 24.538,138.180 24.800,138.400 24.800 C 138.620 24.800,138.800 25.160,138.800 25.600 C 138.800 26.040,138.980 26.400,139.200 26.400 C 139.420 26.400,139.600 26.720,139.600 27.112 C 139.600 27.503,139.960 28.083,140.400 28.400 C 140.840 28.717,141.200 29.387,141.200 29.888 C 141.200 30.390,141.380 30.800,141.600 30.800 C 141.820 30.800,142.000 31.160,142.000 31.600 C 142.000 32.387,141.733 32.400,125.200 32.400 C 108.667 32.400,108.400 32.387,108.400 31.600 C 108.400 31.160,108.580 30.800,108.800 30.800 C 109.020 30.800,109.200 30.530,109.200 30.200 C 109.200 29.870,109.380 29.600,109.600 29.600 C 109.820 29.600,110.000 29.259,110.000 28.843 C 110.000 28.426,110.270 27.982,110.600 27.855 C 110.930 27.729,111.200 27.349,111.200 27.013 C 111.200 26.676,111.380 26.400,111.600 26.400 C 111.820 26.400,112.000 26.040,112.000 25.600 C 112.000 25.160,112.180 24.800,112.400 24.800 C 112.620 24.800,112.800 24.530,112.800 24.200 C 112.800 23.870,112.980 23.600,113.200 23.600 C 113.420 23.600,113.600 23.240,113.600 22.800 C 113.600 22.360,113.780 22.000,114.000 22.000 C 114.220 22.000,114.400 21.640,114.400 21.200 C 114.400 20.760,114.580 20.400,114.800 20.400 C 115.020 20.400,115.200 19.993,115.200 19.495 C 115.200 18.996,115.649 18.253,116.200 17.839 C 116.750 17.426,117.200 16.843,117.200 16.544 C 117.200 16.245,117.380 16.000,117.600 16.000 C 117.820 16.000,118.000 15.640,118.000 15.200 C 118.000 14.760,118.180 14.400,118.400 14.400 C 118.620 14.400,118.800 13.990,118.800 13.488 C 118.800 12.987,119.160 12.317,119.600 12.000 C 120.040 11.683,120.400 11.103,120.400 10.712 C 120.400 10.320,120.580 10.000,120.800 10.000 C 121.020 10.000,121.200 9.721,121.200 9.381 C 121.200 9.040,121.650 8.345,122.200 7.835 C 122.750 7.325,123.200 6.614,123.200 6.254 C 123.200 5.894,123.380 5.600,123.600 5.600 C 123.820 5.600,124.000 5.240,124.000 4.800 C 124.000 4.360,124.180 4.000,124.400 4.000 C 124.620 4.000,124.800 3.550,124.800 3.000 C 124.800 2.450,124.980 2.000,125.200 2.000 C 125.420 2.000,125.600 2.368,125.600 2.817 M47.200 7.305 C 47.200 7.804,46.751 8.547,46.200 8.961 C 45.650 9.374,45.200 9.957,45.200 10.256 C 45.200 10.555,45.020 10.800,44.800 10.800 C 44.580 10.800,44.400 11.160,44.400 11.600 C 44.400 12.040,44.220 12.400,44.000 12.400 C 43.780 12.400,43.600 12.810,43.600 13.312 C 43.600 13.813,43.240 14.483,42.800 14.800 C 42.360 15.117,42.000 15.697,42.000 16.088 C 42.000 16.480,41.820 16.800,41.600 16.800 C 41.380 16.800,41.200 17.141,41.200 17.557 C 41.200 17.974,40.930 18.418,40.600 18.545 C 40.270 18.671,40.000 19.101,40.000 19.499 C 40.000 19.897,39.640 20.483,39.200 20.800 C 38.760 21.117,38.400 21.697,38.400 22.088 C 38.400 22.480,38.220 22.800,38.000 22.800 C 37.780 22.800,37.600 23.250,37.600 23.800 C 37.600 24.350,37.420 24.800,37.200 24.800 C 36.980 24.800,36.800 25.078,36.800 25.418 C 36.800 25.758,36.350 26.486,35.800 27.036 C 34.805 28.032,34.580 28.961,35.043 30.167 C 35.257 30.726,36.814 30.800,48.443 30.800 L 61.600 30.800 61.600 29.088 C 61.600 27.835,61.386 27.222,60.800 26.800 C 60.360 26.483,60.000 25.903,60.000 25.512 C 60.000 25.120,59.820 24.800,59.600 24.800 C 59.380 24.800,59.200 24.350,59.200 23.800 C 59.200 23.250,59.020 22.800,58.800 22.800 C 58.580 22.800,58.400 22.517,58.400 22.171 C 58.400 21.453,57.466 20.400,56.829 20.400 C 56.593 20.400,56.400 19.950,56.400 19.400 C 56.400 18.850,56.220 18.400,56.000 18.400 C 55.780 18.400,55.600 18.080,55.600 17.688 C 55.600 17.297,55.240 16.717,54.800 16.400 C 54.360 16.083,54.000 15.503,54.000 15.112 C 54.000 14.720,53.820 14.400,53.600 14.400 C 53.380 14.400,53.200 13.950,53.200 13.400 C 53.200 12.850,53.064 12.400,52.898 12.400 C 52.731 12.400,52.356 11.860,52.064 11.200 C 51.772 10.540,51.278 10.000,50.966 10.000 C 50.655 10.000,50.400 9.640,50.400 9.200 C 50.400 8.760,50.220 8.400,50.000 8.400 C 49.780 8.400,49.600 7.950,49.600 7.400 C 49.600 6.556,49.413 6.400,48.400 6.400 C 47.420 6.400,47.200 6.566,47.200 7.305 M8.900 10.598 C 8.625 10.911,8.400 11.425,8.400 11.740 C 8.400 12.056,8.130 12.418,7.800 12.545 C 7.470 12.671,7.200 13.101,7.200 13.499 C 7.200 13.897,6.840 14.483,6.400 14.800 C 5.960 15.117,5.600 15.697,5.600 16.088 C 5.600 16.480,5.420 16.800,5.200 16.800 C 4.980 16.800,4.800 17.160,4.800 17.600 C 4.800 18.040,4.620 18.400,4.400 18.400 C 4.180 18.400,4.000 18.670,4.000 19.000 C 4.000 19.330,3.820 19.600,3.600 19.600 C 3.380 19.600,3.200 19.941,3.200 20.357 C 3.200 20.774,2.930 21.218,2.600 21.345 C 2.270 21.471,2.000 21.851,2.000 22.187 C 2.000 22.524,1.820 22.800,1.600 22.800 C 1.380 22.800,1.200 23.173,1.200 23.629 C 1.200 24.084,0.930 24.727,0.600 25.057 C 0.270 25.387,0.000 26.364,0.000 27.229 L 0.000 28.800 10.200 28.800 L 20.400 28.800 20.400 27.600 C 20.400 26.940,20.220 26.400,20.000 26.400 C 19.780 26.400,19.600 26.040,19.600 25.600 C 19.600 25.156,19.333 24.800,19.000 24.800 C 18.627 24.800,18.400 24.422,18.400 23.800 C 18.400 23.250,18.220 22.800,18.000 22.800 C 17.780 22.800,17.600 22.480,17.600 22.088 C 17.600 21.697,17.240 21.117,16.800 20.800 C 16.360 20.483,16.000 19.914,16.000 19.535 C 16.000 19.157,15.820 18.736,15.600 18.600 C 15.380 18.464,15.200 18.003,15.200 17.576 C 15.200 17.149,15.020 16.800,14.800 16.800 C 14.580 16.800,14.400 16.555,14.400 16.256 C 14.400 15.957,13.950 15.374,13.400 14.961 C 12.849 14.547,12.400 13.804,12.400 13.305 C 12.400 12.807,12.220 12.400,12.000 12.400 C 11.780 12.400,11.600 12.117,11.600 11.771 C 11.600 10.308,9.832 9.540,8.900 10.598 M70.560 34.400 C 70.087 34.873,70.328 37.600,70.844 37.600 C 71.040 37.600,71.200 37.960,71.200 38.400 C 71.200 38.840,71.380 39.200,71.600 39.200 C 71.820 39.200,72.000 39.479,72.000 39.819 C 72.000 40.160,72.450 40.855,73.000 41.365 C 73.550 41.875,74.000 42.586,74.000 42.946 C 74.000 43.306,74.180 43.600,74.400 43.600 C 74.620 43.600,74.800 43.960,74.800 44.400 C 74.800 44.840,74.980 45.200,75.200 45.200 C 75.420 45.200,75.600 45.526,75.600 45.925 C 75.600 46.323,75.960 47.036,76.400 47.508 C 76.840 47.980,77.200 48.567,77.200 48.812 C 77.200 49.057,77.425 49.508,77.700 49.815 C 78.887 51.138,79.200 51.591,79.200 51.983 C 79.200 52.212,79.380 52.400,79.600 52.400 C 79.820 52.400,80.000 52.760,80.000 53.200 C 80.000 53.640,80.180 54.000,80.400 54.000 C 80.620 54.000,80.800 54.360,80.800 54.800 C 80.800 55.240,80.980 55.600,81.200 55.600 C 81.420 55.600,81.600 55.926,81.600 56.325 C 81.600 56.723,81.960 57.436,82.400 57.908 C 82.840 58.380,83.200 59.044,83.200 59.383 C 83.200 59.722,83.470 60.000,83.800 60.000 C 84.133 60.000,84.400 60.356,84.400 60.800 C 84.400 61.240,84.580 61.600,84.800 61.600 C 85.020 61.600,85.200 62.050,85.200 62.600 C 85.200 63.500,85.360 63.600,86.800 63.600 C 88.221 63.600,88.400 63.493,88.400 62.643 C 88.400 62.116,88.670 61.582,89.000 61.455 C 89.330 61.329,89.600 60.949,89.600 60.613 C 89.600 60.276,89.780 60.000,90.000 60.000 C 90.220 60.000,90.400 59.722,90.400 59.383 C 90.400 59.044,90.760 58.380,91.200 57.908 C 91.640 57.436,92.000 56.723,92.000 56.325 C 92.000 55.926,92.180 55.600,92.400 55.600 C 92.620 55.600,92.800 55.240,92.800 54.800 C 92.800 54.360,92.980 54.000,93.200 54.000 C 93.420 54.000,93.600 53.640,93.600 53.200 C 93.600 52.760,93.805 52.400,94.056 52.400 C 94.671 52.400,95.572 51.165,95.587 50.300 C 95.594 49.915,95.780 49.600,96.000 49.600 C 96.220 49.600,96.400 49.322,96.400 48.983 C 96.400 48.644,96.760 47.980,97.200 47.508 C 97.640 47.036,98.000 46.323,98.000 45.925 C 98.000 45.526,98.180 45.200,98.400 45.200 C 98.620 45.200,98.800 44.840,98.800 44.400 C 98.800 43.960,98.980 43.600,99.200 43.600 C 99.420 43.600,99.600 43.240,99.600 42.800 C 99.600 42.356,99.867 42.000,100.200 42.000 C 100.530 42.000,100.800 41.730,100.800 41.400 C 100.800 41.070,100.980 40.800,101.200 40.800 C 101.420 40.800,101.600 40.440,101.600 40.000 C 101.600 39.560,101.780 39.200,102.000 39.200 C 102.220 39.200,102.400 38.840,102.400 38.400 C 102.400 37.960,102.560 37.600,102.756 37.600 C 103.272 37.600,103.513 34.873,103.040 34.400 C 102.494 33.854,71.106 33.854,70.560 34.400 M28.000 40.575 C 28.000 40.919,27.820 41.200,27.600 41.200 C 27.380 41.200,27.200 41.520,27.200 41.912 C 27.200 42.303,26.840 42.883,26.400 43.200 C 25.960 43.517,25.600 44.097,25.600 44.488 C 25.600 44.880,25.420 45.200,25.200 45.200 C 24.980 45.200,24.800 45.650,24.800 46.200 C 24.800 46.822,24.573 47.200,24.200 47.200 C 23.870 47.200,23.600 47.520,23.600 47.912 C 23.600 48.303,23.240 48.883,22.800 49.200 C 22.360 49.517,22.000 50.187,22.000 50.688 C 22.000 51.190,21.820 51.600,21.600 51.600 C 21.380 51.600,21.200 51.920,21.200 52.312 C 21.200 52.703,20.840 53.283,20.400 53.600 C 19.960 53.917,19.600 54.478,19.600 54.846 C 19.600 55.213,19.330 55.618,19.000 55.745 C 18.670 55.871,18.400 56.341,18.400 56.787 C 18.400 57.234,18.220 57.600,18.000 57.600 C 17.780 57.600,17.600 57.920,17.600 58.312 C 17.600 58.703,17.240 59.283,16.800 59.600 C 16.360 59.917,16.000 60.572,16.000 61.055 C 16.000 61.538,15.788 62.004,15.528 62.091 C 15.265 62.178,15.171 62.547,15.315 62.924 C 15.552 63.540,16.776 63.600,29.187 63.600 L 42.800 63.600 42.800 62.475 C 42.800 61.857,42.440 60.964,42.000 60.492 C 41.560 60.020,41.200 59.356,41.200 59.017 C 41.200 58.678,40.930 58.400,40.600 58.400 C 40.267 58.400,40.000 58.044,40.000 57.600 C 40.000 57.160,39.820 56.800,39.600 56.800 C 39.380 56.800,39.200 56.390,39.200 55.888 C 39.200 55.387,38.840 54.717,38.400 54.400 C 37.960 54.083,37.600 53.503,37.600 53.112 C 37.600 52.720,37.420 52.400,37.200 52.400 C 36.980 52.400,36.794 52.085,36.787 51.700 C 36.772 50.835,35.871 49.600,35.256 49.600 C 35.005 49.600,34.800 49.240,34.800 48.800 C 34.800 48.360,34.620 48.000,34.400 48.000 C 34.180 48.000,34.000 47.640,34.000 47.200 C 34.000 46.760,33.820 46.400,33.600 46.400 C 33.380 46.400,33.200 45.990,33.200 45.488 C 33.200 44.987,32.840 44.317,32.400 44.000 C 31.960 43.683,31.600 43.103,31.600 42.712 C 31.600 42.320,31.433 42.000,31.228 42.000 C 31.023 42.000,30.798 41.595,30.728 41.100 C 30.570 39.986,28.000 39.491,28.000 40.575 M161.200 68.800 C 161.200 69.240,161.020 69.600,160.800 69.600 C 160.580 69.600,160.400 69.960,160.400 70.400 C 160.400 70.840,160.220 71.200,160.000 71.200 C 159.780 71.200,159.600 71.462,159.600 71.782 C 159.600 72.102,159.150 72.814,158.600 73.364 C 158.050 73.914,157.600 74.642,157.600 74.982 C 157.600 75.322,157.420 75.600,157.200 75.600 C 156.980 75.600,156.800 75.960,156.800 76.400 C 156.800 76.840,156.620 77.200,156.400 77.200 C 156.180 77.200,156.000 77.610,156.000 78.112 C 156.000 78.613,155.640 79.283,155.200 79.600 C 154.760 79.917,154.400 80.497,154.400 80.888 C 154.400 81.280,154.130 81.600,153.800 81.600 C 153.470 81.600,153.200 81.949,153.200 82.376 C 153.200 82.803,153.020 83.264,152.800 83.400 C 152.580 83.536,152.400 83.957,152.400 84.335 C 152.400 84.714,152.040 85.283,151.600 85.600 C 151.160 85.917,150.800 86.497,150.800 86.888 C 150.800 87.280,150.620 87.600,150.400 87.600 C 150.180 87.600,150.000 88.007,150.000 88.505 C 150.000 89.004,149.551 89.747,149.000 90.161 C 148.450 90.574,148.000 91.157,148.000 91.456 C 148.000 91.755,147.820 92.000,147.600 92.000 C 147.380 92.000,147.200 92.360,147.200 92.800 C 147.200 93.240,147.020 93.600,146.800 93.600 C 146.580 93.600,146.400 93.968,146.400 94.418 C 146.400 94.868,145.958 95.678,145.418 96.218 C 144.300 97.337,144.000 97.429,144.000 96.656 C 144.000 96.357,143.550 95.774,143.000 95.361 C 142.449 94.947,142.000 94.204,142.000 93.705 C 142.000 93.207,141.820 92.800,141.600 92.800 C 141.380 92.800,141.200 92.440,141.200 92.000 C 141.200 91.560,141.020 91.200,140.800 91.200 C 140.580 91.200,140.400 90.840,140.400 90.400 C 140.400 89.960,140.220 89.600,140.000 89.600 C 139.780 89.600,139.600 89.330,139.600 89.000 C 139.600 88.670,139.420 88.400,139.200 88.400 C 138.980 88.400,138.800 88.040,138.800 87.600 C 138.800 87.156,138.533 86.800,138.200 86.800 C 137.867 86.800,137.600 86.444,137.600 86.000 C 137.600 85.560,137.420 85.200,137.200 85.200 C 136.980 85.200,136.800 84.874,136.800 84.475 C 136.800 84.077,136.440 83.364,136.000 82.892 C 135.560 82.420,135.200 81.756,135.200 81.417 C 135.200 81.078,135.020 80.800,134.800 80.800 C 134.580 80.800,134.400 80.440,134.400 80.000 C 134.400 79.560,134.241 79.200,134.046 79.200 C 133.851 79.200,133.392 78.570,133.027 77.800 C 132.661 77.030,132.191 76.400,131.981 76.400 C 131.772 76.400,131.600 76.040,131.600 75.600 C 131.600 75.160,131.420 74.800,131.200 74.800 C 130.980 74.800,130.800 74.440,130.800 74.000 C 130.800 73.560,130.620 73.200,130.400 73.200 C 130.180 73.200,130.000 72.930,130.000 72.600 C 130.000 72.270,129.820 72.000,129.600 72.000 C 129.380 72.000,129.200 71.640,129.200 71.200 C 129.200 70.760,129.020 70.400,128.800 70.400 C 128.580 70.400,128.400 70.040,128.400 69.600 C 128.400 69.160,128.220 68.800,128.000 68.800 C 127.780 68.800,127.600 68.620,127.600 68.400 C 127.600 68.140,133.467 68.000,144.400 68.000 C 160.933 68.000,161.200 68.013,161.200 68.800 M54.000 70.800 C 54.000 71.460,54.180 72.000,54.400 72.000 C 54.620 72.000,54.800 72.242,54.800 72.539 C 54.800 73.446,56.037 75.616,56.840 76.118 C 57.258 76.379,57.600 76.909,57.600 77.296 C 57.600 77.683,57.780 78.000,58.000 78.000 C 58.220 78.000,58.400 78.450,58.400 79.000 C 58.400 79.550,58.580 80.000,58.800 80.000 C 59.020 80.000,59.200 80.320,59.200 80.712 C 59.200 81.103,59.560 81.683,60.000 82.000 C 60.440 82.317,60.800 82.813,60.800 83.102 C 60.800 83.756,61.942 85.584,62.890 86.447 C 63.280 86.803,63.600 87.388,63.600 87.747 C 63.600 88.106,63.780 88.400,64.000 88.400 C 64.220 88.400,64.400 88.850,64.400 89.400 C 64.400 89.950,64.580 90.400,64.800 90.400 C 65.020 90.400,65.200 90.678,65.200 91.018 C 65.200 91.358,65.642 92.078,66.182 92.618 C 67.345 93.782,68.800 93.932,68.800 92.888 C 68.800 92.497,69.160 91.917,69.600 91.600 C 70.040 91.283,70.400 90.703,70.400 90.312 C 70.400 89.920,70.580 89.600,70.800 89.600 C 71.020 89.600,71.200 89.216,71.200 88.747 C 71.200 88.278,71.520 87.603,71.910 87.247 C 72.907 86.339,74.000 84.544,74.000 83.814 C 74.000 83.476,74.180 83.200,74.400 83.200 C 74.620 83.200,74.800 82.880,74.800 82.488 C 74.800 82.097,75.160 81.517,75.600 81.200 C 76.040 80.883,76.400 80.303,76.400 79.912 C 76.400 79.520,76.580 79.200,76.800 79.200 C 77.020 79.200,77.200 78.750,77.200 78.200 C 77.200 77.650,77.380 77.200,77.600 77.200 C 77.820 77.200,78.000 76.840,78.000 76.400 C 78.000 75.960,78.205 75.600,78.456 75.600 C 79.071 75.600,79.972 74.365,79.987 73.500 C 79.994 73.115,80.180 72.800,80.400 72.800 C 80.620 72.800,80.800 72.440,80.800 72.000 C 80.800 71.560,80.980 71.200,81.200 71.200 C 81.420 71.200,81.600 70.840,81.600 70.400 C 81.600 69.615,81.333 69.600,67.800 69.600 L 54.000 69.600 54.000 70.800 " stroke="none" fill="currentColor" fill-rule="evenodd"></path><path id="path1" d="" stroke="none" fill="currentColor" fill-rule="evenodd"></path></g></svg>