<svg viewBox="0 0 460 462" fill="none" xmlns="http://www.w3.org/2000/svg">
    <path
        d="M176.5 0.899987C172 1.99999 169.6 3.49999 166.2 7.39999C162 12.2 161 16.5 161 29.2V40H144.4C134.9 40 127 40.4 125.9 41C124.2 41.9 124 43.2 124 51.5V61H74.2C32.9 61 23.5 61.3 19.3 62.5C12.8 64.4 5.4 71 2.4 77.5L0 82.5V219.6V356.6L2.6 361.8C5.5 367.6 10.5 372.4 16.4 375.1C20.3 376.9 24.9 377 102.8 377C184.7 377 185 377 185 379C185 382.5 181.3 391.7 177.9 396.7C173.7 402.7 166.3 410 158.6 415.6C153.1 419.6 152.1 420 146.5 420C133.4 420 125 427.4 124.2 439.5C123.7 446.5 125.2 450.4 130.3 455.8C136.4 462.1 134.2 462 230 462C325.8 462 323.6 462.1 329.7 455.8C334.8 450.4 336.3 446.5 335.8 439.5C335 427.4 326.6 420 313.4 420C307.6 420 307 419.7 300.4 414.8C291.9 408.3 286.4 402.9 282.1 396.7C278.7 391.7 275 382.6 275 379C275 377 275.6 377 358.3 376.8L441.7 376.5L446.5 373.5C452.2 370 457.5 363.5 459 358.2C459.6 355.7 460 309.1 460 218.5V82.5L457.6 77.5C454.6 71 447.2 64.4 440.7 62.5C436.5 61.3 427.1 61 385.8 61H336V51.5C336 43.2 335.8 41.9 334.1 41C333 40.4 325.1 40 315.6 40H299V29.2C299 16.5 298 12.2 293.8 7.39999C287.4 0.199987 290.4 0.499987 232 0.299987C203.1 0.199987 178.2 0.499987 176.5 0.899987ZM285.5 13.5C287.7 15.6 288 16.8 288 23.8C288 32.5 286.5 35.6 281 38.5C276.7 40.7 183.3 40.7 179 38.5C173.5 35.6 172 32.5 172 23.8C172 16.8 172.3 15.6 174.5 13.5L176.9 11H230H283.1L285.5 13.5ZM326 68.8V87.7L301.4 95C287.9 99 276.2 103 275.4 103.7C274.2 104.9 274 112 274 144.6V184H230H186V144.6C186 100.9 186.3 103 179.3 101.1C177.3 100.5 166.3 97.3 154.8 93.9L134 87.6V68.8V50H230H326V68.8ZM123.8 82.4C123.9 88.5 124.6 94 125.2 94.7C125.7 95.4 128.1 96.5 130.4 97.2C132.6 97.8 135.1 98.8 135.8 99.3C136.7 100 137 105.5 137 120.9C137 141.1 137 141.6 139.4 145.1C145.7 154.4 158.3 154.1 165.4 144.6C167.3 142.1 167.5 140.2 167.8 125.4L168.2 108.9L171.3 109.6C173.1 109.9 174.8 110.4 175.3 110.7C175.7 110.9 176 129.1 176 151C176 185.9 176.2 191.1 177.6 192.4C178.9 193.7 181.9 194 194.6 194H210L209.8 248.2L209.5 302.5H112.2H14.8L12.4 299.7L10 296.9V190.7V84.5L12.3 80.6C14.9 75.9 18.5 73.1 23.1 72C25 71.6 48.3 71.3 75 71.3L123.5 71.5L123.8 82.4ZM441.8 74.3C444.1 75.8 446.9 78.8 448 81C450 84.9 450 86.5 450 190.9V296.9L447.6 299.7L445.2 302.5H347.8H250.5L250.2 248.2L250 194H265.4C278.1 194 281.1 193.7 282.4 192.4C283.8 191.1 284 185.9 284 151C284 129.1 284.3 110.9 284.8 110.7C285.2 110.4 287 109.9 288.8 109.5L292 108.8V123.7C292 137.2 292.2 139 294.3 143C297.2 148.7 300.7 151.2 306.7 151.7C312.5 152.2 317.4 149.9 320.8 145C322.9 141.8 323 140.8 323 120.8V99.9L326.8 98.4C335.9 94.9 335.5 95.6 335.8 84C335.9 78.2 336.2 72.9 336.5 72.2C336.9 71.2 346.8 71 387.3 71.2L437.6 71.5L441.8 74.3ZM240 248.5V303H230H220V248.5V194H230H240V248.5ZM54.5 322.4C56.6 323.5 59.8 326.5 61.5 328.8C64.1 332.6 64.5 334 64.5 340C64.5 346 64.1 347.4 61.5 351.2C52 364.6 31.8 362.7 25.5 347.8C18.1 330 37.3 313.1 54.5 322.4ZM393.8 348.2C395.5 349.9 395.3 353.6 393.4 355.4C392.1 356.8 386.8 357 350.8 357C313.9 357 309.5 356.8 307.8 355.3C305.8 353.5 305.5 351.7 307 348.9C308 347.1 309.6 347 350.3 347C381.9 347 392.9 347.3 393.8 348.2ZM436.4 348.6C438.4 350.5 438.4 352 436.4 354.8C434.9 356.9 434.3 357 419.5 357C404.7 357 404.1 356.9 402.6 354.8C400.6 352 400.6 350.5 402.6 348.6C404.9 346.3 434.1 346.3 436.4 348.6ZM265.1 382.7C266.6 390 269.7 397.2 274.4 404C276.4 406.9 278 410.1 278 411.1C278 414.2 275.9 417.7 273.3 418.9C271.7 419.6 257.8 420 230 420C202.2 420 188.3 419.6 186.7 418.9C184.1 417.7 182 414.2 182 411.1C182 410.1 183.6 406.9 185.6 404C190.3 397.2 193.4 390 194.9 382.7L196.1 377H230H263.9L265.1 382.7Z"
        fill="url(#paint0_linear_336_10)" />
    <path
        d="M225 65.1C219 66.3 213.2 70.5 209.5 76.5C206.9 80.6 206.5 82.3 206.5 87.9C206.6 104.8 220.9 115.4 237.5 110.9C243.6 109.2 251.4 100.8 253 94.1C256.1 80.9 248.2 68.1 235 65.1C232.5 64.5 230.3 64.1 230 64.1C229.7 64.2 227.5 64.6 225 65.1Z"
        fill="url(#paint1_linear_336_10)" />
    <path
        d="M207.6 143.6C205.6 145.6 205.6 148.4 207.6 150.4C208.9 151.8 212.4 152 230 152C252.2 152 254 151.6 254 147C254 142.4 252.2 142 230 142C212.4 142 208.9 142.2 207.6 143.6Z"
        fill="url(#paint2_linear_336_10)" />
    <path
        d="M207.5 161C206 162.6 205.8 163.6 206.6 165.8L207.5 168.5H230H252.5L253.4 165.8C254.2 163.6 254 162.6 252.5 161C250.8 159.1 249.5 159 230 159C210.5 159 209.2 159.1 207.5 161Z"
        fill="url(#paint3_linear_336_10)" />
    <path
        d="M30.6 203.6C28.4 205.7 28.6 208.3 31 210.5C35.4 214.5 41.7 208 37.9 203.4C36.4 201.5 32.5 201.6 30.6 203.6Z"
        fill="url(#paint4_linear_336_10)" />
    <path
        d="M44.4 204.5C42.9 206.8 42.9 207.2 44.4 209.5L46 212H79H112L113.6 209.5C115.1 207.2 115.1 206.8 113.6 204.5L112 202H79H46L44.4 204.5Z"
        fill="url(#paint5_linear_336_10)" />
    <path
        d="M30.1 224.9C28.5 227.8 28.7 229.5 31 231.5C35.1 235.2 41.2 229.8 38.3 225.1C36.7 222.6 31.4 222.5 30.1 224.9Z"
        fill="url(#paint6_linear_336_10)" />
    <path
        d="M44.6 224.6C42.6 226.5 42.6 228 44.6 230.8C46.1 233 46.1 233 79 233H112L113.6 230.5C115.1 228.2 115.1 227.8 113.6 225.5L112 223H79C50.5 223 45.9 223.2 44.6 224.6Z"
        fill="url(#paint7_linear_336_10)" />
    <path
        d="M29.8 246.4C28.4 249.5 29.3 251.7 32.5 253.2C34.6 254.1 35.3 254 37 252.5C40.9 249 39 244 33.8 244C31.8 244 30.6 244.7 29.8 246.4Z"
        fill="url(#paint8_linear_336_10)" />
    <path
        d="M44 245.9C42.6 248.7 42.7 249.7 45 252C46.9 253.9 48.3 254 78.6 254C97.1 254 110.9 253.6 111.9 253C114.4 251.7 115.1 249.5 114 246.5L113 244H79.1C46.5 244 45 244.1 44 245.9Z"
        fill="url(#paint9_linear_336_10)" />
    <path
        d="M31.2 265.6C28.2 267.7 28.3 271.5 31.5 273.6C33.8 275.1 34.2 275.1 36.5 273.6C39.7 271.5 39.8 267.7 36.8 265.6C35.6 264.7 34.3 264 34 264C33.7 264 32.4 264.7 31.2 265.6Z"
        fill="url(#paint10_linear_336_10)" />
    <path
        d="M45 266C43.9 267.1 43 268.7 43 269.5C43 270.3 43.9 271.9 45 273C46.9 274.9 48.3 275 78.8 275C113.4 275 114.3 274.9 114.3 269.5C114.3 264.1 113.4 264 78.8 264C48.3 264 46.9 264.1 45 266Z"
        fill="url(#paint11_linear_336_10)" />
    <path
        d="M38.4 331.8C33.9 335.4 32.9 340.3 35.7 345C39 350.7 46.1 351.6 51.2 347.1C53.9 344.7 54.5 343.5 54.5 340C54.5 336.5 53.9 335.3 51.2 332.9C47.4 329.5 41.8 329 38.4 331.8Z"
        fill="url(#paint12_linear_336_10)" />
    <defs>
        <linearGradient id="paint0_linear_336_10" x1="-46" y1="352.5" x2="641.5" y2="29.5001"
            gradientUnits="userSpaceOnUse">
            <stop stop-color="#1C8A55" />
            <stop offset="1" stop-color="#54C5D2" />
        </linearGradient>
        <linearGradient id="paint1_linear_336_10" x1="201.783" y1="100.592" x2="272.545" y2="67.6865"
            gradientUnits="userSpaceOnUse">
            <stop stop-color="#1C8A55" />
            <stop offset="1" stop-color="#54C5D2" />
        </linearGradient>
        <linearGradient id="paint2_linear_336_10" x1="201.31" y1="149.628" x2="215.631" y2="117.28"
            gradientUnits="userSpaceOnUse">
            <stop stop-color="#1C8A55" />
            <stop offset="1" stop-color="#54C5D2" />
        </linearGradient>
        <linearGradient id="paint3_linear_336_10" x1="201.365" y1="166.247" x2="214.533" y2="135.051"
            gradientUnits="userSpaceOnUse">
            <stop stop-color="#1C8A55" />
            <stop offset="1" stop-color="#54C5D2" />
        </linearGradient>
        <linearGradient id="paint4_linear_336_10" x1="28.0674" y1="209.444" x2="42.8331" y2="202.273"
            gradientUnits="userSpaceOnUse">
            <stop stop-color="#1C8A55" />
            <stop offset="1" stop-color="#54C5D2" />
        </linearGradient>
        <linearGradient id="paint5_linear_336_10" x1="36.13" y1="209.628" x2="46.6829" y2="174.072"
            gradientUnits="userSpaceOnUse">
            <stop stop-color="#1C8A55" />
            <stop offset="1" stop-color="#54C5D2" />
        </linearGradient>
        <linearGradient id="paint6_linear_336_10" x1="28.0586" y1="230.459" x2="42.7345" y2="223.228"
            gradientUnits="userSpaceOnUse">
            <stop stop-color="#1C8A55" />
            <stop offset="1" stop-color="#54C5D2" />
        </linearGradient>
        <linearGradient id="paint7_linear_336_10" x1="35.9375" y1="230.628" x2="46.4687" y2="195.058"
            gradientUnits="userSpaceOnUse">
            <stop stop-color="#1C8A55" />
            <stop offset="1" stop-color="#54C5D2" />
        </linearGradient>
        <linearGradient id="paint8_linear_336_10" x1="28.1696" y1="251.457" x2="42.8892" y2="244.418"
            gradientUnits="userSpaceOnUse">
            <stop stop-color="#1C8A55" />
            <stop offset="1" stop-color="#54C5D2" />
        </linearGradient>
        <linearGradient id="paint9_linear_336_10" x1="35.9393" y1="251.628" x2="46.4955" y2="216.074"
            gradientUnits="userSpaceOnUse">
            <stop stop-color="#1C8A55" />
            <stop offset="1" stop-color="#54C5D2" />
        </linearGradient>
        <linearGradient id="paint10_linear_336_10" x1="28.0271" y1="272.181" x2="43.2691" y2="265.51"
            gradientUnits="userSpaceOnUse">
            <stop stop-color="#1C8A55" />
            <stop offset="1" stop-color="#54C5D2" />
        </linearGradient>
        <linearGradient id="paint11_linear_336_10" x1="35.87" y1="272.391" x2="48.4468" y2="233.948"
            gradientUnits="userSpaceOnUse">
            <stop stop-color="#1C8A55" />
            <stop offset="1" stop-color="#54C5D2" />
        </linearGradient>
        <linearGradient id="paint12_linear_336_10" x1="32.1011" y1="345.221" x2="62.2759" y2="330.713"
            gradientUnits="userSpaceOnUse">
            <stop stop-color="#1C8A55" />
            <stop offset="1" stop-color="#54C5D2" />
        </linearGradient>
    </defs>
</svg>