<?xml version="1.0" standalone="no"?>
<!DOCTYPE svg PUBLIC "-//W3C//DTD SVG 20010904//EN"
 "http://www.w3.org/TR/2001/REC-SVG-20010904/DTD/svg10.dtd">
<svg version="1.0" xmlns="http://www.w3.org/2000/svg"
 viewBox="0 0 512.000000 512.000000"
 preserveAspectRatio="xMidYMid meet">

<g transform="translate(0.000000,512.000000) scale(0.100000,-0.100000)"
fill="#000000" stroke="none">
<path d="M2025 4861 c-45 -11 -69 -26 -103 -65 -42 -48 -52 -91 -52 -218 l0
-108 -166 0 c-95 0 -174 -4 -185 -10 -17 -9 -19 -22 -19 -105 l0 -95 -498 0
c-413 0 -507 -3 -549 -15 -65 -19 -139 -85 -169 -150 l-24 -50 0 -1371 0
-1370 26 -52 c29 -58 79 -106 138 -133 39 -18 85 -19 864 -19 819 0 822 0 822
-20 0 -35 -37 -127 -71 -177 -42 -60 -116 -133 -193 -189 -55 -40 -65 -44
-121 -44 -131 0 -215 -74 -223 -195 -5 -70 10 -109 61 -163 61 -63 39 -62 997
-62 958 0 936 -1 997 62 51 54 66 93 61 163 -8 121 -92 195 -224 195 -58 0
-64 3 -130 52 -85 65 -140 119 -183 181 -34 50 -71 141 -71 177 0 20 6 20 833
22 l834 3 48 30 c57 35 110 100 125 153 6 25 10 491 10 1397 l0 1360 -24 50
c-30 65 -104 131 -169 150 -42 12 -136 15 -549 15 l-498 0 0 95 c0 83 -2 96
-19 105 -11 6 -90 10 -185 10 l-166 0 0 108 c0 127 -10 170 -52 218 -64 72
-34 69 -618 71 -289 1 -538 -2 -555 -6z m1090 -126 c22 -21 25 -33 25 -103 0
-87 -15 -118 -70 -147 -43 -22 -977 -22 -1020 0 -55 29 -70 60 -70 147 0 70 3
82 25 103 l24 25 531 0 531 0 24 -25z m405 -553 l0 -189 -246 -73 c-135 -40
-252 -80 -260 -87 -12 -12 -14 -83 -14 -409 l0 -394 -440 0 -440 0 0 394 c0
437 3 416 -67 435 -20 6 -130 38 -245 72 l-208 63 0 188 0 188 960 0 960 0 0
-188z m-2022 -136 c1 -61 8 -116 14 -123 5 -7 29 -18 52 -25 22 -6 47 -16 54
-21 9 -7 12 -62 12 -216 0 -202 0 -207 24 -242 63 -93 189 -90 260 5 19 25 21
44 24 192 l4 165 31 -7 c18 -3 35 -8 40 -11 4 -2 7 -184 7 -403 0 -349 2 -401
16 -414 13 -13 43 -16 170 -16 l154 0 -2 -542 -3 -543 -973 0 -974 0 -24 28
-24 28 0 1062 0 1062 23 39 c26 47 62 75 108 86 19 4 252 7 519 7 l485 -2 3
-109z m3180 81 c23 -15 51 -45 62 -67 20 -39 20 -55 20 -1099 l0 -1060 -24
-28 -24 -28 -974 0 -973 0 -3 543 -2 542 154 0 c127 0 157 3 170 16 14 13 16
65 16 414 0 219 3 401 8 403 4 3 22 8 40 12 l32 7 0 -149 c0 -135 2 -153 23
-193 29 -57 64 -82 124 -87 58 -5 107 18 141 67 21 32 22 42 22 242 l0 209 38
15 c91 35 87 28 90 144 1 58 4 111 7 118 4 10 103 12 508 10 l503 -3 42 -28z
m-2018 -1742 l0 -545 -100 0 -100 0 0 545 0 545 100 0 100 0 0 -545z m-1855
-739 c21 -11 53 -41 70 -64 26 -38 30 -52 30 -112 0 -60 -4 -74 -30 -112 -95
-134 -297 -115 -360 34 -74 178 118 347 290 254z m3393 -258 c17 -17 15 -54
-4 -72 -13 -14 -66 -16 -426 -16 -369 0 -413 2 -430 17 -20 18 -23 36 -8 64
10 18 26 19 433 19 316 0 426 -3 435 -12z m426 -4 c20 -19 20 -34 0 -62 -15
-21 -21 -22 -169 -22 -148 0 -154 1 -169 22 -20 28 -20 43 0 62 23 23 315 23
338 0z m-1713 -341 c15 -73 46 -145 93 -213 20 -29 36 -61 36 -71 0 -31 -21
-66 -47 -78 -16 -7 -155 -11 -433 -11 -278 0 -417 4 -433 11 -26 12 -47 47
-47 78 0 10 16 42 36 71 47 68 78 140 93 213 l12 57 339 0 339 0 12 -57z"/>
<path d="M2510 4219 c-60 -12 -118 -54 -155 -114 -26 -41 -30 -58 -30 -114 1
-169 144 -275 310 -230 61 17 139 101 155 168 31 132 -48 260 -180 290 -25 6
-47 10 -50 10 -3 -1 -25 -5 -50 -10z"/>
<path d="M2336 3434 c-20 -20 -20 -48 0 -68 13 -14 48 -16 224 -16 222 0 240
4 240 50 0 46 -18 50 -240 50 -176 0 -211 -2 -224 -16z"/>
<path d="M2335 3260 c-15 -16 -17 -26 -9 -48 l9 -27 225 0 225 0 9 27 c8 22 6
32 -9 48 -17 19 -30 20 -225 20 -195 0 -208 -1 -225 -20z"/>
<path d="M566 2834 c-22 -21 -20 -47 4 -69 44 -40 107 25 69 71 -15 19 -54 18
-73 -2z"/>
<path d="M704 2825 c-15 -23 -15 -27 0 -50 l16 -25 330 0 330 0 16 25 c15 23
15 27 0 50 l-16 25 -330 0 -330 0 -16 -25z"/>
<path d="M561 2621 c-16 -29 -14 -46 9 -66 41 -37 102 17 73 64 -16 25 -69 26
-82 2z"/>
<path d="M706 2624 c-20 -19 -20 -34 0 -62 15 -22 15 -22 344 -22 l330 0 16
25 c15 23 15 27 0 50 l-16 25 -330 0 c-285 0 -331 -2 -344 -16z"/>
<path d="M558 2406 c-14 -31 -5 -53 27 -68 21 -9 28 -8 45 7 39 35 20 85 -32
85 -20 0 -32 -7 -40 -24z"/>
<path d="M700 2411 c-14 -28 -13 -38 10 -61 19 -19 33 -20 336 -20 185 0 323
4 333 10 25 13 32 35 21 65 l-10 25 -339 0 c-326 0 -341 -1 -351 -19z"/>
<path d="M572 2214 c-30 -21 -29 -59 3 -80 23 -15 27 -15 50 0 32 21 33 59 3
80 -12 9 -25 16 -28 16 -3 0 -16 -7 -28 -16z"/>
<path d="M710 2210 c-11 -11 -20 -27 -20 -35 0 -8 9 -24 20 -35 19 -19 33 -20
338 -20 346 0 355 1 355 55 0 54 -9 55 -355 55 -305 0 -319 -1 -338 -20z"/>
<path d="M644 1552 c-45 -36 -55 -85 -27 -132 33 -57 104 -66 155 -21 27 24
33 36 33 71 0 35 -6 47 -33 71 -38 34 -94 39 -128 11z"/>
</g>
</svg>
