<svg width="512" height="512" viewBox="0 0 512 512" fill="none" xmlns="http://www.w3.org/2000/svg">
<path d="M202.5 25.9C198 27 195.6 28.5 192.2 32.4C188 37.2 187 41.5 187 54.2V65H170.4C160.9 65 153 65.4 151.9 66C150.2 66.9 150 68.2 150 76.5V86H100.2C58.9 86 49.5 86.3 45.3 87.5C38.8 89.4 31.4 96 28.4 102.5L26 107.5V244.6V381.6L28.6 386.8C31.5 392.6 36.5 397.4 42.4 400.1C46.3 401.9 50.9 402 128.8 402C210.7 402 211 402 211 404C211 407.5 207.3 416.7 203.9 421.7C199.7 427.7 192.3 435 184.6 440.6C179.1 444.6 178.1 445 172.5 445C159.4 445 151 452.4 150.2 464.5C149.7 471.5 151.2 475.4 156.3 480.8C162.4 487.1 160.2 487 256 487C351.8 487 349.6 487.1 355.7 480.8C360.8 475.4 362.3 471.5 361.8 464.5C361 452.4 352.6 445 339.4 445C333.6 445 333 444.7 326.4 439.8C317.9 433.3 312.4 427.9 308.1 421.7C304.7 416.7 301 407.6 301 404C301 402 301.6 402 384.3 401.8L467.7 401.5L472.5 398.5C478.2 395 483.5 388.5 485 383.2C485.6 380.7 486 334.1 486 243.5V107.5L483.6 102.5C480.6 96 473.2 89.4 466.7 87.5C462.5 86.3 453.1 86 411.8 86H362V76.5C362 68.2 361.8 66.9 360.1 66C359 65.4 351.1 65 341.6 65H325V54.2C325 41.5 324 37.2 319.8 32.4C313.4 25.2 316.4 25.5 258 25.3C229.1 25.2 204.2 25.5 202.5 25.9ZM311.5 38.5C313.7 40.6 314 41.8 314 48.8C314 57.5 312.5 60.6 307 63.5C302.7 65.7 209.3 65.7 205 63.5C199.5 60.6 198 57.5 198 48.8C198 41.8 198.3 40.6 200.5 38.5L202.9 36H256H309.1L311.5 38.5ZM352 93.8V112.7L327.4 120C313.9 124 302.2 128 301.4 128.7C300.2 129.9 300 137 300 169.6V209H256H212V169.6C212 125.9 212.3 128 205.3 126.1C203.3 125.5 192.3 122.3 180.8 118.9L160 112.6V93.8V75H256H352V93.8ZM149.8 107.4C149.9 113.5 150.6 119 151.2 119.7C151.7 120.4 154.1 121.5 156.4 122.2C158.6 122.8 161.1 123.8 161.8 124.3C162.7 125 163 130.5 163 145.9C163 166.1 163 166.6 165.4 170.1C171.7 179.4 184.3 179.1 191.4 169.6C193.3 167.1 193.5 165.2 193.8 150.4L194.2 133.9L197.3 134.6C199.1 134.9 200.8 135.4 201.3 135.7C201.7 135.9 202 154.1 202 176C202 210.9 202.2 216.1 203.6 217.4C204.9 218.7 207.9 219 220.6 219H236L235.8 273.2L235.5 327.5H138.2H40.8L38.4 324.7L36 321.9V215.7V109.5L38.3 105.6C40.9 100.9 44.5 98.1 49.1 97C51 96.6 74.3 96.3 101 96.3L149.5 96.5L149.8 107.4ZM467.8 99.3C470.1 100.8 472.9 103.8 474 106C476 109.9 476 111.5 476 215.9V321.9L473.6 324.7L471.2 327.5H373.8H276.5L276.2 273.2L276 219H291.4C304.1 219 307.1 218.7 308.4 217.4C309.8 216.1 310 210.9 310 176C310 154.1 310.3 135.9 310.8 135.7C311.2 135.4 313 134.9 314.8 134.5L318 133.8V148.7C318 162.2 318.2 164 320.3 168C323.2 173.7 326.7 176.2 332.7 176.7C338.5 177.2 343.4 174.9 346.8 170C348.9 166.8 349 165.8 349 145.8V124.9L352.8 123.4C361.9 119.9 361.5 120.6 361.8 109C361.9 103.2 362.2 97.9 362.5 97.2C362.9 96.2 372.8 96 413.3 96.2L463.6 96.5L467.8 99.3ZM266 273.5V328H256H246V273.5V219H256H266V273.5ZM80.5 347.4C82.6 348.5 85.8 351.5 87.5 353.8C90.1 357.6 90.5 359 90.5 365C90.5 371 90.1 372.4 87.5 376.2C78 389.6 57.8 387.7 51.5 372.8C44.1 355 63.3 338.1 80.5 347.4ZM419.8 373.2C421.5 374.9 421.3 378.6 419.4 380.4C418.1 381.8 412.8 382 376.8 382C339.9 382 335.5 381.8 333.8 380.3C331.8 378.5 331.5 376.7 333 373.9C334 372.1 335.6 372 376.3 372C407.9 372 418.9 372.3 419.8 373.2ZM462.4 373.6C464.4 375.5 464.4 377 462.4 379.8C460.9 381.9 460.3 382 445.5 382C430.7 382 430.1 381.9 428.6 379.8C426.6 377 426.6 375.5 428.6 373.6C430.9 371.3 460.1 371.3 462.4 373.6ZM291.1 407.7C292.6 415 295.7 422.2 300.4 429C302.4 431.9 304 435.1 304 436.1C304 439.2 301.9 442.7 299.3 443.9C297.7 444.6 283.8 445 256 445C228.2 445 214.3 444.6 212.7 443.9C210.1 442.7 208 439.2 208 436.1C208 435.1 209.6 431.9 211.6 429C216.3 422.2 219.4 415 220.9 407.7L222.1 402H256H289.9L291.1 407.7Z" fill="url(#paint0_linear_336_9)"/>
<path d="M251 90.1C245 91.3 239.2 95.5 235.5 101.5C232.9 105.6 232.5 107.3 232.5 112.9C232.6 129.8 246.9 140.4 263.5 135.9C269.6 134.2 277.4 125.8 279 119.1C282.1 105.9 274.2 93.1 261 90.1C258.5 89.5 256.3 89.1 256 89.1C255.7 89.2 253.5 89.6 251 90.1Z" fill="url(#paint1_linear_336_9)"/>
<path d="M233.6 168.6C231.6 170.6 231.6 173.4 233.6 175.4C234.9 176.8 238.4 177 256 177C278.2 177 280 176.6 280 172C280 167.4 278.2 167 256 167C238.4 167 234.9 167.2 233.6 168.6Z" fill="url(#paint2_linear_336_9)"/>
<path d="M233.5 186C232 187.6 231.8 188.6 232.6 190.8L233.5 193.5H256H278.5L279.4 190.8C280.2 188.6 280 187.6 278.5 186C276.8 184.1 275.5 184 256 184C236.5 184 235.2 184.1 233.5 186Z" fill="url(#paint3_linear_336_9)"/>
<path d="M56.6 228.6C54.4 230.7 54.6 233.3 57 235.5C61.4 239.5 67.7 233 63.9 228.4C62.4 226.5 58.5 226.6 56.6 228.6Z" fill="url(#paint4_linear_336_9)"/>
<path d="M70.4 229.5C68.9 231.8 68.9 232.2 70.4 234.5L72 237H105H138L139.6 234.5C141.1 232.2 141.1 231.8 139.6 229.5L138 227H105H72L70.4 229.5Z" fill="url(#paint5_linear_336_9)"/>
<path d="M56.1 249.9C54.5 252.8 54.7 254.5 57 256.5C61.1 260.2 67.2 254.8 64.3 250.1C62.7 247.6 57.4 247.5 56.1 249.9Z" fill="url(#paint6_linear_336_9)"/>
<path d="M70.6 249.6C68.6 251.5 68.6 253 70.6 255.8C72.1 258 72.1 258 105 258H138L139.6 255.5C141.1 253.2 141.1 252.8 139.6 250.5L138 248H105C76.5 248 71.9 248.2 70.6 249.6Z" fill="url(#paint7_linear_336_9)"/>
<path d="M55.8 271.4C54.4 274.5 55.3 276.7 58.5 278.2C60.6 279.1 61.3 279 63 277.5C66.9 274 65 269 59.8 269C57.8 269 56.6 269.7 55.8 271.4Z" fill="url(#paint8_linear_336_9)"/>
<path d="M70 270.9C68.6 273.7 68.7 274.7 71 277C72.9 278.9 74.3 279 104.6 279C123.1 279 136.9 278.6 137.9 278C140.4 276.7 141.1 274.5 140 271.5L139 269H105.1C72.5 269 71 269.1 70 270.9Z" fill="url(#paint9_linear_336_9)"/>
<path d="M57.2 290.6C54.2 292.7 54.3 296.5 57.5 298.6C59.8 300.1 60.2 300.1 62.5 298.6C65.7 296.5 65.8 292.7 62.8 290.6C61.6 289.7 60.3 289 60 289C59.7 289 58.4 289.7 57.2 290.6Z" fill="url(#paint10_linear_336_9)"/>
<path d="M71 291C69.9 292.1 69 293.7 69 294.5C69 295.3 69.9 296.9 71 298C72.9 299.9 74.3 300 104.8 300C139.4 300 140.3 299.9 140.3 294.5C140.3 289.1 139.4 289 104.8 289C74.3 289 72.9 289.1 71 291Z" fill="url(#paint11_linear_336_9)"/>
<path d="M64.4 356.8C59.9 360.4 58.9 365.3 61.7 370C65 375.7 72.1 376.6 77.2 372.1C79.9 369.7 80.5 368.5 80.5 365C80.5 361.5 79.9 360.3 77.2 357.9C73.4 354.5 67.8 354 64.4 356.8Z" fill="url(#paint12_linear_336_9)"/>
<defs>
<linearGradient id="paint0_linear_336_9" x1="-150.5" y1="561" x2="569.5" y2="45.5001" gradientUnits="userSpaceOnUse">
<stop stop-color="#1C8A55"/>
<stop offset="1" stop-color="#54C5D2"/>
</linearGradient>
<linearGradient id="paint1_linear_336_9" x1="214.4" y1="144.604" x2="288.747" y2="91.9174" gradientUnits="userSpaceOnUse">
<stop stop-color="#1C8A55"/>
<stop offset="1" stop-color="#54C5D2"/>
</linearGradient>
<linearGradient id="paint2_linear_336_9" x1="213.721" y1="178.603" x2="222.547" y2="148.222" gradientUnits="userSpaceOnUse">
<stop stop-color="#1C8A55"/>
<stop offset="1" stop-color="#54C5D2"/>
</linearGradient>
<linearGradient id="paint3_linear_336_9" x1="213.826" y1="195.023" x2="221.877" y2="165.955" gradientUnits="userSpaceOnUse">
<stop stop-color="#1C8A55"/>
<stop offset="1" stop-color="#54C5D2"/>
</linearGradient>
<linearGradient id="paint4_linear_336_9" x1="51.2299" y1="238.304" x2="66.5299" y2="226.981" gradientUnits="userSpaceOnUse">
<stop stop-color="#1C8A55"/>
<stop offset="1" stop-color="#54C5D2"/>
</linearGradient>
<linearGradient id="paint5_linear_336_9" x1="41.86" y1="238.603" x2="48.0416" y2="206.862" gradientUnits="userSpaceOnUse">
<stop stop-color="#1C8A55"/>
<stop offset="1" stop-color="#54C5D2"/>
</linearGradient>
<linearGradient id="paint6_linear_336_9" x1="51.2225" y1="259.262" x2="66.3571" y2="247.897" gradientUnits="userSpaceOnUse">
<stop stop-color="#1C8A55"/>
<stop offset="1" stop-color="#54C5D2"/>
</linearGradient>
<linearGradient id="paint7_linear_336_9" x1="41.6178" y1="259.603" x2="47.7854" y2="227.856" gradientUnits="userSpaceOnUse">
<stop stop-color="#1C8A55"/>
<stop offset="1" stop-color="#54C5D2"/>
</linearGradient>
<linearGradient id="paint8_linear_336_9" x1="51.3573" y1="280.342" x2="66.6859" y2="269.171" gradientUnits="userSpaceOnUse">
<stop stop-color="#1C8A55"/>
<stop offset="1" stop-color="#54C5D2"/>
</linearGradient>
<linearGradient id="paint9_linear_336_9" x1="41.677" y1="280.603" x2="47.8608" y2="248.863" gradientUnits="userSpaceOnUse">
<stop stop-color="#1C8A55"/>
<stop offset="1" stop-color="#54C5D2"/>
</linearGradient>
<linearGradient id="paint10_linear_336_9" x1="51.203" y1="301.444" x2="67.5142" y2="290.564" gradientUnits="userSpaceOnUse">
<stop stop-color="#1C8A55"/>
<stop offset="1" stop-color="#54C5D2"/>
</linearGradient>
<linearGradient id="paint11_linear_336_9" x1="41.6425" y1="301.763" x2="49.0795" y2="267.12" gradientUnits="userSpaceOnUse">
<stop stop-color="#1C8A55"/>
<stop offset="1" stop-color="#54C5D2"/>
</linearGradient>
<linearGradient id="paint12_linear_336_9" x1="52.3242" y1="378.158" x2="83.6925" y2="355.173" gradientUnits="userSpaceOnUse">
<stop stop-color="#1C8A55"/>
<stop offset="1" stop-color="#54C5D2"/>
</linearGradient>
</defs>
</svg>
