<?xml version="1.0" encoding="UTF-8" standalone="no"?>
<!-- Created with Inkscape (http://www.inkscape.org/) -->

<svg
   version="1.1"
   id="svg2"
   xml:space="preserve"
   width="3333.3333"
   height="3333.3333"
   viewBox="0 0 3333.3333 3333.3333"
   sodipodi:docname="bwink_edu_05_single_05.eps"
   xmlns:inkscape="http://www.inkscape.org/namespaces/inkscape"
   xmlns:sodipodi="http://sodipodi.sourceforge.net/DTD/sodipodi-0.dtd"
   xmlns="http://www.w3.org/2000/svg"
   xmlns:svg="http://www.w3.org/2000/svg"><defs
     id="defs6" /><sodipodi:namedview
     id="namedview4"
     pagecolor="#ffffff"
     bordercolor="#666666"
     borderopacity="1.0"
     inkscape:pageshadow="2"
     inkscape:pageopacity="0.0"
     inkscape:pagecheckerboard="0" /><g
     id="g8"
     inkscape:groupmode="layer"
     inkscape:label="ink_ext_XXXXXX"
     transform="matrix(1.3333333,0,0,-1.3333333,0,3333.3333)"><g
       id="g10"
       transform="scale(0.1)"><path
         d="M 25000,0 H 0 V 25000 H 25000 V 0"
         style="fill:#ffffff;fill-opacity:1;fill-rule:nonzero;stroke:none"
         id="path12" /><path
         d="m 15433.6,11832.5 -3505.6,-22 c -22.7,0 -30.2,-21.1 -30.2,-41.3 V 8786.6 c 0,-285.5 -1991.77,-1027.5 -2011.18,-989.7 l -2.44,-315.7 c -0.14,-58.8 51.53,-110.9 117.42,-110.9 h 43.8 c 0.3,0 0.6,0 0.9,0 h 2939.2 c 136.4,0 271.1,30.5 394.6,82.2 l 1616,680.5 c 290.9,122.5 474.5,385.6 474.5,672.5 v 2985.7 c 0,20.2 -14.3,41.3 -37,41.3"
         style="fill:#000000;fill-opacity:1;fill-rule:nonzero;stroke:none"
         id="path14" /><path
         d="M 11542.8,11984.3 V 9001.1 c 0,-294.1 -189.3,-562.1 -486.6,-689 L 9966.02,7846.8 c -71.21,-30.4 -46.94,-125.8 32.01,-125.8 h 2995.27 c 134.7,0 267.7,26.6 389.5,77.9 l 1207.9,508.5 c 299.6,126.1 490.7,395.2 490.7,690.7 v 2986.2 c 0,12.2 -11.1,22.1 -24.8,22.1 h -3489 c -13.7,0 -24.8,-9.9 -24.8,-22.1"
         style="fill:#ffffff;fill-opacity:1;fill-rule:nonzero;stroke:none"
         id="path16" /><path
         d="M 11565.1,11983.4 V 9001.1 c 0,-301.3 -196.3,-579.8 -500.2,-709.5 L 9974.78,7826.3 c -21.53,-9.2 -31.95,-26.5 -27.89,-46.4 3.46,-16.9 18.92,-36.6 51.13,-36.6 h 2995.28 c 130.9,0 262.6,26.3 380.9,76.1 L 14582,8328 c 289.8,122 477.1,385 477.1,670.1 V 11984 c -0.2,-0.4 -1,0.1 -2.5,0.1 h -3489 c -1.3,0 -2.1,-0.4 -2.5,-0.7 z M 12993.3,7698.7 H 9998.02 c -55.3,0 -87.48,36.3 -94.83,72.3 -8.24,40.3 13.49,79 54.08,96.3 l 1090.13,465.3 c 287.4,122.7 473.1,385.1 473.1,668.5 v 2983.2 c 0,24.5 21.1,44.4 47.1,44.4 h 3489 c 26,0 47.1,-19.9 47.1,-44.4 V 8998.1 c 0,-303.1 -198,-582.3 -504.4,-711.3 l -1207.8,-508.5 c -123.7,-52.1 -261.4,-79.6 -398.2,-79.6"
         style="fill:#000000;fill-opacity:1;fill-rule:nonzero;stroke:none"
         id="path18" /><path
         d="m 4989.78,10274.6 15110.02,-33.9 c 132.2,0 264.1,99.4 280.9,230.8 l 1227.7,9454.8 c 29.3,229.1 -148.1,457 -376,451.3 L 6297.63,20298.7 4989.78,10274.6"
         style="fill:#000000;fill-opacity:1;fill-rule:nonzero;stroke:none"
         id="path20" /><path
         d="m 20639,20323.9 c 260,0 494.7,-263.5 461.4,-522 l -1192,-9307.3 c -16.9,-131.5 -157.6,-242.7 -289.8,-242.7 L 4776.09,10276 c -158.54,0 -264.44,131.6 -244.16,289.3 l 1234.46,9479.8 c 16.91,131.4 103.81,278.8 235.99,278.8 H 20639"
         style="fill:#ffffff;fill-opacity:1;fill-rule:nonzero;stroke:none"
         id="path22" /><path
         d="m 6002.38,20301.6 c -117.24,0 -197.69,-133.6 -213.87,-259.3 L 4554.05,10562.4 c -9.4,-73 9.73,-140.9 53.86,-191.1 41.4,-47 101.14,-73 168.19,-73 l 14842.6,-24.1 c 125,0 252.5,106.4 267.6,223.2 l 1192,9307.3 c 14.9,116 -26.6,239.5 -114.1,338.9 -88.3,100.4 -206.8,158 -325.2,158 z m 13616.22,-10072 -14842.54,24.1 c -80.02,0 -151.65,31.3 -201.64,88.2 -51.96,59.1 -75.5,141.5 -64.6,226.2 L 5744.27,20048 c 18.6,144.5 115.39,298.2 258.11,298.2 H 20639 c 131.2,0 262,-63.1 358.7,-173.1 95.9,-109.1 141.4,-245.4 124.9,-374.1 l -1192.1,-9307.3 c -18,-139.6 -163.7,-262.1 -311.9,-262.1"
         style="fill:#000000;fill-opacity:1;fill-rule:nonzero;stroke:none"
         id="path24" /><path
         d="m 6374.12,19919.2 c -106.83,0 -180.2,-122.1 -194.99,-237 L 5043.46,10960.9 c -8.58,-66.6 8.86,-128.5 49.11,-174.3 37.75,-42.9 92.23,-66.6 153.39,-66.6 l 14023.64,-22.1 c 114.2,0 230.7,97.1 244.4,203.8 l 1096.7,8562.4 c 13.6,106.2 -24.4,219.3 -104.6,310.4 -80.8,92 -189.4,144.7 -297.8,144.7 z m 12895.38,-9265.9 -14023.58,22.1 c -74.13,0 -140.5,29.1 -186.85,81.7 -48.13,54.8 -69.94,131.1 -59.85,209.6 l 1135.67,8721.2 c 17.22,133.8 106.91,276 239.23,276 H 20208.3 c 121.2,0 242,-58.3 331.3,-159.9 88.6,-100.7 130.6,-226.7 115.3,-345.6 L 19558.3,10896 c -16.7,-129.3 -151.6,-242.7 -288.8,-242.7"
         style="fill:#000000;fill-opacity:1;fill-rule:nonzero;stroke:none"
         id="path26" /><path
         d="m 13058.8,18782.1 h 5655.5 l 32.4,241.1 h -5655.5 z m 5675,-44.7 h -5700.5 c -6.4,0 -12.5,2.8 -16.8,7.7 -4.2,4.8 -6.1,11.3 -5.3,17.6 l 38.4,285.8 c 1.5,11.1 10.9,19.3 22.1,19.3 h 5700.5 c 6.4,0 12.6,-2.7 16.8,-7.6 4.2,-4.8 6.2,-11.3 5.3,-17.6 l -38.4,-285.8 c -1.5,-11.1 -10.9,-19.4 -22.1,-19.4"
         style="fill:#000000;fill-opacity:1;fill-rule:nonzero;stroke:none"
         id="path28" /><path
         d="m 19963.9,18288.6 h -5808 l 38.4,285.8 h 5808 l -38.4,-285.8"
         style="fill:#000000;fill-opacity:1;fill-rule:nonzero;stroke:none"
         id="path30" /><path
         d="m 16223.7,17839.7 h 2957 l 32.5,241.2 h -2957.1 z m 2976.5,-44.6 h -3002 c -6.4,0 -12.5,2.8 -16.8,7.6 -4.2,4.9 -6.1,11.3 -5.3,17.7 l 38.4,285.8 c 1.5,11 11,19.3 22.1,19.3 h 3002.1 c 6.4,0 12.5,-2.8 16.8,-7.6 4.2,-4.9 6.1,-11.3 5.3,-17.7 l -38.4,-285.8 c -1.5,-11 -11,-19.3 -22.2,-19.3"
         style="fill:#000000;fill-opacity:1;fill-rule:nonzero;stroke:none"
         id="path32" /><path
         d="m 12552,15012.6 h 5655.5 l 32.4,241.2 h -5655.4 z m 5675,-44.6 h -5700.4 c -6.5,0 -12.6,2.8 -16.8,7.7 -4.3,4.8 -6.2,11.2 -5.4,17.6 l 38.5,285.8 c 1.4,11.1 10.9,19.3 22.1,19.3 h 5700.4 c 6.5,0 12.6,-2.8 16.8,-7.6 4.2,-4.8 6.2,-11.3 5.3,-17.7 l -38.4,-285.7 c -1.5,-11.1 -10.9,-19.4 -22.1,-19.4"
         style="fill:#000000;fill-opacity:1;fill-rule:nonzero;stroke:none"
         id="path34" /><path
         d="m 15142.6,14496.9 h -1493.5 c -6.4,0 -12.5,2.7 -16.7,7.6 -4.3,4.8 -6.2,11.3 -5.4,17.6 l 38.5,285.8 c 1.4,11.1 10.9,19.3 22.1,19.3 h 1350.9 c 12.3,0 22.3,-9.9 22.3,-22.3 0,-12.3 -10,-22.3 -22.3,-22.3 h -1331.4 l -32.4,-241.1 h 1467.9 c 12.3,0 22.3,-10 22.3,-22.3 0,-12.4 -10,-22.3 -22.3,-22.3"
         style="fill:#000000;fill-opacity:1;fill-rule:nonzero;stroke:none"
         id="path36" /><path
         d="m 19457.2,14496.9 h -3587.4 c -12.3,0 -22.3,9.9 -22.3,22.3 0,12.3 10,22.3 22.3,22.3 h 3567.8 l 32.5,241.1 h -3793.9 c -12.3,0 -22.3,10 -22.3,22.3 0,12.4 10,22.3 22.3,22.3 h 3819.4 c 6.4,0 12.5,-2.7 16.8,-7.6 4.2,-4.8 6.1,-11.3 5.3,-17.6 l -38.4,-285.8 c -1.5,-11.1 -11,-19.3 -22.1,-19.3"
         style="fill:#000000;fill-opacity:1;fill-rule:nonzero;stroke:none"
         id="path38" /><path
         d="m 19393.8,14025.7 h -3102.6 c -12.3,0 -22.3,10 -22.3,22.3 0,12.3 10,22.3 22.3,22.3 h 3083.1 l 32.4,241.2 h -3286.3 c -12.3,0 -22.3,9.9 -22.3,22.3 0,12.3 10,22.3 22.3,22.3 h 3311.8 c 6.5,0 12.6,-2.8 16.8,-7.7 4.2,-4.8 6.2,-11.2 5.3,-17.6 l -38.4,-285.8 c -1.5,-11.1 -10.9,-19.3 -22.1,-19.3"
         style="fill:#000000;fill-opacity:1;fill-rule:nonzero;stroke:none"
         id="path40" /><path
         d="m 15619.3,13574.1 h -2115.7 c -6.4,0 -12.5,2.8 -16.8,7.6 -4.2,4.9 -6.2,11.3 -5.3,17.7 l 38.4,285.8 c 1.5,11 10.9,19.3 22.1,19.3 h 1741.3 c 12.4,0 22.3,-10 22.3,-22.3 0,-12.3 -9.9,-22.3 -22.3,-22.3 h -1721.8 l -32.4,-241.2 h 2090.2 c 12.3,0 22.3,-10 22.3,-22.3 0,-12.3 -10,-22.3 -22.3,-22.3"
         style="fill:#000000;fill-opacity:1;fill-rule:nonzero;stroke:none"
         id="path42" /><path
         d="m 18543.7,17346.2 h -5700.4 l 38.4,285.8 h 5700.5 l -38.5,-285.8"
         style="fill:#000000;fill-opacity:1;fill-rule:nonzero;stroke:none"
         id="path44" /><path
         d="m 18942.9,16875 h -4977 l 38.4,285.8 h 4946.1 l -7.5,-285.8"
         style="fill:#000000;fill-opacity:1;fill-rule:nonzero;stroke:none"
         id="path46" /><path
         d="M 15970.3,15955 H 18227 l 32.4,241.2 h -2256.6 z m 2276.2,-44.6 h -2301.7 c -6.4,0 -12.5,2.8 -16.8,7.6 -4.2,4.8 -6.1,11.3 -5.3,17.7 l 38.4,285.7 c 1.5,11.1 11,19.4 22.1,19.4 h 2301.7 c 6.5,0 12.6,-2.8 16.8,-7.7 4.3,-4.8 6.2,-11.2 5.3,-17.6 l -38.4,-285.8 c -1.5,-11 -10.9,-19.3 -22.1,-19.3"
         style="fill:#000000;fill-opacity:1;fill-rule:nonzero;stroke:none"
         id="path48" /><path
         d="m 18871.4,15461.9 h -2301.7 l 38.4,285.7 h 2301.7 l -38.4,-285.7"
         style="fill:#000000;fill-opacity:1;fill-rule:nonzero;stroke:none"
         id="path50" /><path
         d="m 18760.6,16403.9 h -2752.4 l 38.4,285.7 H 18772 l -11.4,-285.7"
         style="fill:#000000;fill-opacity:1;fill-rule:nonzero;stroke:none"
         id="path52" /><path
         d="m 17973.6,13105.6 h -5700.4 l 38.4,285.8 H 18012 l -38.4,-285.8"
         style="fill:#ffffff;fill-opacity:1;fill-rule:nonzero;stroke:none"
         id="path54" /><path
         d="m 16405.1,12612.2 h -3009.3 c -6.4,0 -12.6,2.7 -16.8,7.6 -4.2,4.8 -6.2,11.2 -5.3,17.6 l 38.4,285.8 c 1.5,11.1 10.9,19.3 22.1,19.3 h 2868.4 c 12.3,0 22.3,-10 22.3,-22.3 0,-12.3 -10,-22.3 -22.3,-22.3 h -2848.9 l -32.4,-241.1 h 2983.8 c 12.3,0 22.3,-10 22.3,-22.3 0,-12.4 -10,-22.3 -22.3,-22.3"
         style="fill:#000000;fill-opacity:1;fill-rule:nonzero;stroke:none"
         id="path56" /><path
         d="m 17988.1,12141 h -2550 c -6.5,0 -12.6,2.7 -16.8,7.6 -4.3,4.8 -6.2,11.3 -5.3,17.6 l 38.4,285.8 c 1.5,11.1 10.9,19.4 22.1,19.4 H 17897 c 12.3,0 22.3,-10 22.3,-22.3 0,-12.4 -10,-22.4 -22.3,-22.4 h -2401 l -32.4,-241.1 h 2524.5 c 12.3,0 22.3,-10 22.3,-22.3 0,-12.3 -10,-22.3 -22.3,-22.3"
         style="fill:#000000;fill-opacity:1;fill-rule:nonzero;stroke:none"
         id="path58" /><path
         d="m 17783.6,11692.1 h -5700.5 l 38.4,285.8 H 17822 l -38.4,-285.8"
         style="fill:#ffffff;fill-opacity:1;fill-rule:nonzero;stroke:none"
         id="path60" /><path
         d="m 17965.3,11198.6 h -4759.6 c -6.4,0 -12.5,2.8 -16.8,7.6 -4.2,4.9 -6.1,11.3 -5.3,17.7 l 38.4,285.8 c 1.5,11 11,19.3 22.2,19.3 h 4743.9 c 12.3,0 22.3,-10 22.3,-22.3 0,-12.3 -10,-22.3 -22.3,-22.3 h -4724.4 l -32.5,-241.2 h 4734.1 c 12.4,0 22.3,-10 22.3,-22.3 0,-12.3 -9.9,-22.3 -22.3,-22.3"
         style="fill:#000000;fill-opacity:1;fill-rule:nonzero;stroke:none"
         id="path62" /><path
         d="m 12116.1,15467.1 h -555.3 l 36.9,274.6 h 555.3 l -36.9,-274.6"
         style="fill:#000000;fill-opacity:1;fill-rule:nonzero;stroke:none"
         id="path64" /><path
         d="m 12579.6,18759.7 h -578.8 l 38.4,285.8 h 578.8 l -38.4,-285.8"
         style="fill:#000000;fill-opacity:1;fill-rule:nonzero;stroke:none"
         id="path66" /><path
         d="M 12637.8,19192.8 H 12059 l 38.5,285.8 h 578.7 l -38.4,-285.8"
         style="fill:#000000;fill-opacity:1;fill-rule:nonzero;stroke:none"
         id="path68" /><path
         d="m 12511.8,18288.5 h -574.3 l 38.4,285.8 h 574.3 l -38.4,-285.8"
         style="fill:#000000;fill-opacity:1;fill-rule:nonzero;stroke:none"
         id="path70" /><path
         d="m 12429,17817.4 h -545.1 l 38.4,285.7 h 545.1 l -38.4,-285.7"
         style="fill:#000000;fill-opacity:1;fill-rule:nonzero;stroke:none"
         id="path72" /><path
         d="m 12368.6,17346.2 h -554.9 l 38.4,285.7 h 554.9 l -38.4,-285.7"
         style="fill:#000000;fill-opacity:1;fill-rule:nonzero;stroke:none"
         id="path74" /><path
         d="m 12302.3,16875 h -554.9 l 38.5,285.8 h 554.8 l -38.4,-285.8"
         style="fill:#000000;fill-opacity:1;fill-rule:nonzero;stroke:none"
         id="path76" /><path
         d="m 12192,15951.6 h -549.9 l 38.5,285.7 h 549.8 l -38.4,-285.7"
         style="fill:#000000;fill-opacity:1;fill-rule:nonzero;stroke:none"
         id="path78" /><path
         d="m 12241.5,16422.7 h -525.7 l 38.5,285.8 h 525.6 l -38.4,-285.8"
         style="fill:#000000;fill-opacity:1;fill-rule:nonzero;stroke:none"
         id="path80" /><path
         d="m 11923.7,14035.9 h -555.3 l 36.9,274.5 h 555.3 l -36.9,-274.5"
         style="fill:#000000;fill-opacity:1;fill-rule:nonzero;stroke:none"
         id="path82" /><path
         d="m 11999.6,14520.3 h -549.9 l 38.4,285.8 h 549.9 l -38.4,-285.8"
         style="fill:#000000;fill-opacity:1;fill-rule:nonzero;stroke:none"
         id="path84" /><path
         d="m 12049.1,14991.5 h -525.7 l 38.4,285.8 h 525.7 l -38.4,-285.8"
         style="fill:#000000;fill-opacity:1;fill-rule:nonzero;stroke:none"
         id="path86" /><path
         d="m 11549,11248.7 h -555.3 l 36.9,274.6 h 555.3 l -36.9,-274.6"
         style="fill:#000000;fill-opacity:1;fill-rule:nonzero;stroke:none"
         id="path88" /><path
         d="m 11861.8,13599 h -545.1 l 38.5,285.8 h 545.1 l -38.5,-285.8"
         style="fill:#000000;fill-opacity:1;fill-rule:nonzero;stroke:none"
         id="path90" /><path
         d="m 11801.4,13127.8 h -554.8 l 38.4,285.8 h 554.9 l -38.5,-285.8"
         style="fill:#000000;fill-opacity:1;fill-rule:nonzero;stroke:none"
         id="path92" /><path
         d="m 11735.2,12656.6 h -554.9 l 38.4,285.8 h 554.9 l -38.4,-285.8"
         style="fill:#000000;fill-opacity:1;fill-rule:nonzero;stroke:none"
         id="path94" /><path
         d="M 11624.9,11733.2 H 11075 l 38.4,285.8 h 549.9 l -38.4,-285.8"
         style="fill:#000000;fill-opacity:1;fill-rule:nonzero;stroke:none"
         id="path96" /><path
         d="m 11674.4,12204.4 h -525.7 l 38.4,285.7 h 525.7 l -38.4,-285.7"
         style="fill:#000000;fill-opacity:1;fill-rule:nonzero;stroke:none"
         id="path98" /><path
         d="M 9636.19,19255.4 H 6892.16 l 36.91,274.6 H 9673.1 l -36.91,-274.6"
         style="fill:#000000;fill-opacity:1;fill-rule:nonzero;stroke:none"
         id="path100" /><path
         d="m 7251.42,18800.9 h 2847.48 l 32.4,241.2 H 7283.84 Z m 2866.98,-44.6 H 7225.92 c -6.44,0 -12.56,2.8 -16.8,7.6 -4.23,4.9 -6.16,11.3 -5.31,17.7 l 38.42,285.8 c 1.49,11 10.93,19.3 22.11,19.3 h 2892.46 c 6.4,0 12.5,-2.8 16.8,-7.6 4.2,-4.9 6.2,-11.3 5.3,-17.7 l -38.4,-285.8 c -1.5,-11 -10.9,-19.3 -22.1,-19.3"
         style="fill:#000000;fill-opacity:1;fill-rule:nonzero;stroke:none"
         id="path102" /><path
         d="M 7530.11,18329.7 H 10855 l 32.4,241.2 H 7562.52 Z m 3344.39,-44.6 H 7504.6 c -6.44,0 -12.55,2.8 -16.79,7.7 -4.23,4.8 -6.16,11.2 -5.31,17.6 l 38.41,285.8 c 1.5,11.1 10.94,19.3 22.11,19.3 h 3369.88 c 6.4,0 12.6,-2.8 16.8,-7.6 4.2,-4.8 6.2,-11.3 5.3,-17.7 l -38.4,-285.7 c -1.5,-11.1 -11,-19.4 -22.1,-19.4"
         style="fill:#000000;fill-opacity:1;fill-rule:nonzero;stroke:none"
         id="path104" /><path
         d="M 8519.86,17858.6 H 11287 l 32.5,241.1 H 8552.29 Z M 11306.5,17814 H 8494.35 c -6.43,0 -12.55,2.7 -16.79,7.6 -4.23,4.8 -6.16,11.3 -5.31,17.6 l 38.43,285.8 c 1.49,11.1 10.94,19.3 22.11,19.3 H 11345 c 6.4,0 12.5,-2.7 16.7,-7.6 4.3,-4.8 6.2,-11.3 5.4,-17.6 l -38.5,-285.8 c -1.4,-11.1 -10.9,-19.3 -22.1,-19.3"
         style="fill:#000000;fill-opacity:1;fill-rule:nonzero;stroke:none"
         id="path106" /><path
         d="M 8607.96,15486 H 6385.39 l 36.91,274.6 h 2222.57 l -36.91,-274.6"
         style="fill:#000000;fill-opacity:1;fill-rule:nonzero;stroke:none"
         id="path108" /><path
         d="m 7042.82,15031.5 h 1580.31 l 32.42,241.2 H 7075.24 Z m 1599.82,-44.6 H 7017.32 c -6.44,0 -12.56,2.8 -16.79,7.6 -4.24,4.9 -6.17,11.3 -5.32,17.7 l 38.42,285.7 c 1.49,11.1 10.94,19.4 22.11,19.4 h 1625.31 c 6.44,0 12.56,-2.8 16.8,-7.6 4.23,-4.9 6.16,-11.3 5.31,-17.7 l -38.42,-285.8 c -1.49,-11 -10.93,-19.3 -22.1,-19.3"
         style="fill:#000000;fill-opacity:1;fill-rule:nonzero;stroke:none"
         id="path110" /><path
         d="M 7694.22,14560.3 H 9205.1 l 32.42,241.2 H 7726.64 Z m 1530.38,-44.6 H 7668.71 c -6.43,0 -12.55,2.8 -16.79,7.7 -4.23,4.8 -6.16,11.2 -5.31,17.6 l 38.41,285.8 c 1.5,11 10.94,19.3 22.11,19.3 h 1555.9 c 6.43,0 12.55,-2.8 16.79,-7.6 4.23,-4.8 6.16,-11.3 5.31,-17.7 l -38.42,-285.7 c -1.49,-11.1 -10.93,-19.4 -22.11,-19.4"
         style="fill:#000000;fill-opacity:1;fill-rule:nonzero;stroke:none"
         id="path112" /><path
         d="m 8311.26,14089.2 h 1923.94 l 32.4,241.1 H 8343.7 Z m 1943.44,-44.6 H 8285.76 c -6.43,0 -12.56,2.7 -16.8,7.6 -4.23,4.8 -6.16,11.2 -5.31,17.6 l 38.43,285.8 c 1.49,11.1 10.94,19.3 22.11,19.3 h 1968.91 c 6.5,0 12.6,-2.7 16.8,-7.6 4.3,-4.8 6.2,-11.3 5.3,-17.6 l -38.4,-285.8 c -1.5,-11.1 -10.9,-19.3 -22.1,-19.3"
         style="fill:#000000;fill-opacity:1;fill-rule:nonzero;stroke:none"
         id="path114" /><path
         d="M 8660.87,17365.1 H 6673.64 l 38.42,285.8 h 1987.23 l -38.42,-285.8"
         style="fill:#000000;fill-opacity:1;fill-rule:nonzero;stroke:none"
         id="path116" /><path
         d="m 8085.48,16916.2 h 3025.62 l 32.4,241.2 H 8117.9 Z m 3045.12,-44.6 H 8059.98 c -6.44,0 -12.56,2.8 -16.8,7.6 -4.23,4.9 -6.16,11.3 -5.31,17.7 l 38.42,285.8 c 1.49,11 10.94,19.3 22.11,19.3 H 11169 c 6.5,0 12.6,-2.8 16.8,-7.6 4.2,-4.9 6.2,-11.3 5.3,-17.7 l -38.4,-285.8 c -1.5,-11 -10.9,-19.3 -22.1,-19.3"
         style="fill:#000000;fill-opacity:1;fill-rule:nonzero;stroke:none"
         id="path118" /><path
         d="M 8559.11,16423.5 H 6571.88 l 38.42,285.8 h 1987.23 l -38.42,-285.8"
         style="fill:#000000;fill-opacity:1;fill-rule:nonzero;stroke:none"
         id="path120" /><path
         d="m 7983.73,15974.6 h 3025.57 l 32.5,241.2 H 8016.15 Z M 11028.8,15930 H 7958.22 c -6.43,0 -12.56,2.8 -16.79,7.6 -4.24,4.9 -6.17,11.3 -5.31,17.7 l 38.42,285.8 c 1.49,11 10.93,19.3 22.1,19.3 h 3070.66 c 6.4,0 12.5,-2.8 16.8,-7.6 4.2,-4.9 6.1,-11.3 5.3,-17.7 l -38.4,-285.8 c -1.5,-11 -11,-19.3 -22.2,-19.3"
         style="fill:#000000;fill-opacity:1;fill-rule:nonzero;stroke:none"
         id="path122" /><path
         d="M 8602.89,13601.3 H 6132.01 l 36.91,274.5 H 8639.8 l -36.91,-274.5"
         style="fill:#000000;fill-opacity:1;fill-rule:nonzero;stroke:none"
         id="path124" /><path
         d="M 6193.11,13146.8 H 10183 l 32.4,241.2 H 6225.53 Z m 4009.39,-44.6 H 6167.61 c -6.44,0 -12.56,2.8 -16.79,7.6 -4.24,4.8 -6.17,11.3 -5.32,17.7 l 38.42,285.8 c 1.49,11 10.93,19.3 22.11,19.3 h 4034.87 c 6.5,0 12.6,-2.8 16.8,-7.6 4.3,-4.9 6.2,-11.3 5.3,-17.7 l -38.4,-285.8 c -1.5,-11 -10.9,-19.3 -22.1,-19.3"
         style="fill:#000000;fill-opacity:1;fill-rule:nonzero;stroke:none"
         id="path126" /><path
         d="m 7897.86,12675.6 h 2271.44 l 32.4,241.2 H 7930.28 Z M 10188.8,12631 H 7872.35 c -6.43,0 -12.55,2.8 -16.79,7.6 -4.23,4.9 -6.16,11.3 -5.31,17.7 l 38.42,285.8 c 1.49,11 10.93,19.3 22.11,19.3 h 2316.42 c 6.5,0 12.6,-2.8 16.8,-7.6 4.3,-4.9 6.2,-11.3 5.3,-17.7 l -38.4,-285.8 c -1.5,-11 -10.9,-19.3 -22.1,-19.3"
         style="fill:#000000;fill-opacity:1;fill-rule:nonzero;stroke:none"
         id="path128" /><path
         d="M 9217.3,11711 H 7668.15 l -125.27,285.7 H 9255.72 L 9217.3,11711"
         style="fill:#000000;fill-opacity:1;fill-rule:nonzero;stroke:none"
         id="path130" /><path
         d="m 8455.62,12241.7 h 2176.78 l 32.5,241.2 H 8488.04 Z M 10652,12197.1 H 8430.12 c -6.44,0 -12.56,2.8 -16.8,7.6 -4.23,4.9 -6.16,11.3 -5.31,17.7 l 38.42,285.8 c 1.49,11 10.93,19.3 22.1,19.3 h 2221.87 c 6.4,0 12.5,-2.8 16.8,-7.6 4.2,-4.9 6.1,-11.3 5.3,-17.7 l -38.4,-285.7 c -1.5,-11.1 -11,-19.4 -22.1,-19.4"
         style="fill:#000000;fill-opacity:1;fill-rule:nonzero;stroke:none"
         id="path132" /><path
         d="M 9675.34,11217.5 H 7902.39 c -12.32,0 -22.3,10 -22.3,22.3 0,12.3 9.98,22.3 22.3,22.3 h 1753.44 l 32.43,241.2 H 7820 c -12.31,0 -22.29,9.9 -22.29,22.3 0,12.3 9.98,22.3 22.29,22.3 h 1893.76 c 6.43,0 12.56,-2.8 16.79,-7.7 4.24,-4.8 6.17,-11.2 5.32,-17.6 l -38.42,-285.8 c -1.49,-11 -10.94,-19.3 -22.11,-19.3"
         style="fill:#000000;fill-opacity:1;fill-rule:nonzero;stroke:none"
         id="path134" /><path
         d="m 20835,4952.3 -55.6,-533.8 -358.6,-42.3 v 633 l 414.2,-56.9"
         style="fill:#ffffff;fill-opacity:1;fill-rule:nonzero;stroke:none"
         id="path136" /><path
         d="m 20443.1,4983.6 v -582.3 l 315.9,37.3 51.6,494.6 z m -22.3,-629.7 c -5.4,0 -10.7,2 -14.8,5.7 -4.8,4.2 -7.5,10.3 -7.5,16.6 v 633 c 0,6.4 2.8,12.5 7.7,16.8 4.8,4.2 11.3,6.1 17.6,5.3 l 414.3,-56.9 c 11.9,-1.6 20.4,-12.4 19.1,-24.4 l -55.6,-533.8 c -1.1,-10.3 -9.2,-18.6 -19.6,-19.8 l -358.6,-42.3 c -0.8,-0.1 -1.7,-0.2 -2.6,-0.2"
         style="fill:#000000;fill-opacity:1;fill-rule:nonzero;stroke:none"
         id="path138" /><path
         d="m 20364.3,3447 c 149.5,-21.2 394.7,-39.8 682.4,0.3 94.1,13.1 156.5,105.2 133.8,198 -63.3,259.1 -172.4,750.8 -359.8,978.7 l -46.5,-123.6 -64.3,116.4 c -8.8,15.9 -24.6,26.7 -42.6,29 l -140.7,17.9 c -29.4,3.8 -56.8,-15.8 -62.9,-45 l -22.4,-107.2 -85.8,140.5 -38.1,-524.9 c -8.2,-112.5 -25.1,-224.1 -50.5,-333.9 l -38.4,-165.6 c -11.5,-87.5 49,-168.3 135.8,-180.6"
         style="fill:#ffffff;fill-opacity:1;fill-rule:nonzero;stroke:none"
         id="path140" /><path
         d="m 20372.7,4581 -33.1,-455.5 c -8.2,-113.2 -25.3,-226.7 -51,-337.3 l -38.4,-165.6 c -9.4,-73.2 43,-143 117.3,-153.5 152.4,-21.6 393.5,-39.1 676.1,0.3 38.6,5.4 73.3,27 95.2,59.3 22.1,32.6 29.4,73.1 20.1,111.3 l -13.6,56.2 c -60.8,251.3 -160.4,663.7 -317.8,882.4 l -32.4,-86 c -3.1,-8.2 -10.6,-13.8 -19.3,-14.4 -9,-0.5 -16.9,3.8 -21.1,11.4 l -64.3,116.4 c -5.4,9.7 -15,16.3 -25.9,17.6 l -140.8,18 c -17.8,2.3 -34.5,-9.8 -38.2,-27.5 l -22.3,-107.2 c -1.9,-8.9 -9.1,-15.8 -18.1,-17.4 -8.9,-1.6 -18,2.6 -22.8,10.4 z m 330.6,-1179.7 c -137.2,0 -254.1,11.1 -342.1,23.6 -98.4,13.9 -167.8,106.2 -154.8,205.6 l 38.8,167.7 c 25.1,108.5 41.9,219.7 50,330.5 l 38.1,524.9 c 0.7,9.7 7.5,17.8 17,20.1 9.4,2.3 19.2,-1.8 24.2,-10.1 l 56.5,-92.4 10.9,52 c 8.4,40.3 46.9,67.9 87.5,62.6 l 140.8,-17.9 c 24.9,-3.2 47,-18.3 59.2,-40.3 l 40.9,-74.1 29.6,78.4 c 2.8,7.4 9.3,12.8 17.2,14.1 7.9,1.3 15.8,-1.7 20.8,-7.8 177.8,-216.3 286.1,-664 350.7,-931.5 l 13.6,-56.1 c 12.3,-50.4 2.7,-104 -26.5,-146.9 -29,-42.8 -74.9,-71.4 -125.9,-78.5 -124.7,-17.4 -241.5,-23.9 -346.5,-23.9"
         style="fill:#000000;fill-opacity:1;fill-rule:nonzero;stroke:none"
         id="path142" /><path
         d="m 20692.2,3559.9 c -182.3,0 -293.3,39 -300,41.4 -11.6,4.2 -17.6,17 -13.4,28.6 4.2,11.6 16.9,17.6 28.5,13.4 2.4,-0.8 239.2,-83.5 588.4,-3.4 12,2.8 24,-4.7 26.7,-16.8 2.8,-12 -4.7,-23.9 -16.7,-26.7 -118.9,-27.3 -224.7,-36.5 -313.5,-36.5"
         style="fill:#000000;fill-opacity:1;fill-rule:nonzero;stroke:none"
         id="path144" /><path
         d="m 20865.3,3970 c -0.2,0 -0.5,0 -0.7,0 l -336.1,11.2 c -12.3,0.4 -22,10.7 -21.6,23 0.4,12.3 11.1,22.2 23,21.5 l 336.1,-11.1 c 12.3,-0.4 22,-10.8 21.6,-23.1 -0.4,-12 -10.3,-21.5 -22.3,-21.5"
         style="fill:#000000;fill-opacity:1;fill-rule:nonzero;stroke:none"
         id="path146" /><path
         d="m 19155.6,5236.6 -53.8,-779 h -431.4 l -20.1,779 h 505.3"
         style="fill:#ffffff;fill-opacity:1;fill-rule:nonzero;stroke:none"
         id="path148" /><path
         d="m 18692.1,4479.9 h 388.9 l 50.7,734.4 h -458.5 z m 409.7,-44.6 h -431.4 c -12.1,0 -22,9.6 -22.3,21.7 l -20.1,779 c -0.1,6 2.2,11.8 6.4,16.1 4.1,4.3 9.9,6.8 15.9,6.8 h 505.3 c 6.2,0 12.1,-2.6 16.3,-7.1 4.2,-4.6 6.4,-10.6 5.9,-16.8 l -53.7,-778.9 c -0.8,-11.7 -10.5,-20.8 -22.3,-20.8"
         style="fill:#000000;fill-opacity:1;fill-rule:nonzero;stroke:none"
         id="path150" /><path
         d="m 19214.6,4017.8 c 1,-73.7 -49,-138.4 -120.3,-155.1 -248,-58.1 -806.8,-187.4 -966.2,-211.3 -206.8,-31 -461.1,32.8 -570.4,154.5 -109.3,121.8 244.8,412.6 412.8,518.4 249.6,157.2 489.4,467.9 590,481.9 100.5,13.9 288.2,-279.7 288.2,-279.7 l 306.9,129.7 c 0,0 53.5,-264.6 59,-638.4"
         style="fill:#ffffff;fill-opacity:1;fill-rule:nonzero;stroke:none"
         id="path152" /><path
         d="m 18568.1,4784.4 c -1.5,0 -3.1,-0.1 -4.5,-0.3 -43.3,-6 -132.8,-91.5 -227.6,-182 -106.5,-101.7 -227.2,-217 -353.6,-296.6 -138.3,-87.1 -404,-303.2 -422,-432 -3,-21.6 1.5,-38.8 13.9,-52.7 102,-113.6 343.8,-178.3 550.5,-147.4 159.3,23.9 727.5,155.6 964.4,211 60.6,14.3 104,70.2 103.1,133.1 -4.5,299.9 -40.3,531.1 -53.6,607.4 L 18857.4,4506 c -10,-4.3 -21.6,-0.7 -27.5,8.5 -72.9,114 -200.3,269.9 -261.8,269.9 z M 18020,3621.2 c -190.3,0 -386.2,66.6 -478.9,169.8 -21.4,23.9 -29.8,53.7 -24.9,88.7 21.4,153.2 307.3,378.4 442.4,463.5 122.6,77.2 241.6,190.9 346.6,291.1 113,108 194.7,186 252.2,193.9 100.8,14.2 251.1,-199.9 299.9,-273.9 l 289.6,122.5 c 6.2,2.6 13.2,2.3 19.1,-0.9 5.9,-3.1 10.1,-8.7 11.4,-15.3 0.6,-2.6 54,-270.9 59.5,-642.4 1.2,-83.7 -56.6,-158.2 -137.5,-177.2 -237.4,-55.6 -807,-187.6 -968,-211.7 -36.3,-5.5 -73.8,-8.1 -111.4,-8.1"
         style="fill:#000000;fill-opacity:1;fill-rule:nonzero;stroke:none"
         id="path154" /><path
         d="m 18023.1,3812.2 c -134.9,0 -255.5,22.1 -342.6,79.2 -10.3,6.8 -13.2,20.6 -6.4,30.9 6.7,10.3 20.6,13.2 30.8,6.4 320,-209.7 1172.8,100.6 1340.5,164.9 11.6,4.5 24.5,-1.3 28.8,-12.8 4.5,-11.5 -1.3,-24.4 -12.8,-28.8 -177,-67.9 -662.7,-239.8 -1038.3,-239.8"
         style="fill:#000000;fill-opacity:1;fill-rule:nonzero;stroke:none"
         id="path156" /><path
         d="m 18502.4,4236 c -5.6,0 -11.2,2.1 -15.6,6.4 l -178.7,175 c -8.8,8.6 -8.9,22.8 -0.3,31.6 8.6,8.8 22.7,8.9 31.5,0.3 l 178.7,-175 c 8.9,-8.6 9,-22.8 0.4,-31.6 -4.4,-4.4 -10.2,-6.7 -16,-6.7"
         style="fill:#000000;fill-opacity:1;fill-rule:nonzero;stroke:none"
         id="path158" /><path
         d="m 20957.4,10314.8 c 0,0 133.7,-2435.2 203.7,-3275.8 69.9,-840.7 -163.7,-2191.9 -163.7,-2191.9 l -665.9,35.2 c 0,0 -45.7,1643 -95.2,2099.2 0,0 -281.3,618.5 -364.7,1170.2 -83.3,551.6 -367.3,1422.9 -367.3,1422.9 0,0 -230.7,-4348.9 -252.9,-4690.6 0,0 -522.3,-23.4 -709.5,95.2 0,0 -331.7,1585.7 -284.1,2448.5 47.6,862.8 -4.7,3006.4 -4.7,3006.4 l 2704.3,-119.3"
         style="fill:#ffffff;fill-opacity:1;fill-rule:nonzero;stroke:none"
         id="path160" /><path
         d="m 20353.2,4903.5 625.5,-33.1 c 28.1,169.1 224.5,1393.2 160.1,2166.7 -65.8,790.9 -189.5,3020 -202.6,3256.3 l -2660.2,117.4 c 5.5,-237.9 48.5,-2179.5 4,-2984.3 -45,-815.5 254.5,-2300.3 281.8,-2433.3 164.6,-95.7 573.4,-90.3 668.6,-87.6 28.3,459.9 249.3,4627.4 251.6,4670.2 0.6,10.7 8.7,19.5 19.4,20.9 10.5,1.4 20.8,-4.9 24.1,-15.2 2.8,-8.7 285.5,-879.4 368.2,-1426.5 81.9,-542.1 360.1,-1158.1 362.9,-1164.2 1,-2.2 1.7,-4.5 1.9,-6.9 46,-424.2 89.2,-1889.1 94.7,-2080.4 z m 644.3,-78.7 c -0.5,0 -0.9,0 -1.2,0 l -666,35.2 c -11.6,0.6 -20.8,10.1 -21.2,21.7 -0.4,16.4 -45.9,1638.9 -94.6,2093.9 -22.3,49.9 -285.1,645.2 -364.9,1172.7 -64.2,424.5 -249.9,1046.3 -329.6,1302.5 -37.7,-709.8 -226.5,-4262.7 -246.4,-4568.2 -0.7,-11.4 -9.9,-20.4 -21.2,-20.9 -21.7,-1 -531.4,-22.3 -722.4,98.6 -5.1,3.3 -8.7,8.4 -9.9,14.3 -3.3,15.9 -331.8,1598.5 -284.6,2454.3 47.1,852.1 -4.2,2983.2 -4.7,3004.7 -0.2,6.1 2.3,12.1 6.7,16.4 4.4,4.3 10.4,6.5 16.6,6.4 l 2704.3,-119.3 c 11.4,-0.5 20.6,-9.7 21.2,-21.1 1.4,-24.4 134.5,-2444.5 203.7,-3275.2 69.4,-833.8 -161.6,-2184 -163.9,-2197.5 -1.8,-10.8 -11.2,-18.5 -21.9,-18.5"
         style="fill:#000000;fill-opacity:1;fill-rule:nonzero;stroke:none"
         id="path162" /><path
         d="M 20562.6,6959.4 H 20359 c -12.4,0 -22.3,9.9 -22.3,22.3 0,12.3 9.9,22.3 22.3,22.3 h 203.6 c 12.3,0 22.3,-10 22.3,-22.3 0,-12.4 -10,-22.3 -22.3,-22.3"
         style="fill:#000000;fill-opacity:1;fill-rule:nonzero;stroke:none"
         id="path164" /><path
         d="m 18908.9,5694.5 c -12.2,0 -22.1,9.7 -22.3,21.9 -7.1,390.3 -453.6,1124.2 -458.1,1131.6 -6.4,10.5 -3.1,24.2 7.4,30.7 10.5,6.4 24.2,3.1 30.7,-7.4 18.6,-30.5 457.2,-751.7 464.6,-1154.1 0.2,-12.3 -9.6,-22.4 -21.9,-22.7 -0.2,0 -0.3,0 -0.4,0"
         style="fill:#000000;fill-opacity:1;fill-rule:nonzero;stroke:none"
         id="path166" /><path
         d="m 17842.6,14167.1 c -36.9,2.9 -343.8,-524 -488.2,-775.6 -41,-71.5 -132.5,-94.8 -202.5,-51.6 l -1128.5,696.7 c -92.1,56.8 -171.2,133 -230.7,223.7 -94.3,143.6 -150.4,289.6 -276.5,391.6 -102.6,83 -206.5,175.2 -237.6,199.3 -19.5,15.1 -110,-49.3 -41.9,-163.7 21,-35.2 99.3,-106.4 120.7,-138.8 34.2,-51.6 34.2,-120.3 -3.8,-169.1 -40.5,-52 -74.3,-135.4 -28.8,-251.4 67.2,-171.7 219.6,-214.1 305.9,-224.1 43.4,-5 83.2,-26 112,-59 l 1041.4,-1193.3 c 161.6,-185.2 431.7,-227 641,-99.1 338.6,206.8 774.5,623.6 1088.5,1150.4 l -671,464"
         style="fill:#ffffff;fill-opacity:1;fill-rule:nonzero;stroke:none"
         id="path168" /><path
         d="m 15268.9,14830.4 c -6.1,-2.2 -18.2,-10.7 -26.5,-26.8 -10.4,-20.1 -16.4,-54.5 13.5,-104.7 10,-16.7 37.9,-46.2 62.6,-72.2 23.9,-25.2 46.5,-49 57.5,-65.7 40.4,-61 38.5,-139.4 -4.8,-195.1 -51,-65.5 -59.7,-142.8 -25.7,-229.6 63.2,-161.1 207.4,-200.8 287.8,-210.1 48.9,-5.6 93.7,-29.2 126.2,-66.5 l 1041.4,-1193.3 c 154.6,-177.2 412.3,-217.1 612.6,-94.7 300.7,183.7 738,574.9 1070.2,1124.9 l -641.5,443.7 c -39.6,-40.6 -180,-257.1 -468.4,-759.9 -22.9,-39.9 -60,-68.1 -104.4,-79.4 -44.4,-11.2 -90.2,-4.1 -129.2,19.9 l -1128.5,696.7 c -95,58.6 -177.2,138.3 -237.7,230.5 -27.9,42.6 -52.6,85.4 -76.4,126.7 -56.3,97.9 -109.5,190.3 -195.4,259.8 -59.9,48.4 -121.3,100.9 -166.2,139.2 -29.5,25.3 -53.5,45.7 -67.1,56.6 z m 1894.4,-2374 c -147.4,0 -292.7,62.3 -396,180.7 l -1041.4,1193.3 c -25.2,28.8 -59.9,47.1 -97.7,51.5 -90.3,10.5 -252.5,55.3 -324.2,238.1 -50,127.7 -10.2,219.1 32,273.3 31.5,40.5 32.7,98 2.8,143.1 -8.9,13.4 -31.1,36.9 -52.6,59.6 -27.6,29 -56.1,59.1 -68.6,80 -49.4,82.8 -25.5,148.9 10,180.2 22.6,20.1 48.6,25.1 64.6,12.6 13.5,-10.4 39.6,-32.8 72.8,-61.1 44.6,-38.2 105.8,-90.4 165.2,-138.4 92.4,-74.8 147.6,-170.7 206.1,-272.2 23.5,-40.8 47.8,-83 75,-124.6 56.9,-86.7 134.3,-161.7 223.8,-217 l 1128.5,-696.6 c 28.6,-17.7 62.3,-22.9 94.8,-14.6 32.6,8.2 59.8,29 76.7,58.3 453.7,791 486.9,788.3 509.3,786.8 3.9,-0.4 7.7,-1.7 10.9,-3.9 l 671,-464.1 c 9.7,-6.7 12.5,-19.7 6.5,-29.8 -337.7,-566.3 -787.6,-969.5 -1096.1,-1158 -85.1,-51.9 -179.7,-77.2 -273.4,-77.2"
         style="fill:#000000;fill-opacity:1;fill-rule:nonzero;stroke:none"
         id="path170" /><path
         d="m 21715.8,13187.1 c 0,0 75.1,1387.3 -973.6,1777 -812.1,301.8 -1849.2,171.6 -2174.2,58.9 -800.2,-277.6 -1194.1,-1334.9 -1194.1,-1334.9 l 937.8,-132.2 c 0,0 -282.6,-3037.7 -160,-3715.3 0,0 754.7,-88.6 1074.8,38.3 320.1,126.9 1372.6,304.7 1875.7,72.1 l -91.4,3249.2 705,-13.1"
         style="fill:#000000;fill-opacity:1;fill-rule:nonzero;stroke:none"
         id="path172" /><path
         d="m 18170.8,9861 c 112.1,-11.9 762.2,-74.4 1047.5,38.7 313.3,124.2 1336,301.5 1860.6,85.7 l -90.4,3214.1 c -0.2,6.1 2.2,12 6.4,16.4 4.3,4.3 10.7,6.4 16.3,6.6 l 683,-12.7 c 3.4,176.3 -9.6,1380.3 -959.8,1733.4 -784.6,291.6 -1809.5,180 -2159.1,58.7 -711.8,-246.9 -1103.3,-1132.3 -1170.2,-1295.7 l 909.8,-128.2 c 11.7,-1.6 20.1,-12.3 19,-24.1 -2.8,-30.1 -276.6,-2994.8 -163.1,-3692.9 z m 513.4,-73.1 c -269.2,0 -517.3,28.5 -535.1,30.6 -9.8,1.1 -17.6,8.5 -19.4,18.2 -117.7,650.6 130.9,3407.2 157.9,3700.1 l -916.8,129.2 c -6.7,1 -12.6,4.9 -16.1,10.7 -3.4,5.8 -4,12.9 -1.7,19.2 4,10.7 406.8,1070.3 1207.7,1348.1 354.7,123.1 1394.1,236.5 2189.2,-59 435.8,-161.9 744.8,-524.8 893.8,-1049.4 112.1,-394.6 94.6,-746.2 94.4,-749.7 -0.7,-11.8 -10.4,-21.1 -22.3,-21.1 -0.1,0 -0.2,0 -0.4,0 l -681.7,12.7 90.8,-3225.9 c 0.2,-7.7 -3.5,-15 -10,-19.3 -6.4,-4.2 -14.6,-4.8 -21.6,-1.6 -502.3,232.3 -1543.4,52.3 -1858.2,-72.5 -137.3,-54.5 -349.8,-70.3 -550.5,-70.3"
         style="fill:#ffffff;fill-opacity:1;fill-rule:nonzero;stroke:none"
         id="path174" /><path
         d="m 20408.7,10598.3 c -1.3,0 -2.6,0.1 -3.9,0.3 -1224.3,217.8 -1582.3,1075.7 -1585.8,1084.3 -4.6,11.4 0.9,24.4 12.4,29 11.3,4.6 24.4,-0.9 29,-12.3 3.4,-8.4 353.4,-843.8 1552.2,-1057.1 12.1,-2.1 20.2,-13.7 18,-25.8 -1.9,-10.8 -11.3,-18.4 -21.9,-18.4"
         style="fill:#ffffff;fill-opacity:1;fill-rule:nonzero;stroke:none"
         id="path176" /><path
         d="m 18171.1,12069.7 h 1536.5 l -481.3,1727.5 h -1536.4 l 481.2,-1727.5"
         style="fill:#ffffff;fill-opacity:1;fill-rule:nonzero;stroke:none"
         id="path178" /><path
         d="m 18188,12092 h 1490.2 l -468.8,1682.9 h -1490.2 z m 1519.6,-44.6 h -1536.5 c -10,0 -18.8,6.6 -21.5,16.3 l -481.2,1727.5 c -1.9,6.7 -0.5,14 3.7,19.5 4.2,5.6 10.8,8.8 17.8,8.8 h 1536.4 c 10,0 18.8,-6.7 21.5,-16.3 l 481.2,-1727.6 c 1.9,-6.7 0.5,-13.9 -3.7,-19.4 -4.2,-5.6 -10.8,-8.8 -17.7,-8.8"
         style="fill:#000000;fill-opacity:1;fill-rule:nonzero;stroke:none"
         id="path180" /><path
         d="m 21533.7,13185.9 -675.6,30.6 c 0,0 -5.1,-572.7 -66.1,-582.9 -217.2,-36.5 -672,-38.3 -968.1,-2.3 -103.1,12.5 -184.7,91.9 -204.1,194.6 -14.6,77.6 -56.3,168.7 -162.2,234.2 -102.2,63.4 -1.4,-136 -97,-264.4 -51.4,-69 -214.1,-38.4 -436,13.4 -221.8,51.7 -278.2,-187 -29.5,-331.2 269.5,-156.3 440.8,-138.8 526.8,-157.1 171.2,-36.5 1685.1,-275.3 1918.8,-147.5 180.5,98.8 193,1012.6 193,1012.6"
         style="fill:#ffffff;fill-opacity:1;fill-rule:nonzero;stroke:none"
         id="path182" /><path
         d="m 18866.4,12793.9 c -51.6,0 -90.1,-20.9 -105.3,-59.2 -23.8,-60 11.5,-160 145.2,-237.5 207.7,-120.5 354.1,-135.5 450.9,-145.3 26.7,-2.8 49.8,-5.1 69.3,-9.3 174.5,-37.2 1679.2,-272.4 1903.5,-149.7 134.9,73.8 175.7,706.5 181.1,971.7 l -631.1,28.6 c -0.7,-46.5 -3.1,-156.3 -9.8,-265.7 -17.5,-282.9 -46.4,-311.2 -74.5,-315.9 -222.5,-37.3 -677.8,-38.5 -974.4,-2.5 -112.2,13.7 -201.9,99.1 -223.4,212.7 -17.7,94.1 -68.9,167.9 -152,219.4 -7.2,4.4 -12,6.6 -15,7.7 -2.3,-10.4 -2.1,-33.5 -2,-51.1 0.5,-58.2 1.3,-146 -50.5,-215.4 -60.1,-80.7 -228,-48.9 -458.8,4.9 -18.9,4.4 -36.7,6.6 -53.2,6.6 z m 2180.6,-680.5 c -540,0 -1544.1,167.3 -1629.8,185.6 -17.2,3.6 -39.1,5.9 -64.6,8.5 -100.6,10.3 -252.6,25.8 -468.7,151.1 -156.5,90.8 -194.9,215.3 -164.3,292.5 22.6,57 89.7,107.7 210.1,79.7 200,-46.7 369.3,-80.5 413,-21.8 42.7,57.4 42.1,133.1 41.6,188.4 -0.3,45.6 -0.6,78.6 23.9,92.4 20.6,11.6 44.8,-0.6 61.2,-10.7 92.9,-57.6 152.5,-143.7 172.3,-249.1 17.9,-94.3 92.2,-165.3 184.9,-176.6 291.7,-35.4 738.1,-34.6 958.4,1.6 28.6,34.9 48.6,316.3 50.7,561.7 0.1,6.1 2.6,11.9 7,16 4.4,4.2 10.3,6.4 16.4,6.1 l 675.6,-30.7 c 12.1,-0.5 21.5,-10.5 21.3,-22.5 -1.3,-94.9 -18.1,-929.8 -204.6,-1031.8 -52.7,-28.8 -162.6,-40.4 -304.4,-40.4"
         style="fill:#000000;fill-opacity:1;fill-rule:nonzero;stroke:none"
         id="path184" /><path
         d="m 19207,14998.2 c 0,0 175,107.7 173.3,170.6 l 49.9,323.1 c 0.5,29.6 -17.7,56.1 -45.3,65.8 l -206.8,71.1 c -26.4,9.3 -43.4,35.3 -41.6,63.6 l 16.1,256.8 -81.1,71.7 c -6.4,5.7 -7.1,15.4 -1.7,22 l 128.1,156 c 41.8,59 83.9,200.2 118.2,190.5 0,0 729.8,84.3 765.4,-283.7 5.2,-53.3 -10.9,-106.5 -41.8,-150.1 l -64.6,-91.1 c -64.9,-91.5 -99.1,-203.7 -87.6,-315.8 2.4,-23.3 32.7,-173.3 53,-272.5 11.6,-56.3 42.8,-106.4 88.2,-141.3 57,-43.9 126.4,-99.8 115.1,-103.5 0,0 -80.8,-59.3 -208.4,-111.9 -226.6,-93.5 -484.3,-70.2 -693.7,57.6 l -34.7,21.1"
         style="fill:#ffffff;fill-opacity:1;fill-rule:nonzero;stroke:none"
         id="path186" /><path
         d="m 19249,14998.8 4.3,-2.7 c 204.4,-124.7 456.2,-145.7 673.6,-56 89.4,36.9 155.9,77.5 185.9,97.2 -13.2,12.4 -40.6,36 -97.7,79.9 -49.6,38.2 -83.8,93.1 -96.4,154.5 -33.5,163.6 -51.4,256 -53.4,274.7 -11.6,113.8 20.9,231.3 91.6,331 l 64.7,91.1 c 28.8,40.7 42.2,88.6 37.7,135 -6.1,63.4 -34.2,114.6 -85.9,156.3 -195.9,158.4 -650.2,107.9 -654.8,107.4 -1.5,-0.1 -2.9,-0.1 -4.4,0 -12.3,-9.3 -35.1,-58.2 -48.9,-87.9 -15.8,-34.1 -32.2,-69.3 -49.3,-93.3 l -125,-152.5 76.4,-67.6 c 5.1,-4.6 7.9,-11.3 7.5,-18.1 l -16.2,-256.8 c -1.1,-18.3 9.9,-35.2 26.8,-41.2 l 206.7,-71 c 36.8,-13 61,-48 60.3,-87.3 0,-1 -0.1,-2 -0.3,-3 l -49.6,-321.4 c -1.1,-57.7 -99.1,-131.6 -153.6,-168.3 z m 398.4,-158.3 c -144.8,0 -289.8,39.7 -417.3,117.5 l -34.7,21.2 c -6.6,4 -10.7,11.2 -10.7,19 0,7.7 4,15 10.6,19 78.9,48.6 163.5,120.1 162.7,151 -0.1,1.3 0,2.7 0.2,4 l 49.7,321.5 c -0.2,19.4 -12.3,36.6 -30.4,43 l -206.7,71 c -35.8,12.6 -59,48 -56.6,86.1 l 15.5,245.9 -73,64.6 c -15.4,13.6 -17.3,36.8 -4.2,52.7 l 128.1,156.1 c 13.7,19.4 29.3,52.8 44.3,85 30.8,66.2 55.5,119 92.1,113.8 47.2,5.1 481.4,46.7 684.4,-117.4 60.7,-49 95.1,-111.8 102.3,-186.7 5.5,-57 -10.7,-115.7 -45.8,-165.1 l -64.6,-91.1 c -64.5,-90.9 -94.2,-197.7 -83.6,-300.6 1,-9.7 9.2,-57.8 52.7,-270.3 10.4,-51 38.8,-96.5 79.9,-128.1 128.9,-99.3 127.3,-108.5 124.7,-123.8 -1.1,-5.8 -5,-11.6 -10,-15.3 -3.4,-2.5 -84.5,-61.6 -213.1,-114.7 -94.7,-39 -195.5,-58.3 -296.5,-58.3"
         style="fill:#000000;fill-opacity:1;fill-rule:nonzero;stroke:none"
         id="path188" /><path
         d="m 19291.8,16949.5 c 166.3,8.6 -44,-162.8 572.1,14.3 245.4,70.5 119.4,-217.4 183.1,-199.2 235.2,66.9 227.1,64.8 341.4,33.6 75.8,-20.6 124.1,-162.3 109,-267.8 -19.9,-139.2 -176.1,-360.2 -315.9,-593.8 -72.4,-121 -200.7,-131.9 -355.7,48.1 -16.5,19.2 67.8,132.1 23.8,180.7 -114.5,126.5 -165.3,-64.6 -257.7,-5.6 -88.7,56.7 -125.3,93.3 -219.1,178.9 -113.4,103.7 -303.9,-57.6 -369.6,175.6 -34.2,121.7 60.9,423.5 288.6,435.2"
         style="fill:#000000;fill-opacity:1;fill-rule:nonzero;stroke:none"
         id="path190" /><path
         d="m 13847.5,4201.7 c 0,0 50.9,-0.2 99.7,34.4 150.9,107 464.6,346 678.9,316.1 358.9,-50 401.4,-343 401.4,-343 0,0 302.7,11.2 296.7,-190.2 -4.6,-154.6 -92.7,-351 -337.4,-459.1 -333.6,-147.4 -668.1,-259.6 -1037.2,-17.8 -71.6,47 -156.7,68.9 -241.9,60.3 -207.4,-20.9 -3298.2,-87.5 -3298.2,-87.5 -707.03,0 -1355.67,392.4 -1683.96,1018.5 l -651.47,1242.7 746.38,2085.5 1170.42,-2719 c 567.03,-774 3797.53,-954.3 3856.63,-940.9"
         style="fill:#ffffff;fill-opacity:1;fill-rule:nonzero;stroke:none"
         id="path192" /><path
         d="m 13743.7,3626.5 c 76.4,0 152.6,-22.8 218.1,-65.7 361.4,-236.8 686.8,-125.9 1016,19.5 292.4,129.1 322,369 324.1,439.4 1.2,39.9 -10.9,72 -37,98 -74.6,74.1 -234.9,69.2 -236.6,69.2 -0.2,0 -0.5,0 -0.8,0 -11,0 -20.5,8.1 -22,19.1 -1.7,11.2 -45.3,277.2 -382.5,324.2 -190,26.3 -474.8,-177.6 -627.7,-287.2 l -35.2,-25.1 c -54.1,-38.3 -111,-38 -112.7,-38.5 -77.4,-4.3 -884.6,39.9 -1741.2,175.5 -808,127.8 -1834,365.9 -2133.32,774.5 -1,1.4 -1.84,2.9 -2.5,4.4 l -1148.01,2666.9 -724.01,-2022.9 646.93,-1234 c 325.51,-620.9 963.19,-1006.6 1664.21,-1006.6 30.4,0.7 3091.8,66.8 3296,87.4 12.7,1.3 25.4,1.9 38.2,1.9 z m 656.6,-246.8 c -149.6,0 -303.7,39.5 -462.9,143.8 -67.9,44.5 -148.7,64.6 -227.4,56.7 -205.9,-20.7 -3173.8,-84.8 -3300,-87.6 -718.16,0 -1370.98,394.9 -1704.21,1030.5 l -651.47,1242.6 c -2.9,5.5 -3.35,12 -1.24,17.9 l 746.38,2085.5 c 3.08,8.6 11.14,14.5 20.3,14.8 9.08,0.5 17.56,-5.1 21.18,-13.5 L 10010.3,5153.8 c 549.7,-742.7 3708.4,-945.7 3833.3,-930.1 1.6,0.3 2.2,0.4 3.9,0.3 1.3,0.1 45.3,0.9 86.8,30.3 l 35,25 c 169.1,121.2 452.1,324 659.9,295 316.8,-44.1 398.7,-274.3 416.2,-342.8 48.5,-0.8 178.4,-10.2 250.8,-82.1 35,-34.7 51.9,-78.8 50.3,-131.1 -2.3,-77 -34.4,-339.1 -350.7,-478.8 -190.1,-84 -388.4,-159.8 -595.5,-159.8"
         style="fill:#000000;fill-opacity:1;fill-rule:nonzero;stroke:none"
         id="path194" /><path
         d="m 13035.4,4760.7 298.9,523.2 245.4,-159.2 c 13.5,-8.8 24.8,-20.6 32.9,-34.6 l 14.7,-25.2 c 18.4,-31.8 52.6,-51.4 89,-51 19.7,0.3 39.2,-5.4 56,-16.3 L 15597,3815.8 c 15,-9.7 28.7,-21.4 40.8,-34.7 l 368.7,-408.8 -513.3,116 c -27.9,6.3 -55,16.2 -80.5,29.6 l -1920.3,1003.9 c -16.4,8.6 -30.3,21.5 -39.9,37.2 l -2.5,4 c -18.6,30.3 -51.7,48.9 -86.8,48.7 h -17.8 c -16.2,-0.1 -32.3,3.8 -46.9,11.5 l -263.1,137.5"
         style="fill:#ffffff;fill-opacity:1;fill-rule:nonzero;stroke:none"
         id="path196" /><path
         d="m 13363.6,4634 c 42.5,0 82.9,-22.7 105.4,-59.3 l 2.4,-3.9 c 7.7,-12.4 18.5,-22.5 31.3,-29.2 l 1920.3,-1004 c 23.8,-12.4 49.1,-21.7 75.2,-27.6 l 444.7,-100.4 -321.7,356.5 c -10.7,11.9 -22.9,22.3 -36.4,31 l -1824.7,1181.8 c -13.1,8.5 -27.9,13.4 -43.5,12.7 -0.5,0 -1,0 -1.5,0 -43.9,0 -84.9,23.7 -107.1,62.1 l -14.7,25.2 c -6.3,10.9 -15.2,20.3 -25.8,27.1 l -225.5,146.4 -275.7,-482.7 242.5,-126.8 c 11.4,-5.9 23.6,-8.8 36.5,-8.9 h 17.8 c 0.2,0 0.3,0 0.5,0 z m 2642.9,-1284 c -1.6,0 -3.2,0.2 -4.9,0.5 l -513.3,116 c -29.8,6.7 -58.7,17.4 -85.9,31.6 l -1920.4,1004 c -19.9,10.4 -36.7,26.1 -48.5,45.3 l -2.5,3.9 c -14.4,23.5 -40.3,38.1 -67.4,38.1 -0.2,0 -0.2,0 -0.3,0 h -17.8 c -0.2,0 -0.3,0 -0.5,0 -19.6,0 -39.2,4.8 -56.8,14 l -263.1,137.5 c -5.4,2.8 -9.4,7.7 -11.1,13.5 -1.7,5.8 -1,12.1 2.1,17.4 L 13315,5295 c 3,5.3 8.1,9.1 14.1,10.6 5.9,1.4 12.2,0.4 17.4,-3 l 245.3,-159.2 c 16.4,-10.6 30.3,-25.1 40.1,-42.1 l 14.7,-25.2 c 14.3,-24.7 40.4,-39.9 68.5,-39.9 0.7,0 1.6,0 2.5,0 23.6,0 46.7,-6.8 66.8,-19.9 l 1824.7,-1181.7 c 16.7,-10.9 31.9,-23.8 45.2,-38.6 l 368.8,-408.8 c 6.5,-7.2 7.6,-17.8 2.7,-26.2 -4.1,-6.9 -11.5,-11 -19.3,-11"
         style="fill:#000000;fill-opacity:1;fill-rule:nonzero;stroke:none"
         id="path198" /><path
         d="m 15504.7,3562.5 c -3.4,0 -6.9,0.8 -10.2,2.5 -10.9,5.7 -15.2,19.1 -9.6,30.1 l 109.6,212.3 c 5.7,10.9 19.1,15.2 30.1,9.6 10.9,-5.7 15.2,-19.1 9.6,-30.1 l -109.6,-212.3 c -4,-7.6 -11.8,-12.1 -19.9,-12.1"
         style="fill:#000000;fill-opacity:1;fill-rule:nonzero;stroke:none"
         id="path200" /><path
         d="m 12909.3,5543 434.8,-262.8 -306.8,-522.4 -434.8,262.8 c -79.7,48.1 -107,150.6 -61,228.9 l 140.3,238.9 c 45.9,78.3 147.8,102.7 227.5,54.6"
         style="fill:#000000;fill-opacity:1;fill-rule:nonzero;stroke:none"
         id="path202" /><path
         d="m 12821.7,5545.4 c -11.8,0 -23.7,-1.4 -35.4,-4.4 -36.2,-9.2 -66.5,-31.9 -85.3,-63.9 l -140.3,-238.9 c -39.8,-67.7 -15.9,-156.7 53.3,-198.5 l 415.5,-251.1 284.2,483.9 -416,251.4 c -23.5,14.2 -49.7,21.5 -76,21.5 z m 215.6,-809.9 c -4,0 -8,1.1 -11.5,3.2 l -434.9,262.8 c -89.9,54.4 -120.7,170.7 -68.7,259.3 l 140.3,238.9 c 24.9,42.4 65,72.4 112.9,84.5 49.4,12.5 101,4.7 145.4,-22.1 l 434.8,-262.8 c 10.5,-6.3 13.9,-19.9 7.7,-30.4 l -306.8,-522.4 c -3,-5.1 -7.9,-8.9 -13.7,-10.3 -1.8,-0.5 -3.7,-0.7 -5.5,-0.7"
         style="fill:#000000;fill-opacity:1;fill-rule:nonzero;stroke:none"
         id="path204" /><path
         d="m 13465.5,4664 c -3.9,0 -7.8,1 -11.4,3.2 -10.6,6.4 -14,20.1 -7.6,30.6 l 147.9,245.8 c 6.4,10.5 20.1,13.9 30.6,7.6 10.6,-6.4 14,-20.1 7.6,-30.7 l -147.9,-245.7 c -4.2,-6.9 -11.6,-10.8 -19.2,-10.8"
         style="fill:#000000;fill-opacity:1;fill-rule:nonzero;stroke:none"
         id="path206" /><path
         d="m 14338.8,4456.2 c -4,0 -8.1,1.1 -11.8,3.4 l -544.5,341.8 c -10.5,6.5 -13.6,20.3 -7.1,30.7 6.6,10.5 20.4,13.6 30.8,7.1 l 544.5,-341.8 c 10.4,-6.6 13.6,-20.3 7,-30.7 -4.2,-6.8 -11.5,-10.5 -18.9,-10.5"
         style="fill:#000000;fill-opacity:1;fill-rule:nonzero;stroke:none"
         id="path208" /><path
         d="m 15473.9,3752.1 c -4,0 -8.1,1.1 -11.7,3.4 l -212.7,132.4 c -10.5,6.6 -13.7,20.3 -7.2,30.8 6.5,10.4 20.3,13.6 30.7,7.1 l 212.7,-132.4 c 10.5,-6.5 13.7,-20.3 7.2,-30.8 -4.3,-6.7 -11.5,-10.5 -19,-10.5"
         style="fill:#000000;fill-opacity:1;fill-rule:nonzero;stroke:none"
         id="path210" /><path
         d="m 12988.8,4945.4 c -4,0 -8,1.1 -11.6,3.3 l -331.4,203.5 c -10.5,6.5 -13.8,20.2 -7.3,30.7 6.4,10.5 20.2,13.8 30.7,7.3 l 331.3,-203.5 c 10.5,-6.4 13.8,-20.1 7.4,-30.6 -4.3,-6.9 -11.6,-10.7 -19.1,-10.7"
         style="fill:#ffffff;fill-opacity:1;fill-rule:nonzero;stroke:none"
         id="path212" /><path
         d="m 13847.5,4201.7 c 0,0 445.4,55.5 729,16.2 220.9,-30.7 874.7,126.3 738.1,-296.6 -29.4,-91.1 -44.9,-151.8 -125.9,-237.7 -44.2,-47 -165.4,-143.9 -234.1,-174.2 -333.9,-147.5 -636.5,-209.3 -1006.1,33.5 -71.2,46.7 -156,68 -240.7,59.5 -49.3,-5 124,595.8 139.7,599.3"
         style="fill:#ffffff;fill-opacity:1;fill-rule:nonzero;stroke:none"
         id="path214" /><path
         d="m 14446.2,3357.7 c -163.4,0 -329.3,47.9 -509.9,166.5 -67.1,44 -147.2,63.9 -226.2,56 -54.4,-5.5 -228.7,-11.5 -236.1,-11.8 -12.3,-0.6 -22.6,9.2 -23,21.5 -0.5,12.3 9.1,22.7 21.5,23.1 1.8,0 180.2,6.3 233.1,11.6 89,8.9 179.6,-13.5 255.2,-63.1 353.7,-232.3 639,-184.4 984.8,-31.7 64,28.3 183,122.5 226.9,169.1 72,76.4 89.1,130 115,211.1 l 5.9,18.1 c 25.3,78.5 23.1,136 -6.8,175.9 -66.4,88.5 -263.7,82.9 -437.8,78.1 -109.5,-3.1 -212.9,-6 -278.9,14.5 -336.5,104.5 -711.8,-14.9 -715.5,-16.1 -18.6,-4.3 -67.1,-2.8 -180.8,4.9 -12.3,0.8 -21.5,11.5 -20.7,23.8 0.8,12.3 11.2,21.6 23.8,20.7 98.8,-6.7 154.5,-8.9 165.8,-6.4 13.9,4.6 390.4,124.5 740.6,15.7 58.9,-18.3 158.8,-15.5 264.4,-12.6 185,5.3 394.6,11.1 474.8,-95.9 38.7,-51.6 43.2,-124.4 13.5,-216.3 l -5.8,-18 c -26.7,-83.8 -46.1,-144.3 -125,-228.1 -46.2,-49 -170.5,-148 -241.3,-179.3 -178.7,-78.9 -346.7,-131.3 -517.5,-131.3"
         style="fill:#000000;fill-opacity:1;fill-rule:nonzero;stroke:none"
         id="path216" /><path
         d="m 6998.77,9322.8 c 0,0 1371.63,-181.7 1827.18,-736.8 576.94,-703 825.63,-1747.5 906.43,-2199 23.74,-132.6 20.91,-268.5 -8.36,-400 l -33.57,-150.8 C 9571.97,5304 9086.55,4935.1 8542.02,4963.4 h 27.27 c -88.02,4.5 -216.39,33.6 -253.66,113.5 l -144.1,262.9 -13.56,-94.7 c -108.33,-699.6 457.05,-1657.9 457.05,-1657.9 l -1622.33,218.9 c -833.51,83.7 -1626.65,412.1 -2262.96,957 -345.51,295.8 -612.63,572.5 -727.88,908.7 -195.69,570.7 -177.82,733.4 -232.7,1425.9 -37.37,471.5 100.98,942.5 396.71,1311.6 434.6,542.5 1271.22,1111.6 2832.91,913.5"
         style="fill:#ffffff;fill-opacity:1;fill-rule:nonzero;stroke:none"
         id="path218" /><path
         d="m 6390.87,9340.6 c -1180.97,0 -1846.43,-494.4 -2207.6,-945.2 -290.24,-362.3 -429.42,-822.5 -391.88,-1296 8.76,-110.6 15.67,-207.7 21.89,-295 32.64,-458.6 46.15,-648.5 209.66,-1125.4 120.04,-350.1 417.61,-639 721.29,-899 628.13,-537.8 1406.4,-866.9 2250.69,-951.7 l 1578.36,-212.9 c -106.13,190 -534.48,1005.8 -437.34,1633.1 l 13.51,94.5 c 1.35,9.5 8.65,17 18.09,18.8 9.37,1.6 18.93,-2.9 23.54,-11.3 l 144.11,-262.9 c 31.89,-68.2 146.56,-97.3 235.26,-102 2.12,-0.1 4.14,-0.5 6.05,-1.1 521.44,-11.9 978.06,343.9 1092.19,856.6 l 33.56,150.8 c 28.77,129.2 31.51,260.8 8.18,391.2 -58.54,327 -296.55,1451.4 -901.72,2188.8 -444.83,542 -1799.23,727 -1812.87,728.8 -215.22,27.3 -416.67,39.9 -604.97,39.9 z M 8615.03,3564.9 c -0.99,0 -1.98,0.1 -2.98,0.2 L 6989.7,3784 c -852.64,85.6 -1639.4,418.3 -2274.48,962.1 -308.49,264.2 -610.98,558.2 -734.47,918.5 -165.4,482.4 -179.03,673.9 -211.96,1136.6 -6.22,87.3 -13.13,184.2 -21.88,294.7 -38.43,484.8 104.18,956.2 401.56,1327.4 425.87,531.5 1266.49,1123 2853.11,921.7 0.04,-0.1 0.08,-0.1 0.12,-0.1 56.37,-7.4 1385.6,-189.2 1841.48,-744.8 612.02,-745.7 852.14,-1879.4 911.16,-2209.2 24.38,-136.2 21.5,-273.7 -8.55,-408.7 l -33.56,-150.8 c -121.3,-544.9 -613.53,-919.3 -1171.37,-890.2 -3.74,0.2 -7.22,1.3 -10.24,3.1 -96.71,11.3 -200.23,48.2 -235.2,123.2 l -111.28,202.9 -4.09,-28.5 c -105.92,-684 448.57,-1633.8 454.19,-1643.3 4.34,-7.4 4.09,-16.6 -0.63,-23.7 -4.16,-6.3 -11.18,-10 -18.58,-10"
         style="fill:#000000;fill-opacity:1;fill-rule:nonzero;stroke:none"
         id="path220" /><path
         d="m 8264.63,5070.6 c -8.33,0 -16.32,4.6 -20.14,12.7 L 7860.32,5890 c -5.29,11.2 -0.57,24.5 10.55,29.8 11.1,5.2 24.42,0.6 29.72,-10.6 l 384.17,-806.8 c 5.29,-11.1 0.58,-24.4 -10.56,-29.7 -3.09,-1.4 -6.34,-2.1 -9.57,-2.1"
         style="fill:#000000;fill-opacity:1;fill-rule:nonzero;stroke:none"
         id="path222" /><path
         d="m 7213.8,12070 100.72,67.2 c 80.83,53.9 114.87,156.1 81.16,247.2 -101.17,273.4 -470.1,749.9 -1812.06,388 -1368.37,-369 -1126.44,-2564.6 39.26,-3033.8 1165.69,-469.2 1561.59,1942.9 1561.59,1942.9 l 29.33,388.5"
         style="fill:#000000;fill-opacity:1;fill-rule:nonzero;stroke:none"
         id="path224" /><path
         d="m 7045.59,12019.7 c 15.62,83.8 127.11,102.2 169.28,28.2 102.38,-179.7 151.19,-304.8 167.55,-381.1 21.99,-102.6 -73.31,-205.3 -22,-315.3 51.33,-109.9 131.97,-234.6 139.3,-432.5 7.16,-193.4 203.33,-1079.9 -485.39,-1051.9 -27.04,1.1 -49.66,-20.2 -49.32,-47.2 1.67,-135 8.9,-506.1 38.86,-707 16.34,-109.5 -51.9,-213.6 -158.44,-243.7 -275.71,-77.9 -789.04,-187.5 -1173.18,-62.6 -99.87,32.5 -152.28,142 -116.69,240.7 45.41,126.1 108.86,480.5 67.32,691.3 0,0 230.03,22.7 486.17,140.2 393.72,180.6 587.45,620.4 478.66,1039.7 -23.41,90.2 -74.02,218.4 -21.29,354.2 136.03,350.3 339.46,-1.8 339.46,-1.8 l 139.71,748.8"
         style="fill:#ffffff;fill-opacity:1;fill-rule:nonzero;stroke:none"
         id="path226" /><path
         d="m 5648.92,9719.4 c 34.27,-219.3 -27.38,-554.7 -72.38,-679.6 -15.31,-42.5 -12.8,-88.3 7.05,-128.8 19.56,-40 53.49,-69.5 95.55,-83.2 379.29,-123.3 889.72,-13.5 1160.23,62.9 95.8,27 157.03,121.1 142.44,218.9 -29.82,199.9 -37.28,563.1 -39.11,710 -0.23,19 7.17,36.8 20.84,50.1 13.66,13.3 32.39,20.5 51.69,19.7 153.46,-6.2 272.11,34.6 353.03,121.3 185.43,198.7 142.09,592 118.81,803.4 -4.86,44.1 -8.7,79 -9.64,104.1 -5.93,160.1 -60.85,269.9 -109.31,366.9 -9.8,19.6 -19.27,38.5 -27.91,57 -32.23,69.1 -12.93,135.7 4.09,194.5 12.78,44.1 24.83,85.8 16.3,125.5 -10.88,50.8 -46.8,167.1 -165.12,374.8 -17.69,31 -48.62,37.9 -71.71,34.1 -22.93,-3.9 -49.75,-20.5 -56.26,-55.4 l -139.71,-748.8 c -1.71,-9.2 -8.95,-16.3 -18.14,-17.9 -9.07,-1.6 -18.4,2.8 -23.09,10.8 -24.59,42.5 -103.9,151.2 -177.87,145.7 -45.72,-3.6 -86.59,-50.9 -121.49,-140.8 -42.92,-110.5 -12.84,-216.4 11.33,-301.5 3.86,-13.6 7.55,-26.6 10.74,-39 112.92,-435.1 -93.55,-883.3 -490.93,-1065.6 -211.84,-97.2 -403.62,-130.1 -469.43,-139.1 z m 428.52,-991.6 c -142.52,0 -284.25,16 -412.09,57.6 -53.64,17.5 -96.91,55.1 -121.82,106 -25.21,51.5 -28.39,109.5 -8.95,163.5 43.94,122 107.21,472.4 66.42,679.4 -1.21,6.2 0.23,12.6 3.98,17.6 3.75,5.1 9.45,8.3 15.71,8.9 2.27,0.3 229.61,23.8 479.06,138.3 377.7,173.3 573.84,599.7 466.36,1013.8 -3.11,12.1 -6.72,24.7 -10.49,38 -24.61,86.7 -58.32,205.4 -9.99,329.9 41.66,107.2 95.38,164.1 159.69,169.1 78.68,6 149.66,-69.7 188.62,-121.5 l 129.73,695.4 c 8.83,47.4 45.22,83.2 92.7,91.1 47.53,8.1 93.91,-13.9 117.87,-56 115.21,-202.2 156.03,-322.3 169.99,-387.4 10.87,-50.8 -3.35,-99.8 -17.09,-147.3 -16.28,-56.2 -31.66,-109.3 -6.5,-163.2 8.47,-18.2 17.75,-36.8 27.37,-56 47.99,-96 107.71,-215.4 114,-385.2 0.87,-23.5 4.82,-59.3 9.4,-100.9 24.07,-218.4 68.86,-625 -130.54,-838.6 -90.19,-96.7 -220.66,-142.4 -387.45,-135.5 -7.32,0.3 -13.8,-2.2 -18.81,-7.1 -4.79,-4.6 -7.39,-10.9 -7.31,-17.6 1.82,-145.9 9.22,-506.7 38.63,-703.9 17.88,-119.9 -57.1,-235.3 -174.43,-268.5 -185.23,-52.3 -481.26,-119.9 -774.06,-119.9"
         style="fill:#000000;fill-opacity:1;fill-rule:nonzero;stroke:none"
         id="path228" /><path
         d="m 5032.7,12328.6 c 0,0 -673.34,321.4 -1163.04,-137.7 -489.7,-459.1 -964.1,-1469.1 -229.55,-2570.9 461.63,-692.5 639.19,-1239.9 707.41,-1551 22.85,-104.3 159.38,-130.3 218.53,-41.5 295.63,443.7 834.96,1422.5 573.77,2342.3 -351.97,1239.6 -107.12,1958.8 -107.12,1958.8"
         style="fill:#000000;fill-opacity:1;fill-rule:nonzero;stroke:none"
         id="path230" /><path
         d="m 7501.64,11005.5 c -7.58,0 -14.97,3.9 -19.14,10.9 -6.34,10.5 -2.92,24.2 7.64,30.6 220.99,132.6 77.84,507.3 38.11,599.8 l -625.22,-319.2 c -10.95,-5.5 -24.42,-1.2 -30,9.8 -5.6,10.9 -1.26,24.4 9.72,30 l 646.14,329.8 c 5.33,2.8 11.57,3.2 17.24,1.3 5.7,-1.9 10.37,-6 12.99,-11.4 9.93,-20.6 240.2,-506.6 -46.02,-678.4 -3.6,-2.1 -7.55,-3.2 -11.46,-3.2"
         style="fill:#000000;fill-opacity:1;fill-rule:nonzero;stroke:none"
         id="path232" /><path
         d="m 7519.47,10749.2 c -5.74,0 -11.48,2.2 -15.84,6.6 -8.68,8.8 -8.61,22.9 0.13,31.6 l 88.13,87.3 c 26.84,26.6 30.33,68.2 8.32,98.9 l -60.62,84.6 c -7.18,10 -4.87,24 5.14,31.1 10,7.2 23.95,4.9 31.12,-5.1 l 60.63,-84.6 c 34.82,-48.6 29.29,-114.4 -13.18,-156.5 l -88.13,-87.4 c -4.34,-4.3 -10.03,-6.5 -15.7,-6.5"
         style="fill:#000000;fill-opacity:1;fill-rule:nonzero;stroke:none"
         id="path234" /><path
         d="m 6810.37,10672.5 c -14.36,0 -29.64,1.6 -45.59,5.6 -76.25,18.9 -141.74,84.1 -194.65,193.8 -5.34,11.1 -0.68,24.4 10.4,29.8 11.1,5.4 24.43,0.7 29.79,-10.4 46.71,-96.8 102.08,-154 164.6,-169.8 67.17,-17 121.29,21.3 121.82,21.7 9.98,7.2 23.89,5 31.13,-4.9 7.23,-9.9 5.13,-23.8 -4.76,-31.1 -2.33,-1.7 -48.1,-34.7 -112.74,-34.7"
         style="fill:#000000;fill-opacity:1;fill-rule:nonzero;stroke:none"
         id="path236" /><path
         d="m 4863.49,12389.3 c 0,0 625.65,-188.4 369.54,-788.5 0,0 289.04,208.6 281.72,534.2 -7.32,325.7 -248.8,431.8 -409.78,428.1 -160.99,-3.7 -241.48,-173.8 -241.48,-173.8"
         style="fill:#ffffff;fill-opacity:1;fill-rule:nonzero;stroke:none"
         id="path238" /><path
         d="m 4896.05,12401.7 c 73.72,-27.6 281.82,-120.6 375.37,-320.7 55.92,-119.5 60.3,-255.5 13.25,-405.1 82.11,81.3 212.6,244.7 207.79,458.6 -3.1,137.8 -51.2,248.7 -139.12,320.8 -67.71,55.5 -160.7,87.1 -247.86,85.5 -111.6,-2.5 -182.4,-95.7 -209.43,-139.1 z m 336.97,-823.2 c -4.93,0 -9.87,1.7 -13.93,4.9 -7.82,6.3 -10.52,17 -6.59,26.2 72.82,170.6 79.1,322.8 18.65,452.3 -103.65,222 -371.41,305.2 -374.1,306.1 -6.22,1.8 -11.31,6.3 -13.93,12.3 -2.64,5.9 -2.56,12.7 0.21,18.5 3.53,7.5 88.36,182.7 261.13,186.6 99.49,2.2 200.36,-32.6 277.17,-95.6 68.54,-56.2 151.12,-163.3 155.42,-354.3 7.5,-333.5 -278.79,-543.9 -290.99,-552.7 -3.89,-2.8 -8.47,-4.3 -13.04,-4.3"
         style="fill:#000000;fill-opacity:1;fill-rule:nonzero;stroke:none"
         id="path240" /><path
         d="m 3670.44,7259.8 c 516.35,-312.1 1566.5,-757 3256.6,-653.8 124.28,7.5 239.18,-66.1 283.04,-182.7 l 105.43,-422 C 7500.89,5259.4 7849.5,4568.2 8335.93,3978.1 l 252.5,-306.3 c 38.86,-47.1 2.27,-117.9 -58.66,-113.4 l -1114.32,81.9 C 5502.71,3893.3 4016.7,4852.6 3540.08,6600.2 l -127.13,466.2 c -41.26,151.3 123.29,274.5 257.49,193.4"
         style="fill:#000000;fill-opacity:1;fill-rule:nonzero;stroke:none"
         id="path242" /><path
         d="m 14183,19147.6 h 3669.3 c 207.7,0 366.7,-169 366.7,-376.8 v -1061.9 c 0,-207.7 -159,-375.5 -366.7,-375.5 -1.9,0 -57.8,0 -132.7,0 v -709.2 l -482.8,709.2 c -701.7,0 -3053.8,0 -3053.8,0 -207.7,0 -385.6,167.8 -385.6,375.5 v 1061.9 c 0,207.8 177.9,376.8 385.6,376.8"
         style="fill:#ffffff;fill-opacity:1;fill-rule:nonzero;stroke:none"
         id="path244" /><path
         d="m 14183,19125.3 c -196.9,0 -363.3,-162.4 -363.3,-354.5 v -1061.9 c 0,-191.5 166.4,-353.2 363.3,-353.2 h 3053.8 c 7.4,0 14.3,-3.7 18.5,-9.8 l 442,-649.3 v 636.8 c 0,12.3 10,22.3 22.3,22.3 h 132.7 c 193.1,0 344.3,155.1 344.3,353.2 v 1061.9 c 0,198.8 -151.2,354.5 -344.3,354.5 z m 3536.6,-2523.4 c -7.2,0 -14.2,3.6 -18.4,9.8 l -476.2,699.4 h -3042 c -221.1,0 -407.9,182.2 -407.9,397.8 v 1061.9 c 0,216.3 186.8,399.1 407.9,399.1 h 3669.3 c 218.1,0 389,-175.3 389,-399.1 v -1061.9 c 0,-223.1 -170.9,-397.8 -389,-397.8 H 17742 v -686.9 c 0,-9.8 -6.4,-18.4 -15.8,-21.3 -2.2,-0.6 -4.4,-1 -6.6,-1"
         style="fill:#000000;fill-opacity:1;fill-rule:nonzero;stroke:none"
         id="path246" /><path
         d="m 15560.9,17977.3 c -3.1,0 -6.2,0.6 -9.2,2 l -505.4,229.2 c -7.9,3.6 -13.1,11.5 -13.1,20.3 0,8.7 5.1,16.6 13.1,20.3 l 505.3,230.6 c 11.3,5.1 24.5,0.2 29.6,-11.1 5.1,-11.2 0.2,-24.4 -11,-29.5 l -460.8,-210.3 460.7,-208.9 c 11.2,-5.1 16.2,-18.3 11.1,-29.5 -3.7,-8.3 -11.8,-13.1 -20.3,-13.1"
         style="fill:#000000;fill-opacity:1;fill-rule:nonzero;stroke:none"
         id="path248" /><path
         d="m 16284.8,17977.3 c -8.5,0 -16.6,4.8 -20.3,13.1 -5.1,11.2 -0.1,24.4 11.1,29.5 l 460.7,208.9 -460.8,210.3 c -11.2,5.1 -16.1,18.3 -11,29.5 5.1,11.3 18.3,16.2 29.6,11.1 l 505.3,-230.6 c 8,-3.7 13.1,-11.6 13.1,-20.3 0,-8.8 -5.1,-16.7 -13.1,-20.3 l -505.4,-229.2 c -3,-1.4 -6.1,-2 -9.2,-2"
         style="fill:#000000;fill-opacity:1;fill-rule:nonzero;stroke:none"
         id="path250" /><path
         d="m 15712.7,17708.2 c -2.6,0 -5.3,0.5 -8,1.5 -11.5,4.4 -17.2,17.3 -12.8,28.8 l 393.4,1029.2 c 4.4,11.5 17.3,17.3 28.8,12.9 11.5,-4.4 17.3,-17.3 12.9,-28.8 l -393.4,-1029.2 c -3.4,-8.9 -11.9,-14.4 -20.9,-14.4"
         style="fill:#000000;fill-opacity:1;fill-rule:nonzero;stroke:none"
         id="path252" /><path
         d="m 14990.8,5295.1 c -8.6,0 -16.7,5 -20.4,13.3 -5,11.3 0.1,24.4 11.3,29.4 1150.8,509.8 2194.6,1335.7 3018.5,2388.6 7.5,9.7 21.6,11.5 31.3,3.8 9.7,-7.5 11.4,-21.6 3.8,-31.3 -828.4,-1058.6 -1878,-1889.2 -3035.5,-2401.9 -2.9,-1.3 -6,-1.9 -9,-1.9"
         style="fill:#000000;fill-opacity:1;fill-rule:nonzero;stroke:none"
         id="path254" /><path
         d="m 14880.4,4707.3 c -8.9,0 -17.3,5.4 -20.8,14.2 -4.4,11.5 1.3,24.4 12.8,28.9 1107.1,429.5 2099,1110.5 2948.1,2024 8.4,9 22.6,9.5 31.5,1.2 9,-8.4 9.6,-22.5 1.2,-31.6 -853.8,-918.5 -1851.2,-1603.3 -2964.7,-2035.2 -2.7,-1 -5.4,-1.5 -8.1,-1.5"
         style="fill:#000000;fill-opacity:1;fill-rule:nonzero;stroke:none"
         id="path256" /><path
         d="m 10002.2,20894.6 c -10.12,0 -19.3,6.9 -21.68,17.2 -2.77,12 4.73,24 16.73,26.8 1152.25,265.7 2293.75,283.5 3392.65,53 12.1,-2.6 19.8,-14.4 17.2,-26.4 -2.5,-12.1 -14.3,-19.8 -26.4,-17.3 -1092.5,229.2 -2227.5,211.5 -3373.4,-52.8 -1.7,-0.4 -3.4,-0.5 -5.1,-0.5"
         style="fill:#000000;fill-opacity:1;fill-rule:nonzero;stroke:none"
         id="path258" /><path
         d="m 13818.2,21360.1 c -1.8,0 -3.7,0.3 -5.6,0.7 -941.6,244.2 -1927.1,305.9 -2929.2,183.5 -12.2,-1.4 -23.3,7.2 -24.8,19.4 -1.5,12.2 7.2,23.4 19.4,24.9 1007.7,123.1 1998.8,61 2945.8,-184.6 11.9,-3.1 19.1,-15.2 16,-27.2 -2.6,-10 -11.7,-16.7 -21.6,-16.7"
         style="fill:#000000;fill-opacity:1;fill-rule:nonzero;stroke:none"
         id="path260" /><path
         d="m 14301,5247.2 c 0,82.4 66.8,149.1 149.2,149.1 82.4,0 149.2,-66.7 149.2,-149.1 0,-82.3 -66.8,-149.1 -149.2,-149.1 -82.4,0 -149.2,66.8 -149.2,149.1"
         style="fill:#000000;fill-opacity:1;fill-rule:nonzero;stroke:none"
         id="path262" /><path
         d="m 4070.24,13959.2 c -5.55,0 -11.1,2.1 -15.43,6.2 -8.89,8.6 -9.19,22.7 -0.67,31.6 l 82.07,85.6 c 8.52,8.9 22.65,9.2 31.53,0.7 8.9,-8.5 9.19,-22.6 0.68,-31.5 l -82.07,-85.7 c -4.38,-4.6 -10.24,-6.9 -16.11,-6.9"
         style="fill:#000000;fill-opacity:1;fill-rule:nonzero;stroke:none"
         id="path264" /><path
         d="m 3783.02,13659.4 c -5.55,0 -11.11,2 -15.43,6.2 -8.9,8.5 -9.19,22.6 -0.68,31.5 l 82.07,85.7 c 8.53,8.9 22.67,9.2 31.54,0.7 8.89,-8.5 9.19,-22.7 0.68,-31.6 l -82.07,-85.6 c -4.38,-4.6 -10.24,-6.9 -16.11,-6.9"
         style="fill:#000000;fill-opacity:1;fill-rule:nonzero;stroke:none"
         id="path266" /><path
         d="m 3863.54,13954.6 c -5.65,0 -11.3,2.2 -15.65,6.4 l -83.31,82 c -8.77,8.7 -8.88,22.8 -0.24,31.6 8.64,8.8 22.76,8.9 31.54,0.2 l 83.31,-82 c 8.78,-8.6 8.89,-22.7 0.25,-31.5 -4.37,-4.4 -10.14,-6.7 -15.9,-6.7"
         style="fill:#000000;fill-opacity:1;fill-rule:nonzero;stroke:none"
         id="path268" /><path
         d="m 4155.1,13667.7 c -5.65,0 -11.31,2.1 -15.65,6.4 l -83.3,81.9 c -8.78,8.7 -8.88,22.8 -0.25,31.6 8.65,8.8 22.77,8.9 31.55,0.2 l 83.3,-81.9 c 8.78,-8.7 8.88,-22.8 0.25,-31.6 -4.37,-4.4 -10.14,-6.6 -15.9,-6.6"
         style="fill:#000000;fill-opacity:1;fill-rule:nonzero;stroke:none"
         id="path270" /><path
         d="m 14190,21359.5 h 0.3 z m 80.3,-4.9 c -24.2,0 -48.4,-5.2 -71.1,-15.4 -89.6,-40.2 -130.3,-147.4 -90.8,-238.9 19.2,-44.7 54.4,-78.9 99.1,-96.2 43.6,-17 91.2,-15.7 134,3.5 89.6,40.2 130.3,147.4 90.8,238.9 -19.3,44.7 -54.5,78.8 -99.1,96.2 -20.4,7.9 -41.7,11.9 -62.9,11.9 z m 0.1,-407 c -26.7,0 -53.4,5 -79.1,14.9 -55.9,21.7 -99.9,64.4 -123.9,120.1 -49.1,113.8 1.8,247.1 113.5,297.3 53.8,24.1 113.6,25.7 168.5,4.4 55.8,-21.8 99.8,-64.4 123.9,-120.1 49.1,-113.8 -1.8,-247.2 -113.5,-297.3 -28.6,-12.9 -59,-19.3 -89.4,-19.3"
         style="fill:#000000;fill-opacity:1;fill-rule:nonzero;stroke:none"
         id="path272" /></g></g></svg>
