<?xml version="1.0" encoding="UTF-8" standalone="no"?>
<!-- Created with Inkscape (http://www.inkscape.org/) -->

<svg
   version="1.1"
   id="svg2"
   xml:space="preserve"
   width="3333.3333"
   height="3333.3333"
   viewBox="0 0 3333.3333 3333.3333"
   sodipodi:docname="bwink_ppl_03_single_02.eps"
   xmlns:inkscape="http://www.inkscape.org/namespaces/inkscape"
   xmlns:sodipodi="http://sodipodi.sourceforge.net/DTD/sodipodi-0.dtd"
   xmlns="http://www.w3.org/2000/svg"
   xmlns:svg="http://www.w3.org/2000/svg"><defs
     id="defs6"><clipPath
       clipPathUnits="userSpaceOnUse"
       id="clipPath74"><path
         d="m 18969.2,15536.3 -6768,-1864.2 -1989,-3327.8 1758.2,-1922.8 c -225,-752.7 -126.4,-1596.2 342.3,-2301.8 837.2,-1260.5 2537.8,-1603.7 3798.3,-766.5 760.6,505.2 1186.9,1324.7 1221.8,2172.1 l 2612.1,485.4 1505.6,3187.1 -385.4,4560.4 z"
         id="path72" /></clipPath><clipPath
       clipPathUnits="userSpaceOnUse"
       id="clipPath166"><path
         d="m 9399.79,19719.5 c 0,623.3 505.27,1128.5 1128.51,1128.5 623.3,0 1128.6,-505.2 1128.6,-1128.5 0,-623.3 -505.3,-1128.6 -1128.6,-1128.6 -623.24,0 -1128.51,505.3 -1128.51,1128.6 z"
         id="path164" /></clipPath></defs><sodipodi:namedview
     id="namedview4"
     pagecolor="#ffffff"
     bordercolor="#666666"
     borderopacity="1.0"
     inkscape:pageshadow="2"
     inkscape:pageopacity="0.0"
     inkscape:pagecheckerboard="0" /><g
     id="g8"
     inkscape:groupmode="layer"
     inkscape:label="ink_ext_XXXXXX"
     transform="matrix(1.3333333,0,0,-1.3333333,0,3333.3333)"><g
       id="g10"
       transform="scale(0.1)"><path
         d="M 25000,0 H 0 V 25000 H 25000 V 0"
         style="fill:#ffffff;fill-opacity:1;fill-rule:nonzero;stroke:none"
         id="path12" /><path
         d="m 17922.5,14241 -303.6,1022.9 -2759.6,247.5 -181.1,-1380.8 c 0,0 2828.2,-597.4 3244.3,110.4"
         style="fill:#ffffff;fill-opacity:1;fill-rule:nonzero;stroke:none"
         id="path14" /><path
         d="m 14703.3,14148.5 c 254.7,-51.6 2793.3,-546.7 3194.7,95.7 l -296.4,998.6 -2722.8,244.3 z m 2017.1,-277.4 c -906.2,0 -1975.2,222.3 -2046.8,237.5 -11.5,2.4 -19.2,13.3 -17.7,24.9 l 181.1,1380.9 c 1.6,11.9 12.6,20.5 24.3,19.5 l 2759.6,-247.6 c 9.2,-0.8 16.9,-7.1 19.6,-16 l 303.6,-1022.9 c 1.7,-6 0.9,-12.4 -2.2,-17.8 -160.5,-273 -659.8,-358.5 -1221.5,-358.5"
         style="fill:#000000;fill-opacity:1;fill-rule:nonzero;stroke:none"
         id="path16" /><path
         d="m 13862.5,18021.6 c 625.3,1389.1 2258.2,2008.4 3647.3,1383.2 1389.1,-625.3 2008.4,-2258.2 1383.1,-3647.4 -625.2,-1389.1 -2258.2,-2008.3 -3647.3,-1383.1 -1389.1,625.3 -2008.3,2258.2 -1383.1,3647.3 z m -1243.4,3.8 393.3,-295.8 c -47.5,-189.6 -79,-380.6 -93.8,-571.3 l -465.8,-155.7 c -230.4,-77 -376.7,-303.3 -352.3,-545.1 24.4,-241.7 213.1,-434.2 454.2,-463.6 l 488.8,-59.5 c 53.2,-185.6 121.8,-366.5 205,-540.7 l -326.4,-368.7 c -161,-181.9 -174.5,-451.1 -32.5,-648.2 142,-197.1 401.6,-269.5 625.1,-174.4 l 451.8,192.3 c 137.6,-133 287.8,-255 449.2,-365.4 l -98.3,-482.2 c -48.6,-238.1 74.3,-478 295.9,-577.7 221.5,-99.7 482.6,-32.7 628.6,161.5 l 295.8,393.3 c 189.6,-47.5 380.6,-79 571.3,-93.8 l 155.6,-465.7 c 77,-230.5 303.4,-376.8 545.1,-352.4 241.7,24.5 434.3,213.1 463.7,454.2 l 59.5,488.8 c 185.6,53.2 366.5,121.8 540.7,205 l 368.6,-326.3 c 181.9,-161.1 451.1,-174.6 648.2,-32.6 197.2,142 269.6,401.6 174.5,625.2 l -192.3,451.8 c 132.9,137.5 255,287.7 365.4,449.1 l 482.2,-98.3 c 238.1,-48.6 478,74.3 577.7,295.9 99.7,221.5 32.6,482.6 -161.6,628.6 l -393.3,295.8 c 47.6,189.6 79.1,380.6 93.9,571.3 l 465.7,155.7 c 230.4,77 376.7,303.3 352.3,545.1 -24.4,241.7 -213,434.2 -454.2,463.6 l -488.7,59.5 c -53.3,185.6 -121.9,366.5 -205.1,540.7 l 326.4,368.7 c 161.1,181.8 174.6,451 32.6,648.2 -142,197.1 -401.6,269.5 -625.2,174.4 l -451.8,-192.3 c -137.6,132.9 -287.8,255 -449.1,365.4 l 98.3,482.3 c 48.5,238 -74.4,477.9 -295.9,577.6 -221.5,99.7 -482.6,32.6 -628.6,-161.5 l -295.8,-393.4 c -189.6,47.6 -380.6,79.1 -571.3,93.9 l -155.7,465.7 c -77,230.5 -303.4,376.8 -545.1,352.3 -241.7,-24.4 -434.2,-213 -463.6,-454.2 l -59.5,-488.7 c -185.6,-53.3 -366.5,-121.9 -540.7,-205 l -368.7,326.3 c -181.9,161.1 -451.1,174.6 -648.2,32.6 -197.1,-142 -269.6,-401.6 -174.4,-625.2 l 192.3,-451.8 c -133,-137.5 -255.1,-287.8 -365.4,-449.1 l -482.3,98.3 c -238,48.5 -477.9,-74.3 -577.6,-295.9 -99.7,-221.5 -32.7,-482.6 161.5,-628.6"
         style="fill:#ffffff;fill-opacity:1;fill-rule:nonzero;stroke:none"
         id="path18" /><path
         d="m 16378.9,19626.7 c -327.6,0 -655.7,-59.6 -971.2,-179.2 -683.2,-259.1 -1224.7,-768.8 -1524.6,-1435.1 -619.2,-1375.6 -3.8,-2998.4 1371.8,-3617.5 1375.6,-619.2 2998.4,-3.8 3617.5,1371.8 619.1,1375.6 3.8,2998.4 -1371.8,3617.5 -358.7,161.5 -739.8,242.5 -1121.7,242.5 z m -5.3,-5517.8 c -381,-0.1 -767.8,78.6 -1137.2,244.9 -1398.2,629.3 -2023.7,2278.9 -1394.4,3677.1 l 20.5,-9.3 -20.5,9.3 c 304.9,677.3 855.2,1195.4 1549.7,1458.7 694.6,263.4 1450,240.5 2127.4,-64.3 1398.2,-629.4 2023.7,-2278.9 1394.4,-3677.1 -463.1,-1028.8 -1478.7,-1639.2 -2539.9,-1639.3 z m -835.9,-562.1 c 1.8,0 3.7,-0.3 5.5,-0.7 188.5,-47.3 379.5,-78.7 567.5,-93.3 9,-0.7 16.8,-6.7 19.7,-15.3 l 155.6,-465.7 c 74.2,-222 288.3,-360.6 521.5,-337.1 232.8,23.6 415.2,202.2 443.5,434.6 l 59.6,488.7 c 1,9 7.4,16.4 16.1,18.9 183.9,52.8 364.7,121.4 537.2,203.7 8.1,3.9 17.9,2.6 24.6,-3.4 l 368.7,-326.4 c 175.2,-155.2 430.3,-167.9 620.1,-31.1 189.9,136.8 258.5,382.7 166.9,598 l -192.3,451.9 c -3.6,8.3 -1.8,17.9 4.5,24.4 131.1,135.6 253.2,285.7 363,446.2 5.1,7.5 14.3,11.1 23.1,9.3 l 482.2,-98.3 c 229.3,-46.7 456.6,69.7 552.6,283.1 96.1,213.4 32.6,460.7 -154.5,601.4 l -393.3,295.8 c -7.2,5.4 -10.5,14.7 -8.3,23.5 47.3,188.4 78.6,379.4 93.2,567.6 0.7,9 6.8,16.7 15.3,19.6 l 465.8,155.6 c 221.9,74.2 360.5,288.6 337,521.5 -23.5,232.9 -202.2,415.2 -434.5,443.5 l -488.7,59.6 c -9,1.1 -16.4,7.4 -18.9,16.1 -52.8,183.8 -121.4,364.6 -203.8,537.2 -3.9,8.2 -2.5,17.9 3.5,24.6 l 326.4,368.7 c 155.1,175.2 167.9,430.2 31.1,620.1 -136.8,189.9 -382.8,258.5 -598.1,166.9 l -451.8,-192.3 c -8.3,-3.5 -18,-1.8 -24.5,4.5 -135.8,131.3 -285.9,253.4 -446.1,363 -7.5,5.1 -11.2,14.2 -9.3,23.1 l 98.3,482.2 c 46.7,229.4 -69.7,456.6 -283.1,552.7 -213.5,96 -460.8,32.5 -601.4,-154.6 l -295.8,-393.3 c -5.5,-7.2 -14.7,-10.5 -23.5,-8.3 -188.3,47.3 -379.3,78.6 -567.6,93.3 -9,0.7 -16.8,6.7 -19.6,15.3 l -155.6,465.7 c -74.2,222 -288.8,360.5 -521.5,337 -232.9,-23.5 -415.3,-202.2 -443.6,-434.5 l -59.5,-488.7 c -1.1,-9 -7.4,-16.5 -16.1,-19 -183.9,-52.7 -364.6,-121.3 -537.2,-203.7 -8.1,-3.8 -17.9,-2.5 -24.7,3.5 l -368.6,326.4 c -175.3,155.1 -430.3,168 -620.1,31.1 -190,-136.8 -258.6,-382.7 -166.9,-598 l 192.3,-451.9 c 3.5,-8.3 1.7,-17.9 -4.5,-24.4 -131.2,-135.7 -253.4,-285.9 -363.1,-446.2 -5.1,-7.5 -14.1,-11.1 -23.1,-9.3 l -482.2,98.3 c -229.2,46.7 -456.5,-69.7 -552.6,-283.1 -96.1,-213.5 -32.5,-460.8 154.5,-601.4 l 393.3,-295.8 c 7.3,-5.4 10.6,-14.7 8.4,-23.5 -47.3,-188.5 -78.7,-379.5 -93.3,-567.6 -0.7,-9 -6.7,-16.7 -15.3,-19.6 l -465.7,-155.6 c -222,-74.2 -360.6,-288.6 -337.1,-521.5 23.6,-232.9 202.2,-415.3 434.6,-443.5 l 488.7,-59.6 c 9,-1.1 16.4,-7.4 18.9,-16.1 52.8,-184 121.3,-364.7 203.7,-537.2 3.9,-8.2 2.6,-17.9 -3.4,-24.7 l -326.4,-368.6 c -155.1,-175.2 -168,-430.2 -31.1,-620.1 136.8,-189.9 382.7,-258.5 598,-166.9 l 451.8,192.3 c 8.3,3.6 18,1.8 24.5,-4.5 135.7,-131.2 285.8,-253.3 446.2,-363 7.4,-5.2 11.1,-14.3 9.3,-23.1 l -98.3,-482.2 c -46.7,-229.4 69.7,-456.6 283.1,-552.7 213.4,-96 460.7,-32.5 601.4,154.5 l 295.8,393.4 c 4.3,5.7 11,9 18,9 z m 1218.4,-959.7 c -231.8,0 -437.9,146.2 -512.8,370.4 l -150.9,451.6 c -181,14.9 -364.4,45 -545.7,89.7 l -286.8,-381.4 c -153.4,-204 -423.1,-273.3 -655.9,-168.6 -232.7,104.8 -359.7,352.7 -308.7,602.7 l 95.3,467.7 c -153.6,106 -297.8,223.3 -428.9,348.9 l -438.1,-186.4 c -234.9,-100 -503.1,-25.2 -652.3,181.9 -149.2,207.1 -135.2,485.2 34,676.4 l 316.5,357.4 c -78.5,166.2 -144.3,339.8 -195.8,516.4 l -474,57.7 c -253.4,30.9 -448.2,229.8 -473.9,483.8 -25.6,253.9 125.5,487.8 367.6,568.7 l 451.6,150.9 c 14.8,180.9 45,364.4 89.7,545.7 l -381.4,286.8 c -204,153.4 -273.3,423.1 -168.6,655.8 104.8,232.8 352.5,359.8 602.7,308.8 l 467.6,-95.3 c 106.1,153.6 223.4,297.7 349,428.9 l -186.4,438.1 c -100,234.9 -25.2,503.1 181.9,652.3 207.1,149.2 485.2,135.2 676.4,-34 l 357.5,-316.5 c 166.2,78.5 339.8,144.3 516.3,195.8 l 57.7,474 c 30.9,253.3 229.8,448.2 483.7,473.9 254,25.6 487.9,-125.5 568.8,-367.6 l 150.9,-451.6 c 181.1,-14.9 364.5,-45.1 545.6,-89.7 l 286.9,381.4 c 153.4,204 423.1,273.3 655.8,168.5 232.8,-104.7 359.7,-352.6 308.8,-602.6 l -95.3,-467.7 c 153.5,-105.9 297.6,-223.2 428.9,-348.9 l 438.1,186.4 c 234.8,100 503.1,25.2 652.3,-182 149.1,-207.1 135.2,-485.2 -34,-676.3 l -316.5,-357.5 c 78.5,-166.3 144.3,-339.8 195.8,-516.3 l 473.9,-57.8 c 253.4,-30.8 448.3,-229.7 473.9,-483.7 25.7,-253.9 -125.5,-487.8 -367.5,-568.7 l -451.6,-150.9 c -14.9,-181.1 -45.1,-364.5 -89.7,-545.7 l 381.4,-286.8 c 204,-153.4 273.3,-423.1 168.5,-655.8 -104.7,-232.8 -352.5,-359.8 -602.7,-308.8 l -467.6,95.3 c -106.1,-153.7 -223.4,-297.9 -349,-428.9 l 186.5,-438.1 c 100,-234.9 25.1,-503.1 -182,-652.3 -207.1,-149.2 -485.2,-135.2 -676.3,34 l -357.5,316.5 c -166.2,-78.5 -339.8,-144.3 -516.3,-195.8 l -57.8,-474 c -30.8,-253.3 -229.7,-448.2 -483.7,-473.9 -18.7,-1.9 -37.4,-2.8 -55.9,-2.8"
         style="fill:#000000;fill-opacity:1;fill-rule:nonzero;stroke:none"
         id="path20" /><path
         d="m 12808.6,16160.6 c 0,0 -308.7,-11.4 -690.3,-9.9 -80.3,0.3 -295.7,258 -433.9,214.3 -99.3,-31.4 88.5,-200.4 62.7,-200.3 -244.6,1 -455.7,1.9 -532.2,2.3 -59.9,0.4 -80,-61 -55.2,-115.5 35.5,-78 112.9,-196.2 240.9,-237.4 228.8,-73.8 670.4,-40.5 807,-14 298.5,57.9 535.2,62.3 535.2,62.3 l 65.8,298.2"
         style="fill:#ffffff;fill-opacity:1;fill-rule:nonzero;stroke:none"
         id="path22" /><path
         d="m 11214.4,16144.5 c -15.7,0 -27.4,-5.7 -34.7,-16.9 -10.7,-16.5 -10.5,-42.7 0.5,-66.8 24.3,-53.6 95.3,-182.8 227.3,-225.3 225.1,-72.5 666.1,-38.5 795.8,-13.3 250.6,48.6 460.5,59.8 521.3,62.2 l 55.8,252.7 c -85.8,-2.7 -351.1,-10.1 -662.2,-8.9 -38.8,0.1 -90.7,39.4 -156.3,89.1 -88,66.5 -197.5,149.4 -270.7,126.2 -11.1,-3.5 -12.4,-7.8 -12.9,-9.2 -7.5,-24.3 42.1,-88.2 63.3,-115.5 26.3,-33.8 36.1,-46.4 28,-63 -4.2,-8.4 -12.8,-13.6 -22.5,-13.6 h -0.1 c -244.6,1 -455.7,1.9 -532.2,2.3 -0.2,0 -0.3,0 -0.4,0 z m 581.2,-398.1 c -144.8,0 -294.8,11.7 -401.9,46.2 -149.2,48.1 -227.7,190.5 -254.5,249.5 -17.4,38.4 -16.4,80.5 2.7,110 15.8,24.3 42.5,37.7 73.1,37.5 72.5,-0.5 265.9,-1.3 494,-2.2 -1,1.2 -2,2.5 -2.9,3.7 -36,46.4 -85.3,109.8 -70.8,156.6 4.1,12.9 14.6,30 42.3,38.8 95.4,30.1 215.2,-60.5 311.4,-133.3 49.5,-37.5 105.6,-79.9 129.4,-80 376.7,-1.4 686.3,9.8 689.4,9.9 7,0.3 13.6,-2.7 18.1,-8.1 4.5,-5.3 6.2,-12.5 4.7,-19.3 l -65.8,-298.1 c -2.2,-10.2 -11.1,-17.5 -21.5,-17.7 -2.4,0 -238.5,-5.1 -531.4,-61.9 -75,-14.6 -241.9,-31.6 -416.3,-31.6"
         style="fill:#000000;fill-opacity:1;fill-rule:nonzero;stroke:none"
         id="path24" /><path
         d="m 14899.4,18808.9 c 396.9,71.1 1249,125.6 1845,75.8 182.7,-15.2 355.8,-86.8 495.8,-205.1 410.6,-346.7 1343.5,-1171.2 1409.3,-2188.4 3.7,-58.1 -22.2,-114.1 -67.7,-150.3 l -7.9,44.2 c -224.5,-178.7 -510.9,-212.6 -727.5,-24.6 l -193.2,142 c 0,0 331.7,-1188.6 309.1,-1379.6 -22.6,-191 -604.1,-516 -1331.3,-249.4 -582.6,213.6 -1370.3,235.2 -1834.7,115 -7.6,-2 -27.6,-211.7 -35,-213.8 -33.4,-9.1 -70,-2.6 -104.4,10.6 -83.9,32.3 -139.3,113.1 -141.3,202.9 l -30.1,1351.8 -985.7,190.2 c 0,0 475.9,2113.2 1399.6,2278.7"
         style="fill:#000000;fill-opacity:1;fill-rule:nonzero;stroke:none"
         id="path26" /><path
         d="m 19167,18441.7 c -11.1,-55.6 -270.2,-1462 -387.7,-1745.2 -120.2,-289.6 -230.7,-650.2 -754.3,-450.8 -782,297.8 601.5,2166.3 682.9,2291.6 2.7,4.3 459.4,-94.3 459.1,-95.6"
         style="fill:#000000;fill-opacity:1;fill-rule:nonzero;stroke:none"
         id="path28" /><path
         d="m 12172.7,15782.6 -2.7,331.8 c -0.6,67.6 54.7,122.2 122.2,120.4 269,-6.8 903.7,15.1 1148.8,353.6 206,284.5 268.5,626.1 268.5,626.1 0,0 1038.8,156.2 1218,-686.1 254.1,-1194.6 -2123.9,-934.9 -2651.5,-863.1 -58.8,8 -102.7,57.9 -103.3,117.3"
         style="fill:#000000;fill-opacity:1;fill-rule:nonzero;stroke:none"
         id="path30" /><path
         d="m 18799.2,18495.6 -31.5,425.9 c 0,0 -19.9,325.9 43.9,386.7 47,44.7 113.6,-60.7 140,-209 4.4,-24.6 39.2,-24.7 43.4,-0.1 16.3,96.6 19.6,166.9 14.3,266.1 -5.7,106.8 -26,295.1 74.4,299.3 100.4,4.1 332.8,-257.1 277.6,-573.2 -55.2,-316.1 -285.4,-655.8 -285.4,-655.8 l -276.7,60.1"
         style="fill:#ffffff;fill-opacity:1;fill-rule:nonzero;stroke:none"
         id="path32" /><path
         d="m 18820.4,18514 245.1,-53.2 c 41.5,64.1 225.8,360.6 273.6,634.4 33.8,193.5 -45.5,366.7 -130.9,464.1 -51.3,58.6 -99.8,83.7 -123.6,82.7 -12.4,-0.5 -21.8,-4.9 -29.7,-13.6 -36.5,-40.5 -29.4,-157.3 -24.7,-234.6 l 1.6,-27.4 c 5.6,-103.6 1.7,-174.5 -14.6,-271.1 -3.7,-21.7 -21.6,-37 -43.5,-37.1 -0.1,0 -0.2,0 -0.2,0 -22.1,0 -40.2,15.2 -44.1,37.1 -21.9,123.4 -67.2,192.4 -90.8,200.1 -3.1,1 -6.2,1.5 -11.5,-3.5 -40.9,-39 -44.4,-247.1 -37,-369.1 z m 255.5,-101.1 c -1.6,0 -3.2,0.2 -4.8,0.6 l -276.7,60.1 c -9.8,2.1 -17,10.4 -17.7,20.3 l -31.5,425.9 c -3.5,56.5 -17.1,339.9 50.9,404.7 16.2,15.5 36.3,20.4 56.5,13.7 58.2,-19 102.8,-131.8 121.2,-235 14.7,92.5 18.4,160.9 13,260.7 l -1.5,27.2 c -5.8,94.9 -13,213 36.1,267.4 16.1,17.9 36.8,27.4 61.4,28.5 43.7,1.8 103.9,-34.8 159.3,-98 92.3,-105.3 177.9,-292.4 141.4,-501.6 -55.4,-317.2 -279.5,-650.5 -289,-664.6 -4.2,-6.2 -11.2,-9.9 -18.6,-9.9"
         style="fill:#000000;fill-opacity:1;fill-rule:nonzero;stroke:none"
         id="path34" /><path
         d="m 15241.9,19689.2 c -64.5,29.2 -97.9,-19.5 -194,-6.3 -102.2,14 -214.6,89.7 -256.7,200.3 -50.9,133.6 22.5,261 68.7,341.3 46.1,79.9 104.6,168.8 206.2,207.2 132.5,50.1 187.9,-26.8 339.6,20.4 123.3,38.3 114.3,97.8 224.1,129 91.5,26 355.2,11.2 414.2,-129 37.5,-89 -43.3,-143.1 -3,-274.9 24.2,-79.2 62.2,-88.9 89.9,-150 68.8,-151.6 -17.4,-417.9 -181.6,-507.1 -222.7,-121 -596.1,118.6 -707.4,169.1"
         style="fill:#000000;fill-opacity:1;fill-rule:nonzero;stroke:none"
         id="path36" /><path
         d="m 15446.7,19434.8 -51.8,-425.2 c -9.8,-81 -68.2,-147.7 -147.1,-168.3 l -218.8,-57 30.8,-23.5 c 380.3,-289.5 907,-290 1287.8,-1.2 l 113.3,86 -271.7,60.7 c -78.1,17.4 -138.1,80 -152.3,158.7 l -112.9,626.5 -477.3,-256.7"
         style="fill:#ffffff;fill-opacity:1;fill-rule:nonzero;stroke:none"
         id="path38" /><path
         d="m 15079.5,18774.2 c 370.4,-277.8 885.2,-276.8 1254.5,3.4 l 74.6,56.6 -224.3,50.1 c -87.2,19.5 -153.7,88.8 -169.6,176.7 l -107.4,596 -439.6,-236.5 -50.4,-413.7 c -11.1,-90.7 -75.4,-164.3 -163.9,-187.3 z m 625,-252.6 c -232.3,0 -464.6,73.8 -658.3,221.3 l -30.8,23.5 c -6.9,5.2 -10.2,13.9 -8.5,22.3 1.7,8.5 8.1,15.2 16.4,17.4 l 218.8,57 c 70.5,18.3 121.7,76.9 130.5,149.2 l 51.8,425.3 c 0.9,7.2 5.2,13.6 11.7,17.1 l 477.2,256.6 c 6.3,3.5 13.9,3.6 20.5,0.5 6.4,-3.2 11.1,-9.2 12.3,-16.3 l 113,-626.5 c 12.6,-70 65.6,-125.2 135,-140.7 l 271.7,-60.7 c 8.5,-1.9 15.2,-8.6 17.1,-17.2 1.8,-8.6 -1.4,-17.5 -8.4,-22.7 l -113.3,-86 c -193.4,-146.7 -425.1,-220.1 -656.7,-220.1"
         style="fill:#000000;fill-opacity:1;fill-rule:nonzero;stroke:none"
         id="path40" /><path
         d="m 15869.7,19605.1 c 0,0 167.8,63.3 104.8,202 -63.1,138.8 -165.7,36.3 -165.7,36.3 0,0 -95.4,341.8 -295.8,207 -200.4,-134.8 -390.2,-183.8 -390.2,-183.8 0,0 70.6,-343.9 197.3,-572.7 76.5,-138.1 173.3,-234.2 287.5,-187.8 312.5,126.9 262.1,499 262.1,499"
         style="fill:#ffffff;fill-opacity:1;fill-rule:nonzero;stroke:none"
         id="path42" /><path
         d="m 15149.3,19850.8 c 17.3,-76.9 84.4,-354.5 190.5,-546 85,-153.4 172.2,-213.3 259.4,-177.9 292.3,118.8 250.1,460.7 248.1,475.2 -1.3,10.4 4.6,20.4 14.4,24.1 0.7,0.3 74.2,28.8 97.4,85.4 10.9,26.5 9.2,54.7 -5.1,86.2 -15.9,35 -35.1,54.8 -57,58.7 -35.7,6.5 -71.9,-28.6 -72.3,-29 -5.6,-5.6 -13.9,-7.8 -21.6,-5.8 -7.7,2 -13.8,8 -16,15.7 -0.5,1.8 -51.4,179.7 -149.4,215.8 -34.9,12.8 -71.5,5.8 -112.1,-21.5 -165,-111 -321,-164.2 -376.3,-180.9 z m 399.5,-779.4 c -87.2,0 -170.4,70.8 -248.4,211.5 -126.9,229.3 -196.8,565 -199.7,579.2 -2.4,11.8 4.8,23.3 16.4,26.3 1.9,0.5 188.8,49.8 383.4,180.7 52.7,35.4 104.2,44.3 152.8,26.3 92.1,-33.9 146,-156.4 167,-214.8 20.9,13.1 51.5,26.3 84.8,20.3 37.2,-6.8 67.5,-35.2 89.9,-84.5 19.5,-42.9 21.4,-84 5.7,-122.1 -23.3,-56.5 -79.4,-89.7 -107.2,-103.2 5.3,-76.6 8.3,-389.8 -277.4,-505.9 -22.7,-9.2 -45.1,-13.8 -67.3,-13.8"
         style="fill:#000000;fill-opacity:1;fill-rule:nonzero;stroke:none"
         id="path44" /><path
         d="m 14485.5,16317.5 c -0.8,0 -1.6,0 -2.4,0.1 -12.4,1.3 -21.3,12.4 -20,24.8 79.5,751.5 191.8,1386.8 192.9,1393.1 2.2,12.2 13.9,20.4 26.1,18.2 12.3,-2.1 20.5,-13.8 18.3,-26.1 -1.1,-6.3 -113.2,-640 -192.5,-1390 -1.2,-11.5 -11,-20.1 -22.4,-20.1"
         style="fill:#ffffff;fill-opacity:1;fill-rule:nonzero;stroke:none"
         id="path46" /><path
         d="m 6947.66,7083 c 184.08,672.2 878.28,1068 1550.54,883.9 672.27,-184 1068.03,-878.2 883.95,-1550.5 -184.07,-672.3 -878.27,-1068 -1550.54,-884 -672.27,184.1 -1068.03,878.3 -883.95,1550.6 z m -562.32,-86.5 198.78,-105.8 c -8.06,-89.1 -8.75,-177.7 -1.91,-264.9 l -199.47,-103.4 c -98.69,-51.2 -148.77,-163.9 -120.58,-271.4 28.18,-107.6 127.1,-181.2 238.2,-177.4 l 225.15,7.8 c 37.25,-80.1 81.07,-157 131.04,-229.9 l -121.37,-189.8 c -59.9,-93.6 -46.92,-216.3 31.26,-295.3 78.17,-79 200.66,-93.4 294.96,-34.5 l 190.59,119 c 71.6,-50.4 148.17,-94.9 228.93,-133.3 l -10.22,-225 c -5.05,-111 67.51,-210.7 174.73,-240.1 107.21,-29.4 220.47,19.5 272.7,117.6 l 105.81,198.8 c 89.07,-8.1 177.63,-8.8 264.9,-1.9 l 103.39,-199.5 c 51.15,-98.7 163.86,-148.8 271.39,-120.6 107.53,28.2 181.18,127.1 177.36,238.2 l -7.77,225.2 c 80.12,37.2 157,81.1 229.86,131 l 189.79,-121.4 c 93.64,-59.9 216.29,-46.9 295.32,31.3 79.03,78.2 93.36,200.7 34.49,295 l -118.97,190.6 c 50.34,71.6 94.86,148.1 133.32,228.9 l 224.94,-10.2 c 111.05,-5.1 210.74,67.5 240.14,174.7 29.3,107.2 -19.5,220.5 -117.63,272.7 l -198.77,105.8 c 8.05,89.1 8.74,177.6 1.9,264.9 l 199.47,103.4 c 98.73,51.2 148.73,163.9 120.63,271.4 -28.2,107.5 -127.15,181.2 -238.24,177.4 l -225.14,-7.8 c -37.25,80.1 -81.09,157 -131.05,229.8 l 121.38,189.8 c 59.89,93.7 46.9,216.3 -31.27,295.3 -78.17,79.1 -200.67,93.4 -294.97,34.6 l -190.58,-119 c -71.61,50.3 -148.18,94.8 -228.92,133.3 l 10.21,224.9 c 5.05,111.1 -67.52,210.8 -174.74,240.2 -107.21,29.3 -220.46,-19.5 -272.7,-117.7 l -105.79,-198.7 c -89.08,8 -177.65,8.7 -264.91,1.9 l -103.4,199.4 c -51.15,98.7 -163.86,148.8 -271.39,120.6 -107.52,-28.2 -181.18,-127.1 -177.35,-238.2 l 7.77,-225.1 c -80.13,-37.3 -157,-81.1 -229.86,-131.1 l -189.79,121.4 c -93.65,59.9 -216.29,46.9 -295.32,-31.2 -79.03,-78.2 -93.36,-200.7 -34.5,-295 l 118.97,-190.6 c -50.34,-71.6 -94.86,-148.2 -133.31,-228.9 l -224.95,10.2 c -111.04,5 -210.77,-67.5 -240.13,-174.7 -29.35,-107.3 19.49,-220.5 117.62,-272.7"
         style="fill:#ffffff;fill-opacity:1;fill-rule:nonzero;stroke:none"
         id="path48" /><path
         d="m 6947.67,7083 h 0.22 z m 1215.28,906.8 c -212.49,0 -422.34,-55.2 -611.94,-163.3 -287.64,-164 -494.19,-430.1 -581.63,-749.5 -87.44,-319.3 -45.29,-653.6 118.69,-941.2 163.98,-287.6 430.15,-494.2 749.49,-581.6 109.12,-29.9 218.95,-44.2 327,-44.2 544.67,0 1045.25,362.2 1195.88,912.3 180.5,659.2 -208.97,1342.4 -868.18,1522.9 -108.84,29.8 -219.44,44.6 -329.31,44.6 z m 1.6,-2524.8 c -112.02,0 -225.77,14.7 -338.89,45.7 -330.94,90.6 -606.79,304.7 -776.71,602.8 -169.94,298.1 -213.62,644.5 -123,975.4 90.6,331 304.67,606.8 602.76,776.7 298.08,170 644.49,213.7 975.44,123.1 683.16,-187.1 1086.78,-895.1 899.73,-1578.3 C 9247.79,5840.4 8728.96,5465 8164.55,5465 Z m 124.31,-275.5 c 8.35,0 16.08,-4.6 19.97,-12.1 l 103.39,-199.5 c 46.65,-90 147.64,-134.9 245.7,-109.2 98.02,25.7 164.04,114.4 160.54,215.7 l -7.76,225.1 c -0.31,9 4.82,17.4 13.02,21.2 78.78,36.6 155.02,80.1 226.61,129.2 7.44,5.1 17.24,5.3 24.86,0.4 l 189.8,-121.4 c 85.37,-54.6 195.32,-42.9 267.35,28.3 72.04,71.3 84.89,181.1 31.24,267 l -118.99,190.6 c -4.79,7.7 -4.53,17.5 0.68,24.9 49.26,70.1 93.47,146 131.41,225.7 3.9,8.2 12.15,13.2 21.36,12.8 l 224.95,-10.2 c 100.84,-4.6 190.61,60.4 217.41,158.2 26.7,97.7 -17,199.2 -106.5,246.8 l -198.78,105.8 c -7.99,4.3 -12.66,12.9 -11.85,21.9 7.94,87.9 8.58,175.8 1.88,261.2 -0.71,9 4.05,17.5 12.1,21.7 l 199.47,103.4 c 89.98,46.6 134.88,147.7 109.18,245.7 -25.7,98 -115,164.3 -215.67,160.5 l -225.13,-7.7 c -9.25,-0.2 -17.39,4.8 -21.2,13 -36.59,78.7 -80.06,154.9 -129.2,226.6 -5.12,7.5 -5.27,17.3 -0.4,24.9 l 121.38,189.8 c 54.6,85.3 42.96,195.3 -28.31,267.3 -71.28,72.1 -181.09,84.9 -267.03,31.2 l -190.59,-118.9 c -7.68,-4.8 -17.47,-4.6 -24.88,0.6 -70.11,49.3 -146.03,93.5 -225.64,131.5 -8.18,3.9 -13.22,12.3 -12.81,21.3 l 10.21,225 c 4.6,101.2 -60.45,190.6 -158.2,217.3 -97.66,26.8 -199.25,-17 -246.86,-106.4 l -105.8,-198.8 c -4.27,-8 -12.91,-12.7 -21.9,-11.9 -87.79,8 -175.64,8.6 -261.13,1.9 -9,-0.6 -17.58,4.1 -21.75,12.1 l -103.39,199.5 c -46.65,89.9 -147.6,134.8 -245.7,109.1 -98.02,-25.6 -164.04,-114.3 -160.55,-215.6 l 7.76,-225.2 c 0.31,-9 -4.81,-17.3 -13.02,-21.1 -78.74,-36.6 -154.98,-80.1 -226.61,-129.2 -7.45,-5.1 -17.26,-5.3 -24.86,-0.4 l -189.8,121.3 c -85.38,54.6 -195.29,43 -267.34,-28.3 -72.05,-71.2 -84.89,-181 -31.24,-267 l 118.98,-190.6 c 4.79,-7.6 4.53,-17.4 -0.68,-24.9 -49.26,-70 -93.48,-145.9 -131.41,-225.6 -3.91,-8.2 -12.36,-13.2 -21.35,-12.8 l -224.94,10.2 c -101.52,4.5 -190.64,-60.5 -217.4,-158.2 -26.76,-97.7 17.03,-199.2 106.48,-246.9 l 198.77,-105.8 c 8,-4.2 12.67,-12.9 11.85,-21.9 -7.93,-87.8 -8.57,-175.7 -1.88,-261.1 0.71,-9 -4.05,-17.6 -12.09,-21.7 L 6393.1,6502.4 c -89.96,-46.7 -134.84,-147.7 -109.16,-245.7 25.7,-98 114.32,-164.2 215.64,-160.6 l 225.15,7.8 c 9.3,0.3 17.39,-4.8 21.2,-13 36.64,-78.8 80.12,-155.1 129.2,-226.7 5.11,-7.4 5.26,-17.2 0.39,-24.8 l -121.38,-189.8 c -54.59,-85.4 -42.96,-195.3 28.3,-267.4 71.29,-72 181.07,-84.8 267.05,-31.2 l 190.56,119 c 7.7,4.8 17.47,4.5 24.89,-0.7 70.08,-49.3 146.01,-93.5 225.66,-131.4 8.18,-3.9 13.23,-12.3 12.82,-21.3 l -10.23,-225 c -4.6,-101.2 60.45,-190.6 158.19,-217.4 97.7,-26.7 199.24,17 246.86,106.5 l 105.82,198.8 c 4.26,8 12.93,12.7 21.9,11.8 87.9,-7.9 175.74,-8.6 261.12,-1.9 0.6,0.1 1.18,0.1 1.78,0.1 z m 313.56,-373 c -95.32,0 -184.41,52.4 -230.18,140.7 l -96.56,186.2 c -78.33,-5.3 -158.55,-4.7 -238.86,1.8 L 7938,4959.5 c -57.57,-108.1 -180.33,-161.1 -298.51,-128.7 -118.19,32.3 -196.85,140.4 -191.29,262.8 l 9.55,210.1 c -72.41,35.3 -141.74,75.7 -206.44,120.2 l -177.98,-111.1 c -103.96,-64.9 -236.73,-49.3 -322.91,37.8 -86.17,87.1 -100.24,220 -34.21,323.3 l 113.37,177.2 c -44.27,65.9 -83.94,135.5 -118.12,207.2 l -210.32,-7.2 c -122.71,-4.2 -229.69,75.6 -260.76,194.1 -31.07,118.6 23.21,240.8 132,297.2 l 186.29,96.5 c -5.37,78.4 -4.78,158.6 1.74,238.9 l -185.64,98.8 c -108.18,57.6 -161.14,180.3 -128.76,298.5 32.36,118.2 140.2,196.9 262.87,191.3 l 210.08,-9.6 c 35.3,72.5 75.65,141.8 120.2,206.5 l -111.12,178 c -64.89,103.9 -49.36,236.7 37.76,322.9 87.13,86.1 220.08,100.2 323.28,34.2 l 177.3,-113.4 c 65.92,44.3 135.5,84 207.21,118.1 l -7.26,210.3 c -4.21,122.5 75.62,229.7 194.15,260.8 118.49,31.1 240.7,-23.2 297.1,-132 l 96.56,-186.3 c 78.39,5.4 158.6,4.8 238.86,-1.7 l 98.81,185.6 c 57.57,108.2 180.34,161.1 298.52,128.8 118.18,-32.4 196.85,-140.5 191.3,-262.9 l -9.55,-210.1 c 72.38,-35.3 141.69,-75.6 206.41,-120.2 l 177.99,111.2 c 103.98,64.8 236.75,49.3 322.91,-37.8 86.19,-87.1 100.26,-220.1 34.23,-323.3 l -113.38,-177.3 c 44.33,-66 84,-135.5 118.13,-207.2 l 210.3,7.3 c 122.55,4.2 229.73,-75.7 260.73,-194.2 31.1,-118.5 -23.2,-240.7 -131.97,-297.1 l -186.29,-96.6 c 5.37,-78.3 4.79,-158.5 -1.73,-238.8 l 185.65,-98.8 c 108.14,-57.6 161.14,-180.3 128.74,-298.5 -32.4,-118.2 -140.18,-196.8 -262.86,-191.3 l -210.09,9.5 c -35.31,-72.4 -75.66,-141.7 -120.2,-206.4 l 111.13,-178 c 64.89,-103.9 49.36,-236.7 -37.76,-322.9 -87.1,-86.2 -220.05,-100.3 -323.3,-34.2 l -177.28,113.4 c -65.9,-44.4 -135.48,-84 -207.21,-118.2 l 7.25,-210.3 c 4.23,-122.5 -75.6,-229.7 -194.14,-260.8 -22.32,-5.8 -44.79,-8.6 -66.92,-8.6"
         style="fill:#000000;fill-opacity:1;fill-rule:nonzero;stroke:none"
         id="path50" /><path
         d="m 9250.45,6745.1 c 0,606.2 -490.94,1097.5 -1096.6,1097.5 -605.63,0 -1096.58,-491.3 -1096.58,-1097.5 0,-606.1 490.95,-1097.5 1096.58,-1097.5 605.66,0 1096.6,491.4 1096.6,1097.5"
         style="fill:#ffffff;fill-opacity:1;fill-rule:nonzero;stroke:none"
         id="path52" /><path
         d="m 8925.83,5947.1 c -197.52,-186.4 -463.64,-300.9 -756.66,-300.9 -293.02,0 -559.14,114.5 -756.66,300.9 228.52,70.8 485.22,110.6 756.66,110.6 271.44,0 528.16,-39.8 756.66,-110.6"
         style="fill:#000000;fill-opacity:1;fill-rule:nonzero;stroke:none"
         id="path54" /><path
         d="m 7815.76,7386.3 c 49.67,32 107.56,49.1 166.68,49.1 h 348.04 c 77.69,0 152.52,-29.4 209.47,-82.3 l 19.08,-17.7 c 90.45,-84 121.99,-213.9 80.13,-330 l -114.42,-317.5 -733.75,4.5 -103.56,347.1 c -39.16,131.3 13.14,272.6 128.33,346.8"
         style="fill:#000000;fill-opacity:1;fill-rule:nonzero;stroke:none"
         id="path56" /><path
         d="m 7997.21,7247.8 c 1.58,0.8 4.76,2.2 4.76,2.2 l 526.62,-342.1 v -206.3 c 0,-118 -55.18,-223 -141,-291.1 v -314.3 c 0,-124.2 -100.72,-225 -224.98,-225 -124.27,0 -225.01,100.8 -225.01,225 v 306.3 c -91.97,67.6 -151.92,176.2 -151.92,299.1 v 218.8 c 0,145.7 86.82,271.2 211.53,327.4"
         style="fill:#ffffff;fill-opacity:1;fill-rule:nonzero;stroke:none"
         id="path58" /><path
         d="m 8157.14,6307.6 c -217.24,0 -393.98,176.8 -393.98,394 v 218.8 c 0,210.4 171.16,381.6 381.54,381.6 h 383.89 c 12.44,0 22.52,-10.1 22.52,-22.6 v -577.8 c 0,-154.1 -90.63,-294.9 -230.9,-358.7 -11.35,-5.2 -24.69,-0.2 -29.82,11.1 -5.17,11.4 -0.16,24.7 11.15,29.9 124.26,56.5 204.53,181.2 204.53,317.7 v 555.3 H 8144.7 c -185.55,0 -336.5,-150.9 -336.5,-336.5 v -218.8 c 0,-192.4 156.54,-348.9 348.94,-348.9 12.44,0 22.52,-10.1 22.52,-22.5 0,-12.5 -10.08,-22.6 -22.52,-22.6"
         style="fill:#000000;fill-opacity:1;fill-rule:nonzero;stroke:none"
         id="path60" /><path
         d="m 8169.3,5624.6 c -297.71,0 -578.06,114.9 -790.23,324.2 -231.62,228.5 -352.97,546 -332.94,871 0.76,12.4 11.17,22 23.86,21.1 12.42,-0.8 21.86,-11.5 21.09,-23.9 -19.23,-312 97.26,-616.8 319.61,-836.1 203.67,-200.9 472.84,-311.3 758.62,-311.3 2.53,0 5.03,0 7.57,0 288.6,2 559.16,116.2 761.85,321.7 202.69,205.5 313.23,477.5 311.27,766.2 -1.97,288.6 -116.2,559.1 -321.67,761.8 -404.04,398.6 -1052.42,415.7 -1476.07,38.9 -9.31,-8.2 -23.53,-7.4 -31.79,1.9 -8.27,9.3 -7.43,23.5 1.86,31.8 441.32,392.5 1116.73,374.7 1537.63,-40.5 214.04,-211.2 333.03,-493 335.08,-793.6 2.04,-300.7 -113.11,-584.1 -324.25,-798.1 -211.13,-214.1 -492.98,-333.1 -793.61,-335.1 -2.62,0 -5.27,0 -7.88,0"
         style="fill:#000000;fill-opacity:1;fill-rule:nonzero;stroke:none"
         id="path62" /><path
         d="m 8162.6,5848.7 c -136.49,0 -247.52,111.1 -247.52,247.5 v 298.4 c 0,12.4 10.08,22.5 22.52,22.5 12.43,0 22.52,-10.1 22.52,-22.5 v -298.4 c 0,-111.6 90.83,-202.4 202.48,-202.4 111.65,0 202.48,90.8 202.48,202.4 v 314.3 c 0,12.5 10.08,22.6 22.52,22.6 12.43,0 22.52,-10.1 22.52,-22.6 v -314.3 c 0,-136.4 -111.04,-247.5 -247.52,-247.5"
         style="fill:#000000;fill-opacity:1;fill-rule:nonzero;stroke:none"
         id="path64" /><path
         d="m 11876.8,7629.7 c 0.1,-529.1 155.3,-1046.8 454.7,-1497.6 829,-1248.1 2519,-1589.1 3767,-760.1 786.8,522.6 1213.1,1387.2 1213.2,2267.7 0,516.3 -146.6,1038 -453,1499.3 -401.6,604.7 -1014.6,1016.7 -1726.1,1160.3 -711.5,143.5 -1436.3,1.5 -2041,-400.1 -604.6,-401.6 -1016.7,-1014.6 -1160.2,-1726.1 -36.6,-181 -54.6,-362.9 -54.6,-543.4 z M 14599.3,4874 c -895.1,0 -1774,433.3 -2305.3,1233.2 -304.4,458.3 -462.2,984.5 -462.2,1522.4 0,183.5 18.3,368.4 55.4,552.4 146,723.3 564.9,1346.4 1179.5,1754.7 614.7,408.2 1351.5,552.7 2074.8,406.7 723.3,-145.9 1346.4,-564.8 1754.7,-1179.5 311.5,-468.9 460.5,-999.3 460.5,-1524.1 0,-895.1 -433.4,-1774.1 -1233.2,-2305.3 C 15654.5,5023 15124,4874 14599.3,4874 Z m -964.9,-524.6 c 2.1,0 4.2,-0.3 6.3,-0.9 182.4,-52.9 370.6,-90.8 559.4,-112.9 9,-1 16.5,-7.4 19,-16 l 137.3,-469.4 c 65.3,-223.1 272.5,-368.7 504.8,-354.2 231.9,14.6 419.7,185 456.5,414.5 l 77.3,481.6 c 1.5,8.9 8.1,16.2 16.9,18.3 182,44.7 364.1,106.3 541.2,183.1 8.3,3.6 18,1.9 24.5,-4.4 l 353.5,-337.7 c 168,-160.6 420.6,-182.9 614.2,-54.3 193.6,128.6 271,370 188.1,587.2 l -174.2,456.8 c -3.3,8.4 -1.1,18 5.5,24.3 139.5,133.5 266.9,277.4 378.6,427.8 5.4,7.3 14.7,10.6 23.4,8.5 l 473.9,-115.5 c 225.8,-55 455.7,51.9 559.1,260.1 103.3,208.1 49.6,455.9 -130.7,602.6 l -379.4,308.5 c -7.1,5.7 -10,15.1 -7.5,23.8 52.9,182.4 90.9,370.7 112.9,559.4 1.1,9 7.4,16.5 16.1,19 l 469.4,137.3 c 223,65.3 368.7,272.8 354.1,504.8 -14.6,231.9 -185,419.7 -414.5,456.5 l -481.5,77.3 c -9,1.5 -16.2,8.1 -18.3,16.9 -44.8,182.1 -106.4,364.2 -183.2,541.2 -3.6,8.3 -1.8,18 4.4,24.5 l 337.8,353.5 c 160.5,168 182.9,420.6 54.3,614.2 -128.7,193.6 -370.1,271 -587.3,188.1 l -456.7,-174.2 c -8.4,-3.2 -18,-1.1 -24.3,5.5 -133.5,139.4 -277.4,266.8 -427.9,378.6 -7.2,5.4 -10.6,14.6 -8.4,23.4 l 115.5,473.9 c 55,225.8 -51.9,455.7 -260.1,559.1 -208.2,103.3 -456,49.6 -602.6,-130.7 l -308.6,-379.4 c -5.7,-7.1 -15.1,-10 -23.8,-7.5 -182.5,52.9 -370.7,90.9 -559.4,112.9 -8.9,1.1 -16.4,7.4 -19,16 l -137.3,469.5 c -65.2,223 -272.5,368.7 -504.7,354.1 -232,-14.5 -419.7,-185 -456.6,-414.5 l -77.3,-481.5 c -1.4,-9 -8,-16.2 -16.8,-18.3 -182.2,-44.8 -364.3,-106.4 -541.3,-183.2 -8.2,-3.5 -17.9,-1.8 -24.5,4.4 l -353.4,337.8 c -168.1,160.5 -420.6,182.8 -614.2,54.3 -193.6,-128.6 -271,-370.1 -188.2,-587.2 l 174.3,-456.8 c 3.2,-8.5 1,-18 -5.5,-24.3 -139.4,-133.4 -266.8,-277.3 -378.6,-427.9 -5.4,-7.2 -14.7,-10.6 -23.5,-8.4 l -473.9,115.5 c -225.8,55 -455.7,-52 -559,-260.1 -103.4,-208.2 -49.7,-456 130.6,-602.6 l 379.5,-308.6 c 7,-5.7 9.9,-15.1 7.4,-23.8 -52.9,-182.5 -90.9,-370.7 -112.9,-559.4 -1,-8.9 -7.4,-16.4 -16,-19 l -469.4,-137.3 c -223.1,-65.2 -368.7,-272.8 -354.2,-504.7 14.6,-232 185,-419.7 414.5,-456.6 l 481.6,-77.3 c 8.9,-1.4 16.2,-8.1 18.3,-16.8 44.7,-182.1 106.3,-364.2 183.1,-541.3 3.6,-8.3 1.9,-17.9 -4.4,-24.5 l -337.7,-353.4 c -160.6,-168.1 -182.9,-420.6 -54.3,-614.2 128.6,-193.7 370.1,-271 587.2,-188.2 l 456.8,174.3 c 8.4,3.2 18,1 24.3,-5.5 133.5,-139.5 277.4,-266.9 427.8,-378.6 7.3,-5.4 10.6,-14.7 8.5,-23.5 L 12445.7,4390 c -55,-225.8 51.9,-455.6 260.1,-559 208.1,-103.4 455.9,-49.7 602.6,130.7 l 308.6,379.4 c 4.3,5.3 10.8,8.3 17.4,8.3 z M 14829.3,3350 c -238.9,0 -448.2,155.3 -516.1,387.5 l -133.1,455.1 c -181.4,22 -362.1,58.5 -537.6,108.5 l -299.2,-367.9 c -160,-196.7 -430.4,-255.4 -657.6,-142.6 -227.1,112.8 -343.8,363.7 -283.8,610.1 l 112,459.4 c -144.2,108.2 -282.4,230.5 -411.2,364 l -442.8,-169 c -237,-90.4 -500.5,-5.9 -640.8,205.3 -140.3,211.3 -116,486.9 59.2,670.3 l 327.5,342.6 c -73.1,170.4 -132.2,345.3 -176,520.2 l -466.9,75 c -250.4,40.2 -436.4,245 -452.3,498.1 -15.9,253.2 143,479.7 386.4,550.9 l 455.1,133.1 c 22,181.2 58.4,361.9 108.5,537.5 l -367.9,299.2 c -196.7,160.1 -255.4,430.5 -142.6,657.6 112.8,227.2 363.8,343.9 610.1,283.8 l 459.4,-111.9 c 108.3,144.3 230.7,282.5 363.9,411.2 l -168.9,442.8 c -90.4,237 -5.9,500.5 205.3,640.8 211.3,140.3 486.9,115.9 670.3,-59.3 l 342.7,-327.4 c 170.2,73 345,132.1 520.1,176 l 75,466.9 c 40.2,250.4 245,436.4 498.2,452.3 252.7,15.8 479.6,-143 550.8,-386.5 l 133.1,-455.1 c 181.2,-22 361.9,-58.4 537.5,-108.5 l 299.3,367.9 c 160,196.8 430.4,255.4 657.5,142.6 227.2,-112.8 343.9,-363.7 283.8,-610.1 l -111.9,-459.4 c 144.2,-108.2 282.5,-230.6 411.2,-363.9 l 442.8,168.9 c 237,90.4 500.5,6 640.8,-205.3 l -18.8,-12.4 18.8,12.4 c 140.3,-211.3 115.9,-486.9 -59.3,-670.2 l -327.4,-342.7 c 73,-170.3 132.2,-345.2 176,-520.2 l 466.9,-74.9 c 250.4,-40.2 436.4,-245.1 452.3,-498.2 15.8,-253.1 -143.1,-479.6 -386.4,-550.8 L 18038,7220.6 c -22,-181.3 -58.4,-362 -108.5,-537.6 l 367.9,-299.2 c 196.8,-160 255.4,-430.4 142.6,-657.6 -112.8,-227.1 -363.7,-343.9 -610,-283.8 l -459.5,112 C 17262.3,5410.2 17140,5272 17006.6,5143.2 l 168.9,-442.8 c 90.4,-237 6,-500.5 -205.3,-640.8 -211.3,-140.3 -486.8,-116 -670.2,59.2 l -342.7,327.4 c -170.4,-73 -345.2,-132.1 -520.2,-175.9 l -74.9,-466.9 C 15322,3553 15117.1,3367 14864,3351.1 c -11.6,-0.7 -23.2,-1.1 -34.7,-1.1"
         style="fill:#000000;fill-opacity:1;fill-rule:nonzero;stroke:none"
         id="path66" /><g
         id="g68"><g
           id="g70"
           clip-path="url(#clipPath74)"><path
             d="m 14583.3,10930 c 0,0 -735.3,334.9 -982.1,387.8 -246.7,52.9 -668.4,465 -74.3,998.9 192.6,173 146.6,461.1 564.7,651 418.2,189.9 851,88.8 988,-169.2 137,-258 -44,-580.5 -227.4,-676.1 -183.4,-95.7 -268.9,-1192.4 -268.9,-1192.4"
             style="fill:#000000;fill-opacity:1;fill-rule:nonzero;stroke:none"
             id="path76" /><path
             d="m 14254.9,10375.8 -199.8,-612.3 c 0,0 1371.7,82.7 1319.3,286.1 -14.9,57.6 -50,99.4 -92.6,129.8 -210.8,150 -125,772.2 -125,772.2 l 364.8,309.1 c 66.9,56.7 80.1,154.8 30.4,227 l -177.9,259 c -30,43.7 -38.7,98.6 -23.8,149.4 l 31.5,107.2 -339.7,226.7 -296.2,347.3 c -473,-121.5 -616.7,-309.1 -505.5,-666 71.2,-228.7 -46.8,-273.7 -46.8,-273.7 0,0 -238.4,131.2 -255.2,-123.4 -16.8,-254.6 413,-285.7 413,-285.7 83.4,-87.5 112,-213.7 74.5,-328.6 l -171,-524.1"
             style="fill:#ffffff;fill-opacity:1;fill-rule:nonzero;stroke:none"
             id="path78" /><path
             d="m 14254.9,10375.8 h 0.2 z m -185.2,1273.2 c -18.1,0 -36,-3.3 -51.7,-11.9 -33.7,-18.5 -52.9,-60.4 -57.1,-124.4 -15.2,-229.3 388,-261.5 392.1,-261.8 5.6,-0.4 10.8,-2.9 14.7,-6.9 89.2,-93.6 119.7,-228.2 79.6,-351.1 l -360.5,-1104.8 c 348.2,22.8 1164.9,102.6 1260,233.2 7.6,10.5 7.1,17.6 5.7,22.6 -12,46.7 -40.2,86.1 -83.8,117.1 -219.4,156.1 -137.8,767.7 -134.2,793.6 0.7,5.5 3.5,10.6 7.7,14.1 l 364.9,309.2 c 58.3,49.4 69.6,134.1 26.4,197.1 l -177.9,258.9 c -34,49.5 -43.8,111 -26.9,168.6 l 26.9,91.3 -326,217.5 c -1.7,1.2 -3.3,2.5 -4.6,4.1 l -287.1,336.5 c -255.5,-67.2 -405.1,-153.2 -470.4,-270.4 -52,-93.2 -53.8,-208.7 -5.6,-363.5 76.7,-246.1 -54.6,-299.3 -60.2,-301.4 -6.2,-2.4 -13.1,-1.9 -18.9,1.3 -0.7,0.4 -57.7,31.1 -113.1,31.1 z m -14.6,-1908 c -6.9,0 -13.5,3.2 -17.8,8.8 -4.6,5.9 -5.9,13.6 -3.6,20.7 l 199.8,612.3 171,524 c 34.1,104.6 9.6,218.7 -63.7,300 -65.3,6.2 -441.7,53.3 -424.9,308.9 5.4,80.4 32.5,134.6 80.6,161 71.5,39.1 164.8,1.5 196.8,-13.7 21.8,14.6 78.7,71.1 25.6,241.6 -51.4,165.1 -48.4,295.5 9.2,398.9 72.9,130.7 235.7,224.6 512.2,295.6 8.3,2.1 17.1,-0.7 22.7,-7.2 l 294.2,-344.9 337.1,-224.9 c 8.2,-5.5 11.9,-15.7 9.1,-25.1 l -31.5,-107.2 c -13.1,-44.6 -5.5,-92.1 20.8,-130.4 l 177.9,-258.9 c 56.4,-82.1 41.6,-192.6 -34.4,-257 L 15178,10940 c -9,-74.1 -67.7,-611 116.9,-742.3 52.4,-37.3 86.5,-85.3 101.3,-142.5 5.3,-20.6 0.8,-41.4 -13,-60.4 -128.6,-176.6 -1204.5,-246.4 -1326.7,-253.7 -0.5,-0.1 -0.9,-0.1 -1.4,-0.1"
             style="fill:#000000;fill-opacity:1;fill-rule:nonzero;stroke:none"
             id="path80" /><path
             d="m 14128.6,11948.1 462.9,-327.1 c 196.4,-138.7 464.2,-115.2 633.3,55.6 l 144.6,146 516.2,-485.1 c 62.2,-72.8 49.2,-183 -28.2,-239.3 l -402.7,-347.7 c -119.3,-86.7 -277.1,-99 -408.4,-31.8 l -669.6,342.7 c 0,0 131.9,239.3 -183.1,576.2 -315,336.9 -65,310.5 -65,310.5"
             style="fill:#000000;fill-opacity:1;fill-rule:nonzero;stroke:none"
             id="path82" /><path
             d="m 19948.2,12419.9 -869.7,-435.7 c 0,0 99.6,-1546.3 -815,-1900.2 -439.9,-170.2 -824.5,-142.7 -1105.1,-68.3 -424.9,112.6 -870.4,121.8 -1297.7,18.7 L 14144,9619.9 c -948.7,-229 -1670.4,-1000.7 -1834.1,-1962.9 -175,-1028.8 -364.6,-2386.6 -388.7,-3546.8 -4.4,-214 203.1,-368.4 406.3,-301.3 l 4435,1464.9 168.7,2765.8 c 554.6,-46.4 1364.1,18.4 2384.5,462.9 2157.2,939.9 632.5,3917.4 632.5,3917.4"
             style="fill:#ffffff;fill-opacity:1;fill-rule:nonzero;stroke:none"
             id="path84" /><path
             d="m 16468,10083.4 c -203.6,0 -406,-23.6 -602,-70.9 L 14149.2,9598 c -941.5,-227.2 -1654.7,-990.6 -1817.1,-1944.7 -163.6,-961.9 -363.8,-2357.4 -388.4,-3543.6 -1.9,-94.9 40.6,-181.6 116.8,-237.8 75.7,-56 170.5,-71.1 259.9,-41.6 l 4420.5,1460.1 167.8,2750.6 c 0.4,6.1 3.2,11.7 7.8,15.7 4.6,3.9 10.6,5.9 16.6,5.4 503.3,-42.2 1323.6,3.6 2373.6,461.1 504.3,219.7 846,571.7 1015.6,1046.1 404.9,1132.7 -291.8,2630.2 -384.2,2820.3 l -836.3,-418.9 c 3.3,-75.7 13.4,-427 -65.8,-808.4 -118.6,-571.6 -382.9,-951.7 -764.3,-1099.3 -372.3,-144 -748.8,-167.3 -1119.1,-69.1 -225,59.6 -455.7,89.5 -684.6,89.5 z m -4238.7,-6313 c -69.4,0 -137.3,22.2 -195.6,65.2 -88.1,65.1 -137.3,165.3 -135,275 24.6,1188.9 225.2,2586.9 389,3550.2 165.4,971.9 891.9,1749.5 1851,1981 l 1716.7,414.5 c 423.8,102.3 876.3,95.8 1308.7,-18.9 361,-95.7 728.2,-72.9 1091.3,67.6 888.5,343.8 801.6,1862.5 800.6,1877.8 -0.5,9 4.4,17.5 12.4,21.6 l 869.7,435.6 c 11.1,5.6 24.5,1.2 30.2,-9.8 8.4,-16.4 833.8,-1652.5 396.4,-2876.1 -174,-486.6 -523.9,-847.3 -1040,-1072.2 -1042.9,-454.3 -1862.3,-505.8 -2372.4,-466.5 L 16785,5272.5 c -0.6,-9.2 -6.7,-17.1 -15.4,-20 l -4435,-1464.9 c -34.8,-11.5 -70.2,-17.2 -105.3,-17.2"
             style="fill:#000000;fill-opacity:1;fill-rule:nonzero;stroke:none"
             id="path86" /><path
             d="m 18993.4,13772.3 c 8.7,59 85.8,252.1 129.4,314.5 l 423.1,769.7 c 0,0 169.8,-247.5 126.8,-440.6 189.6,55.7 348.5,72.8 348.5,72.8 0,0 197.8,338 253.3,403.4 55.5,65.3 124,162.4 217.9,192.1 94.1,29.7 210.6,-11.3 210.6,-11.3 l -311.9,-857.2 -886.9,-590.7 543.2,-1461.3 -968.9,-179.5 -85.1,1788.1"
             style="fill:#ffffff;fill-opacity:1;fill-rule:nonzero;stroke:none"
             id="path88" /><path
             d="m 19016,13771.1 83.8,-1760 917.2,169.9 -534,1436.1 c -3.6,9.8 0,20.8 8.7,26.6 l 880.7,586.7 301.2,827.7 c -36.5,9.5 -111.8,24.3 -174.5,4.6 -74.4,-23.5 -134.7,-97 -183.2,-156.1 -8.4,-10.1 -16.4,-19.9 -24.2,-29.1 -53.6,-63.2 -249.1,-396.8 -251.1,-400.2 -3.6,-6.2 -9.9,-10.2 -17,-11 -1.6,-0.2 -159.3,-17.6 -344.5,-72 -7.7,-2.2 -15.9,-0.3 -21.7,5.2 -5.8,5.4 -8.4,13.5 -6.6,21.3 31.6,142.3 -61.2,320 -103.6,391.3 l -404.7,-736.1 c -0.4,-0.7 -0.8,-1.4 -1.3,-2 -41.6,-59.7 -115.5,-244.5 -125.2,-302.9 z m 62.5,-1809.4 c -5,0 -10,1.7 -14,4.9 -5.1,4 -8.2,10.1 -8.5,16.6 l -85.1,1788 c 0,1.5 0,2.9 0.3,4.4 8.9,60.8 86.6,256.6 132.4,323.1 l 422.6,768.6 c 3.8,6.9 10.8,11.3 18.7,11.7 7.5,0.3 15.2,-3.3 19.6,-9.8 6.7,-9.8 155.4,-229.2 136,-422 146,40.3 269.8,57.8 306.9,62.5 33.4,56.8 198.5,336.3 249.9,396.9 7.7,9 15.6,18.7 23.8,28.6 52.2,63.7 117.3,142.9 204.5,170.4 100.1,31.6 219.8,-9.7 224.8,-11.4 5.7,-2 10.4,-6.2 12.9,-11.6 2.6,-5.5 2.9,-11.7 0.8,-17.4 l -311.9,-857.2 c -1.6,-4.5 -4.7,-8.4 -8.7,-11 l -872,-580.9 537,-1444.6 c 2.3,-6.2 1.8,-13.1 -1.5,-18.9 -3.3,-5.8 -9,-9.8 -15.5,-11 l -968.9,-179.5 c -1.3,-0.2 -2.7,-0.4 -4.1,-0.4"
             style="fill:#000000;fill-opacity:1;fill-rule:nonzero;stroke:none"
             id="path90" /><path
             d="m 10690.9,4852.7 c 0,0 180,3544.4 2488.2,4259.3 l 619,-1873.9 c 0,0 -2202,-2616.8 -2413.3,-3432.5 -211.2,-815.6 -693.9,1047.1 -693.9,1047.1"
             style="fill:#ffffff;fill-opacity:1;fill-rule:nonzero;stroke:none"
             id="path92" /><path
             d="m 10690.9,4830.2 c -0.3,0 -0.7,0 -1.1,0 -12.5,0.6 -22,11.2 -21.4,23.6 0.5,8.9 49,900.5 379.7,1867.8 194.5,568.7 447.1,1052.3 750.8,1437.2 380.5,482.4 842.6,810.3 1373.6,974.7 11.9,3.7 24.5,-3 28.2,-14.8 3.6,-11.9 -3,-24.5 -14.9,-28.2 -1183,-366.4 -1792.1,-1497.9 -2094.7,-2382.5 -328.9,-961.4 -377.3,-1847.6 -377.7,-1856.5 -0.6,-12 -10.6,-21.3 -22.5,-21.3"
             style="fill:#000000;fill-opacity:1;fill-rule:nonzero;stroke:none"
             id="path94" /><path
             d="m 11384.8,3783.1 c -2.4,0 -4.9,0.4 -7.3,1.2 -11.7,4.1 -18,16.9 -14,28.6 306.4,891.1 2063.4,3010.5 2081.1,3031.8 7.9,9.6 22.1,10.9 31.8,2.9 9.5,-7.9 10.8,-22.1 2.9,-31.7 -17.7,-21.2 -1769.5,-2134.2 -2073.2,-3017.6 -3.2,-9.3 -11.9,-15.2 -21.3,-15.2"
             style="fill:#000000;fill-opacity:1;fill-rule:nonzero;stroke:none"
             id="path96" /><path
             d="m 15786.4,9924.6 -41.7,265.5 c -13.9,88.7 -107.2,186.9 -184.2,140.7 -642.6,-385.7 -1687.9,-46.1 -1864.6,-124.5 -498.6,-221 -1331.6,-1483.4 -1143.3,-1384.8 793.7,415.6 2131.8,122.4 2737.6,341.8 465,168.5 496.2,761.3 496.2,761.3"
             style="fill:#000000;fill-opacity:1;fill-rule:nonzero;stroke:none"
             id="path98" /><path
             d="m 15022.1,7122.7 c -10.8,0 -20.4,7.9 -22.2,18.9 l -367.2,2265.9 c -2,12.3 6.4,23.9 18.6,25.9 12.5,2 23.9,-6.4 25.9,-18.7 l 367.2,-2265.9 c 2,-12.3 -6.4,-23.8 -18.6,-25.8 -1.3,-0.2 -2.5,-0.3 -3.7,-0.3"
             style="fill:#000000;fill-opacity:1;fill-rule:nonzero;stroke:none"
             id="path100" /><path
             d="m 15571,7618.9 c -9.9,0 -19,6.6 -21.7,16.6 L 15059,9446 c -3.2,12 3.8,24.4 15.9,27.6 12,3.3 24.3,-3.8 27.6,-15.8 l 490.2,-1810.5 c 3.3,-12 -3.8,-24.4 -15.8,-27.6 -2,-0.5 -4,-0.8 -5.9,-0.8"
             style="fill:#000000;fill-opacity:1;fill-rule:nonzero;stroke:none"
             id="path102" /><path
             d="m 15010.7,7188.3 c -38.6,-8 -65.5,-35.3 -60.2,-61 l 47.4,-228.6 c 5.3,-25.7 40.9,-40 79.5,-32 38.5,7.9 65.5,35.2 60.1,60.9 l -47.4,228.6 c -5.3,25.7 -40.9,40.1 -79.4,32.1"
             style="fill:#000000;fill-opacity:1;fill-rule:nonzero;stroke:none"
             id="path104" /><path
             d="m 15560.7,7696.3 c -37.9,-10.6 -62.9,-39.7 -55.8,-64.9 l 63.1,-224.9 c 7.1,-25.2 43.5,-37 81.5,-26.4 37.9,10.6 62.9,39.7 55.8,65 l -63.1,224.8 c -7.1,25.2 -43.6,37.1 -81.5,26.4"
             style="fill:#000000;fill-opacity:1;fill-rule:nonzero;stroke:none"
             id="path106" /></g></g><path
         d="m 14599.3,4874 c -331.3,-0.1 -660.4,59.3 -970.5,174.7 -508,188.9 -964.9,528.2 -1296.9,1002.9 -12.8,18.3 -25.5,36.9 -37.9,55.6 -0.2,0.3 -0.5,0.7 -0.7,0.9 -304,458.1 -461.5,984 -461.5,1521.5 0,183.5 18.3,368.4 55.4,552.4 146,723.3 564.9,1346.4 1179.5,1754.7 0.4,0.2 0.7,0.4 1.1,0.7 0.3,0.2 0.6,0.4 0.9,0.6 0,0 0.1,0 0.1,0.1 0.3,0.2 0.7,0.4 1,0.6 0,0 0,0 0,0.1 358.2,237.2 754.4,384.5 1177.6,437.9 12.4,1.6 23.7,-7.2 25.2,-19.6 1.6,-12.3 -7.2,-23.6 -19.5,-25.1 -3.3,-0.4 -6.6,-0.9 -9.9,-1.3 -0.1,0 -0.2,0 -0.2,0 -413.8,-53.8 -801.2,-198.9 -1151.4,-431.5 -568,-377.3 -966.1,-941.2 -1131.2,-1598 -0.1,-0.5 -0.2,-1.1 -0.4,-1.6 -186.5,-741.2 -51.1,-1531.2 371.5,-2167.5 829,-1248.1 2519,-1589.1 3767,-760.1 0.3,0.2 0.6,0.3 0.8,0.5 0.1,0 0.2,0.1 0.2,0.1 0.2,0.2 0.4,0.3 0.6,0.4 0.1,0.1 0.1,0.1 0.2,0.2 0.1,0 0.3,0.2 0.5,0.3 824.1,548.6 1286,1517.2 1201.9,2498.3 -0.1,0.1 -0.1,0.2 -0.1,0.3 -3.9,46.1 -9.1,92.2 -15.5,138.3 l -1.9,13.7 c 0,0.1 0,0.1 0,0.2 v 0.1 c -0.6,3.5 -1.1,7.1 -1.6,10.6 -0.2,1.2 -0.2,2.3 -0.2,3.3 -0.1,11 8,20.7 19.2,22.3 12.3,1.9 23.7,-6.7 25.6,-19 1.2,-8.6 2.5,-17.2 3.7,-25.8 l 0.1,-0.7 v -0.1 c 1.2,-8.7 2.3,-17.4 3.4,-26.1 15.1,-117.2 22.6,-234.9 22.5,-352.3 0,-314.6 -53.8,-627.6 -159.5,-925.7 -22.8,-64.1 -48,-127.7 -75.5,-190.3 -10.6,-24 -21.5,-47.9 -32.7,-71.5 -0.1,-0.3 -0.3,-0.6 -0.4,-0.8 -0.1,-0.2 -0.2,-0.5 -0.3,-0.7 l -0.1,-0.1 c -61.1,-128.5 -131.7,-251.5 -211.2,-368.2 -0.2,-0.4 -0.5,-0.8 -0.8,-1.2 -198.4,-291 -448.5,-538.8 -743.4,-736.6 -0.2,-0.2 -0.4,-0.3 -0.6,-0.4 -0.1,-0.1 -0.2,-0.2 -0.4,-0.3 -3.2,-2.1 -6.4,-4.2 -9.5,-6.3 C 15654.5,5023 15124,4874 14599.3,4874"
         style="fill:#000000;fill-opacity:1;fill-rule:nonzero;stroke:none"
         id="path108" /><path
         d="m 7245.64,11296.9 -218.71,-1129.1 c 0,0 2022.97,-583 2929.04,393.9 l -265.37,735.2 H 7245.64"
         style="fill:#000000;fill-opacity:1;fill-rule:nonzero;stroke:none"
         id="path110" /><path
         d="m 5241.09,14272.2 c 443.08,1618.2 2114.03,2570.7 3732.18,2127.7 C 10591.4,15956.8 11544,14285.9 11101,12667.7 10657.9,11049.5 8986.93,10096.9 7368.77,10540 5750.62,10983.1 4798.02,12654 5241.09,14272.2 Z m -1353.52,-208.2 478.47,-254.7 c -19.39,-214.4 -21.05,-427.6 -4.58,-637.6 l -480.13,-248.9 c -237.56,-123.1 -358.09,-394.4 -290.26,-653.3 67.85,-258.8 305.96,-436.1 573.36,-426.9 l 541.94,18.7 c 89.66,-192.8 195.14,-377.9 315.43,-553.3 l -292.16,-456.8 c -144.17,-225.4 -112.92,-520.6 75.25,-710.8 188.16,-190.2 483.01,-224.7 709.98,-83 l 458.74,286.3 c 172.37,-121.1 356.66,-228.3 551.04,-320.9 l -24.61,-541.4 c -12.14,-267.3 162.53,-507.3 420.59,-578 258.07,-70.7 530.67,46.9 656.39,283.1 L 7831.7,9665 c 214.4,-19.4 427.58,-21.1 637.63,-4.6 l 248.86,-480.1 c 123.13,-237.6 394.41,-358.1 653.24,-290.3 258.82,67.8 436.12,305.9 426.9,573.4 l -18.68,541.9 c 192.83,89.6 377.95,195.1 553.25,315.4 l 456.8,-292.2 c 225.4,-144.1 520.6,-112.9 710.9,75.3 190.2,188.2 224.7,483 83,710 l -286.4,458.7 c 121.2,172.4 228.4,356.7 320.9,551.1 l 541.5,-24.6 c 267.3,-12.2 507.3,162.5 578,420.6 70.6,258 -46.9,530.6 -283.1,656.4 l -478.5,254.6 c 19.4,214.4 21.1,427.6 4.6,637.7 l 480.1,248.8 c 237.6,123.2 358.1,394.4 290.3,653.3 -67.9,258.8 -306,436.1 -573.4,426.9 l -541.9,-18.7 c -89.7,192.8 -195.2,377.8 -315.4,553.2 l 292.1,456.9 c 144.2,225.4 112.9,520.6 -75.2,710.8 -188.2,190.2 -483.1,224.7 -710,83 l -458.8,-286.3 c -172.3,121.1 -356.6,228.3 -550.98,320.9 l 24.59,541.4 c 12.14,267.3 -162.53,507.3 -420.59,578 -258.08,70.7 -530.68,-46.9 -656.4,-283.1 l -254.64,-478.5 c -214.43,19.4 -427.62,21.1 -637.67,4.6 l -248.86,480.2 c -123.13,237.5 -394.42,358 -653.24,290.2 -258.82,-67.8 -436.11,-306 -426.88,-573.4 l 18.69,-541.9 c -192.85,-89.7 -377.89,-195.1 -553.28,-315.4 l -456.83,292.2 c -225.41,144.1 -520.61,112.9 -710.84,-75.3 -190.23,-188.2 -224.72,-483 -83.03,-710 l 286.37,-458.7 c -121.17,-172.4 -228.34,-356.7 -320.89,-551.1 l -541.45,24.6 c -267.29,12.2 -507.33,-162.5 -578,-420.6 -70.66,-258 46.91,-530.6 283.1,-656.3"
         style="fill:#ffffff;fill-opacity:1;fill-rule:nonzero;stroke:none"
         id="path112" /><path
         d="m 8166.27,16486.5 c -516.9,0 -1027.37,-134.1 -1488.58,-397.1 -699.69,-398.8 -1202.18,-1046.3 -1414.88,-1823.2 -212.7,-776.8 -110.16,-1589.9 288.73,-2289.6 398.88,-699.7 1046.36,-1202.2 1823.18,-1414.9 776.82,-212.7 1589.99,-110.1 2289.65,288.8 699.73,398.8 1202.13,1046.3 1414.83,1823.1 212.7,776.9 110.2,1590 -288.7,2289.7 -398.9,699.7 -1046.36,1202.2 -1823.18,1414.9 -264.75,72.5 -533.78,108.3 -801.05,108.3 z m 9.57,-6078.2 c -271.29,0 -544.26,36.4 -813.02,110 -788.42,215.9 -1445.56,725.9 -1850.41,1436 -404.85,710.1 -508.91,1535.4 -293.03,2323.8 l 21.72,-5.9 -21.72,5.9 c 215.88,788.5 725.86,1445.6 1436,1850.5 710.13,404.8 1535.41,508.9 2323.84,293 788.42,-215.9 1445.58,-725.9 1850.38,-1436 404.9,-710.1 508.9,-1535.4 293.1,-2323.9 -215.9,-788.4 -725.9,-1445.5 -1436.03,-1850.4 -468.06,-266.8 -986.24,-403 -1510.83,-403 z m 293.49,-725.4 c 8.37,0 16.09,-4.6 19.99,-12.1 l 248.86,-480.2 c 119.13,-229.8 377.18,-344.4 627.54,-278.8 250.38,65.6 419.03,292.1 410.11,550.8 l -18.68,541.9 c -0.31,9 4.81,17.4 13.02,21.2 191.19,88.9 376.23,194.4 550.03,313.6 7.4,5.1 17.2,5.3 24.8,0.4 l 456.9,-292.2 c 218,-139.4 498.8,-109.7 682.8,72.3 184.1,182 216.9,462.5 79.8,682.1 l -286.4,458.7 c -4.8,7.7 -4.5,17.5 0.7,24.9 119.6,170.1 226.9,354.4 319,547.8 3.9,8.1 12.2,13.2 21.4,12.8 l 541.4,-24.6 c 258.2,-11.7 486.9,154.4 555.2,404 68.4,249.7 -43.4,509 -271.9,630.6 l -478.5,254.6 c -8,4.3 -12.6,12.9 -11.8,21.9 19.3,213.3 20.8,426.6 4.5,633.9 -0.7,9 4.1,17.6 12.1,21.8 l 480.1,248.8 c 229.9,119.1 344.5,377.2 278.9,627.6 -65.6,250.3 -292.7,418.9 -550.8,410.1 l -541.9,-18.7 c -9.5,-0.3 -17.4,4.8 -21.2,13 -88.9,191.1 -194.4,376.1 -313.6,550 -5.1,7.5 -5.3,17.2 -0.4,24.9 l 292.2,456.8 c 139.4,218 109.7,498.9 -72.3,682.9 -182.1,184 -462.6,216.8 -682.1,79.7 l -458.7,-286.3 c -7.7,-4.8 -17.5,-4.6 -24.9,0.6 -170.3,119.7 -354.6,227.1 -547.75,319 -8.18,3.9 -13.23,12.3 -12.82,21.4 l 24.58,541.4 c 11.74,258.6 -154.4,486.9 -404.05,555.3 -249.68,68.3 -508.95,-43.5 -630.55,-272 l -254.66,-478.4 c -4.26,-8 -12.94,-12.7 -21.9,-11.9 -213.13,19.3 -426.39,20.8 -633.88,4.6 -8.97,-0.8 -17.58,4 -21.75,12.1 l -248.86,480.1 c -119.12,229.8 -377.16,344.4 -627.54,278.8 -250.37,-65.6 -419.02,-292.1 -410.08,-550.8 l 18.69,-541.9 c 0.3,-9.1 -4.82,-17.4 -13.02,-21.2 -191.11,-88.9 -376.16,-194.3 -550.03,-313.6 -7.46,-5.1 -17.28,-5.2 -24.86,-0.4 l -456.84,292.2 c -218.06,139.4 -498.85,109.7 -682.88,-72.3 -184.02,-182 -216.82,-462.5 -79.76,-682.1 l 286.37,-458.7 c 4.8,-7.7 4.53,-17.5 -0.68,-24.9 -119.63,-170.2 -226.96,-354.5 -318.99,-547.8 -3.89,-8.1 -12.43,-13.2 -21.35,-12.8 l -541.44,24.6 c -258.55,11.7 -486.9,-154.3 -555.26,-404 -68.36,-249.7 43.48,-509 271.97,-630.6 l 478.46,-254.6 c 7.99,-4.3 12.66,-12.9 11.85,-21.9 -19.29,-213.3 -20.82,-426.5 -4.56,-633.9 0.7,-9 -4.06,-17.6 -12.1,-21.7 l -480.13,-248.9 c -229.79,-119.1 -344.45,-377.2 -278.82,-627.5 65.64,-250.4 292.78,-419.1 550.79,-410.2 l 541.95,18.7 c 9.36,0.3 17.39,-4.8 21.19,-13 88.88,-191.2 194.39,-376.2 313.58,-550 5.11,-7.5 5.26,-17.3 0.4,-24.9 l -292.16,-456.8 c -139.46,-218 -109.73,-498.9 72.29,-682.9 181.99,-184 462.47,-216.8 682.05,-79.7 l 458.73,286.4 c 7.69,4.7 17.48,4.5 24.88,-0.7 170.11,-119.6 354.42,-227 547.77,-319 8.17,-3.9 13.22,-12.3 12.82,-21.4 l -24.61,-541.4 c -11.74,-258.6 154.4,-486.9 404.05,-555.3 249.67,-68.3 508.94,43.5 630.56,272 l 254.68,478.4 c 4.25,8 12.77,12.7 21.9,11.9 213.33,-19.3 426.57,-20.8 633.84,-4.6 0.59,0.1 1.18,0.1 1.76,0.1 z m 754.89,-834.5 c -217.83,0 -421.44,119.7 -526.02,321.5 l -242.01,466.9 c -200.29,-14.9 -405.89,-13.4 -611.61,4.4 l -247.67,-465.3 c -131.58,-247.2 -412.18,-368.2 -682.2,-294.2 -270.1,73.9 -449.87,321 -437.17,600.7 l 23.94,526.6 c -186.1,89.5 -363.78,192.9 -528.58,307.8 l -446.11,-278.5 c -237.53,-148.3 -540.98,-112.9 -737.91,86.3 -196.94,199 -229.09,502.9 -78.21,738.8 l 284.13,444.2 c -114.35,168.2 -216.04,346.6 -302.52,530.7 l -527.07,-18.2 c -280,-9.6 -524.91,172.8 -595.91,443.7 -71,270.9 53.04,550.1 301.67,679 l 466.9,242 c -14.87,200.4 -13.39,405.9 4.42,611.6 L 3877,14044.1 c -247.21,131.5 -368.21,412.1 -294.25,682.2 73.97,270.1 320.86,449.9 600.75,437.1 l 526.54,-23.9 c 89.45,186 192.9,363.7 307.78,528.6 l -278.48,446.1 c -148.3,237.5 -112.82,541 86.29,737.9 199.08,196.9 502.88,229.1 738.81,78.2 l 444.3,-284.1 c 168.21,114.4 346.6,216.1 530.66,302.5 l -18.18,527.1 c -9.66,279.8 172.78,524.9 443.67,595.9 270.83,71 550.09,-53.1 678.95,-301.7 l 242.01,-466.9 c 200.48,14.9 406.07,13.4 611.65,-4.4 l 247.65,465.3 c 131.56,247.2 412.07,368.2 682.19,294.2 270.1,-73.9 449.87,-321 437.17,-600.7 l -23.92,-526.6 c 185.91,-89.4 363.61,-192.8 528.51,-307.7 l 446.1,278.5 c 237.6,148.2 541,112.8 738,-86.3 196.9,-199.1 229.1,-503 78.2,-738.9 l -284.1,-444.3 c 114.4,-168.2 216.1,-346.6 302.5,-530.6 l 527,18.2 c 280.3,9.5 524.9,-172.8 596,-443.7 71,-270.9 -53.1,-550.1 -301.7,-679 l -466.9,-242 c 14.9,-200.3 13.4,-405.9 -4.4,-611.6 l 465.2,-247.7 c 247.2,-131.5 368.2,-412.1 294.3,-682.2 -73.9,-270.1 -321.2,-449.8 -600.7,-437.1 l -526.6,23.9 c -89.5,-186.1 -193,-363.8 -307.8,-528.6 l 278.5,-446.1 c 148.3,-237.5 112.8,-541 -86.3,-737.9 -199.1,-196.9 -502.9,-229.1 -738.8,-78.2 l -444.3,284.1 c -168.1,-114.3 -346.47,-216 -530.63,-302.5 l 18.17,-527.1 c 9.65,-279.8 -172.8,-524.9 -443.68,-595.9 -51.05,-13.3 -102.37,-19.8 -152.94,-19.8"
         style="fill:#000000;fill-opacity:1;fill-rule:nonzero;stroke:none"
         id="path114" /><path
         d="m 4288.61,16290 c 0,0 -46.95,593.9 -68.51,754.1 -24.52,182.2 239.73,-8.5 287.45,-568.8 L 4288.61,16290"
         style="fill:#ffffff;fill-opacity:1;fill-rule:nonzero;stroke:none"
         id="path116" /><path
         d="m 4246.5,17088.4 c -0.48,0 -0.8,0 -0.98,-0.1 -1.58,-1.2 -7.06,-11.8 -3.1,-41.2 17.96,-133.5 53.82,-571.1 65.13,-711.6 l 176.55,149.4 c -32.19,352 -151.46,552.4 -219.87,596.2 -9.55,6.2 -15.42,7.3 -17.73,7.3 z m 42.1,-820.9 c -2.92,0 -5.87,0.5 -8.66,1.7 -7.8,3.2 -13.12,10.6 -13.79,19 -0.46,5.9 -47.15,595.1 -68.37,752.9 -5.5,40.8 1.54,68.9 20.91,83.3 8.56,6.4 27.15,15.3 55.48,2.5 86.55,-38.9 223.15,-266.2 255.83,-649.7 0.61,-7.3 -2.34,-14.4 -7.9,-19.1 l -218.95,-185.3 c -4.13,-3.5 -9.31,-5.3 -14.55,-5.3"
         style="fill:#000000;fill-opacity:1;fill-rule:nonzero;stroke:none"
         id="path118" /><path
         d="m 3967.9,13537.6 c 0,0 354.56,1945.3 359.09,2010 3.28,46.7 -3.18,93.5 -18.78,137.8 -45.64,129.5 -140.02,406.4 -140.9,483.7 -0.91,79.4 67.36,140 97.74,163 18,13.7 35.23,28.2 52.3,43 l 159.16,137.6 c 39.6,32.6 58.94,86.2 113.45,78.2 103.98,-15.4 134.52,-193.8 134.52,-193.8 0,0 100.7,79.6 155.61,41.6 54.91,-37.9 147.31,-315.1 16.9,-599.6 -130.42,-284.6 -168.65,-154.1 -178.77,-449.4 -4.05,-117.9 15.53,-1236.6 15.53,-1236.6 0,-92.8 98.71,-152.2 180.66,-108.8 l 705.13,373.2 234.89,-1194 -1257.89,-287 c -364.51,-83.2 -695.41,233.2 -628.64,601.1"
         style="fill:#ffffff;fill-opacity:1;fill-rule:nonzero;stroke:none"
         id="path120" /><path
         d="m 3990.05,13533.6 c -30,-165.3 24.58,-333.3 146.01,-449.4 121.41,-116.1 291.68,-163.1 455.46,-125.8 l 1236.6,282.2 -224.83,1142.8 -678.34,-359 c -45.53,-24.1 -99.09,-22.6 -143.21,3.9 -44.15,26.6 -70.5,73.3 -70.5,124.8 -0.8,45.3 -19.55,1120.2 -15.52,1237.4 6.13,178.9 21.49,207 69.14,268.9 26.12,34 61.88,80.4 111.65,189 131.17,286.3 30.11,544.6 -9.22,571.8 -31.18,21.6 -100.27,-18.1 -128.86,-40.7 -6.21,-5 -14.6,-6.2 -22,-3.4 -7.43,2.9 -12.79,9.4 -14.14,17.2 -7.81,45.2 -43.8,164.7 -115.62,175.3 -24.5,3.6 -37.82,-10.3 -61.07,-37.4 -10.46,-12.2 -21.27,-24.7 -34.79,-35.9 l -158.73,-137.2 c -16.54,-14.3 -34.45,-29.5 -53.43,-43.9 -26.97,-20.5 -89.62,-75.5 -88.82,-144.8 0.59,-52 52.78,-230.1 139.62,-476.5 16.77,-47.6 23.5,-97 20,-146.9 -4.56,-65.1 -344.87,-1932.7 -359.4,-2012.4 z m 489.99,-632.8 c -138.29,0 -272.65,52.9 -375.11,150.8 -132.39,126.6 -191.89,309.8 -159.19,490 v 0 c 122.56,672.5 355.27,1957.4 358.79,2007.5 3.06,43.7 -2.85,87.1 -17.56,128.8 -52.72,149.6 -141.29,412.3 -142.18,490.9 -1.03,89.9 74.24,156.7 106.66,181.3 17.97,13.6 35.21,28.2 51.16,42 l 159.17,137.7 c 10.94,9 20.46,20 29.65,30.8 24.18,28.1 51.66,60 101.81,52.5 89.3,-13.2 130.28,-121.9 145.7,-178.5 38.27,23.9 105.85,55.9 153.97,22.6 70.36,-48.6 154.56,-343.8 24.55,-627.5 -51.9,-113.3 -89.47,-162.1 -116.91,-197.8 -39.22,-50.9 -53.89,-70 -59.81,-242.9 -3.99,-116.1 15.33,-1224.3 15.53,-1235.5 0,-36 18.2,-68.2 48.69,-86.6 30.49,-18.3 67.46,-19.4 98.92,-2.7 l 705.12,373.2 c 6.29,3.4 13.78,3.5 20.22,0.4 6.43,-3 11.03,-8.9 12.41,-15.9 l 234.89,-1194 c 2.35,-12 -5.22,-23.6 -17.08,-26.3 l -1257.89,-287.1 c -40.37,-9.2 -81.11,-13.7 -121.51,-13.7"
         style="fill:#000000;fill-opacity:1;fill-rule:nonzero;stroke:none"
         id="path122" /><path
         d="m 4492.25,15868.3 c -21,0 -39.38,4.7 -54.3,12.3 -40.68,20.9 -60.71,65.5 -52.24,116.4 18.61,112 93.02,172.6 96.17,175.1 9.72,7.8 23.89,6.2 31.66,-3.5 7.77,-9.7 6.18,-23.9 -3.53,-31.6 -0.58,-0.5 -64.19,-53 -79.88,-147.4 -5.29,-31.8 5.05,-57 28.36,-68.9 32.29,-16.6 96.46,-9.3 171,65.7 122.2,123 71.29,415.2 70.76,418.2 -2.2,12.2 5.94,23.9 18.18,26.1 12.32,2.2 23.94,-5.9 26.15,-18.2 2.32,-12.9 55.42,-318.4 -83.13,-457.8 -63.12,-63.5 -122.62,-86.4 -169.2,-86.4"
         style="fill:#000000;fill-opacity:1;fill-rule:nonzero;stroke:none"
         id="path124" /><path
         d="m 12093.4,10168.8 c -167.2,94.9 -233.8,171.3 -295.6,328.5 0,0 -344.8,1092.8 -614.2,1778.5 -107.8,274.4 -349.3,788.4 -594.8,1295.5 l -871.92,-486.7 c -9.25,-5.1 -17.98,-10.9 -26.28,-17.2 427.8,-715.4 1213.5,-2027 1297.2,-2148.1 0,0 427.9,-632.4 407,-960.7 -13.1,-207.4 67.7,-590.2 374,-804.7 64,-44.8 147.5,24 115.5,95.3 -0.5,1.2 -1,2.3 -1.5,3.4 -47.8,100.9 -132.6,228.3 -132.6,228.3 0,0 167.3,-1.6 342.4,-139.6 175,-138 546.7,-385.3 623.7,-302.2 131.9,142.6 53.4,745.4 -622.9,1129.7"
         style="fill:#ffffff;fill-opacity:1;fill-rule:nonzero;stroke:none"
         id="path126" /><path
         d="m 11750.2,9503.4 c 0,0 0.1,0 0.2,0 7.1,-0.1 177.1,-3.3 356.1,-144.4 239.3,-188.7 541.7,-360.2 593.3,-304.6 42.7,46.2 58,147.3 39.9,264.1 -18.2,117.6 -119.4,525 -657.5,830.7 -169.4,96.3 -240.8,175.7 -305.4,339.9 -3.9,12.4 -348.1,1101.4 -614.1,1778.5 -91.2,231.9 -287.5,659.9 -583.8,1272.4 l -851.05,-475 c -2.36,-1.3 -4.72,-2.7 -7.08,-4.2 450.13,-752.7 1203.73,-2010.2 1285.63,-2128.7 17.7,-26.3 432,-642.8 410.9,-974.9 -11.1,-175.4 50.7,-565.1 364.4,-784.8 25.1,-17.6 50.9,-10 66.6,3 15.7,13 28,36.8 15.5,64.6 l -1.3,2.8 c -46.5,98.4 -130.2,224.3 -131.1,225.6 -4.6,6.9 -5,15.9 -1,23.2 3.9,7.3 11.5,11.8 19.8,11.8 z m 918.5,-502.9 c -177.9,0 -571,308.1 -590.1,323.1 -113.4,89.4 -224.2,119.5 -283.8,129.7 29.2,-46.1 76.5,-123.7 108.3,-191 l 1.8,-3.9 c 18.8,-41.9 7.9,-88.1 -27.9,-117.7 -35.9,-29.6 -83.4,-31.7 -121.2,-5.2 -330,231.1 -395.1,640.4 -383.4,824.5 20.1,316.8 -399,940.4 -403.2,946.7 -83.2,120.3 -848.9,1398.2 -1297.93,2149.2 -5.9,9.8 -3.41,22.6 5.79,29.5 9.67,7.3 19.1,13.5 28.85,18.9 l 871.89,486.7 c 5.4,3 11.8,3.7 17.7,1.8 6,-1.9 10.8,-6.1 13.5,-11.7 302.6,-625 503,-1061.4 595.6,-1297.1 266.6,-678.5 611.2,-1769 614.6,-1779.9 60.4,-153.2 124.5,-224.4 285.3,-315.7 555.6,-315.7 660.7,-740.4 679.7,-863 20.4,-132 1.2,-244.7 -51.4,-301.6 -15.1,-16.2 -37.1,-23.3 -64.1,-23.3"
         style="fill:#000000;fill-opacity:1;fill-rule:nonzero;stroke:none"
         id="path128" /><path
         d="m 5271.13,14481.2 185.81,208.6 c 314.75,349.6 711.1,615.7 1153.66,774.6 l 302.46,108.6 c 23.53,8.4 1744.07,185.2 2328.56,-8.1 365.01,-120.7 842.08,-403 1491.18,-1717.8 47.9,-97.1 9.4,-219.9 -85.1,-272.6 l -951.78,-531.3 c -82.85,-46.2 -80.71,-150.3 -68.35,-244.4 l 282.84,-1531 c 16.21,-87.7 -21.33,-177.2 -96.27,-225.4 -236.1,-152.2 -924.97,-388.6 -2433.15,-146.1 -353.22,56.8 -636.69,322.8 -717.13,671.6 l -276.4,1198.7 c -17.19,101.5 -155.99,151.1 -263.51,174.5 -60.37,13.1 -122.26,14.3 -183.89,10.1 -129.78,-8.9 -252.91,71.2 -294.43,199.6 l -421,1074.5 c -34.18,87.2 -16.17,186.3 46.5,255.9"
         style="fill:#ffffff;fill-opacity:1;fill-rule:nonzero;stroke:none"
         id="path130" /><path
         d="m 5271.14,14481.2 h 0.22 z m 729.73,-1505.3 c 46.79,0 88.37,-4.2 127.87,-12.8 117.6,-25.6 261.79,-79.8 280.91,-192.7 L 6685.82,11573 c 78.84,-342 353.12,-598.8 698.75,-654.4 1630.59,-262.2 2262.53,42.9 2417.38,142.7 67.16,43.2 101.04,122.7 86.32,202.4 l -282.85,1531 c -13.64,103.7 -14.69,215.6 79.53,268.2 l 951.75,531.3 c 84.7,47.2 118.7,156.2 75.9,242.9 -633.1,1282.3 -1102.44,1582.2 -1478.05,1706.4 -563.11,186.2 -2251.91,21.5 -2315.78,7.7 l -300.56,-108 c -437.56,-157.1 -833.33,-422.8 -1144.53,-768.4 l -185.73,-208.6 c -0.02,0 -0.05,0 -0.08,0 -57.34,-63.7 -73.54,-152.9 -42.26,-232.7 L 5666.6,13159 c 38.19,-118 149.77,-193.7 271.94,-185.3 21.85,1.5 42.56,2.2 62.33,2.2 z m 2551.32,-2205.8 c -318.27,0 -705.81,28.6 -1174.77,104 -363.81,58.5 -652.51,328.9 -735.5,688.8 l -276.41,1198.7 c -15.97,94 -161.19,139 -246.36,157.5 -51.9,11.3 -108.34,14.3 -177.56,9.6 -142.59,-9.7 -273.26,78.7 -317.39,215.1 l -420.53,1073.3 c -37.53,95.8 -18.09,202.8 50.73,279.2 l 185.73,208.5 c 316.24,351.2 718.32,621.2 1162.86,780.8 l 302.45,108.6 c 11.11,4 1747.57,189.1 2343.26,-7.9 384.45,-127.2 863.8,-432 1504.3,-1729.2 53.3,-107.9 11,-243.5 -94.3,-302.3 l -951.81,-531.3 c -70.69,-39.4 -68.49,-134.2 -56.98,-221.8 l 282.65,-1529.8 c 18.05,-97.7 -23.64,-195.3 -106.22,-248.5 -113.18,-72.9 -475.07,-253.3 -1274.15,-253.3"
         style="fill:#000000;fill-opacity:1;fill-rule:nonzero;stroke:none"
         id="path132" /><path
         d="m 8446.32,13100.6 c -4.77,0 -9.57,1.5 -13.66,4.6 -399.03,305.4 -518.08,641.1 -522.95,655.3 -4.06,11.7 2.19,24.5 13.95,28.6 11.68,4.1 24.55,-2.2 28.63,-13.9 1.15,-3.4 120.19,-337.6 507.75,-634.2 9.87,-7.6 11.75,-21.7 4.18,-31.6 -4.43,-5.8 -11.12,-8.8 -17.9,-8.8"
         style="fill:#000000;fill-opacity:1;fill-rule:nonzero;stroke:none"
         id="path134" /><path
         d="m 7026.95,13148.7 c -6.83,0 -13.58,3.1 -18,9 -302.5,401.3 -327.15,756.7 -328.05,771.7 -0.75,12.4 8.69,23 21.1,23.8 12.63,0.7 23.09,-8.7 23.85,-21.1 0.22,-3.5 25.27,-357.5 319.07,-747.3 7.48,-10 5.5,-24.1 -4.43,-31.6 -4.06,-3 -8.82,-4.5 -13.54,-4.5"
         style="fill:#000000;fill-opacity:1;fill-rule:nonzero;stroke:none"
         id="path136" /><path
         d="m 8453.77,14767.6 c -959.37,-432.5 -1537.56,420.7 -1537.56,420.7 -15.99,17.7 -33.73,33.1 -52.72,46.3 l 8.2,2.8 c 11,3.9 21.92,8 32.75,12.2 428.41,165.6 700.81,589.9 690.31,1049.4 l -6.04,264 717.26,7.5 c 0,0 18.93,-965.8 349.96,-973.1 l 182.98,-21.4 c 136.91,-313 -63.31,-663.3 -385.14,-808.4"
         style="fill:#ffffff;fill-opacity:1;fill-rule:nonzero;stroke:none"
         id="path138" /><path
         d="m 6909.04,15227.2 c 8.36,-7.5 16.34,-15.5 23.86,-23.8 0.7,-0.8 1.35,-1.6 1.94,-2.5 1.43,-2.1 145.76,-212 403.44,-366.7 343.88,-206.5 716.09,-222 1106.23,-46.1 l 9.26,-20.5 -9.26,20.5 c 289.75,130.6 507.95,451.7 378.77,767.1 l -169.97,19.9 c -321.42,6.9 -364.09,822.4 -369.21,972.7 l -672.36,-7.1 5.51,-241.2 c 10.83,-473.4 -272.37,-903.8 -704.7,-1070.9 -1.16,-0.5 -2.34,-1 -3.51,-1.4 z m 1014.59,-603.6 c -627.13,0 -1002.84,519 -1025.06,550.6 -14.25,15.6 -30.36,29.7 -47.92,41.9 -6.95,4.8 -10.61,13.1 -9.48,21.5 1.13,8.4 6.87,15.4 14.85,18.2 l 8.2,2.9 c 10.78,3.8 21.48,7.7 32.11,11.9 414.67,160.2 686.29,573.3 675.9,1027.9 l -6.03,264 c -0.15,6 2.13,11.8 6.32,16.2 4.19,4.3 9.93,6.7 15.95,6.8 l 717.28,7.5 c 12.22,0.1 22.5,-9.7 22.75,-22.1 5.16,-262.6 74.17,-945.4 327.92,-951 l 185.1,-21.5 c 7.95,-1 14.81,-6 18.01,-13.4 150.8,-344.6 -83.18,-696.7 -396.5,-838 -195.65,-88.2 -376.06,-123.4 -539.4,-123.4"
         style="fill:#000000;fill-opacity:1;fill-rule:nonzero;stroke:none"
         id="path140" /><path
         d="m 7591.87,16525.5 -36.54,484.7 c -17.82,236.5 166.26,439.5 403.17,444.6 l 622.78,13.4 c 0,0 48.29,-303.9 210.93,-447.2 l -72.69,-136.6 -71.84,-251.1 c -15.66,-54.8 -60.57,-96.5 -116.49,-107 l -375.51,-0.3 -563.81,-0.5"
         style="fill:#ffffff;fill-opacity:1;fill-rule:nonzero;stroke:none"
         id="path142" /><path
         d="m 7591.84,16503 c -11.67,0 -21.54,9 -22.44,20.8 l -36.52,484.7 c -9.1,120.7 30.66,236.4 111.94,326 81.21,89.5 192.43,140.2 313.2,142.8 l 622.78,13.4 c 11.01,0.4 20.95,-7.8 22.73,-19 0.46,-2.9 49.01,-297.6 203.56,-433.8 7.83,-6.9 9.9,-18.3 4.99,-27.5 l -71.56,-134.5 -71.19,-248.8 c -18.21,-63.7 -69.55,-110.8 -133.97,-122.9 -1.37,-0.3 -2.76,-0.4 -4.15,-0.4 l -375.5,-0.3 c -0.01,0 -0.01,0 -0.02,0 -12.43,0 -22.51,10 -22.52,22.5 -0.02,12.4 10.06,22.5 22.49,22.5 l 373.33,0.3 c 46.65,9.6 83.73,44.1 97.04,90.6 l 71.83,251.2 c 0.44,1.5 1.04,3 1.77,4.4 l 64.54,121.2 c -134.88,130.1 -188.26,360.5 -201.62,429.1 l -603.57,-13 c -108.27,-2.4 -207.99,-47.9 -280.81,-128.1 -72.89,-80.3 -108.55,-184.1 -100.39,-292.3 l 36.53,-484.7 c 0.94,-12.4 -8.35,-23.2 -20.76,-24.2 -0.57,0 -1.15,0 -1.71,0"
         style="fill:#000000;fill-opacity:1;fill-rule:nonzero;stroke:none"
         id="path144" /><path
         d="m 8041.71,15356.5 c -20.26,0 -42.54,2.5 -66.74,8.6 -12.06,3.1 -19.35,15.3 -16.29,27.4 3.05,12 15.28,19.4 27.36,16.3 103.85,-26.4 162.84,27.9 163.41,28.4 9.05,8.6 23.3,8.2 31.84,-0.9 8.54,-9 8.12,-23.3 -0.92,-31.8 -2.53,-2.4 -52.08,-48 -138.66,-48"
         style="fill:#000000;fill-opacity:1;fill-rule:nonzero;stroke:none"
         id="path146" /><path
         d="M 8705.28,17505.1 8392.15,17339 c -183.82,-97.6 -310.04,-277.2 -338.83,-483.4 -40.26,-288.3 -74.78,-787.7 -349.4,-1209.1 -212.62,-326.2 -571.46,-527.8 -959.92,-552.3 -256.04,-16.2 -558.84,-113.2 -720.65,-276.8 0,0 -515.03,674 2.36,1265.5 517.39,591.5 1197.8,553 1331.91,1180.9 128.34,600.9 860.99,1046.2 1377.91,389 37.96,-48.2 23.96,-118.9 -30.25,-147.7"
         style="fill:#000000;fill-opacity:1;fill-rule:nonzero;stroke:none"
         id="path148" /><path
         d="m 12808.6,16160.6 c 0,0 -308.7,-11.4 -690.3,-9.9 -80.3,0.3 -295.7,258 -433.9,214.3 -99.3,-31.4 88.5,-200.4 62.7,-200.3 -244.6,1 -455.7,1.9 -532.2,2.3 -59.9,0.4 -80,-61 -55.2,-115.5 35.5,-78 112.9,-196.2 240.9,-237.4 228.8,-73.8 670.4,-40.5 807,-14 298.5,57.9 535.2,62.3 535.2,62.3 l 65.8,298.2"
         style="fill:#ffffff;fill-opacity:1;fill-rule:nonzero;stroke:none"
         id="path150" /><path
         d="m 11214.4,16144.5 c -15.7,0 -27.4,-5.7 -34.7,-16.9 -10.7,-16.5 -10.5,-42.7 0.5,-66.8 24.3,-53.6 95.3,-182.8 227.3,-225.3 225.1,-72.5 666.1,-38.5 795.8,-13.3 250.6,48.6 460.5,59.8 521.3,62.2 l 55.8,252.7 c -85.8,-2.7 -351.1,-10.1 -662.2,-8.9 -38.8,0.1 -90.7,39.4 -156.3,89.1 -88,66.5 -197.5,149.4 -270.7,126.2 -11.1,-3.5 -12.4,-7.8 -12.9,-9.2 -7.5,-24.3 42.1,-88.2 63.3,-115.5 26.3,-33.8 36.1,-46.4 28,-63 -4.2,-8.4 -12.8,-13.6 -22.5,-13.6 h -0.1 c -244.6,1 -455.7,1.9 -532.2,2.3 -0.2,0 -0.3,0 -0.4,0 z m 581.2,-398.1 c -144.8,0 -294.8,11.7 -401.9,46.2 -149.2,48.1 -227.7,190.5 -254.5,249.5 -17.4,38.4 -16.4,80.5 2.7,110 15.8,24.3 42.5,37.7 73.1,37.5 72.5,-0.5 265.9,-1.3 494,-2.2 -1,1.2 -2,2.5 -2.9,3.7 -36,46.4 -85.3,109.8 -70.8,156.6 4.1,12.9 14.6,30 42.3,38.8 95.4,30.1 215.2,-60.5 311.4,-133.3 49.5,-37.5 105.6,-79.9 129.4,-80 376.7,-1.4 686.3,9.8 689.4,9.9 7,0.3 13.6,-2.7 18.1,-8.1 4.5,-5.3 6.2,-12.5 4.7,-19.3 l -65.8,-298.1 c -2.2,-10.2 -11.1,-17.5 -21.5,-17.7 -2.4,0 -238.5,-5.1 -531.4,-61.9 -75,-14.6 -241.9,-31.6 -416.3,-31.6"
         style="fill:#000000;fill-opacity:1;fill-rule:nonzero;stroke:none"
         id="path152" /><path
         d="m 12292.2,16234.8 c 267.3,-6.8 895.7,15 1144,347.5 132.4,-165.8 254.9,-339.9 389.6,-503.6 38.5,-46.8 86.6,-54.2 128.4,-38.4 58.1,-125.2 105.7,-254.8 147.2,-386.7 -666.9,-126.1 -1532.1,-28.3 -1825.4,11.7 -58.8,8 -102.7,57.9 -103.3,117.3 l -2.7,331.8 c -0.6,67.6 54.7,122.2 122.2,120.4"
         style="fill:#000000;fill-opacity:1;fill-rule:nonzero;stroke:none"
         id="path154" /><path
         d="m 9312.42,20050.1 c 184.07,672.3 878.28,1068 1550.58,883.9 672.2,-184 1068,-878.2 883.9,-1550.5 -184.1,-672.3 -878.3,-1068 -1550.5,-883.9 -672.3,184 -1068.06,878.2 -883.98,1550.5 z m -562.32,-86.5 198.77,-105.8 c -8.05,-89.1 -8.74,-177.7 -1.9,-264.9 l -199.47,-103.4 c -98.69,-51.2 -148.77,-163.9 -120.59,-271.4 28.19,-107.5 127.11,-181.2 238.21,-177.4 l 225.15,7.8 c 37.24,-80.1 81.07,-157 131.04,-229.9 l -121.38,-189.8 c -59.89,-93.6 -46.91,-216.2 31.26,-295.3 78.18,-79 200.67,-93.3 294.97,-34.5 l 190.58,119 c 71.61,-50.3 148.18,-94.9 228.93,-133.3 l -10.22,-225 c -5.04,-111 67.52,-210.7 174.75,-240.1 107.2,-29.3 220.5,19.5 272.7,117.6 l 105.8,198.8 c 89.1,-8.1 177.6,-8.7 264.9,-1.9 l 103.4,-199.5 c 51.1,-98.7 163.8,-148.7 271.4,-120.6 107.5,28.2 181.2,127.2 177.3,238.2 l -7.7,225.2 c 80.1,37.2 157,81.1 229.8,131 l 189.8,-121.3 c 93.7,-59.9 216.3,-46.9 295.3,31.2 79.1,78.2 93.4,200.7 34.5,295 l -118.9,190.6 c 50.3,71.6 94.8,148.2 133.3,228.9 l 224.9,-10.2 c 111.1,-5.1 210.8,67.5 240.1,174.7 29.4,107.2 -19.4,220.5 -117.6,272.7 l -198.7,105.8 c 8,89.1 8.7,177.7 1.9,264.9 l 199.4,103.4 c 98.7,51.2 148.8,163.9 120.6,271.4 -28.2,107.5 -127.1,181.2 -238.2,177.4 l -225.1,-7.8 c -37.3,80.1 -81.1,157 -131.1,229.8 l 121.4,189.9 c 59.9,93.6 46.9,216.2 -31.3,295.3 -78.1,79 -200.6,93.3 -294.9,34.5 l -190.6,-119 c -71.6,50.3 -148.2,94.8 -228.9,133.3 l 10.2,225 c 5,111 -67.5,210.7 -174.8,240.1 -107.2,29.3 -220.4,-19.5 -272.7,-117.6 l -105.8,-198.8 c -89,8 -177.6,8.7 -264.9,1.9 l -103.4,199.5 c -51.1,98.7 -163.8,148.7 -271.4,120.5 -107.48,-28.1 -181.13,-127.1 -177.3,-238.2 l 7.77,-225.1 c -80.13,-37.3 -157,-81.1 -229.87,-131 l -189.79,121.3 c -93.64,59.9 -216.29,46.9 -295.32,-31.2 -79.03,-78.2 -93.36,-200.7 -34.49,-295 l 118.97,-190.6 c -50.34,-71.6 -94.86,-148.2 -133.32,-228.9 l -224.94,10.2 c -111.05,5.1 -210.77,-67.5 -240.13,-174.7 -29.35,-107.2 19.49,-220.5 117.62,-272.7"
         style="fill:#ffffff;fill-opacity:1;fill-rule:nonzero;stroke:none"
         id="path156" /><path
         d="m 9334.13,20044.1 c -180.49,-659.2 208.98,-1342.3 868.17,-1522.8 319.4,-87.5 653.6,-45.3 941.3,118.7 287.6,163.9 494.2,430.1 581.6,749.4 87.4,319.4 45.3,653.7 -118.7,941.3 -164,287.6 -430.1,494.2 -749.5,581.6 -659.2,180.5 -1342.35,-208.9 -1522.87,-868.2 z m 1197.57,-1612.4 c -113.9,0 -228.5,15.2 -341.3,46.1 -683.14,187.1 -1086.76,895.1 -899.7,1578.2 187.04,683.2 895,1086.8 1578.2,899.8 330.9,-90.7 606.8,-304.7 776.7,-602.8 170,-298.1 213.6,-644.5 123,-975.5 -90.6,-330.9 -304.6,-606.7 -602.7,-776.7 -196.5,-112 -414,-169.1 -634.2,-169.1 z m 121.9,-275.1 c 8.4,0 16.1,-4.6 20,-12.1 L 10777,17945 c 46.6,-90 147.6,-134.9 245.7,-109.2 98,25.7 164,114.4 160.5,215.7 l -7.7,225.1 c -0.3,9 4.8,17.4 13,21.2 78.7,36.6 155,80.1 226.6,129.2 7.4,5.1 17.2,5.3 24.9,0.4 l 189.7,-121.4 c 85.4,-54.6 195.4,-42.9 267.4,28.3 72,71.3 84.9,181.1 31.2,267.1 l -118.9,190.5 c -4.8,7.7 -4.6,17.5 0.6,24.9 49.3,70.1 93.5,146 131.4,225.7 3.9,8.2 12.4,13.2 21.4,12.8 l 224.9,-10.2 c 101.1,-4.6 190.7,60.4 217.4,158.2 26.8,97.7 -17,199.2 -106.4,246.8 l -198.8,105.8 c -8,4.3 -12.7,12.9 -11.9,21.9 8,87.9 8.6,175.8 1.9,261.2 -0.7,9 4.1,17.6 12.1,21.7 l 199.5,103.4 c 89.9,46.6 134.8,147.7 109.1,245.7 -25.7,98 -114,164 -215.6,160.6 l -225.1,-7.8 c -9.3,-0.3 -17.4,4.8 -21.2,13 -36.7,78.8 -80.1,155 -129.2,226.6 -5.2,7.5 -5.3,17.3 -0.4,24.9 l 121.3,189.8 c 54.6,85.4 43,195.3 -28.3,267.3 -71.2,72.1 -181,84.9 -267,31.3 l -190.6,-119 c -7.7,-4.8 -17.4,-4.6 -24.9,0.7 -70.1,49.3 -146,93.5 -225.6,131.4 -8.2,3.9 -13.2,12.3 -12.8,21.3 l 10.2,225 c 4.6,101.2 -60.5,190.6 -158.2,217.4 -97.7,26.7 -199.3,-17.1 -246.9,-106.5 l -105.8,-198.8 c -4.2,-8 -13,-12.6 -21.9,-11.8 -87.8,7.9 -175.6,8.5 -261.1,1.8 -9,-0.7 -17.6,4.1 -21.8,12.1 l -103.3,199.5 c -46.7,90 -147.7,134.9 -245.7,109.2 -98.07,-25.7 -164.09,-114.4 -160.59,-215.7 l 7.76,-225.1 c 0.31,-9.1 -4.81,-17.4 -13.02,-21.2 -78.73,-36.6 -154.97,-80.1 -226.61,-129.2 -7.45,-5.1 -17.26,-5.3 -24.86,-0.4 l -189.8,121.4 c -85.39,54.6 -195.29,42.9 -267.36,-28.3 -72.04,-71.3 -84.89,-181.1 -31.22,-267.1 l 118.97,-190.6 c 4.79,-7.6 4.53,-17.4 -0.68,-24.8 -49.26,-70.1 -93.47,-146 -131.4,-225.7 -3.91,-8.2 -12.44,-13.2 -21.36,-12.8 l -224.94,10.2 c -101.47,4.6 -190.63,-60.4 -217.39,-158.2 -26.76,-97.7 17.02,-199.2 106.47,-246.9 l 198.78,-105.7 c 8,-4.3 12.67,-12.9 11.85,-21.9 -7.94,-87.9 -8.57,-175.8 -1.88,-261.2 0.71,-9 -4.05,-17.6 -12.09,-21.7 l -199.47,-103.4 c -89.97,-46.7 -134.86,-147.7 -109.16,-245.7 25.68,-98 114.34,-164 215.64,-160.6 l 225.15,7.8 c 9.31,0.3 17.39,-4.8 21.19,-13 36.62,-78.8 80.09,-155 129.21,-226.6 5.11,-7.5 5.26,-17.3 0.39,-24.9 l -121.38,-189.8 c -54.59,-85.4 -42.96,-195.3 28.3,-267.3 71.26,-72.1 181.1,-84.9 267.02,-31.3 l 190.59,119 c 7.69,4.8 17.48,4.5 24.89,-0.7 70.06,-49.2 145.98,-93.5 225.66,-131.4 8.17,-3.9 13.22,-12.3 12.81,-21.3 l -10.22,-225 c -4.6,-101.2 60.45,-190.6 158.15,-217.4 97.7,-26.7 199.3,17 246.9,106.5 l 105.8,198.8 c 4.3,8 13,12.6 21.9,11.8 87.9,-7.9 175.8,-8.5 261.1,-1.8 0.6,0 1.2,0 1.8,0 z m 313.6,-373 c -95.4,0 -184.4,52.4 -230.2,140.7 l -96.6,186.3 c -78.3,-5.4 -158.5,-4.8 -238.8,1.7 l -98.8,-185.7 c -57.6,-108.1 -180.4,-161 -298.5,-128.7 -118.24,32.3 -196.9,140.4 -191.34,262.9 l 9.54,210.1 c -72.42,35.3 -141.75,75.6 -206.43,120.1 l -177.98,-111.1 c -103.95,-64.9 -236.74,-49.3 -322.9,37.8 -86.18,87.1 -100.25,220.1 -34.22,323.3 l 113.37,177.3 c -44.3,65.9 -83.97,135.4 -118.12,207.2 l -210.32,-7.3 c -122.67,-4.2 -229.69,75.6 -260.76,194.2 -31.08,118.5 23.19,240.7 131.99,297.1 l 186.3,96.5 c -5.37,78.4 -4.78,158.6 1.74,238.9 l -185.65,98.8 c -108.18,57.6 -161.13,180.3 -128.75,298.5 32.36,118.2 140.26,196.8 262.86,191.3 l 210.1,-9.6 c 35.28,72.5 75.64,141.8 120.18,206.5 l -111.11,178 c -64.89,103.9 -49.36,236.7 37.76,322.9 87.13,86.1 220.1,100.2 323.28,34.2 l 177.29,-113.4 c 65.95,44.3 135.52,84 207.22,118.1 l -7.26,210.4 c -4.22,122.4 75.61,229.7 194.11,260.7 118.6,31.1 240.8,-23.2 297.1,-132 l 96.6,-186.3 c 78.4,5.4 158.6,4.8 238.9,-1.7 l 98.8,185.6 c 57.5,108.2 180.2,161.2 298.5,128.8 118.2,-32.4 196.8,-140.5 191.3,-262.9 l -9.6,-210.1 c 72.4,-35.2 141.7,-75.6 206.5,-120.1 l 177.9,111.1 c 104,64.9 236.8,49.3 322.9,-37.8 86.2,-87.1 100.3,-220.1 34.3,-323.3 l -113.4,-177.3 c 44.3,-65.9 84,-135.5 118.1,-207.2 l 210.3,7.3 c 122.9,4.1 229.7,-75.6 260.8,-194.2 31.1,-118.5 -23.2,-240.7 -132,-297.1 l -186.3,-96.5 c 5.4,-78.4 4.8,-158.6 -1.7,-238.9 l 185.6,-98.8 c 108.2,-57.6 161.1,-180.3 128.8,-298.5 -32.4,-118.2 -140.8,-196.9 -262.9,-191.3 l -210.1,9.5 c -35.3,-72.4 -75.7,-141.7 -120.2,-206.4 l 111.1,-178 c 64.9,-103.9 49.4,-236.7 -37.7,-322.9 -87.1,-86.2 -220.1,-100.2 -323.3,-34.2 l -177.3,113.4 c -65.9,-44.3 -135.5,-84 -207.2,-118.2 l 7.2,-210.3 c 4.3,-122.4 -75.6,-229.7 -194.1,-260.7 -22.3,-5.9 -44.8,-8.7 -66.9,-8.7"
         style="fill:#000000;fill-opacity:1;fill-rule:nonzero;stroke:none"
         id="path158" /><g
         id="g160"><g
           id="g162"
           clip-path="url(#clipPath166)"><path
             d="m 11426.6,18920 c -228.3,-217.7 -536.6,-352.3 -877,-354.1 -340.3,-1.7 -650.02,129.6 -880.54,344.8 264.96,83.6 562.84,131.4 878.04,133.1 315.3,1.6 613.7,-43 879.5,-123.8"
             style="fill:#000000;fill-opacity:1;fill-rule:nonzero;stroke:none"
             id="path168" /><path
             d="m 9799.91,19787.5 c 111.39,401.4 341.09,927.5 771.89,862.8 413.2,-62 607.7,-515.5 697,-866.8 54.4,-213.8 -108.7,-421.3 -329.3,-422.5 l -808.9,-4.2 c -225.58,-1.2 -391.03,213.3 -330.69,430.7"
             style="fill:#000000;fill-opacity:1;fill-rule:nonzero;stroke:none"
             id="path170" /><path
             d="m 10156.4,20253.6 c 0.2,1 0.6,2.9 0.6,2.9 l 734.4,5.6 c 0,0 0.3,-1.2 0.5,-1.8 9.7,-36.6 14.9,-75.2 15.1,-115.1 l 1.2,-215 c 0.7,-143.9 -66.7,-270.8 -169.3,-345 l 2.9,-561.2 c 0.6,-111.7 -89.4,-202.7 -201.1,-203.3 -111.7,-0.5 -202.7,89.5 -203.2,201.2 l -2.9,553 c -110,71.5 -184,202 -184.8,351.4 l -1.3,242.5 c -0.1,29.1 2.6,57.5 7.9,84.8"
             style="fill:#ffffff;fill-opacity:1;fill-rule:nonzero;stroke:none"
             id="path172" /><path
             d="m 10539.6,18798.2 c -59.6,0 -115.6,23.1 -158,65 -42.7,42.2 -66.3,98.5 -66.7,158.6 l -2.8,546.6 c -0.1,12.5 9.9,22.6 22.4,22.7 h 0.1 c 12.4,0 22.5,-10 22.5,-22.4 l 2.9,-546.7 c 0.2,-48 19.2,-93 53.3,-126.8 33.8,-33.5 78.7,-51.9 126.3,-51.9 0.3,0 0.6,0 1,0 48,0.2 93,19.1 126.7,53.3 33.8,34.1 52.3,79.3 52,127.3 l -2.8,544.5 c -0.1,12.5 9.9,22.6 22.4,22.7 0,0 0,0 0.1,0 12.4,0 22.4,-10 22.5,-22.4 l 2.8,-544.6 c 0.4,-60 -22.7,-116.6 -64.9,-159.2 -42.3,-42.7 -98.6,-66.4 -158.6,-66.7 -0.4,0 -0.8,0 -1.2,0"
             style="fill:#000000;fill-opacity:1;fill-rule:nonzero;stroke:none"
             id="path174" /><path
             d="m 10528.1,19758 c -47,0 -90.7,18.8 -123.1,53 -8.6,9 -8.2,23.3 0.8,31.8 9,8.6 23.3,8.2 31.9,-0.9 23.8,-25.1 55.9,-38.9 90.4,-38.9 0.2,0 0.4,0 0.6,0 34.7,0.2 66.8,14.2 90.3,39.6 8.5,9.1 22.8,9.6 31.8,1.1 9.2,-8.5 9.7,-22.7 1.2,-31.8 -31.7,-34 -76.5,-53.7 -123.1,-53.9 -0.3,0 -0.5,0 -0.8,0"
             style="fill:#000000;fill-opacity:1;fill-rule:nonzero;stroke:none"
             id="path176" /><path
             d="m 10529.3,19493.9 c -220.6,0 -400.8,193.5 -402,432.2 l -1.3,242.6 c -0.6,111.9 39.1,217.5 111.8,297.2 73.1,80.3 170.8,124.7 275,125.3 111.2,0.6 215.6,-45.7 294.4,-130.4 78.3,-84.1 121.7,-196.2 122.4,-315.5 l 1.1,-214.9 c 0.9,-169.6 -90.5,-325.2 -232.7,-396.4 -11.2,-5.6 -24.7,-1.1 -30.2,10 -5.6,11.2 -1.1,24.7 10,30.3 127.1,63.6 208.7,203.3 207.8,355.8 l -1.1,215 c -0.5,108 -39.7,209.2 -110.3,285.1 -70.1,75.3 -163.2,116.2 -261.1,116 -91.6,-0.5 -177.5,-39.8 -242,-110.6 -65.1,-71.4 -100.6,-166.1 -100,-266.7 l 1.2,-242.5 c 1.2,-214 161.1,-387.4 357,-387.4 0.6,0 1.4,0 1.8,0 12.4,0 22.5,-10 22.6,-22.4 0,-12.4 -10,-22.6 -22.4,-22.6 -0.7,0 -1.4,-0.1 -2,-0.1"
             style="fill:#000000;fill-opacity:1;fill-rule:nonzero;stroke:none"
             id="path178" /></g></g><path
         d="m 10532.3,18563.2 c -120.2,0 -242.3,19.1 -362.4,59.1 -259.75,86.6 -480.29,263.4 -621.07,497.8 -6.4,10.6 -2.95,24.5 7.72,30.9 10.65,6.4 24.5,2.9 30.9,-7.7 135.24,-225.2 347.13,-395 596.65,-478.3 577.3,-192.4 1203.5,120.6 1395.9,697.8 192.5,577.2 -120.5,1203.4 -697.7,1395.9 -279.6,93.3 -578.8,72 -842.5,-59.8 -263.64,-131.7 -460.19,-358.3 -553.43,-637.9 -64.08,-192.2 -74.23,-397.6 -29.33,-594.1 2.78,-12.1 -4.8,-24.2 -16.93,-26.9 -12.04,-2.8 -24.21,4.8 -26.97,16.9 -46.75,204.5 -36.2,418.3 30.5,618.3 97.04,291 301.62,526.9 576.06,664 274.4,137.2 585.8,159.3 876.8,62.2 600.8,-200.3 926.6,-852.1 726.3,-1452.9 -160.3,-480.6 -609.6,-785.2 -1090.5,-785.3"
         style="fill:#000000;fill-opacity:1;fill-rule:nonzero;stroke:none"
         id="path180" /><path
         d="m 6234.08,20774.5 c -5.61,0 -11.22,2 -15.58,6.2 -8.99,8.6 -9.29,22.9 -0.69,31.9 l 82.87,86.5 c 8.62,9 22.87,9.3 31.84,0.7 8.98,-8.6 9.28,-22.9 0.68,-31.9 l -82.86,-86.5 c -4.42,-4.6 -10.34,-6.9 -16.26,-6.9"
         style="fill:#000000;fill-opacity:1;fill-rule:nonzero;stroke:none"
         id="path182" /><path
         d="m 5944.05,20471.7 c -5.6,0 -11.21,2.1 -15.58,6.3 -8.98,8.6 -9.28,22.8 -0.68,31.8 l 82.86,86.5 c 8.61,9 22.89,9.3 31.85,0.7 8.98,-8.6 9.28,-22.9 0.68,-31.8 l -82.86,-86.5 c -4.43,-4.7 -10.34,-7 -16.27,-7"
         style="fill:#000000;fill-opacity:1;fill-rule:nonzero;stroke:none"
         id="path184" /><path
         d="m 6025.36,20769.8 c -5.71,0 -11.42,2.2 -15.8,6.5 l -84.13,82.8 c -8.85,8.7 -8.97,23 -0.24,31.8 8.73,8.9 22.98,9 31.85,0.3 l 84.12,-82.8 c 8.86,-8.7 8.97,-23 0.25,-31.8 -4.41,-4.5 -10.24,-6.8 -16.05,-6.8"
         style="fill:#000000;fill-opacity:1;fill-rule:nonzero;stroke:none"
         id="path186" /><path
         d="m 6319.76,20480.1 c -5.71,0 -11.42,2.1 -15.8,6.4 l -84.13,82.8 c -8.86,8.8 -8.97,23 -0.25,31.9 8.75,8.8 23.01,8.9 31.86,0.2 l 84.12,-82.8 c 8.86,-8.7 8.97,-23 0.25,-31.8 -4.41,-4.5 -10.24,-6.7 -16.05,-6.7"
         style="fill:#000000;fill-opacity:1;fill-rule:nonzero;stroke:none"
         id="path188" /><path
         d="m 19270.5,20623.1 c -5.6,0 -11.2,2.1 -15.5,6.3 -9,8.5 -9.3,22.8 -0.7,31.8 l 82.9,86.5 c 8.6,9 22.8,9.3 31.8,0.7 9,-8.6 9.3,-22.9 0.7,-31.9 l -82.9,-86.5 c -4.4,-4.6 -10.3,-6.9 -16.3,-6.9"
         style="fill:#000000;fill-opacity:1;fill-rule:nonzero;stroke:none"
         id="path190" /><path
         d="m 18980.5,20320.3 c -5.6,0 -11.2,2.1 -15.5,6.3 -9,8.6 -9.3,22.9 -0.7,31.8 l 82.8,86.5 c 8.7,9 22.9,9.3 31.9,0.7 9,-8.6 9.3,-22.8 0.6,-31.8 l -82.8,-86.5 c -4.4,-4.6 -10.4,-7 -16.3,-7"
         style="fill:#000000;fill-opacity:1;fill-rule:nonzero;stroke:none"
         id="path192" /><path
         d="m 19061.8,20618.5 c -5.7,0 -11.4,2.1 -15.8,6.4 l -84.1,82.8 c -8.8,8.7 -9,23 -0.2,31.9 8.7,8.8 22.9,9 31.8,0.2 l 84.1,-82.8 c 8.9,-8.7 9,-22.9 0.3,-31.8 -4.4,-4.5 -10.2,-6.7 -16.1,-6.7"
         style="fill:#000000;fill-opacity:1;fill-rule:nonzero;stroke:none"
         id="path194" /><path
         d="m 19356.2,20328.7 c -5.7,0 -11.4,2.1 -15.8,6.5 l -84.1,82.7 c -8.8,8.8 -9,23 -0.2,31.9 8.7,8.9 22.9,9 31.8,0.2 l 84.1,-82.7 c 8.9,-8.8 9,-23 0.3,-31.9 -4.4,-4.5 -10.2,-6.7 -16.1,-6.7"
         style="fill:#000000;fill-opacity:1;fill-rule:nonzero;stroke:none"
         id="path196" /><path
         d="m 19632,7377.1 c -12.2,0 -22.3,9.8 -22.5,22.1 l -2.6,119.7 c -0.3,12.5 9.6,22.8 22,23 12.6,0.5 22.8,-9.6 23,-22 l 2.6,-119.8 c 0.3,-12.4 -9.6,-22.7 -22,-23 -0.2,0 -0.4,0 -0.5,0"
         style="fill:#000000;fill-opacity:1;fill-rule:nonzero;stroke:none"
         id="path198" /><path
         d="m 19641,6958 c -12.2,0 -22.3,9.7 -22.5,22 l -2.6,119.8 c -0.3,12.4 9.6,22.7 22,23 12.5,0.4 22.8,-9.6 23,-22.1 l 2.6,-119.7 c 0.3,-12.5 -9.6,-22.7 -22,-23 -0.2,0 -0.3,0 -0.5,0"
         style="fill:#000000;fill-opacity:1;fill-rule:nonzero;stroke:none"
         id="path200" /><path
         d="m 19369.7,7225.3 c -12.4,0 -22.5,10 -22.6,22.4 0,12.4 9.9,22.6 22.4,22.7 l 118,0.9 c 0.1,0 0.1,0 0.2,0 12.3,0 22.4,-10 22.5,-22.3 0.1,-12.5 -9.9,-22.6 -22.3,-22.7 l -118.1,-1 h -0.1"
         style="fill:#000000;fill-opacity:1;fill-rule:nonzero;stroke:none"
         id="path202" /><path
         d="m 19782.7,7228.6 c -12.3,0 -22.4,10 -22.5,22.3 -0.1,12.5 9.9,22.6 22.4,22.7 l 118,1 c 11.5,0.1 22.6,-9.9 22.7,-22.4 0.1,-12.4 -9.9,-22.6 -22.4,-22.7 l -118,-0.9 c -0.1,0 -0.1,0 -0.2,0"
         style="fill:#000000;fill-opacity:1;fill-rule:nonzero;stroke:none"
         id="path204" /><path
         d="m 4410.77,19034 h 0.22 z m 96.12,-1.7 c -29.57,0 -59.06,-6.3 -86.9,-18.8 -109.35,-49.1 -159.1,-180 -110.9,-291.7 23.53,-54.5 66.51,-96.2 121.03,-117.4 53.33,-20.8 111.51,-19.3 163.8,4.2 109.34,49.1 159.09,180 110.89,291.7 -23.52,54.5 -66.5,96.2 -121.02,117.4 -24.94,9.7 -50.94,14.6 -76.9,14.6 z m 0.15,-487.5 c -31.47,0 -62.99,5.8 -93.24,17.6 -65.84,25.6 -117.72,75.9 -146.07,141.6 -57.88,134.2 2.14,291.4 133.81,350.6 63.37,28.4 133.88,30.2 198.57,5.1 65.85,-25.6 117.72,-75.9 146.07,-141.6 57.88,-134.2 -2.14,-291.4 -133.81,-350.6 -33.73,-15.1 -69.5,-22.7 -105.33,-22.7"
         style="fill:#000000;fill-opacity:1;fill-rule:nonzero;stroke:none"
         id="path206" /><path
         d="m 20572.5,8619.4 c -106.9,-48 -155.6,-176 -108.4,-285.3 23,-53.3 65,-94.1 118.3,-114.8 52.2,-20.3 109.2,-18.9 160.2,4.1 107,48 155.6,176 108.5,285.3 -23,53.3 -65.1,94.1 -118.4,114.8 -52.2,20.3 -109.1,18.8 -160.2,-4.1 z m 85.2,-459.4 c -30.9,0 -61.9,5.7 -91.6,17.3 -64.6,25.1 -115.6,74.5 -143.4,139 -56.8,131.7 2.1,286.1 131.4,344.2 62.2,27.9 131.4,29.7 194.9,5 64.7,-25.1 115.6,-74.5 143.4,-139 56.9,-131.7 -2,-286.1 -131.3,-344.2 -33.2,-14.9 -68.3,-22.3 -103.4,-22.3"
         style="fill:#000000;fill-opacity:1;fill-rule:nonzero;stroke:none"
         id="path208" /><path
         d="m 5435.6,4943.9 c -33.03,0 -66,-7 -97.1,-21 -122.13,-54.8 -177.7,-201 -123.89,-325.7 26.29,-61 74.31,-107.5 135.2,-131.2 59.61,-23.2 124.61,-21.5 183.04,4.7 122.13,54.9 177.7,201 123.87,325.8 -26.28,60.9 -74.28,107.5 -135.19,131.2 -27.87,10.8 -56.92,16.2 -85.93,16.2 z m 0.17,-539.2 c -34.52,0 -69.1,6.4 -102.27,19.3 -72.24,28.1 -129.14,83.2 -160.24,155.3 -63.52,147.3 2.34,319.8 146.78,384.7 69.5,31.2 146.85,33.2 217.81,5.6 72.23,-28 129.13,-83.2 160.23,-155.3 63.52,-147.2 -2.33,-319.8 -146.78,-384.7 -37,-16.6 -76.24,-24.9 -115.53,-24.9"
         style="fill:#000000;fill-opacity:1;fill-rule:nonzero;stroke:none"
         id="path210" /><path
         d="m 5019.42,20357.6 h 0.22 z m 62.03,-9.1 c -17.97,0 -35.89,-3.8 -52.8,-11.4 -66.59,-29.9 -96.87,-109.7 -67.49,-177.8 14.32,-33.2 40.48,-58.6 73.64,-71.5 32.4,-12.6 67.76,-11.6 99.53,2.6 66.59,29.9 96.87,109.7 67.49,177.8 -14.32,33.2 -40.49,58.6 -73.66,71.5 -15.15,5.9 -30.94,8.8 -46.71,8.8 z m 0.09,-314.6 c -21.28,0 -42.59,4 -63.05,12 -44.49,17.3 -79.54,51.2 -98.69,95.6 -39.07,90.6 1.49,196.7 90.4,236.7 42.84,19.2 90.53,20.4 134.28,3.4 44.49,-17.2 79.55,-51.2 98.69,-95.6 39.07,-90.6 -1.48,-196.7 -90.39,-236.7 -22.82,-10.2 -47.01,-15.4 -71.24,-15.4"
         style="fill:#000000;fill-opacity:1;fill-rule:nonzero;stroke:none"
         id="path212" /><path
         d="m 16229.9,19158.3 c -5.6,0 -11.2,2.1 -15.6,6.3 -9,8.6 -9.3,22.8 -0.7,31.8 l 82.9,86.5 c 8.6,9 22.9,9.3 31.8,0.7 9,-8.6 9.3,-22.8 0.7,-31.8 l -82.9,-86.5 c -4.4,-4.6 -10.3,-7 -16.2,-7"
         style="fill:#000000;fill-opacity:1;fill-rule:nonzero;stroke:none"
         id="path214" /><path
         d="m 15939.9,18855.6 c -5.7,0 -11.3,2.1 -15.6,6.2 -9,8.6 -9.3,22.9 -0.7,31.9 l 82.9,86.5 c 8.6,9 22.8,9.3 31.8,0.7 9,-8.6 9.3,-22.9 0.7,-31.9 l -82.9,-86.5 c -4.4,-4.6 -10.3,-6.9 -16.2,-6.9"
         style="fill:#000000;fill-opacity:1;fill-rule:nonzero;stroke:none"
         id="path216" /><path
         d="m 16021.2,19153.7 c -5.7,0 -11.5,2.2 -15.8,6.5 l -84.1,82.8 c -8.9,8.7 -9,22.9 -0.3,31.8 8.7,8.9 23,9 31.8,0.3 l 84.2,-82.8 c 8.8,-8.8 8.9,-23 0.2,-31.9 -4.4,-4.5 -10.2,-6.7 -16,-6.7"
         style="fill:#000000;fill-opacity:1;fill-rule:nonzero;stroke:none"
         id="path218" /><path
         d="m 16315.6,18863.9 c -5.7,0 -11.4,2.2 -15.8,6.5 l -84.1,82.8 c -8.9,8.7 -9,23 -0.3,31.8 8.7,8.9 23,9 31.8,0.3 l 84.1,-82.8 c 8.9,-8.7 9,-23 0.3,-31.8 -4.4,-4.5 -10.2,-6.8 -16,-6.8"
         style="fill:#000000;fill-opacity:1;fill-rule:nonzero;stroke:none"
         id="path220" /><path
         d="m 4676.36,5807.9 c -85.22,0 -154.55,-69.3 -154.55,-154.5 0,-85.2 69.33,-154.6 154.55,-154.6 85.23,0 154.55,69.4 154.55,154.6 0,85.2 -69.32,154.5 -154.55,154.5 z m 0,-354.1 c -110.05,0 -199.59,89.5 -199.59,199.6 0,110 89.54,199.6 199.59,199.6 110.05,0 199.59,-89.6 199.59,-199.6 0,-110.1 -89.54,-199.6 -199.59,-199.6"
         style="fill:#000000;fill-opacity:1;fill-rule:nonzero;stroke:none"
         id="path222" /></g></g></svg>
