<?xml version="1.0" encoding="UTF-8" standalone="no"?>
<!-- Created with Inkscape (http://www.inkscape.org/) -->

<svg
   version="1.1"
   id="svg2"
   xml:space="preserve"
   width="3333.3333"
   height="3333.3333"
   viewBox="0 0 3333.3333 3333.3333"
   sodipodi:docname="bwink_msc_09_single_05.eps"
   xmlns:inkscape="http://www.inkscape.org/namespaces/inkscape"
   xmlns:sodipodi="http://sodipodi.sourceforge.net/DTD/sodipodi-0.dtd"
   xmlns="http://www.w3.org/2000/svg"
   xmlns:svg="http://www.w3.org/2000/svg"><defs
     id="defs6" /><sodipodi:namedview
     id="namedview4"
     pagecolor="#ffffff"
     bordercolor="#666666"
     borderopacity="1.0"
     inkscape:pageshadow="2"
     inkscape:pageopacity="0.0"
     inkscape:pagecheckerboard="0" /><g
     id="g8"
     inkscape:groupmode="layer"
     inkscape:label="ink_ext_XXXXXX"
     transform="matrix(1.3333333,0,0,-1.3333333,0,3333.3333)"><g
       id="g10"
       transform="scale(0.1)"><path
         d="M 25000,0 H 0 V 25000 H 25000 V 0"
         style="fill:#ffffff;fill-opacity:1;fill-rule:nonzero;stroke:none"
         id="path12" /><path
         d="m 8061.33,17078.8 c 270.75,5.5 494.77,-209.3 500.38,-479.7 5.61,-270.4 -209.32,-494.1 -480.07,-499.7 -270.74,-5.5 -494.77,209.3 -500.38,479.7 -5.61,270.4 209.33,494.1 480.07,499.7 z m -976.95,-414.7 3.95,-190.2 203.84,-41.6 c 8.8,-43.9 21.07,-86.5 36.78,-127.4 l -149.73,-143.8 98.64,-162.8 197.36,65.8 c 29.29,-33.2 61.27,-63.8 95.64,-91.7 l -57.71,-199.7 166.88,-91.7 137.75,155.3 c 41.56,-13.9 84.67,-24.4 128.93,-31.4 l 49.96,-201.7 190.44,3.8 41.57,203.6 c 43.92,8.8 86.56,21.1 127.5,36.7 l 144.07,-149.6 162.95,98.5 -65.94,197.2 c 33.18,29.2 63.88,61.2 91.76,95.5 l 199.92,-57.7 91.8,166.6 -155.56,137.7 c 13.99,41.5 24.49,84.5 31.47,128.7 l 201.94,49.9 -3.94,190.2 -203.84,41.6 c -8.81,43.9 -21.07,86.4 -36.78,127.3 l 149.72,143.9 -98.63,162.8 -197.36,-65.8 c -29.28,33.1 -61.28,63.8 -95.64,91.7 l 57.71,199.6 -166.9,91.8 -137.74,-155.4 c -41.56,14 -84.66,24.5 -128.92,31.5 l -49.97,201.7 -190.44,-3.9 -41.56,-203.6 c -43.93,-8.7 -86.57,-21 -127.51,-36.7 l -144.07,149.6 -162.94,-98.4 65.94,-197.2 c -33.19,-29.2 -63.87,-61.2 -91.76,-95.5 l -199.93,57.7 -91.8,-166.7 155.56,-137.6 c -13.99,-41.5 -24.48,-84.6 -31.46,-128.8 l -201.95,-49.8"
         style="fill:#ffffff;fill-opacity:1;fill-rule:nonzero;stroke:none"
         id="path14" /><path
         d="m 8061.79,17056.7 c -125.05,-2.6 -241.61,-53.6 -328.2,-143.8 -86.58,-90.1 -132.84,-208.5 -130.24,-333.3 5.27,-254.6 214.36,-458.2 468.14,-458.2 3.24,0 6.45,0 9.7,0.1 125.05,2.6 241.61,53.6 328.2,143.7 86.58,90.1 132.83,208.6 130.23,333.4 -5.34,257.9 -219.83,464.2 -477.83,458.1 z m 9.69,-979.5 c -277.73,0 -506.51,222.8 -512.3,501.4 -2.83,136.7 47.79,266.3 142.55,365 94.76,98.6 222.32,154.4 359.15,157.2 282.62,4.8 517.05,-219.1 522.91,-501.3 2.83,-136.6 -47.8,-266.2 -142.56,-364.9 -94.75,-98.6 -222.3,-154.4 -359.14,-157.3 -3.54,0 -7.09,-0.1 -10.61,-0.1 z m -253.7,-218.8 c 2.35,0 4.73,-0.4 7.04,-1.1 40.16,-13.5 82.33,-23.8 125.33,-30.6 8.78,-1.4 15.87,-7.9 18,-16.5 l 45.72,-184.6 155.13,3.2 38.04,186.3 c 1.77,8.7 8.59,15.4 17.3,17.2 42.7,8.5 84.4,20.5 123.95,35.6 8.27,3.2 17.65,1.1 23.8,-5.3 l 131.85,-136.8 132.71,80.2 -60.33,180.4 c -2.81,8.4 -0.32,17.7 6.34,23.5 32.19,28.4 62.21,59.7 89.23,92.9 5.58,6.9 14.73,9.7 23.26,7.3 l 182.97,-52.8 74.75,135.7 -142.32,125.9 c -6.66,5.9 -9.13,15.2 -6.3,23.6 13.51,40.1 23.8,82.2 30.58,125.2 1.38,8.8 7.89,15.9 16.52,18 l 184.8,45.6 -3.22,154.9 -186.53,38 c -8.7,1.8 -15.5,8.6 -17.24,17.3 -8.57,42.7 -20.6,84.4 -35.75,123.8 -3.18,8.3 -1.09,17.7 5.32,23.9 l 136.97,131.6 -80.33,132.6 -180.62,-60.3 c -8.4,-2.8 -17.67,-0.3 -23.54,6.4 -28.39,32.1 -59.68,62.1 -93,89.1 -6.89,5.6 -9.76,14.8 -7.3,23.3 l 52.8,182.7 -135.95,74.7 -126.06,-142.1 c -5.88,-6.7 -15.16,-9.1 -23.57,-6.3 -40.07,13.5 -82.23,23.8 -125.3,30.6 -8.76,1.4 -15.86,7.9 -17.99,16.5 l -45.73,184.6 -155.14,-3.2 -38.03,-186.3 c -1.78,-8.7 -8.61,-15.5 -17.31,-17.2 -42.77,-8.6 -84.47,-20.6 -123.95,-35.7 -8.25,-3.1 -17.63,-1.1 -23.79,5.3 l -131.85,136.9 -132.71,-80.2 60.33,-180.4 c 2.81,-8.4 0.32,-17.7 -6.34,-23.5 -32.14,-28.4 -62.16,-59.6 -89.23,-92.9 -5.59,-6.9 -14.73,-9.8 -23.26,-7.3 l -182.97,52.8 -74.75,-135.7 142.31,-125.9 c 6.65,-5.9 9.13,-15.2 6.3,-23.6 -13.51,-40.1 -23.79,-82.2 -30.57,-125.2 -1.38,-8.8 -7.9,-15.9 -16.52,-18 l -184.8,-45.6 3.21,-154.9 186.54,-38.1 c 8.7,-1.7 15.49,-8.5 17.24,-17.3 8.57,-42.6 20.59,-84.3 35.75,-123.8 3.17,-8.2 1.08,-17.6 -5.32,-23.8 l -136.98,-131.6 80.34,-132.6 180.62,60.2 c 8.4,2.9 17.66,0.4 23.54,-6.3 28.43,-32.1 59.71,-62.1 93.01,-89.1 6.89,-5.6 9.76,-14.8 7.3,-23.3 l -52.81,-182.7 135.95,-74.7 126.04,142.1 c 4.26,4.8 10.32,7.4 16.52,7.4 z m 178.89,-277.3 c -10.14,0 -18.99,6.9 -21.44,16.8 l -46.46,187.6 c -35.5,6.2 -70.39,14.7 -104.07,25.4 l -128.14,-144.6 c -6.84,-7.7 -18.09,-9.6 -27.16,-4.7 l -166.89,91.8 c -9.05,5 -13.44,15.5 -10.57,25.5 l 53.68,185.7 c -27.22,22.9 -53.09,47.7 -77.14,74 l -183.64,-61.3 c -9.79,-3.2 -20.51,0.7 -25.88,9.5 l -98.63,162.8 c -5.34,8.9 -3.86,20.2 3.6,27.4 l 139.26,133.8 c -12,33.1 -21.94,67.6 -29.65,102.8 l -189.62,38.6 c -10.12,2.1 -17.46,10.9 -17.68,21.2 l -3.95,190.2 c -0.2,10.4 6.77,19.5 16.79,21.9 l 187.86,46.4 c 6.24,35.5 14.73,70.3 25.35,103.9 l -144.69,128 c -7.74,6.8 -9.69,18.1 -4.71,27.2 l 91.8,166.7 c 4.97,9 15.52,13.4 25.47,10.5 l 186.02,-53.6 c 22.95,27.2 47.75,53 73.99,77 l -61.33,183.4 c -3.28,9.8 0.68,20.5 9.52,25.9 l 162.94,98.4 c 8.82,5.4 20.17,3.9 27.32,-3.5 l 134.04,-139.2 c 33.16,12 67.65,21.9 102.91,29.6 l 38.66,189.4 c 2.07,10.1 10.87,17.4 21.19,17.6 l 190.42,3.9 c 10.92,0.2 19.41,-6.8 21.89,-16.8 l 46.49,-187.6 c 35.53,-6.3 70.41,-14.8 104.05,-25.4 l 128.15,144.5 c 6.83,7.7 18.12,9.7 27.15,4.7 l 166.9,-91.7 c 9.04,-5 13.43,-15.6 10.57,-25.5 l -53.67,-185.7 c 27.23,-23 53.09,-47.8 77.13,-74 l 183.63,61.2 c 9.79,3.3 20.52,-0.6 25.88,-9.5 l 98.63,-162.8 c 5.35,-8.8 3.86,-20.2 -3.59,-27.3 l -139.26,-133.8 c 12,-33.2 21.94,-67.6 29.65,-102.8 l 189.62,-38.7 c 10.11,-2 17.46,-10.8 17.67,-21.1 l 3.94,-190.3 c 0.2,-10.3 -6.76,-19.4 -16.79,-21.8 l -187.85,-46.4 c -6.24,-35.5 -14.74,-70.3 -25.36,-103.9 l 144.71,-128 c 7.74,-6.9 9.69,-18.2 4.71,-27.2 l -91.8,-166.7 c -4.97,-9 -15.48,-13.4 -25.48,-10.6 l -186,53.7 c -22.91,-27.1 -47.73,-53 -74.01,-77 l 61.34,-183.4 c 3.28,-9.8 -0.68,-20.5 -9.52,-25.9 l -162.95,-98.5 c -8.82,-5.3 -20.18,-3.8 -27.32,3.6 l -134.03,139.2 c -33.2,-12 -67.71,-21.9 -102.91,-29.6 l -38.66,-189.4 c -2.07,-10.1 -10.87,-17.4 -21.19,-17.7 l -190.44,-3.8 c -0.15,0 -0.3,0 -0.45,0"
         style="fill:#000000;fill-opacity:1;fill-rule:nonzero;stroke:none"
         id="path16" /><path
         d="m 16910.3,18613.5 c 224.9,4.6 411.1,-173.8 415.7,-398.5 4.7,-224.7 -173.9,-410.6 -398.8,-415.2 -225,-4.6 -411.1,173.9 -415.8,398.5 -4.6,224.7 173.9,410.6 398.9,415.2 z m -811.7,-344.5 3.3,-158.1 169.3,-34.5 c 7.3,-36.5 17.5,-71.9 30.6,-105.8 l -124.4,-119.6 81.9,-135.2 164,54.7 c 24.3,-27.6 50.9,-53.1 79.5,-76.2 l -48,-165.9 138.7,-76.2 114.4,129 c 34.6,-11.6 70.4,-20.3 107.1,-26.1 l 41.6,-167.6 158.2,3.2 34.5,169.2 c 36.5,7.3 71.9,17.4 106,30.5 l 119.7,-124.3 135.3,81.8 -54.7,163.8 c 27.5,24.3 53,50.8 76.2,79.3 l 166.1,-47.9 76.3,138.5 -129.3,114.3 c 11.7,34.5 20.4,70.3 26.2,107 l 167.8,41.4 -3.3,158.1 -169.4,34.5 c -7.3,36.5 -17.5,71.9 -30.5,105.8 l 124.4,119.6 -82,135.2 -164,-54.7 c -24.3,27.6 -50.9,53.1 -79.4,76.2 l 47.9,165.9 -138.6,76.2 -114.5,-129 c -34.5,11.6 -70.3,20.3 -107.1,26.1 l -41.5,167.6 -158.2,-3.2 -34.6,-169.2 c -36.5,-7.3 -71.9,-17.4 -105.9,-30.5 l -119.7,124.3 -135.4,-81.8 54.8,-163.8 c -27.6,-24.3 -53.1,-50.8 -76.2,-79.3 l -166.2,47.9 -76.2,-138.5 129.2,-114.3 c -11.6,-34.5 -20.3,-70.3 -26.1,-107 l -167.8,-41.4"
         style="fill:#ffffff;fill-opacity:1;fill-rule:nonzero;stroke:none"
         id="path18" /><path
         d="m 16910.7,18591.4 c -102.9,-2.1 -198.8,-44.1 -270,-118.3 -71.3,-74.1 -109.3,-171.5 -107.2,-274.3 4.3,-209.5 176.4,-377 385.2,-377 2.7,0 5.3,0.1 8,0.1 102.9,2.1 198.8,44.1 270.1,118.3 71.2,74.1 109.3,171.5 107.1,274.3 -4.3,212.2 -180.7,381 -393.2,376.9 z m 8,-813.7 c -232.8,-0.1 -424.5,186.6 -429.4,420.2 -2.3,114.6 40.1,223.2 119.5,305.9 79.4,82.6 186.3,129.4 301,131.8 3,0 6,0.1 8.9,0.1 232.8,0 424.6,-186.7 429.4,-420.3 2.4,-114.5 -40.1,-223.2 -119.5,-305.8 -79.4,-82.7 -186.3,-129.5 -301,-131.9 -3,0 -5.9,0 -8.9,0 z m -210.8,-174.4 c 2.4,0 4.8,-0.4 7.1,-1.1 33.1,-11.2 68,-19.7 103.5,-25.3 8.8,-1.4 15.9,-7.9 18,-16.5 l 37.3,-150.5 122.9,2.5 31,151.9 c 1.8,8.7 8.6,15.5 17.3,17.2 35.3,7.1 69.7,17 102.4,29.5 8.2,3.2 17.6,1.1 23.8,-5.3 l 107.4,-111.6 105.2,63.6 -49.2,147 c -2.8,8.4 -0.3,17.7 6.4,23.6 26.5,23.4 51.3,49.2 73.6,76.7 5.7,6.9 14.9,9.7 23.3,7.3 l 149.2,-43.1 59.2,107.6 -116,102.6 c -6.7,5.9 -9.1,15.2 -6.3,23.6 11.1,33 19.6,67.8 25.3,103.4 1.3,8.7 7.9,15.8 16.5,18 l 150.6,37.2 -2.6,122.7 -152,31 c -8.7,1.8 -15.5,8.6 -17.2,17.3 -7.1,35.2 -17,69.6 -29.6,102.2 -3.2,8.3 -1.1,17.7 5.3,23.9 l 111.7,107.2 -63.6,105.1 -147.3,-49.1 c -8.4,-2.8 -17.7,-0.3 -23.5,6.3 -23.4,26.5 -49.3,51.3 -76.8,73.7 -6.9,5.6 -9.8,14.7 -7.3,23.3 l 43,148.9 -107.7,59.2 -102.8,-115.9 c -5.9,-6.6 -15.1,-9.1 -23.5,-6.3 -33.2,11.2 -68,19.7 -103.5,25.3 -8.8,1.4 -15.9,7.9 -18,16.5 l -37.3,150.5 -122.9,-2.5 -31,-151.9 c -1.8,-8.7 -8.6,-15.5 -17.3,-17.2 -35.4,-7.1 -69.8,-17 -102.4,-29.5 -8.3,-3.1 -17.7,-1.1 -23.8,5.3 l -107.5,111.6 -105.1,-63.5 49.1,-147.1 c 2.9,-8.4 0.4,-17.7 -6.3,-23.6 -26.5,-23.3 -51.4,-49.1 -73.7,-76.7 -5.6,-6.9 -14.8,-9.7 -23.3,-7.3 l -149.1,43.1 -59.3,-107.5 116,-102.7 c 6.7,-5.9 9.2,-15.2 6.3,-23.6 -11.1,-33 -19.6,-67.8 -25.2,-103.4 -1.4,-8.7 -7.9,-15.8 -16.5,-18 l -150.7,-37.1 2.6,-122.8 152,-31 c 8.7,-1.7 15.5,-8.6 17.3,-17.3 7.1,-35.3 17,-69.7 29.5,-102.2 3.2,-8.3 1.1,-17.7 -5.3,-23.9 l -111.7,-107.2 63.7,-105.1 147.2,49.1 c 8.4,2.8 17.7,0.3 23.5,-6.3 23.5,-26.6 49.4,-51.4 76.9,-73.7 6.9,-5.5 9.8,-14.7 7.3,-23.2 l -43.1,-149 107.8,-59.2 102.7,115.9 c 4.3,4.8 10.3,7.4 16.5,7.4 z m 148.7,-237.9 c -10.2,0 -19,6.9 -21.5,16.8 l -38,153.5 c -28,5.1 -55.6,11.8 -82.2,20.1 l -104.9,-118.3 c -6.9,-7.7 -18.2,-9.6 -27.1,-4.7 l -138.7,76.2 c -9.1,5 -13.5,15.6 -10.6,25.5 l 43.9,152 c -21.4,18.2 -41.8,37.8 -60.9,58.4 l -150.3,-50.1 c -9.8,-3.2 -20.5,0.7 -25.9,9.5 l -81.9,135.3 c -5.4,8.8 -3.9,20.2 3.6,27.4 l 114,109.5 c -9.4,26.1 -17.3,53.3 -23.5,81.1 l -155.2,31.7 c -10.1,2.1 -17.4,10.8 -17.6,21.2 l -3.3,158 c -0.2,10.3 6.8,19.4 16.8,21.9 l 153.7,38 c 5,27.9 11.8,55.4 20,82 l -118.4,104.8 c -7.7,6.8 -9.7,18.1 -4.7,27.2 l 76.3,138.4 c 5,9.1 15.5,13.5 25.5,10.6 l 152.2,-43.9 c 18.2,21.4 37.8,41.8 58.5,60.8 l -50.2,150.1 c -3.3,9.8 0.6,20.6 9.5,25.9 l 135.4,81.8 c 8.8,5.3 20.1,3.9 27.3,-3.6 l 109.7,-113.8 c 26.2,9.3 53.5,17.2 81.3,23.3 l 31.6,155 c 2.1,10.1 10.9,17.4 21.2,17.7 l 158.2,3.2 c 11.4,-0.2 19.4,-6.7 21.9,-16.8 l 38.1,-153.5 c 28,-5.1 55.5,-11.8 82.2,-20.1 l 104.8,118.3 c 6.9,7.7 18.2,9.6 27.2,4.7 l 138.7,-76.2 c 9,-5 13.4,-15.6 10.5,-25.5 l -43.9,-152 c 21.5,-18.2 41.9,-37.8 60.9,-58.4 l 150.3,50.1 c 9.8,3.2 20.5,-0.7 25.9,-9.5 l 81.9,-135.3 c 5.4,-8.8 3.9,-20.2 -3.5,-27.4 l -114,-109.5 c 9.4,-26.2 17.2,-53.4 23.4,-81.1 l 155.2,-31.7 c 10.1,-2.1 17.4,-10.8 17.7,-21.2 l 3.2,-158 c 0.2,-10.3 -6.7,-19.4 -16.8,-21.9 l -153.7,-38 c -5,-28 -11.7,-55.4 -20,-82 l 118.4,-104.8 c 7.7,-6.8 9.7,-18.1 4.7,-27.2 l -76.3,-138.5 c -4.9,-9 -15.5,-13.3 -25.4,-10.5 l -152.2,43.9 c -18.2,-21.4 -37.8,-41.8 -58.5,-60.8 l 50.2,-150.1 c 3.3,-9.8 -0.7,-20.6 -9.5,-25.9 l -135.4,-81.8 c -8.9,-5.3 -20.2,-3.9 -27.3,3.6 l -109.7,113.9 c -26.3,-9.4 -53.5,-17.3 -81.3,-23.4 l -31.7,-155 c -2,-10.1 -10.8,-17.4 -21.2,-17.7 l -158.2,-3.2 c -0.1,0 -0.3,0 -0.4,0"
         style="fill:#000000;fill-opacity:1;fill-rule:nonzero;stroke:none"
         id="path20" /><path
         d="m 18941.8,19306.9 c 334.5,117 700.6,-59.3 817.7,-393.8 117,-334.6 -59.3,-700.6 -393.9,-817.5 -334.5,-117 -700.6,59.3 -817.7,393.8 -117,334.5 59.3,700.5 393.9,817.5 z m -1046.6,-913.7 82.3,-235.2 270.5,31.1 c 28.9,-51.1 61.4,-99.1 97.6,-143.7 l -127.7,-240 189,-162.6 218.7,162.2 c 49.9,-29.4 102.2,-54.6 156.3,-75.3 l 9.5,-272.2 244.9,-46.3 108.1,249.4 c 57.4,-0.5 115.3,4 173.2,13.3 l 144.3,-230.9 235.3,82.2 -31.1,270.5 c 51,28.8 99.1,61.4 143.6,97.6 l 240.1,-127.8 162.7,188.9 -162.3,218.8 c 29.4,49.9 54.6,102.1 75.3,156.2 l 272.2,9.4 46.3,244.9 -249.5,108.2 c 0.5,57.4 -4,115.2 -13.3,173.1 l 231,144.2 -82.3,235.3 -270.5,-31.1 c -28.9,51.1 -61.5,99.1 -97.6,143.7 l 127.7,240 -189,162.6 -218.7,-162.2 c -49.9,29.4 -102.2,54.6 -156.3,75.3 l -9.5,272.1 -244.9,46.4 -108.2,-249.4 c -57.3,0.5 -115.2,-4 -173.1,-13.3 l -144.3,230.9 -235.3,-82.3 31.1,-270.4 c -51,-28.8 -99.1,-61.4 -143.6,-97.6 l -240.1,127.7 -162.7,-188.9 162.3,-218.7 c -29.4,-49.9 -54.6,-102.1 -75.3,-156.2 l -272.2,-9.5 -46.3,-244.9 249.5,-108.1 c -0.5,-57.4 3.9,-115.3 13.3,-173.2 l -231,-144.2"
         style="fill:#ffffff;fill-opacity:1;fill-rule:nonzero;stroke:none"
         id="path22" /><path
         d="m 18949.1,19286.1 c -156.3,-54.7 -281.9,-166.8 -353.7,-315.9 -71.8,-149.1 -81.3,-317.3 -26.6,-473.5 112.8,-322.5 467.1,-493 789.5,-380.3 156.3,54.6 281.9,166.8 353.7,315.9 71.8,149.1 81.3,317.3 26.6,473.5 -112.8,322.4 -467.1,493 -789.5,380.3 z m 205.2,-1248.6 c -274.3,0 -531.6,171.4 -627.2,444.7 -58.6,167.3 -48.4,347.4 28.5,507.1 77,159.7 211.5,279.9 378.9,338.5 345.5,120.8 724.9,-62 845.8,-407.5 58.6,-167.3 48.4,-347.4 -28.5,-507.1 -77,-159.8 -211.5,-280 -378.9,-338.5 -72.2,-25.2 -146,-37.2 -218.6,-37.2 z m -341.5,-561.5 210.3,-39.8 101.1,233.2 c 3.5,8.2 10.6,13.5 20.4,13.3 55.8,-0.5 112.8,3.9 169.5,13 8.7,1.4 17.5,-2.6 22.2,-10.1 l 135,-215.9 201.9,70.6 -29.1,252.9 c -1,8.8 3.4,17.4 11.1,21.7 49.9,28.2 97.3,60.3 140.6,95.5 6.9,5.6 16.5,6.5 24.3,2.3 l 224.5,-119.4 139.6,162.2 -151.7,204.5 c -5.3,7.1 -5.8,16.7 -1.3,24.4 28.7,48.7 53.5,100.2 73.7,152.9 3.1,8.3 11,13.9 19.8,14.2 l 254.5,8.8 39.9,210.2 -233.4,101.1 c -8.1,3.6 -13.4,11.6 -13.3,20.5 0.5,55.8 -3.9,112.8 -13,169.4 -1.4,8.8 2.6,17.6 10.1,22.3 l 216,134.8 -70.7,202 -252.9,-29.2 c -8.8,-1 -17.4,3.4 -21.8,11.2 -28.2,49.9 -60.3,97.2 -95.5,140.5 -5.6,6.9 -6.5,16.5 -2.3,24.3 l 119.4,224.5 -162.2,139.6 -204.6,-151.7 c -7.1,-5.3 -16.7,-5.8 -24.3,-1.3 -48.7,28.6 -100.1,53.4 -153,73.7 -8.3,3.2 -13.9,11 -14.2,19.9 l -8.8,254.4 -210.3,39.8 -101.1,-233.2 c -3.5,-8.1 -11.5,-13.3 -20.3,-13.3 -2.5,-0.3 -5.9,0 -8.8,0 -53,0 -107.1,-4.4 -160.8,-13 -8.7,-1.5 -17.5,2.6 -22.2,10.1 l -135,215.9 -201.9,-70.6 29.1,-252.9 c 1,-8.8 -3.4,-17.4 -11.1,-21.7 -50,-28.2 -97.3,-60.4 -140.6,-95.5 -6.9,-5.6 -16.5,-6.5 -24.3,-2.4 l -224.5,119.4 -139.6,-162.1 151.7,-204.5 c 5.3,-7.1 5.8,-16.7 1.3,-24.4 -28.6,-48.6 -53.4,-100.1 -73.7,-152.9 -3.1,-8.3 -11,-13.9 -19.8,-14.2 l -254.5,-8.8 -39.9,-210.2 233.4,-101.1 c 8.1,-3.6 13.4,-11.6 13.3,-20.5 -0.5,-55.6 3.8,-112.7 12.9,-169.5 1.5,-8.7 -2.5,-17.5 -10.1,-22.2 l -215.9,-134.8 70.6,-202 253,29.1 c 8.7,1 17.4,-3.3 21.8,-11.1 28.2,-50 60.3,-97.3 95.5,-140.6 5.6,-6.9 6.5,-16.4 2.3,-24.3 l -119.4,-224.4 162.2,-139.6 204.5,151.7 c 7.1,5.3 16.8,5.8 24.4,1.3 48.7,-28.7 100.2,-53.5 153,-73.7 8.3,-3.2 13.8,-11 14.1,-19.9 z m 223.5,-86.9 c -1.4,0 -2.7,0.1 -4.1,0.4 l -244.9,46.3 c -10.2,2 -17.6,10.7 -18,21 l -9,257.6 c -45.7,18.3 -90.4,39.8 -133.2,64.2 L 18420,17625 c -8.3,-6.1 -19.7,-5.7 -27.5,1 l -189,162.6 c -7.8,6.8 -9.9,18 -5.1,27.1 l 120.9,227.3 c -30.2,38.2 -58.1,79.3 -83.2,122.5 l -256,-29.5 c -10.1,-1.1 -20,4.9 -23.4,14.7 l -82.3,235.2 c -3.4,9.8 0.4,20.6 9.1,26.1 l 218.6,136.5 c -7.2,49.4 -11,98.9 -11.3,147.6 l -236.2,102.4 c -9.5,4.1 -14.8,14.2 -12.9,24.4 l 46.3,244.9 c 2,10.1 10.7,17.6 21,17.9 l 257.7,9 c 18.2,45.7 39.7,90.4 64.1,133.1 l -153.6,207.1 c -6.2,8.3 -5.7,19.7 1,27.5 l 162.6,188.9 c 6.8,7.9 18,10 27.1,5.1 l 227.3,-120.8 c 38.3,30.1 79.4,58 122.5,83.1 l -29.4,256 c -1.2,10.3 4.9,20 14.6,23.4 l 235.3,82.3 c 9.7,3.4 20.6,-0.4 26,-9.2 l 136.6,-218.5 c 49.4,7.2 98.9,11 147.7,11.3 l 102.3,236.1 c 4.1,9.5 14.2,14.8 24.4,12.9 l 244.9,-46.4 c 10.2,-1.9 17.6,-10.6 18,-20.9 l 9,-257.6 c 45.8,-18.3 90.5,-39.8 133.2,-64.2 l 207.1,153.6 c 8.3,6.1 19.7,5.7 27.5,-1 l 189,-162.7 c 7.8,-6.7 9.9,-17.9 5.1,-27.1 l -120.9,-227.2 c 30.2,-38.3 58.1,-79.4 83.2,-122.5 l 256,29.5 c 10.1,1.1 20,-4.9 23.4,-14.7 l 82.3,-235.3 c 3.4,-9.7 -0.4,-20.5 -9.1,-26 l -218.6,-136.5 c 7.2,-49.3 11,-98.8 11.3,-147.6 l 236.2,-102.4 c 9.5,-4.1 14.8,-14.2 12.9,-24.4 l -46.3,-244.9 c -2,-10.1 -10.6,-17.6 -21,-17.9 l -257.6,-9 c -18.3,-45.7 -39.8,-90.3 -64.2,-133.1 l 153.6,-207.1 c 6.2,-8.3 5.7,-19.7 -1,-27.6 l -162.6,-188.9 c -6.8,-7.8 -18.1,-9.9 -27.1,-5 l -227.3,120.8 c -38.4,-30.2 -79.5,-58.1 -122.5,-83.1 l 29.4,-256 c 1.2,-10.3 -4.9,-20 -14.6,-23.4 l -235.3,-82.3 c -9.7,-3.4 -20.6,0.4 -26,9.2 l -136.6,218.5 c -49.4,-7.2 -98.9,-11 -147.7,-11.3 l -102.3,-236.1 c -3.6,-8.2 -11.6,-13.3 -20.3,-13.3"
         style="fill:#000000;fill-opacity:1;fill-rule:nonzero;stroke:none"
         id="path24" /><path
         d="m 7171.07,10024.8 c -5.65,0 -11.29,2.2 -15.61,6.5 -8.62,8.6 -8.62,22.6 0,31.2 l 1909.49,1909.1 c 8.62,8.7 22.6,8.7 31.23,0 8.62,-8.6 8.62,-22.6 0,-31.2 l -1909.5,-1909.1 c -4.31,-4.3 -9.96,-6.5 -15.61,-6.5"
         style="fill:#000000;fill-opacity:1;fill-rule:nonzero;stroke:none"
         id="path26" /><path
         d="m 7623.17,11282.5 c -5.65,0 -11.3,2.1 -15.61,6.5 -8.63,8.6 -8.63,22.6 0,31.2 l 1526.97,1526.6 c 8.63,8.7 22.6,8.7 31.23,0 8.62,-8.6 8.62,-22.6 0,-31.2 L 7638.78,11289 c -4.31,-4.4 -9.96,-6.5 -15.61,-6.5"
         style="fill:#000000;fill-opacity:1;fill-rule:nonzero;stroke:none"
         id="path28" /><path
         d="m 5499.63,16026.9 c -3.9,0 -7.85,1.1 -11.43,3.3 -10.43,6.3 -13.76,19.9 -7.43,30.3 727.26,1198.4 1784.47,2149.7 3057.36,2751.2 529.93,250.4 1087.24,435.2 1656.47,549.2 12.1,2.5 23.6,-5.3 26,-17.3 2.4,-11.9 -5.4,-23.6 -17.3,-26 C 9637.57,19204.3 9083.68,19020.7 8557,18771.8 7291.96,18174 6241.28,17228.5 5518.53,16037.6 c -4.15,-6.9 -11.44,-10.7 -18.9,-10.7"
         style="fill:#000000;fill-opacity:1;fill-rule:nonzero;stroke:none"
         id="path30" /><path
         d="m 4598.33,15828.9 c -3.61,0 -7.25,0.9 -10.62,2.7 -10.69,5.9 -14.59,19.4 -8.72,30 432.57,786.6 991.22,1491.8 1660.47,2096.2 692.57,625.4 1486.32,1126.5 2359.2,1489.2 11.29,4.7 24.19,-0.7 28.87,-11.9 4.68,-11.3 -0.66,-24.2 -11.91,-28.9 -1702.56,-707.5 -3122.38,-1973.9 -3997.92,-3565.8 -4.02,-7.3 -11.58,-11.5 -19.37,-11.5"
         style="fill:#000000;fill-opacity:1;fill-rule:nonzero;stroke:none"
         id="path32" /><path
         d="m 9351.63,19872.7 79.26,-251.4 155.4,238.6 z m 72.25,-324.7 c -0.99,0 -2,0.1 -3,0.2 -8.45,1.2 -15.49,7.1 -18.06,15.3 l -102.91,326.3 c -2.18,6.9 -0.83,14.5 3.61,20.2 4.44,5.7 11.46,8.8 18.65,8.5 l 304.69,-16.6 c 7.88,-0.4 14.92,-5 18.49,-12 3.57,-7.1 3.12,-15.5 -1.18,-22.1 l -201.79,-309.7 c -4.1,-6.3 -11.1,-10.1 -18.5,-10.1"
         style="fill:#000000;fill-opacity:1;fill-rule:nonzero;stroke:none"
         id="path34" /><path
         d="m 15752.4,21115.5 c 8.1,-92.8 90.4,-161.8 183,-153.8 45,3.9 85.8,25.1 114.8,59.6 29.1,34.6 42.9,78.4 39,123.3 -8,92.9 -90.1,161.8 -182.9,153.8 -45,-3.8 -85.8,-25 -114.9,-59.6 -29,-34.5 -42.8,-78.3 -39,-123.3 z m 168.3,-198.6 c -109.4,0 -202.7,83.9 -212.3,194.8 -4.9,56.7 12.6,112 49.2,155.6 36.7,43.5 88.1,70.2 144.9,75.1 116.7,10.1 220.6,-76.8 230.7,-193.9 5,-56.8 -12.5,-112 -49.2,-155.6 -36.6,-43.6 -88,-70.3 -144.8,-75.2 -6.2,-0.5 -12.4,-0.8 -18.5,-0.8"
         style="fill:#000000;fill-opacity:1;fill-rule:nonzero;stroke:none"
         id="path36" /><path
         d="m 17667.1,20828 c -0.4,0 -0.8,0 -1.1,0 l -117.1,5.7 c -12.2,0.6 -21.6,11 -21,23.2 0.6,12.2 11.1,21.5 23.2,20.9 l 117,-5.7 c 12.2,-0.6 21.6,-11 21,-23.1 -0.6,-11.8 -10.3,-21 -22,-21"
         style="fill:#000000;fill-opacity:1;fill-rule:nonzero;stroke:none"
         id="path38" /><path
         d="m 17257.3,20848.1 c -0.4,0 -0.8,0 -1.1,0 l -117.1,5.7 c -12.2,0.6 -21.6,11 -21,23.1 0.6,12.2 11,21.3 23.2,21 l 117,-5.7 c 12.2,-0.6 21.6,-11 21,-23.1 -0.6,-11.9 -10.3,-21 -22,-21"
         style="fill:#000000;fill-opacity:1;fill-rule:nonzero;stroke:none"
         id="path40" /><path
         d="m 17412.4,20985 c -0.4,0 -0.9,0 -1.3,0 -12.2,0.8 -21.5,11.2 -20.7,23.4 l 7,115.3 c 0.7,12.1 11.4,21.6 23.4,20.6 12.2,-0.7 21.4,-11.2 20.7,-23.4 l -7.1,-115.2 c -0.7,-11.7 -10.4,-20.7 -22,-20.7"
         style="fill:#000000;fill-opacity:1;fill-rule:nonzero;stroke:none"
         id="path42" /><path
         d="m 17387.8,20581.5 c -0.4,0 -0.9,0 -1.3,0.1 -12.2,0.7 -21.5,11.2 -20.7,23.3 l 7,115.3 c 0.7,12.2 11.4,21.7 23.4,20.7 12.1,-0.7 21.4,-11.2 20.7,-23.4 l -7.1,-115.2 c -0.7,-11.8 -10.4,-20.8 -22,-20.8"
         style="fill:#000000;fill-opacity:1;fill-rule:nonzero;stroke:none"
         id="path44" /><path
         d="m 6805.27,8681.7 c 36.53,-297.4 -50.17,-596.8 -239.96,-828.7 -189.78,-231.8 -466.13,-376 -764.84,-398.9 -300.76,-23.1 -597.74,78.8 -821.05,281.6 -223.32,202.8 -353.25,488.6 -359.24,790.3 l 71.44,5716.9 c -8.18,411.6 306.31,758.1 716.71,789.6 413.63,31.7 779.05,-267.5 829.63,-679.3 l 567.31,-5671.5"
         style="fill:#000000;fill-opacity:1;fill-rule:nonzero;stroke:none"
         id="path46" /><path
         d="m 5468.75,15012.7 c -19.44,0 -39.01,-0.8 -58.73,-2.3 -398.39,-30.5 -704.25,-367.5 -696.32,-767 l -71.44,-5717.7 c 5.84,-293.6 134.15,-575.8 352,-773.7 217.87,-197.8 511.38,-298.4 804.52,-275.9 291.25,22.4 564.4,164.8 749.44,390.9 185.04,226.1 270.74,522 235.13,812 -0.02,0.2 -0.03,0.3 -0.05,0.5 L 6215.99,14351 c -46.78,380.8 -369.33,661.7 -747.24,661.7 z m 248.88,-7583.8 c -276.66,0 -547.17,103.5 -753.06,290.4 -226.81,206 -360.39,499.9 -366.48,806.2 l 71.45,5717.7 c -8.39,422.3 315.38,778.9 737.1,811.3 426.54,32.7 801.13,-274.2 853.24,-698.6 l 567.34,-5671.7 c 37,-301.8 -52.22,-609.9 -244.82,-845.2 -192.64,-235.3 -477.03,-383.6 -780.23,-406.9 -28.2,-2.2 -56.42,-3.2 -84.54,-3.2"
         style="fill:#000000;fill-opacity:1;fill-rule:nonzero;stroke:none"
         id="path48" /><path
         d="m 7915.04,7727.1 c -212.53,0 -399.59,140.1 -459.28,344.1 l -218.68,747 c -42.54,145.4 -175.85,245.2 -327.32,245.2 H 4152.7 c -197.91,0 -358.34,-160.4 -358.34,-358.2 V 6237.4 h 4707.56 v 1131.4 c 0,197.9 -160.43,358.3 -358.34,358.3 h -228.54"
         style="fill:#000000;fill-opacity:1;fill-rule:nonzero;stroke:none"
         id="path50" /><path
         d="m 3816.44,6259.5 h 4663.4 v 1109.3 c 0,185.4 -150.84,336.2 -336.25,336.2 h -228.55 c -220.87,0 -418.44,148 -480.48,360 l -218.68,747 c -39.52,135 -165.4,229.3 -306.12,229.3 H 4152.7 c -185.41,0 -336.26,-150.8 -336.26,-336.1 z m 4685.49,-44.2 H 3794.36 c -12.2,0 -22.08,9.9 -22.08,22.1 v 2467.8 c 0,209.7 170.65,380.3 380.42,380.3 h 2757.06 c 160.2,0 303.52,-107.4 348.52,-261.1 l 218.66,-747 c 56.57,-193.3 236.72,-328.2 438.1,-328.2 h 228.55 c 209.76,0 380.42,-170.6 380.42,-380.4 V 6237.4 c 0,-12.2 -9.88,-22.1 -22.08,-22.1"
         style="fill:#000000;fill-opacity:1;fill-rule:nonzero;stroke:none"
         id="path52" /><path
         d="m 8321.62,7727.1 c -212.53,0 -399.59,140.1 -459.29,344.1 l -218.67,747 c -42.55,145.4 -175.86,245.2 -327.32,245.2 H 4559.27 c -197.9,0 -358.34,-160.4 -358.34,-358.2 V 6237.4 H 8908.5 v 1131.4 c 0,197.9 -160.43,358.3 -358.34,358.3 h -228.54"
         style="fill:#ffffff;fill-opacity:1;fill-rule:nonzero;stroke:none"
         id="path54" /><path
         d="m 4223.01,6259.5 h 4663.41 v 1109.3 c 0,185.4 -150.85,336.2 -336.26,336.2 h -228.54 c -220.86,0 -418.44,148 -480.48,360 l -218.68,747 c -39.53,135 -165.41,229.3 -306.12,229.3 H 4559.27 c -185.41,0 -336.26,-150.8 -336.26,-336.1 z M 8908.5,6215.3 H 4200.93 c -12.19,0 -22.08,9.9 -22.08,22.1 v 2467.8 c 0,209.7 170.66,380.3 380.42,380.3 h 2757.07 c 160.19,0 303.51,-107.4 348.51,-261.1 l 218.68,-747 c 56.56,-193.3 236.71,-328.2 438.09,-328.2 h 228.54 c 209.76,0 380.42,-170.6 380.42,-380.4 V 6237.4 c 0,-12.2 -9.89,-22.1 -22.08,-22.1"
         style="fill:#000000;fill-opacity:1;fill-rule:nonzero;stroke:none"
         id="path56" /><path
         d="m 8730.11,7323.9 c 0,-107.5 -87.19,-194.7 -194.72,-194.7 -107.55,0 -194.73,87.2 -194.73,194.7 0,107.5 87.18,194.7 194.73,194.7 107.53,0 194.72,-87.2 194.72,-194.7"
         style="fill:#ffffff;fill-opacity:1;fill-rule:nonzero;stroke:none"
         id="path58" /><path
         d="M 9383.54,6171.4 H 3332.51 v 269.8 h 6051.03 v -269.8"
         style="fill:#000000;fill-opacity:1;fill-rule:nonzero;stroke:none"
         id="path60" /><path
         d="M 21223.7,7825.6 10410.6,9329.3 c -271.5,34.7 -474.97,265.7 -474.97,539.4 L 9787.29,17411 c 0,0 246.51,177.7 386.21,245.8 71.1,34.6 152.9,49.8 238.1,38.9 l 10780.9,-1374.8 c 271.5,-34.7 475,-265.7 475,-539.4 V 8373.6 c 0,-132.6 -60.6,-249.4 -154.3,-326.5 -86.3,-70.9 -289.5,-221.5 -289.5,-221.5"
         style="fill:#000000;fill-opacity:1;fill-rule:nonzero;stroke:none"
         id="path62" /><path
         d="m 20893.7,7725.4 -10781,1374.9 c -271.45,34.6 -474.89,265.6 -474.89,539.3 v 7407.9 c 0,254.6 223.44,451.4 475.99,419.2 l 10780.9,-1374.9 c 271.5,-34.7 475,-265.7 475,-539.4 V 8144.5 c 0,-254.6 -223.5,-451.3 -476,-419.1"
         style="fill:#ffffff;fill-opacity:1;fill-rule:nonzero;stroke:none"
         id="path64" /><path
         d="M 20664.6,8030.7 10370.4,9343.5 c -197.4,25.2 -345.4,193.2 -345.4,392.3 v 7145.6 c 0,170 149.2,301.4 317.9,279.9 l 10294.2,-1312.8 c 197.4,-25.2 345.4,-193.2 345.4,-392.2 V 8310.6 c 0,-170 -149.3,-301.4 -317.9,-279.9"
         style="fill:#ffffff;fill-opacity:1;fill-rule:nonzero;stroke:none"
         id="path66" /><path
         d="m 20667.4,8052.6 c 74,-9.4 148.7,13.5 204.8,62.8 56,49.4 88.2,120.5 88.2,195.2 v 7145.7 c 0,187.4 -140.2,346.6 -326.1,370.3 l -10294.2,1312.8 c -74.1,9.4 -148.7,-13.5 -204.8,-62.8 -56.1,-49.4 -88.2,-120.5 -88.2,-195.2 V 9735.7 c 0,-187.4 140.2,-346.6 326.1,-370.3 z m 32.9,-46.2 c -12.8,0 -25.7,0.8 -38.5,2.4 L 10367.6,9321.6 c -207.9,26.5 -364.7,204.6 -364.7,414.1 v 7145.7 c 0,87.4 37.6,170.6 103.2,228.3 65.6,57.8 152.9,84.5 239.6,73.5 l 10294.2,-1312.8 c 207.9,-26.5 364.7,-204.6 364.7,-414.1 V 8310.6 c 0,-87.3 -37.7,-170.6 -103.2,-228.3 -55.9,-49.2 -127.6,-75.9 -201.1,-75.9"
         style="fill:#000000;fill-opacity:1;fill-rule:nonzero;stroke:none"
         id="path68" /><path
         d="m 20947.1,7699.9 c -18.7,0 -37.4,1.2 -56.2,3.6 L 10110,9078.3 c -281.8,36 -494.28,277.3 -494.28,561.3 v 3035.9 c 0,12.2 9.89,22.1 22.08,22.1 12.2,0 22.09,-9.9 22.09,-22.1 V 9639.6 c 0,-261.9 195.89,-484.3 455.61,-517.4 l 10781,-1374.9 c 114,-14.6 229,20.6 315.3,96.7 86.3,76 135.8,185.5 135.8,300.5 v 7407.9 c 0,261.9 -195.9,484.3 -455.7,517.5 l -5556.4,708.5 c -12.1,1.6 -20.6,12.7 -19.1,24.8 1.6,12 12.7,20.6 24.8,19.1 l 5556.3,-708.6 c 281.8,-36 494.2,-277.3 494.2,-561.3 V 8144.5 c 0,-127.7 -54.9,-249.3 -150.7,-333.7 -81.6,-71.9 -186.4,-110.9 -293.9,-110.9"
         style="fill:#000000;fill-opacity:1;fill-rule:nonzero;stroke:none"
         id="path70" /><path
         d="m 9637.8,15137.7 c -12.19,0 -22.08,9.9 -22.08,22.1 v 1887.7 c 0,127.7 54.96,249.3 150.78,333.7 95.8,84.4 223.29,123.5 350.1,107.4 l 2538.8,-323.8 c 12.1,-1.6 20.6,-12.6 19.1,-24.7 -1.6,-12.1 -12.5,-20.7 -24.8,-19.1 l -2538.7,323.7 c -114.09,14.6 -229.01,-20.6 -315.31,-96.6 -86.31,-76 -135.8,-185.6 -135.8,-300.6 v -1887.7 c 0,-12.2 -9.89,-22.1 -22.09,-22.1"
         style="fill:#000000;fill-opacity:1;fill-rule:nonzero;stroke:none"
         id="path72" /><path
         d="M 14604.1,3362.6 3516.32,4792.5 c -86.78,11.1 -135.72,83.8 -134.61,156.5 0.78,50.1 4.83,403 4.83,403 l 5862.68,3351.6 c 293.74,167.8 673.79,232.6 1009.28,189.6 L 21206.3,7480.9 c 65.9,-8.5 122.4,-51.2 148.5,-112.3 l 17.6,-41.2 c 0,0 -9.4,-294.4 -5.6,-363.1 3,-53.8 -21.2,-109.3 -77.5,-141.5 L 15573.8,3554.9 c -293.8,-167.8 -634.2,-235.3 -969.7,-192.3"
         style="fill:#000000;fill-opacity:1;fill-rule:nonzero;stroke:none"
         id="path74" /><path
         d="M 14604.1,3755.4 3555.97,5182.6 c -146.65,18.8 -185.23,213.3 -56.84,286.6 l 5684.84,3246.9 c 293.74,167.7 634.14,235.2 969.63,192.3 L 21201.8,7481.2 c 146.6,-18.8 185.2,-213.3 56.8,-286.6 L 15573.8,3947.7 c -293.8,-167.8 -634.2,-235.3 -969.7,-192.3"
         style="fill:#ffffff;fill-opacity:1;fill-rule:nonzero;stroke:none"
         id="path76" /><path
         d="m 14606.9,3777.3 c 328.8,-42.1 668.2,25.2 955.9,189.6 l 5684.9,3246.8 c 60.8,34.8 72.9,95.3 64,140.3 -8.9,45.1 -43.2,96.4 -112.7,105.3 L 10150.8,8886.5 c -328.64,42.1 -668.13,-25.3 -955.87,-189.6 L 3510.08,5450 c -60.83,-34.7 -72.95,-95.2 -64.01,-140.2 8.93,-45.1 43.23,-96.4 112.7,-105.3 z m 192.5,-56.4 c -66.1,0 -132.3,4.2 -198.1,12.6 L 3553.14,5160.7 c -76.37,9.8 -135.41,64.9 -150.4,140.5 -14.99,75.5 18.55,149 85.42,187.2 l 5684.86,3246.8 c 296.02,169.1 645.28,238.4 983.48,195.1 L 21204.6,7503.1 c 76.4,-9.8 135.4,-64.9 150.4,-140.5 15,-75.5 -18.5,-149 -85.4,-187.2 L 15584.7,3928.5 c -238.4,-136.2 -511.4,-207.6 -785.3,-207.6"
         style="fill:#000000;fill-opacity:1;fill-rule:nonzero;stroke:none"
         id="path78" /><path
         d="M 16767.2,5557.7 7187.04,6804.3 c -132.46,16.9 -167.29,192.6 -51.34,258.8 l 2252.59,1273.6 c 265.3,151.5 572.75,212.5 875.81,173.7 l 9580.2,-1246.6 c 132.4,-17 167.3,-192.7 51.3,-258.9 L 17643,5731.4 c -265.3,-151.6 -572.7,-212.5 -875.8,-173.7"
         style="fill:#ffffff;fill-opacity:1;fill-rule:nonzero;stroke:none"
         id="path80" /><path
         d="m 16770.1,5579.6 c 296.3,-38 602.5,22.7 862,170.9 l 2252.6,1273.6 c 53.9,30.8 64.7,84.5 56.7,124.4 -7.9,40 -38.3,85.5 -99.9,93.4 l -9580.3,1246.6 c -296.33,37.9 -602.46,-22.8 -861.96,-171 L 7146.58,7043.9 c -53.87,-30.7 -64.63,-84.4 -56.7,-124.4 7.92,-39.9 38.34,-85.4 99.97,-93.3 z m 173.5,-55.2 c -59.8,0 -119.7,3.7 -179.2,11.4 v 0 L 7184.2,6782.4 c -69.89,8.9 -123.93,59.4 -137.65,128.5 -13.7,69.2 16.99,136.5 78.2,171.4 l 2252.67,1273.6 c 267.69,152.9 583.56,215.6 889.48,176.4 l 9580.2,-1246.6 c 69.9,-9 123.9,-59.4 137.6,-128.6 13.8,-69.1 -16.9,-136.4 -78.2,-171.4 L 17653.9,5712.1 c -215.6,-123.1 -462.6,-187.7 -710.3,-187.7"
         style="fill:#000000;fill-opacity:1;fill-rule:nonzero;stroke:none"
         id="path82" /><path
         d="m 15229.4,15389.6 4396.9,-496.1 0.7,187.1 -4396.9,496 z m 4418.9,-542.9 c -0.8,0 -1.6,0.1 -2.5,0.2 l -4441,501 c -11.2,1.3 -19.7,10.8 -19.6,22 l 0.8,231.5 c 0,6.3 2.7,12.3 7.4,16.4 4.7,4.2 10.8,6.2 17.2,5.5 l 4441,-501.1 c 11.2,-1.2 19.7,-10.7 19.6,-22 l -0.8,-231.5 c 0,-6.2 -2.7,-12.2 -7.4,-16.4 -4.1,-3.6 -9.3,-5.6 -14.7,-5.6"
         style="fill:#000000;fill-opacity:1;fill-rule:nonzero;stroke:none"
         id="path84" /><path
         d="m 16151.9,14903.7 4480.7,-505.5 0.7,187 -4480.7,505.6 z m 4502.7,-552.3 c -0.8,0 -1.6,0 -2.5,0.1 l -4524.8,510.6 c -11.2,1.2 -19.6,10.7 -19.6,22 l 0.9,231.4 c 0,6.3 2.7,12.3 7.3,16.5 4.7,4.1 10.9,6.1 17.2,5.4 l 4524.8,-510.5 c 11.2,-1.3 19.7,-10.8 19.6,-22 l -0.8,-231.5 c 0,-6.3 -2.7,-12.2 -7.4,-16.4 -4.1,-3.6 -9.3,-5.6 -14.7,-5.6"
         style="fill:#000000;fill-opacity:1;fill-rule:nonzero;stroke:none"
         id="path86" /><path
         d="m 17791,14337 2294.6,-258.9 0.7,187 -2294.6,258.9 z m 2316.6,-305.7 c -0.8,0 -1.6,0.1 -2.5,0.2 l -2338.8,263.8 c -11.2,1.3 -19.6,10.8 -19.6,22 l 0.9,231.5 c 0,6.3 2.7,12.3 7.4,16.4 4.7,4.2 10.8,6.2 17.1,5.5 l 2338.8,-263.9 c 11.2,-1.2 19.7,-10.7 19.6,-22 l -0.8,-231.5 c 0,-6.2 -2.7,-12.2 -7.4,-16.4 -4.1,-3.6 -9.3,-5.6 -14.7,-5.6"
         style="fill:#000000;fill-opacity:1;fill-rule:nonzero;stroke:none"
         id="path88" /><path
         d="m 15218.2,12336.5 4396.9,-496.1 0.7,187.1 -4396.9,496 z m 4418.9,-542.8 c -0.8,0 -1.6,0 -2.5,0.1 l -4441,501 c -11.2,1.3 -19.7,10.8 -19.6,22.1 l 0.8,231.4 c 0,6.3 2.7,12.3 7.4,16.5 4.7,4.1 10.8,6.1 17.2,5.4 l 4441,-501.1 c 11.2,-1.2 19.7,-10.7 19.6,-22 l -0.8,-231.4 c 0,-6.3 -2.7,-12.3 -7.4,-16.5 -4.1,-3.6 -9.3,-5.5 -14.7,-5.5"
         style="fill:#000000;fill-opacity:1;fill-rule:nonzero;stroke:none"
         id="path90" /><path
         d="m 16140.8,11850.6 4480.6,-505.5 0.7,187.1 -4480.7,505.5 z m 4502.6,-552.3 c -0.8,0 -1.6,0.1 -2.5,0.2 l -4524.8,510.5 c -11.2,1.2 -19.6,10.7 -19.6,22 l 0.9,231.5 c 0,6.2 2.7,12.2 7.4,16.4 4.7,4.1 10.8,6.1 17.1,5.4 l 4524.8,-510.5 c 11.2,-1.2 19.7,-10.7 19.7,-22 l -0.9,-231.5 c 0,-6.2 -2.7,-12.2 -7.4,-16.4 -4.1,-3.6 -9.3,-5.6 -14.7,-5.6"
         style="fill:#000000;fill-opacity:1;fill-rule:nonzero;stroke:none"
         id="path92" /><path
         d="m 17779.8,11283.9 2840.2,-320.4 0.7,187 -2840.2,320.5 z m 2862.2,-367.2 c -0.8,0 -1.6,0 -2.5,0.1 l -2884.4,325.5 c -11.2,1.2 -19.6,10.7 -19.6,22 l 0.9,231.5 c 0,6.2 2.7,12.2 7.4,16.4 4.7,4.1 10.8,6.1 17.1,5.4 l 2884.5,-325.4 c 11.1,-1.3 19.6,-10.8 19.6,-22 l -0.9,-231.5 c 0,-6.3 -2.7,-12.3 -7.4,-16.4 -4.1,-3.6 -9.3,-5.6 -14.7,-5.6"
         style="fill:#000000;fill-opacity:1;fill-rule:nonzero;stroke:none"
         id="path94" /><path
         d="m 16121.3,11105.1 2647,-298.6 0.7,187 -2647.1,298.7 z m 2669,-345.4 c -0.8,0 -1.6,0 -2.5,0.1 l -2691.2,303.7 c -11.2,1.2 -19.6,10.7 -19.6,22 l 0.9,231.5 c 0,6.2 2.7,12.2 7.4,16.4 4.7,4.1 10.8,6.2 17.1,5.4 l 2691.2,-303.6 c 11.2,-1.3 19.7,-10.7 19.6,-22 l -0.8,-231.5 c 0,-6.3 -2.7,-12.2 -7.4,-16.4 -4.1,-3.6 -9.3,-5.6 -14.7,-5.6"
         style="fill:#000000;fill-opacity:1;fill-rule:nonzero;stroke:none"
         id="path96" /><path
         d="m 15225.2,14244.7 4396.9,-496.1 0.7,187.1 -4396.9,496 z m 4418.9,-542.9 c -0.8,0 -1.6,0.1 -2.5,0.2 l -4441,501 c -11.2,1.3 -19.7,10.8 -19.6,22 l 0.8,231.5 c 0,6.3 2.7,12.3 7.4,16.4 4.7,4.2 10.8,6.2 17.2,5.5 l 4441,-501.1 c 11.2,-1.2 19.7,-10.7 19.6,-22 l -0.8,-231.5 c 0,-6.2 -2.7,-12.2 -7.4,-16.4 -4.1,-3.6 -9.3,-5.6 -14.7,-5.6"
         style="fill:#000000;fill-opacity:1;fill-rule:nonzero;stroke:none"
         id="path98" /><path
         d="m 16147.7,13758.8 4480.7,-505.5 0.7,187 -4480.7,505.5 z m 4502.7,-552.3 c -0.8,0 -1.6,0 -2.5,0.1 l -4524.8,510.5 c -11.2,1.3 -19.6,10.8 -19.6,22.1 l 0.9,231.4 c 0,6.3 2.7,12.3 7.4,16.4 4.7,4.2 10.8,6.2 17.1,5.5 l 4524.8,-510.5 c 11.2,-1.3 19.7,-10.8 19.6,-22 l -0.8,-231.5 c 0,-6.3 -2.7,-12.2 -7.4,-16.4 -4.1,-3.6 -9.3,-5.6 -14.7,-5.6"
         style="fill:#000000;fill-opacity:1;fill-rule:nonzero;stroke:none"
         id="path100" /><path
         d="m 17785.4,12810.5 1749,-197.4 0.7,187.1 -1749,197.3 z m 1771,-244.2 c -0.8,0 -1.6,0.1 -2.5,0.2 l -1793.2,202.3 c -11.2,1.3 -19.6,10.7 -19.6,22 l 0.9,231.5 c 0,6.3 2.7,12.2 7.4,16.4 4.7,4.2 10.8,6.2 17.1,5.5 l 1793.2,-202.4 c 11.2,-1.2 19.7,-10.7 19.6,-22 l -0.8,-231.5 c 0,-6.2 -2.7,-12.2 -7.4,-16.4 -4.1,-3.6 -9.3,-5.6 -14.7,-5.6"
         style="fill:#000000;fill-opacity:1;fill-rule:nonzero;stroke:none"
         id="path102" /><path
         d="m 18320.1,12368.6 1749,-197.3 0.7,187 -1749,197.4 z m 1771,-244.1 c -0.8,0 -1.6,0.1 -2.4,0.1 l -1793.2,202.4 c -11.2,1.2 -19.7,10.7 -19.6,22 l 0.8,231.4 c 0,6.3 2.7,12.3 7.4,16.5 4.7,4.1 10.8,6.1 17.2,5.4 l 1793.2,-202.3 c 11.1,-1.3 19.6,-10.8 19.6,-22 l -0.9,-231.5 c 0,-6.3 -2.7,-12.2 -7.4,-16.4 -4.1,-3.6 -9.3,-5.6 -14.7,-5.6"
         style="fill:#000000;fill-opacity:1;fill-rule:nonzero;stroke:none"
         id="path104" /><path
         d="m 17786.8,13192.1 2840.2,-320.5 0.7,187.1 -2840.2,320.4 z m 2862.2,-367.2 c -0.8,0 -1.6,0 -2.5,0.1 l -2884.4,325.4 c -11.2,1.3 -19.6,10.8 -19.6,22 l 0.9,231.5 c 0,6.3 2.7,12.3 7.4,16.4 4.7,4.2 10.8,6.2 17.1,5.5 l 2884.4,-325.4 c 11.2,-1.3 19.7,-10.8 19.6,-22.1 l -0.8,-231.4 c 0,-6.3 -2.7,-12.3 -7.4,-16.5 -4.1,-3.6 -9.3,-5.5 -14.7,-5.5"
         style="fill:#000000;fill-opacity:1;fill-rule:nonzero;stroke:none"
         id="path106" /><path
         d="m 15212.6,10810 4396.9,-496.1 0.7,187 -4396.9,496.1 z m 4418.9,-542.9 c -0.8,0 -1.6,0 -2.5,0.1 l -4441,501.1 c -11.2,1.3 -19.7,10.8 -19.6,22 l 0.8,231.5 c 0,6.3 2.7,12.2 7.4,16.4 4.7,4.2 10.9,6.2 17.2,5.5 l 4441,-501.1 c 11.2,-1.3 19.7,-10.8 19.6,-22 l -0.8,-231.5 c 0,-6.3 -2.7,-12.2 -7.4,-16.4 -4.1,-3.6 -9.3,-5.6 -14.7,-5.6"
         style="fill:#000000;fill-opacity:1;fill-rule:nonzero;stroke:none"
         id="path108" /><path
         d="m 16135.1,10324.1 4335.2,-489.1 0.7,187 -4335.2,489.1 z m 4357.2,-535.9 c -0.8,0 -1.6,0.1 -2.5,0.1 l -4379.3,494.1 c -11.2,1.3 -19.6,10.8 -19.6,22.1 l 0.9,231.4 c 0,6.3 2.7,12.3 7.4,16.4 4.7,4.2 10.8,6.2 17.1,5.5 l 4379.3,-494.1 c 11.2,-1.3 19.7,-10.8 19.6,-22 l -0.8,-231.5 c 0,-6.3 -2.7,-12.2 -7.4,-16.4 -4.1,-3.6 -9.3,-5.6 -14.7,-5.6"
         style="fill:#000000;fill-opacity:1;fill-rule:nonzero;stroke:none"
         id="path110" /><path
         d="m 17774.2,9757.4 2840.2,-320.5 0.7,187.1 -2840.2,320.4 z m 2862.2,-367.2 c -0.8,0 -1.6,0 -2.5,0.1 l -2884.4,325.4 c -11.2,1.3 -19.6,10.8 -19.6,22 l 0.9,231.5 c 0,6.3 2.7,12.2 7.4,16.4 4.7,4.2 10.8,6.2 17.1,5.5 l 2884.4,-325.5 c 11.2,-1.2 19.7,-10.7 19.6,-22 l -0.8,-231.4 c 0,-6.3 -2.7,-12.3 -7.4,-16.5 -4.1,-3.6 -9.3,-5.5 -14.7,-5.5"
         style="fill:#000000;fill-opacity:1;fill-rule:nonzero;stroke:none"
         id="path112" /><path
         d="m 15208.4,9665.1 4396.9,-496.1 0.7,187 -4396.9,496.1 z m 4418.9,-542.9 c -0.8,0 -1.6,0 -2.5,0.1 l -4441,501.1 c -11.2,1.3 -19.7,10.8 -19.6,22 l 0.8,231.5 c 0,6.3 2.7,12.2 7.4,16.4 4.7,4.2 10.9,6.1 17.2,5.4 l 4441,-501 c 11.2,-1.3 19.7,-10.7 19.6,-22 l -0.8,-231.5 c 0,-6.3 -2.7,-12.2 -7.4,-16.4 -4.1,-3.6 -9.3,-5.6 -14.7,-5.6"
         style="fill:#000000;fill-opacity:1;fill-rule:nonzero;stroke:none"
         id="path114" /><path
         d="m 16131,9179.2 4480.6,-505.5 0.7,187 -4480.6,505.5 z m 4502.6,-552.3 c -0.8,0 -1.6,0 -2.5,0.1 l -4524.8,510.5 c -11.2,1.3 -19.6,10.8 -19.6,22.1 l 0.9,231.4 c 0,6.3 2.7,12.3 7.4,16.4 4.7,4.2 10.8,6.2 17.1,5.5 l 4524.8,-510.5 c 11.2,-1.3 19.7,-10.8 19.6,-22 l -0.8,-231.5 c 0,-6.3 -2.7,-12.3 -7.4,-16.4 -4.1,-3.6 -9.3,-5.6 -14.7,-5.6"
         style="fill:#000000;fill-opacity:1;fill-rule:nonzero;stroke:none"
         id="path116" /><path
         d="m 14417.3,12813.2 388.5,-43.8 0.6,177.9 -388.4,43.9 z m 410.5,-90.6 c -0.8,0 -1.7,0 -2.5,0.1 l -432.6,48.8 c -11.2,1.3 -19.7,10.8 -19.6,22.1 l 0.8,222.4 c 0,6.2 2.7,12.2 7.4,16.4 4.7,4.1 10.8,6.1 17.1,5.4 l 432.7,-48.8 c 11.2,-1.3 19.6,-10.8 19.6,-22 l -0.8,-222.4 c -0.1,-6.3 -2.8,-12.3 -7.4,-16.4 -4.1,-3.6 -9.3,-5.6 -14.7,-5.6"
         style="fill:#000000;fill-opacity:1;fill-rule:nonzero;stroke:none"
         id="path118" /><path
         d="m 14425,15480.3 406.8,-45.9 0.7,187 -406.8,45.9 z m 428.8,-92.7 c -0.9,0 -1.7,0.1 -2.5,0.2 l -450.9,50.8 c -11.2,1.3 -19.7,10.8 -19.6,22.1 l 0.8,231.4 c 0.1,6.3 2.8,12.3 7.4,16.4 4.7,4.2 10.9,6.2 17.2,5.5 l 450.9,-50.9 c 11.2,-1.2 19.6,-10.7 19.6,-22 l -0.9,-231.5 c 0,-6.2 -2.7,-12.2 -7.4,-16.4 -4,-3.6 -9.2,-5.6 -14.6,-5.6"
         style="fill:#000000;fill-opacity:1;fill-rule:nonzero;stroke:none"
         id="path120" /><path
         d="m 14426.3,15831.1 406.8,-45.9 0.7,187 -406.8,45.9 z m 428.7,-92.7 c -0.8,0 -1.6,0.1 -2.4,0.2 l -450.9,50.8 c -11.2,1.3 -19.7,10.8 -19.6,22 l 0.8,231.5 c 0,6.3 2.7,12.3 7.4,16.4 4.7,4.2 10.8,6.1 17.2,5.5 l 450.9,-50.9 c 11.2,-1.2 19.6,-10.7 19.6,-22 l -0.9,-231.5 c 0,-6.3 -2.7,-12.2 -7.4,-16.4 -4,-3.6 -9.3,-5.6 -14.7,-5.6"
         style="fill:#000000;fill-opacity:1;fill-rule:nonzero;stroke:none"
         id="path122" /><path
         d="m 14423.6,15098.7 403.3,-45.5 0.7,187 -403.3,45.5 z m 425.3,-92.3 c -0.8,0 -1.6,0 -2.5,0.1 l -447.4,50.5 c -11.2,1.3 -19.6,10.8 -19.6,22 l 0.8,231.5 c 0.1,6.3 2.7,12.2 7.4,16.4 4.7,4.2 10.9,6.2 17.2,5.5 l 447.4,-50.5 c 11.2,-1.3 19.7,-10.8 19.6,-22 l -0.8,-231.5 c 0,-6.3 -2.7,-12.3 -7.4,-16.4 -4.1,-3.6 -9.3,-5.6 -14.7,-5.6"
         style="fill:#000000;fill-opacity:1;fill-rule:nonzero;stroke:none"
         id="path124" /><path
         d="m 14429.8,14716.2 380.6,-43 0.6,187.1 -380.5,42.9 z m 402.5,-89.7 c -0.8,0 -1.6,0 -2.4,0.1 l -424.7,47.9 c -11.2,1.3 -19.7,10.8 -19.6,22 l 0.8,231.5 c 0,6.3 2.7,12.2 7.4,16.4 4.7,4.2 10.8,6.2 17.2,5.5 l 424.7,-47.9 c 11.2,-1.3 19.6,-10.8 19.6,-22.1 l -0.9,-231.4 c 0,-6.3 -2.7,-12.3 -7.4,-16.5 -4.1,-3.6 -9.3,-5.5 -14.7,-5.5"
         style="fill:#000000;fill-opacity:1;fill-rule:nonzero;stroke:none"
         id="path126" /><path
         d="m 14423.1,14335.1 388.1,-43.7 0.7,187 -388.1,43.8 z m 410.1,-90.5 c -0.8,0 -1.6,0 -2.4,0.1 l -432.3,48.8 c -11.2,1.2 -19.7,10.7 -19.6,22 l 0.8,231.5 c 0,6.2 2.7,12.2 7.4,16.4 4.7,4.1 10.8,6.1 17.2,5.4 l 432.3,-48.7 c 11.1,-1.3 19.6,-10.8 19.6,-22.1 l -0.9,-231.4 c 0,-6.3 -2.7,-12.3 -7.4,-16.4 -4.1,-3.7 -9.3,-5.6 -14.7,-5.6"
         style="fill:#000000;fill-opacity:1;fill-rule:nonzero;stroke:none"
         id="path128" /><path
         d="m 14419.4,13953.8 388.1,-43.8 0.7,187 -388.1,43.8 z m 410.1,-90.6 c -0.8,0 -1.6,0 -2.4,0.1 l -432.3,48.8 c -11.2,1.3 -19.7,10.7 -19.6,22 l 0.8,231.5 c 0.1,6.3 2.8,12.2 7.4,16.4 4.7,4.2 10.8,6.2 17.2,5.4 l 432.3,-48.7 c 11.2,-1.3 19.6,-10.8 19.6,-22 l -0.9,-231.5 c 0,-6.3 -2.7,-12.3 -7.4,-16.4 -4.1,-3.6 -9.3,-5.6 -14.7,-5.6"
         style="fill:#000000;fill-opacity:1;fill-rule:nonzero;stroke:none"
         id="path130" /><path
         d="m 14431.4,13204.2 384.2,-43.4 0.7,187 -384.2,43.4 z m 406.2,-90.2 c -0.8,0 -1.6,0.1 -2.5,0.2 l -428.4,48.3 c -11.2,1.3 -19.6,10.7 -19.6,22 l 0.9,231.5 c 0,6.3 2.7,12.2 7.4,16.4 4.7,4.2 10.8,6.1 17.1,5.4 l 428.4,-48.3 c 11.2,-1.3 19.7,-10.7 19.7,-22 l -0.9,-231.5 c 0,-6.3 -2.7,-12.2 -7.4,-16.4 -4.1,-3.6 -9.3,-5.6 -14.7,-5.6"
         style="fill:#000000;fill-opacity:1;fill-rule:nonzero;stroke:none"
         id="path132" /><path
         d="m 14440.8,13584.9 365.4,-41.2 0.7,187 -365.4,41.2 z m 387.4,-88 c -0.8,0 -1.7,0 -2.5,0.1 l -409.5,46.2 c -11.2,1.3 -19.6,10.8 -19.6,22 l 0.8,231.5 c 0.1,6.3 2.8,12.3 7.4,16.4 4.7,4.2 10.8,6.2 17.2,5.5 l 409.5,-46.2 c 11.2,-1.3 19.7,-10.8 19.6,-22.1 l -0.8,-231.4 c -0.1,-6.3 -2.8,-12.3 -7.4,-16.4 -4.1,-3.7 -9.3,-5.6 -14.7,-5.6"
         style="fill:#000000;fill-opacity:1;fill-rule:nonzero;stroke:none"
         id="path134" /><path
         d="m 14413,11654 388.5,-43.9 0.7,178 -388.5,43.8 z m 410.5,-90.7 c -0.8,0 -1.6,0.1 -2.5,0.2 l -432.6,48.8 c -11.2,1.3 -19.6,10.8 -19.6,22 l 0.8,222.4 c 0,6.3 2.7,12.2 7.4,16.4 4.7,4.2 10.9,6.1 17.2,5.5 l 432.6,-48.8 c 11.2,-1.3 19.7,-10.8 19.6,-22.1 l -0.8,-222.4 c 0,-6.2 -2.7,-12.2 -7.4,-16.4 -4.1,-3.6 -9.3,-5.6 -14.7,-5.6"
         style="fill:#000000;fill-opacity:1;fill-rule:nonzero;stroke:none"
         id="path136" /><path
         d="m 14427.1,12044.9 384.3,-43.3 0.7,187 -384.3,43.3 z m 406.3,-90.1 c -0.9,0 -1.7,0 -2.5,0.1 l -428.4,48.3 c -11.2,1.3 -19.7,10.8 -19.6,22.1 l 0.8,231.4 c 0.1,6.3 2.7,12.3 7.4,16.4 4.7,4.2 10.9,6.2 17.2,5.5 l 428.4,-48.3 c 11.2,-1.3 19.6,-10.8 19.6,-22.1 l -0.9,-231.4 c 0,-6.3 -2.7,-12.3 -7.4,-16.4 -4,-3.7 -9.2,-5.6 -14.6,-5.6"
         style="fill:#000000;fill-opacity:1;fill-rule:nonzero;stroke:none"
         id="path138" /><path
         d="m 14436.6,12425.6 365.3,-41.2 0.7,187.1 -365.3,41.2 z m 387.3,-88 c -0.8,0 -1.6,0.1 -2.4,0.2 l -409.6,46.2 c -11.2,1.2 -19.6,10.7 -19.6,22 l 0.9,231.5 c 0,6.2 2.7,12.2 7.4,16.4 4.7,4.1 10.8,6.1 17.2,5.4 l 409.5,-46.2 c 11.2,-1.2 19.6,-10.7 19.6,-22 l -0.9,-231.5 c 0,-6.2 -2.7,-12.2 -7.4,-16.4 -4.1,-3.6 -9.3,-5.6 -14.7,-5.6"
         style="fill:#000000;fill-opacity:1;fill-rule:nonzero;stroke:none"
         id="path140" /><path
         d="m 14404.8,9396.5 388.4,-43.8 0.7,177.9 -388.5,43.8 z m 410.4,-90.6 c -0.8,0 -1.6,0 -2.4,0.1 l -432.7,48.8 c -11.2,1.3 -19.6,10.8 -19.6,22.1 l 0.8,222.3 c 0.1,6.3 2.8,12.3 7.4,16.4 4.7,4.2 10.9,6.2 17.2,5.5 l 432.6,-48.8 c 11.2,-1.3 19.7,-10.8 19.6,-22.1 l -0.8,-222.3 c 0,-6.3 -2.7,-12.3 -7.4,-16.4 -4.1,-3.7 -9.3,-5.6 -14.7,-5.6"
         style="fill:#000000;fill-opacity:1;fill-rule:nonzero;stroke:none"
         id="path142" /><path
         d="m 14417.3,11299.5 380.5,-43 0.7,187.1 -380.5,42.9 z m 402.5,-89.8 c -0.8,0 -1.6,0.1 -2.5,0.2 l -424.7,47.9 c -11.2,1.3 -19.6,10.7 -19.6,22 l 0.9,231.5 c 0,6.3 2.7,12.2 7.4,16.4 4.7,4.2 10.8,6.2 17.2,5.4 l 424.6,-47.9 c 11.2,-1.2 19.7,-10.7 19.6,-22 l -0.8,-231.5 c 0,-6.2 -2.7,-12.2 -7.4,-16.4 -4.1,-3.6 -9.3,-5.6 -14.7,-5.6"
         style="fill:#000000;fill-opacity:1;fill-rule:nonzero;stroke:none"
         id="path144" /><path
         d="m 14410.6,10918.4 388.1,-43.8 0.7,187.1 -388.1,43.8 z m 410.1,-90.6 c -0.8,0 -1.6,0.1 -2.5,0.2 l -432.3,48.8 c -11.1,1.2 -19.6,10.7 -19.6,22 l 0.9,231.4 c 0,6.3 2.7,12.3 7.4,16.5 4.7,4.1 10.8,6.1 17.1,5.4 l 432.3,-48.8 c 11.2,-1.2 19.7,-10.7 19.6,-22 l -0.8,-231.4 c 0,-6.3 -2.7,-12.3 -7.4,-16.5 -4.1,-3.6 -9.3,-5.6 -14.7,-5.6"
         style="fill:#000000;fill-opacity:1;fill-rule:nonzero;stroke:none"
         id="path146" /><path
         d="m 14406.9,10537 388.1,-43.7 0.7,187 -388.1,43.8 z m 410.1,-90.5 c -0.8,0 -1.6,0 -2.5,0.1 l -432.2,48.8 c -11.2,1.2 -19.7,10.7 -19.6,22 l 0.8,231.5 c 0,6.2 2.7,12.2 7.4,16.4 4.7,4.1 10.8,6.1 17.2,5.4 l 432.2,-48.7 c 11.2,-1.3 19.7,-10.8 19.6,-22 l -0.8,-231.5 c 0,-6.3 -2.7,-12.3 -7.4,-16.4 -4.1,-3.7 -9.3,-5.6 -14.7,-5.6"
         style="fill:#000000;fill-opacity:1;fill-rule:nonzero;stroke:none"
         id="path148" /><path
         d="m 14418.8,9787.4 384.3,-43.3 0.7,187 -384.3,43.4 z m 406.3,-90.1 c -0.8,0 -1.7,0 -2.5,0.1 l -428.4,48.4 c -11.2,1.2 -19.6,10.7 -19.6,22 l 0.8,231.5 c 0.1,6.2 2.8,12.2 7.4,16.4 4.7,4.1 10.9,6.1 17.2,5.4 l 428.4,-48.3 c 11.2,-1.3 19.7,-10.7 19.6,-22 l -0.8,-231.5 c -0.1,-6.3 -2.8,-12.2 -7.4,-16.4 -4.1,-3.6 -9.3,-5.6 -14.7,-5.6"
         style="fill:#000000;fill-opacity:1;fill-rule:nonzero;stroke:none"
         id="path150" /><path
         d="m 14428.3,10168.2 365.4,-41.3 0.7,187.1 -365.4,41.2 z m 387.4,-88 c -0.9,0 -1.7,0 -2.5,0.1 l -409.5,46.2 c -11.2,1.3 -19.7,10.7 -19.6,22 l 0.8,231.5 c 0,6.3 2.7,12.2 7.4,16.4 4.7,4.2 10.8,6.2 17.2,5.5 l 409.5,-46.3 c 11.2,-1.2 19.6,-10.7 19.6,-22 l -0.9,-231.5 c 0,-6.2 -2.7,-12.2 -7.4,-16.4 -4,-3.6 -9.3,-5.5 -14.6,-5.5"
         style="fill:#000000;fill-opacity:1;fill-rule:nonzero;stroke:none"
         id="path152" /><path
         d="m 10394.6,16336.7 2093.6,-236.2 0.7,177.9 -2093.7,236.2 z m 2115.6,-283 c -0.8,0 -1.6,0 -2.5,0.1 L 10370,16295 c -11.2,1.3 -19.7,10.8 -19.6,22.1 l 0.8,222.3 c 0,6.3 2.7,12.3 7.4,16.5 4.6,4.1 10.8,6.1 17.1,5.4 l 2137.8,-241.2 c 11.2,-1.3 19.7,-10.7 19.6,-22 l -0.8,-222.4 c 0,-6.3 -2.7,-12.2 -7.4,-16.4 -4.1,-3.6 -9.3,-5.6 -14.7,-5.6"
         style="fill:#000000;fill-opacity:1;fill-rule:nonzero;stroke:none"
         id="path154" /><path
         d="m 10703.1,15915.6 2209.3,-249.3 0.7,187 -2209.3,249.3 z m 2231.3,-296.1 c -0.8,0 -1.6,0 -2.5,0.1 l -2253.4,254.3 c -11.2,1.2 -19.6,10.7 -19.6,22 l 0.8,231.5 c 0.1,6.2 2.8,12.2 7.4,16.4 4.7,4.1 11,6.2 17.2,5.4 l 2253.4,-254.2 c 11.2,-1.3 19.7,-10.8 19.6,-22 l -0.8,-231.5 c 0,-6.3 -2.7,-12.2 -7.4,-16.4 -4.1,-3.6 -9.3,-5.6 -14.7,-5.6"
         style="fill:#000000;fill-opacity:1;fill-rule:nonzero;stroke:none"
         id="path156" /><path
         d="m 10968.2,15503.8 2581.2,-291.2 0.7,187.1 -2581.2,291.2 z m 2603.2,-338 c -0.8,0 -1.6,0.1 -2.5,0.2 l -2625.3,296.2 c -11.2,1.2 -19.7,10.7 -19.6,22 l 0.8,231.5 c 0,6.2 2.7,12.2 7.4,16.4 4.7,4.2 10.9,6.1 17.2,5.4 l 2625.3,-296.2 c 11.2,-1.2 19.7,-10.7 19.6,-22 l -0.8,-231.4 c 0,-6.3 -2.7,-12.3 -7.4,-16.5 -4.1,-3.6 -9.3,-5.6 -14.7,-5.6"
         style="fill:#000000;fill-opacity:1;fill-rule:nonzero;stroke:none"
         id="path158" /><path
         d="m 11787.2,15029.7 2146.8,-242.3 0.7,187.1 -2146.8,242.2 z m 2168.7,-289 c -0.8,0 -1.6,0 -2.4,0.1 l -2190.9,247.2 c -11.2,1.2 -19.7,10.7 -19.6,22 l 0.8,231.5 c 0.1,6.2 2.8,12.2 7.4,16.4 4.7,4.2 11,6.2 17.2,5.4 l 2190.9,-247.1 c 11.2,-1.3 19.6,-10.8 19.6,-22.1 l -0.9,-231.4 c 0,-6.3 -2.7,-12.3 -7.4,-16.5 -4,-3.6 -9.3,-5.5 -14.7,-5.5"
         style="fill:#000000;fill-opacity:1;fill-rule:nonzero;stroke:none"
         id="path160" /><path
         d="m 10383.4,13283.6 1687.4,-190.4 0.6,178 -1687.4,190.4 z m 1709.4,-237.1 c -0.9,0 -1.7,0 -2.5,0.1 l -1731.5,195.4 c -11.2,1.2 -19.7,10.7 -19.6,22 l 0.8,222.4 c 0,6.2 2.7,12.2 7.4,16.4 4.7,4.1 10.9,6.1 17.1,5.4 l 1731.6,-195.3 c 11.2,-1.3 19.6,-10.8 19.6,-22.1 l -0.9,-222.3 c 0,-6.3 -2.7,-12.3 -7.4,-16.5 -4,-3.6 -9.3,-5.5 -14.6,-5.5"
         style="fill:#000000;fill-opacity:1;fill-rule:nonzero;stroke:none"
         id="path162" /><path
         d="m 10924.2,12836.3 1222.1,-137.9 0.7,187 -1222.1,137.9 z m 1244.1,-184.7 c -0.8,0 -1.6,0 -2.5,0.1 l -1266.2,142.9 c -11.2,1.2 -19.7,10.7 -19.6,22 l 0.8,231.5 c 0.1,6.3 2.7,12.2 7.4,16.4 4.7,4.2 11,6.1 17.2,5.4 l 1266.2,-142.8 c 11.2,-1.3 19.7,-10.8 19.6,-22 l -0.8,-231.5 c 0,-6.3 -2.7,-12.2 -7.4,-16.4 -4.1,-3.6 -9.3,-5.6 -14.7,-5.6"
         style="fill:#000000;fill-opacity:1;fill-rule:nonzero;stroke:none"
         id="path164" /><path
         d="m 11479.7,12391.8 1168,-131.8 0.6,187.1 -1168,131.7 z m 1189.9,-178.6 c -0.8,0 -1.6,0.1 -2.4,0.2 l -1212.2,136.7 c -11.2,1.3 -19.6,10.8 -19.6,22.1 l 0.9,231.4 c 0,6.3 2.7,12.3 7.4,16.4 4.6,4.2 10.9,6.2 17.1,5.5 l 1212.2,-136.8 c 11.2,-1.2 19.6,-10.7 19.6,-22 l -0.9,-231.5 c 0,-6.2 -2.7,-12.2 -7.4,-16.4 -4,-3.6 -9.3,-5.6 -14.7,-5.6"
         style="fill:#000000;fill-opacity:1;fill-rule:nonzero;stroke:none"
         id="path166" /><path
         d="m 12008.3,11950.4 1489.8,-168.1 0.7,187 -1489.8,168.1 z m 1511.8,-214.9 c -0.8,0 -1.6,0 -2.5,0.1 l -1533.9,173.1 c -11.2,1.3 -19.6,10.7 -19.6,22 l 0.8,231.5 c 0.1,6.3 2.8,12.2 7.4,16.4 4.7,4.2 11,6.2 17.2,5.5 l 1533.9,-173.1 c 11.2,-1.3 19.7,-10.8 19.6,-22 l -0.8,-231.5 c 0,-6.3 -2.7,-12.3 -7.4,-16.4 -4.1,-3.6 -9.3,-5.6 -14.7,-5.6"
         style="fill:#000000;fill-opacity:1;fill-rule:nonzero;stroke:none"
         id="path168" /><path
         d="m 10416.7,14802.5 1504.1,-169.7 0.6,187 -1504,169.7 z m 1526,-216.5 c -0.8,0 -1.6,0 -2.4,0.1 l -1548.2,174.7 c -11.2,1.3 -19.7,10.8 -19.6,22 l 0.8,231.5 c 0.1,6.3 2.7,12.3 7.4,16.4 4.7,4.2 10.9,6.2 17.2,5.5 l 1548.2,-174.7 c 11.2,-1.3 19.6,-10.7 19.6,-22 l -0.9,-231.5 c 0,-6.3 -2.7,-12.2 -7.4,-16.4 -4,-3.6 -9.3,-5.6 -14.7,-5.6"
         style="fill:#000000;fill-opacity:1;fill-rule:nonzero;stroke:none"
         id="path170" /><path
         d="m 11544.7,14293.4 2348.1,-264.9 0.7,187 -2348.1,265 z m 2370.1,-311.7 c -0.8,0 -1.7,0.1 -2.5,0.2 l -2392.2,269.9 c -11.2,1.2 -19.7,10.7 -19.6,22 l 0.8,231.5 c 0.1,6.2 2.8,12.2 7.4,16.4 4.7,4.1 10.9,6.1 17.2,5.4 l 2392.2,-269.9 c 11.2,-1.2 19.7,-10.7 19.6,-22 l -0.8,-231.5 c -0.1,-6.2 -2.8,-12.2 -7.4,-16.4 -4.1,-3.6 -9.3,-5.6 -14.7,-5.6"
         style="fill:#000000;fill-opacity:1;fill-rule:nonzero;stroke:none"
         id="path172" /><path
         d="m 10433.3,14037.6 1504,-169.7 0.7,187.1 -1504,169.7 z m 1526,-216.4 c -0.8,0 -1.6,0 -2.5,0.1 l -1548.2,174.7 c -11.2,1.2 -19.6,10.7 -19.6,22 l 0.9,231.5 c 0,6.2 2.7,12.2 7.4,16.4 4.7,4.1 10.9,6.2 17.1,5.4 l 1548.2,-174.6 c 11.2,-1.3 19.7,-10.8 19.6,-22.1 l -0.8,-231.4 c 0,-6.3 -2.7,-12.3 -7.4,-16.5 -4.1,-3.6 -9.3,-5.5 -14.7,-5.5"
         style="fill:#000000;fill-opacity:1;fill-rule:nonzero;stroke:none"
         id="path174" /><path
         d="m 11561.3,13528.6 2348,-264.9 0.7,187 -2348,264.9 z m 2370,-311.7 c -0.8,0 -1.6,0 -2.4,0.1 l -2392.3,269.9 c -11.2,1.3 -19.6,10.8 -19.6,22 l 0.9,231.5 c 0,6.3 2.7,12.2 7.4,16.4 4.7,4.2 10.9,6.2 17.2,5.5 l 2392.2,-269.9 c 11.2,-1.3 19.6,-10.8 19.6,-22.1 l -0.9,-231.4 c 0,-6.3 -2.7,-12.3 -7.4,-16.4 -4,-3.7 -9.3,-5.6 -14.7,-5.6"
         style="fill:#000000;fill-opacity:1;fill-rule:nonzero;stroke:none"
         id="path176" /><path
         d="m 10377.8,11757.1 1880.8,-212.2 0.7,177.9 -1880.8,212.2 z m 1902.8,-259 c -0.8,0 -1.6,0 -2.5,0.1 l -1924.9,217.2 c -11.2,1.3 -19.7,10.8 -19.6,22 l 0.8,222.4 c 0,6.3 2.7,12.3 7.4,16.4 4.7,4.2 10.9,6.2 17.1,5.5 l 1925,-217.2 c 11.2,-1.3 19.7,-10.8 19.6,-22 l -0.8,-222.4 c 0,-6.3 -2.7,-12.2 -7.4,-16.4 -4.1,-3.6 -9.3,-5.6 -14.7,-5.6"
         style="fill:#000000;fill-opacity:1;fill-rule:nonzero;stroke:none"
         id="path178" /><path
         d="m 10454,11362.1 3099.4,-349.6 0.6,187 -3099.3,349.7 z m 3121.4,-396.4 c -0.9,0 -1.7,0 -2.5,0.1 l -3143.5,354.7 c -11.2,1.2 -19.6,10.7 -19.6,22 l 0.9,231.5 c 0,6.2 2.7,12.2 7.3,16.4 4.7,4.1 11,6.1 17.2,5.4 l 3143.5,-354.6 c 11.2,-1.3 19.6,-10.8 19.6,-22 l -0.9,-231.5 c 0,-6.3 -2.7,-12.3 -7.4,-16.4 -4,-3.7 -9.3,-5.6 -14.6,-5.6"
         style="fill:#000000;fill-opacity:1;fill-rule:nonzero;stroke:none"
         id="path180" /><path
         d="m 11830.1,10825.1 1760.5,-198.6 0.8,187 -1760.6,198.6 z m 1782.5,-245.4 c -0.8,0 -1.6,0 -2.4,0.1 l -1804.7,203.6 c -11.2,1.3 -19.7,10.8 -19.6,22.1 l 0.8,231.4 c 0,6.3 2.7,12.3 7.4,16.4 4.7,4.2 10.9,6.2 17.2,5.5 l 1804.7,-203.6 c 11.2,-1.3 19.6,-10.8 19.6,-22.1 l -0.9,-231.4 c 0,-6.3 -2.7,-12.3 -7.4,-16.4 -4,-3.6 -9.3,-5.6 -14.7,-5.6"
         style="fill:#000000;fill-opacity:1;fill-rule:nonzero;stroke:none"
         id="path182" /><path
         d="m 10895.1,10167 2034.6,-229.5 0.7,187 -2034.6,229.5 z m 2056.6,-276.3 c -0.9,0 -1.7,0 -2.5,0.1 l -2078.8,234.5 c -11.2,1.3 -19.6,10.8 -19.6,22.1 l 0.9,231.4 c 0,6.3 2.7,12.3 7.4,16.4 4.7,4.2 10.9,6.2 17.2,5.5 l 2078.7,-234.5 c 11.2,-1.3 19.6,-10.8 19.6,-22.1 l -0.8,-231.4 c -0.1,-6.3 -2.8,-12.3 -7.4,-16.5 -4.1,-3.6 -9.3,-5.5 -14.7,-5.5"
         style="fill:#000000;fill-opacity:1;fill-rule:nonzero;stroke:none"
         id="path184" /><path
         d="m 12308.8,10419.5 1686.8,-190.3 0.7,187 -1686.8,190.3 z m 1708.8,-237.1 c -0.8,0 -1.6,0 -2.5,0.1 l -1730.9,195.3 c -11.2,1.3 -19.7,10.8 -19.6,22.1 l 0.8,231.4 c 0,6.3 2.7,12.3 7.4,16.4 4.7,4.2 11,6.2 17.2,5.5 l 1730.9,-195.3 c 11.2,-1.3 19.7,-10.8 19.6,-22 l -0.8,-231.5 c 0,-6.3 -2.7,-12.2 -7.4,-16.4 -4.1,-3.6 -9.3,-5.6 -14.7,-5.6"
         style="fill:#000000;fill-opacity:1;fill-rule:nonzero;stroke:none"
         id="path186" /><path
         d="m 11740.9,9689.8 1593.6,-179.8 0.7,187 -1593.6,179.8 z m 1615.6,-226.6 c -0.9,0 -1.7,0 -2.5,0.1 l -1637.8,184.8 c -11.2,1.3 -19.6,10.8 -19.6,22 l 0.9,231.5 c 0,6.3 2.7,12.2 7.4,16.4 4.7,4.2 10.9,6.2 17.1,5.5 l 1637.8,-184.8 c 11.2,-1.3 19.6,-10.8 19.6,-22 l -0.9,-231.5 c 0,-6.3 -2.7,-12.3 -7.4,-16.4 -4,-3.6 -9.3,-5.6 -14.6,-5.6"
         style="fill:#000000;fill-opacity:1;fill-rule:nonzero;stroke:none"
         id="path188" /><path
         d="m 10527.6,14229.7 c 253.8,-52.6 424.9,-267.1 389.1,-487.8 -36.2,-222.9 -270.2,-372.7 -529.7,-339.3 l -4872.49,627.6 c -378.32,48.7 -657.31,348.7 -629.33,676.8 14.74,172.9 114.17,328.6 273.26,427.9 159.08,99.4 362.66,132.8 559.47,92 l 4809.69,-997.2"
         style="fill:#ffffff;fill-opacity:1;fill-rule:nonzero;stroke:none"
         id="path190" /><path
         d="m 5552.8,15221.8 c -137.68,0 -271.56,-36.2 -382.67,-105.6 -152.97,-95.5 -248.81,-245.4 -262.95,-411.1 -27.17,-318.6 240.84,-605.5 610.15,-653 l 4872.47,-627.6 c 248.6,-32 470.7,108.9 505,320.9 34,209.2 -129.3,412.5 -371.7,462.7 l -4809.68,997.2 c -53.36,11.1 -107.29,16.5 -160.62,16.5 z m 4907.3,-1846 c -25,0 -50.3,1.6 -75.9,4.9 l -4872.52,627.6 c -392.83,50.5 -677.7,358.3 -648.52,700.6 15.34,179.7 118.71,341.8 283.57,444.8 163.71,102.2 373.51,136.7 575.66,94.8 L 10532,14251.4 c 265.7,-55.1 444.2,-280.5 406.5,-513.1 -34.7,-213.5 -237.8,-362.5 -478.4,-362.5"
         style="fill:#000000;fill-opacity:1;fill-rule:nonzero;stroke:none"
         id="path192" /><path
         d="m 6896.69,8990.1 c 36.53,-297.5 -50.17,-596.9 -239.95,-828.7 -189.79,-231.9 -466.13,-376 -764.85,-398.9 -300.76,-23.1 -597.73,78.7 -821.05,281.5 -223.31,202.8 -353.25,488.7 -359.24,790.3 l 45.09,5700.3 c -8.17,411.6 306.32,758 716.72,789.5 413.63,31.7 779.05,-267.5 829.63,-679.3 l 593.65,-5654.7"
         style="fill:#ffffff;fill-opacity:1;fill-rule:nonzero;stroke:none"
         id="path194" /><path
         d="m 5533.82,15304.3 c -19.44,0 -39.01,-0.7 -58.72,-2.2 -398.4,-30.6 -704.26,-367.5 -696.32,-767.1 l -45.1,-5700.9 c 5.84,-293.6 134.14,-575.9 352.01,-773.7 217.85,-197.9 511.14,-298.4 804.51,-275.9 291.25,22.3 564.41,164.8 749.45,390.9 185.04,226 270.74,522 235.12,812 -0.01,0.1 -0.03,0.2 -0.04,0.3 l -593.65,5654.8 c -46.8,380.9 -369.35,661.8 -747.26,661.8 z m 275.23,-7567.1 c -276.65,0 -547.17,103.5 -753.05,290.5 -226.83,206 -360.4,499.8 -366.48,806.2 l 45.09,5700.8 c -8.4,422.4 315.38,779 737.1,811.4 426.53,32.7 801.12,-274.2 853.26,-698.6 l 593.65,-5654.9 c 37.03,-301.8 -52.18,-609.9 -244.79,-845.2 -192.64,-235.4 -477.03,-383.7 -780.25,-407 -28.19,-2.1 -56.41,-3.2 -84.53,-3.2"
         style="fill:#000000;fill-opacity:1;fill-rule:nonzero;stroke:none"
         id="path196" /><path
         d="m 5913.98,9563.3 c 355.7,-79.4 579.68,-432.2 500.28,-788 -79.4,-355.7 -432.12,-579.8 -787.82,-500.4 -355.7,79.4 -579.68,432.1 -500.28,787.9 79.41,355.8 432.12,579.8 787.82,500.5"
         style="fill:#000000;fill-opacity:1;fill-rule:nonzero;stroke:none"
         id="path198" /><path
         d="m 5635.65,14996.4 c 238.25,-53.2 388.28,-289.5 335.09,-527.8 -53.18,-238.3 -289.44,-388.4 -527.68,-335.2 -238.26,53.2 -388.28,289.5 -335.1,527.8 53.19,238.3 289.44,388.3 527.69,335.2"
         style="fill:#000000;fill-opacity:1;fill-rule:nonzero;stroke:none"
         id="path200" /><path
         d="m 5794.12,7989.5 c -64.39,0 -129.45,7 -194.13,21.4 -70.19,15.7 -138.16,39.6 -202.05,71.1 -10.94,5.4 -15.43,18.7 -10.03,29.6 5.4,10.9 18.65,15.4 29.58,10 60.72,-29.9 125.37,-52.7 192.11,-67.6 372.38,-83.1 757.93,93.8 937.34,430.2 5.74,10.8 19.09,14.9 29.89,9.1 10.76,-5.7 14.82,-19.1 9.08,-29.9 -157.55,-295.4 -466.16,-473.9 -791.79,-473.9"
         style="fill:#000000;fill-opacity:1;fill-rule:nonzero;stroke:none"
         id="path202" /><path
         d="m 6646.34,8682.5 c -0.97,0 -1.94,0 -2.92,0.2 -12.1,1.6 -20.61,12.7 -19,24.8 19.84,150.1 -1.08,303.4 -60.49,443.3 -4.77,11.2 0.46,24.2 11.69,28.9 11.26,4.8 24.19,-0.4 28.96,-11.6 62.5,-147.2 84.51,-308.5 63.62,-466.4 -1.47,-11.1 -10.95,-19.2 -21.86,-19.2"
         style="fill:#000000;fill-opacity:1;fill-rule:nonzero;stroke:none"
         id="path204" /><path
         d="m 5816.69,14027.9 c -7.86,0 -15.46,4.2 -19.45,11.6 -5.79,10.8 -1.79,24.2 8.95,29.9 116.73,63 207.71,165.2 256.19,287.9 4.5,11.3 17.31,16.9 28.66,12.4 11.35,-4.5 16.9,-17.3 12.42,-28.7 -52.3,-132.3 -150.43,-242.5 -276.31,-310.4 -3.33,-1.8 -6.92,-2.7 -10.46,-2.7"
         style="fill:#000000;fill-opacity:1;fill-rule:nonzero;stroke:none"
         id="path206" /><path
         d="m 6095.69,14723.2 c -9.32,0 -17.97,5.9 -21.01,15.2 -61.31,188.7 -219.46,332.6 -412.75,375.7 -152,34 -312.8,2.8 -441.2,-85.4 -10.06,-6.9 -23.8,-4.4 -30.71,5.7 -6.91,10 -4.36,23.8 5.69,30.7 138.52,95.1 311.96,128.7 475.84,92.2 208.46,-46.6 379.02,-201.8 445.14,-405.2 3.77,-11.6 -2.57,-24.1 -14.18,-27.8 -2.26,-0.8 -4.57,-1.1 -6.82,-1.1"
         style="fill:#000000;fill-opacity:1;fill-rule:nonzero;stroke:none"
         id="path208" /><path
         d="m 11392.3,10902.6 895.1,480.6 251.9,-258.6 346.2,-645.1 82,-363.6 -895.2,-480.6 -680,1267.3"
         style="fill:#000000;fill-opacity:1;fill-rule:nonzero;stroke:none"
         id="path210" /><path
         d="m 11422.2,10893.5 659.1,-1228.3 861,462.3 -77.7,344.2 -343.3,639.7 -238.1,244.4 z m 650.1,-1280.2 c -2.1,0 -4.3,0.3 -6.4,0.9 -5.6,1.7 -10.3,5.5 -13.1,10.7 l -680,1267.2 c -5.8,10.8 -1.7,24.1 9,29.9 l 895.2,480.6 c 8.7,4.7 19.4,3 26.3,-4 l 251.8,-258.6 c 1.4,-1.5 2.7,-3.1 3.6,-5 l 346.2,-645.1 c 1,-1.8 1.7,-3.6 2.1,-5.6 l 82,-363.5 c 2.2,-9.7 -2.3,-19.6 -11.1,-24.3 l -895.1,-480.6 c -3.3,-1.8 -6.9,-2.6 -10.5,-2.6"
         style="fill:#000000;fill-opacity:1;fill-rule:nonzero;stroke:none"
         id="path212" /><path
         d="m 18812,14073.4 c 615.3,-1146.5 184.8,-2574.9 -961.5,-3190.3 -1146.3,-615.4 -2574.3,-184.9 -3189.6,961.7 -615.3,1146.5 -184.8,2574.9 961.5,3190.3 1146.3,615.4 2574.3,184.9 3189.6,-961.7 z m -3298.9,1165.4 c -1258.8,-675.8 -1731.5,-2244.3 -1055.8,-3503.3 675.6,-1259.1 2243.8,-1731.9 3502.5,-1056.1 1258.8,675.8 1731.5,2244.3 1055.8,3503.3 -675.6,1259.1 -2243.8,1731.9 -3502.5,1056.1"
         style="fill:#000000;fill-opacity:1;fill-rule:nonzero;stroke:none"
         id="path214" /><path
         d="m 11369.4,9765 c -118.9,-63.8 -267.1,-19.2 -330.9,99.7 l -26.4,49.3 c -63.9,119 -19.2,267.1 99.7,330.9 l 3097.1,1662.8 257.6,-479.9 L 11369.4,9765"
         style="fill:#000000;fill-opacity:1;fill-rule:nonzero;stroke:none"
         id="path216" /><path
         d="m 12673.4,10872.6 c -7.9,0 -15.5,4.2 -19.5,11.6 -5.8,10.8 -1.8,24.2 9,29.9 l 259,139.1 c 10.8,5.8 24.1,1.7 29.9,-9 5.8,-10.8 1.8,-24.1 -9,-29.9 l -259,-139.1 c -3.4,-1.8 -6.9,-2.6 -10.4,-2.6"
         style="fill:#ffffff;fill-opacity:1;fill-rule:nonzero;stroke:none"
         id="path218" /><path
         d="m 13659.7,10977.9 -258.1,480.9 c -35.3,65.9 -10.6,148.1 55.3,183.5 l 170.3,91.4 c 65.9,35.4 148.1,10.6 183.5,-55.3 l 258,-480.9 c 35.4,-65.9 10.7,-148.1 -55.3,-183.5 l -170.2,-91.4 c -66,-35.4 -148.1,-10.6 -183.5,55.3"
         style="fill:#000000;fill-opacity:1;fill-rule:nonzero;stroke:none"
         id="path220" /><path
         d="m 13679.2,10988.3 c 14.3,-26.6 38.2,-46.2 67.2,-54.9 28.9,-8.8 59.6,-5.7 86.3,8.7 l 170.3,91.4 c 55.1,29.6 75.8,98.4 46.3,153.6 l -258.1,480.9 c -14.3,26.6 -38.2,46.2 -67.2,54.9 -28.9,8.7 -59.6,5.7 -86.3,-8.7 l -170.3,-91.4 c -55.1,-29.5 -75.9,-98.5 -46.3,-153.6 z m 100.1,-104 c -15.3,0 -30.6,2.3 -45.7,6.8 -40.3,12.2 -73.4,39.3 -93.3,76.4 v 0 l -258.1,480.9 c -41.1,76.5 -12.3,172.2 64.3,213.3 l 170.3,91.5 c 37.1,19.9 79.7,24.1 120,12 40.3,-12.2 73.4,-39.3 93.3,-76.4 l 258.1,-480.9 c 41.1,-76.5 12.2,-172.3 -64.3,-213.3 l -170.3,-91.4 c -23.2,-12.5 -48.7,-18.9 -74.3,-18.9"
         style="fill:#ffffff;fill-opacity:1;fill-rule:nonzero;stroke:none"
         id="path222" /><path
         d="m 18572.9,13926.2 c -7.9,0 -15.5,4.2 -19.5,11.6 -98.9,184.4 -224.1,351.6 -371.9,496.8 -8.7,8.6 -8.8,22.6 -0.2,31.2 8.5,8.8 22.5,8.9 31.2,0.3 151,-148.4 278.8,-319.1 379.8,-507.4 5.8,-10.7 1.8,-24.1 -9,-29.9 -3.3,-1.8 -6.9,-2.6 -10.4,-2.6"
         style="fill:#000000;fill-opacity:1;fill-rule:nonzero;stroke:none"
         id="path224" /><path
         d="m 15763.6,11094.5 c -3.5,0 -7,0.8 -10.3,2.6 -372.3,195.7 -674.6,495.9 -874.3,868 -549.5,1024 -163.7,2304.2 860.1,2853.9 739.3,396.9 1642.9,317.6 2302.1,-201.9 9.5,-7.6 11.2,-21.5 3.6,-31.1 -7.5,-9.5 -21.4,-11.2 -31,-3.6 -645.4,508.7 -1530,586.3 -2253.8,197.7 -1002.3,-538.1 -1380.1,-1791.6 -842.1,-2794.1 195.5,-364.3 491.5,-658.2 856,-849.8 10.7,-5.7 14.9,-19.1 9.2,-29.9 -3.9,-7.5 -11.6,-11.8 -19.5,-11.8"
         style="fill:#000000;fill-opacity:1;fill-rule:nonzero;stroke:none"
         id="path226" /><path
         d="m 10004.9,13766.9 c -63.65,111.8 -78.54,244.9 -41.2,368 37.3,123.2 123.6,225.5 238.7,283.1 126.6,63.4 273.6,72.3 406.9,24.6 133.3,-47.8 241.3,-148 298.8,-277.4 l 1426.1,-3204.1 -570.1,-285.6 -1759.2,3091.4"
         style="fill:#000000;fill-opacity:1;fill-rule:nonzero;stroke:none"
         id="path228" /><path
         d="m 10024.1,13777.9 1748.8,-3073.3 532.5,266.8 -1417.4,3184.9 c -54.9,123.2 -159.2,220 -286.2,265.5 -127,45.4 -268.9,36.9 -389.6,-23.5 -109.1,-54.7 -191.9,-153 -227.37,-269.8 -35.42,-116.8 -21.12,-244.6 39.27,-350.6 z m 1740,-3124.5 c -7.7,0 -15.2,4.1 -19.2,11.2 L 9985.68,13756 c -66.32,116.6 -82.03,257 -43.12,385.3 38.93,128.4 130.04,236.4 249.94,296.5 131.3,65.7 285.9,75.1 424.2,25.5 138.3,-49.5 251.9,-154.9 311.6,-289.1 L 12354.4,10970 c 4.8,-10.7 0.2,-23.4 -10.3,-28.7 l -570.1,-285.5 c -3.2,-1.6 -6.6,-2.4 -9.9,-2.4"
         style="fill:#000000;fill-opacity:1;fill-rule:nonzero;stroke:none"
         id="path230" /><path
         d="m 9983.51,13702.7 c -63.64,111.8 -78.52,244.8 -41.19,368 37.35,123.1 123.68,225.4 238.68,283.1 126.6,63.4 273.6,72.2 406.9,24.5 133.3,-47.8 241.3,-147.9 298.9,-277.3 l 1426,-3204.2 -570.1,-285.6 -1759.19,3091.5"
         style="fill:#ffffff;fill-opacity:1;fill-rule:nonzero;stroke:none"
         id="path232" /><path
         d="m 10002.7,13713.6 1748.8,-3073.2 532.5,266.7 -1417.4,3184.9 c -54.9,123.2 -159.2,220 -286.1,265.5 -127,45.5 -269,36.9 -389.6,-23.5 -109.1,-54.6 -192.02,-153 -227.44,-269.7 -35.42,-116.8 -21.12,-244.6 39.24,-350.7 z m 1740,-3124.4 c -7.7,0 -15.1,4 -19.2,11.1 l -1759.19,3091.4 c -66.32,116.6 -82.03,257 -43.12,385.4 38.93,128.3 130.01,236.4 249.91,296.4 131.3,65.8 286,75.1 424.3,25.6 138.2,-49.6 251.8,-154.9 311.5,-289.1 L 12333,10905.8 c 4.8,-10.8 0.2,-23.5 -10.3,-28.8 l -570.1,-285.5 c -3.2,-1.6 -6.6,-2.3 -9.9,-2.3"
         style="fill:#000000;fill-opacity:1;fill-rule:nonzero;stroke:none"
         id="path234" /><path
         d="m 11387.8,10933.1 908.5,455.1 55.2,-352.5 317.6,-634.4 271,-299.2 -908.4,-455 -247.3,251.8 -350.3,699.7 -46.3,334.5"
         style="fill:#ffffff;fill-opacity:1;fill-rule:nonzero;stroke:none"
         id="path236" /><path
         d="m 11802.5,9911.9 233.7,-237.8 868.1,434.8 -251.6,277.6 c -1.3,1.5 -2.5,3.2 -3.4,5 l -317.5,634.3 c -1,2 -1.8,4.2 -2.1,6.4 l -50.5,322.7 -867.3,-434.4 43.5,-315.3 z m 229.2,-286.9 c -5.8,0 -11.5,2.3 -15.8,6.7 l -247.3,251.8 c -1.6,1.6 -3,3.5 -4,5.6 l -350.3,699.6 c -1,2.2 -1.8,4.5 -2.1,6.9 l -46.2,334.5 c -1.3,9.4 3.5,18.5 12,22.8 l 908.4,455 c 6.3,3.2 13.8,3.1 20,-0.1 6.3,-3.2 10.6,-9.3 11.7,-16.2 l 54.7,-349.1 314.7,-628.6 269,-296.9 c 4.7,-5.1 6.6,-12.1 5.3,-18.9 -1.2,-6.8 -5.6,-12.6 -11.8,-15.7 l -908.4,-455 c -3.2,-1.6 -6.5,-2.4 -9.9,-2.4"
         style="fill:#000000;fill-opacity:1;fill-rule:nonzero;stroke:none"
         id="path238" /><path
         d="m 10384.2,13712.9 c -99.2,33 -152.9,140.3 -119.9,239.5 33,99.3 140.2,153 239.5,120 99.2,-33.1 152.9,-140.3 119.9,-239.6 -33,-99.2 -140.2,-152.9 -239.5,-119.9"
         style="fill:#000000;fill-opacity:1;fill-rule:nonzero;stroke:none"
         id="path240" /><path
         d="m 12515.1,10177.9 -410.8,-205.8 410.8,205.8"
         style="fill:#000000;fill-opacity:1;fill-rule:nonzero;stroke:none"
         id="path242" /><path
         d="m 12104.3,9950 c -8.1,0 -15.9,4.5 -19.8,12.2 -5.5,10.9 -1,24.2 9.9,29.6 l 410.8,205.8 c 10.9,5.5 24.2,1.1 29.7,-9.8 5.4,-10.9 1,-24.2 -9.9,-29.7 l -410.9,-205.8 c -3.1,-1.6 -6.5,-2.3 -9.8,-2.3"
         style="fill:#000000;fill-opacity:1;fill-rule:nonzero;stroke:none"
         id="path244" /><path
         d="m 12127.3,10925.6 -410.9,-205.8 410.9,205.8"
         style="fill:#000000;fill-opacity:1;fill-rule:nonzero;stroke:none"
         id="path246" /><path
         d="m 11716.4,10697.7 c -8.1,0 -15.8,4.5 -19.7,12.2 -5.5,10.9 -1.1,24.2 9.8,29.7 l 410.9,205.7 c 10.9,5.5 24.1,1.1 29.6,-9.8 5.5,-10.9 1.1,-24.2 -9.8,-29.7 l -410.9,-205.7 c -3.2,-1.6 -6.5,-2.4 -9.9,-2.4"
         style="fill:#000000;fill-opacity:1;fill-rule:nonzero;stroke:none"
         id="path248" /><path
         d="m 10444.2,13563.6 c -34.9,0 -69.9,5.6 -104,17 -24.3,8.1 -47.7,19 -69.4,32.4 -10.4,6.4 -13.6,20 -7.2,30.4 6.4,10.4 20,13.6 30.4,7.2 18.8,-11.6 39,-21.1 60.2,-28.1 61.1,-20.4 125.4,-19.6 185.9,2.1 11.5,4.1 24.1,-1.8 28.2,-13.3 4.2,-11.4 -1.8,-24.1 -13.3,-28.2 -36.1,-13 -73.5,-19.5 -110.8,-19.5"
         style="fill:#000000;fill-opacity:1;fill-rule:nonzero;stroke:none"
         id="path250" /><path
         d="m 10141.3,13820.7 c -10.6,0 -20,7.6 -21.8,18.4 -8.6,52.3 -4.3,106.7 12.5,157.3 40.9,123 150.7,210.8 279.6,223.6 12.4,1.2 23,-7.7 24.2,-19.8 1.2,-12.1 -7.7,-23 -19.8,-24.2 -111.7,-11.1 -206.7,-87 -242.1,-193.5 -14.6,-43.8 -18.3,-90.9 -10.8,-136.2 2,-12 -6.2,-23.4 -18.2,-25.3 -1.2,-0.2 -2.4,-0.3 -3.6,-0.3"
         style="fill:#000000;fill-opacity:1;fill-rule:nonzero;stroke:none"
         id="path252" /><path
         d="m 13616.3,15395.5 c -64.9,214.3 -53.9,349.6 5,490.5 l 99.2,197.4 -298.3,119.7 -91.4,-224.7 c -29.5,-72.4 -72.1,-138.7 -125.7,-195.5 l -49.3,-52.3 460.5,-335.1"
         style="fill:#ffffff;fill-opacity:1;fill-rule:nonzero;stroke:none"
         id="path254" /><path
         d="m 13189.1,15733.7 388.9,-283 c -43.9,173 -36.5,301.7 22.9,443.8 l 89.1,177.4 -255.6,102.5 -83.2,-204.3 c -30.6,-75.2 -74.3,-143.3 -130,-202.4 z m 427.2,-360.3 c -4.5,0 -9.1,1.4 -13,4.3 l -460.5,335.1 c -5.1,3.7 -8.4,9.5 -9,15.8 -0.6,6.3 1.6,12.6 5.9,17.2 l 49.3,52.2 c 52,55.1 92.8,118.6 121.3,188.7 l 91.5,224.7 c 4.5,11.3 17.4,16.7 28.6,12.2 l 298.4,-119.7 c 5.7,-2.3 10.2,-6.9 12.4,-12.7 2.2,-5.8 1.8,-12.2 -0.9,-17.7 l -99.2,-197.4 c -51,-122 -71.5,-250.2 -3.6,-474.2 2.7,-9.1 -0.6,-18.9 -8.4,-24.4 -3.8,-2.7 -8.3,-4.1 -12.8,-4.1"
         style="fill:#000000;fill-opacity:1;fill-rule:nonzero;stroke:none"
         id="path256" /><path
         d="m 13290.8,15840.3 c -7.5,23.2 -38,28.9 -54.8,11.1 -47.2,-50.1 -129.8,-134.2 -192.5,-177.5 -58.4,-40.4 -76.7,-118.3 -43.6,-180.8 93.7,-176.4 330.5,-559.3 580.2,-851.4 17.1,-20 59.6,-46.8 120.7,-19.3 205.4,92.4 10.2,509.7 -101.2,944.2 -4.4,17.1 -18.1,30.2 -35.5,33.4 l -62,11.4 c -114.6,22.8 -162.7,76.8 -211.3,228.9"
         style="fill:#000000;fill-opacity:1;fill-rule:nonzero;stroke:none"
         id="path258" /><path
         d="m 13057.6,15683.4 c 0,0 -9.5,-6.4 -14.1,-9.5 -58.4,-40.4 -76.7,-118.3 -43.6,-180.8 93.7,-176.4 330.5,-559.3 580.2,-851.4 17.1,-20 59.6,-46.8 120.7,-19.3 18.8,8.5 47.1,31.5 47.1,31.5 l -16.8,21.3 c -239.2,304.6 -455.6,626.3 -647.5,962.7 l -26,45.5"
         style="fill:#ffffff;fill-opacity:1;fill-rule:nonzero;stroke:none"
         id="path260" /><path
         d="m 13050.4,15651.5 c -44.5,-34.9 -57.9,-97.2 -31,-148 96.7,-182.2 330.3,-558.2 577.5,-847.5 5.8,-6.7 37.5,-39.2 94.9,-13.4 6.9,3.1 16.4,9.3 24.8,15.3 l -2.9,3.7 c -239.1,304.5 -457.6,629.3 -649.3,965.3 z m 599.9,-1062.8 c -38.8,0 -69.3,18 -86.9,38.6 -249.6,292 -485.4,671.6 -583,855.5 -38.5,72.7 -16.8,162.6 50.6,209.2 l 14.2,9.7 c 5,3.5 11.4,4.7 17.3,3.3 6,-1.4 11.2,-5.2 14.2,-10.6 l 26,-45.6 c 190.7,-334.2 408,-657.1 645.7,-959.9 l 16.8,-21.4 c 7.5,-9.5 6,-23.2 -3.4,-30.8 -3.1,-2.5 -31.1,-25.1 -51.9,-34.4 -21.4,-9.6 -41.4,-13.6 -59.6,-13.6"
         style="fill:#000000;fill-opacity:1;fill-rule:nonzero;stroke:none"
         id="path262" /><path
         d="m 13684.7,15219.7 c -1.2,0 -2.5,0.1 -3.7,0.3 l -205.7,34.4 c -12,2.1 -20.1,13.5 -18.1,25.5 2,12 13.4,20.1 25.4,18.1 l 205.7,-34.5 c 12,-2 20.1,-13.4 18.1,-25.4 -1.8,-10.8 -11.1,-18.4 -21.7,-18.4"
         style="fill:#ffffff;fill-opacity:1;fill-rule:nonzero;stroke:none"
         id="path264" /><path
         d="m 13718,15102.5 c -1.1,0 -2.2,0.1 -3.3,0.2 l -168,25 c -12.1,1.7 -20.4,13 -18.6,25.1 1.8,12 13,20.3 25,18.6 l 168.1,-25 c 12.1,-1.8 20.4,-13 18.6,-25.1 -1.6,-10.9 -11,-18.8 -21.8,-18.8"
         style="fill:#ffffff;fill-opacity:1;fill-rule:nonzero;stroke:none"
         id="path266" /><path
         d="m 11935.5,18507.2 c 0,0 2070.5,454.1 2701.6,94.7 95.1,-54.2 185.2,-167.7 205.1,-275.3 60.6,-327.6 -121.8,-1041.5 -1119.4,-2383.4 -14,-19 -39.1,-26.3 -61.2,-18 l -316.5,120.1 c -25.6,9.7 -39.6,37.5 -32,63.9 l 422.5,1478.8 c 11,38.5 -20.9,75.8 -60.6,70.9 l -1973.2,-242.5 233.7,1090.8"
         style="fill:#ffffff;fill-opacity:1;fill-rule:nonzero;stroke:none"
         id="path268" /><path
         d="m 13681.9,17681.4 c 22.6,0 44.2,-9.8 59.2,-27.3 17,-19.9 22.9,-46.9 15.7,-72.1 l -422.5,-1478.9 c -4.3,-15.2 3.8,-31.5 18.7,-37.2 l 316.4,-120 c 12.8,-4.9 27.5,-0.6 35.7,10.5 1082.1,1455.6 1163.3,2107.3 1115.4,2366.2 -17.9,96.7 -99.6,206.1 -194.3,260.1 -589.9,335.9 -2490.3,-55.5 -2672.2,-94.1 l -224.1,-1046.5 1942.4,238.7 c 3.2,0.4 6.4,0.6 9.6,0.6 z m -1.7,-1781.6 c -8.9,0 -17.8,1.5 -26.4,4.8 l -316.5,120 c -36.1,13.7 -56.1,53.5 -45.5,90.6 l 422.5,1478.9 c 3.2,11.1 0.7,22.5 -6.8,31.3 -7.5,8.8 -18.4,13 -29.8,11.6 l -1973.2,-242.5 c -7.1,-0.9 -14.2,1.7 -19,7 -4.8,5.3 -6.8,12.5 -5.3,19.5 l 233.6,1090.9 c 1.9,8.4 8.5,15 16.9,16.9 84.9,18.6 2086.1,451.8 2717.3,92.2 105.1,-59.8 195.9,-181.9 215.9,-290.4 49.2,-266 -31.3,-931.5 -1123.3,-2400.6 -14.5,-19.4 -37.2,-30.2 -60.4,-30.2"
         style="fill:#000000;fill-opacity:1;fill-rule:nonzero;stroke:none"
         id="path270" /><path
         d="m 12546.9,14608.1 40.6,-192.8 c 54.2,-280.6 -150.8,-424.2 -150.8,-424.2 l 606.3,-73.8 c 0,0 -132.4,80.5 -105.4,470.3 l 34.7,326.1 -425.4,-105.6"
         style="fill:#ffffff;fill-opacity:1;fill-rule:nonzero;stroke:none"
         id="path272" /><path
         d="m 12487.8,14007.1 499.7,-60.8 c -39.8,60.3 -89.5,188.4 -71.9,442.8 l 31.4,295.5 -374.1,-92.8 36.2,-171.9 c 41.2,-213.1 -61.9,-352.5 -121.3,-412.8 z m 555.2,-111.9 c -0.9,0 -1.8,0.1 -2.7,0.2 l -606.3,73.8 c -9.1,1.1 -16.5,7.7 -18.8,16.6 -2.2,8.8 1.3,18.2 8.8,23.4 7.9,5.6 192.6,139.4 141.8,401.9 l -40.5,192.4 c -2.4,11.7 4.7,23.1 16.3,26 l 425.3,105.6 c 7.1,1.7 14.4,0 19.9,-4.8 5.4,-4.7 8.2,-11.8 7.4,-18.9 l -34.6,-326.2 c -25.4,-366.2 94,-448.4 95.2,-449.2 8.6,-5.6 12.3,-16.5 8.8,-26.2 -3.2,-8.8 -11.4,-14.6 -20.6,-14.6"
         style="fill:#000000;fill-opacity:1;fill-rule:nonzero;stroke:none"
         id="path274" /><path
         d="m 12534.3,14250.6 c -50,-57.6 -140.5,-165.7 -210.1,-270.2 -43.7,-65.6 -17.5,-141.3 29.3,-204.2 95.4,-128.3 226.4,-227 380.3,-328.6 134.5,-88.7 284.9,-182.3 465.7,-265 49.1,-22.5 159.8,-53.2 233.8,-16.3 223.6,111.5 -149.2,460.7 -442.3,863 -11.5,15.8 -31,23.5 -50.2,19.7 l -68.6,-13.7 c -68.7,-13.6 -138.7,15.3 -177.5,73.3 l -92.3,137.9 c -15.7,23.5 -49.5,25.5 -68.1,4.1"
         style="fill:#000000;fill-opacity:1;fill-rule:nonzero;stroke:none"
         id="path276" /><path
         d="m 12360.2,14029 c 0,0 -32.6,-43.5 -36,-48.6 -10.9,-16.4 -17.4,-35.6 -20.9,-55.2 -11.5,-63.2 10.5,-127.9 54.8,-174.4 10.7,-11.2 25.3,-25.5 42.3,-41.6 175.9,-167.4 373.7,-310.1 586.8,-426.6 108.1,-59 348,-180.4 446.1,-116.3 30.3,19.8 48.8,80.1 48.8,80.1 0,0 -57.3,-34.4 -229.8,51.3 -291.4,144.9 -488.7,307.4 -729.3,501.8 -47.4,38.2 -80,73.3 -113.7,115 -26.6,32.9 -43.6,72.5 -49.1,114.5"
         style="fill:#ffffff;fill-opacity:1;fill-rule:nonzero;stroke:none"
         id="path278" /><path
         d="m 12349.6,13977.8 c -3.7,-5.1 -6.3,-8.6 -7,-9.7 -8.3,-12.4 -14.2,-28.2 -17.6,-46.9 -9.9,-54.5 8.5,-112.5 49.1,-155.1 10.5,-11 24.8,-25.1 41.5,-40.9 172,-163.7 367.8,-306.1 582.2,-423.2 285.7,-156.1 387.9,-140.4 423.4,-117.2 9.1,5.9 17.9,18.9 25.2,32.9 -39.3,-1 -103.4,10.3 -203.9,60.2 -284.2,141.3 -481.6,300.9 -710.2,485.7 l -23.2,18.7 c -43.7,35.3 -77.5,69.6 -117,118.3 -18.7,23.2 -33.1,49.3 -42.5,77.2 z m 1010.3,-851.6 c -87.9,0 -216.3,45.8 -383.3,137.1 -217.7,118.9 -416.7,263.6 -591.5,429.9 -17.2,16.4 -32,31 -42.9,42.4 -50.4,52.7 -73,125.1 -60.6,193.5 4.4,24.7 12.6,46 24.2,63.5 3.6,5.4 31.3,42.3 36.8,49.7 5.4,7.1 14.6,10.4 23.3,8.1 8.7,-2.3 15.1,-9.6 16.2,-18.6 4.9,-37.8 20.3,-73.6 44.4,-103.4 37.3,-46.2 69.3,-78.6 110.4,-111.8 l 23.1,-18.7 c 226.6,-183.1 422.3,-341.3 702.2,-480.4 154.6,-76.8 208.9,-52 209.4,-51.7 7.9,3.9 17.8,2.9 24.5,-2.8 6.7,-5.8 9.7,-14.7 7.2,-23.1 -2.2,-7 -22,-68.6 -57.9,-92.1 -22.1,-14.4 -50.6,-21.6 -85.5,-21.6"
         style="fill:#000000;fill-opacity:1;fill-rule:nonzero;stroke:none"
         id="path280" /><path
         d="m 12936.3,13727.1 c -10.2,0 -19.4,7.1 -21.6,17.4 -2.6,12 5,23.7 16.9,26.3 l 226.2,48.8 c 12,2.5 23.7,-5 26.3,-16.9 2.5,-11.9 -5,-23.7 -17,-26.2 l -226.2,-48.9 c -1.5,-0.3 -3.1,-0.5 -4.6,-0.5"
         style="fill:#ffffff;fill-opacity:1;fill-rule:nonzero;stroke:none"
         id="path282" /><path
         d="m 13061.4,13625.6 c -10,0 -19.1,6.8 -21.5,17 -2.8,11.9 4.6,23.8 16.4,26.6 l 183.5,43.2 c 11.8,2.9 23.8,-4.5 26.6,-16.4 2.8,-11.9 -4.6,-23.8 -16.4,-26.5 l -183.5,-43.3 c -1.7,-0.4 -3.4,-0.6 -5.1,-0.6"
         style="fill:#ffffff;fill-opacity:1;fill-rule:nonzero;stroke:none"
         id="path284" /><path
         d="m 13275.2,17915.3 c -603.3,515.9 -2544.6,532.1 -2544.6,532.1 0,0 -242.4,-289.1 -126.7,-870.6 38.2,-191.8 173.8,-363.9 388.1,-363.9 l 1190.9,-10.1 c 87.3,-0.7 156.6,-73.4 153.3,-160.6 -22.2,-575.7 -42,-1765.9 122.6,-2577 6.7,-32.8 31.5,-59 63.9,-67.8 76,-20.6 225.1,-54 386.7,-51.8 50.4,0.7 92.6,38.6 99.3,88.6 l 395,2949.4 c 11.9,88.9 12.1,179.2 -2.7,267.6 -15.9,94.5 -50.8,199.9 -125.8,264.1"
         style="fill:#ffffff;fill-opacity:1;fill-rule:nonzero;stroke:none"
         id="path286" /><path
         d="m 10741.5,18425.2 c -36.2,-50.2 -217.6,-333.3 -115.9,-844.1 31.7,-159.7 146.8,-346.1 366.4,-346.1 l 1191.1,-10.1 c 48.2,-0.4 93.1,-19.8 126.4,-54.7 33.3,-34.9 50.6,-80.7 48.7,-128.9 -23.8,-618.2 -39.5,-1774.5 122.3,-2571.7 5,-24.7 23.4,-44.2 47.9,-50.9 73.8,-19.9 221.3,-53.2 380.7,-51 39.1,0.5 72.5,30.4 77.7,69.4 l 395,2949.4 c 12.1,90.7 11.3,178.6 -2.6,261.1 -19.5,115.9 -59.3,200.4 -118.4,250.9 -566.9,484.8 -2361,524.2 -2519.3,526.7 z m 2152.8,-4101.8 c -158.9,0 -303.8,32.8 -377.4,52.7 -40.8,11.1 -71.3,43.5 -79.7,84.8 -162.7,801.7 -147,1961.9 -123.1,2582.1 1.4,36.2 -11.6,70.5 -36.6,96.7 -24.9,26.2 -58.6,40.7 -94.7,41 l -1191,10.1 c -246.2,0 -374.5,205.6 -409.6,381.6 -116.4,585.3 121.3,877.1 131.5,889.2 4.2,5.1 11,7.4 17.1,7.9 79.6,-0.6 1956.3,-22.2 2558.7,-537.4 67.2,-57.5 112,-150.7 133.3,-277.2 14.6,-86.9 15.5,-179.2 2.8,-274.3 l -395,-2949.3 c -8.1,-60.6 -60.1,-106.9 -120.9,-107.8 -5.1,0 -10.3,-0.1 -15.4,-0.1"
         style="fill:#000000;fill-opacity:1;fill-rule:nonzero;stroke:none"
         id="path288" /><path
         d="m 12864.4,19810.1 159.7,-306.4 c 155.1,-279 404.3,-463.8 680.3,-623.8 l 111.9,-64.8 c 71.8,-41.6 155.2,-58.2 237.4,-47.2 l 12.6,1.7 c 125.5,16.7 252.8,-13.2 357.7,-84.2 l -278.2,-106.5 c -169.6,-65 -358.4,-62.4 -524.7,10.8 -159.3,70 -518.3,155.8 -687.6,353 -354.8,413.1 -340.9,504.9 -340.9,504.9 l 271.8,362.5"
         style="fill:#ffffff;fill-opacity:1;fill-rule:nonzero;stroke:none"
         id="path290" /><path
         d="m 12614.9,19440.5 c 3.7,-21.1 36.5,-135.5 335.3,-483.5 125.4,-146 363.1,-230.9 536.7,-292.8 56.1,-20.1 104.6,-37.4 143.1,-54.3 160.6,-70.7 341,-74.3 507.9,-10.4 l 236.4,90.6 c -92.6,51.3 -199.3,71.7 -305.1,57.6 l -12.6,-1.7 c -86.5,-11.6 -175.8,6.2 -251.4,50 l -111.8,64.8 c -246.1,142.6 -520.3,329.3 -688.6,632.1 l -143.7,275.8 z m 1280.2,-930.6 c -96.6,0 -192.6,19.9 -282.9,59.5 -37,16.3 -84.8,33.4 -140.2,53.2 -178.2,63.6 -422.2,150.8 -555.3,305.7 -343.9,400.5 -348.5,505.6 -346,522.6 0.6,3.6 2,7 4.2,9.9 l 271.9,362.5 c 4.5,6.1 11.9,9.4 19.4,8.8 7.6,-0.7 14.3,-5.1 17.8,-11.8 l 159.7,-306.4 c 162.9,-293 431,-475.3 671.8,-614.9 l 111.9,-64.8 c 67.2,-39 146.6,-54.7 223.4,-44.4 l 12.5,1.6 c 131,17.6 263.5,-13.6 373.1,-87.6 6.8,-4.7 10.5,-12.7 9.5,-20.9 -0.9,-8.1 -6.3,-15.1 -14,-18.1 l -278.2,-106.6 c -84.2,-32.2 -171.6,-48.3 -258.6,-48.3"
         style="fill:#000000;fill-opacity:1;fill-rule:nonzero;stroke:none"
         id="path292" /><path
         d="m 12055.4,18330.8 c 0,0 20.3,-41.4 -518.2,-119.2 -388.2,-56 -740.7,-31.3 -907.2,-13.1 -54.3,6 -90.9,58.2 -77.6,111.2 43.7,174.7 75.6,336.9 243.7,780.5 116.7,307.9 -60.6,869.5 301.9,1203.2 611.7,563.1 1455.7,-155.4 1455.7,-155.4 l 265.4,-389.7 c -304.1,-356.5 -543,-763.9 -705.7,-1203.3 l -58,-214.2"
         style="fill:#000000;fill-opacity:1;fill-rule:nonzero;stroke:none"
         id="path294" /><path
         d="m 11828.7,19403.9 c -11.1,0 -20.7,8.4 -21.9,19.7 l -45.5,424.2 c -1.3,12.1 7.5,23 19.6,24.3 12.1,1.3 23.1,-7.5 24.3,-19.6 l 45.5,-424.2 c 1.3,-12.1 -7.5,-23 -19.6,-24.3 -0.8,-0.1 -1.6,-0.1 -2.4,-0.1"
         style="fill:#ffffff;fill-opacity:1;fill-rule:nonzero;stroke:none"
         id="path296" /><path
         d="m 11267.8,19170.9 c -8,0 -15.7,4.3 -19.6,11.8 -99.1,189.2 -224.3,684.8 -226.9,790.8 -0.3,12.2 9.3,22.3 21.5,22.6 12.7,0.6 22.3,-9.3 22.6,-21.5 2.5,-100.4 127.3,-590.9 221.9,-771.4 5.7,-10.8 1.5,-24.1 -9.3,-29.8 -3.3,-1.7 -6.8,-2.5 -10.2,-2.5"
         style="fill:#ffffff;fill-opacity:1;fill-rule:nonzero;stroke:none"
         id="path298" /><path
         d="m 14696.7,18646.7 -1437.8,-109.6 790,1427.9 c 29.4,53.8 85,89.3 147.4,94.1 l 1166.8,88.9 c 74.2,5.7 125.2,-70.3 90.3,-134.2 l -756.7,-1367.1"
         style="fill:#000000;fill-opacity:1;fill-rule:nonzero;stroke:none"
         id="path300" /><path
         d="m 14509.8,19320.6 c -28.2,-51.5 -93.7,-96.5 -146.4,-100.5 -52.7,-4 -72.6,34.5 -44.4,86 28.1,51.5 93.7,96.5 146.4,100.5 52.7,4 72.6,-34.5 44.4,-86"
         style="fill:#ffffff;fill-opacity:1;fill-rule:nonzero;stroke:none"
         id="path302" /><path
         d="m 14626.6,18554.1 -2255.3,-171.9 c -46.6,-3.5 -87.3,31.4 -90.8,78 l -3.8,12.7 2424.1,184.7 3.8,-12.7 c 3.5,-46.6 -31.4,-87.3 -78,-90.8"
         style="fill:#000000;fill-opacity:1;fill-rule:nonzero;stroke:none"
         id="path304" /><path
         d="m 13475.7,18814.1 -293.5,101.6 c -43.7,15.1 -92,6.3 -127.6,-23.1 l -136.2,-112.7 c -26,-21.5 -59.2,-32.1 -92.9,-29.8 -146.9,9.7 -831.2,196.8 -883.6,321 -44.1,104.6 -78.6,229.7 -78.6,229.7 l -530.8,-185.5 c 0,0 8.6,-164 224.4,-384.1 183.6,-187.3 657.4,-250.3 1309,-211 0,0 136.2,15.4 250.4,151.8 72.9,87 250.6,42.2 356,68 37.4,9.2 39.8,61.5 3.4,74.1"
         style="fill:#ffffff;fill-opacity:1;fill-rule:nonzero;stroke:none"
         id="path306" /><path
         d="m 11356.9,19100.4 c 8.7,-45.3 47.5,-182.1 215.7,-353.7 171.1,-174.5 617.9,-245.1 1291.9,-204.4 0.1,0 128.2,16.6 234.8,143.8 54,64.5 150.3,65.3 243.4,66.2 46.3,0.4 90,0.7 124.3,9.2 11.2,2.7 12.5,12.4 12.6,15.3 0.2,2.9 -0.2,12.7 -11.1,16.4 l -293.6,101.6 c -36.1,12.5 -76.8,5.1 -106.2,-19.2 l -136.2,-112.7 c -30.4,-25.1 -68.9,-37.5 -108.4,-34.9 -136.1,9 -842.9,193 -902.6,334.5 -33.4,79.2 -60.9,168.7 -73,209.8 z m 1163.8,-613.3 c -496.2,0 -831.6,77.7 -979.6,228.6 -219.1,223.5 -230.3,391.4 -230.7,398.4 -0.5,9.8 5.5,18.8 14.8,22 l 530.8,185.6 c 5.8,2 12.1,1.5 17.5,-1.3 5.4,-2.8 9.4,-7.8 11.1,-13.7 0.3,-1.2 34.6,-125 77.6,-227 45.1,-106.9 711.1,-297.4 864.8,-307.6 28.1,-2 55.7,7 77.4,24.9 l 136.2,112.6 c 41.2,34.1 98.3,44.4 148.8,26.9 l 293.6,-101.6 c 25.6,-8.8 42,-33 40.8,-60.1 -1.3,-27.2 -19.9,-49.8 -46.3,-56.2 -39.3,-9.7 -85.5,-10.1 -134.4,-10.5 -83.1,-0.7 -169,-1.5 -209.9,-50.3 -118.5,-141.5 -258.9,-158.9 -264.8,-159.5 -123.4,-7.5 -239.4,-11.2 -347.7,-11.2"
         style="fill:#000000;fill-opacity:1;fill-rule:nonzero;stroke:none"
         id="path308" /><path
         d="m 12480.4,20176.9 c 362.5,-194.2 509.2,-479 699.1,-733.7 -133.8,-120.8 -293.5,-284.8 -397,-401.3 -97.6,75.1 -221,151.1 -310.8,258.9 l 8.7,876.1"
         style="fill:#000000;fill-opacity:1;fill-rule:nonzero;stroke:none"
         id="path310" /><path
         d="m 12029.6,20882.7 -0.7,-397 c 2.4,-51.8 36.3,-96.9 85.4,-113.6 l 75.7,-32.5 c 19.4,-8.3 -50.6,-114.2 -361.5,-66.5 -119.6,18.3 -233.3,64.5 -332.6,133.6 l -72.8,50.7 c 50.3,7.4 188.5,44.3 201.2,93.5 l 114.7,516.9 290.6,-185.1"
         style="fill:#ffffff;fill-opacity:1;fill-rule:nonzero;stroke:none"
         id="path312" /><path
         d="m 11477.2,20446.6 31.3,-21.8 c 97,-67.4 208.8,-112.4 323.3,-129.9 212.8,-32.6 304.3,9.6 331,32.4 l -57.2,24.5 c -56.5,19.2 -95.9,71.6 -98.8,132.9 l 0.7,385.9 -253.8,161.6 -107.8,-486.1 c -13.4,-51.8 -108.1,-84 -168.7,-99.5 z m 496.3,-207.6 c -43.1,0 -92.5,3.7 -148.3,12.2 -121.2,18.6 -239.4,66.1 -341.9,137.4 l -72.8,50.6 c -7.4,5.2 -11,14.4 -8.9,23.2 2.1,8.8 9.3,15.5 18.3,16.8 67,9.9 175.6,48.4 183,77.2 l 114.5,516.2 c 1.6,7 6.5,12.8 13.1,15.6 6.7,2.8 14.3,2.1 20.3,-1.8 l 290.7,-185.1 c 6.4,-4 10.2,-11.1 10.2,-18.6 l -0.7,-397 c 2,-42 29.7,-78.8 70.5,-92.7 l 77.2,-33.1 c 13.1,-5.6 19.2,-20 14.9,-35 -11,-38.6 -85.5,-85.9 -240.1,-85.9"
         style="fill:#000000;fill-opacity:1;fill-rule:nonzero;stroke:none"
         id="path314" /><path
         d="m 12558.8,21330.1 c -86.1,64.8 -35.2,-102.2 -301.6,214.8 -106.1,126.2 -142.3,-72 -169.9,-39.3 -102,120.7 -98.3,116.7 -170.9,141.6 -48,16.4 -125,-41.2 -154.9,-102.5 -39.5,-81 8.9,-141 -41.8,-334 -35.5,-135.5 -89.7,-196.3 -56.3,-241.7 33.8,-46 106.9,-8.1 147.6,-55.5 52.7,-61.4 -35.2,-165.1 -3.2,-253.7 20.1,-55.9 103.7,-131.1 300.4,-157.8 31.9,-4.3 62.6,14.8 72.8,45.4 13.1,39.3 29.3,88.9 40.9,137.7 55.1,232.3 17,318.5 73.3,350.7 86.2,49.4 197.6,-86.1 261.3,-40.8 66.2,47 120.1,246.5 2.3,335.1"
         style="fill:#000000;fill-opacity:1;fill-rule:nonzero;stroke:none"
         id="path316" /><path
         d="m 12070,21273.1 -6.3,-64.9 c -3,-30.5 -8.1,-60.8 -15.3,-90.6 -13.5,-56.1 -35.9,-152.5 -44.3,-207.5 -12.4,-80.8 234.4,-136.4 234.4,-136.4 l 37.3,30.2 29.1,-6 c 5.6,-1.1 11.5,-1.1 17,0.7 13.6,4.6 22,17.1 21.9,30.5 -0.4,73.1 4.1,233.7 46.5,352.4 0,0 -120.6,134.7 -320.3,91.6"
         style="fill:#ffffff;fill-opacity:1;fill-rule:nonzero;stroke:none"
         id="path318" /><path
         d="m 12090.4,21254.6 -4.8,-48.5 c -3,-31.5 -8.4,-63 -15.7,-93.7 -12.8,-53.3 -35.6,-150.9 -44,-205.7 -5.8,-37.9 113.4,-86.4 207.1,-109 l 28.9,23.3 c 5.1,4.2 11.8,5.8 18.3,4.5 l 29.1,-5.9 c 2.2,-0.4 4.2,-0.5 5.5,0 4.3,1.4 7,5.1 7,9.3 -0.5,80.2 4.7,229.2 43.2,346.7 -29,27.1 -126.6,104.3 -274.6,79 z m 148.1,-503 c -1.6,0 -3.2,0.2 -4.8,0.6 -44.6,10 -266.2,65 -251.4,161.2 8.6,56.4 31.7,155.3 44.6,209.3 6.9,28.7 11.9,58.2 14.8,87.7 l 6.4,64.8 c 0.9,9.6 7.9,17.4 17.3,19.5 209.8,45.3 336.1,-92.6 341.4,-98.5 5.4,-6 7,-14.5 4.3,-22.1 -41.9,-117.3 -45.5,-280.3 -45.2,-344.9 0.2,-23.4 -14.7,-44.1 -37,-51.5 -8.7,-2.9 -18.6,-3.4 -28.4,-1.4 l -18.9,3.9 -29.2,-23.7 c -4,-3.2 -8.9,-4.9 -13.9,-4.9"
         style="fill:#000000;fill-opacity:1;fill-rule:nonzero;stroke:none"
         id="path320" /><path
         d="m 11994.6,21082.2 c 0,0 15.5,155.9 -56.9,147.4 -72.3,-8.4 -85.1,-180.4 56.9,-147.4"
         style="fill:#ffffff;fill-opacity:1;fill-rule:nonzero;stroke:none"
         id="path322" /><path
         d="m 17514.9,13300.6 c 132,34.2 265.2,31.1 400.7,-41 108.2,-97.9 69.3,-206 -16.2,-198.1 -135.5,98.3 -267.4,107.5 -396.7,54.4 l 12.2,184.7"
         style="fill:#000000;fill-opacity:1;fill-rule:nonzero;stroke:none"
         id="path324" /><path
         d="m 17498.7,12338.5 c 132,34.2 265.2,31.1 400.7,-41.1 108.2,-97.8 69.2,-205.9 -16.3,-198 -135.5,98.2 -267.3,107.4 -396.7,54.3 l 12.3,184.8"
         style="fill:#000000;fill-opacity:1;fill-rule:nonzero;stroke:none"
         id="path326" /><path
         d="m 16073.3,13586.2 c -104.5,87.6 -226.1,142.2 -379.4,135.3 -139.8,-41.8 -151.2,-156.1 -70.6,-185.8 164.6,30.4 287.6,-18 381.6,-121.5 l 68.4,172"
         style="fill:#000000;fill-opacity:1;fill-rule:nonzero;stroke:none"
         id="path328" /><path
         d="m 15674.2,12710.6 c -104.5,87.6 -226.1,142.2 -379.5,135.3 -139.7,-41.8 -151.1,-156.1 -70.5,-185.8 164.6,30.4 287.6,-18 381.5,-121.5 l 68.5,172"
         style="fill:#000000;fill-opacity:1;fill-rule:nonzero;stroke:none"
         id="path330" /><path
         d="m 17547.5,12568.6 c -198.3,-877.6 -760.2,-1498.3 -1255.1,-1386.4 -494.8,111.8 -735.2,913.9 -536.9,1791.4 198.4,877.5 737.6,1201.5 1232.4,1089.7 494.9,-111.8 758,-617.2 559.6,-1494.7"
         style="fill:#000000;fill-opacity:1;fill-rule:nonzero;stroke:none"
         id="path332" /><path
         d="m 17547.5,12568.6 c -198.3,-877.6 -760.2,-1498.3 -1255.1,-1386.4 -494.8,111.8 -735.2,913.9 -536.9,1791.4 198.4,877.5 737.6,1201.5 1232.4,1089.7 494.9,-111.8 758,-617.2 559.6,-1494.7"
         style="fill:#000000;fill-opacity:1;fill-rule:nonzero;stroke:none"
         id="path334" /><path
         d="m 16087.6,13678.5 c 301.9,109 607,127.5 916.3,26.6 -331.4,-874.8 -510.2,-2067.5 -1080.8,-2444 -37.9,-25 -89.3,-5 -98.2,39.5 -166.2,840.4 -148.8,1646.2 262.7,2377.9"
         style="fill:#ffffff;fill-opacity:1;fill-rule:nonzero;stroke:none"
         id="path336" /><path
         d="m 16102.8,13660.5 c -363.8,-651.3 -445.2,-1400.1 -256.2,-2355.6 2.6,-13.4 11.4,-24.1 24,-29.3 13.2,-5.5 28.2,-4 40.4,3.9 403.9,266.6 614,968.1 817.1,1646.5 77.3,258.1 157.2,524.8 247,765.1 -283.4,87.4 -569.1,77.3 -872.3,-30.6 z M 15887,11228.1 c -11.3,0 -22.7,2.2 -33.4,6.7 -26.1,10.9 -44.9,33.9 -50.3,61.5 -191.9,969.9 -107.7,1730.4 265,2393.1 2.6,4.6 6.8,8.1 11.7,9.9 319.2,115.2 632.3,124.2 930.8,26.8 5.7,-1.8 10.4,-6 13,-11.4 2.6,-5.5 2.9,-11.7 0.8,-17.4 -92.6,-244.4 -174.7,-518.7 -254.2,-784 -205.4,-685.9 -417.8,-1395.2 -835.1,-1670.6 -14.6,-9.7 -31.4,-14.6 -48.3,-14.6"
         style="fill:#000000;fill-opacity:1;fill-rule:nonzero;stroke:none"
         id="path338" /><path
         d="m 17486.7,13399.7 c -235.4,218.3 -509,354.6 -833.1,382.6 -36.9,-934.8 -338.4,-2102.6 39.7,-2672.1 25.1,-37.8 80.3,-39.5 105.8,-2 481.5,708.6 780.4,1457.1 687.6,2291.5"
         style="fill:#ffffff;fill-opacity:1;fill-rule:nonzero;stroke:none"
         id="path340" /><path
         d="m 16674.7,13758.1 c -11.3,-256.3 -42,-533 -71.7,-800.8 -78.2,-703.9 -159,-1431.6 108.7,-1834.9 8,-12.1 21.3,-19.3 35.6,-19.4 0.1,0 0.2,0 0.2,0 13.6,0 25.7,6.4 33.3,17.6 547.4,805.7 765.2,1526.7 684.9,2268.4 -237.1,217.9 -496.1,338.8 -791,369.1 z m 72.8,-2699.3 c -0.1,0 -0.3,0 -0.4,0 -29,0.2 -56,14.8 -72.2,39.2 -276.6,416.6 -194.8,1152.5 -115.8,1864.1 30.5,275.2 62.1,559.8 72.4,821 0.3,6.1 3,11.7 7.5,15.7 4.5,4 10.5,5.9 16.5,5.5 312.8,-27.1 597.5,-157.7 846.2,-388.5 3.9,-3.6 6.4,-8.4 7,-13.7 84,-755.7 -135.7,-1488.5 -691.3,-2306.3 -15.8,-23.2 -41.9,-37 -69.9,-37"
         style="fill:#000000;fill-opacity:1;fill-rule:nonzero;stroke:none"
         id="path342" /><path
         d="m 17574.2,13407.3 c -198.9,124.6 -409.7,202 -635.1,221.8 -264.6,125.7 -544,154.2 -834.8,107 -539.3,-643.3 -704.9,-1432.1 -696.5,-2288.8 0.5,-45.4 47.4,-74.5 89.3,-56.9 511.3,214.9 868.2,1005.6 1244.9,1722.9 70.8,-816.4 88.2,-1701.6 481.2,-2103.4 31.8,-32.5 86.3,-23.9 104.3,17.8 340.4,786.2 494,1577.4 246.7,2379.6"
         style="fill:#ffffff;fill-opacity:1;fill-rule:nonzero;stroke:none"
         id="path344" /><path
         d="m 16741.9,13135.3 c 1.5,0 2.9,-0.1 4.4,-0.4 9.6,-1.9 16.8,-10 17.6,-19.7 8.9,-101.9 16.9,-204.8 24.9,-307.7 55,-706.1 111.8,-1436.2 450.2,-1782.2 10.2,-10.4 24.6,-15 38.7,-12.4 13.4,2.5 24.2,11.1 29.6,23.6 386.9,893.8 465.9,1642.8 248.2,2356.4 -199.4,123.6 -407.4,195.7 -618.4,214.3 -2.6,0.2 -5.1,0.9 -7.5,2 -249.6,118.5 -515.7,153.3 -813.7,106.4 -477.6,-573.1 -695.6,-1294.1 -686,-2268.1 0.1,-13.6 6.8,-25.7 18.2,-33.2 11.9,-7.9 27.1,-9.2 40.4,-3.5 446.2,187.5 782,838.3 1106.7,1467.7 42.3,82 84.6,164 127.2,245 3.9,7.4 11.5,11.8 19.5,11.8 z m 528,-2167.3 c -23.2,0 -45.8,9.4 -62.5,26.4 -349.6,357.5 -407.1,1095.7 -462.6,1809.7 -6,77.3 -12.1,154.7 -18.5,231.7 -30.6,-59 -61.2,-118.3 -91.8,-177.5 -328.4,-636.4 -667.9,-1294.5 -1128.9,-1488.3 -26.9,-11.3 -57.5,-8.6 -81.8,7.4 -23.5,15.5 -37.8,41.5 -38.1,69.7 -9.7,988.7 213.2,1720.5 701.7,2303.2 3.4,4 8.1,6.7 13.4,7.6 304.5,49.4 588.6,13.4 844.1,-107.1 219.1,-20 434.7,-95.6 641,-224.8 4.5,-2.8 7.9,-7.1 9.4,-12.2 224,-726.6 145.3,-1487.6 -247.5,-2394.9 -11.2,-25.8 -34.4,-44.3 -62.1,-49.5 -5.3,-0.9 -10.5,-1.4 -15.8,-1.4"
         style="fill:#000000;fill-opacity:1;fill-rule:nonzero;stroke:none"
         id="path346" /><path
         d="m 17599.3,13329.4 c -57.8,413 -283.7,659.8 -611.4,733.9 -334.8,75.7 -689.8,-48.6 -945.9,-408.4 466.3,158.1 1232.9,-105 1557.3,-325.5"
         style="fill:#000000;fill-opacity:1;fill-rule:nonzero;stroke:none"
         id="path348" /><path
         d="m 16837.3,14049.6 c -3.2,0 -6.4,0.7 -9.4,2.2 -11,5.2 -15.8,18.3 -10.6,29.3 65.5,138.9 99.5,359.5 27.9,539.6 -41.4,103.8 -111,175.5 -206.9,213 -109.2,42.7 -242.7,13.6 -310.4,-67.6 -34.2,-40.9 -47.6,-102.5 -32.6,-149.8 7.9,-25 27.2,-57.4 74.4,-70.1 11.8,-3.2 18.8,-15.3 15.6,-27 -3.2,-11.8 -15.3,-18.8 -27.1,-15.6 -51.8,13.9 -89.2,49.2 -105,99.4 -19.6,61.8 -3.2,138.8 40.8,191.4 80.6,96.7 232.2,130.5 360.4,80.4 106.3,-41.5 186.4,-123.7 231.8,-237.8 76.6,-192.3 40.6,-427.2 -28.9,-574.7 -3.8,-8 -11.7,-12.7 -20,-12.7"
         style="fill:#000000;fill-opacity:1;fill-rule:nonzero;stroke:none"
         id="path350" /><path
         d="m 17111.7,13807.5 c -1.6,0 -3.3,0.1 -4.9,0.5 -11.9,2.8 -19.3,14.6 -16.6,26.5 41.1,179.6 93.5,327.5 169.8,479.7 136.1,271.4 295.9,379.6 488.8,330.7 93.9,-23.9 156.9,-83 177.6,-166.6 22.1,-89.6 -9.8,-191.9 -79.5,-254.6 -62.7,-56.4 -143.2,-70.8 -226.6,-40.6 -11.5,4.2 -17.4,16.8 -13.2,28.3 4.1,11.4 16.8,17.4 28.3,13.2 67.3,-24.4 131.9,-13.1 182,31.9 56.9,51.3 84.1,138.1 66.1,211.2 -16.5,67 -68.2,114.7 -145.6,134.4 -169.6,42.9 -313,-57.6 -438.4,-307.7 -74.7,-148.9 -125.9,-293.8 -166.3,-469.8 -2.3,-10.2 -11.4,-17.1 -21.5,-17.1"
         style="fill:#000000;fill-opacity:1;fill-rule:nonzero;stroke:none"
         id="path352" /></g></g></svg>
