<svg version="1.1" id="illustration-hp-01" xmlns="http://www.w3.org/2000/svg" xmlns:xlink="http://www.w3.org/1999/xlink" x="0px" y="0px" viewBox="0 0 1272 1272" enable-background="new 0 0 1272 1272" xml:space="preserve" width="1410"  height="1410" >
	 <!-- <defs>
		 <filter id="glow">
			 <fegaussianblur class="blur" result="coloredBlur" stddeviation="4"></fegaussianblur>
			 <femerge>
				 <femergenode in="coloredBlur"></femergenode>
				 <femergenode in="coloredBlur"></femergenode>
				 <femergenode in="SourceGraphic"></femergenode>
			 </femerge>
		 </filter>
	 </defs> -->
	 <g>
		<circle fill="none" stroke="#88FAFF" stroke-miterlimit="10" cx="637.7" cy="633" r="3" class=""></circle>
		<circle fill="none" stroke="#88FAFF" stroke-miterlimit="10" cx="638.5" cy="633.2" r="3.2" class=""></circle>
		<circle fill="none" stroke="#88FAFF" stroke-miterlimit="10" cx="639.3" cy="633.4" r="3.3" class=""></circle>
		<circle fill="none" stroke="#88FAFF" stroke-miterlimit="10" cx="640.1" cy="633.8" r="3.5" class=""></circle>
		<circle fill="none" stroke="#88FAFF" stroke-miterlimit="10" cx="640.9" cy="634.4" r="3.7" class=""></circle>
		<circle fill="none" stroke="#88FAFF" stroke-miterlimit="10" cx="641.5" cy="635.2" r="3.9" class=""></circle>
		<circle fill="none" stroke="#88FAFF" stroke-miterlimit="10" cx="642.1" cy="636.1" r="4.1" class=""></circle>
		<circle fill="none" stroke="#88FAFF" stroke-miterlimit="10" cx="642.5" cy="637.1" r="4.3" class=""></circle>
		<circle fill="none" stroke="#88FAFF" stroke-miterlimit="10" cx="642.7" cy="638.3" r="4.5" class=""></circle>
		<circle fill="none" stroke="#88FAFF" stroke-miterlimit="10" cx="642.7" cy="639.5" r="4.8" class=""></circle>
		<circle fill="none" stroke="#88FAFF" stroke-miterlimit="10" cx="642.5" cy="640.8" r="5" class=""></circle>
		<circle fill="none" stroke="#88FAFF" stroke-miterlimit="10" cx="642" cy="642" r="5.3" class=""></circle>
		<circle fill="none" stroke="#88FAFF" stroke-miterlimit="10" cx="641.3" cy="643.3" r="5.6" class=""></circle>
		<circle fill="none" stroke="#88FAFF" stroke-miterlimit="10" cx="640.3" cy="644.4" r="5.9" class=""></circle>
		<circle fill="none" stroke="#88FAFF" stroke-miterlimit="10" cx="639" cy="645.4" r="6.2" class=""></circle>
		<circle fill="none" stroke="#88FAFF" stroke-miterlimit="10" cx="637.6" cy="646.2" r="6.5" class=""></circle>
		<circle fill="none" stroke="#88FAFF" stroke-miterlimit="10" cx="635.9" cy="646.8" r="6.8" class=""></circle>
		<circle fill="none" stroke="#88FAFF" stroke-miterlimit="10" cx="634.1" cy="647" r="7.2" class=""></circle>
		<circle fill="none" stroke="#88FAFF" stroke-miterlimit="10" cx="632.1" cy="646.9" r="7.6" class=""></circle>
		<circle fill="none" stroke="#88FAFF" stroke-miterlimit="10" cx="630.1" cy="646.5" r="8" class=""></circle>
		<circle fill="none" stroke="#88FAFF" stroke-miterlimit="10" cx="628.1" cy="645.6" r="8.4" class=""></circle>
		<circle fill="none" stroke="#88FAFF" stroke-miterlimit="10" cx="626.2" cy="644.4" r="8.8" class=""></circle>
		<circle fill="none" stroke="#88FAFF" stroke-miterlimit="10" cx="624.5" cy="642.7" r="9.3" class=""></circle>
		<circle fill="none" stroke="#88FAFF" stroke-miterlimit="10" cx="623" cy="640.7" r="9.8" class=""></circle>
		<circle fill="none" stroke="#88FAFF" stroke-miterlimit="10" cx="621.8" cy="638.3" r="10.3" class=""></circle>
		<circle fill="none" stroke="#88FAFF" stroke-miterlimit="10" cx="621.1" cy="635.6" r="10.8" class=""></circle>
		<circle fill="none" stroke="#88FAFF" stroke-miterlimit="10" cx="620.8" cy="632.7" r="11.4" class=""></circle>
		<circle fill="none" stroke="#88FAFF" stroke-miterlimit="10" cx="621.1" cy="629.6" r="12" class=""></circle>
		<circle fill="none" stroke="#88FAFF" stroke-miterlimit="10" cx="622" cy="626.5" r="12.6" class=""></circle>
		<circle fill="none" stroke="#88FAFF" stroke-miterlimit="10" cx="623.4" cy="623.4" r="13.3" class=""></circle>
		<circle fill="none" stroke="#88FAFF" stroke-miterlimit="10" cx="625.6" cy="620.5" r="14" class=""></circle>
		<circle fill="none" stroke="#88FAFF" stroke-miterlimit="10" cx="628.3" cy="617.8" r="14.7" class=""></circle>
		<circle fill="none" stroke="#88FAFF" stroke-miterlimit="10" cx="631.6" cy="615.6" r="15.5" class=""></circle>
		<circle fill="none" stroke="#88FAFF" stroke-miterlimit="10" cx="635.5" cy="614" r="16.3" class=""></circle>
		<circle fill="none" stroke="#88FAFF" stroke-miterlimit="10" cx="639.8" cy="613" r="17.2" class=""></circle>
		<circle fill="none" stroke="#88FAFF" stroke-miterlimit="10" cx="644.5" cy="612.8" r="18.1" class=""></circle>
		<circle fill="none" stroke="#88FAFF" stroke-miterlimit="10" cx="649.4" cy="613.4" r="19" class=""></circle>
		<circle fill="none" stroke="#88FAFF" stroke-miterlimit="10" cx="654.3" cy="615" r="20" class=""></circle>
		<circle fill="none" stroke="#88FAFF" stroke-miterlimit="10" cx="659.1" cy="617.6" r="21.1" class=""></circle>
		<circle fill="none" stroke="#88FAFF" stroke-miterlimit="10" cx="663.5" cy="621.2" r="22.2" class=""></circle>
		<circle fill="none" stroke="#88FAFF" stroke-miterlimit="10" cx="667.5" cy="625.8" r="23.4" class=""></circle>
		<circle fill="none" stroke="#88FAFF" stroke-miterlimit="10" cx="670.8" cy="631.2" r="24.6" class=""></circle>
		<circle fill="none" stroke="#88FAFF" stroke-miterlimit="10" cx="673.1" cy="637.5" r="25.9" class=""></circle>
		<circle fill="none" stroke="#88FAFF" stroke-miterlimit="10" cx="674.3" cy="644.4" r="27.3" class=""></circle>
		<circle fill="none" stroke="#88FAFF" stroke-miterlimit="10" cx="674.3" cy="651.8" r="28.7" class=""></circle>
		<circle fill="none" stroke="#88FAFF" stroke-miterlimit="10" cx="672.9" cy="659.5" r="30.2" class=""></circle>
		<circle fill="none" stroke="#88FAFF" stroke-miterlimit="10" cx="670" cy="667.2" r="31.8" class=""></circle>
		<circle fill="none" stroke="#88FAFF" stroke-miterlimit="10" cx="665.5" cy="674.5" r="33.5" class=""></circle>
		<circle fill="none" stroke="#88FAFF" stroke-miterlimit="10" cx="659.5" cy="681.4" r="35.2" class=""></circle>
		<circle fill="none" stroke="#88FAFF" stroke-miterlimit="10" cx="652" cy="687.3" r="37.1" class=""></circle>
		<circle fill="none" stroke="#88FAFF" stroke-miterlimit="10" cx="643.1" cy="692" r="39" class=""></circle>
		<circle fill="none" stroke="#88FAFF" stroke-miterlimit="10" cx="633" cy="695.3" r="41.1" class=""></circle>
		<circle fill="none" stroke="#88FAFF" stroke-miterlimit="10" cx="621.9" cy="696.7" r="43.3" class=""></circle>
		<circle fill="none" stroke="#88FAFF" stroke-miterlimit="10" cx="610.2" cy="696.1" r="45.5" class=""></circle>
		<circle fill="none" stroke="#88FAFF" stroke-miterlimit="10" cx="598.2" cy="693.3" r="47.9" class=""></circle>
		<circle fill="none" stroke="#88FAFF" stroke-miterlimit="10" cx="586.2" cy="688.1" r="50.5" class=""></circle>
		<circle fill="none" stroke="#88FAFF" stroke-miterlimit="10" cx="574.8" cy="680.5" r="53.1" class=""></circle>
		<circle fill="none" stroke="#88FAFF" stroke-miterlimit="10" cx="564.5" cy="670.5" r="55.9" class=""></circle>
		<circle fill="none" stroke="#88FAFF" stroke-miterlimit="10" cx="555.6" cy="658.1" r="58.8" class=""></circle>
		<circle fill="none" stroke="#88FAFF" stroke-miterlimit="10" cx="548.8" cy="643.7" r="61.9" class=""></circle>
		<circle fill="none" stroke="#88FAFF" stroke-miterlimit="10" cx="544.4" cy="627.4" r="65.2" class="prev-active-4"></circle>
		<circle fill="none" stroke="#88FAFF" stroke-miterlimit="10" cx="543" cy="609.8" r="68.6" class="prev-active-3"></circle>
		<circle fill="none" stroke="#88FAFF" stroke-miterlimit="10" cx="544.8" cy="591.2" r="72.3" class="prev-active-2"></circle>
		<circle fill="none" stroke="#88FAFF" stroke-miterlimit="10" cx="550.1" cy="572.4" r="76.1" class="prev-active-1"></circle>
		<circle fill="none" stroke="#88FAFF" stroke-miterlimit="10" cx="559.2" cy="553.8" r="80.1" class="active"></circle>
		<circle fill="none" stroke="#88FAFF" stroke-miterlimit="10" cx="572.2" cy="536.3" r="84.3" class=""></circle>
		<circle fill="none" stroke="#88FAFF" stroke-miterlimit="10" cx="588.8" cy="520.7" r="88.7" class=""></circle>
		<circle fill="none" stroke="#88FAFF" stroke-miterlimit="10" cx="609.1" cy="507.6" r="93.4" class=""></circle>
		<circle fill="none" stroke="#88FAFF" stroke-miterlimit="10" cx="632.5" cy="497.8" r="98.3" class=""></circle>
		<circle fill="none" stroke="#88FAFF" stroke-miterlimit="10" cx="658.6" cy="492.1" r="103.5" class=""></circle>
		<circle fill="none" stroke="#88FAFF" stroke-miterlimit="10" cx="686.6" cy="491.1" r="108.9" class=""></circle>
		<circle fill="none" stroke="#88FAFF" stroke-miterlimit="10" cx="715.9" cy="495.4" r="114.6" class=""></circle>
		<circle fill="none" stroke="#88FAFF" stroke-miterlimit="10" cx="745.4" cy="505.3" r="120.7" class=""></circle>
		<circle fill="none" stroke="#88FAFF" stroke-miterlimit="10" cx="774.1" cy="521.1" r="127" class=""></circle>
		<circle fill="none" stroke="#88FAFF" stroke-miterlimit="10" cx="800.9" cy="542.9" r="133.7" class=""></circle>
		<circle fill="none" stroke="#88FAFF" stroke-miterlimit="10" cx="824.5" cy="570.5" r="140.7" class=""></circle>
		<circle fill="none" stroke="#88FAFF" stroke-miterlimit="10" cx="843.7" cy="603.5" r="148.2" class=""></circle>
		<circle fill="none" stroke="#88FAFF" stroke-miterlimit="10" cx="857.4" cy="641.3" r="156" class=""></circle>
		<circle fill="none" stroke="#88FAFF" stroke-miterlimit="10" cx="864.5" cy="683.1" r="164.2" class=""></circle>
		<circle fill="none" stroke="#88FAFF" stroke-miterlimit="10" cx="864" cy="727.7" r="172.8" class=""></circle>
		<circle fill="none" stroke="#88FAFF" stroke-miterlimit="10" cx="855.1" cy="773.8" r="181.9" class=""></circle>
		<circle fill="none" stroke="#88FAFF" stroke-miterlimit="10" cx="837.1" cy="819.8" r="191.5" class=""></circle>
		<circle fill="none" stroke="#88FAFF" stroke-miterlimit="10" cx="809.9" cy="864.1" r="201.5" class=""></circle>
		<circle fill="none" stroke="#88FAFF" stroke-miterlimit="10" cx="773.4" cy="904.9" r="212.2" class=""></circle>
		<circle fill="none" stroke="#88FAFF" stroke-miterlimit="10" cx="727.9" cy="940.2" r="223.3" class=""></circle>
		<circle fill="none" stroke="#88FAFF" stroke-miterlimit="10" cx="674.1" cy="968.2" r="235.1" class=""></circle>
		<circle fill="none" stroke="#88FAFF" stroke-miterlimit="10" cx="613.1" cy="987.1" r="247.4" class=""></circle>
		<circle fill="none" stroke="#88FAFF" stroke-miterlimit="10" cx="546.4" cy="995.3" r="260.5" class=""></circle>
		<circle fill="none" stroke="#88FAFF" stroke-miterlimit="10" cx="475.8" cy="991.1" r="274.2" class=""></circle>
		<circle fill="none" stroke="#88FAFF" stroke-miterlimit="10" cx="403.4" cy="973.5" r="288.6" class=""></circle>
		<circle fill="none" stroke="#88FAFF" stroke-miterlimit="10" cx="331.8" cy="941.7" r="303.8" class=""></circle>
	</g>
</svg>