<?xml version="1.0" standalone="no"?>
<!DOCTYPE svg PUBLIC "-//W3C//DTD SVG 20010904//EN"
 "http://www.w3.org/TR/2001/REC-SVG-20010904/DTD/svg10.dtd">
<svg version="1.0" xmlns="http://www.w3.org/2000/svg"
 viewBox="0 0 512.000000 512.000000"
 preserveAspectRatio="xMidYMid meet">

<g transform="translate(0.000000,512.000000) scale(0.100000,-0.100000)"
fill="currentColor" stroke="none">
<path d="M2300 4990 c-530 -94 -981 -479 -1150 -982 -22 -65 -23 -67 -51 -61
-45 9 -226 -16 -314 -44 -407 -128 -674 -491 -675 -915 0 -433 270 -793 695
-925 l90 -28 1590 0 1590 0 98 27 c113 31 257 97 348 159 90 61 228 197 289
285 70 101 136 244 167 361 34 130 42 336 19 470 -75 433 -400 785 -824 894
-42 11 -132 25 -199 31 l-122 12 -55 81 c-230 339 -583 567 -984 636 -149 25
-366 25 -512 -1z"/>
<path d="M1710 1545 l0 -265 -119 0 -119 0 -13 33 c-20 48 -87 115 -144 145
-36 18 -70 26 -125 30 -138 8 -242 -53 -302 -176 -65 -132 -37 -277 73 -376
125 -112 321 -106 438 14 22 23 48 59 58 81 l17 39 182 0 c110 0 193 4 207 11
55 25 57 38 57 398 l0 331 -105 0 -105 0 0 -265z"/>
<path d="M2450 1266 l0 -544 -24 -6 c-40 -10 -123 -93 -153 -154 -37 -75 -40
-191 -6 -263 75 -164 268 -236 428 -161 68 33 127 92 158 161 34 72 31 188 -6
263 -30 61 -113 144 -153 154 l-24 6 0 544 0 544 -110 0 -110 0 0 -544z"/>
<path d="M3200 1479 c0 -360 2 -373 57 -398 14 -7 97 -11 207 -11 l182 0 17
-39 c9 -21 36 -57 59 -80 203 -201 541 -61 541 224 0 231 -241 385 -448 286
-65 -30 -132 -96 -154 -148 l-13 -33 -119 0 -119 0 0 265 0 265 -105 0 -105 0
0 -331z"/>
</g>
</svg>
