<?xml version="1.0" standalone="no"?>
<!DOCTYPE svg PUBLIC "-//W3C//DTD SVG 20010904//EN"
 "http://www.w3.org/TR/2001/REC-SVG-20010904/DTD/svg10.dtd">
<svg version="1.0" xmlns="http://www.w3.org/2000/svg"
 viewBox="0 0 512.000000 512.000000"
 preserveAspectRatio="xMidYMid meet">

<g transform="translate(0.000000,512.000000) scale(0.100000,-0.100000)"
fill="currentColor" stroke="none">
<path d="M361 4949 c-172 -34 -318 -182 -351 -358 -6 -35 -10 -508 -10 -1342
l0 -1289 455 0 455 0 0 240 c0 222 2 244 20 280 34 66 75 80 230 80 l130 0 25
56 c14 31 25 62 25 68 0 6 -39 50 -86 96 -47 47 -92 97 -100 112 -17 32 -18
85 -4 125 14 37 456 481 497 499 42 18 97 18 131 0 15 -8 65 -53 112 -100 46
-47 90 -86 96 -86 6 0 37 11 68 25 l56 25 0 130 c0 155 14 196 80 230 37 19
58 20 370 20 312 0 333 -1 370 -20 66 -34 80 -75 80 -230 l0 -130 56 -25 c31
-14 62 -25 68 -25 6 0 50 39 96 86 47 47 97 92 112 100 34 18 89 18 131 0 41
-18 483 -462 497 -499 14 -40 13 -93 -4 -125 -8 -15 -53 -65 -100 -112 -47
-46 -86 -90 -86 -96 0 -6 11 -37 25 -68 l25 -56 130 0 c155 0 196 -14 230 -80
18 -36 20 -58 20 -280 l0 -240 455 0 455 0 0 1289 c0 818 -4 1308 -10 1342
-22 119 -109 238 -220 303 -114 66 78 61 -2310 62 -1199 1 -2195 -2 -2219 -7z
m3780 -599 c235 -45 399 -275 361 -506 -32 -196 -180 -344 -376 -376 -289 -48
-556 219 -508 508 42 252 277 420 523 374z"/>
<path d="M3988 4039 c-43 -22 -78 -81 -78 -129 0 -50 35 -107 80 -130 21 -11
53 -20 70 -20 50 0 107 35 130 80 11 21 20 53 20 70 0 50 -35 107 -80 130 -49
25 -94 25 -142 -1z"/>
<path d="M2410 3355 c0 -166 -20 -200 -144 -241 -44 -15 -127 -49 -183 -75
-148 -71 -168 -68 -288 52 l-80 79 -108 -108 -107 -107 76 -75 c77 -76 104
-119 104 -165 0 -14 -22 -72 -49 -128 -26 -56 -60 -139 -75 -183 -41 -124 -75
-144 -241 -144 l-105 0 0 -150 0 -150 310 0 310 0 -7 43 c-12 65 -8 216 7 277
65 271 286 492 560 561 31 8 105 14 170 14 123 0 188 -12 285 -53 219 -93 390
-293 445 -522 15 -61 19 -212 7 -277 l-7 -43 310 0 310 0 0 150 0 150 -105 0
c-166 0 -200 20 -241 144 -15 44 -49 127 -75 183 -27 56 -49 114 -49 128 0 46
27 89 104 165 l76 75 -107 107 -108 108 -80 -79 c-120 -120 -140 -123 -288
-52 -56 26 -139 60 -183 75 -124 41 -144 75 -144 241 l0 105 -150 0 -150 0 0
-105z"/>
<path d="M2471 2549 c-233 -46 -399 -293 -350 -519 l14 -65 425 0 425 0 14 65
c40 185 -67 399 -241 480 -99 46 -188 59 -287 39z"/>
<path d="M0 1571 c0 -48 5 -112 10 -142 34 -180 180 -326 361 -359 36 -7 781
-9 2219 -8 2376 3 2186 -2 2300 64 111 65 198 184 220 303 5 29 10 94 10 142
l0 89 -2560 0 -2560 0 0 -89z"/>
<path d="M1603 613 l-50 -148 -269 -5 c-232 -4 -273 -7 -301 -23 -38 -20 -73
-82 -73 -127 0 -50 35 -107 80 -130 39 -20 56 -20 1570 -20 1514 0 1531 0
1570 20 45 23 80 80 80 130 0 45 -35 107 -73 127 -28 16 -69 19 -301 23 l-269
5 -50 148 -49 147 -908 0 -908 0 -49 -147z"/>
</g>
</svg>
