<?xml version="1.0" standalone="no"?>
<!DOCTYPE svg PUBLIC "-//W3C//DTD SVG 20010904//EN"
 "http://www.w3.org/TR/2001/REC-SVG-20010904/DTD/svg10.dtd">
<svg version="1.0" xmlns="http://www.w3.org/2000/svg"
 viewBox="0 0 512.000000 512.000000"
 preserveAspectRatio="xMidYMid meet">

<g transform="translate(0.000000,512.000000) scale(0.100000,-0.100000)"
fill="currentColor" stroke="none">
<path d="M1200 4947 c-49 -16 -133 -102 -148 -153 -17 -60 -17 -2008 0 -2068
16 -55 99 -138 154 -154 30 -9 165 -12 482 -12 l440 0 -52 -157 -53 -158 -91
-3 -92 -3 0 -79 0 -80 720 0 720 0 0 80 0 79 -92 3 -91 3 -53 158 -52 157 442
0 c510 0 507 0 579 80 24 26 49 66 55 88 17 57 17 2007 0 2064 -6 22 -31 62
-55 88 -78 86 37 80 -1457 79 -933 -1 -1331 -4 -1356 -12z m2695 -172 l25 -24
0 -856 0 -855 -1360 0 -1360 0 0 855 0 856 25 24 24 25 1311 0 1311 0 24 -25z
m25 -1950 c0 -46 -4 -60 -25 -80 l-24 -25 -1311 0 -1311 0 -24 25 c-21 20 -25
34 -25 80 l0 55 1360 0 1360 0 0 -55z m-1044 -427 l52 -158 -368 0 -369 0 50
148 c27 81 51 153 54 160 3 10 62 12 266 10 l262 -3 53 -157z"/>
<path d="M2394 4563 c-21 -96 -28 -111 -59 -119 -19 -5 -43 5 -101 41 l-76 48
-105 -105 -105 -105 47 -77 c35 -57 45 -83 41 -101 -8 -31 -23 -39 -118 -60
l-78 -17 0 -148 0 -148 78 -17 c95 -21 110 -29 118 -60 4 -18 -6 -44 -41 -101
l-47 -77 105 -105 105 -105 76 48 c58 36 82 46 101 41 31 -8 38 -23 59 -118
l17 -78 149 0 149 0 17 78 c21 95 28 110 59 118 18 4 44 -6 101 -41 l77 -47
104 105 105 104 -46 75 c-25 42 -46 82 -46 90 0 32 28 49 113 69 l87 21 0 148
0 148 -87 21 c-85 20 -113 37 -113 69 0 8 21 48 46 90 l46 75 -105 104 -104
105 -77 -47 c-57 -35 -83 -45 -101 -41 -31 8 -38 23 -59 119 l-17 77 -149 0
-149 0 -17 -77z m195 -121 c6 -21 14 -52 17 -69 6 -28 15 -35 105 -72 55 -23
103 -41 107 -41 4 0 34 16 66 36 51 30 61 33 73 21 12 -12 9 -22 -21 -73 -20
-32 -36 -62 -36 -66 0 -4 18 -52 41 -107 37 -90 44 -99 72 -105 83 -17 107
-27 107 -46 0 -19 -24 -29 -107 -46 -28 -6 -35 -15 -72 -105 -23 -55 -41 -103
-41 -107 0 -4 16 -34 36 -66 30 -51 33 -61 21 -73 -12 -12 -22 -9 -73 21 -32
20 -62 36 -66 36 -4 0 -52 -18 -107 -41 -90 -37 -99 -44 -105 -72 -17 -83 -27
-107 -46 -107 -19 0 -29 24 -46 107 -6 29 -15 35 -104 72 -55 23 -102 41 -107
41 -4 0 -34 -16 -66 -36 -53 -33 -60 -35 -74 -21 -14 14 -12 21 21 74 20 32
36 62 36 66 0 3 -18 51 -41 106 -37 90 -44 99 -72 105 -83 17 -107 27 -107 46
0 19 24 29 107 46 28 6 35 15 72 105 23 55 41 103 41 106 0 4 -16 34 -36 66
-33 53 -35 60 -21 74 14 14 21 12 74 -21 32 -20 62 -36 66 -36 5 0 52 18 107
41 89 37 98 43 104 72 17 83 27 107 46 107 14 0 22 -11 29 -38z"/>
<path d="M2480 4147 c-49 -16 -133 -102 -148 -153 -28 -94 -8 -169 63 -239 51
-52 102 -75 165 -75 63 0 114 23 165 75 98 97 101 222 8 325 -65 72 -158 97
-253 67z m135 -172 c16 -15 25 -36 25 -55 0 -19 -9 -40 -25 -55 -49 -50 -135
-15 -135 55 0 41 39 80 80 80 19 0 40 -9 55 -25z"/>
<path d="M1735 4553 c-54 -69 -134 -222 -163 -313 -30 -90 -52 -228 -52 -319
0 -116 34 -306 60 -335 5 -4 32 0 62 9 91 30 87 24 66 107 -43 168 -31 373 32
536 25 66 83 165 145 249 16 20 14 23 -30 65 -71 65 -69 65 -120 1z"/>
<path d="M3277 4553 c-52 -45 -55 -49 -41 -68 8 -11 31 -44 51 -72 l36 -53 56
31 c90 51 89 46 29 129 -29 41 -58 75 -64 77 -6 2 -37 -18 -67 -44z"/>
<path d="M3485 4248 c-16 -6 -44 -16 -61 -23 l-31 -13 19 -73 c64 -253 8 -537
-147 -744 l-45 -59 43 -44 c68 -70 70 -70 120 -6 52 65 129 208 158 291 68
197 75 467 16 638 -15 44 -27 49 -72 33z"/>
<path d="M1727 3439 l-67 -40 17 -30 c10 -17 37 -55 61 -85 48 -61 46 -61 117
4 44 42 46 45 31 65 -9 12 -33 46 -53 75 -20 28 -36 52 -37 52 -1 0 -31 -18
-69 -41z"/>
<path d="M607 4082 l-127 -127 0 -788 c0 -707 -2 -787 -16 -787 -27 0 -119
-101 -132 -146 -28 -94 -8 -169 63 -239 101 -102 229 -102 330 0 71 70 91 145
63 239 -13 45 -105 146 -132 146 -14 0 -16 76 -16 753 l0 752 105 105 c58 58
105 109 105 115 0 13 -92 105 -105 105 -6 0 -68 -57 -138 -128z m8 -1867 c50
-49 15 -135 -55 -135 -41 0 -80 39 -80 80 0 41 39 80 80 80 19 0 40 -9 55 -25z"/>
<path d="M4317 4162 c-26 -26 -47 -52 -47 -58 0 -5 47 -56 105 -114 l105 -105
0 -752 c0 -677 -2 -753 -16 -753 -27 0 -119 -101 -132 -146 -28 -94 -8 -169
63 -239 101 -102 229 -102 330 0 102 102 102 229 -2 333 -28 28 -59 52 -67 52
-14 0 -16 80 -16 788 l0 787 -128 128 c-70 70 -132 127 -138 127 -5 0 -31 -22
-57 -48z m298 -1947 c50 -49 15 -135 -55 -135 -41 0 -80 39 -80 80 0 41 39 80
80 80 19 0 40 -9 55 -25z"/>
<path d="M2720 1907 c-49 -16 -133 -102 -148 -153 -28 -95 -8 -168 65 -241 28
-29 59 -53 67 -53 14 0 16 -31 16 -268 l0 -267 90 -90 90 -90 57 58 58 57 -68
68 -67 68 0 232 c0 204 2 232 16 232 27 0 119 101 132 146 28 94 8 169 -63
239 -70 71 -152 91 -245 62z m135 -172 c50 -49 15 -135 -55 -135 -41 0 -80 39
-80 80 0 41 39 80 80 80 19 0 40 -9 55 -25z"/>
<path d="M2157 1842 c-26 -26 -47 -52 -47 -58 0 -5 29 -39 65 -74 l65 -64 0
-233 c0 -205 -2 -233 -16 -233 -27 0 -119 -101 -132 -146 -28 -94 -8 -169 63
-239 101 -102 229 -102 330 0 71 70 91 145 63 239 -13 45 -105 146 -132 146
-14 0 -16 31 -16 268 l0 267 -88 88 c-48 48 -92 87 -98 87 -5 0 -31 -22 -57
-48z m218 -827 c50 -49 15 -135 -55 -135 -19 0 -40 9 -55 25 -16 15 -25 36
-25 55 0 19 9 40 25 55 15 16 36 25 55 25 19 0 40 -9 55 -25z"/>
<path d="M480 1747 c-49 -16 -133 -102 -148 -153 -9 -30 -12 -169 -12 -498 l0
-456 -80 0 -80 0 0 -136 c0 -78 5 -154 12 -178 16 -55 99 -138 154 -154 31 -9
233 -12 796 -12 859 0 816 -4 891 80 57 64 67 101 67 264 l0 136 -80 0 -80 0
0 456 c0 324 -3 468 -12 496 -6 22 -31 62 -55 88 -74 83 -50 80 -737 79 -408
-1 -612 -5 -636 -12z m1255 -172 l25 -24 0 -456 0 -455 -640 0 -640 0 0 455 0
456 25 24 24 25 591 0 591 0 24 -25z m185 -1150 c0 -46 -4 -60 -25 -80 l-24
-25 -751 0 -751 0 -24 25 c-21 20 -25 34 -25 80 l0 55 800 0 800 0 0 -55z"/>
<path d="M3360 1747 c-49 -16 -133 -102 -148 -153 -9 -30 -12 -169 -12 -498
l0 -456 -80 0 -80 0 0 -136 c0 -78 5 -154 12 -178 16 -55 99 -138 154 -154 31
-9 233 -12 796 -12 859 0 816 -4 891 80 57 64 67 101 67 264 l0 136 -80 0 -80
0 0 456 c0 324 -3 468 -12 496 -6 22 -31 62 -55 88 -74 83 -50 80 -737 79
-408 -1 -612 -5 -636 -12z m1255 -172 l25 -24 0 -456 0 -455 -640 0 -640 0 0
455 0 456 25 24 24 25 591 0 591 0 24 -25z m185 -1150 c0 -46 -4 -60 -25 -80
l-24 -25 -751 0 -751 0 -24 25 c-21 20 -25 34 -25 80 l0 55 800 0 800 0 0 -55z"/>
</g>
</svg>
