<?xml version="1.0" standalone="no"?>
<!DOCTYPE svg PUBLIC "-//W3C//DTD SVG 20010904//EN"
 "http://www.w3.org/TR/2001/REC-SVG-20010904/DTD/svg10.dtd">
<svg version="1.0" xmlns="http://www.w3.org/2000/svg"
 viewBox="0 0 512.000000 512.000000"
 preserveAspectRatio="xMidYMid meet">

<g transform="translate(0.000000,512.000000) scale(0.100000,-0.100000)"
fill="#000000" stroke="none">
<path d="M185 4935 c-14 -13 -25 -34 -25 -47 0 -12 39 -124 86 -247 l86 -226
-56 -205 c-31 -113 -56 -219 -56 -236 0 -19 9 -38 23 -51 25 -23 1010 -403
1045 -403 13 0 34 11 47 25 48 47 41 62 -170 335 l-194 252 13 31 c112 259
136 319 136 335 0 11 -8 29 -17 41 -23 27 -835 421 -869 421 -14 0 -36 -11
-49 -25z"/>
<path d="M2505 4935 c-24 -23 -25 -31 -25 -135 0 -104 1 -112 25 -135 15 -16
36 -25 55 -25 19 0 40 9 55 25 24 23 25 31 25 135 0 104 -1 112 -25 135 -15
16 -36 25 -55 25 -19 0 -40 -9 -55 -25z"/>
<path d="M4445 4759 c-225 -109 -418 -209 -427 -220 -30 -36 -34 -23 118 -376
l13 -31 -194 -252 c-211 -273 -218 -288 -170 -335 13 -14 34 -25 47 -25 35 0
1020 380 1046 403 13 13 22 32 22 51 0 17 -25 123 -56 236 l-56 205 86 226
c47 123 86 235 86 247 0 32 -43 72 -77 71 -15 0 -212 -90 -438 -200z"/>
<path d="M2072 4807 c-14 -14 -22 -36 -22 -57 0 -29 12 -45 78 -112 89 -89
122 -99 167 -53 46 45 36 78 -53 167 -68 68 -83 78 -113 78 -24 0 -43 -7 -57
-23z"/>
<path d="M2878 4752 c-89 -89 -99 -122 -53 -167 45 -46 78 -36 167 53 68 68
78 83 78 113 0 46 -34 79 -80 79 -29 0 -45 -12 -112 -78z"/>
<path d="M1465 4455 c-31 -30 -32 -73 -4 -109 l20 -26 -20 -26 c-64 -81 32
-177 113 -113 l26 20 26 -20 c36 -28 79 -27 109 4 31 30 32 73 4 109 l-20 26
20 26 c28 36 27 79 -4 109 -30 31 -73 32 -109 4 l-26 -20 -26 20 c-36 28 -79
27 -109 -4z"/>
<path d="M3385 4455 c-31 -30 -32 -73 -4 -109 l20 -26 -20 -26 c-28 -36 -27
-79 4 -109 30 -31 73 -32 109 -4 l26 20 26 -20 c38 -30 87 -28 113 5 12 15 21
39 21 54 0 15 -9 39 -21 54 l-20 26 20 26 c28 36 27 79 -4 109 -30 31 -73 32
-109 4 l-26 -20 -26 20 c-36 28 -79 27 -109 -4z"/>
<path d="M2561 4225 c-67 -19 -97 -40 -194 -134 -87 -84 -118 -126 -140 -192
-12 -36 -20 -45 -45 -50 -44 -9 -115 -53 -147 -91 -33 -39 -54 -86 -64 -142
-6 -40 -8 -41 -54 -48 -113 -16 -209 -113 -226 -227 -6 -44 -8 -46 -46 -52
-124 -22 -210 -104 -235 -224 -11 -51 -12 -53 -51 -59 -86 -14 -166 -72 -207
-150 -27 -51 -29 -77 -21 -233 2 -40 -76 -336 -106 -400 -22 -50 -26 -53 -46
-43 -11 7 -33 9 -47 5 -17 -4 -147 -126 -354 -333 -181 -180 -328 -330 -328
-335 0 -4 304 -311 676 -681 l676 -673 292 344 c160 190 299 359 309 377 14
27 15 39 6 62 -10 27 -8 31 28 62 21 19 109 88 195 153 l157 119 63 -19 c35
-10 110 -30 168 -44 58 -13 128 -35 155 -48 50 -24 50 -24 47 -68 l-4 -43 370
-370 369 -370 299 338 c165 187 436 493 601 681 l302 342 -87 79 c-48 43 -205
183 -350 310 -268 237 -284 248 -331 222 -20 -10 -53 27 -168 186 l-51 72 13
38 c47 130 -28 290 -160 345 l-55 23 0 60 c0 112 -67 212 -171 255 l-54 23 -1
61 c-2 140 -97 251 -235 275 -42 7 -43 8 -53 62 -25 122 -115 206 -236 219
l-55 6 -6 51 c-8 63 -51 145 -98 186 -81 71 -201 100 -300 73z m169 -174 c45
-32 70 -80 70 -133 0 -66 -14 -90 -107 -180 -87 -84 -110 -95 -195 -90 -39 3
-105 65 -119 112 -22 72 -6 105 94 207 53 54 104 97 122 103 40 12 104 4 135
-19z m336 -335 c29 -29 34 -41 34 -81 l0 -48 -155 -157 c-169 -172 -178 -188
-134 -244 15 -19 29 -26 57 -26 33 0 48 12 187 149 91 91 161 152 178 156 64
16 123 -16 147 -79 22 -58 6 -83 -156 -247 -165 -167 -173 -182 -134 -232 24
-30 63 -41 93 -26 12 6 76 65 143 130 110 109 124 119 158 119 112 0 164 -106
97 -196 -16 -21 -86 -95 -155 -164 -107 -106 -126 -129 -126 -156 0 -40 39
-77 81 -77 25 0 49 18 147 115 64 64 127 121 139 127 55 28 130 3 157 -53 20
-42 20 -69 2 -104 -25 -48 -724 -732 -881 -863 -82 -68 -258 -205 -390 -304
-132 -98 -293 -222 -359 -273 l-119 -94 -480 480 -480 480 42 85 c26 53 53
131 73 211 l30 126 48 -44 c26 -24 62 -52 81 -61 50 -27 155 -31 218 -10 68
22 143 96 165 162 l16 48 67 1 c135 1 242 90 268 223 l12 56 45 6 c115 17 202
103 229 229 9 42 14 50 33 50 43 0 115 32 159 71 76 66 112 177 87 269 l-12
44 39 30 c21 17 79 70 130 118 88 85 93 88 138 88 40 0 52 -5 81 -34z m-822
-50 c34 -80 163 -176 239 -176 21 0 31 -7 43 -34 48 -99 -65 -204 -164 -152
-42 22 -220 209 -227 239 -17 66 22 133 92 156 2 1 9 -14 17 -33z m-196 -284
c57 -41 191 -191 200 -224 12 -45 -2 -87 -38 -120 -24 -22 -40 -28 -77 -28
-47 0 -48 1 -165 118 -117 117 -118 118 -118 164 0 107 106 155 198 90z m-310
-266 c15 -8 73 -61 130 -119 100 -102 102 -105 102 -150 0 -85 -80 -145 -155
-117 -42 16 -232 207 -246 247 -14 44 3 94 42 128 35 29 85 33 127 11z m-196
-364 c86 -87 88 -90 88 -137 0 -40 -5 -52 -34 -81 -29 -29 -41 -34 -81 -34
-47 0 -50 2 -139 90 -90 89 -91 90 -91 139 0 39 5 55 25 76 34 36 57 46 105
41 34 -4 51 -16 127 -94z m2390 -422 c31 -41 72 -95 92 -119 l37 -45 -455
-455 c-441 -441 -457 -455 -478 -442 -64 40 -146 73 -244 97 -60 15 -113 31
-117 34 -5 4 31 38 80 75 248 192 448 373 788 714 126 127 232 227 236 223 3
-4 31 -41 61 -82z"/>
</g>
</svg>
