<?xml version="1.0" standalone="no"?>
<!DOCTYPE svg PUBLIC "-//W3C//DTD SVG 20010904//EN"
 "http://www.w3.org/TR/2001/REC-SVG-20010904/DTD/svg10.dtd">
<svg version="1.0" xmlns="http://www.w3.org/2000/svg"
 viewBox="0 0 512.000000 512.000000"
 preserveAspectRatio="xMidYMid meet">

<g transform="translate(0.000000,512.000000) scale(0.100000,-0.100000)"
fill="#000000" stroke="none">
<path d="M1955 4921 l-18 -200 -120 -41 c-66 -22 -171 -65 -233 -95 -63 -30
-117 -55 -120 -55 -4 0 -71 52 -150 115 -79 63 -147 115 -151 115 -11 0 -813
-803 -813 -813 0 -5 50 -70 112 -145 61 -75 115 -142 119 -147 4 -6 -15 -58
-43 -115 -29 -57 -72 -163 -97 -234 l-46 -131 -190 -22 c-105 -12 -193 -22
-197 -22 -5 -1 -8 -261 -8 -579 l0 -578 199 -19 200 -18 41 -120 c22 -66 65
-171 95 -233 30 -63 55 -117 55 -120 0 -4 -52 -71 -115 -150 -63 -79 -115
-147 -115 -151 0 -10 803 -813 813 -813 4 0 73 54 154 120 80 67 149 119 152
118 3 -2 51 -25 106 -52 55 -27 159 -70 230 -95 l130 -46 22 -190 c12 -105 22
-193 22 -197 1 -5 163 -8 361 -8 l360 0 0 305 0 305 318 0 319 0 24 -52 c48
-104 170 -201 294 -234 192 -52 411 50 504 234 88 175 55 378 -84 517 -180
180 -457 178 -635 -4 -30 -31 -66 -80 -79 -109 l-24 -52 -319 0 -318 0 0 149
0 148 -167 6 c-389 14 -676 137 -938 401 -198 200 -313 415 -372 696 -24 118
-24 382 0 500 59 281 174 496 372 696 261 264 549 387 938 401 l167 6 0 148 0
149 318 0 319 0 24 -52 c48 -104 170 -201 294 -234 189 -51 405 47 499 225 94
180 64 384 -79 526 -180 180 -457 178 -635 -4 -30 -31 -66 -80 -79 -109 l-24
-52 -319 0 -318 0 0 305 0 305 -369 0 -368 0 -18 -199z"/>
<path d="M4559 4195 c-80 -22 -142 -58 -204 -120 -88 -88 -135 -200 -135 -323
l0 -47 -237 -120 -238 -120 -730 -5 c-716 -6 -732 -6 -810 -28 -90 -25 -222
-85 -291 -133 -71 -48 -181 -157 -230 -224 -58 -81 -119 -212 -146 -310 -17
-65 -21 -107 -21 -230 0 -134 2 -159 26 -238 92 -301 301 -510 604 -604 l88
-28 755 -5 755 -5 238 -120 237 -120 0 -47 c0 -123 47 -235 135 -323 180 -180
453 -180 630 -1 180 182 180 451 0 631 -162 163 -408 178 -593 37 l-34 -26
-274 137 -274 137 -728 0 c-601 0 -739 3 -797 15 -270 57 -475 309 -475 585 0
275 206 528 475 585 58 12 196 15 797 15 l728 0 274 137 274 137 34 -26 c138
-106 321 -125 476 -51 70 34 169 131 201 196 90 185 59 379 -84 523 -114 115
-277 161 -426 119z"/>
<path d="M4560 2996 c-121 -34 -242 -132 -289 -234 l-24 -52 -994 0 -993 0 0
-150 0 -150 993 0 994 0 24 -52 c48 -104 170 -201 294 -234 192 -52 411 50
504 234 88 175 55 378 -84 517 -113 114 -280 161 -425 121z"/>
</g>
</svg>
