<?xml version="1.0" standalone="no"?>
<!DOCTYPE svg PUBLIC "-//W3C//DTD SVG 20010904//EN"
 "http://www.w3.org/TR/2001/REC-SVG-20010904/DTD/svg10.dtd">
<svg version="1.0" xmlns="http://www.w3.org/2000/svg"
 viewBox="0 0 512.000000 512.000000"
 preserveAspectRatio="xMidYMid meet">

<g transform="translate(0.000000,512.000000) scale(0.100000,-0.100000)"
fill="currentColor" stroke="none">
<path d="M2225 5104 c-44 -23 -76 -55 -91 -91 -18 -41 -20 -615 -3 -660 11
-31 53 -78 84 -96 13 -8 107 -14 270 -17 l250 -5 5 -172 5 -172 202 175 202
174 303 0 c296 0 304 1 343 23 22 13 49 40 62 62 22 39 23 47 23 354 0 298 -1
315 -21 350 -11 20 -36 48 -56 61 l-37 25 -755 3 c-671 2 -759 0 -786 -14z
m245 -424 l0 -90 -85 0 -85 0 0 90 0 90 85 0 85 0 0 -90z m880 0 l0 -90 -350
0 -350 0 0 90 0 90 350 0 350 0 0 -90z m360 0 l0 -90 -90 0 -90 0 0 90 0 90
90 0 90 0 0 -90z"/>
<path d="M1713 3789 c-114 -15 -231 -106 -274 -216 -21 -52 -23 -74 -23 -218
0 -198 15 -248 103 -336 173 -172 467 -119 566 103 25 56 29 78 33 190 7 196
-16 283 -100 374 -72 79 -188 118 -305 103z"/>
<path d="M3827 3789 c-112 -17 -213 -96 -265 -207 -26 -55 -27 -64 -27 -227 0
-167 1 -171 29 -233 103 -222 394 -275 567 -103 88 89 104 138 103 336 0 123
-4 170 -17 203 -63 163 -221 257 -390 231z"/>
<path d="M1590 2717 c0 -48 4 -56 38 -89 40 -40 97 -68 137 -68 40 0 97 28
138 68 33 32 37 41 37 88 l0 52 -47 -14 c-60 -18 -195 -18 -255 1 l-48 14 0
-52z"/>
<path d="M3925 2725 c-16 -7 -163 -146 -325 -309 l-295 -296 -423 0 c-465 0
-470 -1 -490 -60 -8 -21 -8 -39 0 -61 20 -58 28 -59 545 -59 l468 0 317 318
c174 174 321 327 327 339 18 36 13 71 -16 102 -34 36 -68 44 -108 26z"/>
<path d="M4232 2585 c-8 -67 -48 -115 -373 -440 l-329 -331 0 -202 0 -202
-130 0 -130 0 0 -85 0 -85 383 0 c350 0 385 2 423 19 61 28 109 75 135 133
l24 53 3 470 c3 427 0 721 -6 670z"/>
<path d="M1255 2486 c-99 -28 -192 -60 -207 -70 -15 -10 -38 -34 -50 -55 -21
-34 -23 -49 -26 -228 l-4 -193 625 0 625 0 -5 64 c-7 84 15 152 69 206 51 53
105 77 196 86 39 3 72 11 72 16 0 27 -37 82 -69 103 -31 20 -368 125 -401 125
-7 0 -39 -25 -72 -55 -77 -69 -147 -98 -243 -97 -96 0 -166 28 -243 97 -33 30
-66 55 -74 54 -7 0 -94 -24 -193 -53z"/>
<path d="M4417 2293 c-4 -3 -7 -199 -7 -434 0 -399 -1 -431 -20 -492 -33 -107
-110 -198 -215 -255 -87 -47 -134 -52 -532 -52 l-373 0 0 -90 0 -90 438 0
c240 0 465 5 500 10 177 25 328 161 366 330 13 58 16 151 16 574 l0 506 -83 0
c-46 0 -87 -3 -90 -7z"/>
<path d="M620 1680 l0 -90 1365 0 1365 0 0 90 0 90 -1365 0 -1365 0 0 -90z"/>
<path d="M790 1325 l0 -85 135 0 135 0 0 -90 0 -90 -135 0 -135 0 0 -440 0
-440 -395 0 -395 0 0 -90 0 -90 503 0 502 0 88 175 87 175 763 0 762 0 88
-175 87 -175 105 0 105 0 0 530 0 530 -925 0 -925 0 0 90 0 90 925 0 925 0 0
85 0 85 -1150 0 -1150 0 0 -85z"/>
<path d="M3270 355 l0 -355 260 0 260 0 -5 28 c-3 15 -19 169 -35 342 -17 173
-33 321 -35 328 -3 9 -57 12 -225 12 l-220 0 0 -355z"/>
<path d="M3899 705 c-3 -2 11 -162 30 -355 l35 -350 578 0 578 0 0 90 0 90
-500 0 c-393 0 -500 3 -500 13 0 6 -11 122 -25 257 -14 135 -25 248 -25 253 0
7 -163 10 -171 2z"/>
<path d="M1245 90 l-45 -90 740 0 740 0 -45 90 -45 90 -650 0 -650 0 -45 -90z"/>
</g>
</svg>
