<?xml version="1.0" standalone="no"?>
<!DOCTYPE svg PUBLIC "-//W3C//DTD SVG 20010904//EN"
 "http://www.w3.org/TR/2001/REC-SVG-20010904/DTD/svg10.dtd">
<svg version="1.0" xmlns="http://www.w3.org/2000/svg"
 viewBox="0 0 512.000000 512.000000"
 preserveAspectRatio="xMidYMid meet">

<g transform="translate(0.000000,512.000000) scale(0.100000,-0.100000)"
fill="currentColor" stroke="none">
<path d="M2095 4879 c-649 -40 -1039 -144 -1094 -292 -15 -38 -15 -2377 -1
-2429 12 -43 69 -97 137 -131 191 -96 617 -163 1161 -183 l182 -7 0 -123 0
-123 -727 -3 -728 -3 -57 -28 c-62 -30 -105 -74 -140 -140 -20 -37 -23 -60
-26 -199 l-4 -157 -271 -3 c-269 -3 -272 -3 -306 -27 -66 -47 -71 -72 -71
-386 0 -272 1 -282 23 -325 12 -25 37 -55 56 -67 l34 -23 612 0 612 0 34 23
c18 12 44 38 56 56 23 33 23 39 23 331 0 292 0 298 -23 331 -12 18 -38 44 -56
56 -33 22 -40 23 -297 23 l-264 0 0 140 0 141 39 42 40 42 720 3 721 2 0 -185
0 -185 -264 0 c-257 0 -264 -1 -297 -23 -18 -12 -44 -38 -56 -56 -23 -33 -23
-39 -23 -331 0 -292 0 -298 23 -331 12 -18 38 -44 56 -56 l34 -23 612 0 612 0
33 23 c18 12 43 35 54 50 20 27 21 40 21 337 0 297 -1 310 -21 337 -11 15 -36
38 -54 50 -32 22 -39 23 -301 23 l-269 0 0 190 0 190 704 0 703 0 33 -22 c68
-47 75 -65 78 -213 l4 -134 -274 -3 -275 -3 -35 -27 c-66 -50 -68 -63 -68
-383 0 -316 0 -317 64 -373 22 -20 51 -33 78 -37 24 -3 302 -5 619 -3 l575 3
37 25 c20 13 45 41 56 61 20 35 21 53 21 331 0 332 -2 343 -76 385 -38 22 -48
23 -301 23 l-261 0 -4 157 c-3 140 -6 163 -26 200 -35 66 -78 110 -140 140
l-57 28 -727 3 -728 3 0 124 0 125 78 0 c42 0 154 5 247 10 716 43 1110 148
1155 308 6 24 10 451 10 1220 0 1287 3 1218 -56 1274 -119 111 -507 194 -1071
228 -196 11 -714 11 -908 -1z m-649 -578 c545 -110 1536 -119 2134 -20 144 24
296 62 357 89 l43 19 0 -325 0 -324 -32 -20 c-169 -104 -853 -179 -1518 -167
-636 11 -1124 79 -1247 173 l-33 25 0 318 0 318 98 -33 c53 -18 142 -42 198
-53z m-227 -752 c134 -50 388 -96 701 -126 266 -25 1037 -25 1295 0 313 31
532 70 689 123 38 13 71 24 73 24 2 0 3 -135 3 -299 l0 -300 -26 -20 c-147
-115 -1016 -205 -1669 -172 -566 29 -939 83 -1078 158 l-52 28 -3 303 c-1 166
1 302 5 302 5 0 32 -9 62 -21z m36 -794 c297 -100 998 -160 1583 -135 553 23
900 74 1125 165 16 7 17 -11 17 -298 l0 -306 -57 -26 c-118 -57 -375 -107
-723 -142 -223 -22 -983 -25 -1210 -5 -352 32 -665 92 -780 149 l-55 28 -3
304 c-2 286 -1 303 15 296 10 -3 50 -17 88 -30z m-292 -2035 c64 -71 15 -179
-81 -180 -37 0 -50 6 -78 34 -38 38 -44 77 -19 126 35 67 127 77 178 20z m367
25 c16 -8 36 -25 44 -37 31 -45 13 -128 -36 -162 -47 -33 -134 -10 -157 41
-47 102 53 208 149 158z m1280 0 c40 -21 60 -53 60 -98 0 -57 -52 -107 -110
-107 -23 0 -50 5 -61 10 -41 22 -62 106 -38 151 14 26 68 59 97 59 13 0 36 -7
52 -15z m400 0 c103 -53 61 -215 -56 -215 -51 0 -104 53 -104 104 0 95 82 151
160 111z m-2477 -6 c38 -19 57 -51 57 -97 0 -37 -6 -50 -34 -78 -46 -46 -101
-48 -148 -5 -29 26 -33 35 -33 81 0 46 4 55 33 81 35 31 85 38 125 18z m1703
-23 c28 -28 34 -42 34 -76 0 -60 -50 -110 -110 -110 -34 0 -48 6 -76 34 -28
28 -34 42 -34 76 0 34 6 48 34 76 28 28 42 34 76 34 34 0 48 -6 76 -34z m1680
0 c28 -28 34 -42 34 -76 0 -34 -6 -48 -34 -76 -39 -39 -89 -45 -136 -17 -92
54 -48 203 60 203 34 0 48 -6 76 -34z m400 0 c28 -28 34 -42 34 -76 0 -34 -6
-48 -34 -76 -28 -28 -42 -34 -76 -34 -34 0 -48 6 -76 34 -28 28 -34 42 -34 76
0 34 6 48 34 76 28 28 42 34 76 34 34 0 48 -6 76 -34z m396 5 c29 -26 33 -35
33 -81 0 -46 -4 -55 -33 -81 -47 -43 -102 -41 -148 5 -28 28 -34 42 -34 76 0
34 6 48 34 76 46 46 101 48 148 5z"/>
<path d="M1385 4119 c-79 -24 -118 -108 -82 -179 17 -33 74 -70 109 -70 94 0
157 106 113 190 -24 47 -90 74 -140 59z"/>
<path d="M1391 3302 c-112 -17 -137 -172 -38 -232 42 -26 86 -25 128 3 117 79
49 250 -90 229z"/>
<path d="M1365 2510 c-40 -16 -68 -58 -73 -110 -4 -48 -3 -52 36 -90 34 -34
46 -40 81 -40 23 0 55 7 71 15 80 41 78 177 -2 221 -26 15 -83 17 -113 4z"/>
</g>
</svg>
