<svg id="svg" xmlns="http://www.w3.org/2000/svg" xmlns:xlink="http://www.w3.org/1999/xlink" width="400" height="416.414686825054" viewBox="0, 0, 400,416.414686825054" version="1.1"><g id="svgg"><path id="path0" d="M47.200 7.467 C 47.200 7.980,47.032 8.400,46.827 8.400 C 46.622 8.400,46.339 8.763,46.198 9.206 C 46.057 9.649,45.796 9.921,45.616 9.810 C 45.437 9.699,45.315 9.922,45.345 10.304 C 45.375 10.687,45.175 10.955,44.900 10.900 C 44.625 10.845,44.421 10.935,44.447 11.100 C 44.590 12.004,44.348 12.815,44.000 12.600 C 43.780 12.464,43.600 12.731,43.600 13.193 C 43.600 13.655,43.240 14.420,42.800 14.892 C 42.360 15.364,42.000 15.966,42.000 16.230 C 42.000 16.961,40.852 19.013,40.506 18.900 C 40.338 18.845,40.200 19.115,40.200 19.500 C 40.200 20.293,39.155 21.556,38.700 21.313 C 38.535 21.225,38.400 21.613,38.400 22.176 C 38.400 22.739,38.220 23.200,38.000 23.200 C 37.780 23.200,37.600 23.560,37.600 24.000 C 37.600 24.440,37.420 24.800,37.200 24.800 C 36.980 24.800,36.800 25.094,36.800 25.453 C 36.800 25.812,36.449 26.410,36.021 26.782 C 35.592 27.154,35.152 27.951,35.043 28.554 C 34.620 30.882,34.131 30.800,48.443 30.800 L 61.600 30.800 61.600 29.262 C 61.600 28.232,61.336 27.485,60.800 27.000 C 60.360 26.602,60.000 25.944,60.000 25.538 C 60.000 25.132,59.820 24.800,59.600 24.800 C 59.380 24.800,59.200 24.339,59.200 23.776 C 59.200 23.196,59.027 22.860,58.800 23.000 C 58.580 23.136,58.400 22.993,58.400 22.682 C 58.400 22.371,57.950 21.631,57.400 21.038 C 56.850 20.444,56.400 19.597,56.400 19.156 C 56.400 18.714,56.220 18.464,56.000 18.600 C 55.777 18.738,55.600 18.434,55.600 17.912 C 55.600 17.397,55.240 16.717,54.800 16.400 C 54.360 16.083,54.000 15.503,54.000 15.112 C 54.000 14.720,53.820 14.400,53.600 14.400 C 53.380 14.400,53.200 14.158,53.200 13.861 C 53.200 13.037,51.992 10.800,51.547 10.800 C 51.330 10.800,51.264 10.620,51.400 10.400 C 51.536 10.180,51.367 10.000,51.024 10.000 C 50.676 10.000,50.400 9.661,50.400 9.233 C 50.400 8.812,50.212 8.404,49.982 8.327 C 49.752 8.251,49.535 7.795,49.499 7.314 C 49.449 6.649,49.310 6.543,48.916 6.869 C 48.620 7.115,48.400 7.135,48.400 6.916 C 48.400 6.705,48.130 6.533,47.800 6.533 C 47.438 6.533,47.200 6.904,47.200 7.467 M70.472 34.600 C 69.937 35.449,72.020 40.800,72.884 40.800 C 73.058 40.800,73.200 41.070,73.200 41.400 C 73.200 41.730,73.380 42.000,73.600 42.000 C 73.820 42.000,74.000 42.360,74.000 42.800 C 74.000 43.240,74.180 43.600,74.400 43.600 C 74.620 43.600,74.800 43.960,74.800 44.400 C 74.800 44.840,74.980 45.200,75.200 45.200 C 75.420 45.200,75.600 45.538,75.600 45.951 C 75.600 46.364,75.867 46.924,76.194 47.195 C 76.520 47.466,77.182 48.478,77.665 49.444 C 78.147 50.410,78.690 51.200,78.871 51.200 C 79.052 51.200,79.200 51.470,79.200 51.800 C 79.200 52.130,79.380 52.400,79.600 52.400 C 79.820 52.400,80.000 52.760,80.000 53.200 C 80.000 53.640,80.180 54.000,80.400 54.000 C 80.620 54.000,80.800 54.360,80.800 54.800 C 80.800 55.240,80.947 55.600,81.126 55.600 C 81.305 55.600,81.752 56.230,82.119 57.000 C 82.487 57.770,82.970 58.400,83.194 58.400 C 83.417 58.400,83.600 58.760,83.600 59.200 C 83.600 59.640,83.743 60.000,83.918 60.000 C 84.093 60.000,84.572 60.814,84.982 61.808 C 85.860 63.939,88.400 64.467,88.400 62.518 C 88.400 62.013,88.572 61.600,88.781 61.600 C 88.991 61.600,89.477 60.925,89.860 60.100 C 90.244 59.275,90.668 58.510,90.802 58.400 C 90.936 58.290,91.282 57.615,91.571 56.900 C 91.860 56.185,92.255 55.600,92.449 55.600 C 92.642 55.600,92.800 55.240,92.800 54.800 C 92.800 54.360,92.980 54.000,93.200 54.000 C 93.420 54.000,93.603 53.685,93.607 53.300 C 93.611 52.915,94.061 52.176,94.607 51.658 C 95.153 51.140,95.600 50.465,95.600 50.158 C 95.600 49.851,95.780 49.600,96.000 49.600 C 96.220 49.600,96.400 49.240,96.400 48.800 C 96.400 48.360,96.554 48.000,96.743 48.000 C 96.932 48.000,97.513 47.010,98.036 45.800 C 98.558 44.590,99.124 43.600,99.293 43.600 C 99.462 43.600,99.600 43.240,99.600 42.800 C 99.600 42.360,99.768 42.000,99.973 42.000 C 100.178 42.000,100.461 41.637,100.602 41.194 C 100.743 40.751,101.029 40.494,101.239 40.624 C 101.448 40.753,101.594 40.711,101.563 40.530 C 101.405 39.622,101.645 38.781,102.000 39.000 C 102.220 39.136,102.400 38.887,102.400 38.447 C 102.400 38.007,102.559 37.549,102.754 37.429 C 103.224 37.138,103.551 34.817,103.157 34.573 C 102.510 34.173,70.724 34.199,70.472 34.600 M28.000 40.624 C 28.000 40.941,27.820 41.200,27.600 41.200 C 27.380 41.200,27.200 41.560,27.200 42.000 C 27.200 42.440,27.020 42.800,26.800 42.800 C 26.580 42.800,26.397 43.205,26.394 43.700 C 26.389 44.428,26.314 44.485,26.000 44.000 C 25.699 43.534,25.611 43.651,25.606 44.524 C 25.603 45.170,25.430 45.542,25.200 45.400 C 24.973 45.260,24.800 45.596,24.800 46.176 C 24.800 46.837,24.579 47.200,24.176 47.200 C 23.833 47.200,23.655 47.365,23.780 47.568 C 23.905 47.770,23.729 48.214,23.389 48.553 C 23.050 48.893,22.733 49.313,22.686 49.486 C 22.639 49.659,22.465 49.755,22.300 49.700 C 22.135 49.645,22.000 49.780,22.000 50.000 C 22.000 50.220,22.187 50.400,22.416 50.400 C 22.644 50.400,22.464 50.794,22.016 51.275 C 21.567 51.757,21.200 52.387,21.200 52.675 C 21.200 52.964,21.042 53.200,20.850 53.200 C 20.303 53.200,19.248 55.660,19.507 56.334 C 19.680 56.785,19.557 56.869,19.025 56.665 C 18.493 56.461,18.370 56.545,18.543 56.995 C 18.685 57.366,18.547 57.600,18.187 57.600 C 17.864 57.600,17.636 57.735,17.679 57.900 C 17.858 58.575,17.107 60.000,16.573 60.000 C 16.258 60.000,16.000 60.191,16.000 60.424 C 16.000 60.657,16.225 60.720,16.500 60.565 C 16.900 60.339,16.900 60.390,16.500 60.821 C 16.225 61.118,16.000 61.695,16.000 62.104 C 16.000 62.554,15.822 62.737,15.548 62.568 C 15.274 62.398,15.169 62.507,15.281 62.844 C 15.433 63.301,17.902 63.420,29.157 63.514 L 42.848 63.627 42.687 62.514 C 42.449 60.860,41.986 60.000,41.334 60.000 C 40.997 60.000,40.873 59.806,41.038 59.539 C 41.194 59.286,41.070 58.877,40.761 58.631 C 39.976 58.005,39.200 56.545,39.200 55.694 C 39.200 55.299,38.840 54.717,38.400 54.400 C 37.960 54.083,37.600 53.503,37.600 53.112 C 37.600 52.720,37.420 52.400,37.200 52.400 C 36.980 52.400,36.800 52.050,36.800 51.623 C 36.800 51.195,36.424 50.582,35.965 50.260 C 35.089 49.647,33.200 46.264,33.200 45.309 C 33.200 45.003,33.020 44.864,32.800 45.000 C 32.580 45.136,32.400 44.892,32.400 44.457 C 32.400 44.022,32.233 43.607,32.030 43.533 C 31.827 43.460,31.602 43.134,31.530 42.810 C 31.459 42.485,31.173 41.975,30.896 41.677 C 30.619 41.379,30.495 40.970,30.620 40.768 C 30.745 40.565,30.702 40.379,30.524 40.354 C 28.388 40.053,28.000 40.095,28.000 40.624 M28.667 157.867 C 28.300 158.233,28.340 415.298,28.706 415.814 C 28.901 416.088,32.623 416.175,39.753 416.070 C 46.302 415.974,50.289 415.772,49.953 415.554 C 49.615 415.334,50.293 415.295,51.700 415.452 L 54.000 415.710 54.000 286.917 L 54.000 158.123 48.900 157.863 C 42.236 157.523,29.008 157.526,28.667 157.867 " stroke="none" fill="#3299a9" fill-rule="evenodd"></path><path id="path1" d="M121.600 2.400 C 121.600 3.720,121.690 4.800,121.800 4.800 C 122.332 4.800,123.427 3.281,123.260 2.775 C 123.100 2.291,123.188 2.295,123.812 2.800 C 124.220 3.130,124.427 3.190,124.273 2.932 C 124.119 2.675,124.277 2.180,124.625 1.832 C 125.201 1.256,125.198 1.200,124.586 1.200 C 124.153 1.200,123.996 0.986,124.145 0.600 C 124.322 0.138,124.056 0.000,122.987 0.000 L 121.600 0.000 121.600 2.400 M122.800 4.771 C 122.800 4.975,122.485 5.207,122.100 5.287 C 121.497 5.412,121.514 5.464,122.219 5.658 C 122.821 5.823,123.053 5.686,123.094 5.141 C 123.125 4.734,123.071 4.400,122.975 4.400 C 122.879 4.400,122.800 4.567,122.800 4.771 M120.202 7.599 C 119.491 7.849,119.498 7.880,120.307 8.092 C 120.782 8.216,121.354 8.096,121.579 7.825 C 122.046 7.263,121.442 7.164,120.202 7.599 M118.538 11.003 C 118.184 11.766,118.187 12.000,118.550 12.000 C 118.812 12.000,119.063 11.550,119.108 11.000 C 119.212 9.750,119.119 9.751,118.538 11.003 M117.177 13.643 C 116.836 14.280,116.845 14.598,117.213 14.943 C 117.584 15.291,117.653 15.257,117.504 14.800 C 117.396 14.470,117.470 13.885,117.668 13.500 C 117.866 13.115,117.938 12.800,117.828 12.800 C 117.718 12.800,117.425 13.179,117.177 13.643 M114.060 19.842 C 113.331 20.666,113.800 21.057,114.581 20.276 C 114.921 19.936,115.200 19.554,115.200 19.429 C 115.200 19.009,114.606 19.224,114.060 19.842 M107.711 31.620 C 107.579 32.123,107.051 32.530,106.348 32.670 C 105.117 32.917,104.839 33.486,105.775 33.846 C 106.091 33.967,106.263 34.292,106.157 34.569 C 106.050 34.846,106.242 35.303,106.582 35.585 C 106.922 35.867,107.200 36.325,107.200 36.603 C 107.200 37.178,109.209 38.636,109.768 38.466 C 109.970 38.405,109.923 38.610,109.664 38.923 C 109.274 39.393,109.366 39.457,110.197 39.299 C 111.061 39.133,111.200 39.252,111.200 40.153 C 111.200 40.729,111.425 41.203,111.700 41.206 C 112.033 41.210,112.000 41.342,111.600 41.600 C 111.200 41.858,111.167 41.990,111.500 41.994 C 111.775 41.997,112.000 42.281,112.000 42.624 C 112.000 42.967,112.180 43.136,112.400 43.000 C 112.627 42.860,112.800 40.863,112.800 38.376 L 112.800 34.000 110.500 33.933 L 108.200 33.866 110.600 33.600 L 113.000 33.334 110.300 33.267 C 108.815 33.230,107.600 33.122,107.600 33.026 C 107.600 32.930,107.776 32.390,107.990 31.826 C 108.205 31.262,108.278 30.800,108.153 30.800 C 108.028 30.800,107.829 31.169,107.711 31.620 M86.500 66.233 C 86.225 66.362,86.000 66.842,86.000 67.300 C 86.000 67.758,86.117 68.016,86.261 67.873 C 86.532 67.601,87.597 69.357,87.793 70.400 C 87.855 70.730,88.107 70.955,88.353 70.900 C 88.599 70.845,88.800 71.160,88.800 71.600 C 88.800 72.040,88.980 72.400,89.200 72.400 C 89.420 72.400,89.600 72.670,89.600 73.000 C 89.600 73.330,89.780 73.600,90.000 73.600 C 90.220 73.600,90.400 73.941,90.400 74.357 C 90.400 74.774,90.672 75.219,91.004 75.346 C 91.336 75.473,91.577 75.718,91.540 75.889 C 91.462 76.251,92.035 77.707,92.371 78.000 C 92.708 78.294,93.550 79.680,93.959 80.616 C 94.156 81.065,94.605 81.673,94.958 81.965 C 95.311 82.258,95.600 82.749,95.600 83.057 C 95.600 83.364,96.040 84.313,96.577 85.164 C 97.115 86.015,97.430 86.851,97.277 87.020 C 97.125 87.190,97.186 87.223,97.413 87.094 C 97.640 86.966,98.325 87.813,98.935 88.978 C 99.545 90.143,100.349 91.441,100.722 91.864 C 101.095 92.286,101.459 92.894,101.532 93.216 C 101.604 93.537,101.919 94.084,102.232 94.431 C 102.544 94.779,102.800 95.274,102.800 95.531 C 102.800 95.789,102.999 96.000,103.243 96.000 C 103.486 96.000,103.584 96.264,103.460 96.587 C 103.336 96.910,103.407 97.281,103.617 97.411 C 103.828 97.541,104.003 97.412,104.006 97.124 C 104.011 96.721,104.095 96.731,104.369 97.164 C 104.565 97.474,104.622 97.998,104.495 98.329 C 104.345 98.721,104.427 98.830,104.732 98.642 C 105.030 98.458,105.200 98.645,105.200 99.157 C 105.200 100.420,106.158 100.660,109.600 100.259 L 112.800 99.886 112.800 83.399 L 112.800 66.911 110.300 66.653 C 106.832 66.296,87.113 65.948,86.500 66.233 M50.500 157.884 L 54.000 158.031 54.000 286.871 L 54.000 415.710 51.700 415.452 C 50.139 415.278,49.593 415.321,50.000 415.587 C 50.403 415.850,47.521 416.018,41.200 416.099 C 36.030 416.166,47.730 416.191,67.200 416.156 C 87.745 416.119,104.279 415.922,106.600 415.686 C 108.800 415.463,111.095 415.262,111.700 415.240 L 112.800 415.200 112.800 286.842 L 112.800 158.484 111.100 158.212 C 110.165 158.062,95.360 157.894,78.200 157.838 C 61.040 157.782,48.575 157.802,50.500 157.884 M28.104 286.800 C 28.054 357.530,28.144 415.608,28.306 415.862 C 28.569 416.276,28.565 290.704,28.298 194.800 C 28.242 174.670,28.154 216.070,28.104 286.800 " stroke="none" fill="#25948e" fill-rule="evenodd"></path><path id="path2" d="M124.267 0.267 C 123.906 0.627,123.928 1.211,124.300 1.153 C 125.092 1.028,125.201 1.256,124.625 1.832 C 124.277 2.180,124.119 2.675,124.273 2.932 C 124.427 3.190,124.215 3.130,123.802 2.800 C 123.124 2.259,123.075 2.266,123.300 2.867 C 123.457 3.287,123.304 3.628,122.886 3.788 C 122.322 4.005,122.309 4.097,122.801 4.401 C 123.467 4.812,124.800 3.623,124.800 2.617 C 124.800 2.276,125.143 2.000,125.567 2.000 C 125.988 2.000,126.425 1.775,126.536 1.500 C 126.692 1.116,126.831 1.131,127.133 1.564 C 127.558 2.173,127.308 3.314,126.816 3.010 C 126.651 2.908,126.616 3.314,126.738 3.912 C 126.885 4.631,127.009 4.770,127.105 4.322 C 127.195 3.904,127.483 3.734,127.859 3.878 C 128.352 4.067,128.366 4.174,127.934 4.441 C 127.505 4.706,127.542 4.912,128.122 5.486 C 128.815 6.172,128.833 6.169,128.591 5.400 C 128.362 4.672,128.381 4.664,128.794 5.308 C 129.045 5.698,129.388 5.931,129.558 5.826 C 129.728 5.721,129.867 5.872,129.867 6.162 C 129.867 6.452,129.601 6.669,129.276 6.644 C 128.952 6.620,128.605 6.831,128.506 7.112 C 128.406 7.394,128.567 7.574,128.863 7.512 C 129.158 7.451,129.351 7.638,129.290 7.930 C 129.230 8.221,129.368 8.344,129.597 8.202 C 129.826 8.061,129.909 7.777,129.783 7.572 C 129.656 7.368,129.647 7.200,129.762 7.200 C 130.342 7.200,130.833 8.878,130.405 9.394 C 130.043 9.830,130.125 9.892,130.823 9.710 C 131.586 9.510,131.655 9.599,131.396 10.441 C 131.233 10.969,131.241 11.267,131.414 11.103 C 131.815 10.723,132.863 11.575,132.572 12.045 C 132.451 12.240,132.633 12.400,132.976 12.400 C 133.719 12.400,133.781 12.859,133.127 13.513 C 132.866 13.774,132.786 14.119,132.948 14.282 C 133.111 14.444,133.391 14.338,133.572 14.046 C 133.811 13.658,133.977 13.639,134.184 13.975 C 134.341 14.228,134.248 14.702,133.977 15.027 C 133.707 15.353,133.602 15.735,133.743 15.876 C 133.884 16.018,134.000 15.953,134.000 15.733 C 134.000 14.627,135.217 15.483,135.456 16.757 C 135.603 17.539,135.978 18.436,136.291 18.748 C 136.750 19.207,136.760 19.378,136.341 19.636 C 136.056 19.812,135.949 20.082,136.102 20.235 C 136.255 20.389,136.689 20.263,137.065 19.957 C 137.668 19.466,137.719 19.483,137.487 20.100 C 137.169 20.949,137.545 22.081,138.042 21.774 C 138.239 21.652,138.400 21.743,138.400 21.976 C 138.400 22.209,138.625 22.355,138.900 22.300 C 139.175 22.245,139.400 22.470,139.400 22.800 C 139.400 23.130,139.087 23.375,138.704 23.345 C 138.322 23.315,138.107 23.450,138.228 23.645 C 138.349 23.840,138.884 24.000,139.419 24.000 C 140.188 24.000,140.371 24.188,140.295 24.900 C 140.243 25.395,140.392 25.766,140.627 25.724 C 140.883 25.679,140.984 26.131,140.878 26.853 C 140.751 27.716,140.857 28.036,141.250 27.982 C 142.259 27.842,142.800 27.996,142.800 28.424 C 142.800 28.657,142.632 28.744,142.428 28.617 C 142.223 28.491,141.939 28.574,141.798 28.803 C 141.656 29.032,141.756 29.170,142.020 29.110 C 142.284 29.049,142.591 29.250,142.702 29.556 C 142.826 29.896,142.729 30.003,142.452 29.832 C 142.203 29.678,142.000 29.724,142.000 29.933 C 142.000 30.142,142.457 30.428,143.016 30.568 C 143.575 30.709,143.925 30.998,143.793 31.212 C 143.661 31.425,143.846 31.600,144.203 31.600 C 144.693 31.600,144.786 31.822,144.577 32.500 C 144.245 33.581,147.401 33.471,126.000 33.145 C 115.990 32.992,107.725 32.942,107.633 33.034 C 107.542 33.125,108.712 33.230,110.233 33.267 L 113.000 33.334 110.600 33.600 L 108.200 33.866 110.518 33.933 L 112.836 34.000 112.774 38.797 C 112.740 41.482,112.556 43.496,112.356 43.373 C 112.160 43.252,112.000 42.893,112.000 42.576 C 112.000 42.259,111.685 41.987,111.300 41.972 C 110.701 41.948,110.716 41.894,111.400 41.600 C 111.840 41.411,111.975 41.244,111.700 41.228 C 111.425 41.213,111.200 40.729,111.200 40.153 C 111.200 39.253,111.061 39.133,110.200 39.298 C 109.217 39.486,108.985 39.126,109.170 37.700 C 109.206 37.425,109.037 37.200,108.794 37.200 C 108.551 37.200,108.464 37.380,108.600 37.600 C 108.736 37.820,108.612 38.003,108.324 38.006 C 107.977 38.010,107.945 38.112,108.229 38.306 C 108.465 38.468,108.773 38.912,108.914 39.293 C 109.060 39.688,109.417 39.892,109.744 39.766 C 110.060 39.645,110.438 39.738,110.583 39.973 C 110.733 40.215,110.534 40.403,110.124 40.406 C 109.669 40.410,109.569 40.522,109.854 40.706 C 110.103 40.868,110.384 41.360,110.477 41.800 C 110.572 42.243,110.904 42.541,111.224 42.467 C 111.541 42.393,111.682 42.451,111.538 42.595 C 111.395 42.739,111.515 43.316,111.807 43.878 C 112.098 44.440,112.255 45.113,112.154 45.375 C 112.054 45.636,112.428 46.094,112.986 46.393 C 113.544 46.691,114.000 47.265,114.000 47.668 C 114.000 48.070,114.180 48.400,114.400 48.400 C 114.620 48.400,114.800 48.850,114.800 49.400 C 114.800 50.561,116.218 52.160,116.883 51.749 C 117.175 51.568,117.041 51.359,116.509 51.162 C 116.054 50.994,115.552 50.645,115.393 50.388 C 115.175 50.036,115.307 50.029,115.925 50.360 C 117.009 50.940,117.200 50.916,117.200 50.200 C 117.200 49.870,117.020 49.600,116.800 49.600 C 116.547 49.600,116.400 46.733,116.400 41.800 C 116.400 34.267,116.427 34.000,117.200 34.000 C 117.977 34.000,118.000 34.267,118.000 43.200 C 118.000 49.736,117.870 52.400,117.551 52.400 C 117.239 52.400,117.253 52.582,117.596 52.996 C 117.868 53.323,118.278 53.475,118.507 53.334 C 118.757 53.179,118.803 53.272,118.621 53.565 C 118.455 53.834,118.027 53.942,117.669 53.805 C 117.204 53.627,117.266 53.818,117.885 54.478 C 118.362 54.985,118.771 55.580,118.794 55.800 C 118.817 56.020,119.188 56.144,119.618 56.075 C 120.223 55.978,120.400 56.182,120.400 56.975 C 120.400 57.539,120.601 58.000,120.847 58.000 C 121.096 58.000,121.201 58.353,121.084 58.801 C 120.969 59.241,121.038 59.500,121.237 59.377 C 121.593 59.157,121.758 59.712,121.630 60.700 C 121.547 61.339,122.281 61.356,122.493 60.720 C 122.592 60.425,122.757 60.510,122.922 60.941 C 123.083 61.360,123.032 61.543,122.795 61.397 C 122.578 61.263,122.400 61.545,122.400 62.025 C 122.400 62.731,122.508 62.808,122.964 62.430 C 123.647 61.863,124.037 62.370,123.813 63.534 C 123.723 64.001,123.818 64.488,124.025 64.615 C 124.231 64.743,124.400 64.627,124.400 64.357 C 124.400 64.087,124.516 63.982,124.657 64.124 C 124.798 64.265,124.692 64.648,124.421 64.974 C 124.009 65.471,124.065 65.542,124.766 65.406 C 125.486 65.268,125.546 65.354,125.188 66.023 C 124.750 66.841,124.000 67.080,124.000 66.400 C 124.000 66.143,120.398 66.017,113.900 66.046 C 103.301 66.095,102.494 66.187,108.900 66.614 L 112.800 66.875 112.800 83.413 L 112.800 99.952 111.300 100.109 C 110.475 100.195,117.495 100.296,126.900 100.333 C 139.317 100.382,144.000 100.277,144.000 99.951 C 144.000 99.638,144.212 99.653,144.700 100.001 C 145.085 100.275,144.905 100.036,144.300 99.469 C 143.226 98.463,142.722 96.857,143.662 97.438 C 143.957 97.620,144.015 97.547,143.822 97.236 C 143.595 96.868,143.340 96.912,142.784 97.414 C 142.084 98.048,142.055 98.024,142.195 96.922 C 142.305 96.049,142.135 95.671,141.501 95.382 C 140.565 94.956,140.097 93.398,141.010 93.749 C 141.367 93.885,141.481 93.756,141.337 93.380 C 141.214 93.061,140.774 92.800,140.357 92.800 C 139.482 92.800,139.386 92.375,140.100 91.656 C 140.501 91.252,140.449 91.210,139.834 91.444 C 139.310 91.644,139.157 91.593,139.350 91.281 C 139.506 91.028,139.269 90.600,138.816 90.317 C 138.367 90.037,138.000 89.660,138.000 89.480 C 138.000 89.300,138.180 89.264,138.400 89.400 C 139.051 89.802,138.856 89.343,138.123 88.749 C 137.663 88.376,137.543 88.360,137.747 88.700 C 137.912 88.975,137.878 89.200,137.670 89.200 C 137.463 89.200,137.199 88.840,137.084 88.399 C 136.969 87.959,137.038 87.700,137.237 87.823 C 137.913 88.240,137.605 87.636,136.725 86.816 C 136.243 86.367,136.063 86.000,136.325 86.000 C 136.586 86.000,136.797 85.685,136.794 85.300 C 136.789 84.757,136.711 84.721,136.445 85.140 C 136.000 85.843,134.400 84.569,134.400 83.511 C 134.400 83.120,134.040 82.440,133.600 82.000 C 133.160 81.560,133.014 81.200,133.276 81.200 C 133.539 81.200,133.404 80.936,132.976 80.613 C 132.236 80.052,132.573 79.762,133.730 79.963 C 133.911 79.994,133.938 79.823,133.790 79.583 C 133.641 79.343,133.419 79.247,133.297 79.370 C 133.174 79.493,132.832 79.393,132.537 79.148 C 132.242 78.903,132.000 78.836,132.000 79.000 C 132.000 79.164,131.730 79.074,131.400 78.800 C 130.582 78.121,130.644 77.802,131.700 77.259 L 132.600 76.796 131.690 77.028 C 131.189 77.156,130.806 77.112,130.837 76.930 C 130.978 76.120,130.767 75.573,130.400 75.800 C 130.180 75.936,130.000 75.840,130.000 75.588 C 130.000 75.335,129.677 74.829,129.281 74.464 C 128.886 74.099,128.800 73.961,129.091 74.157 C 129.381 74.353,129.723 74.410,129.850 74.284 C 130.206 73.927,129.620 73.200,128.976 73.200 C 128.659 73.200,128.400 73.009,128.400 72.776 C 128.400 72.543,128.220 72.464,128.000 72.600 C 127.780 72.736,127.600 72.466,127.600 72.000 C 127.600 71.534,127.750 71.245,127.933 71.359 C 128.117 71.472,128.267 71.300,128.267 70.977 C 128.267 70.572,128.019 70.467,127.473 70.640 C 126.867 70.833,126.735 70.746,126.917 70.272 C 127.048 69.931,126.940 69.548,126.678 69.421 C 126.415 69.295,126.605 69.266,127.101 69.358 C 127.634 69.457,127.900 69.362,127.754 69.125 C 127.618 68.905,127.104 68.802,126.611 68.896 C 125.768 69.057,125.747 69.007,126.252 68.033 L 126.788 67.000 137.094 66.790 L 147.400 66.580 137.071 66.490 C 128.340 66.414,126.650 66.493,126.143 67.000 C 125.813 67.330,125.331 67.597,125.071 67.594 C 124.757 67.590,124.778 67.475,125.134 67.249 C 125.428 67.063,125.608 66.751,125.534 66.555 C 125.458 66.354,131.498 66.155,139.500 66.095 L 153.600 65.990 153.600 32.995 L 153.600 0.000 140.000 0.000 C 128.425 0.000,126.400 0.086,126.400 0.576 C 126.400 0.893,126.192 1.282,125.937 1.439 C 125.620 1.635,125.545 1.454,125.700 0.863 C 125.922 0.012,124.933 -0.400,124.267 0.267 M122.400 5.163 C 122.807 5.451,122.839 5.590,122.500 5.594 C 122.225 5.597,122.000 5.996,122.000 6.480 C 122.000 7.023,122.140 7.214,122.367 6.980 C 123.005 6.318,123.025 5.090,122.400 4.911 C 121.867 4.758,121.867 4.786,122.400 5.163 M120.565 8.300 C 120.720 8.575,120.702 8.800,120.524 8.800 C 120.346 8.800,120.171 9.295,120.136 9.900 L 120.072 11.000 120.672 9.856 C 121.147 8.950,121.169 8.617,120.777 8.256 C 120.403 7.911,120.351 7.922,120.565 8.300 M118.162 13.538 C 118.319 13.792,118.257 14.000,118.024 14.000 C 117.791 14.000,117.600 14.255,117.600 14.567 C 117.600 14.878,117.375 15.214,117.100 15.312 C 116.825 15.410,116.715 15.615,116.856 15.768 C 116.997 15.921,117.496 15.508,117.964 14.851 C 118.573 13.995,118.682 13.574,118.345 13.366 C 118.052 13.185,117.983 13.250,118.162 13.538 M118.000 83.400 C 118.000 99.733,117.987 100.000,117.200 100.000 C 116.413 100.000,116.400 99.733,116.400 83.400 C 116.400 67.067,116.413 66.800,117.200 66.800 C 117.987 66.800,118.000 67.067,118.000 83.400 M152.884 86.615 C 152.504 87.046,152.494 87.200,152.845 87.200 C 153.108 87.200,152.935 87.536,152.461 87.947 C 151.988 88.358,151.600 89.090,151.600 89.574 C 151.600 90.259,151.430 90.400,150.834 90.211 C 150.412 90.077,149.953 90.153,149.813 90.379 C 149.661 90.625,149.811 90.694,150.184 90.551 C 151.165 90.174,149.319 93.880,148.300 94.333 C 148.135 94.407,148.000 94.924,148.000 95.482 C 148.000 96.386,147.925 96.437,147.323 95.949 C 146.951 95.647,146.771 95.608,146.924 95.863 C 147.077 96.118,147.033 96.748,146.826 97.263 C 146.534 97.993,146.445 98.040,146.425 97.476 C 146.411 97.078,146.228 96.859,146.017 96.989 C 145.807 97.119,145.736 97.490,145.860 97.813 C 146.001 98.179,145.844 98.400,145.443 98.400 C 144.670 98.400,144.646 98.763,145.357 99.700 C 145.798 100.282,146.541 100.400,149.744 100.400 L 153.600 100.400 153.600 93.200 C 153.600 89.240,153.555 86.007,153.500 86.015 C 153.445 86.024,153.168 86.294,152.884 86.615 M111.300 157.899 L 118.000 158.019 118.000 286.610 C 118.000 414.933,117.998 415.200,117.200 415.200 C 116.402 415.200,116.400 414.933,116.400 286.800 L 116.400 158.400 114.600 158.400 L 112.800 158.400 112.800 286.764 L 112.800 415.128 109.300 415.387 C 103.073 415.849,104.408 415.979,113.400 415.789 C 118.240 415.686,129.265 415.602,137.900 415.601 L 153.600 415.600 153.600 366.200 L 153.600 316.800 142.250 316.800 C 136.007 316.800,130.337 316.688,129.650 316.550 L 128.400 316.300 128.400 237.350 C 128.400 184.983,128.535 158.400,128.800 158.400 C 129.020 158.400,129.200 158.220,129.200 158.000 C 129.200 157.740,124.893 157.631,116.900 157.690 C 109.675 157.742,107.364 157.829,111.300 157.899 M129.796 236.600 C 129.796 279.720,129.843 297.301,129.900 275.668 C 129.957 254.036,129.957 218.756,129.900 197.268 C 129.843 175.781,129.796 193.480,129.796 236.600 M134.876 315.899 C 137.668 315.967,142.348 315.968,145.276 315.899 C 148.204 315.831,145.920 315.775,140.200 315.774 C 134.480 315.774,132.084 315.830,134.876 315.899 " stroke="none" fill="#1e947c" fill-rule="evenodd"></path><path id="path3" d="M217.581 0.780 C 217.900 0.982,218.302 1.061,218.473 0.955 C 218.644 0.849,219.192 0.981,219.692 1.247 C 220.516 1.686,220.549 1.669,220.051 1.065 C 219.749 0.699,218.939 0.403,218.251 0.406 C 217.335 0.411,217.155 0.511,217.581 0.780 M221.245 1.379 C 221.343 1.477,222.183 1.602,223.112 1.657 C 224.040 1.712,224.800 1.901,224.800 2.078 C 224.800 2.255,225.182 2.400,225.649 2.400 C 226.358 2.400,226.416 2.301,226.000 1.800 C 225.667 1.399,224.768 1.200,223.284 1.200 C 222.065 1.200,221.147 1.280,221.245 1.379 M227.719 2.719 C 227.586 3.093,227.411 3.523,227.331 3.674 C 227.251 3.824,227.909 3.875,228.793 3.787 L 230.400 3.628 230.400 54.814 C 230.400 85.632,230.254 106.000,230.033 106.000 C 229.831 106.000,229.381 106.109,229.033 106.243 C 228.618 106.402,228.400 106.265,228.400 105.843 C 228.400 105.097,227.778 104.989,227.362 105.662 C 227.173 105.967,227.254 106.014,227.600 105.800 C 227.946 105.586,228.027 105.633,227.838 105.938 C 227.681 106.192,227.193 106.400,226.753 106.400 C 226.313 106.400,226.063 106.222,226.197 106.005 C 226.337 105.778,226.177 105.711,225.821 105.847 C 224.786 106.244,225.124 106.800,226.400 106.800 C 227.060 106.800,227.600 107.004,227.600 107.252 C 227.600 107.546,228.091 107.625,229.000 107.477 C 230.056 107.306,230.400 107.392,230.400 107.825 C 230.400 108.141,230.760 108.400,231.200 108.400 C 231.640 108.400,232.000 108.580,232.000 108.800 C 232.000 109.020,232.630 109.200,233.400 109.200 C 234.170 109.200,234.800 109.380,234.800 109.600 C 234.800 109.820,234.991 110.000,235.224 110.000 C 235.457 110.000,235.512 109.775,235.347 109.500 C 235.143 109.160,235.263 109.176,235.723 109.549 C 236.095 109.851,236.400 110.346,236.400 110.649 C 236.400 110.952,236.760 111.200,237.200 111.200 C 237.640 111.200,238.000 111.380,238.000 111.600 C 238.000 111.820,238.360 112.000,238.800 112.000 C 239.240 112.000,239.600 112.180,239.600 112.400 C 239.600 112.620,240.050 112.800,240.600 112.800 C 241.150 112.800,241.600 112.980,241.600 113.200 C 241.600 113.420,241.960 113.600,242.400 113.600 C 242.840 113.600,243.200 113.780,243.200 114.000 C 243.200 114.220,243.560 114.400,244.000 114.400 C 244.440 114.400,244.800 114.580,244.800 114.800 C 244.800 115.020,245.070 115.200,245.400 115.200 C 245.730 115.200,246.000 115.380,246.000 115.600 C 246.000 115.820,246.360 116.000,246.800 116.000 C 247.244 116.000,247.600 116.267,247.600 116.600 C 247.600 116.930,247.920 117.200,248.312 117.200 C 248.703 117.200,249.283 117.560,249.600 118.000 C 249.917 118.440,250.547 118.800,251.000 118.800 C 251.453 118.800,252.083 119.160,252.400 119.600 C 252.717 120.040,253.219 120.400,253.515 120.400 C 253.811 120.400,254.648 121.030,255.374 121.800 C 256.100 122.570,256.910 123.200,257.173 123.200 C 257.437 123.200,258.529 124.100,259.600 125.200 C 260.671 126.300,261.736 127.200,261.965 127.200 C 262.195 127.200,263.373 128.190,264.583 129.400 C 265.793 130.610,266.967 131.600,267.191 131.600 C 267.416 131.600,267.555 131.744,267.500 131.920 C 267.445 132.096,268.525 133.346,269.900 134.698 C 271.275 136.050,272.400 137.342,272.400 137.569 C 272.400 137.797,273.390 138.973,274.600 140.183 C 275.810 141.393,276.800 142.570,276.800 142.798 C 276.800 143.027,277.430 143.826,278.200 144.574 C 278.970 145.321,279.600 146.179,279.600 146.478 C 279.600 146.778,279.960 147.283,280.400 147.600 C 280.840 147.917,281.200 148.547,281.200 149.000 C 281.200 149.453,281.560 150.083,282.000 150.400 C 282.440 150.717,282.800 151.297,282.800 151.688 C 282.800 152.080,283.070 152.400,283.400 152.400 C 283.733 152.400,284.000 152.756,284.000 153.200 C 284.000 153.640,284.180 154.000,284.400 154.000 C 284.620 154.000,284.800 154.270,284.800 154.600 C 284.800 154.930,284.980 155.200,285.200 155.200 C 285.420 155.200,285.600 155.560,285.600 156.000 C 285.600 156.440,285.780 156.800,286.000 156.800 C 286.220 156.800,286.400 157.160,286.400 157.600 C 286.400 158.040,286.580 158.400,286.800 158.400 C 287.020 158.400,287.200 158.749,287.200 159.176 C 287.200 159.603,287.380 160.064,287.600 160.200 C 287.820 160.336,288.000 160.797,288.000 161.224 C 288.000 161.660,288.273 162.000,288.624 162.000 C 288.967 162.000,289.145 162.165,289.020 162.368 C 288.895 162.570,289.064 163.007,289.396 163.339 C 289.728 163.671,290.000 164.316,290.000 164.771 C 290.000 165.227,290.180 165.600,290.400 165.600 C 290.620 165.600,290.800 166.140,290.800 166.800 C 290.800 167.460,290.980 168.000,291.200 168.000 C 291.420 168.000,291.600 168.360,291.600 168.800 C 291.600 169.240,291.780 169.600,292.000 169.600 C 292.220 169.600,292.400 170.215,292.400 170.967 C 292.400 171.718,292.563 172.393,292.762 172.467 C 292.961 172.540,293.186 173.050,293.262 173.600 C 293.338 174.150,293.558 174.715,293.750 174.855 C 293.943 174.994,294.100 175.594,294.100 176.186 C 294.100 176.779,294.348 177.358,294.650 177.475 C 294.953 177.591,295.200 178.206,295.200 178.843 C 295.200 179.479,295.380 180.000,295.600 180.000 C 295.820 180.000,296.000 180.810,296.000 181.800 C 296.000 182.790,296.180 183.600,296.400 183.600 C 296.620 183.600,296.800 184.590,296.800 185.800 C 296.800 187.010,296.980 188.000,297.200 188.000 C 297.420 188.000,297.600 188.889,297.600 189.976 C 297.600 191.063,297.780 192.064,298.000 192.200 C 298.221 192.336,298.400 194.126,298.400 196.190 C 298.400 198.829,298.547 199.982,298.900 200.100 C 299.276 200.225,299.400 202.129,299.400 207.800 C 299.400 213.471,299.276 215.375,298.900 215.500 C 298.547 215.618,298.400 216.776,298.400 219.433 C 298.400 221.678,298.238 223.200,298.000 223.200 C 297.774 223.200,297.600 224.333,297.600 225.800 C 297.600 227.267,297.426 228.400,297.200 228.400 C 296.980 228.400,296.800 229.210,296.800 230.200 C 296.800 231.190,296.620 232.000,296.400 232.000 C 296.180 232.000,296.000 232.810,296.000 233.800 C 296.000 234.790,295.820 235.600,295.600 235.600 C 295.380 235.600,295.200 236.243,295.200 237.029 C 295.200 237.814,294.941 238.716,294.624 239.033 C 294.307 239.350,294.118 239.976,294.205 240.425 C 294.294 240.887,294.110 241.336,293.781 241.463 C 293.458 241.586,293.200 242.200,293.200 242.843 C 293.200 243.479,293.020 244.000,292.800 244.000 C 292.580 244.000,292.400 244.450,292.400 245.000 C 292.400 245.550,292.220 246.000,292.000 246.000 C 291.780 246.000,291.600 246.540,291.600 247.200 C 291.600 247.860,291.420 248.400,291.200 248.400 C 290.980 248.400,290.800 248.749,290.800 249.176 C 290.800 249.603,290.620 250.064,290.400 250.200 C 290.180 250.336,290.000 250.719,290.000 251.052 C 290.000 251.385,289.728 251.929,289.396 252.261 C 289.064 252.593,288.883 253.011,288.994 253.190 C 289.105 253.370,288.926 253.619,288.598 253.746 C 288.246 253.881,288.000 254.483,288.000 255.211 C 288.000 255.933,287.834 256.344,287.600 256.200 C 287.380 256.064,287.200 256.233,287.200 256.576 C 287.200 256.919,287.020 257.200,286.800 257.200 C 286.580 257.200,286.400 257.560,286.400 258.000 C 286.400 258.440,286.220 258.800,286.000 258.800 C 285.780 258.800,285.600 259.160,285.600 259.600 C 285.600 260.040,285.420 260.400,285.200 260.400 C 284.980 260.400,284.800 260.741,284.800 261.158 C 284.800 261.575,284.353 262.340,283.807 262.858 C 283.261 263.376,282.811 264.025,282.807 264.300 C 282.803 264.575,282.620 264.800,282.400 264.800 C 282.180 264.800,282.000 265.078,282.000 265.417 C 282.000 265.756,281.640 266.420,281.200 266.892 C 280.760 267.364,280.400 268.005,280.400 268.315 C 280.400 268.625,279.815 269.429,279.100 270.101 C 278.385 270.773,277.847 271.480,277.904 271.672 C 277.961 271.865,277.736 272.127,277.404 272.254 C 277.072 272.381,276.800 272.664,276.800 272.882 C 276.800 273.101,276.260 273.783,275.600 274.400 C 274.940 275.017,274.400 275.732,274.400 275.989 C 274.400 276.246,272.870 277.966,271.000 279.811 C 269.130 281.656,267.600 283.353,267.600 283.583 C 267.600 283.812,267.319 284.000,266.976 284.000 C 266.633 284.000,266.464 284.180,266.600 284.400 C 266.736 284.620,266.649 284.800,266.406 284.800 C 266.163 284.800,264.636 286.150,263.013 287.800 C 261.389 289.450,259.850 290.800,259.591 290.800 C 259.332 290.800,258.617 291.340,258.000 292.000 C 257.383 292.660,256.635 293.200,256.336 293.200 C 256.037 293.200,255.254 293.826,254.596 294.591 C 253.938 295.357,253.085 295.987,252.700 295.991 C 252.315 295.996,252.000 296.180,252.000 296.400 C 252.000 296.620,251.719 296.800,251.376 296.800 C 251.033 296.800,250.864 296.980,251.000 297.200 C 251.138 297.423,250.834 297.600,250.312 297.600 C 249.797 297.600,249.117 297.960,248.800 298.400 C 248.483 298.840,247.903 299.200,247.512 299.200 C 247.120 299.200,246.800 299.470,246.800 299.800 C 246.800 300.158,246.432 300.400,245.888 300.400 C 245.387 300.400,244.717 300.760,244.400 301.200 C 244.083 301.640,243.503 302.000,243.112 302.000 C 242.720 302.000,242.400 302.180,242.400 302.400 C 242.400 302.620,242.040 302.800,241.600 302.800 C 241.160 302.800,240.800 302.980,240.800 303.200 C 240.800 303.420,240.350 303.600,239.800 303.600 C 239.250 303.600,238.800 303.780,238.800 304.000 C 238.800 304.220,238.440 304.400,238.000 304.400 C 237.540 304.400,237.200 304.667,237.200 305.027 C 237.200 305.484,236.970 305.581,236.350 305.384 C 235.782 305.204,235.590 305.260,235.771 305.553 C 235.936 305.821,235.816 305.904,235.461 305.768 C 235.142 305.646,234.762 305.738,234.617 305.973 C 234.472 306.208,234.003 306.400,233.576 306.400 C 233.149 306.400,232.800 306.580,232.800 306.800 C 232.800 307.020,232.440 307.200,232.000 307.200 C 231.560 307.200,231.200 307.380,231.200 307.600 C 231.200 307.820,230.975 308.000,230.700 308.000 C 230.209 308.000,230.155 331.259,230.500 393.849 C 230.585 409.270,230.518 411.867,230.034 411.681 C 229.674 411.543,229.574 411.634,229.758 411.932 C 229.917 412.189,229.857 412.400,229.624 412.400 C 229.391 412.400,229.200 412.542,229.200 412.715 C 229.200 413.242,230.866 413.192,231.409 412.648 C 231.701 412.356,232.660 412.179,233.658 412.233 C 234.615 412.286,235.520 412.130,235.669 411.888 C 235.819 411.646,236.765 411.490,237.771 411.542 C 238.838 411.597,239.600 411.462,239.600 411.218 C 239.600 410.988,240.410 410.800,241.400 410.800 C 242.390 410.800,243.200 410.620,243.200 410.400 C 243.200 410.180,243.909 410.000,244.776 410.000 C 245.643 410.000,246.464 409.820,246.600 409.600 C 246.736 409.380,247.472 409.200,248.236 409.200 C 249.102 409.200,249.712 408.974,249.855 408.600 C 249.997 408.230,250.605 408.000,251.443 408.000 C 252.189 408.000,252.800 407.820,252.800 407.600 C 252.800 407.380,253.340 407.200,254.000 407.200 C 254.660 407.200,255.200 407.020,255.200 406.800 C 255.200 406.580,255.830 406.400,256.600 406.400 C 257.370 406.400,258.000 406.220,258.000 406.000 C 258.000 405.780,258.540 405.600,259.200 405.600 C 259.860 405.600,260.400 405.420,260.400 405.200 C 260.400 404.980,261.030 404.800,261.800 404.800 C 262.570 404.800,263.200 404.620,263.200 404.400 C 263.200 404.180,263.740 404.000,264.400 404.000 C 265.060 404.000,265.600 403.820,265.600 403.600 C 265.600 403.380,266.028 403.200,266.551 403.200 C 267.074 403.200,267.726 402.930,268.000 402.600 C 268.274 402.270,268.836 402.000,269.249 402.000 C 269.662 402.000,270.000 401.820,270.000 401.600 C 270.000 401.380,270.540 401.200,271.200 401.200 C 271.860 401.200,272.400 401.020,272.400 400.800 C 272.400 400.580,272.850 400.400,273.400 400.400 C 273.950 400.400,274.400 400.220,274.400 400.000 C 274.400 399.780,274.760 399.600,275.200 399.600 C 275.640 399.600,276.000 399.420,276.000 399.200 C 276.000 398.980,276.463 398.800,277.029 398.800 C 277.594 398.800,278.329 398.528,278.661 398.196 C 278.993 397.864,279.431 397.696,279.635 397.822 C 279.839 397.948,280.114 397.769,280.246 397.425 C 280.378 397.081,280.826 396.800,281.243 396.800 C 281.659 396.800,282.000 396.620,282.000 396.400 C 282.000 396.180,282.450 396.000,283.000 396.000 C 283.550 396.000,284.000 395.820,284.000 395.600 C 284.000 395.380,284.360 395.200,284.800 395.200 C 285.240 395.200,285.600 395.020,285.600 394.800 C 285.600 394.580,285.960 394.400,286.400 394.400 C 286.840 394.400,287.200 394.220,287.200 394.000 C 287.200 393.780,287.560 393.600,288.000 393.600 C 288.440 393.600,288.800 393.420,288.800 393.200 C 288.800 392.980,289.166 392.800,289.613 392.800 C 290.059 392.800,290.529 392.530,290.655 392.200 C 290.782 391.870,291.226 391.600,291.643 391.600 C 292.059 391.600,292.400 391.420,292.400 391.200 C 292.400 390.980,292.760 390.800,293.200 390.800 C 293.640 390.800,294.000 390.620,294.000 390.400 C 294.000 390.180,294.270 390.000,294.600 390.000 C 294.930 390.000,295.200 389.820,295.200 389.600 C 295.200 389.380,295.560 389.200,296.000 389.200 C 296.440 389.200,296.800 389.020,296.800 388.800 C 296.800 388.580,297.083 388.400,297.429 388.400 C 298.147 388.400,299.200 387.466,299.200 386.829 C 299.200 386.593,299.650 386.400,300.200 386.400 C 300.750 386.400,301.200 386.220,301.200 386.000 C 301.200 385.780,301.520 385.600,301.912 385.600 C 302.303 385.600,302.883 385.240,303.200 384.800 C 303.517 384.360,304.097 384.000,304.488 384.000 C 304.880 384.000,305.200 383.820,305.200 383.600 C 305.200 383.380,305.470 383.200,305.800 383.200 C 306.130 383.200,306.400 383.020,306.400 382.800 C 306.400 382.580,306.683 382.400,307.029 382.400 C 307.747 382.400,308.800 381.466,308.800 380.829 C 308.800 380.593,309.160 380.400,309.600 380.400 C 310.040 380.400,310.400 380.220,310.400 380.000 C 310.400 379.780,310.670 379.600,311.000 379.600 C 311.330 379.600,311.600 379.420,311.600 379.200 C 311.600 378.980,311.920 378.800,312.312 378.800 C 312.703 378.800,313.283 378.440,313.600 378.000 C 313.917 377.560,314.431 377.200,314.741 377.200 C 315.052 377.200,315.900 376.570,316.626 375.800 C 317.352 375.030,318.156 374.400,318.413 374.400 C 318.669 374.400,319.383 373.860,320.000 373.200 C 320.617 372.540,321.319 372.000,321.560 372.000 C 321.802 372.000,322.000 371.820,322.000 371.600 C 322.000 371.380,322.207 371.200,322.460 371.200 C 322.713 371.200,323.685 370.390,324.620 369.400 C 325.556 368.410,326.564 367.594,326.860 367.587 C 327.409 367.575,329.600 365.830,329.600 365.406 C 329.600 365.049,332.330 362.400,332.698 362.400 C 332.877 362.400,333.283 362.040,333.600 361.600 C 333.917 361.160,334.329 360.800,334.514 360.800 C 334.903 360.800,337.825 358.031,342.273 353.447 C 343.471 352.211,344.620 351.200,344.826 351.200 C 345.032 351.200,345.200 350.840,345.200 350.400 C 345.200 349.960,345.380 349.600,345.600 349.600 C 345.820 349.600,346.000 349.414,346.000 349.187 C 346.000 348.704,348.623 346.000,349.092 346.000 C 349.267 346.000,349.768 345.520,350.205 344.934 C 350.642 344.348,351.225 343.641,351.500 343.363 C 351.775 343.085,352.005 342.619,352.011 342.329 C 352.017 342.038,352.827 341.096,353.811 340.235 C 354.795 339.374,355.600 338.415,355.600 338.104 C 355.600 337.792,356.320 336.846,357.200 336.000 C 358.080 335.154,358.800 334.265,358.800 334.024 C 358.800 333.783,359.430 332.974,360.200 332.226 C 360.970 331.479,361.600 330.621,361.600 330.322 C 361.600 330.022,361.960 329.517,362.400 329.200 C 362.840 328.883,363.200 328.290,363.200 327.883 C 363.200 327.072,364.094 326.000,364.771 326.000 C 365.007 326.000,365.200 325.680,365.200 325.288 C 365.200 324.897,365.560 324.317,366.000 324.000 C 366.440 323.683,366.800 323.103,366.800 322.712 C 366.800 322.320,366.980 322.000,367.200 322.000 C 367.420 322.000,367.600 321.730,367.600 321.400 C 367.600 321.070,367.780 320.800,368.000 320.800 C 368.220 320.800,368.400 320.480,368.400 320.088 C 368.400 319.697,368.760 319.117,369.200 318.800 C 369.640 318.483,370.000 317.922,370.000 317.554 C 370.000 317.187,370.270 316.782,370.600 316.655 C 370.930 316.529,371.200 316.099,371.200 315.701 C 371.200 315.303,371.560 314.717,372.000 314.400 C 372.440 314.083,372.800 313.503,372.800 313.112 C 372.800 312.720,372.980 312.400,373.200 312.400 C 373.420 312.400,373.600 311.950,373.600 311.400 C 373.600 310.850,373.780 310.400,374.000 310.400 C 374.220 310.400,374.400 310.080,374.400 309.688 C 374.400 309.297,374.769 308.712,375.219 308.388 C 376.092 307.762,377.200 305.832,377.200 304.939 C 377.200 304.642,377.380 304.400,377.600 304.400 C 377.820 304.400,378.000 304.040,378.000 303.600 C 378.000 303.160,378.180 302.800,378.400 302.800 C 378.620 302.800,378.800 302.440,378.800 302.000 C 378.800 301.560,378.980 301.200,379.200 301.200 C 379.420 301.200,379.600 300.750,379.600 300.200 C 379.600 299.650,379.780 299.200,380.000 299.200 C 380.220 299.200,380.400 298.840,380.400 298.400 C 380.400 297.960,380.567 297.600,380.771 297.600 C 381.297 297.600,382.400 295.256,382.400 294.139 C 382.400 293.622,382.580 293.200,382.800 293.200 C 383.020 293.200,383.200 292.840,383.200 292.400 C 383.200 291.960,383.380 291.600,383.600 291.600 C 383.820 291.600,384.000 291.251,384.000 290.824 C 384.000 290.397,384.180 289.936,384.400 289.800 C 384.620 289.664,384.800 289.203,384.800 288.776 C 384.800 288.349,384.980 288.000,385.200 288.000 C 385.420 288.000,385.600 287.479,385.600 286.843 C 385.600 286.183,385.858 285.587,386.200 285.455 C 386.551 285.321,386.800 284.721,386.800 284.013 C 386.800 283.346,386.980 282.800,387.200 282.800 C 387.420 282.800,387.600 282.440,387.600 282.000 C 387.600 281.560,387.780 281.200,388.000 281.200 C 388.220 281.200,388.400 280.671,388.400 280.024 C 388.400 279.377,388.580 278.736,388.800 278.600 C 389.020 278.464,389.200 277.823,389.200 277.176 C 389.200 276.529,389.380 276.000,389.600 276.000 C 389.820 276.000,390.000 275.460,390.000 274.800 C 390.000 274.140,390.180 273.600,390.400 273.600 C 390.620 273.600,390.800 272.970,390.800 272.200 C 390.800 271.430,390.980 270.800,391.200 270.800 C 391.420 270.800,391.600 270.279,391.600 269.643 C 391.600 268.983,391.858 268.387,392.200 268.255 C 392.596 268.103,392.800 267.477,392.800 266.413 C 392.800 265.526,392.980 264.800,393.200 264.800 C 393.420 264.800,393.600 264.170,393.600 263.400 C 393.600 262.630,393.780 262.000,394.000 262.000 C 394.220 262.000,394.400 261.280,394.400 260.400 C 394.400 259.520,394.580 258.800,394.800 258.800 C 395.020 258.800,395.200 257.990,395.200 257.000 C 395.200 256.010,395.380 255.200,395.600 255.200 C 395.820 255.200,396.000 254.210,396.000 253.000 C 396.000 251.790,396.180 250.800,396.400 250.800 C 396.620 250.800,396.800 249.919,396.800 248.843 C 396.800 247.472,396.980 246.817,397.400 246.655 C 397.841 246.486,398.000 245.791,398.000 244.036 C 398.000 242.722,398.180 241.536,398.400 241.400 C 398.620 241.264,398.800 239.939,398.800 238.456 C 398.800 236.833,398.999 235.561,399.300 235.260 C 399.690 234.870,399.800 228.777,399.800 207.513 C 399.800 186.072,399.693 180.231,399.300 180.100 C 398.960 179.987,398.800 178.984,398.800 176.967 C 398.800 175.256,398.631 174.000,398.400 174.000 C 398.178 174.000,398.000 172.929,398.000 171.587 C 398.000 169.812,397.842 169.114,397.400 168.945 C 396.981 168.784,396.800 168.131,396.800 166.781 C 396.800 165.717,396.620 164.736,396.400 164.600 C 396.180 164.464,396.000 163.463,396.000 162.376 C 396.000 161.289,395.820 160.400,395.600 160.400 C 395.380 160.400,395.200 159.590,395.200 158.600 C 395.200 157.610,395.020 156.800,394.800 156.800 C 394.580 156.800,394.400 156.091,394.400 155.224 C 394.400 154.357,394.220 153.536,394.000 153.400 C 393.780 153.264,393.600 152.623,393.600 151.976 C 393.600 151.329,393.420 150.800,393.200 150.800 C 392.980 150.800,392.800 150.074,392.800 149.187 C 392.800 148.123,392.596 147.497,392.200 147.345 C 391.858 147.213,391.600 146.617,391.600 145.957 C 391.600 145.321,391.420 144.800,391.200 144.800 C 390.980 144.800,390.800 144.170,390.800 143.400 C 390.800 142.630,390.620 142.000,390.400 142.000 C 390.180 142.000,390.000 141.460,390.000 140.800 C 390.000 140.140,389.820 139.600,389.600 139.600 C 389.380 139.600,389.200 138.970,389.200 138.200 C 389.200 137.430,389.020 136.800,388.800 136.800 C 388.580 136.800,388.400 136.260,388.400 135.600 C 388.400 134.940,388.220 134.400,388.000 134.400 C 387.780 134.400,387.600 134.040,387.600 133.600 C 387.600 133.160,387.420 132.800,387.200 132.800 C 386.980 132.800,386.800 132.254,386.800 131.587 C 386.800 130.879,386.551 130.279,386.200 130.145 C 385.870 130.018,385.600 129.574,385.600 129.157 C 385.600 128.741,385.420 128.400,385.200 128.400 C 384.980 128.400,384.800 127.770,384.800 127.000 C 384.800 126.230,384.620 125.600,384.400 125.600 C 384.180 125.600,384.000 125.240,384.000 124.800 C 384.000 124.360,383.820 124.000,383.600 124.000 C 383.380 124.000,383.200 123.640,383.200 123.200 C 383.200 122.760,383.020 122.400,382.800 122.400 C 382.580 122.400,382.400 121.965,382.400 121.432 C 382.400 120.410,381.209 118.007,380.700 118.003 C 380.535 118.001,380.400 117.640,380.400 117.200 C 380.400 116.760,380.220 116.400,380.000 116.400 C 379.780 116.400,379.600 115.950,379.600 115.400 C 379.600 114.850,379.420 114.400,379.200 114.400 C 378.980 114.400,378.800 114.040,378.800 113.600 C 378.800 113.160,378.620 112.800,378.400 112.800 C 378.180 112.800,378.000 112.440,378.000 112.000 C 378.000 111.560,377.820 111.200,377.600 111.200 C 377.380 111.200,377.200 110.958,377.200 110.661 C 377.200 109.768,376.092 107.838,375.219 107.212 C 374.769 106.888,374.400 106.203,374.400 105.688 C 374.400 105.166,374.223 104.862,374.000 105.000 C 373.773 105.140,373.600 104.804,373.600 104.224 C 373.600 103.661,373.420 103.200,373.200 103.200 C 372.980 103.200,372.800 102.880,372.800 102.488 C 372.800 102.097,372.440 101.517,372.000 101.200 C 371.560 100.883,371.200 100.297,371.200 99.899 C 371.200 99.501,370.930 99.071,370.600 98.945 C 370.270 98.818,370.000 98.413,370.000 98.046 C 370.000 97.678,369.640 97.117,369.200 96.800 C 368.760 96.483,368.400 95.903,368.400 95.512 C 368.400 95.120,368.220 94.800,368.000 94.800 C 367.780 94.800,367.600 94.530,367.600 94.200 C 367.600 93.870,367.420 93.600,367.200 93.600 C 366.980 93.600,366.800 93.280,366.800 92.888 C 366.800 92.497,366.440 91.917,366.000 91.600 C 365.560 91.283,365.197 90.838,365.193 90.612 C 365.189 90.385,364.739 89.776,364.193 89.258 C 363.647 88.740,363.200 88.047,363.200 87.718 C 363.200 87.390,362.660 86.617,362.000 86.000 C 361.340 85.383,360.800 84.614,360.800 84.290 C 360.800 83.967,360.170 83.164,359.400 82.506 C 358.630 81.848,358.000 81.088,358.000 80.816 C 358.000 80.544,357.460 79.817,356.800 79.200 C 356.140 78.583,355.600 77.839,355.600 77.546 C 355.600 77.253,354.610 76.085,353.400 74.949 C 352.190 73.814,351.200 72.588,351.200 72.225 C 351.200 71.559,349.509 69.607,348.918 69.591 C 348.743 69.587,348.060 68.939,347.400 68.152 C 345.190 65.516,343.267 63.600,342.831 63.600 C 342.594 63.600,342.400 63.240,342.400 62.800 C 342.400 62.360,342.220 62.000,342.000 62.000 C 341.780 62.000,341.600 61.719,341.600 61.376 C 341.600 61.033,341.420 60.864,341.200 61.000 C 340.980 61.136,340.800 61.048,340.800 60.805 C 340.800 60.245,338.974 58.400,338.418 58.400 C 338.188 58.400,338.000 58.220,338.000 58.000 C 338.000 57.780,337.640 57.600,337.200 57.600 C 336.742 57.600,336.400 57.333,336.400 56.976 C 336.400 56.633,336.220 56.464,336.000 56.600 C 335.780 56.736,335.600 56.651,335.600 56.410 C 335.600 55.963,333.014 53.200,332.595 53.200 C 332.291 53.200,330.400 51.305,330.400 51.000 C 330.400 50.481,328.395 48.800,327.775 48.800 C 327.412 48.800,326.186 47.810,325.051 46.600 C 323.915 45.390,322.765 44.400,322.493 44.400 C 322.222 44.400,322.000 44.220,322.000 44.000 C 322.000 43.780,321.770 43.600,321.488 43.600 C 321.207 43.600,320.717 43.240,320.400 42.800 C 320.083 42.360,319.548 41.996,319.212 41.991 C 318.875 41.987,318.062 41.357,317.404 40.591 C 316.746 39.826,315.963 39.200,315.664 39.200 C 315.365 39.200,314.617 38.660,314.000 38.000 C 313.383 37.340,312.591 36.800,312.240 36.800 C 311.888 36.800,311.600 36.620,311.600 36.400 C 311.600 36.180,311.407 36.000,311.171 36.000 C 310.936 36.000,310.471 35.728,310.139 35.396 C 309.807 35.064,309.370 34.895,309.168 35.020 C 308.965 35.145,308.800 35.044,308.800 34.795 C 308.800 34.138,307.759 33.200,307.029 33.200 C 306.683 33.200,306.400 33.020,306.400 32.800 C 306.400 32.580,306.130 32.400,305.800 32.400 C 305.470 32.400,305.200 32.220,305.200 32.000 C 305.200 31.780,304.880 31.600,304.488 31.600 C 304.097 31.600,303.517 31.240,303.200 30.800 C 302.883 30.360,302.322 30.000,301.954 30.000 C 301.587 30.000,301.182 29.730,301.055 29.400 C 300.929 29.070,300.499 28.800,300.101 28.800 C 299.703 28.800,299.117 28.440,298.800 28.000 C 298.483 27.560,297.903 27.200,297.512 27.200 C 297.120 27.200,296.800 27.020,296.800 26.800 C 296.800 26.580,296.440 26.400,296.000 26.400 C 295.560 26.400,295.200 26.220,295.200 26.000 C 295.200 25.780,294.750 25.600,294.200 25.600 C 293.650 25.600,293.200 25.420,293.200 25.200 C 293.200 24.980,292.840 24.800,292.400 24.800 C 291.942 24.800,291.600 24.533,291.600 24.176 C 291.600 23.833,291.439 23.652,291.242 23.774 C 291.045 23.896,290.781 23.726,290.654 23.398 C 290.528 23.069,290.059 22.800,289.613 22.800 C 289.166 22.800,288.800 22.620,288.800 22.400 C 288.800 22.180,288.440 22.000,288.000 22.000 C 287.560 22.000,287.200 21.820,287.200 21.600 C 287.200 21.380,286.840 21.200,286.400 21.200 C 285.960 21.200,285.600 21.020,285.600 20.800 C 285.600 20.580,285.150 20.400,284.600 20.400 C 284.050 20.400,283.600 20.220,283.600 20.000 C 283.600 19.780,283.317 19.600,282.971 19.600 C 282.626 19.600,282.073 19.330,281.743 19.000 C 281.413 18.670,280.796 18.400,280.371 18.400 C 279.947 18.400,279.600 18.220,279.600 18.000 C 279.600 17.780,279.150 17.600,278.600 17.600 C 278.050 17.600,277.600 17.420,277.600 17.200 C 277.600 16.980,277.240 16.800,276.800 16.800 C 276.360 16.800,276.000 16.620,276.000 16.400 C 276.000 16.180,275.640 16.000,275.200 16.000 C 274.760 16.000,274.400 15.820,274.400 15.600 C 274.400 15.380,273.770 15.200,273.000 15.200 C 272.230 15.200,271.600 15.020,271.600 14.800 C 271.600 14.580,271.317 14.400,270.971 14.400 C 270.626 14.400,270.067 14.124,269.729 13.786 C 269.376 13.433,268.793 13.275,268.356 13.414 C 267.868 13.569,267.510 13.430,267.355 13.028 C 267.223 12.682,266.774 12.400,266.357 12.400 C 265.941 12.400,265.600 12.220,265.600 12.000 C 265.600 11.780,265.060 11.600,264.400 11.600 C 263.740 11.600,263.200 11.420,263.200 11.200 C 263.200 10.980,262.570 10.800,261.800 10.800 C 261.030 10.800,260.400 10.620,260.400 10.400 C 260.400 10.180,259.860 10.000,259.200 10.000 C 258.540 10.000,258.000 9.820,258.000 9.600 C 258.000 9.380,257.370 9.200,256.600 9.200 C 255.830 9.200,255.200 9.020,255.200 8.800 C 255.200 8.580,254.679 8.400,254.043 8.400 C 253.383 8.400,252.787 8.142,252.655 7.800 C 252.503 7.404,251.877 7.200,250.813 7.200 C 249.926 7.200,249.200 7.020,249.200 6.800 C 249.200 6.580,248.390 6.400,247.400 6.400 C 246.410 6.400,245.600 6.220,245.600 6.000 C 245.600 5.780,245.060 5.600,244.400 5.600 C 243.740 5.600,243.200 5.420,243.200 5.200 C 243.200 4.980,242.210 4.800,241.000 4.800 C 239.790 4.800,238.800 4.655,238.800 4.478 C 238.800 4.302,238.041 4.140,237.114 4.120 C 236.186 4.099,235.361 3.884,235.280 3.641 C 235.200 3.399,234.263 3.200,233.200 3.200 C 232.137 3.200,231.201 3.004,231.122 2.765 C 230.862 1.985,227.993 1.946,227.719 2.719 M78.900 34.300 C 83.245 34.364,90.355 34.364,94.700 34.300 C 99.045 34.235,95.490 34.182,86.800 34.182 C 78.110 34.182,74.555 34.235,78.900 34.300 M146.900 67.900 C 156.519 67.974,161.200 68.147,161.200 68.429 C 161.200 68.659,161.380 68.736,161.600 68.600 C 162.992 67.740,160.900 67.607,147.300 67.695 L 132.600 67.790 146.900 67.900 M80.800 70.400 C 80.800 70.840,80.980 71.200,81.200 71.200 C 81.420 71.200,81.600 70.840,81.600 70.400 C 81.600 69.960,81.420 69.600,81.200 69.600 C 80.980 69.600,80.800 69.960,80.800 70.400 M143.481 96.386 C 143.823 97.698,144.570 98.059,145.120 97.180 C 145.413 96.711,145.446 96.400,145.203 96.400 C 144.982 96.400,144.800 96.580,144.800 96.800 C 144.800 97.020,144.620 97.200,144.400 97.200 C 144.180 97.200,144.000 96.941,144.000 96.624 C 144.000 96.307,143.837 95.946,143.637 95.823 C 143.438 95.700,143.367 95.953,143.481 96.386 M197.447 100.979 C 197.628 101.449,198.235 101.586,199.943 101.544 L 202.200 101.487 200.200 101.237 C 199.100 101.099,197.977 100.845,197.705 100.672 C 197.364 100.457,197.284 100.553,197.447 100.979 M222.498 105.300 C 222.588 105.575,223.188 105.832,223.831 105.872 C 224.474 105.911,224.685 105.853,224.300 105.742 C 223.915 105.632,223.600 105.375,223.600 105.171 C 223.600 104.967,223.315 104.800,222.967 104.800 C 222.618 104.800,222.407 105.025,222.498 105.300 M228.400 308.400 C 228.400 308.620,227.860 308.800,227.200 308.800 C 226.540 308.800,226.000 308.980,226.000 309.200 C 226.000 309.420,225.482 309.600,224.849 309.600 C 224.216 309.600,223.474 309.870,223.200 310.200 C 222.794 310.689,222.816 310.800,223.318 310.800 C 223.656 310.800,223.993 310.626,224.067 310.413 C 224.239 309.913,226.236 309.785,227.900 310.166 C 228.920 310.400,229.200 310.335,229.200 309.864 C 229.200 309.535,229.309 308.981,229.443 308.633 C 229.602 308.218,229.465 308.000,229.043 308.000 C 228.689 308.000,228.400 308.180,228.400 308.400 M220.942 310.893 C 220.557 311.518,221.029 311.613,221.782 311.063 C 222.430 310.589,222.436 310.533,221.835 310.533 C 221.467 310.533,221.065 310.695,220.942 310.893 M217.200 312.000 C 217.200 312.220,217.459 312.400,217.776 312.400 C 218.093 312.400,218.464 312.220,218.600 312.000 C 218.736 311.780,218.477 311.600,218.024 311.600 C 217.571 311.600,217.200 311.780,217.200 312.000 M208.800 313.596 C 208.800 313.813,209.237 313.955,209.771 313.911 C 210.305 313.866,210.655 313.688,210.548 313.515 C 210.266 313.060,208.800 313.127,208.800 313.596 M191.911 315.093 C 192.851 315.178,194.291 315.177,195.111 315.091 C 195.930 315.005,195.160 314.936,193.400 314.937 C 191.640 314.939,190.970 315.009,191.911 315.093 M227.334 412.173 C 227.484 412.564,227.179 412.829,226.374 413.006 C 225.677 413.159,225.302 413.441,225.458 413.694 C 225.604 413.930,225.549 414.016,225.336 413.884 C 225.123 413.753,224.061 413.794,222.975 413.975 L 221.000 414.306 223.713 414.353 C 225.786 414.389,226.479 414.259,226.655 413.800 C 226.782 413.470,227.136 413.200,227.443 413.200 C 227.749 413.200,228.013 412.885,228.028 412.500 C 228.053 411.888,228.094 411.897,228.358 412.571 C 228.638 413.286,228.680 413.291,228.930 412.638 C 229.320 411.622,229.303 411.600,228.157 411.600 C 227.416 411.600,227.178 411.766,227.334 412.173 M219.380 414.369 C 219.171 414.572,218.460 414.821,217.800 414.922 C 217.140 415.023,217.486 415.082,218.569 415.053 C 219.748 415.021,220.603 414.800,220.702 414.500 C 220.893 413.920,219.939 413.826,219.380 414.369 M210.600 415.600 C 209.474 415.887,209.505 415.908,211.100 415.953 C 212.035 415.979,212.800 415.820,212.800 415.600 C 212.800 415.153,212.356 415.153,210.600 415.600 " stroke="none" fill="#158c5c" fill-rule="evenodd"></path><path id="path4" d="M9.300 10.709 C 8.715 10.804,8.400 11.136,8.400 11.656 C 8.400 12.097,8.175 12.708,7.900 13.015 C 7.625 13.321,7.169 13.848,6.886 14.184 C 6.253 14.938,3.024 21.249,2.989 21.800 C 2.975 22.020,2.733 22.150,2.452 22.090 C 2.098 22.014,2.024 22.246,2.213 22.840 C 2.397 23.420,2.342 23.611,2.043 23.426 C 1.774 23.260,1.600 23.476,1.600 23.976 C 1.600 24.429,1.351 24.800,1.047 24.800 C 0.440 24.800,0.014 25.987,0.005 27.700 L 0.000 28.800 10.000 28.800 C 15.500 28.800,20.014 28.665,20.031 28.500 C 20.047 28.335,20.120 27.893,20.193 27.517 C 20.265 27.142,20.071 26.625,19.762 26.368 C 19.453 26.112,19.200 25.654,19.200 25.351 C 19.200 25.048,19.020 24.800,18.800 24.800 C 18.580 24.800,18.400 24.440,18.400 24.000 C 18.400 23.560,18.264 23.200,18.098 23.200 C 17.931 23.200,17.541 22.615,17.230 21.900 C 16.919 21.185,16.559 20.510,16.430 20.400 C 16.301 20.290,15.664 19.165,15.013 17.900 C 14.363 16.635,13.689 15.600,13.516 15.600 C 13.342 15.600,13.200 15.330,13.200 15.000 C 13.200 14.670,13.020 14.400,12.800 14.400 C 12.580 14.400,12.400 14.040,12.400 13.600 C 12.400 13.160,12.220 12.800,12.000 12.800 C 11.780 12.800,11.600 12.558,11.600 12.262 C 11.600 11.426,10.297 10.546,9.300 10.709 M54.000 70.220 C 54.000 70.990,54.957 72.880,56.456 75.072 C 57.085 75.992,57.600 77.027,57.600 77.372 C 57.600 77.717,57.780 78.000,58.000 78.000 C 58.220 78.000,58.400 78.270,58.400 78.600 C 58.400 78.930,58.544 79.200,58.720 79.200 C 58.895 79.200,59.267 79.830,59.546 80.600 C 59.824 81.370,60.220 82.000,60.426 82.000 C 60.632 82.000,60.800 82.257,60.800 82.571 C 60.800 82.886,61.076 83.419,61.414 83.757 C 61.752 84.095,62.022 84.468,62.014 84.586 C 61.959 85.421,62.036 85.698,62.261 85.473 C 62.560 85.173,63.600 87.016,63.600 87.846 C 63.600 88.151,63.747 88.400,63.926 88.400 C 64.105 88.400,64.563 88.985,64.942 89.700 C 66.198 92.064,66.788 93.004,66.794 92.651 C 66.797 92.459,67.074 92.530,67.410 92.808 C 67.745 93.086,68.081 93.243,68.156 93.157 C 68.964 92.227,70.400 89.437,70.400 88.795 C 70.400 88.344,70.669 87.872,70.998 87.746 C 71.326 87.619,71.496 87.355,71.374 87.158 C 71.252 86.961,71.351 86.800,71.594 86.800 C 71.837 86.800,72.006 86.575,71.970 86.300 C 71.838 85.279,72.009 84.358,72.300 84.534 C 72.465 84.634,72.832 84.465,73.116 84.158 C 73.413 83.836,73.456 83.600,73.216 83.600 C 72.987 83.600,72.800 83.408,72.800 83.173 C 72.800 82.922,73.171 82.850,73.700 82.999 C 74.396 83.195,74.464 83.159,74.000 82.841 C 73.525 82.516,73.371 81.225,73.263 76.637 C 73.145 71.653,73.033 70.820,72.463 70.669 C 72.098 70.572,72.475 70.472,73.300 70.446 C 74.125 70.421,74.800 70.220,74.800 70.000 C 74.800 69.744,71.067 69.600,64.400 69.600 C 55.274 69.600,54.000 69.676,54.000 70.220 " stroke="none" fill="#46a598" fill-rule="evenodd"></path><path id="path5" d="M153.600 33.000 L 153.600 66.000 150.571 66.000 C 148.506 66.000,147.364 66.178,146.982 66.561 C 146.072 67.471,147.044 67.600,154.833 67.600 C 160.937 67.600,162.000 67.689,162.000 68.200 C 162.000 68.530,161.832 68.800,161.626 68.800 C 161.420 68.800,161.024 69.430,160.746 70.200 C 160.467 70.970,160.095 71.600,159.920 71.600 C 159.744 71.600,159.600 71.960,159.600 72.400 C 159.600 72.840,159.420 73.200,159.200 73.200 C 158.980 73.200,158.800 73.545,158.800 73.967 C 158.800 74.388,158.665 74.793,158.500 74.867 C 158.069 75.058,156.000 78.306,156.000 78.791 C 156.000 79.016,155.820 79.200,155.600 79.200 C 155.380 79.200,155.200 79.560,155.200 80.000 C 155.200 80.440,155.020 80.800,154.800 80.800 C 154.580 80.800,154.400 81.160,154.400 81.600 C 154.400 82.040,154.220 82.400,154.000 82.400 C 153.780 82.400,153.600 82.670,153.600 83.000 C 153.600 83.330,153.330 83.600,153.000 83.600 C 152.670 83.600,152.400 83.887,152.400 84.238 C 152.400 84.589,152.079 85.354,151.686 85.938 C 151.293 86.522,150.708 87.540,150.386 88.200 C 150.065 88.860,149.693 89.490,149.561 89.600 C 149.287 89.827,148.400 91.453,148.400 91.727 C 148.400 91.826,148.778 92.005,149.240 92.126 C 149.701 92.247,149.974 92.241,149.846 92.113 C 149.718 91.985,150.060 91.465,150.607 90.959 C 151.153 90.453,151.600 89.709,151.600 89.307 C 151.600 88.905,151.956 88.320,152.391 88.006 C 152.826 87.693,153.026 87.338,152.835 87.218 C 152.645 87.098,152.739 86.768,153.044 86.484 C 153.517 86.045,153.600 87.043,153.600 93.172 L 153.600 100.376 140.733 100.388 C 133.656 100.395,127.776 100.491,127.666 100.600 C 127.557 100.710,140.457 100.800,156.333 100.800 L 185.200 100.800 185.200 50.400 L 185.200 0.000 169.400 0.000 L 153.600 0.000 153.600 33.000 M142.126 30.971 C 142.601 31.505,143.067 31.867,143.160 31.774 C 143.375 31.558,141.977 30.000,141.568 30.000 C 141.399 30.000,141.650 30.437,142.126 30.971 M133.919 32.698 C 135.744 32.772,138.624 32.772,140.319 32.697 C 142.014 32.622,140.520 32.561,137.000 32.562 C 133.480 32.562,132.094 32.624,133.919 32.698 M150.442 90.518 C 149.928 91.032,149.407 90.635,149.788 90.020 C 149.935 89.782,150.239 89.700,150.462 89.839 C 150.736 90.007,150.729 90.231,150.442 90.518 M147.754 92.940 C 147.509 93.221,147.077 93.889,146.794 94.425 C 146.512 94.961,146.172 95.490,146.039 95.600 C 145.907 95.710,145.551 96.281,145.249 96.868 C 144.890 97.564,144.473 97.865,144.049 97.730 C 143.488 97.552,143.481 97.583,144.000 97.956 C 144.863 98.577,144.948 98.537,145.784 97.100 C 146.717 95.495,147.275 95.098,147.723 95.721 C 147.928 96.006,147.977 95.674,147.844 94.900 C 147.711 94.127,147.788 93.600,148.034 93.600 C 148.261 93.600,148.336 93.780,148.200 94.000 C 148.064 94.220,148.124 94.400,148.334 94.400 C 148.710 94.400,149.200 93.477,149.200 92.767 C 149.200 92.234,148.275 92.345,147.754 92.940 M138.600 315.206 C 143.000 315.363,147.449 315.516,148.487 315.546 C 149.988 315.589,150.328 315.723,150.145 316.200 C 149.961 316.680,150.284 316.800,151.757 316.800 L 153.600 316.800 153.600 366.445 L 153.600 416.090 164.900 415.848 C 171.115 415.716,178.225 415.496,180.700 415.359 L 185.200 415.112 185.200 365.956 L 185.200 316.800 182.900 316.733 L 180.600 316.666 183.000 316.400 L 185.400 316.134 182.933 316.067 C 181.577 316.030,180.407 315.846,180.333 315.658 C 180.260 315.469,169.040 315.227,155.400 315.118 C 141.760 315.010,134.200 315.049,138.600 315.206 " stroke="none" fill="#1c8c74" fill-rule="evenodd"></path><path id="path6" d="M185.200 50.381 L 185.200 100.831 191.500 100.829 C 194.965 100.827,198.970 100.989,200.400 101.188 C 201.830 101.387,204.125 101.590,205.500 101.638 C 206.875 101.687,208.000 101.854,208.000 102.010 C 208.000 102.167,209.006 102.318,210.236 102.346 C 211.467 102.375,212.679 102.525,212.931 102.681 C 213.183 102.837,213.990 102.994,214.724 103.032 C 215.459 103.069,216.262 103.302,216.510 103.550 C 216.757 103.797,217.745 104.000,218.704 104.000 C 219.764 104.000,220.350 104.157,220.200 104.400 C 220.049 104.644,220.651 104.800,221.743 104.800 C 222.728 104.800,223.601 105.004,223.684 105.253 C 223.768 105.503,224.395 105.728,225.078 105.753 C 225.762 105.779,226.238 105.935,226.137 106.100 C 226.036 106.265,226.287 106.400,226.696 106.400 C 227.105 106.400,227.692 106.625,228.001 106.900 C 228.470 107.319,228.484 107.296,228.084 106.763 C 227.822 106.413,227.740 105.979,227.903 105.799 C 228.067 105.619,227.947 105.618,227.638 105.798 C 227.260 106.017,227.170 105.972,227.362 105.662 C 227.778 104.989,228.400 105.097,228.400 105.843 C 228.400 106.265,228.618 106.402,229.033 106.243 C 229.381 106.109,229.831 106.000,230.033 106.000 C 230.254 106.000,230.400 85.632,230.400 54.814 L 230.400 3.628 228.862 3.781 C 227.454 3.921,227.338 3.858,227.494 3.043 C 227.648 2.234,227.533 2.168,226.232 2.320 C 225.444 2.412,224.800 2.325,224.800 2.126 C 224.800 1.926,224.215 1.724,223.500 1.676 C 222.160 1.585,220.150 1.300,218.400 0.951 C 216.156 0.504,212.755 0.362,199.300 0.151 L 185.200 -0.069 185.200 50.381 M299.350 207.800 C 299.351 210.220,299.416 211.158,299.496 209.885 C 299.576 208.612,299.575 206.632,299.494 205.485 C 299.414 204.338,299.349 205.380,299.350 207.800 M229.341 309.193 C 229.109 310.353,229.005 310.420,227.846 310.154 C 226.229 309.783,224.236 309.920,224.067 310.413 C 223.993 310.626,223.576 310.800,223.140 310.800 C 222.704 310.800,222.030 310.970,221.643 311.177 C 221.255 311.384,220.464 311.618,219.884 311.695 C 219.305 311.773,218.703 311.963,218.548 312.118 C 218.393 312.273,217.397 312.400,216.333 312.400 C 215.270 312.400,214.400 312.580,214.400 312.800 C 214.400 313.020,213.536 313.200,212.480 313.200 C 211.424 313.200,210.368 313.392,210.133 313.627 C 209.897 313.863,208.646 314.062,207.353 314.070 C 206.059 314.078,204.280 314.272,203.400 314.500 C 202.384 314.763,192.534 314.924,176.400 314.941 C 162.430 314.955,157.615 315.022,165.700 315.089 C 175.031 315.166,180.400 315.354,180.400 315.605 C 180.400 315.822,181.525 316.030,182.900 316.067 L 185.400 316.134 183.000 316.400 L 180.600 316.666 182.900 316.733 L 185.200 316.800 185.200 365.940 L 185.200 415.079 179.900 415.393 C 176.985 415.566,169.830 415.839,164.000 416.000 C 156.752 416.201,161.685 416.258,179.600 416.179 C 204.509 416.070,210.753 415.923,211.557 415.427 C 211.751 415.306,213.495 415.110,215.430 414.991 C 217.366 414.871,219.141 414.624,219.375 414.442 C 219.609 414.260,220.700 414.062,221.800 414.002 C 222.900 413.942,224.188 413.872,224.662 413.846 C 225.136 413.821,225.449 413.680,225.358 413.533 C 225.267 413.385,225.724 413.148,226.374 413.006 C 227.179 412.829,227.484 412.564,227.334 412.173 C 227.177 411.764,227.420 411.600,228.184 411.600 C 229.096 411.600,229.214 411.727,228.982 412.458 C 228.744 413.208,228.786 413.246,229.313 412.758 C 229.644 412.451,229.815 412.034,229.692 411.832 C 229.569 411.629,229.776 411.582,230.155 411.727 C 230.533 411.872,230.744 411.832,230.624 411.638 C 230.504 411.444,230.402 388.146,230.397 359.863 C 230.389 311.380,230.249 304.657,229.341 309.193 " stroke="none" fill="#1c8c6c" fill-rule="evenodd"></path><path id="path7" d="M86.290 0.243 C 86.059 0.474,86.724 1.976,87.246 2.400 C 87.381 2.510,87.619 3.005,87.773 3.500 C 87.928 3.995,88.232 4.400,88.451 4.400 C 88.669 4.400,88.745 4.565,88.620 4.768 C 88.495 4.970,88.664 5.407,88.996 5.739 C 89.328 6.071,89.600 6.536,89.600 6.771 C 89.600 7.007,89.736 7.200,89.902 7.200 C 90.069 7.200,90.462 7.781,90.776 8.491 C 91.282 9.634,92.627 11.865,93.494 13.000 C 93.662 13.220,94.062 13.940,94.383 14.600 C 94.703 15.260,95.226 16.115,95.545 16.500 C 95.863 16.885,95.961 17.203,95.762 17.206 C 95.563 17.209,95.588 17.344,95.817 17.506 C 96.185 17.766,99.111 22.691,100.680 25.692 C 100.994 26.293,101.422 26.890,101.632 27.020 C 101.842 27.149,101.909 27.423,101.783 27.628 C 101.656 27.832,101.730 28.000,101.947 28.000 C 102.164 28.000,102.597 28.495,102.910 29.100 C 104.312 31.810,105.047 32.795,105.667 32.797 C 106.749 32.802,107.600 32.353,107.600 31.780 C 107.600 31.486,107.915 31.010,108.300 30.723 C 108.685 30.435,109.058 29.930,109.130 29.600 C 109.201 29.270,109.426 28.940,109.630 28.867 C 109.833 28.793,110.000 28.388,110.000 27.967 C 110.000 27.545,110.180 27.200,110.400 27.200 C 110.620 27.200,110.800 26.930,110.800 26.600 C 110.800 26.270,111.010 26.000,111.267 26.000 C 111.523 26.000,111.621 25.887,111.483 25.749 C 111.166 25.433,112.144 23.510,112.969 22.826 C 113.311 22.542,113.493 22.150,113.372 21.955 C 113.251 21.760,113.363 21.600,113.619 21.600 C 113.882 21.600,113.979 21.321,113.841 20.962 C 113.684 20.553,114.044 19.906,114.844 19.159 C 115.700 18.359,116.026 17.743,115.883 17.197 C 115.748 16.680,115.873 16.400,116.237 16.400 C 116.547 16.400,116.815 16.175,116.833 15.900 C 116.947 14.190,117.127 13.516,117.583 13.086 C 118.002 12.691,118.010 12.787,117.627 13.600 C 117.211 14.483,117.222 14.519,117.717 13.906 C 118.026 13.525,118.358 13.291,118.454 13.387 C 118.550 13.483,118.629 13.210,118.629 12.781 C 118.629 12.351,118.504 12.000,118.352 12.000 C 118.200 12.000,118.280 11.565,118.531 11.034 C 118.782 10.503,119.134 10.159,119.313 10.270 C 119.492 10.381,119.405 10.759,119.119 11.111 C 118.673 11.660,118.702 11.711,119.333 11.475 C 119.736 11.324,120.151 11.200,120.256 11.200 C 120.361 11.200,120.307 10.975,120.135 10.700 C 119.515 9.706,119.594 8.800,120.303 8.787 C 120.925 8.776,120.914 8.706,120.200 8.137 C 119.409 7.508,119.410 7.502,120.286 7.709 C 120.830 7.837,121.139 7.740,121.086 7.459 C 121.039 7.207,121.240 7.050,121.534 7.111 C 121.934 7.195,122.013 6.844,121.849 5.711 C 121.729 4.880,121.623 3.255,121.615 2.100 L 121.600 0.000 104.067 0.000 C 94.423 0.000,86.424 0.109,86.290 0.243 M74.800 70.000 C 74.800 70.220,74.125 70.421,73.300 70.446 C 72.475 70.472,72.115 70.575,72.500 70.676 C 73.117 70.837,73.200 71.420,73.200 75.579 C 73.200 83.333,73.789 84.493,75.695 80.496 C 77.043 77.668,78.104 75.843,78.500 75.667 C 78.665 75.593,78.800 75.208,78.800 74.809 C 78.800 74.411,79.070 73.982,79.400 73.855 C 79.730 73.729,80.000 73.349,80.000 73.013 C 80.000 72.676,80.180 72.400,80.400 72.400 C 80.620 72.400,80.800 71.770,80.800 71.000 L 80.800 69.600 77.800 69.600 C 76.067 69.600,74.800 69.769,74.800 70.000 M72.800 84.424 C 72.800 84.657,72.640 84.749,72.445 84.628 C 72.250 84.508,71.997 84.767,71.883 85.204 C 71.541 86.512,72.318 86.518,72.993 85.213 C 73.349 84.525,73.443 84.000,73.210 84.000 C 72.985 84.000,72.800 84.191,72.800 84.424 M70.692 87.842 C 70.531 88.002,70.400 88.409,70.400 88.747 C 70.400 89.197,70.518 89.242,70.845 88.915 C 71.090 88.670,71.221 88.263,71.137 88.010 C 71.052 87.757,70.852 87.681,70.692 87.842 " stroke="none" fill="#3ca48f" fill-rule="evenodd"></path><path id="path8" d="M125.892 0.242 C 125.731 0.402,125.600 0.809,125.600 1.147 C 125.600 1.597,125.718 1.642,126.045 1.315 C 126.290 1.070,126.421 0.663,126.337 0.410 C 126.252 0.157,126.052 0.081,125.892 0.242 M126.187 2.109 C 126.061 2.610,126.152 3.465,126.388 4.009 L 126.817 5.000 126.666 3.912 C 126.583 3.314,126.654 2.910,126.824 3.015 C 127.216 3.257,127.540 2.358,127.298 1.700 C 127.007 0.907,126.436 1.117,126.187 2.109 M128.579 5.357 C 128.782 5.997,128.725 6.035,128.209 5.608 C 127.829 5.292,127.600 5.262,127.600 5.527 C 127.600 5.761,127.822 6.090,128.093 6.257 C 128.898 6.755,129.867 6.694,129.867 6.146 C 129.867 5.865,129.728 5.721,129.558 5.826 C 129.388 5.931,129.045 5.698,128.794 5.308 C 128.371 4.649,128.356 4.653,128.579 5.357 M128.800 7.678 C 128.800 7.902,129.115 7.966,129.500 7.819 C 130.041 7.613,130.092 7.661,129.726 8.031 C 129.360 8.399,129.384 8.641,129.829 9.087 C 130.147 9.404,130.318 9.810,130.208 9.987 C 130.098 10.164,130.277 10.532,130.604 10.804 C 130.932 11.076,131.200 11.546,131.200 11.849 C 131.200 12.152,131.363 12.400,131.563 12.400 C 131.762 12.400,131.831 12.760,131.716 13.200 C 131.479 14.106,132.338 14.302,133.120 13.520 C 133.780 12.860,133.721 12.400,132.976 12.400 C 132.633 12.400,132.451 12.240,132.572 12.045 C 132.863 11.575,131.815 10.723,131.414 11.103 C 131.241 11.267,131.225 10.995,131.377 10.500 C 131.586 9.822,131.493 9.600,131.003 9.600 C 130.646 9.600,130.463 9.421,130.598 9.203 C 130.733 8.985,130.674 8.503,130.467 8.133 C 130.047 7.383,128.800 7.043,128.800 7.678 M133.340 14.174 C 133.087 14.453,133.012 14.896,133.175 15.160 C 133.394 15.513,133.608 15.472,133.998 15.002 C 134.643 14.225,134.013 13.432,133.340 14.174 M133.830 15.867 C 133.717 16.160,133.799 16.400,134.013 16.400 C 134.226 16.400,134.406 16.715,134.413 17.100 C 134.431 18.018,135.857 19.714,136.447 19.518 C 136.764 19.412,136.724 19.181,136.315 18.772 C 135.989 18.446,135.603 17.539,135.456 16.757 C 135.188 15.330,134.236 14.809,133.830 15.867 M136.880 20.080 C 136.301 20.659,136.235 21.749,136.800 21.400 C 137.020 21.264,137.200 21.351,137.200 21.593 C 137.200 22.463,138.774 23.786,139.247 23.313 C 139.751 22.809,139.341 21.865,138.772 22.217 C 138.568 22.344,138.400 22.246,138.400 22.000 C 138.400 21.754,138.239 21.652,138.042 21.774 C 137.571 22.065,137.162 20.966,137.455 20.200 C 137.733 19.476,137.527 19.433,136.880 20.080 M138.000 24.293 C 138.000 24.598,138.153 24.753,138.340 24.637 C 138.527 24.522,138.932 24.916,139.240 25.514 C 140.202 27.379,140.688 27.699,140.897 26.605 C 141.006 26.033,140.902 25.672,140.641 25.720 C 140.398 25.764,140.239 25.415,140.288 24.944 C 140.356 24.273,140.117 24.049,139.188 23.913 C 138.358 23.791,138.000 23.906,138.000 24.293 M141.300 27.892 C 140.448 28.189,140.749 28.640,141.800 28.640 C 142.350 28.640,142.800 28.515,142.800 28.363 C 142.800 27.970,141.893 27.685,141.300 27.892 M141.856 29.078 C 141.419 29.514,141.573 29.867,142.200 29.867 C 142.530 29.867,142.800 29.727,142.800 29.557 C 142.800 29.106,142.155 28.779,141.856 29.078 M142.720 30.880 C 144.653 32.813,144.493 32.828,125.300 32.549 C 115.455 32.406,107.521 32.420,107.668 32.579 C 107.852 32.778,143.457 33.588,144.250 33.411 C 144.756 33.299,144.712 31.600,144.203 31.600 C 143.846 31.600,143.652 31.439,143.774 31.242 C 143.896 31.045,143.712 30.775,143.365 30.642 C 142.403 30.273,142.191 30.351,142.720 30.880 M116.400 41.800 C 116.400 46.733,116.547 49.600,116.800 49.600 C 117.020 49.600,117.200 49.889,117.200 50.243 C 117.200 50.692,116.989 50.804,116.500 50.613 C 116.115 50.463,115.620 50.309,115.400 50.270 C 115.180 50.232,114.878 49.750,114.729 49.200 C 114.482 48.286,114.465 48.304,114.529 49.400 C 114.568 50.060,114.780 50.624,115.000 50.654 C 116.094 50.801,117.168 51.329,116.983 51.628 C 116.868 51.813,116.502 51.860,116.168 51.732 C 115.767 51.579,115.976 52.202,116.781 53.567 C 117.451 54.705,118.000 55.807,118.000 56.018 C 118.000 56.228,118.191 56.400,118.424 56.400 C 118.657 56.400,118.719 56.192,118.562 55.938 C 118.394 55.667,118.451 55.584,118.701 55.739 C 118.934 55.883,119.023 56.391,118.898 56.868 C 118.712 57.578,118.802 57.685,119.392 57.458 C 120.002 57.225,120.035 57.276,119.608 57.791 C 119.262 58.208,119.244 58.400,119.551 58.400 C 119.798 58.400,119.956 58.535,119.903 58.700 C 119.731 59.234,121.124 60.894,121.533 60.642 C 121.976 60.367,121.241 58.000,120.712 58.000 C 120.541 58.000,120.400 57.550,120.400 57.000 C 120.400 56.441,120.168 56.000,119.875 56.000 C 119.586 56.000,118.821 55.448,118.176 54.774 C 117.522 54.093,117.294 53.661,117.660 53.802 C 118.023 53.941,118.455 53.834,118.621 53.565 C 118.803 53.272,118.757 53.179,118.507 53.334 C 118.278 53.475,117.868 53.323,117.596 52.996 C 117.253 52.582,117.239 52.400,117.551 52.400 C 117.870 52.400,118.000 49.736,118.000 43.200 C 118.000 34.267,117.977 34.000,117.200 34.000 C 116.427 34.000,116.400 34.267,116.400 41.800 M108.428 38.929 C 108.413 39.329,108.679 39.936,109.020 40.277 C 109.360 40.618,109.743 41.415,109.870 42.048 C 110.006 42.732,110.356 43.200,110.730 43.200 C 111.220 43.200,111.253 43.093,110.880 42.720 C 110.616 42.456,110.400 41.916,110.400 41.520 C 110.400 41.124,110.175 40.797,109.900 40.794 C 109.567 40.790,109.600 40.658,110.000 40.400 C 110.580 40.025,110.523 39.957,109.540 39.850 C 109.287 39.823,108.940 39.440,108.768 39.000 C 108.489 38.285,108.453 38.277,108.428 38.929 M112.800 46.567 C 112.800 46.645,113.069 47.224,113.398 47.854 L 113.995 49.000 113.998 47.943 C 113.999 47.361,113.730 46.782,113.400 46.655 C 113.070 46.529,112.800 46.489,112.800 46.567 M121.900 61.157 C 121.515 61.548,121.320 61.987,121.467 62.133 C 121.933 62.600,122.400 62.421,122.400 61.776 C 122.400 61.433,122.578 61.263,122.795 61.397 C 123.022 61.537,123.089 61.377,122.953 61.021 C 122.822 60.679,122.689 60.411,122.657 60.424 C 122.626 60.437,122.285 60.767,121.900 61.157 M122.836 62.557 C 122.488 62.976,122.595 63.533,123.291 64.932 C 124.310 66.982,124.589 67.142,125.188 66.023 C 125.546 65.354,125.486 65.268,124.766 65.406 C 124.065 65.542,124.009 65.471,124.421 64.974 C 124.692 64.648,124.798 64.265,124.657 64.124 C 124.516 63.982,124.400 64.087,124.400 64.357 C 124.400 64.627,124.232 64.744,124.028 64.617 C 123.823 64.491,123.734 63.951,123.831 63.419 C 124.039 62.271,123.477 61.784,122.836 62.557 M125.400 66.400 C 125.264 66.620,125.298 66.803,125.476 66.806 C 125.654 66.809,125.530 66.987,125.200 67.200 C 124.848 67.427,124.795 67.590,125.071 67.594 C 125.331 67.597,125.810 67.333,126.136 67.007 C 126.623 66.519,128.573 66.393,137.065 66.300 L 147.400 66.186 136.524 66.093 C 129.602 66.034,125.557 66.145,125.400 66.400 M116.400 83.400 C 116.400 99.733,116.413 100.000,117.200 100.000 C 117.987 100.000,118.000 99.733,118.000 83.400 C 118.000 67.067,117.987 66.800,117.200 66.800 C 116.413 66.800,116.400 67.067,116.400 83.400 M126.286 67.948 C 125.751 69.021,125.763 69.082,126.479 68.895 C 126.901 68.785,127.168 68.494,127.073 68.247 C 126.956 67.943,127.814 67.799,129.751 67.798 C 140.533 67.790,147.344 67.551,146.800 67.200 C 146.455 66.977,142.082 66.810,136.529 66.806 L 126.859 66.800 126.286 67.948 M126.678 69.433 C 126.940 69.553,127.046 69.935,126.914 70.280 C 126.751 70.705,126.856 70.848,127.236 70.721 C 128.084 70.439,127.914 69.425,127.000 69.313 C 126.560 69.258,126.415 69.313,126.678 69.433 M128.100 70.855 C 127.507 71.453,127.421 72.958,128.000 72.600 C 128.220 72.464,128.400 72.522,128.400 72.730 C 128.400 72.937,128.760 73.201,129.200 73.316 C 130.123 73.557,130.331 72.612,129.431 72.267 C 129.118 72.147,128.803 71.667,128.731 71.199 C 128.626 70.517,128.502 70.449,128.100 70.855 M129.281 74.464 C 129.677 74.829,130.000 75.335,130.000 75.588 C 130.000 75.840,130.180 75.936,130.400 75.800 C 130.760 75.578,130.973 76.103,130.847 76.900 C 130.821 77.065,130.980 77.200,131.200 77.200 C 131.815 77.200,131.674 75.759,131.004 75.204 C 130.677 74.932,130.526 74.519,130.670 74.287 C 130.836 74.017,130.671 73.964,130.215 74.139 C 129.821 74.290,129.288 74.276,129.030 74.107 C 128.773 73.938,128.886 74.099,129.281 74.464 M131.226 77.576 C 130.752 77.876,130.742 78.048,131.171 78.565 C 131.457 78.909,131.830 79.105,132.000 79.000 C 132.170 78.895,132.532 79.077,132.804 79.404 C 133.200 79.883,133.190 80.003,132.749 80.013 C 132.382 80.021,132.457 80.220,132.976 80.613 C 133.404 80.936,133.539 81.200,133.276 81.200 C 133.014 81.200,133.160 81.560,133.600 82.000 C 134.040 82.440,134.400 83.120,134.400 83.511 C 134.400 84.159,135.675 85.600,136.248 85.600 C 136.701 85.600,135.987 83.616,135.020 82.192 C 134.487 81.406,133.815 80.231,133.528 79.582 C 133.240 78.932,132.869 78.400,132.702 78.400 C 132.536 78.400,132.400 78.130,132.400 77.800 C 132.400 77.117,132.055 77.051,131.226 77.576 M136.392 86.005 C 135.910 86.303,135.921 86.395,136.461 86.602 C 136.813 86.737,137.100 87.297,137.100 87.846 C 137.100 88.476,137.559 89.225,138.342 89.874 C 139.025 90.440,139.487 91.060,139.368 91.251 C 139.250 91.443,139.343 91.600,139.576 91.600 C 139.809 91.600,140.000 91.456,140.000 91.280 C 140.000 90.700,139.006 88.806,138.700 88.803 C 138.535 88.801,138.400 88.624,138.400 88.410 C 138.400 87.408,136.944 85.664,136.392 86.005 M140.078 91.682 C 139.375 92.385,139.494 92.800,140.400 92.800 C 141.253 92.800,141.381 92.504,140.872 91.702 C 140.627 91.316,140.448 91.312,140.078 91.682 M140.968 93.526 C 140.292 93.995,140.560 94.982,141.471 95.382 C 142.134 95.674,142.307 96.036,142.196 96.910 C 142.075 97.868,142.145 97.977,142.626 97.579 C 143.092 97.191,143.200 97.253,143.200 97.908 C 143.200 98.352,143.467 98.817,143.793 98.942 C 144.131 99.072,144.285 99.435,144.150 99.785 C 143.885 100.477,144.310 100.571,145.189 100.015 C 145.693 99.696,145.679 99.605,145.091 99.380 C 144.714 99.235,144.497 98.966,144.611 98.783 C 144.724 98.599,144.558 98.303,144.241 98.125 C 143.924 97.946,143.605 97.537,143.532 97.216 C 143.460 96.894,143.085 96.275,142.700 95.840 C 142.315 95.405,142.000 94.734,142.000 94.348 C 142.000 93.522,141.522 93.141,140.968 93.526 M102.138 95.387 C 102.392 95.930,102.662 96.194,102.738 95.974 C 102.934 95.405,102.495 94.400,102.050 94.400 C 101.841 94.400,101.879 94.835,102.138 95.387 M147.200 95.624 C 147.200 95.857,147.035 95.945,146.834 95.821 C 146.350 95.522,146.077 96.398,146.343 97.400 C 146.535 98.125,146.579 98.106,146.813 97.200 C 146.955 96.650,147.273 96.243,147.521 96.295 C 147.769 96.348,147.869 96.124,147.743 95.795 C 147.477 95.102,147.200 95.015,147.200 95.624 M104.006 97.124 C 104.003 97.426,103.789 97.528,103.500 97.365 C 103.117 97.149,103.109 97.200,103.465 97.586 C 104.114 98.290,104.882 97.970,104.393 97.200 C 104.117 96.765,104.011 96.744,104.006 97.124 M104.000 98.805 C 104.000 98.954,104.336 99.380,104.747 99.752 C 105.459 100.396,105.486 100.383,105.313 99.481 C 105.156 98.660,104.000 98.064,104.000 98.805 M111.900 100.699 C 114.815 100.767,119.585 100.767,122.500 100.699 C 125.415 100.631,123.030 100.575,117.200 100.575 C 111.370 100.575,108.985 100.631,111.900 100.699 M113.100 158.298 L 116.400 158.432 116.400 286.816 C 116.400 414.933,116.402 415.200,117.200 415.200 C 117.998 415.200,118.000 414.933,118.000 286.600 L 118.000 158.000 113.900 158.081 L 109.800 158.163 113.100 158.298 M128.900 158.265 C 128.502 158.425,128.400 174.624,128.400 237.383 L 128.400 316.300 129.650 316.550 C 131.785 316.977,150.000 316.843,150.000 316.400 C 150.000 316.146,146.309 315.968,139.900 315.913 L 129.800 315.827 137.400 315.600 L 145.000 315.373 138.200 315.281 C 134.460 315.231,130.994 315.080,130.498 314.947 L 129.596 314.706 129.698 236.353 C 129.754 193.259,129.710 158.014,129.600 158.032 C 129.490 158.049,129.175 158.154,128.900 158.265 M102.663 416.094 C 102.408 416.256,113.765 416.391,127.900 416.394 C 146.645 416.398,153.600 416.278,153.600 415.951 C 153.600 415.438,103.474 415.579,102.663 416.094 " stroke="none" fill="#248c7c" fill-rule="evenodd"></path></g></svg>