<?xml version="1.0" standalone="no"?>
<!DOCTYPE svg PUBLIC "-//W3C//DTD SVG 20010904//EN"
 "http://www.w3.org/TR/2001/REC-SVG-20010904/DTD/svg10.dtd">
<svg version="1.0" xmlns="http://www.w3.org/2000/svg"
 viewBox="0 0 512.000000 512.000000"
 preserveAspectRatio="xMidYMid meet">

<g transform="translate(0.000000,512.000000) scale(0.100000,-0.100000)"
fill="#000000" stroke="none">
<path d="M2240 4960 c-485 -67 -883 -337 -1087 -736 -83 -162 -124 -308 -146
-513 l-12 -114 -86 -37 c-310 -134 -535 -408 -605 -735 -83 -391 70 -825 379
-1071 147 -117 355 -201 545 -220 l72 -7 0 -358 0 -359 -183 0 -183 0 -12 35
c-18 48 -93 122 -150 147 -71 32 -173 29 -245 -6 -188 -92 -230 -334 -83 -482
155 -154 413 -96 492 112 l17 44 233 0 c221 0 235 1 254 20 19 19 20 33 20
435 l0 415 239 0 240 0 3 -241 c4 -304 -16 -279 219 -279 l169 0 0 -135 0
-135 -27 -10 c-80 -29 -136 -80 -174 -156 -34 -69 -34 -179 0 -248 31 -63 84
-116 147 -147 39 -19 65 -24 124 -24 125 1 214 56 270 167 74 149 7 332 -147
400 l-43 19 0 175 c0 182 -8 223 -45 238 -9 3 -91 6 -181 6 l-164 0 0 185 0
185 460 0 460 0 0 -164 0 -164 -55 -26 c-175 -86 -221 -315 -93 -461 22 -25
64 -58 92 -73 70 -37 188 -38 258 -4 60 30 120 90 149 150 34 70 32 179 -3
247 -33 64 -90 118 -150 145 l-48 21 0 164 0 165 255 0 255 0 0 -414 0 -415
26 -20 c25 -20 39 -21 254 -21 l227 0 17 -45 c25 -64 95 -138 158 -166 40 -17
71 -23 123 -23 121 0 210 57 265 166 73 148 17 311 -134 388 -60 30 -77 34
-140 34 -116 -2 -216 -64 -262 -162 l-19 -41 -182 -1 -183 0 0 360 0 360 104
0 c328 0 610 153 774 419 228 371 177 828 -126 1125 -70 69 -71 70 -56 98 8
15 24 67 35 115 17 72 20 108 16 198 -10 205 -77 355 -227 506 -79 80 -110
103 -187 141 -130 65 -214 82 -379 76 l-134 -5 -39 71 c-188 343 -514 583
-904 667 -106 22 -356 33 -457 19z m461 -173 c340 -88 600 -287 768 -588 l32
-57 -58 -32 c-89 -50 -177 -124 -229 -193 -55 -73 -94 -148 -94 -179 0 -32 38
-68 72 -68 35 0 62 27 107 109 64 114 175 209 296 252 83 29 237 36 327 15
226 -53 410 -212 480 -414 45 -133 27 -305 -48 -453 -34 -68 -32 -94 14 -132
76 -64 178 -175 211 -230 18 -31 47 -96 65 -144 30 -84 31 -95 31 -238 -1
-142 -2 -155 -33 -242 -88 -255 -261 -422 -517 -499 -56 -17 -143 -19 -1435
-22 -1391 -3 -1489 -1 -1630 34 -91 22 -254 104 -322 161 -299 251 -373 730
-178 1140 205 432 617 609 1067 458 113 -38 154 -31 169 31 15 58 -54 97 -239
135 -86 18 -127 20 -255 17 l-153 -5 6 46 c26 203 62 327 136 471 165 321 490
562 854 633 125 25 131 26 300 22 131 -3 177 -8 256 -28z"/>
<path d="M1269 3127 c-29 -16 -54 -40 -74 -72 l-30 -48 -3 -341 c-2 -215 1
-354 7 -376 15 -49 67 -109 115 -131 39 -18 96 -19 1281 -19 1185 0 1242 1
1281 19 55 25 101 83 115 145 7 34 10 158 7 361 -3 289 -4 313 -24 355 -22 47
-79 105 -121 121 -14 5 -522 9 -1267 9 l-1243 0 -44 -23z m1644 -168 c24 -11
47 -47 47 -73 0 -7 -9 -25 -21 -40 -40 -50 -129 -23 -129 40 0 34 17 63 43 74
30 12 32 12 60 -1z m266 -4 c70 -35 44 -135 -35 -135 -33 0 -74 36 -74 66 0
25 22 62 44 72 29 14 33 14 65 -3z m254 4 c24 -11 47 -47 47 -73 0 -7 -9 -25
-21 -40 -40 -50 -129 -23 -129 40 0 34 17 63 43 74 30 12 32 12 60 -1z m290
-21 c9 -11 17 -33 17 -49 0 -66 -88 -95 -129 -43 -24 30 -26 43 -10 78 22 48
86 56 122 14z m-1997 -82 c177 -82 176 -335 -1 -429 -53 -28 -154 -29 -208 -3
-180 88 -183 347 -5 435 60 29 147 28 214 -3z m517 -47 c50 -13 103 -61 118
-106 34 -105 -55 -233 -163 -233 -47 0 -119 39 -145 79 -45 66 -24 184 40 231
20 14 81 38 102 39 6 1 27 -4 48 -10z m692 -114 c30 -30 32 -64 4 -99 -40 -51
-129 -19 -129 46 0 36 40 78 75 78 14 0 37 -11 50 -25z m259 4 c51 -40 19
-129 -46 -129 -31 0 -78 39 -78 64 0 27 22 64 44 74 32 16 51 14 80 -9z m261
-4 c30 -30 32 -64 4 -99 -40 -51 -129 -19 -129 46 0 36 40 78 75 78 14 0 37
-11 50 -25z m259 4 c56 -44 21 -133 -51 -127 -50 4 -80 44 -67 90 9 32 42 58
75 58 9 0 28 -9 43 -21z m-779 -254 c14 -13 25 -36 25 -50 0 -33 -41 -75 -73
-75 -69 0 -104 88 -51 129 35 28 69 26 99 -4z m260 0 c14 -13 25 -36 25 -50 0
-33 -42 -75 -75 -75 -33 0 -75 42 -75 75 0 33 42 75 75 75 14 0 37 -11 50 -25z
m260 0 c49 -48 15 -125 -53 -125 -66 0 -97 89 -46 129 35 28 69 26 99 -4z
m259 4 c51 -40 19 -129 -46 -129 -36 0 -78 40 -78 75 0 33 41 75 73 75 13 0
36 -9 51 -21z"/>
</g>
</svg>
