<?xml version="1.0" standalone="no"?>
<!DOCTYPE svg PUBLIC "-//W3C//DTD SVG 20010904//EN"
 "http://www.w3.org/TR/2001/REC-SVG-20010904/DTD/svg10.dtd">
<svg version="1.0" xmlns="http://www.w3.org/2000/svg"
 viewBox="0 0 512.000000 512.000000"
 preserveAspectRatio="xMidYMid meet">

<g transform="translate(0.000000,512.000000) scale(0.100000,-0.100000)"
fill="currentColor" stroke="none">
<path d="M2180 5114 c-71 -9 -206 -47 -280 -78 -209 -89 -401 -268 -505 -474
-21 -40 -47 -103 -60 -140 l-22 -66 -85 -17 c-166 -33 -284 -96 -403 -214
-153 -154 -224 -326 -225 -546 0 -123 25 -225 87 -349 39 -79 63 -110 138
-186 76 -76 105 -98 185 -138 158 -78 163 -79 535 -85 l330 -6 3 -30 c6 -69
14 -96 38 -124 14 -17 139 -95 290 -181 l264 -151 0 -140 0 -139 -693 0 c-769
0 -757 1 -834 -65 -22 -19 -51 -56 -64 -82 -21 -43 -24 -65 -27 -220 l-4 -173
-256 -146 c-142 -80 -268 -156 -280 -168 -52 -46 -52 -50 -52 -428 0 -347 1
-354 23 -392 19 -35 55 -59 311 -205 279 -160 292 -166 345 -166 54 0 67 6
326 154 149 85 283 166 299 180 55 50 56 61 56 431 0 315 -1 344 -19 378 -10
20 -27 44 -37 53 -11 9 -131 81 -269 159 -137 78 -256 147 -262 152 -17 13
-18 261 -2 307 22 63 -1 61 754 61 l685 0 0 -184 0 -185 -263 -150 c-144 -82
-272 -160 -284 -173 -41 -43 -43 -67 -43 -426 0 -336 1 -348 21 -382 12 -19
29 -40 38 -47 9 -7 140 -83 291 -170 264 -152 277 -158 330 -158 54 0 67 6
330 157 261 149 313 185 339 235 15 29 15 700 0 740 -6 15 -20 38 -32 51 -12
13 -140 91 -284 173 l-263 150 0 185 0 184 685 0 c755 0 732 2 754 -61 6 -18
11 -92 11 -165 l0 -133 -27 -19 c-16 -10 -138 -81 -272 -158 -172 -98 -251
-149 -270 -173 l-26 -34 -3 -346 c-2 -218 1 -359 7 -381 6 -20 25 -49 43 -66
18 -17 154 -100 302 -184 290 -165 319 -176 390 -146 22 9 158 85 304 169 234
134 267 157 288 193 l24 41 0 354 c0 331 -1 356 -19 385 -27 45 -57 65 -328
218 l-241 137 -4 172 c-3 155 -6 177 -27 220 -13 26 -42 63 -64 82 -77 66 -65
65 -834 65 l-693 0 0 139 0 140 264 151 c151 86 276 164 290 181 24 28 32 55
38 124 l3 30 330 6 c218 3 344 10 370 18 156 48 249 103 355 210 70 70 94 104
133 181 63 125 87 225 87 355 0 380 -272 698 -650 759 -34 6 -36 9 -54 72 -77
268 -387 428 -651 335 l-55 -19 -62 65 c-196 205 -430 310 -708 318 -69 2
-141 1 -160 -1z m353 -199 c106 -30 201 -77 283 -139 62 -46 144 -129 144
-144 0 -5 -14 -27 -31 -48 -39 -48 -79 -127 -79 -153 0 -30 41 -70 77 -77 28
-6 37 -2 65 28 18 19 44 54 58 77 53 91 192 158 304 147 113 -11 217 -79 268
-173 44 -82 44 -83 -47 -105 -106 -25 -234 -88 -292 -143 -41 -40 -45 -47 -39
-77 7 -38 47 -78 79 -78 13 0 54 20 92 45 124 80 241 111 378 102 113 -7 203
-38 295 -100 166 -114 262 -295 262 -496 0 -224 -132 -434 -331 -529 -46 -22
-108 -45 -137 -51 -31 -7 -174 -11 -347 -11 l-295 0 0 218 c0 204 -1 219 -21
252 -12 19 -29 40 -38 47 -9 7 -140 84 -291 171 -361 207 -299 206 -655 3
-148 -85 -283 -166 -298 -180 -55 -50 -57 -62 -57 -296 l0 -216 -322 3 c-372
5 -386 7 -527 102 -122 82 -205 200 -241 342 -97 377 187 743 576 744 78 0
200 -27 263 -59 54 -28 96 -27 126 4 31 30 32 73 5 108 -22 27 -134 77 -218
97 -61 14 -61 11 -7 127 117 251 341 424 620 479 104 20 268 11 378 -21z m230
-1361 c111 -63 206 -119 210 -123 8 -8 -391 -241 -413 -241 -7 0 -105 53 -217
117 -194 110 -204 118 -185 131 21 14 394 230 400 231 1 1 94 -51 205 -115z
m-497 -400 l204 -116 0 -255 c0 -140 -4 -253 -8 -251 -4 2 -99 55 -210 118
l-201 115 -1 253 c0 138 3 252 6 252 3 0 98 -52 210 -116z m804 -136 l0 -253
-202 -115 c-111 -63 -205 -116 -210 -118 -4 -2 -8 111 -8 251 l0 254 203 116
c111 64 205 117 210 117 4 0 7 -114 7 -252z m-1912 -1778 c151 -86 198 -118
189 -126 -7 -6 -101 -61 -210 -123 l-198 -112 -197 112 c-108 62 -203 117
-210 124 -10 9 31 36 190 128 112 64 210 115 219 114 8 -1 106 -54 217 -117z
m1617 3 c158 -90 202 -120 193 -129 -7 -6 -102 -61 -210 -123 l-197 -112 -198
112 c-109 61 -204 117 -210 123 -10 9 33 38 190 128 111 64 208 116 215 117 7
1 104 -52 217 -116z m1620 0 c113 -65 205 -120 205 -123 -1 -3 -95 -58 -210
-123 l-209 -118 -203 116 c-112 64 -206 119 -210 123 -7 7 388 239 410 241 7
1 104 -52 217 -116z m-3687 -428 l142 -80 0 -257 0 -257 -210 120 -210 121 0
255 0 255 68 -39 c38 -21 132 -74 210 -118z m742 -99 l0 -254 -207 -117 c-115
-65 -211 -120 -215 -122 -5 -2 -8 110 -8 251 l0 255 208 119 c114 66 210 121
215 121 4 1 7 -113 7 -253z m818 134 l202 -115 0 -252 c0 -139 -3 -253 -6
-253 -4 0 -98 52 -210 116 l-204 116 0 255 c0 140 4 253 8 251 5 -1 99 -55
210 -118z m802 -134 l0 -254 -210 -121 -210 -120 0 257 1 257 207 117 c114 65
208 118 210 118 1 0 2 -114 2 -254z m819 133 l211 -121 0 -254 c0 -141 -3
-253 -7 -251 -5 2 -101 57 -215 122 l-208 117 0 254 c0 140 2 254 4 254 2 0
99 -54 215 -121z m794 -390 c-5 -4 -99 -59 -210 -122 l-203 -115 0 256 1 257
207 117 207 118 3 -252 c1 -138 -1 -255 -5 -259z"/>
</g>
</svg>
