<svg viewBox="0 0 512 512" fill="none" xmlns="http://www.w3.org/2000/svg">
    <path
        d="M224 16C175.5 22.7 135.7 49.7 115.3 89.6C107 105.8 102.9 120.4 100.7 140.9L99.4999 152.3L90.8999 156C59.8999 169.4 37.3999 196.8 30.3999 229.5C22.0999 268.6 37.3999 312 68.2999 336.6C82.9999 348.3 103.8 356.7 122.8 358.6L130 359.3V395.1V431H111.7H93.3999L92.1999 427.5C90.3999 422.7 82.8999 415.3 77.1999 412.8C70.0999 409.6 59.8999 409.9 52.6999 413.4C33.8999 422.6 29.6999 446.8 44.3999 461.6C59.8999 477 85.6999 471.2 93.5999 450.4L95.2999 446H118.6C140.7 446 142.1 445.9 144 444C145.9 442.1 146 440.7 146 400.5V359H169.9H193.9L194.2 383.1C194.6 413.5 192.6 411 216.1 411H233V424.5V438L230.3 439C222.3 441.9 216.7 447 212.9 454.6C209.5 461.5 209.5 472.5 212.9 479.4C216 485.7 221.3 491 227.6 494.1C231.5 496 234.1 496.5 240 496.5C252.5 496.4 261.4 490.9 267 479.8C274.4 464.9 267.7 446.6 252.3 439.8L248 437.9V420.4C248 402.2 247.2 398.1 243.5 396.6C242.6 396.3 234.4 396 225.4 396H209V377.5V359H255H301V375.4V391.8L295.5 394.4C278 403 273.4 425.9 286.2 440.5C288.4 443 292.6 446.3 295.4 447.8C302.4 451.5 314.2 451.6 321.2 448.2C327.2 445.2 333.2 439.2 336.1 433.2C339.5 426.2 339.3 415.3 335.8 408.5C332.5 402.1 326.8 396.7 320.8 394L316 391.9V375.5V359H341.5H367V400.4V441.9L369.6 443.9C372.1 445.9 373.5 446 395 446H417.7L419.4 450.5C421.9 456.9 428.9 464.3 435.2 467.1C439.2 468.8 442.3 469.4 447.5 469.4C459.6 469.4 468.5 463.7 474 452.8C481.3 438 475.7 421.7 460.6 414C454.6 411 452.9 410.6 446.6 410.6C435 410.8 425 417 420.4 426.8L418.5 430.9L400.3 431H382V395V359H392.4C425.2 359 453.4 343.7 469.8 317.1C492.6 280 487.5 234.3 457.2 204.6C450.2 197.7 450.1 197.6 451.6 194.8C452.4 193.3 454 188.1 455.1 183.3C456.8 176.1 457.1 172.5 456.7 163.5C455.7 143 449 128 434 112.9C426.1 104.9 423 102.6 415.3 98.8C402.3 92.3 393.9 90.6 377.4 91.2L364 91.7L360.1 84.6C341.3 50.3 308.7 26.3 269.7 17.9C259.1 15.7 234.1 14.6 224 16ZM270.1 33.3C304.1 42.1 330.1 62 346.9 92.1L350.1 97.8L344.3 101C335.4 106 326.6 113.4 321.4 120.3C315.9 127.6 312 135.1 312 138.2C312 141.4 315.8 145 319.2 145C322.7 145 325.4 142.3 329.9 134.1C336.3 122.7 347.4 113.2 359.5 108.9C367.8 106 383.2 105.3 392.2 107.4C414.8 112.7 433.2 128.6 440.2 148.8C444.7 162.1 442.9 179.3 435.4 194.1C432 200.9 432.2 203.5 436.8 207.3C444.4 213.7 454.6 224.8 457.9 230.3C459.7 233.4 462.6 239.9 464.4 244.7C467.4 253.1 467.5 254.2 467.5 268.5C467.4 282.7 467.3 284 464.2 292.7C455.4 318.2 438.1 334.9 412.5 342.6C406.9 344.3 398.2 344.5 269 344.8C129.9 345.1 120.1 344.9 106 341.4C96.8999 339.2 80.5999 331 73.7999 325.3C43.8999 300.2 36.4999 252.3 55.9999 211.3C76.4999 168.1 117.7 150.4 162.7 165.5C174 169.3 178.1 168.6 179.6 162.4C181.1 156.6 174.2 152.7 155.7 148.9C147.1 147.1 143 146.9 130.2 147.2L114.9 147.7L115.5 143.1C118.1 122.8 121.7 110.4 129.1 96C145.6 63.9 178.1 39.8 214.5 32.7C227 30.2 227.6 30.1 244.5 30.5C257.6 30.8 262.2 31.3 270.1 33.3Z"
        fill="url(#paint0_linear_336_24)" />
    <path
        d="M126.9 199.3C124 200.9 121.5 203.3 119.5 206.5L116.5 211.3L116.2 245.4C116 266.9 116.3 280.8 116.9 283C118.4 287.9 123.6 293.9 128.4 296.1C132.3 297.9 138 298 256.5 298C375 298 380.7 297.9 384.6 296.1C390.1 293.6 394.7 287.8 396.1 281.6C396.8 278.2 397.1 265.8 396.8 245.5C396.5 216.6 396.4 214.2 394.4 210C392.2 205.3 386.5 199.5 382.3 197.9C380.9 197.4 330.1 197 255.6 197H131.3L126.9 199.3ZM291.3 216.1C293.7 217.2 296 220.8 296 223.4C296 224.1 295.1 225.9 293.9 227.4C289.9 232.4 281 229.7 281 223.4C281 220 282.7 217.1 285.3 216C288.3 214.8 288.5 214.8 291.3 216.1ZM317.9 216.5C324.9 220 322.3 230 314.4 230C311.1 230 307 226.4 307 223.4C307 220.9 309.2 217.2 311.4 216.2C314.3 214.8 314.7 214.8 317.9 216.5ZM343.3 216.1C345.7 217.2 348 220.8 348 223.4C348 224.1 347.1 225.9 345.9 227.4C341.9 232.4 333 229.7 333 223.4C333 220 334.7 217.1 337.3 216C340.3 214.8 340.5 214.8 343.3 216.1ZM372.3 218.2C373.2 219.3 374 221.5 374 223.1C374 229.7 365.2 232.6 361.1 227.4C358.7 224.4 358.5 223.1 360.1 219.6C362.3 214.8 368.7 214 372.3 218.2ZM172.6 226.4C190.3 234.6 190.2 259.9 172.5 269.3C167.2 272.1 157.1 272.2 151.7 269.6C133.7 260.8 133.4 234.9 151.2 226.1C157.2 223.2 165.9 223.3 172.6 226.4ZM224.3 231.1C229.3 232.4 234.6 237.2 236.1 241.7C239.5 252.2 230.6 265 219.8 265C215.1 265 207.9 261.1 205.3 257.1C200.8 250.5 202.9 238.7 209.3 234C211.3 232.6 217.4 230.2 219.5 230.1C220.1 230 222.2 230.5 224.3 231.1ZM293.5 242.5C296.5 245.5 296.7 248.9 293.9 252.4C289.9 257.5 281 254.3 281 247.8C281 244.2 285 240 288.5 240C289.9 240 292.2 241.1 293.5 242.5ZM319.4 242.1C324.5 246.1 321.3 255 314.8 255C311.7 255 307 251.1 307 248.6C307 245.9 309.2 242.2 311.4 241.2C314.6 239.6 316.5 239.8 319.4 242.1ZM345.5 242.5C348.5 245.5 348.7 248.9 345.9 252.4C341.9 257.5 333 254.3 333 247.8C333 244.2 337 240 340.5 240C341.9 240 344.2 241.1 345.5 242.5ZM371.4 242.1C377 246.5 373.5 255.4 366.3 254.8C361.3 254.4 358.3 250.4 359.6 245.8C360.5 242.6 363.8 240 367.1 240C368 240 369.9 240.9 371.4 242.1ZM293.5 267.5C294.9 268.8 296 271.1 296 272.5C296 275.8 291.9 280 288.7 280C281.8 280 278.3 271.2 283.6 267.1C287.1 264.3 290.5 264.5 293.5 267.5ZM319.5 267.5C320.9 268.8 322 271.1 322 272.5C322 275.8 317.8 280 314.5 280C311.2 280 307 275.8 307 272.5C307 269.2 311.2 265 314.5 265C315.9 265 318.2 266.1 319.5 267.5ZM345.5 267.5C350.4 272.3 347 280 340.2 280C333.6 280 330.5 271.1 335.6 267.1C339.1 264.3 342.5 264.5 345.5 267.5ZM371.4 267.1C376.5 271.1 373.3 280 366.8 280C363.2 280 359 276 359 272.5C359 269.2 363.1 265 366.3 265C367.6 265 369.9 265.9 371.4 267.1Z"
        fill="url(#paint1_linear_336_24)" />
    <defs>
        <linearGradient id="paint0_linear_336_24" x1="-17.4148" y1="382.398" x2="675.812" y2="72.6973"
            gradientUnits="userSpaceOnUse">
            <stop stop-color="#1C8A55" />
            <stop offset="1" stop-color="#54C5D2" />
        </linearGradient>
        <linearGradient id="paint1_linear_336_24" x1="88.0604" y1="274.047" x2="276.489" y2="27.024"
            gradientUnits="userSpaceOnUse">
            <stop stop-color="#1C8A55" />
            <stop offset="1" stop-color="#54C5D2" />
        </linearGradient>
    </defs>
</svg>