<?xml version="1.0" standalone="no"?>
<!DOCTYPE svg PUBLIC "-//W3C//DTD SVG 20010904//EN"
 "http://www.w3.org/TR/2001/REC-SVG-20010904/DTD/svg10.dtd">
<svg version="1.0" xmlns="http://www.w3.org/2000/svg"
 viewBox="0 0 512.000000 512.000000"
 preserveAspectRatio="xMidYMid meet">

<g transform="translate(0.000000,512.000000) scale(0.100000,-0.100000)"
fill="currentColor" stroke="none">
<path d="M2479 5105 c-51 -16 -127 -78 -158 -129 -75 -121 -33 -288 94 -372
l55 -37 0 -233 0 -234 105 0 105 0 0 238 0 237 36 20 c43 23 86 71 116 128 30
58 31 164 2 228 -27 59 -85 116 -142 142 -59 26 -154 31 -213 12z"/>
<path d="M444 3970 c-67 -27 -124 -77 -154 -136 -34 -66 -35 -189 -3 -249 29
-54 88 -109 143 -134 67 -30 169 -28 239 4 l54 25 214 -136 c117 -75 215 -135
217 -133 7 10 65 98 89 135 l26 42 -219 138 -219 139 -1 55 c-2 186 -210 320
-386 250z"/>
<path d="M4483 3954 c-54 -20 -128 -85 -155 -138 -13 -24 -23 -68 -26 -109
l-5 -67 -213 -136 c-118 -75 -214 -138 -214 -141 0 -3 24 -43 53 -89 34 -55
57 -83 67 -81 8 2 103 60 210 129 107 68 200 127 206 131 6 3 30 -4 55 -16
132 -65 299 -11 377 121 24 41 27 57 27 132 0 75 -3 91 -27 132 -73 124 -221
179 -355 132z"/>
<path d="M2275 3730 c-64 -32 -75 -59 -75 -193 0 -83 -3 -116 -12 -120 -7 -2
-48 28 -91 67 -43 39 -88 76 -100 83 -30 17 -82 16 -115 -1 -15 -8 -104 -92
-198 -188 -225 -227 -228 -240 -84 -383 100 -99 97 -105 -49 -105 -119 0 -154
-13 -192 -72 -20 -32 -20 -43 -16 -277 6 -267 6 -267 71 -315 25 -19 40 -21
144 -19 80 2 118 -1 123 -9 5 -7 -22 -43 -67 -90 -41 -43 -79 -90 -84 -104
-14 -36 -12 -81 4 -112 15 -29 313 -317 358 -346 33 -22 96 -23 134 -3 16 9
60 47 98 85 40 41 74 68 82 65 10 -4 14 -28 14 -92 1 -118 12 -159 54 -198
l36 -33 251 0 c279 0 304 5 340 64 16 26 19 51 19 147 0 95 3 118 15 123 10 3
45 -22 99 -74 61 -57 94 -81 119 -85 74 -14 92 -3 274 179 234 233 239 254 91
403 -52 52 -79 86 -73 92 6 5 63 11 127 13 131 4 157 15 191 79 16 30 17 60
15 269 -3 205 -5 239 -21 268 -29 53 -82 72 -208 72 -58 0 -109 3 -112 6 -4 4
29 45 73 91 85 90 95 111 87 176 -5 39 -18 54 -169 200 -89 87 -176 167 -193
178 -18 11 -48 19 -76 19 -53 0 -92 -24 -178 -113 -31 -32 -59 -53 -67 -50
-11 4 -14 30 -14 104 0 118 -17 169 -65 199 -30 19 -49 20 -276 20 -224 0
-247 -2 -284 -20z m403 -695 c188 -44 333 -190 371 -373 33 -159 -17 -323
-133 -437 -197 -193 -509 -193 -702 -1 -254 254 -158 676 181 794 100 35 184
40 283 17z"/>
<path d="M2445 2899 c-305 -99 -329 -520 -37 -657 50 -24 69 -27 157 -27 89 1
106 4 159 29 76 37 135 96 171 172 25 50 29 72 30 144 0 60 -5 98 -18 129 -75
182 -272 272 -462 210z"/>
<path d="M1005 1852 c-66 -43 -161 -103 -210 -135 l-90 -57 -45 22 c-133 66
-299 13 -378 -120 -24 -41 -27 -57 -27 -132 0 -75 3 -91 27 -132 95 -161 305
-197 443 -76 61 54 87 107 93 190 l5 67 213 137 c118 75 214 138 214 141 0 13
-106 173 -115 173 -5 0 -64 -35 -130 -78z"/>
<path d="M3941 1873 c-13 -20 -39 -60 -57 -89 l-33 -51 219 -139 219 -139 1
-55 c1 -97 60 -189 154 -238 43 -23 63 -27 131 -27 70 1 87 4 134 30 105 58
158 153 149 269 -9 103 -72 192 -168 235 -67 30 -169 28 -239 -4 l-53 -25
-204 130 c-112 72 -209 132 -216 135 -7 3 -24 -11 -37 -32z"/>
<path d="M2440 782 l0 -239 -24 -11 c-43 -19 -97 -74 -123 -126 -35 -67 -38
-169 -7 -237 96 -208 391 -223 513 -25 75 121 33 288 -94 372 l-55 37 0 233 0
234 -105 0 -105 0 0 -238z"/>
</g>
</svg>
