<svg viewBox="0 0 2357 299" fill="none" xmlns="http://www.w3.org/2000/svg">
<g clip-path="url(#clip0_1617_2221)">
<path d="M2969 266.461L1812.16 266.461C1790.07 266.461 1772.16 248.553 1772.16 226.461L1772.16 121.897C1772.16 99.8061 1754.25 81.8975 1732.16 81.8975L-0.998527 81.8974" stroke="currentColor" stroke-width="4"/>
<path d="M2969 217.333L1812.16 217.333C1790.07 217.333 1772.16 199.424 1772.16 177.333L1772.16 72.769C1772.16 50.6776 1754.25 32.769 1732.16 32.769L-0.998527 32.769" stroke="currentColor" stroke-width="4"/>
<path d="M2969 192.769L1812.16 192.769C1790.07 192.769 1772.16 174.86 1772.16 152.769L1772.16 48.2051C1772.16 26.1137 1754.25 8.20507 1732.16 8.20507L-0.998527 8.20499" stroke="currentColor" stroke-width="4"/>
<path d="M2969 291.025L1812.16 291.025C1790.07 291.025 1772.16 273.117 1772.16 251.025L1772.16 146.461C1772.16 124.37 1754.25 106.461 1732.16 106.461L-0.998527 106.461" stroke="currentColor" stroke-width="4"/>
<path d="M2969 241.897L1812.16 241.897C1790.07 241.897 1772.16 223.989 1772.16 201.897L1772.16 97.3335C1772.16 75.2421 1754.25 57.3335 1732.16 57.3335L-0.998527 57.3334" stroke="currentColor" stroke-width="4"/>
</g>
<defs>
<clipPath id="clip0_1617_2221">
<rect width="2357" height="299" fill="white" transform="matrix(-1 0 0 1 2357 0)"/>
</clipPath>
</defs>
</svg>
