<?xml version="1.0" standalone="no"?>
<!DOCTYPE svg PUBLIC "-//W3C//DTD SVG 20010904//EN"
 "http://www.w3.org/TR/2001/REC-SVG-20010904/DTD/svg10.dtd">
<svg version="1.0" xmlns="http://www.w3.org/2000/svg"
 width="463.000000pt" height="482.000000pt" viewBox="0 0 463.000000 482.000000"
 preserveAspectRatio="xMidYMid meet">

<g transform="translate(0.000000,482.000000) scale(0.100000,-0.100000)"
fill="#000000" stroke="none">
<path d="M1460 4815 c0 -5 47 -90 105 -190 58 -100 105 -185 105 -188 0 -4
-97 -7 -215 -7 -118 0 -215 -2 -215 -5 0 -3 48 -89 106 -190 l105 -185 223 -2
223 -3 -104 -180 c-58 -99 -107 -186 -110 -192 -4 -10 67 -13 335 -13 253 0
361 -4 423 -15 437 -76 812 -392 963 -813 91 -255 94 -557 7 -814 -156 -462
-557 -788 -1041 -848 -46 -5 -263 -10 -482 -10 l-398 0 0 915 0 915 -575 0
-575 0 0 -1491 0 -1490 1058 4 c1121 4 1100 3 1331 52 358 76 721 250 1016
488 109 88 307 293 393 408 261 348 416 731 474 1169 18 138 15 459 -6 605
-78 548 -319 1024 -712 1405 -368 357 -812 574 -1346 656 -80 13 -214 17 -595
21 -271 3 -493 2 -493 -2z"/>
<path d="M1033 4008 c13 -24 64 -112 112 -195 l87 -153 220 0 220 0 -19 33
c-11 17 -61 105 -113 195 l-93 162 -219 0 -220 0 25 -42z"/>
</g>
</svg>
