<svg width="20" height="19" viewBox="0 0 20 19" fill="none" xmlns="http://www.w3.org/2000/svg">
<path d="M7.26425 0H2.90079C1.68928 0 0.703613 0.985662 0.703613 2.19717V6.56064C0.703613 7.77215 1.68928 8.75781 2.90079 8.75781H7.26425C8.47576 8.75781 9.46143 7.77215 9.46143 6.56064V2.19717C9.46143 0.985662 8.47576 0 7.26425 0ZM7.97705 6.56064C7.97705 6.95367 7.65728 7.27344 7.26425 7.27344H2.90079C2.50776 7.27344 2.18799 6.95367 2.18799 6.56064V2.19717C2.18799 1.80415 2.50776 1.48438 2.90079 1.48438H7.26425C7.65728 1.48438 7.97705 1.80415 7.97705 2.19717V6.56064Z" fill="currentColor"/>
<path d="M17.4771 0H13.1724C11.9446 0 10.9458 0.998836 10.9458 2.22656V6.53125C10.9458 7.75898 11.9446 8.75781 13.1724 8.75781H17.4771C18.7048 8.75781 19.7036 7.75898 19.7036 6.53125V2.22656C19.7036 0.998836 18.7048 0 17.4771 0ZM18.2192 6.53125C18.2192 6.94049 17.8863 7.27344 17.4771 7.27344H13.1724C12.7631 7.27344 12.4302 6.94049 12.4302 6.53125V2.22656C12.4302 1.81732 12.7631 1.48438 13.1724 1.48438H17.4771C17.8863 1.48438 18.2192 1.81732 18.2192 2.22656V6.53125Z" fill="currentColor"/>
<path d="M7.26425 10.2422H2.90079C1.68928 10.2422 0.703613 11.2279 0.703613 12.4394V16.8028C0.703613 18.0143 1.68928 19 2.90079 19H7.26425C8.47576 19 9.46143 18.0143 9.46143 16.8028V12.4394C9.46143 11.2279 8.47576 10.2422 7.26425 10.2422ZM7.97705 16.8028C7.97705 17.1959 7.65728 17.5156 7.26425 17.5156H2.90079C2.50776 17.5156 2.18799 17.1959 2.18799 16.8028V12.4394C2.18799 12.0463 2.50776 11.7266 2.90079 11.7266H7.26425C7.65728 11.7266 7.97705 12.0463 7.97705 12.4394V16.8028Z" fill="currentColor"/>
<path d="M17.4771 10.2422H13.1724C11.9446 10.2422 10.9458 11.241 10.9458 12.4688V16.7734C10.9458 18.0012 11.9446 19 13.1724 19H17.4771C18.7048 19 19.7036 18.0012 19.7036 16.7734V12.4688C19.7036 11.241 18.7048 10.2422 17.4771 10.2422ZM18.2192 16.7734C18.2192 17.1827 17.8863 17.5156 17.4771 17.5156H13.1724C12.7631 17.5156 12.4302 17.1827 12.4302 16.7734V12.4688C12.4302 12.0595 12.7631 11.7266 13.1724 11.7266H17.4771C17.8863 11.7266 18.2192 12.0595 18.2192 12.4688V16.7734Z" fill="currentColor"/>
</svg>
