<svg viewBox="0 0 2357 299" fill="none" xmlns="http://www.w3.org/2000/svg">
<g clip-path="url(#clip0_1617_2220)">
<path d="M-612 266.461L544.837 266.461C566.929 266.461 584.837 248.553 584.837 226.461L584.837 121.897C584.837 99.8061 602.746 81.8975 624.837 81.8975L2358 81.8974" stroke="currentColor" stroke-width="4"/>
<path d="M-612 217.333L544.837 217.333C566.929 217.333 584.837 199.424 584.837 177.333L584.837 72.769C584.837 50.6776 602.746 32.769 624.837 32.769L2358 32.769" stroke="currentColor" stroke-width="4"/>
<path d="M-612 192.769L544.837 192.769C566.929 192.769 584.837 174.86 584.837 152.769L584.837 48.2051C584.837 26.1137 602.746 8.20507 624.837 8.20507L2358 8.20499" stroke="currentColor" stroke-width="4"/>
<path d="M-612 291.025L544.837 291.025C566.929 291.025 584.837 273.117 584.837 251.025L584.837 146.461C584.837 124.37 602.746 106.461 624.837 106.461L2358 106.461" stroke="currentColor" stroke-width="4"/>
<path d="M-612 241.897L544.837 241.897C566.929 241.897 584.837 223.989 584.837 201.897L584.837 97.3335C584.837 75.2421 602.746 57.3335 624.837 57.3335L2358 57.3334" stroke="currentColor" stroke-width="4"/>
</g>
<defs>
<clipPath id="clip0_1617_2220">
<rect width="2357" height="299" fill="white"/>
</clipPath>
</defs>
</svg>
