<?xml version="1.0" standalone="no"?>
<!DOCTYPE svg PUBLIC "-//W3C//DTD SVG 20010904//EN" "http://www.w3.org/TR/2001/REC-SVG-20010904/DTD/svg10.dtd">
<svg version="1.0" xmlns="http://www.w3.org/2000/svg" width="512.000000pt" viewBox="0 0 512.000000 512.000000"
    preserveAspectRatio="xMidYMid meet">

    <g transform="translate(0.000000,512.000000) scale(0.100000,-0.100000)" fill="currentColor" stroke="none">
        <path d="M2815 4146 c-77 -34 -113 -121 -84 -204 7 -22 205 -215 636 -624
l625 -593 -1625 -5 c-1622 -5 -1626 -5 -1653 -26 -53 -39 -69 -71 -69 -134 0
-63 16 -95 69 -134 27 -21 31 -21 1650 -26 l1623 -5 -620 -590 c-421 -401
-624 -601 -634 -625 -54 -127 81 -262 207 -207 31 13 1388 1293 1462 1379 53
61 72 115 72 208 1 149 34 112 -784 891 -393 374 -729 687 -747 695 -40 17
-89 17 -128 0z" />
    </g>
</svg>