<?xml version="1.0" standalone="no"?>
<!DOCTYPE svg PUBLIC "-//W3C//DTD SVG 20010904//EN"
 "http://www.w3.org/TR/2001/REC-SVG-20010904/DTD/svg10.dtd">
<svg version="1.0" xmlns="http://www.w3.org/2000/svg"
  viewBox="0 0 512.000000 512.000000"
 preserveAspectRatio="xMidYMid meet">

<g transform="translate(0.000000,512.000000) scale(0.100000,-0.100000)"
fill="currentColor" stroke="none">
<path d="M401 5105 c-36 -8 -90 -27 -120 -41 -73 -36 -189 -152 -224 -224 -53
-108 -57 -155 -57 -648 l0 -454 29 -29 29 -29 160 0 c145 0 162 2 185 20 l26
21 3 459 c3 425 4 461 21 477 16 17 54 18 483 23 l466 5 19 24 c17 21 19 41
19 191 0 150 -2 170 -19 191 l-19 24 -469 2 c-371 1 -481 -1 -532 -12z m889
-205 l0 -69 -428 -3 -428 -3 -42 -28 c-23 -15 -54 -46 -69 -69 l-28 -42 -3
-428 -3 -428 -69 0 -70 0 0 428 c1 377 3 433 18 474 37 101 119 183 220 220
41 15 97 17 475 18 l427 0 0 -70z"/>
<path d="M3730 5113 c-48 -18 -50 -27 -50 -210 0 -160 2 -175 20 -193 19 -19
33 -20 464 -20 283 0 454 -4 473 -10 17 -6 35 -22 42 -36 8 -17 11 -158 11
-468 0 -422 1 -445 19 -467 18 -23 25 -24 171 -27 84 -2 163 -1 176 2 56 14
54 -4 54 526 0 551 -1 557 -79 676 -67 102 -146 164 -263 206 -62 22 -71 23
-543 25 -264 1 -487 -1 -495 -4z m1041 -176 c69 -33 132 -99 167 -175 l27 -57
3 -437 3 -438 -65 0 -65 0 -3 418 c-3 405 -4 418 -25 457 -27 51 -68 90 -115
109 -32 14 -100 16 -453 16 l-415 0 0 70 0 71 443 -3 442 -3 56 -28z"/>
<path d="M1527 4002 l-347 -348 0 -657 0 -656 -404 -3 c-381 -3 -405 -4 -425
-22 -27 -25 -28 -79 -1 -106 19 -19 33 -20 425 -20 l405 0 0 -689 c0 -663 1
-690 19 -712 l19 -24 1342 0 1342 0 24 28 24 28 0 685 0 684 399 0 c373 0 400
1 422 18 33 27 30 78 -5 109 l-27 23 -394 0 -395 0 -2 986 -3 986 -24 19 c-23
18 -54 19 -1035 19 l-1011 0 -348 -348z m2273 -727 l0 -935 -1235 0 -1235 0 0
605 0 604 301 3 301 3 24 28 24 28 0 300 0 299 910 0 910 0 0 -935z m-1970
625 l0 -200 -202 0 -203 0 200 200 c110 110 201 200 202 200 2 0 3 -90 3 -200z
m1968 -2352 l2 -638 -1235 0 -1235 0 0 640 0 640 1233 -2 1232 -3 3 -637z"/>
<path d="M1863 3298 c-48 -23 -51 -103 -4 -127 13 -8 241 -11 706 -11 l686 0
24 25 c32 31 32 69 0 100 l-24 25 -683 -1 c-457 0 -690 -4 -705 -11z"/>
<path d="M1852 2653 c-12 -10 -24 -30 -28 -45 -5 -22 0 -34 24 -58 l31 -30
691 2 692 3 19 24 c25 30 24 62 -2 95 l-20 26 -694 0 c-645 0 -694 -1 -713
-17z"/>
<path d="M1845 2010 c-25 -28 -23 -76 4 -103 l22 -22 672 -3 c369 -1 682 0
695 3 32 8 62 41 62 69 0 13 -9 35 -21 50 l-20 26 -698 0 c-687 0 -698 0 -716
-20z"/>
<path d="M1840 1363 c-25 -32 -20 -69 12 -95 19 -17 68 -18 713 -18 l694 0 20
26 c27 34 27 64 1 92 l-21 22 -699 0 -699 0 -21 -27z"/>
<path d="M24 1419 c-18 -20 -19 -43 -19 -518 0 -489 1 -497 23 -555 46 -122
148 -238 254 -290 105 -51 154 -56 641 -56 503 0 497 -1 517 68 7 22 10 93 8
178 -3 122 -6 145 -22 163 -18 20 -28 20 -483 23 l-465 3 -19 24 c-18 22 -19
45 -19 476 0 442 0 453 -21 479 l-20 26 -178 0 c-168 0 -179 -1 -197 -21z
m266 -544 c0 -353 2 -421 16 -453 19 -47 58 -88 109 -115 39 -21 52 -22 458
-25 l417 -3 0 -65 0 -65 -438 3 -437 3 -67 33 c-74 36 -133 96 -170 170 -23
47 -23 51 -26 490 l-3 442 71 0 70 0 0 -415z"/>
<path d="M4711 1423 c-20 -18 -21 -25 -23 -480 l-3 -462 -23 -23 -23 -23 -465
-5 c-446 -5 -466 -6 -480 -24 -11 -15 -14 -59 -14 -191 0 -162 1 -173 21 -191
20 -18 43 -19 513 -19 453 0 495 1 546 19 86 29 152 70 211 133 67 70 90 108
121 193 23 65 23 67 23 556 0 470 -1 493 -19 513 -18 20 -29 21 -191 21 -150
0 -176 -2 -194 -17z m257 -571 l-3 -437 -33 -67 c-38 -77 -92 -130 -171 -167
l-56 -26 -437 -3 -438 -3 0 65 0 65 418 3 c382 3 420 5 454 22 42 20 103 83
121 124 8 19 13 151 15 445 l3 417 65 0 65 0 -3 -438z"/>
</g>
</svg>
