<?xml version="1.0" standalone="no"?>
<!DOCTYPE svg PUBLIC "-//W3C//DTD SVG 20010904//EN"
 "http://www.w3.org/TR/2001/REC-SVG-20010904/DTD/svg10.dtd">
<svg version="1.0" xmlns="http://www.w3.org/2000/svg"
viewBox="0 0 512.000000 512.000000"
 preserveAspectRatio="xMidYMid meet">

<g transform="translate(0.000000,512.000000) scale(0.100000,-0.100000)"
fill="currentColor" stroke="none">
<path d="M143 5020 c-59 -35 -63 -55 -63 -297 l1 -218 570 -815 c314 -448 582
-832 596 -852 l25 -37 -596 -923 -596 -923 0 -390 c0 -369 1 -392 20 -422 41
-68 -171 -63 2462 -63 2318 0 2384 1 2412 19 15 10 37 32 47 47 18 27 19 54
19 419 l0 390 -592 915 c-325 503 -592 922 -592 930 0 8 266 396 592 862 l592
846 0 219 c0 240 -3 252 -66 294 -28 18 -94 19 -2414 19 -2348 0 -2385 0
-2417 -20z m4660 -648 c-37 -54 -291 -416 -563 -805 l-494 -707 -1186 0 -1186
0 -494 707 c-272 389 -526 751 -563 805 l-68 98 2311 0 2311 0 -68 -98z
m-1025 -1679 c75 -112 1084 -1676 1089 -1690 4 -11 -376 -13 -2307 -13 -2041
0 -2311 2 -2306 15 7 18 1094 1704 1114 1728 14 16 84 17 1193 17 l1178 0 39
-57z m1150 -2147 c2 -234 -1 -333 -9 -342 -16 -19 -4698 -21 -4717 -2 -9 9
-12 98 -12 338 0 180 3 330 7 333 3 4 1069 6 2367 5 l2361 -3 3 -329z"/>
<path d="M676 4264 c-9 -8 -16 -25 -16 -36 0 -21 766 -1128 802 -1160 19 -17
86 -18 1099 -18 1017 0 1080 1 1097 18 42 42 802 1141 802 1160 0 11 -7 28
-16 36 -14 14 -199 16 -1884 16 -1685 0 -1870 -2 -1884 -16z"/>
<path d="M1497 2448 c-37 -50 -716 -1103 -723 -1122 -3 -9 1 -27 10 -41 l16
-25 1760 0 1760 0 15 24 c9 13 13 31 9 42 -8 22 -709 1110 -732 1137 -14 16
-77 17 -1053 17 l-1038 0 -24 -32z m165 -425 c10 -9 18 -26 18 -38 0 -12 -39
-82 -86 -156 -48 -74 -89 -140 -91 -146 -4 -10 79 -13 383 -15 l388 -3 15 -26
c13 -24 13 -29 -2 -53 l-17 -26 -452 0 c-406 0 -453 2 -470 17 -10 9 -18 26
-18 37 0 21 242 404 264 418 19 13 48 9 68 -9z m896 -365 c20 -20 15 -76 -7
-88 -30 -16 -107 -12 -125 6 -19 18 -21 65 -4 82 7 7 37 12 68 12 31 0 61 -5
68 -12z"/>
<path d="M3316 1164 c-9 -8 -16 -26 -16 -39 0 -40 25 -55 94 -55 48 0 67 4 79
18 22 24 21 55 -1 75 -25 23 -134 24 -156 1z"/>
<path d="M3687 1162 c-22 -24 -21 -55 1 -75 13 -12 37 -17 80 -17 67 0 92 15
92 55 0 40 -25 55 -94 55 -48 0 -67 -4 -79 -18z"/>
<path d="M4057 1162 c-22 -24 -21 -55 1 -75 13 -12 37 -17 80 -17 67 0 92 15
92 55 0 40 -25 55 -94 55 -48 0 -67 -4 -79 -18z"/>
<path d="M517 572 c-45 -49 -7 -92 80 -92 66 0 86 12 86 55 0 43 -20 55 -88
55 -47 0 -66 -4 -78 -18z"/>
<path d="M834 566 c-13 -22 -14 -29 -2 -53 12 -26 18 -28 77 -31 70 -3 101 13
101 53 0 38 -30 55 -98 55 -54 0 -63 -3 -78 -24z"/>
<path d="M1166 574 c-21 -21 -20 -57 2 -77 22 -20 131 -24 150 -5 7 7 12 26
12 43 0 17 -5 36 -12 43 -18 18 -133 15 -152 -4z"/>
<path d="M1483 564 c-15 -24 -15 -29 -2 -53 13 -23 21 -26 78 -29 70 -3 101
13 101 53 0 38 -30 55 -98 55 -55 0 -63 -3 -79 -26z"/>
<path d="M1816 574 c-9 -8 -16 -26 -16 -39 0 -40 25 -55 94 -55 70 0 86 10 86
55 0 17 -5 36 -12 43 -18 18 -133 15 -152 -4z"/>
<path d="M4878 3933 c-9 -2 -31 -27 -49 -55 -31 -47 -32 -52 -18 -77 23 -41
74 -36 109 9 42 53 46 75 16 105 -25 25 -28 26 -58 18z"/>
<path d="M4687 3668 c-23 -22 -450 -628 -475 -675 -24 -43 20 -93 68 -78 26 8
500 685 500 714 0 24 -33 61 -54 61 -8 0 -26 -10 -39 -22z"/>
</g>
</svg>
