<svg viewBox="0 0 464 464" fill="none" xmlns="http://www.w3.org/2000/svg">
    <path
        d="M79.3 1.59999C74.1 3.49999 66.5 11.4 65.1 16.6C62.6 25.7 64.4 33.4 70.7 40.1C79.9 49.9 93.4 50.7 103.4 41.9C105.8 39.8 108.3 36.7 109 35L110.2 32H147.1H184V44V56H94.5H4.9L2.5 58.5L0 60.9V216V371.1L2.5 373.5L4.9 376H94.5H184V404V432H140H96V448V464H232H368V448V432H324H280V404V376H369.5H459.1L461.5 373.5L464 371.1V216V60.9L461.5 58.5L459.1 56H369.5H280V44V32H316.9H353.8L355 35C355.7 36.7 358.2 39.8 360.6 41.9C370.3 50.4 383.4 49.9 392.7 40.8C410.5 23.3 392.7 -5.90001 368.6 1.19999C364.1 2.49999 354 11.7 354 14.4C354 15.8 349.4 16 311.5 16H268.9L266.5 18.5C264 20.9 264 21.2 264 38.5V56H232H200V38.5C200 21.2 200 20.9 197.5 18.5L195.1 16H152.7H110.2L109 13C107.3 8.79999 100 2.59999 95.2 1.19999C90.1 -0.400007 84.5 -0.200007 79.3 1.59999ZM184 117.3V162.6L177 169.5L170 176.4L176.4 183L182.8 189.5L180.3 194.7L177.9 200H168.9H160V204V208H119.1H78.2L77 205C74.2 198.2 64.1 192 55.8 192C43.3 192 32 203.3 32 216C32 228.7 43.3 240 55.8 240C64.1 240 74.2 233.8 77 227L78.2 224H119.1H160V228V232H168.9H177.9L180.3 237.2L182.8 242.5L176.1 249.3L169.5 256L180.5 267C186.5 273.1 191.9 278 192.5 278C193 278 196.2 275.3 199.5 272L205.6 266L210.8 268.2L216 270.4V279.2V288H232H248V279V270L253.3 267.6L258.5 265.2L265.3 271.9L272 278.5L283.2 267.2L294.5 256L288.1 249.6L281.7 243.1L283.7 237.8L285.7 232.5L294.9 232.2L304 231.9V228V224H344.9H385.8L387 227C387.7 228.7 390.2 231.8 392.6 233.9C402.3 242.4 415.8 241.9 424.8 232.7C434.3 223 434.3 208.6 424.7 199.2C418 192.6 409.6 190.6 400.6 193.2C396.1 194.5 386 203.7 386 206.4C386 207.8 381.5 208 345 208H304V204V200H295.1H286.1L283.7 194.7L281.2 189.5L287.6 183L294 176.4L287 169.5L280 162.6V117.3V72H364H448V200V328H232H16V200V72H100H184V117.3ZM264 116.8V161.6L261.3 164.2L258.5 166.7L253.3 164.3L248 161.9V152.9V144H232H216V152.9V161.9L210.8 164.3L205.5 166.7L202.8 164.2L200 161.6V116.8V72H232H264V116.8ZM245.5 187.1C251.8 190.1 257.8 196.1 261 202.5C264.5 209.6 264.5 222.2 261 229.5C257.9 235.9 251.9 241.9 245.5 245C238.2 248.5 225.6 248.5 218.5 245C212.1 241.9 206.1 235.9 203 229.5C199.5 222.4 199.5 209.8 203 202.5C207.2 193.9 215.3 187.3 224.5 184.9C229.9 183.5 240.1 184.6 245.5 187.1Z"
        fill="url(#paint0_linear_336_29)" />
    <path
        d="M34.5 98.5C32.9 100 32 102.1 32 104C32 105.9 32.9 108 34.5 109.5C36.9 112 36.9 112 58.5 112H80V145.5V179.1L82.5 181.5L84.9 184H112H139.1L141.5 181.5C144.8 178.3 144.8 173.7 141.5 170.5C139.1 168 139.1 168 117.5 168H96V134.5V100.9L93.5 98.5L91.1 96H64H36.9L34.5 98.5Z"
        fill="url(#paint1_linear_336_29)" />
    <path
        d="M362.5 98.5L360 100.9V134.5V168H338.5C316.9 168 316.9 168 314.5 170.5C312.9 172 312 174.1 312 176C312 177.9 312.9 180 314.5 181.5L316.9 184H344H371.1L373.5 181.5L376 179.1V145.5V112H397.5C419.1 112 419.1 112 421.5 109.5C423.1 108 424 105.9 424 104C424 102.1 423.1 100 421.5 98.5L419.1 96H392H364.9L362.5 98.5Z"
        fill="url(#paint2_linear_336_29)" />
    <defs>
        <linearGradient id="paint0_linear_336_29" x1="-46.4" y1="353.985" x2="646.081" y2="27.352"
            gradientUnits="userSpaceOnUse">
            <stop stop-color="#1C8A55" />
            <stop offset="1" stop-color="#54C5D2" />
        </linearGradient>
        <linearGradient id="paint1_linear_336_29" x1="20.8025" y1="163.13" x2="171.012" y2="72.9969"
            gradientUnits="userSpaceOnUse">
            <stop stop-color="#1C8A55" />
            <stop offset="1" stop-color="#54C5D2" />
        </linearGradient>
        <linearGradient id="paint2_linear_336_29" x1="300.8" y1="163.13" x2="451.025" y2="72.9673"
            gradientUnits="userSpaceOnUse">
            <stop stop-color="#1C8A55" />
            <stop offset="1" stop-color="#54C5D2" />
        </linearGradient>
    </defs>
</svg>