<?xml version="1.0" standalone="no"?>
<!DOCTYPE svg PUBLIC "-//W3C//DTD SVG 20010904//EN"
 "http://www.w3.org/TR/2001/REC-SVG-20010904/DTD/svg10.dtd">
<svg version="1.0" xmlns="http://www.w3.org/2000/svg"
  viewBox="0 0 512.000000 512.000000"
 preserveAspectRatio="xMidYMid meet">

<g transform="translate(0.000000,512.000000) scale(0.100000,-0.100000)"
fill="currentColor" stroke="none">
<path d="M1120 5099 c-55 -25 -86 -53 -110 -99 -48 -94 -33 -188 41 -262 26
-26 55 -48 63 -48 11 0 15 -22 18 -111 5 -162 -29 -149 399 -149 l349 0 0 -75
0 -75 -858 -2 -859 -3 -49 -30 c-30 -19 -60 -49 -79 -79 l-30 -49 0 -1512 0
-1512 30 -49 c19 -30 49 -60 79 -79 l49 -30 847 -5 847 -5 -13 -60 c-28 -137
-105 -277 -203 -368 l-50 -47 -184 0 c-182 0 -185 0 -237 -27 -31 -17 -65 -45
-84 -71 -29 -41 -31 -50 -31 -127 0 -77 2 -86 31 -127 19 -26 53 -54 84 -71
l52 -27 1338 0 1338 0 52 28 c31 16 65 44 84 70 29 41 31 50 31 127 0 77 -2
86 -31 127 -19 26 -53 54 -84 71 -52 27 -55 27 -237 27 l-184 0 -50 47 c-98
91 -175 231 -203 368 l-13 60 847 5 847 5 49 30 c30 19 60 49 79 79 l30 49 0
1512 0 1512 -30 49 c-19 30 -49 60 -79 79 l-49 30 -556 3 c-306 1 -566 0 -578
-3 -33 -8 -53 -33 -53 -68 1 -79 -12 -77 594 -77 371 0 543 -3 559 -11 14 -6
30 -22 36 -36 16 -34 16 -2922 0 -2956 -6 -14 -22 -30 -36 -36 -34 -16 -4692
-16 -4726 0 -14 6 -30 22 -36 36 -16 34 -16 2922 0 2956 6 14 22 30 36 36 17
8 267 11 853 11 l830 0 0 -75 0 -75 -765 0 -766 0 -24 -25 -25 -24 0 -1016 0
-1016 25 -24 c31 -32 69 -32 100 0 l25 24 0 966 0 965 715 0 715 0 0 -201 0
-200 -174 -84 c-171 -82 -175 -84 -185 -122 -16 -56 -14 -1217 2 -1262 12 -34
28 -42 511 -273 278 -133 510 -238 526 -238 32 0 564 252 598 282 44 42 13
118 -48 118 -33 0 -57 -10 -293 -124 l-177 -85 2 530 3 530 398 189 c218 105
399 190 402 190 3 0 5 -236 5 -525 l0 -525 -59 -30 c-90 -45 -110 -83 -70
-134 30 -38 70 -34 177 18 84 41 91 48 101 83 15 52 15 1204 0 1256 -10 38
-14 40 -185 122 l-174 84 0 200 0 201 715 0 715 0 0 -1225 0 -1225 -2110 0
-2110 0 0 124 c0 106 -3 127 -19 147 -26 32 -86 32 -112 0 -17 -21 -19 -42
-19 -198 0 -171 0 -174 25 -198 l24 -25 2211 0 2211 0 24 25 25 24 0 1326 0
1326 -25 24 -24 25 -766 0 -765 0 0 75 0 75 146 0 c177 0 204 10 204 75 0 65
-27 75 -204 75 l-146 0 0 75 0 75 349 0 c428 0 394 -13 399 149 3 89 7 111 18
111 8 0 37 22 63 48 74 74 89 168 41 262 -24 46 -55 74 -110 99 -172 78 -351
-85 -299 -272 12 -43 68 -111 111 -133 25 -13 28 -20 28 -64 l0 -50 -349 0
c-328 0 -350 -1 -372 -19 -23 -18 -24 -27 -27 -150 l-4 -131 -224 0 -224 0 1
203 0 202 47 30 c68 44 94 100 90 192 -3 61 -8 78 -35 115 -40 56 -118 98
-183 98 -65 0 -143 -42 -183 -98 -27 -37 -32 -54 -35 -115 -4 -92 22 -148 90
-192 l47 -30 0 -202 1 -203 -224 0 -224 0 -4 131 c-3 123 -4 132 -27 150 -22
18 -44 19 -372 19 l-349 0 0 50 c0 44 3 51 28 64 16 8 45 33 65 55 105 116 57
303 -92 356 -59 20 -107 19 -161 -6z m135 -154 c14 -13 25 -36 25 -50 0 -33
-41 -75 -73 -75 -41 0 -71 32 -71 75 0 69 71 99 119 50z m1338 14 c29 -16 37
-28 37 -64 0 -36 -7 -48 -38 -64 -47 -25 -102 9 -102 62 0 37 7 49 35 65 26
15 41 15 68 1z m1368 -8 c50 -40 17 -131 -48 -131 -32 0 -73 42 -73 75 0 33
41 75 73 75 14 0 35 -8 48 -19z m-1481 -896 l0 -75 -225 0 -225 0 0 75 0 75
225 0 225 0 0 -75z m610 0 l0 -75 -225 0 -225 0 0 75 0 75 225 0 225 0 0 -75z
m-610 -283 l0 -59 -107 -50 c-60 -28 -161 -76 -225 -106 l-118 -56 0 164 0
165 225 0 225 0 0 -58z m610 -107 l0 -164 -117 56 c-65 30 -166 78 -225 106
l-108 50 0 59 0 58 225 0 225 0 0 -165z m-135 -266 c209 -100 383 -185 388
-188 9 -9 -757 -376 -783 -376 -26 0 -792 367 -783 376 16 14 768 369 783 369
8 0 186 -82 395 -181z m-878 -509 l398 -189 3 -530 2 -529 -257 122 c-142 68
-324 155 -405 194 l-148 71 0 525 c0 289 2 526 5 526 3 0 184 -85 402 -190z
m1037 -1982 c31 -166 82 -295 160 -403 l36 -50 -375 -3 c-206 -1 -544 -1 -750
0 l-375 3 36 50 c78 108 129 237 160 403 l4 22 550 0 550 0 4 -22z m769 -619
c29 -16 37 -28 37 -64 0 -36 -8 -48 -37 -64 -31 -16 -2615 -16 -2646 0 -29 16
-37 28 -37 64 0 35 7 47 35 63 29 16 2617 17 2648 1z"/>
</g>
</svg>
