<?xml version="1.0" standalone="no"?>
<!DOCTYPE svg PUBLIC "-//W3C//DTD SVG 20010904//EN"
 "http://www.w3.org/TR/2001/REC-SVG-20010904/DTD/svg10.dtd">
<svg version="1.0" xmlns="http://www.w3.org/2000/svg"
 viewBox="0 0 512.000000 512.000000"
 preserveAspectRatio="xMidYMid meet">

<g transform="translate(0.000000,512.000000) scale(0.100000,-0.100000)"
fill="currentColor" stroke="none">
<path d="M2560 4716 c-426 -426 -420 -421 -580 -421 -111 0 -162 18 -234 85
-64 59 -81 108 -72 213 12 147 -30 263 -130 357 -76 72 -148 103 -252 108
-188 10 -348 -81 -432 -247 -82 -164 -56 -350 67 -482 91 -97 183 -131 349
-128 127 3 162 -9 220 -73 102 -113 119 -287 42 -417 -11 -20 -183 -199 -382
-399 l-361 -362 604 -604 604 -604 301 -4 c252 -4 310 -7 356 -22 251 -81 415
-314 379 -538 -6 -34 -12 -65 -15 -70 -3 -4 7 -8 23 -8 24 0 170 142 986 958
l957 957 -352 352 c-310 308 -358 352 -391 358 -54 10 -104 0 -143 -30 l-34
-26 0 -93 c0 -256 -131 -471 -355 -580 -74 -37 -194 -66 -270 -66 -77 0 -196
29 -275 68 -104 50 -212 158 -263 263 -51 104 -71 200 -63 312 17 259 180 468
433 559 41 14 95 22 183 27 l124 6 23 34 c28 41 37 89 28 139 -6 32 -52 83
-358 389 l-352 353 -365 -364z"/>
<path d="M26 2069 l-26 -31 0 -990 0 -990 29 -29 29 -29 262 0 262 0 29 29 29
29 0 990 0 990 -26 31 -26 31 -268 0 -268 0 -26 -31z"/>
<path d="M820 1006 l0 -916 1133 0 c1209 0 1201 0 1313 49 25 12 440 260 921
553 628 383 883 543 902 567 21 28 26 45 26 92 0 61 -17 94 -66 132 -62 46
-40 51 -1000 -269 l-894 -299 -525 -5 -525 -6 -74 -27 c-74 -27 -105 -43 -215
-111 -71 -43 -94 -45 -135 -10 -31 26 -40 68 -24 109 10 28 176 131 263 164
157 61 175 63 553 68 l349 5 19 41 c58 130 -24 303 -179 375 l-57 27 -350 6
c-331 6 -355 8 -445 32 -130 34 -214 74 -342 163 -195 134 -280 164 -500 171
l-148 5 0 -916z"/>
</g>
</svg>
