<?xml version="1.0" standalone="no"?>
<!DOCTYPE svg PUBLIC "-//W3C//DTD SVG 20010904//EN"
 "http://www.w3.org/TR/2001/REC-SVG-20010904/DTD/svg10.dtd">
<svg version="1.0" xmlns="http://www.w3.org/2000/svg"
  viewBox="0 0 512.000000 512.000000"
 preserveAspectRatio="xMidYMid meet">

<g transform="translate(0.000000,512.000000) scale(0.100000,-0.100000)"
fill="currentColor" stroke="none">
<path d="M105 5103 c-44 -23 -65 -44 -86 -85 -18 -35 -19 -70 -19 -726 l0
-689 23 -21 c23 -21 30 -22 291 -22 303 0 318 3 363 72 43 64 31 174 -22 218
-40 33 -59 119 -40 181 34 110 178 155 270 84 70 -53 95 -168 50 -229 -70 -95
-77 -109 -73 -169 5 -64 25 -98 78 -134 32 -22 39 -23 306 -23 261 0 275 1
294 20 19 19 20 33 20 270 0 207 2 252 14 256 8 3 38 -11 66 -30 174 -120 396
-64 487 123 24 48 28 68 28 141 -1 77 -4 91 -35 148 -51 96 -131 154 -234 170
-96 15 -186 -8 -260 -67 -64 -51 -66 -46 -66 238 0 246 0 248 -23 269 l-23 22
-690 0 c-609 -1 -692 -3 -719 -17z m1305 -325 c0 -205 7 -256 38 -297 52 -70
160 -86 233 -35 86 60 100 66 148 66 197 0 249 -268 66 -338 -58 -22 -115 -14
-166 23 -65 47 -102 63 -147 63 -75 0 -141 -52 -161 -125 -6 -22 -11 -125 -11
-232 l0 -193 -200 0 c-220 0 -223 1 -175 58 49 58 70 120 70 207 0 67 -4 89
-28 136 -112 229 -424 254 -564 45 -81 -120 -73 -271 21 -395 14 -19 23 -38
20 -42 -3 -5 -95 -9 -205 -9 l-199 0 0 623 c0 343 3 627 7 630 3 4 287 7 630
7 l623 0 0 -192z"/>
<path d="M3582 5097 c-21 -23 -22 -30 -22 -291 0 -303 3 -318 72 -363 64 -43
174 -31 218 22 33 40 119 59 181 40 110 -34 155 -178 84 -270 -32 -43 -94 -74
-145 -75 -37 0 -66 13 -146 68 -44 30 -55 33 -107 30 -64 -5 -98 -25 -134 -78
-22 -32 -23 -39 -23 -306 0 -261 1 -275 20 -294 19 -19 33 -20 270 -20 200 0
252 -3 256 -13 3 -8 -11 -37 -31 -66 -118 -177 -63 -397 124 -488 47 -24 69
-28 136 -28 71 0 88 4 148 33 189 93 239 341 102 504 -46 55 -34 58 244 58
246 0 248 0 269 23 l22 23 0 682 c0 592 -2 688 -15 719 -21 50 -42 72 -90 94
-35 16 -67 19 -243 19 -202 0 -203 0 -227 -25 -30 -29 -32 -64 -6 -96 19 -23
24 -24 223 -29 l203 -5 3 -627 2 -628 -202 0 c-211 -1 -257 -8 -300 -47 -33
-30 -51 -75 -51 -130 0 -42 6 -61 29 -94 61 -87 66 -99 66 -149 0 -68 -37
-131 -95 -159 -167 -81 -329 110 -220 260 82 114 84 199 7 271 -44 40 -92 48
-301 48 l-193 0 0 200 c0 220 1 223 58 175 58 -49 120 -70 207 -70 67 0 89 4
136 28 229 112 254 424 45 564 -119 81 -272 73 -395 -21 -19 -14 -38 -23 -42
-20 -5 3 -9 95 -9 205 l0 199 280 0 281 0 24 25 c14 13 25 36 25 50 0 14 -11
37 -25 50 l-24 25 -334 0 -334 0 -21 -23z"/>
<path d="M2342 4383 c-12 -10 -24 -30 -28 -45 -5 -22 0 -34 25 -59 30 -29 36
-31 88 -27 43 4 61 10 75 28 24 29 23 75 -2 100 -27 27 -128 28 -158 3z"/>
<path d="M2732 4377 c-27 -29 -28 -67 -3 -98 17 -22 29 -24 111 -28 102 -3
142 8 159 45 16 35 14 48 -10 78 -20 25 -24 26 -128 26 -99 0 -109 -2 -129
-23z"/>
<path d="M3222 4383 c-12 -10 -24 -30 -28 -45 -5 -22 0 -33 24 -58 26 -25 38
-30 80 -30 65 0 102 27 102 76 0 53 -28 74 -99 74 -41 0 -65 -5 -79 -17z"/>
<path d="M2359 3761 c-43 -14 -77 -41 -101 -80 -20 -31 -24 -54 -28 -166 l-5
-129 -82 -46 c-45 -25 -88 -51 -95 -57 -22 -23 -55 -14 -145 40 -84 50 -91 52
-159 52 -98 0 -119 -18 -216 -187 -106 -184 -110 -192 -110 -248 1 -87 35
-127 167 -200 41 -23 78 -47 82 -53 4 -7 8 -65 8 -130 1 -134 6 -124 -98 -182
-122 -67 -157 -109 -159 -188 -1 -61 4 -72 99 -236 100 -173 96 -167 147 -193
66 -34 133 -23 239 40 90 53 123 62 145 40 7 -7 50 -33 95 -58 l82 -46 5 -129
c6 -148 20 -185 88 -227 35 -22 45 -23 242 -23 197 0 207 1 242 23 68 42 82
79 88 227 l5 130 79 42 c43 24 87 49 96 58 27 24 53 18 147 -37 106 -63 173
-74 239 -40 51 26 46 20 150 197 79 135 88 156 92 211 7 98 -13 125 -161 214
l-92 55 0 124 -1 125 59 35 c120 73 152 97 175 131 20 30 23 44 20 100 -4 61
-11 76 -94 219 -110 189 -128 206 -228 206 -68 0 -75 -2 -159 -52 -94 -56
-120 -63 -147 -38 -9 9 -53 34 -96 58 l-79 42 -5 130 c-6 148 -20 185 -88 227
-35 22 -48 23 -227 25 -104 1 -202 -2 -216 -6z m369 -153 c8 -8 12 -50 12
-122 1 -166 18 -194 165 -278 39 -21 88 -50 110 -63 29 -18 55 -25 95 -25 48
0 67 7 153 55 53 30 105 55 115 55 19 0 172 -256 172 -288 0 -15 -28 -36 -104
-80 -149 -87 -151 -92 -151 -302 0 -210 2 -215 151 -302 76 -44 104 -65 104
-80 0 -32 -153 -288 -172 -288 -10 0 -62 25 -115 55 -86 48 -105 55 -153 55
-40 0 -66 -7 -95 -25 -22 -13 -71 -42 -110 -63 -147 -84 -164 -112 -165 -278
0 -72 -4 -114 -12 -122 -17 -17 -319 -17 -336 0 -8 8 -12 50 -12 122 -1 166
-18 194 -165 278 -38 21 -88 50 -110 63 -29 18 -55 25 -94 25 -48 0 -67 -7
-152 -55 -53 -30 -105 -55 -116 -55 -13 0 -40 39 -95 134 -43 74 -78 143 -78
154 0 13 30 36 104 80 149 88 151 92 151 302 0 210 -2 214 -151 302 -74 44
-104 67 -104 80 0 11 35 80 78 154 55 95 82 134 95 134 11 0 63 -25 116 -55
85 -48 104 -55 152 -55 39 0 65 7 94 25 22 13 72 42 110 63 147 84 164 112
165 278 0 72 4 114 12 122 8 8 60 12 168 12 108 0 160 -4 168 -12z"/>
<path d="M2433 3125 c-107 -23 -189 -70 -278 -160 -91 -90 -137 -171 -160
-282 -28 -131 -12 -260 47 -381 45 -93 168 -216 262 -261 166 -79 346 -79 513
0 94 44 216 167 262 263 79 167 79 349 -1 514 -45 94 -169 217 -261 261 -122
58 -255 74 -384 46z m232 -150 c83 -22 147 -60 206 -122 235 -249 96 -657
-245 -716 -279 -48 -537 209 -489 487 43 254 284 414 528 351z"/>
<path d="M2484 2820 c-99 -31 -180 -130 -191 -232 -15 -146 94 -280 239 -295
146 -15 280 94 295 239 15 152 -98 285 -250 294 -34 2 -76 -1 -93 -6z m160
-179 c26 -27 31 -39 31 -81 0 -43 -5 -54 -33 -82 -28 -28 -39 -33 -82 -33 -43
0 -54 5 -82 33 -28 28 -33 39 -33 81 0 52 25 92 70 112 37 16 96 3 129 -30z"/>
<path d="M740 3380 c-15 -15 -20 -33 -20 -79 0 -66 17 -96 62 -107 22 -5 33 0
58 24 25 26 30 38 30 80 0 65 -27 102 -76 102 -21 0 -42 -8 -54 -20z"/>
<path d="M746 2989 c-25 -20 -26 -24 -26 -128 0 -99 2 -109 23 -129 29 -27 67
-28 98 -3 22 17 24 29 28 111 3 102 -8 142 -45 159 -35 16 -48 14 -78 -10z"/>
<path d="M4294 2799 c-50 -25 -61 -132 -19 -174 30 -31 77 -33 105 -5 27 27
28 128 3 158 -22 26 -61 35 -89 21z"/>
<path d="M740 2500 c-15 -15 -20 -33 -20 -79 0 -66 17 -96 62 -107 22 -5 34 0
59 25 29 30 31 36 27 86 -3 34 -12 62 -23 75 -24 26 -78 27 -105 0z"/>
<path d="M4279 2391 c-22 -17 -24 -29 -28 -111 -3 -102 8 -142 45 -159 35 -16
48 -14 78 10 25 20 26 24 26 128 0 99 -2 109 -23 129 -29 27 -67 28 -98 3z"/>
<path d="M705 2151 c-86 -23 -167 -85 -208 -158 -64 -119 -48 -271 40 -377 44
-53 30 -56 -246 -56 -246 0 -248 0 -269 -23 l-22 -23 0 -685 c0 -642 2 -686
19 -724 38 -82 89 -105 240 -105 129 0 155 12 155 74 0 61 -19 70 -147 76
l-112 5 -3 628 -2 627 192 0 c205 0 256 7 297 38 70 52 86 160 35 233 -60 86
-66 100 -66 148 0 197 268 249 338 66 22 -58 14 -115 -23 -166 -47 -65 -63
-102 -63 -147 0 -75 52 -141 125 -161 22 -6 125 -11 233 -11 l192 0 0 -200 c0
-220 -1 -223 -58 -175 -58 49 -120 70 -207 70 -96 0 -150 -21 -220 -86 -154
-142 -136 -389 39 -506 119 -81 272 -73 395 21 19 14 38 23 42 20 5 -3 9 -95
9 -205 l0 -199 -369 0 c-357 0 -369 -1 -395 -21 -36 -28 -36 -80 0 -108 26
-20 37 -21 449 -21 l422 0 21 23 c21 23 22 30 22 291 0 303 -3 318 -72 363
-29 20 -51 26 -91 26 -57 0 -82 -10 -139 -56 -115 -92 -288 -12 -288 132 0 76
35 130 105 162 74 34 111 26 221 -49 44 -30 55 -33 107 -30 64 5 98 25 135 78
21 32 22 39 22 306 0 261 -1 275 -20 294 -19 19 -33 20 -270 20 -207 0 -252 2
-256 14 -3 8 11 38 30 66 72 105 84 228 32 334 -31 64 -100 130 -164 158 -50
23 -157 32 -207 19z"/>
<path d="M4280 1902 c-25 -26 -30 -38 -30 -80 0 -65 27 -102 76 -102 53 0 74
28 74 99 0 66 -17 96 -62 107 -22 5 -33 0 -58 -24z"/>
<path d="M3580 1540 c-19 -19 -20 -33 -20 -270 0 -207 -2 -252 -14 -256 -8 -3
-38 11 -66 30 -142 98 -318 81 -430 -40 -65 -71 -85 -123 -85 -224 1 -77 4
-91 35 -148 51 -96 131 -154 234 -170 96 -15 195 13 278 79 14 12 31 18 37 15
8 -5 11 -87 11 -260 0 -251 0 -253 23 -274 l23 -22 685 0 c642 0 686 2 724 19
48 22 69 44 90 94 13 31 15 127 15 720 l0 684 -23 21 c-23 21 -30 22 -291 22
-303 0 -318 -3 -363 -72 -20 -29 -26 -51 -26 -91 0 -57 10 -82 56 -139 35 -43
47 -96 35 -152 -35 -163 -260 -185 -329 -32 -34 75 -26 111 49 222 30 44 33
55 30 107 -5 64 -25 98 -78 135 -32 21 -39 22 -306 22 -261 0 -275 -1 -294
-20z m530 -144 c0 -8 -11 -28 -25 -44 -49 -58 -70 -120 -70 -207 0 -67 4 -89
28 -136 112 -229 424 -254 564 -45 81 119 73 272 -21 395 -14 19 -23 38 -20
42 3 5 95 9 205 9 l199 0 -2 -627 -3 -628 -627 -3 -627 -2 -3 255 c-3 250 -3
255 -26 277 -20 21 -32 23 -110 22 -89 0 -132 -13 -162 -49 -41 -49 -138 -62
-207 -26 -131 66 -117 263 22 317 58 22 115 14 166 -23 114 -82 199 -84 271
-7 40 44 48 92 48 302 l0 192 200 0 c166 0 200 -2 200 -14z"/>
<path d="M1746 849 c-19 -15 -26 -30 -26 -55 0 -53 28 -74 99 -74 66 0 96 17
107 62 5 22 0 33 -24 58 -26 25 -38 30 -80 30 -35 0 -57 -6 -76 -21z"/>
<path d="M2154 859 c-22 -11 -44 -48 -44 -73 0 -7 9 -25 21 -40 20 -25 24 -26
128 -26 99 0 109 2 129 23 27 29 28 67 3 98 -18 22 -28 24 -118 26 -55 2 -107
-2 -119 -8z"/>
<path d="M2626 849 c-19 -15 -26 -30 -26 -55 0 -53 28 -74 99 -74 66 0 96 17
107 62 5 22 0 33 -24 58 -26 25 -38 30 -80 30 -35 0 -57 -6 -76 -21z"/>
</g>
</svg>
