<?xml version="1.0" standalone="no"?>
<!DOCTYPE svg PUBLIC "-//W3C//DTD SVG 20010904//EN"
 "http://www.w3.org/TR/2001/REC-SVG-20010904/DTD/svg10.dtd">
<svg version="1.0" xmlns="http://www.w3.org/2000/svg"
viewBox="0 0 512.000000 512.000000"
 preserveAspectRatio="xMidYMid meet">

<g transform="translate(0.000000,512.000000) scale(0.100000,-0.100000)"
fill="currentColor" stroke="none">
<path d="M2315 5098 c-21 -19 -29 -41 -47 -138 -11 -63 -25 -120 -30 -126 -4
-7 -22 -14 -39 -18 -16 -3 -70 -24 -119 -47 l-90 -42 -107 72 c-91 62 -111 72
-137 67 -45 -9 -346 -312 -346 -348 0 -16 29 -70 71 -134 l71 -107 -23 -46
c-13 -25 -37 -82 -54 -126 l-31 -79 -120 -24 c-173 -34 -164 -18 -164 -296 0
-269 -7 -255 145 -286 55 -11 110 -22 122 -25 15 -4 26 -20 39 -57 9 -29 32
-87 51 -127 l34 -75 -71 -104 c-42 -63 -70 -114 -70 -130 0 -38 314 -352 352
-352 16 0 69 28 132 70 l105 69 68 -31 c37 -17 106 -44 153 -59 l85 -27 2
-139 c3 -169 6 -179 44 -198 25 -14 65 -16 249 -13 283 4 263 -11 270 204 l5
156 90 32 c50 18 109 42 132 54 l42 22 107 -70 c63 -42 116 -70 132 -70 38 0
352 314 352 352 0 16 -28 67 -70 130 l-71 104 34 75 c19 40 42 98 51 127 13
37 24 53 39 57 12 3 67 14 121 25 153 30 146 16 146 286 0 279 9 263 -164 297
l-120 23 -31 79 c-17 44 -41 101 -54 126 l-23 46 71 107 c42 64 71 118 71 134
0 36 -301 339 -345 348 -25 4 -47 -6 -137 -67 l-108 -72 -77 36 c-43 20 -100
44 -128 54 l-50 19 -22 119 c-32 173 -18 165 -293 165 -213 0 -220 -1 -245
-22z m384 -190 c6 -29 15 -81 22 -115 14 -78 31 -93 139 -126 47 -15 125 -47
173 -72 48 -25 96 -45 105 -45 9 0 61 30 115 66 l99 67 91 -91 90 -90 -66
-102 c-37 -57 -67 -109 -67 -116 0 -8 20 -52 45 -99 24 -46 56 -124 71 -172
15 -48 36 -98 46 -109 14 -16 49 -27 134 -44 l114 -23 0 -127 0 -128 -47 -10
c-27 -6 -76 -16 -111 -23 -64 -12 -112 -40 -112 -64 0 -30 -61 -191 -100 -261
-31 -57 -40 -83 -35 -102 3 -14 33 -64 66 -111 32 -48 59 -91 59 -96 0 -10
-86 -96 -152 -154 l-27 -24 -102 67 c-56 36 -106 66 -111 66 -6 0 -60 -24
-122 -54 -61 -30 -121 -57 -133 -61 l-23 -6 0 163 0 164 67 39 c106 60 212
174 267 287 62 125 80 199 79 328 0 278 -156 527 -402 643 -81 38 -117 39
-148 3 -23 -27 -23 -27 -23 -317 0 -319 -3 -334 -60 -364 -48 -25 -105 -19
-142 14 l-33 29 -5 317 -5 317 -29 25 c-38 32 -70 28 -179 -26 -189 -92 -321
-252 -379 -458 -27 -99 -30 -257 -4 -353 52 -202 193 -380 370 -468 l66 -33 0
-159 c0 -88 -1 -160 -3 -160 -20 0 -160 56 -221 89 -43 22 -84 41 -91 41 -7 0
-55 -27 -106 -61 -51 -34 -98 -63 -105 -66 -14 -5 -184 153 -184 171 0 6 27
49 59 97 33 47 62 96 66 110 4 17 -9 53 -48 129 -29 58 -62 139 -72 179 -23
87 -40 104 -127 120 -35 7 -84 17 -110 23 l-48 10 0 128 0 127 114 23 c85 17
120 28 134 44 10 11 31 61 46 109 15 48 47 126 71 172 25 47 45 91 45 99 0 7
-30 59 -67 116 l-66 102 91 91 91 91 98 -67 c54 -37 106 -67 116 -67 10 0 57
20 103 45 47 25 125 57 172 71 110 34 127 49 141 127 7 34 16 86 22 115 l10
52 129 0 129 0 10 -52z"/>
<path d="M257 3814 c-62 -19 -131 -87 -148 -145 -11 -36 -7 -169 30 -883 23
-463 46 -876 51 -918 11 -91 44 -163 99 -216 23 -22 158 -101 337 -197 l298
-160 54 -200 c60 -223 61 -204 -16 -247 -66 -36 -89 -116 -52 -188 39 -77 322
-564 347 -598 33 -44 77 -65 125 -59 47 6 1062 589 1084 622 27 41 34 84 20
124 -11 35 -233 426 -332 588 -38 61 -51 74 -90 89 -37 14 -52 15 -81 6 -21
-6 -38 -10 -39 -9 -1 1 -13 105 -28 230 -29 255 -46 314 -115 381 -20 20 -232
182 -471 361 l-435 326 -70 -5 -70 -5 -99 472 c-55 260 -105 488 -113 507 -42
104 -172 161 -286 124z m107 -155 c14 -7 27 -18 30 -25 3 -7 53 -241 112 -520
l107 -506 -24 -50 c-19 -41 -24 -68 -24 -132 0 -138 6 -146 262 -338 120 -91
228 -170 240 -176 32 -17 57 -15 87 9 23 18 27 28 24 63 -3 41 -3 41 -218 203
-118 89 -220 169 -227 179 -19 26 -16 94 7 131 18 30 65 63 89 63 6 0 203
-144 438 -319 273 -204 435 -331 447 -351 14 -24 26 -97 48 -296 17 -146 29
-266 27 -268 -19 -13 -603 -346 -608 -346 -4 0 -29 80 -55 177 -55 205 -67
235 -109 265 -17 12 -159 91 -316 174 -329 175 -337 182 -351 290 -5 38 -28
444 -51 903 l-43 834 28 23 c31 27 44 29 80 13z m1671 -2594 c52 -51 18 -135
-54 -135 -78 0 -110 84 -50 134 38 33 73 33 104 1z"/>
<path d="M4735 3821 c-71 -18 -133 -69 -158 -131 -7 -19 -58 -248 -113 -507
l-99 -473 -67 7 -67 6 -428 -319 c-235 -175 -449 -338 -474 -362 -78 -72 -95
-125 -125 -389 -15 -125 -27 -229 -28 -230 -1 -1 -20 3 -42 9 -37 10 -47 9
-89 -13 -47 -23 -52 -31 -226 -334 -99 -171 -183 -325 -188 -344 -13 -44 8
-109 44 -136 59 -45 1022 -595 1052 -601 45 -9 78 1 113 34 26 24 298 481 367
616 43 85 21 153 -67 207 -28 17 -50 34 -50 37 0 4 24 95 53 202 l53 195 85
45 c46 26 180 97 297 160 126 67 229 129 252 151 57 55 89 126 100 217 4 42
28 455 51 918 49 945 50 894 -26 969 -60 61 -141 85 -220 66z m101 -175 l28
-23 -43 -834 c-23 -459 -46 -865 -51 -903 -14 -108 -23 -115 -345 -287 -330
-176 -347 -187 -368 -231 -8 -18 -37 -113 -63 -211 -26 -97 -51 -177 -55 -177
-4 0 -114 62 -245 138 -132 76 -267 154 -301 173 -35 19 -63 41 -63 49 0 8 13
129 29 268 26 222 32 258 53 287 22 33 858 665 879 665 24 0 71 -33 89 -63 20
-32 26 -90 14 -122 -4 -9 -105 -90 -224 -180 -119 -90 -220 -171 -224 -180
-14 -37 -6 -74 20 -94 52 -41 51 -42 349 181 167 126 193 149 215 193 38 76
39 163 5 249 l-27 68 102 481 c55 265 105 498 111 518 15 58 69 75 115 35z
m-1647 -2582 c58 -49 28 -134 -48 -134 -108 0 -108 155 1 159 9 1 30 -11 47
-25z"/>
</g>
</svg>
